  0
SECTION
  2
HEADER
  9
$ANGBASE
  50
0.0
  9
$ANGDIR
  70
1
  9
$MEASUREMENT
  70
1
  0
ENDSEC
  0
SECTION
  2
TABLES
  0
TABLE
  2
LTYPE
  70
4
  0
LTYPE
  5
40F
  2
CONTINUOUS
  70
0
  3
Solid line
  72
65
  73
0
  40
0.0
  0
LTYPE
  5
410
  2
DASHDOT
 70
0
  3
Dash Dot ____ _ ____ _
 72
65
 73
4
 40
2.0
 49
1.25
 49
-0.25
 49
0.25
 49
-0.25
  0
LTYPE
  5
411
  2
DASHED
 70
0
  3
Dashed __ __ __ __ __
 72
65
 73
2
 40
0.75
 49
0.5
 49
-0.25
  0
LTYPE
  5
43B
  2
DOTTED
 70
0
  3
Dotted .  .  .  .
 72
65
 73
2
 40
0.2
 49
0.0
 49
-0.2
  0
ENDTAB
  0
TABLE
  2
STYLE
  70
4
  0
STYLE
  2
KICAD
  70
0
  40
0
  41
1
  42
1
  50
0
  71
0
  3
isocp.shx
  0
STYLE
  2
KICADB
  70
0
  40
0
  41
1
  42
1
  50
0
  71
0
  3
isocp.shx
  0
STYLE
  2
KICADI
  70
0
  40
0
  41
1
  42
1
  50
15
  71
0
  3
isocp.shx
  0
STYLE
  2
KICADBI
  70
0
  40
0
  41
1
  42
1
  50
15
  71
0
  3
isocp.shx
  0
ENDTAB
  0
TABLE
  2
LAYER
  70
1
  0
LAYER
  2
BLACK
  70
0
  62
7
  6
CONTINUOUS
  0
ENDTAB
  0
ENDSEC
  0
SECTION
  2
ENTITIES
0
LINE
8
BLACK
6
CONTINUOUS
10
166.9722079999999949
20
-89.5242539999999991
11
167.0739429999999857
21
-89.5829909999999927
0
LINE
8
BLACK
6
CONTINUOUS
10
167.0739429999999857
20
-89.5829909999999927
11
167.157008999999988
21
-89.666056999999995
0
LINE
8
BLACK
6
CONTINUOUS
10
167.157008999999988
20
-89.666056999999995
11
167.2157459999999958
21
-89.767792
0
LINE
8
BLACK
6
CONTINUOUS
10
167.2157459999999958
20
-89.767792
11
167.2461500000000001
21
-89.8812629999999899
0
LINE
8
BLACK
6
CONTINUOUS
10
167.2461500000000001
20
-89.8812629999999899
11
167.2461500000000001
21
-89.9987369999999913
0
LINE
8
BLACK
6
CONTINUOUS
10
167.2461500000000001
20
-89.9987369999999913
11
167.2157459999999958
21
-90.1122079999999954
0
LINE
8
BLACK
6
CONTINUOUS
10
167.2157459999999958
20
-90.1122079999999954
11
167.157008999999988
21
-90.2139430000000004
0
LINE
8
BLACK
6
CONTINUOUS
10
167.157008999999988
20
-90.2139430000000004
11
167.0739429999999857
21
-90.2970090000000027
0
LINE
8
BLACK
6
CONTINUOUS
10
167.0739429999999857
20
-90.2970090000000027
11
166.9722079999999949
21
-90.3557459999999963
0
LINE
8
BLACK
6
CONTINUOUS
10
166.9722079999999949
20
-90.3557459999999963
11
166.8587369999999908
21
-90.3861500000000007
0
LINE
8
BLACK
6
CONTINUOUS
10
166.8587369999999908
20
-90.3861500000000007
11
166.7412630000000036
21
-90.3861500000000007
0
LINE
8
BLACK
6
CONTINUOUS
10
166.7412630000000036
20
-90.3861500000000007
11
166.6277919999999995
21
-90.3557459999999963
0
LINE
8
BLACK
6
CONTINUOUS
10
166.6277919999999995
20
-90.3557459999999963
11
166.5260569999999802
21
-90.2970090000000027
0
LINE
8
BLACK
6
CONTINUOUS
10
166.5260569999999802
20
-90.2970090000000027
11
166.4429910000000064
21
-90.2139430000000004
0
LINE
8
BLACK
6
CONTINUOUS
10
166.4429910000000064
20
-90.2139430000000004
11
166.3842539999999985
21
-90.1122079999999954
0
LINE
8
BLACK
6
CONTINUOUS
10
166.3842539999999985
20
-90.1122079999999954
11
166.3538499999999942
21
-89.9987369999999913
0
LINE
8
BLACK
6
CONTINUOUS
10
166.3538499999999942
20
-89.9987369999999913
11
166.3538499999999942
21
-89.8812629999999899
0
LINE
8
BLACK
6
CONTINUOUS
10
166.3538499999999942
20
-89.8812629999999899
11
166.3842539999999985
21
-89.767792
0
LINE
8
BLACK
6
CONTINUOUS
10
166.3842539999999985
20
-89.767792
11
166.4429910000000064
21
-89.666056999999995
0
LINE
8
BLACK
6
CONTINUOUS
10
166.4429910000000064
20
-89.666056999999995
11
166.5260569999999802
21
-89.5829909999999927
0
LINE
8
BLACK
6
CONTINUOUS
10
166.5260569999999802
20
-89.5829909999999927
11
166.6277919999999995
21
-89.5242539999999991
0
LINE
8
BLACK
6
CONTINUOUS
10
166.6277919999999995
20
-89.5242539999999991
11
166.7412630000000036
21
-89.4938499999999948
0
LINE
8
BLACK
6
CONTINUOUS
10
166.7412630000000036
20
-89.4938499999999948
11
166.8587369999999908
21
-89.4938499999999948
0
LINE
8
BLACK
6
CONTINUOUS
10
166.8587369999999908
20
-89.4938499999999948
11
166.9722079999999949
21
-89.5242539999999991
0
LINE
8
BLACK
6
CONTINUOUS
10
166.9722079999999949
20
-86.5242539999999991
11
167.0739429999999857
21
-86.5829909999999927
0
LINE
8
BLACK
6
CONTINUOUS
10
167.0739429999999857
20
-86.5829909999999927
11
167.157008999999988
21
-86.666056999999995
0
LINE
8
BLACK
6
CONTINUOUS
10
167.157008999999988
20
-86.666056999999995
11
167.2157459999999958
21
-86.767792
0
LINE
8
BLACK
6
CONTINUOUS
10
167.2157459999999958
20
-86.767792
11
167.2461500000000001
21
-86.8812629999999899
0
LINE
8
BLACK
6
CONTINUOUS
10
167.2461500000000001
20
-86.8812629999999899
11
167.2461500000000001
21
-86.9987369999999913
0
LINE
8
BLACK
6
CONTINUOUS
10
167.2461500000000001
20
-86.9987369999999913
11
167.2157459999999958
21
-87.1122079999999954
0
LINE
8
BLACK
6
CONTINUOUS
10
167.2157459999999958
20
-87.1122079999999954
11
167.157008999999988
21
-87.2139430000000004
0
LINE
8
BLACK
6
CONTINUOUS
10
167.157008999999988
20
-87.2139430000000004
11
167.0739429999999857
21
-87.2970090000000027
0
LINE
8
BLACK
6
CONTINUOUS
10
167.0739429999999857
20
-87.2970090000000027
11
166.9722079999999949
21
-87.3557459999999963
0
LINE
8
BLACK
6
CONTINUOUS
10
166.9722079999999949
20
-87.3557459999999963
11
166.8587369999999908
21
-87.3861500000000007
0
LINE
8
BLACK
6
CONTINUOUS
10
166.8587369999999908
20
-87.3861500000000007
11
166.7412630000000036
21
-87.3861500000000007
0
LINE
8
BLACK
6
CONTINUOUS
10
166.7412630000000036
20
-87.3861500000000007
11
166.6277919999999995
21
-87.3557459999999963
0
LINE
8
BLACK
6
CONTINUOUS
10
166.6277919999999995
20
-87.3557459999999963
11
166.5260569999999802
21
-87.2970090000000027
0
LINE
8
BLACK
6
CONTINUOUS
10
166.5260569999999802
20
-87.2970090000000027
11
166.4429910000000064
21
-87.2139430000000004
0
LINE
8
BLACK
6
CONTINUOUS
10
166.4429910000000064
20
-87.2139430000000004
11
166.3842539999999985
21
-87.1122079999999954
0
LINE
8
BLACK
6
CONTINUOUS
10
166.3842539999999985
20
-87.1122079999999954
11
166.3538499999999942
21
-86.9987369999999913
0
LINE
8
BLACK
6
CONTINUOUS
10
166.3538499999999942
20
-86.9987369999999913
11
166.3538499999999942
21
-86.8812629999999899
0
LINE
8
BLACK
6
CONTINUOUS
10
166.3538499999999942
20
-86.8812629999999899
11
166.3842539999999985
21
-86.767792
0
LINE
8
BLACK
6
CONTINUOUS
10
166.3842539999999985
20
-86.767792
11
166.4429910000000064
21
-86.666056999999995
0
LINE
8
BLACK
6
CONTINUOUS
10
166.4429910000000064
20
-86.666056999999995
11
166.5260569999999802
21
-86.5829909999999927
0
LINE
8
BLACK
6
CONTINUOUS
10
166.5260569999999802
20
-86.5829909999999927
11
166.6277919999999995
21
-86.5242539999999991
0
LINE
8
BLACK
6
CONTINUOUS
10
166.6277919999999995
20
-86.5242539999999991
11
166.7412630000000036
21
-86.4938499999999948
0
LINE
8
BLACK
6
CONTINUOUS
10
166.7412630000000036
20
-86.4938499999999948
11
166.8587369999999908
21
-86.4938499999999948
0
LINE
8
BLACK
6
CONTINUOUS
10
166.8587369999999908
20
-86.4938499999999948
11
166.9722079999999949
21
-86.5242539999999991
  0
ENDSEC
  0
EOF
