  0
SECTION
  2
HEADER
  9
$ANGBASE
  50
0.0
  9
$ANGDIR
  70
1
  9
$MEASUREMENT
  70
1
  0
ENDSEC
  0
SECTION
  2
TABLES
  0
TABLE
  2
LTYPE
  70
4
  0
LTYPE
  5
40F
  2
CONTINUOUS
  70
0
  3
Solid line
  72
65
  73
0
  40
0.0
  0
LTYPE
  5
410
  2
DASHDOT
 70
0
  3
Dash Dot ____ _ ____ _
 72
65
 73
4
 40
2.0
 49
1.25
 49
-0.25
 49
0.25
 49
-0.25
  0
LTYPE
  5
411
  2
DASHED
 70
0
  3
Dashed __ __ __ __ __
 72
65
 73
2
 40
0.75
 49
0.5
 49
-0.25
  0
LTYPE
  5
43B
  2
DOTTED
 70
0
  3
Dotted .  .  .  .
 72
65
 73
2
 40
0.2
 49
0.0
 49
-0.2
  0
ENDTAB
  0
TABLE
  2
STYLE
  70
4
  0
STYLE
  2
KICAD
  70
0
  40
0
  41
1
  42
1
  50
0
  71
0
  3
isocp.shx
  0
STYLE
  2
KICADB
  70
0
  40
0
  41
1
  42
1
  50
0
  71
0
  3
isocp.shx
  0
STYLE
  2
KICADI
  70
0
  40
0
  41
1
  42
1
  50
15
  71
0
  3
isocp.shx
  0
STYLE
  2
KICADBI
  70
0
  40
0
  41
1
  42
1
  50
15
  71
0
  3
isocp.shx
  0
ENDTAB
  0
TABLE
  2
LAYER
  70
1
  0
LAYER
  2
BLACK
  70
0
  62
7
  6
CONTINUOUS
  0
ENDTAB
  0
ENDSEC
  0
SECTION
  2
ENTITIES
0
LINE
8
BLACK
6
CONTINUOUS
10
167.4668240000000026
20
-95.4636819999999915
11
167.6757570000000044
21
-95.5315689999999904
0
LINE
8
BLACK
6
CONTINUOUS
10
167.6757570000000044
20
-95.5315689999999904
11
167.8714980000000025
21
-95.6313040000000001
0
LINE
8
BLACK
6
CONTINUOUS
10
167.8714980000000025
20
-95.6313040000000001
11
168.0492270000000019
21
-95.7604319999999944
0
LINE
8
BLACK
6
CONTINUOUS
10
168.0492270000000019
20
-95.7604319999999944
11
168.2045679999999948
21
-95.9157730000000015
0
LINE
8
BLACK
6
CONTINUOUS
10
168.2045679999999948
20
-95.9157730000000015
11
168.3336960000000033
21
-96.0935020000000009
0
LINE
8
BLACK
6
CONTINUOUS
10
168.3336960000000033
20
-96.0935020000000009
11
168.4334309999999846
21
-96.289242999999999
0
LINE
8
BLACK
6
CONTINUOUS
10
168.4334309999999846
20
-96.289242999999999
11
168.5013179999999977
21
-96.4981760000000008
0
LINE
8
BLACK
6
CONTINUOUS
10
168.5013179999999977
20
-96.4981760000000008
11
168.5356840000000034
21
-96.7151569999999907
0
LINE
8
BLACK
6
CONTINUOUS
10
168.5356840000000034
20
-96.7151569999999907
11
168.5356840000000034
21
-96.9348430000000008
0
LINE
8
BLACK
6
CONTINUOUS
10
168.5356840000000034
20
-96.9348430000000008
11
168.5013179999999977
21
-97.1518239999999906
0
LINE
8
BLACK
6
CONTINUOUS
10
168.5013179999999977
20
-97.1518239999999906
11
168.4334309999999846
21
-97.3607569999999924
0
LINE
8
BLACK
6
CONTINUOUS
10
168.4334309999999846
20
-97.3607569999999924
11
168.3336960000000033
21
-97.5564979999999906
0
LINE
8
BLACK
6
CONTINUOUS
10
168.3336960000000033
20
-97.5564979999999906
11
168.2045679999999948
21
-97.73422699999999
0
LINE
8
BLACK
6
CONTINUOUS
10
168.2045679999999948
20
-97.73422699999999
11
168.0492270000000019
21
-97.889567999999997
0
LINE
8
BLACK
6
CONTINUOUS
10
168.0492270000000019
20
-97.889567999999997
11
167.8714980000000025
21
-98.0186959999999914
0
LINE
8
BLACK
6
CONTINUOUS
10
167.8714980000000025
20
-98.0186959999999914
11
167.6757570000000044
21
-98.1184310000000011
0
LINE
8
BLACK
6
CONTINUOUS
10
167.6757570000000044
20
-98.1184310000000011
11
167.4668240000000026
21
-98.186318
0
LINE
8
BLACK
6
CONTINUOUS
10
167.4668240000000026
20
-98.186318
11
167.2498429999999985
21
-98.2206839999999914
0
LINE
8
BLACK
6
CONTINUOUS
10
167.2498429999999985
20
-98.2206839999999914
11
167.0301570000000027
21
-98.2206839999999914
0
LINE
8
BLACK
6
CONTINUOUS
10
167.0301570000000027
20
-98.2206839999999914
11
166.8131759999999986
21
-98.186318
0
LINE
8
BLACK
6
CONTINUOUS
10
166.8131759999999986
20
-98.186318
11
166.6042429999999968
21
-98.1184310000000011
0
LINE
8
BLACK
6
CONTINUOUS
10
166.6042429999999968
20
-98.1184310000000011
11
166.4085019999999986
21
-98.0186959999999914
0
LINE
8
BLACK
6
CONTINUOUS
10
166.4085019999999986
20
-98.0186959999999914
11
166.2307729999999992
21
-97.889567999999997
0
LINE
8
BLACK
6
CONTINUOUS
10
166.2307729999999992
20
-97.889567999999997
11
166.0754320000000064
21
-97.73422699999999
0
LINE
8
BLACK
6
CONTINUOUS
10
166.0754320000000064
20
-97.73422699999999
11
165.9463039999999978
21
-97.5564979999999906
0
LINE
8
BLACK
6
CONTINUOUS
10
165.9463039999999978
20
-97.5564979999999906
11
165.8465689999999881
21
-97.3607569999999924
0
LINE
8
BLACK
6
CONTINUOUS
10
165.8465689999999881
20
-97.3607569999999924
11
165.7786820000000034
21
-97.1518239999999906
0
LINE
8
BLACK
6
CONTINUOUS
10
165.7786820000000034
20
-97.1518239999999906
11
165.7443159999999978
21
-96.9348430000000008
0
LINE
8
BLACK
6
CONTINUOUS
10
165.7443159999999978
20
-96.9348430000000008
11
165.7443159999999978
21
-96.7187529999999924
0
LINE
8
BLACK
6
CONTINUOUS
10
165.7443159999999978
20
-96.7187529999999924
11
165.7443159999999978
21
-96.7151569999999907
0
LINE
8
BLACK
6
CONTINUOUS
10
165.7443159999999978
20
-96.7151569999999907
11
165.7786820000000034
21
-96.4981760000000008
0
LINE
8
BLACK
6
CONTINUOUS
10
165.7786820000000034
20
-96.4981760000000008
11
165.8465689999999881
21
-96.289242999999999
0
LINE
8
BLACK
6
CONTINUOUS
10
165.8465689999999881
20
-96.289242999999999
11
165.9463039999999978
21
-96.0935020000000009
0
LINE
8
BLACK
6
CONTINUOUS
10
165.9463039999999978
20
-96.0935020000000009
11
166.0754320000000064
21
-95.9157730000000015
0
LINE
8
BLACK
6
CONTINUOUS
10
166.0754320000000064
20
-95.9157730000000015
11
166.2307729999999992
21
-95.7604319999999944
0
LINE
8
BLACK
6
CONTINUOUS
10
166.2307729999999992
20
-95.7604319999999944
11
166.4085019999999986
21
-95.6313040000000001
0
LINE
8
BLACK
6
CONTINUOUS
10
166.4085019999999986
20
-95.6313040000000001
11
166.6042429999999968
21
-95.5315689999999904
0
LINE
8
BLACK
6
CONTINUOUS
10
166.6042429999999968
20
-95.5315689999999904
11
166.8131759999999986
21
-95.4636819999999915
0
LINE
8
BLACK
6
CONTINUOUS
10
166.8131759999999986
20
-95.4636819999999915
11
167.0301570000000027
21
-95.429316
0
LINE
8
BLACK
6
CONTINUOUS
10
167.0301570000000027
20
-95.429316
11
167.2498429999999985
21
-95.429316
0
LINE
8
BLACK
6
CONTINUOUS
10
167.2498429999999985
20
-95.429316
11
167.4668240000000026
21
-95.4636819999999915
0
LINE
8
BLACK
6
CONTINUOUS
10
165.789999999999992
20
-96.931246999999999
11
165.8232419999999934
21
-97.1411259999999999
0
LINE
8
BLACK
6
CONTINUOUS
10
165.8232419999999934
20
-97.1411259999999999
11
165.8889059999999915
21
-97.3432200000000023
0
LINE
8
BLACK
6
CONTINUOUS
10
165.8889059999999915
20
-97.3432200000000023
11
165.9853769999999997
21
-97.5325539999999904
0
LINE
8
BLACK
6
CONTINUOUS
10
165.9853769999999997
20
-97.5325539999999904
11
166.1102779999999939
21
-97.7044659999999965
0
LINE
8
BLACK
6
CONTINUOUS
10
166.1102779999999939
20
-97.7044659999999965
11
166.2605339999999785
21
-97.8547219999999953
0
LINE
8
BLACK
6
CONTINUOUS
10
166.2605339999999785
20
-97.8547219999999953
11
166.4324459999999988
21
-97.9796229999999895
0
LINE
8
BLACK
6
CONTINUOUS
10
166.4324459999999988
20
-97.9796229999999895
11
166.6217800000000011
21
-98.0760939999999977
0
LINE
8
BLACK
6
CONTINUOUS
10
166.6217800000000011
20
-98.0760939999999977
11
166.8238739999999893
21
-98.1417579999999958
0
LINE
8
BLACK
6
CONTINUOUS
10
166.8238739999999893
20
-98.1417579999999958
11
167.0337529999999902
21
-98.1749999999999972
0
LINE
8
BLACK
6
CONTINUOUS
10
167.0337529999999902
20
-98.1749999999999972
11
167.2462469999999826
21
-98.1749999999999972
0
LINE
8
BLACK
6
CONTINUOUS
10
167.2462469999999826
20
-98.1749999999999972
11
167.4561259999999834
21
-98.1417579999999958
0
LINE
8
BLACK
6
CONTINUOUS
10
167.4561259999999834
20
-98.1417579999999958
11
167.65822
21
-98.0760939999999977
0
LINE
8
BLACK
6
CONTINUOUS
10
167.65822
20
-98.0760939999999977
11
167.8475540000000024
21
-97.9796229999999895
0
LINE
8
BLACK
6
CONTINUOUS
10
167.8475540000000024
20
-97.9796229999999895
11
168.0194659999999942
21
-97.8547219999999953
0
LINE
8
BLACK
6
CONTINUOUS
10
168.0194659999999942
20
-97.8547219999999953
11
168.1697219999999788
21
-97.7044659999999965
0
LINE
8
BLACK
6
CONTINUOUS
10
168.1697219999999788
20
-97.7044659999999965
11
168.2946230000000014
21
-97.5325539999999904
0
LINE
8
BLACK
6
CONTINUOUS
10
168.2946230000000014
20
-97.5325539999999904
11
168.3910939999999812
21
-97.3432200000000023
0
LINE
8
BLACK
6
CONTINUOUS
10
168.3910939999999812
20
-97.3432200000000023
11
168.4567579999999793
21
-97.1411259999999999
0
LINE
8
BLACK
6
CONTINUOUS
10
168.4567579999999793
20
-97.1411259999999999
11
168.4899999999999807
21
-96.931246999999999
0
LINE
8
BLACK
6
CONTINUOUS
10
168.4899999999999807
20
-96.931246999999999
11
168.4899999999999807
21
-96.7187529999999924
0
LINE
8
BLACK
6
CONTINUOUS
10
168.4899999999999807
20
-96.7187529999999924
11
168.4567579999999793
21
-96.5088739999999916
0
LINE
8
BLACK
6
CONTINUOUS
10
168.4567579999999793
20
-96.5088739999999916
11
168.3910939999999812
21
-96.3067799999999892
0
LINE
8
BLACK
6
CONTINUOUS
10
168.3910939999999812
20
-96.3067799999999892
11
168.2946230000000014
21
-96.117446000000001
0
LINE
8
BLACK
6
CONTINUOUS
10
168.2946230000000014
20
-96.117446000000001
11
168.1697219999999788
21
-95.945533999999995
0
LINE
8
BLACK
6
CONTINUOUS
10
168.1697219999999788
20
-95.945533999999995
11
168.0194659999999942
21
-95.7952779999999962
0
LINE
8
BLACK
6
CONTINUOUS
10
168.0194659999999942
20
-95.7952779999999962
11
167.8475540000000024
21
-95.670377000000002
0
LINE
8
BLACK
6
CONTINUOUS
10
167.8475540000000024
20
-95.670377000000002
11
167.65822
21
-95.5739059999999938
0
LINE
8
BLACK
6
CONTINUOUS
10
167.65822
20
-95.5739059999999938
11
167.4561259999999834
21
-95.5082419999999956
0
LINE
8
BLACK
6
CONTINUOUS
10
167.4561259999999834
20
-95.5082419999999956
11
167.2462469999999826
21
-95.4749999999999943
0
LINE
8
BLACK
6
CONTINUOUS
10
167.2462469999999826
20
-95.4749999999999943
11
167.0337529999999902
21
-95.4749999999999943
0
LINE
8
BLACK
6
CONTINUOUS
10
167.0337529999999902
20
-95.4749999999999943
11
166.8238739999999893
21
-95.5082419999999956
0
LINE
8
BLACK
6
CONTINUOUS
10
166.8238739999999893
20
-95.5082419999999956
11
166.6217800000000011
21
-95.5739059999999938
0
LINE
8
BLACK
6
CONTINUOUS
10
166.6217800000000011
20
-95.5739059999999938
11
166.4324459999999988
21
-95.670377000000002
0
LINE
8
BLACK
6
CONTINUOUS
10
166.4324459999999988
20
-95.670377000000002
11
166.2605339999999785
21
-95.7952779999999962
0
LINE
8
BLACK
6
CONTINUOUS
10
166.2605339999999785
20
-95.7952779999999962
11
166.1102779999999939
21
-95.945533999999995
0
LINE
8
BLACK
6
CONTINUOUS
10
166.1102779999999939
20
-95.945533999999995
11
165.9853769999999997
21
-96.117446000000001
0
LINE
8
BLACK
6
CONTINUOUS
10
165.9853769999999997
20
-96.117446000000001
11
165.8889059999999915
21
-96.3067799999999892
0
LINE
8
BLACK
6
CONTINUOUS
10
165.8889059999999915
20
-96.3067799999999892
11
165.8232419999999934
21
-96.5088739999999916
0
LINE
8
BLACK
6
CONTINUOUS
10
165.8232419999999934
20
-96.5088739999999916
11
165.789999999999992
21
-96.7187529999999924
0
LINE
8
BLACK
6
CONTINUOUS
10
165.789999999999992
20
-96.7187529999999924
11
165.789999999999992
21
-96.931246999999999
0
LINE
8
BLACK
6
CONTINUOUS
10
209.2918239999999912
20
-87.6586819999999989
11
209.500756999999993
21
-87.7265689999999978
0
LINE
8
BLACK
6
CONTINUOUS
10
209.500756999999993
20
-87.7265689999999978
11
209.6964979999999912
21
-87.8263039999999933
0
LINE
8
BLACK
6
CONTINUOUS
10
209.6964979999999912
20
-87.8263039999999933
11
209.8742269999999905
21
-87.9554320000000018
0
LINE
8
BLACK
6
CONTINUOUS
10
209.8742269999999905
20
-87.9554320000000018
11
210.0295679999999834
21
-88.1107729999999947
0
LINE
8
BLACK
6
CONTINUOUS
10
210.0295679999999834
20
-88.1107729999999947
11
210.158695999999992
21
-88.288501999999994
0
LINE
8
BLACK
6
CONTINUOUS
10
210.158695999999992
20
-88.288501999999994
11
210.2584310000000016
21
-88.4842429999999922
0
LINE
8
BLACK
6
CONTINUOUS
10
210.2584310000000016
20
-88.4842429999999922
11
210.3263179999999863
21
-88.693175999999994
0
LINE
8
BLACK
6
CONTINUOUS
10
210.3263179999999863
20
-88.693175999999994
11
210.360683999999992
21
-88.9101569999999981
0
LINE
8
BLACK
6
CONTINUOUS
10
210.360683999999992
20
-88.9101569999999981
11
210.360683999999992
21
-89.1298429999999939
0
LINE
8
BLACK
6
CONTINUOUS
10
210.360683999999992
20
-89.1298429999999939
11
210.3263179999999863
21
-89.346823999999998
0
LINE
8
BLACK
6
CONTINUOUS
10
210.3263179999999863
20
-89.346823999999998
11
210.2584310000000016
21
-89.5557569999999998
0
LINE
8
BLACK
6
CONTINUOUS
10
210.2584310000000016
20
-89.5557569999999998
11
210.158695999999992
21
-89.751497999999998
0
LINE
8
BLACK
6
CONTINUOUS
10
210.158695999999992
20
-89.751497999999998
11
210.0295679999999834
21
-89.9292269999999974
0
LINE
8
BLACK
6
CONTINUOUS
10
210.0295679999999834
20
-89.9292269999999974
11
209.8742269999999905
21
-90.0845679999999902
0
LINE
8
BLACK
6
CONTINUOUS
10
209.8742269999999905
20
-90.0845679999999902
11
209.6964979999999912
21
-90.2136959999999988
0
LINE
8
BLACK
6
CONTINUOUS
10
209.6964979999999912
20
-90.2136959999999988
11
209.500756999999993
21
-90.3134309999999942
0
LINE
8
BLACK
6
CONTINUOUS
10
209.500756999999993
20
-90.3134309999999942
11
209.2918239999999912
21
-90.3813179999999932
0
LINE
8
BLACK
6
CONTINUOUS
10
209.2918239999999912
20
-90.3813179999999932
11
209.0748429999999871
21
-90.4156839999999988
0
LINE
8
BLACK
6
CONTINUOUS
10
209.0748429999999871
20
-90.4156839999999988
11
208.8551569999999913
21
-90.4156839999999988
0
LINE
8
BLACK
6
CONTINUOUS
10
208.8551569999999913
20
-90.4156839999999988
11
208.6381759999999872
21
-90.3813179999999932
0
LINE
8
BLACK
6
CONTINUOUS
10
208.6381759999999872
20
-90.3813179999999932
11
208.4292429999999854
21
-90.3134309999999942
0
LINE
8
BLACK
6
CONTINUOUS
10
208.4292429999999854
20
-90.3134309999999942
11
208.2335019999999872
21
-90.2136959999999988
0
LINE
8
BLACK
6
CONTINUOUS
10
208.2335019999999872
20
-90.2136959999999988
11
208.0557729999999879
21
-90.0845679999999902
0
LINE
8
BLACK
6
CONTINUOUS
10
208.0557729999999879
20
-90.0845679999999902
11
207.900431999999995
21
-89.9292269999999974
0
LINE
8
BLACK
6
CONTINUOUS
10
207.900431999999995
20
-89.9292269999999974
11
207.7713039999999864
21
-89.751497999999998
0
LINE
8
BLACK
6
CONTINUOUS
10
207.7713039999999864
20
-89.751497999999998
11
207.6715689999999768
21
-89.5557569999999998
0
LINE
8
BLACK
6
CONTINUOUS
10
207.6715689999999768
20
-89.5557569999999998
11
207.6036819999999921
21
-89.346823999999998
0
LINE
8
BLACK
6
CONTINUOUS
10
207.6036819999999921
20
-89.346823999999998
11
207.5693159999999864
21
-89.1298429999999939
0
LINE
8
BLACK
6
CONTINUOUS
10
207.5693159999999864
20
-89.1298429999999939
11
207.5693159999999864
21
-88.9137529999999998
0
LINE
8
BLACK
6
CONTINUOUS
10
207.5693159999999864
20
-88.9137529999999998
11
207.5693159999999864
21
-88.9101569999999981
0
LINE
8
BLACK
6
CONTINUOUS
10
207.5693159999999864
20
-88.9101569999999981
11
207.6036819999999921
21
-88.693175999999994
0
LINE
8
BLACK
6
CONTINUOUS
10
207.6036819999999921
20
-88.693175999999994
11
207.6715689999999768
21
-88.4842429999999922
0
LINE
8
BLACK
6
CONTINUOUS
10
207.6715689999999768
20
-88.4842429999999922
11
207.7713039999999864
21
-88.288501999999994
0
LINE
8
BLACK
6
CONTINUOUS
10
207.7713039999999864
20
-88.288501999999994
11
207.900431999999995
21
-88.1107729999999947
0
LINE
8
BLACK
6
CONTINUOUS
10
207.900431999999995
20
-88.1107729999999947
11
208.0557729999999879
21
-87.9554320000000018
0
LINE
8
BLACK
6
CONTINUOUS
10
208.0557729999999879
20
-87.9554320000000018
11
208.2335019999999872
21
-87.8263039999999933
0
LINE
8
BLACK
6
CONTINUOUS
10
208.2335019999999872
20
-87.8263039999999933
11
208.4292429999999854
21
-87.7265689999999978
0
LINE
8
BLACK
6
CONTINUOUS
10
208.4292429999999854
20
-87.7265689999999978
11
208.6381759999999872
21
-87.6586819999999989
0
LINE
8
BLACK
6
CONTINUOUS
10
208.6381759999999872
20
-87.6586819999999989
11
208.8551569999999913
21
-87.6243159999999932
0
LINE
8
BLACK
6
CONTINUOUS
10
208.8551569999999913
20
-87.6243159999999932
11
209.0748429999999871
21
-87.6243159999999932
0
LINE
8
BLACK
6
CONTINUOUS
10
209.0748429999999871
20
-87.6243159999999932
11
209.2918239999999912
21
-87.6586819999999989
0
LINE
8
BLACK
6
CONTINUOUS
10
207.6149999999999807
20
-89.1262469999999922
11
207.648241999999982
21
-89.336125999999993
0
LINE
8
BLACK
6
CONTINUOUS
10
207.648241999999982
20
-89.336125999999993
11
207.7139059999999802
21
-89.5382199999999955
0
LINE
8
BLACK
6
CONTINUOUS
10
207.7139059999999802
20
-89.5382199999999955
11
207.8103769999999884
21
-89.7275539999999978
0
LINE
8
BLACK
6
CONTINUOUS
10
207.8103769999999884
20
-89.7275539999999978
11
207.9352779999999825
21
-89.8994659999999897
0
LINE
8
BLACK
6
CONTINUOUS
10
207.9352779999999825
20
-89.8994659999999897
11
208.0855339999999956
21
-90.0497220000000027
0
LINE
8
BLACK
6
CONTINUOUS
10
208.0855339999999956
20
-90.0497220000000027
11
208.2574459999999874
21
-90.1746229999999969
0
LINE
8
BLACK
6
CONTINUOUS
10
208.2574459999999874
20
-90.1746229999999969
11
208.4467799999999897
21
-90.2710939999999908
0
LINE
8
BLACK
6
CONTINUOUS
10
208.4467799999999897
20
-90.2710939999999908
11
208.648873999999978
21
-90.336757999999989
0
LINE
8
BLACK
6
CONTINUOUS
10
208.648873999999978
20
-90.336757999999989
11
208.8587529999999788
21
-90.3699999999999903
0
LINE
8
BLACK
6
CONTINUOUS
10
208.8587529999999788
20
-90.3699999999999903
11
209.0712469999999996
21
-90.3699999999999903
0
LINE
8
BLACK
6
CONTINUOUS
10
209.0712469999999996
20
-90.3699999999999903
11
209.2811260000000004
21
-90.336757999999989
0
LINE
8
BLACK
6
CONTINUOUS
10
209.2811260000000004
20
-90.336757999999989
11
209.4832199999999887
21
-90.2710939999999908
0
LINE
8
BLACK
6
CONTINUOUS
10
209.4832199999999887
20
-90.2710939999999908
11
209.672553999999991
21
-90.1746229999999969
0
LINE
8
BLACK
6
CONTINUOUS
10
209.672553999999991
20
-90.1746229999999969
11
209.8444659999999828
21
-90.0497220000000027
0
LINE
8
BLACK
6
CONTINUOUS
10
209.8444659999999828
20
-90.0497220000000027
11
209.9947219999999959
21
-89.8994659999999897
0
LINE
8
BLACK
6
CONTINUOUS
10
209.9947219999999959
20
-89.8994659999999897
11
210.11962299999999
21
-89.7275539999999978
0
LINE
8
BLACK
6
CONTINUOUS
10
210.11962299999999
20
-89.7275539999999978
11
210.2160939999999982
21
-89.5382199999999955
0
LINE
8
BLACK
6
CONTINUOUS
10
210.2160939999999982
20
-89.5382199999999955
11
210.2817579999999964
21
-89.336125999999993
0
LINE
8
BLACK
6
CONTINUOUS
10
210.2817579999999964
20
-89.336125999999993
11
210.3149999999999977
21
-89.1262469999999922
0
LINE
8
BLACK
6
CONTINUOUS
10
210.3149999999999977
20
-89.1262469999999922
11
210.3149999999999977
21
-88.9137529999999998
0
LINE
8
BLACK
6
CONTINUOUS
10
210.3149999999999977
20
-88.9137529999999998
11
210.2817579999999964
21
-88.703873999999999
0
LINE
8
BLACK
6
CONTINUOUS
10
210.2817579999999964
20
-88.703873999999999
11
210.2160939999999982
21
-88.5017799999999966
0
LINE
8
BLACK
6
CONTINUOUS
10
210.2160939999999982
20
-88.5017799999999966
11
210.11962299999999
21
-88.3124459999999942
0
LINE
8
BLACK
6
CONTINUOUS
10
210.11962299999999
20
-88.3124459999999942
11
209.9947219999999959
21
-88.1405340000000024
0
LINE
8
BLACK
6
CONTINUOUS
10
209.9947219999999959
20
-88.1405340000000024
11
209.8444659999999828
21
-87.9902779999999893
0
LINE
8
BLACK
6
CONTINUOUS
10
209.8444659999999828
20
-87.9902779999999893
11
209.672553999999991
21
-87.8653769999999952
0
LINE
8
BLACK
6
CONTINUOUS
10
209.672553999999991
20
-87.8653769999999952
11
209.4832199999999887
21
-87.7689060000000012
0
LINE
8
BLACK
6
CONTINUOUS
10
209.4832199999999887
20
-87.7689060000000012
11
209.2811260000000004
21
-87.703242000000003
0
LINE
8
BLACK
6
CONTINUOUS
10
209.2811260000000004
20
-87.703242000000003
11
209.0712469999999996
21
-87.6700000000000017
0
LINE
8
BLACK
6
CONTINUOUS
10
209.0712469999999996
20
-87.6700000000000017
11
208.8587529999999788
21
-87.6700000000000017
0
LINE
8
BLACK
6
CONTINUOUS
10
208.8587529999999788
20
-87.6700000000000017
11
208.648873999999978
21
-87.703242000000003
0
LINE
8
BLACK
6
CONTINUOUS
10
208.648873999999978
20
-87.703242000000003
11
208.4467799999999897
21
-87.7689060000000012
0
LINE
8
BLACK
6
CONTINUOUS
10
208.4467799999999897
20
-87.7689060000000012
11
208.2574459999999874
21
-87.8653769999999952
0
LINE
8
BLACK
6
CONTINUOUS
10
208.2574459999999874
20
-87.8653769999999952
11
208.0855339999999956
21
-87.9902779999999893
0
LINE
8
BLACK
6
CONTINUOUS
10
208.0855339999999956
20
-87.9902779999999893
11
207.9352779999999825
21
-88.1405340000000024
0
LINE
8
BLACK
6
CONTINUOUS
10
207.9352779999999825
20
-88.1405340000000024
11
207.8103769999999884
21
-88.3124459999999942
0
LINE
8
BLACK
6
CONTINUOUS
10
207.8103769999999884
20
-88.3124459999999942
11
207.7139059999999802
21
-88.5017799999999966
0
LINE
8
BLACK
6
CONTINUOUS
10
207.7139059999999802
20
-88.5017799999999966
11
207.648241999999982
21
-88.703873999999999
0
LINE
8
BLACK
6
CONTINUOUS
10
207.648241999999982
20
-88.703873999999999
11
207.6149999999999807
21
-88.9137529999999998
0
LINE
8
BLACK
6
CONTINUOUS
10
207.6149999999999807
20
-88.9137529999999998
11
207.6149999999999807
21
-89.1262469999999922
0
LINE
8
BLACK
6
CONTINUOUS
10
167.4668240000000026
20
-78.3936819999999983
11
167.6757570000000044
21
-78.4615689999999972
0
LINE
8
BLACK
6
CONTINUOUS
10
167.6757570000000044
20
-78.4615689999999972
11
167.8714980000000025
21
-78.5613039999999927
0
LINE
8
BLACK
6
CONTINUOUS
10
167.8714980000000025
20
-78.5613039999999927
11
168.0492270000000019
21
-78.6904320000000013
0
LINE
8
BLACK
6
CONTINUOUS
10
168.0492270000000019
20
-78.6904320000000013
11
168.2045679999999948
21
-78.8457729999999941
0
LINE
8
BLACK
6
CONTINUOUS
10
168.2045679999999948
20
-78.8457729999999941
11
168.3336960000000033
21
-79.0235019999999935
0
LINE
8
BLACK
6
CONTINUOUS
10
168.3336960000000033
20
-79.0235019999999935
11
168.4334309999999846
21
-79.2192429999999916
0
LINE
8
BLACK
6
CONTINUOUS
10
168.4334309999999846
20
-79.2192429999999916
11
168.5013179999999977
21
-79.4281759999999935
0
LINE
8
BLACK
6
CONTINUOUS
10
168.5013179999999977
20
-79.4281759999999935
11
168.5356840000000034
21
-79.6451569999999975
0
LINE
8
BLACK
6
CONTINUOUS
10
168.5356840000000034
20
-79.6451569999999975
11
168.5356840000000034
21
-79.8648429999999934
0
LINE
8
BLACK
6
CONTINUOUS
10
168.5356840000000034
20
-79.8648429999999934
11
168.5013179999999977
21
-80.0818239999999975
0
LINE
8
BLACK
6
CONTINUOUS
10
168.5013179999999977
20
-80.0818239999999975
11
168.4334309999999846
21
-80.2907569999999993
0
LINE
8
BLACK
6
CONTINUOUS
10
168.4334309999999846
20
-80.2907569999999993
11
168.3336960000000033
21
-80.4864979999999974
0
LINE
8
BLACK
6
CONTINUOUS
10
168.3336960000000033
20
-80.4864979999999974
11
168.2045679999999948
21
-80.6642269999999968
0
LINE
8
BLACK
6
CONTINUOUS
10
168.2045679999999948
20
-80.6642269999999968
11
168.0492270000000019
21
-80.8195679999999896
0
LINE
8
BLACK
6
CONTINUOUS
10
168.0492270000000019
20
-80.8195679999999896
11
167.8714980000000025
21
-80.9486959999999982
0
LINE
8
BLACK
6
CONTINUOUS
10
167.8714980000000025
20
-80.9486959999999982
11
167.6757570000000044
21
-81.0484309999999937
0
LINE
8
BLACK
6
CONTINUOUS
10
167.6757570000000044
20
-81.0484309999999937
11
167.4668240000000026
21
-81.1163179999999926
0
LINE
8
BLACK
6
CONTINUOUS
10
167.4668240000000026
20
-81.1163179999999926
11
167.2498429999999985
21
-81.1506839999999983
0
LINE
8
BLACK
6
CONTINUOUS
10
167.2498429999999985
20
-81.1506839999999983
11
167.0301570000000027
21
-81.1506839999999983
0
LINE
8
BLACK
6
CONTINUOUS
10
167.0301570000000027
20
-81.1506839999999983
11
166.8131759999999986
21
-81.1163179999999926
0
LINE
8
BLACK
6
CONTINUOUS
10
166.8131759999999986
20
-81.1163179999999926
11
166.6042429999999968
21
-81.0484309999999937
0
LINE
8
BLACK
6
CONTINUOUS
10
166.6042429999999968
20
-81.0484309999999937
11
166.4085019999999986
21
-80.9486959999999982
0
LINE
8
BLACK
6
CONTINUOUS
10
166.4085019999999986
20
-80.9486959999999982
11
166.2307729999999992
21
-80.8195679999999896
0
LINE
8
BLACK
6
CONTINUOUS
10
166.2307729999999992
20
-80.8195679999999896
11
166.0754320000000064
21
-80.6642269999999968
0
LINE
8
BLACK
6
CONTINUOUS
10
166.0754320000000064
20
-80.6642269999999968
11
165.9463039999999978
21
-80.4864979999999974
0
LINE
8
BLACK
6
CONTINUOUS
10
165.9463039999999978
20
-80.4864979999999974
11
165.8465689999999881
21
-80.2907569999999993
0
LINE
8
BLACK
6
CONTINUOUS
10
165.8465689999999881
20
-80.2907569999999993
11
165.7786820000000034
21
-80.0818239999999975
0
LINE
8
BLACK
6
CONTINUOUS
10
165.7786820000000034
20
-80.0818239999999975
11
165.7443159999999978
21
-79.8648429999999934
0
LINE
8
BLACK
6
CONTINUOUS
10
165.7443159999999978
20
-79.8648429999999934
11
165.7443159999999978
21
-79.6487529999999992
0
LINE
8
BLACK
6
CONTINUOUS
10
165.7443159999999978
20
-79.6487529999999992
11
165.7443159999999978
21
-79.6451569999999975
0
LINE
8
BLACK
6
CONTINUOUS
10
165.7443159999999978
20
-79.6451569999999975
11
165.7786820000000034
21
-79.4281759999999935
0
LINE
8
BLACK
6
CONTINUOUS
10
165.7786820000000034
20
-79.4281759999999935
11
165.8465689999999881
21
-79.2192429999999916
0
LINE
8
BLACK
6
CONTINUOUS
10
165.8465689999999881
20
-79.2192429999999916
11
165.9463039999999978
21
-79.0235019999999935
0
LINE
8
BLACK
6
CONTINUOUS
10
165.9463039999999978
20
-79.0235019999999935
11
166.0754320000000064
21
-78.8457729999999941
0
LINE
8
BLACK
6
CONTINUOUS
10
166.0754320000000064
20
-78.8457729999999941
11
166.2307729999999992
21
-78.6904320000000013
0
LINE
8
BLACK
6
CONTINUOUS
10
166.2307729999999992
20
-78.6904320000000013
11
166.4085019999999986
21
-78.5613039999999927
0
LINE
8
BLACK
6
CONTINUOUS
10
166.4085019999999986
20
-78.5613039999999927
11
166.6042429999999968
21
-78.4615689999999972
0
LINE
8
BLACK
6
CONTINUOUS
10
166.6042429999999968
20
-78.4615689999999972
11
166.8131759999999986
21
-78.3936819999999983
0
LINE
8
BLACK
6
CONTINUOUS
10
166.8131759999999986
20
-78.3936819999999983
11
167.0301570000000027
21
-78.3593159999999926
0
LINE
8
BLACK
6
CONTINUOUS
10
167.0301570000000027
20
-78.3593159999999926
11
167.2498429999999985
21
-78.3593159999999926
0
LINE
8
BLACK
6
CONTINUOUS
10
167.2498429999999985
20
-78.3593159999999926
11
167.4668240000000026
21
-78.3936819999999983
0
LINE
8
BLACK
6
CONTINUOUS
10
165.789999999999992
20
-79.8612469999999917
11
165.8232419999999934
21
-80.0711259999999925
0
LINE
8
BLACK
6
CONTINUOUS
10
165.8232419999999934
20
-80.0711259999999925
11
165.8889059999999915
21
-80.2732199999999949
0
LINE
8
BLACK
6
CONTINUOUS
10
165.8889059999999915
20
-80.2732199999999949
11
165.9853769999999997
21
-80.4625539999999972
0
LINE
8
BLACK
6
CONTINUOUS
10
165.9853769999999997
20
-80.4625539999999972
11
166.1102779999999939
21
-80.6344660000000033
0
LINE
8
BLACK
6
CONTINUOUS
10
166.1102779999999939
20
-80.6344660000000033
11
166.2605339999999785
21
-80.7847220000000021
0
LINE
8
BLACK
6
CONTINUOUS
10
166.2605339999999785
20
-80.7847220000000021
11
166.4324459999999988
21
-80.9096229999999963
0
LINE
8
BLACK
6
CONTINUOUS
10
166.4324459999999988
20
-80.9096229999999963
11
166.6217800000000011
21
-81.0060939999999903
0
LINE
8
BLACK
6
CONTINUOUS
10
166.6217800000000011
20
-81.0060939999999903
11
166.8238739999999893
21
-81.0717580000000027
0
LINE
8
BLACK
6
CONTINUOUS
10
166.8238739999999893
20
-81.0717580000000027
11
167.0337529999999902
21
-81.1049999999999898
0
LINE
8
BLACK
6
CONTINUOUS
10
167.0337529999999902
20
-81.1049999999999898
11
167.2462469999999826
21
-81.1049999999999898
0
LINE
8
BLACK
6
CONTINUOUS
10
167.2462469999999826
20
-81.1049999999999898
11
167.4561259999999834
21
-81.0717580000000027
0
LINE
8
BLACK
6
CONTINUOUS
10
167.4561259999999834
20
-81.0717580000000027
11
167.65822
21
-81.0060939999999903
0
LINE
8
BLACK
6
CONTINUOUS
10
167.65822
20
-81.0060939999999903
11
167.8475540000000024
21
-80.9096229999999963
0
LINE
8
BLACK
6
CONTINUOUS
10
167.8475540000000024
20
-80.9096229999999963
11
168.0194659999999942
21
-80.7847220000000021
0
LINE
8
BLACK
6
CONTINUOUS
10
168.0194659999999942
20
-80.7847220000000021
11
168.1697219999999788
21
-80.6344660000000033
0
LINE
8
BLACK
6
CONTINUOUS
10
168.1697219999999788
20
-80.6344660000000033
11
168.2946230000000014
21
-80.4625539999999972
0
LINE
8
BLACK
6
CONTINUOUS
10
168.2946230000000014
20
-80.4625539999999972
11
168.3910939999999812
21
-80.2732199999999949
0
LINE
8
BLACK
6
CONTINUOUS
10
168.3910939999999812
20
-80.2732199999999949
11
168.4567579999999793
21
-80.0711259999999925
0
LINE
8
BLACK
6
CONTINUOUS
10
168.4567579999999793
20
-80.0711259999999925
11
168.4899999999999807
21
-79.8612469999999917
0
LINE
8
BLACK
6
CONTINUOUS
10
168.4899999999999807
20
-79.8612469999999917
11
168.4899999999999807
21
-79.6487529999999992
0
LINE
8
BLACK
6
CONTINUOUS
10
168.4899999999999807
20
-79.6487529999999992
11
168.4567579999999793
21
-79.4388739999999984
0
LINE
8
BLACK
6
CONTINUOUS
10
168.4567579999999793
20
-79.4388739999999984
11
168.3910939999999812
21
-79.236779999999996
0
LINE
8
BLACK
6
CONTINUOUS
10
168.3910939999999812
20
-79.236779999999996
11
168.2946230000000014
21
-79.0474459999999937
0
LINE
8
BLACK
6
CONTINUOUS
10
168.2946230000000014
20
-79.0474459999999937
11
168.1697219999999788
21
-78.8755340000000018
0
LINE
8
BLACK
6
CONTINUOUS
10
168.1697219999999788
20
-78.8755340000000018
11
168.0194659999999942
21
-78.725278000000003
0
LINE
8
BLACK
6
CONTINUOUS
10
168.0194659999999942
20
-78.725278000000003
11
167.8475540000000024
21
-78.6003769999999946
0
LINE
8
BLACK
6
CONTINUOUS
10
167.8475540000000024
20
-78.6003769999999946
11
167.65822
21
-78.5039060000000006
0
LINE
8
BLACK
6
CONTINUOUS
10
167.65822
20
-78.5039060000000006
11
167.4561259999999834
21
-78.4382420000000025
0
LINE
8
BLACK
6
CONTINUOUS
10
167.4561259999999834
20
-78.4382420000000025
11
167.2462469999999826
21
-78.4050000000000011
0
LINE
8
BLACK
6
CONTINUOUS
10
167.2462469999999826
20
-78.4050000000000011
11
167.0337529999999902
21
-78.4050000000000011
0
LINE
8
BLACK
6
CONTINUOUS
10
167.0337529999999902
20
-78.4050000000000011
11
166.8238739999999893
21
-78.4382420000000025
0
LINE
8
BLACK
6
CONTINUOUS
10
166.8238739999999893
20
-78.4382420000000025
11
166.6217800000000011
21
-78.5039060000000006
0
LINE
8
BLACK
6
CONTINUOUS
10
166.6217800000000011
20
-78.5039060000000006
11
166.4324459999999988
21
-78.6003769999999946
0
LINE
8
BLACK
6
CONTINUOUS
10
166.4324459999999988
20
-78.6003769999999946
11
166.2605339999999785
21
-78.725278000000003
0
LINE
8
BLACK
6
CONTINUOUS
10
166.2605339999999785
20
-78.725278000000003
11
166.1102779999999939
21
-78.8755340000000018
0
LINE
8
BLACK
6
CONTINUOUS
10
166.1102779999999939
20
-78.8755340000000018
11
165.9853769999999997
21
-79.0474459999999937
0
LINE
8
BLACK
6
CONTINUOUS
10
165.9853769999999997
20
-79.0474459999999937
11
165.8889059999999915
21
-79.236779999999996
0
LINE
8
BLACK
6
CONTINUOUS
10
165.8889059999999915
20
-79.236779999999996
11
165.8232419999999934
21
-79.4388739999999984
0
LINE
8
BLACK
6
CONTINUOUS
10
165.8232419999999934
20
-79.4388739999999984
11
165.789999999999992
21
-79.6487529999999992
0
LINE
8
BLACK
6
CONTINUOUS
10
165.789999999999992
20
-79.6487529999999992
11
165.789999999999992
21
-79.8612469999999917
0
LINE
8
BLACK
6
CONTINUOUS
10
213.0616079999999783
20
-74.3350009999999912
11
213.4338209999999947
21
-74.352248000000003
0
LINE
8
BLACK
6
CONTINUOUS
10
213.4338209999999947
20
-74.352248000000003
11
213.8028779999999927
21
-74.4038489999999939
0
LINE
8
BLACK
6
CONTINUOUS
10
213.8028779999999927
20
-74.4038489999999939
11
214.1655820000000006
21
-74.4893610000000024
0
LINE
8
BLACK
6
CONTINUOUS
10
214.1655820000000006
20
-74.4893610000000024
11
214.5188220000000001
21
-74.6080499999999915
0
LINE
8
BLACK
6
CONTINUOUS
10
214.5188220000000001
20
-74.6080499999999915
11
214.8595719999999858
21
-74.758899999999997
0
LINE
8
BLACK
6
CONTINUOUS
10
214.8595719999999858
20
-74.758899999999997
11
215.1849100000000021
21
-74.9406170000000031
0
LINE
8
BLACK
6
CONTINUOUS
10
215.1849100000000021
20
-74.9406170000000031
11
215.4920479999999827
21
-75.1516439999999903
0
LINE
8
BLACK
6
CONTINUOUS
10
215.4920479999999827
20
-75.1516439999999903
11
215.7783529999999814
21
-75.3901719999999926
0
LINE
8
BLACK
6
CONTINUOUS
10
215.7783529999999814
20
-75.3901719999999926
11
216.041370999999998
21
-75.6541560000000004
0
LINE
8
BLACK
6
CONTINUOUS
10
216.041370999999998
20
-75.6541560000000004
11
216.2788469999999847
21
-75.9413339999999977
0
LINE
8
BLACK
6
CONTINUOUS
10
216.2788469999999847
20
-75.9413339999999977
11
216.4887469999999894
21
-76.2492439999999903
0
LINE
8
BLACK
6
CONTINUOUS
10
216.4887469999999894
20
-76.2492439999999903
11
216.6692689999999857
21
-76.5752459999999928
0
LINE
8
BLACK
6
CONTINUOUS
10
216.6692689999999857
20
-76.5752459999999928
11
216.8188689999999781
21
-76.9165469999999942
0
LINE
8
BLACK
6
CONTINUOUS
10
216.8188689999999781
20
-76.9165469999999942
11
216.9362619999999993
21
-77.2702199999999948
0
LINE
8
BLACK
6
CONTINUOUS
10
216.9362619999999993
20
-77.2702199999999948
11
217.0204430000000002
21
-77.6332349999999991
0
LINE
8
BLACK
6
CONTINUOUS
10
217.0204430000000002
20
-77.6332349999999991
11
217.0706899999999848
21
-78.0024789999999939
0
LINE
8
BLACK
6
CONTINUOUS
10
217.0706899999999848
20
-78.0024789999999939
11
217.0865679999999998
21
-78.3746699999999947
0
LINE
8
BLACK
6
CONTINUOUS
10
217.0865679999999998
20
-78.3746699999999947
11
217.0865729999999871
21
-78.3746960000000001
0
LINE
8
BLACK
6
CONTINUOUS
10
217.0865729999999871
20
-78.3746960000000001
11
217.0865729999999871
21
-98.2515729999999934
0
LINE
8
BLACK
6
CONTINUOUS
10
217.0865729999999871
20
-98.2515729999999934
11
217.0865709999999922
21
-98.2515789999999924
0
LINE
8
BLACK
6
CONTINUOUS
10
217.0865709999999922
20
-98.2515789999999924
11
217.0694039999999916
21
-98.6229539999999929
0
LINE
8
BLACK
6
CONTINUOUS
10
217.0694039999999916
20
-98.6229539999999929
11
217.0180429999999774
21
-98.9911659999999927
0
LINE
8
BLACK
6
CONTINUOUS
10
217.0180429999999774
20
-98.9911659999999927
11
216.9329259999999806
21
-99.3530689999999908
0
LINE
8
BLACK
6
CONTINUOUS
10
216.9329259999999806
20
-99.3530689999999908
11
216.8147799999999847
21
-99.7055739999999986
0
LINE
8
BLACK
6
CONTINUOUS
10
216.8147799999999847
20
-99.7055739999999986
11
216.6646119999999769
21
-100.0456739999999911
0
LINE
8
BLACK
6
CONTINUOUS
10
216.6646119999999769
20
-100.0456739999999911
11
216.4837039999999888
21
-100.3704680000000025
0
LINE
8
BLACK
6
CONTINUOUS
10
216.4837039999999888
20
-100.3704680000000025
11
216.2735999999999876
21
-100.6771839999999969
0
LINE
8
BLACK
6
CONTINUOUS
10
216.2735999999999876
20
-100.6771839999999969
11
216.036090999999999
21
-100.9632050000000021
0
LINE
8
BLACK
6
CONTINUOUS
10
216.036090999999999
20
-100.9632050000000021
11
215.7732049999999902
21
-101.2260909999999967
0
LINE
8
BLACK
6
CONTINUOUS
10
215.7732049999999902
20
-101.2260909999999967
11
215.487183999999985
21
-101.4635999999999996
0
LINE
8
BLACK
6
CONTINUOUS
10
215.487183999999985
20
-101.4635999999999996
11
215.1804679999999905
21
-101.6737040000000007
0
LINE
8
BLACK
6
CONTINUOUS
10
215.1804679999999905
20
-101.6737040000000007
11
214.8556739999999934
21
-101.8546119999999888
0
LINE
8
BLACK
6
CONTINUOUS
10
214.8556739999999934
20
-101.8546119999999888
11
214.5155739999999867
21
-102.0047799999999967
0
LINE
8
BLACK
6
CONTINUOUS
10
214.5155739999999867
20
-102.0047799999999967
11
214.1630689999999788
21
-102.1229259999999925
0
LINE
8
BLACK
6
CONTINUOUS
10
214.1630689999999788
20
-102.1229259999999925
11
213.8011659999999949
21
-102.2080429999999893
0
LINE
8
BLACK
6
CONTINUOUS
10
213.8011659999999949
20
-102.2080429999999893
11
213.4329539999999952
21
-102.2594039999999893
0
LINE
8
BLACK
6
CONTINUOUS
10
213.4329539999999952
20
-102.2594039999999893
11
213.0615789999999947
21
-102.2765709999999899
0
LINE
8
BLACK
6
CONTINUOUS
10
213.0615789999999947
20
-102.2765709999999899
11
213.0615729999999814
21
-102.2765729999999991
0
LINE
8
BLACK
6
CONTINUOUS
10
213.0615729999999814
20
-102.2765729999999991
11
168.4984299999999848
21
-102.2765709999999899
0
LINE
8
BLACK
6
CONTINUOUS
10
168.4984299999999848
20
-102.2765709999999899
11
168.4984269999999924
21
-102.2765720000000016
0
LINE
8
BLACK
6
CONTINUOUS
10
168.4984269999999924
20
-102.2765720000000016
11
168.1270459999999787
21
-102.2594039999999893
0
LINE
8
BLACK
6
CONTINUOUS
10
168.1270459999999787
20
-102.2594039999999893
11
167.7588339999999789
21
-102.2080429999999893
0
LINE
8
BLACK
6
CONTINUOUS
10
167.7588339999999789
20
-102.2080429999999893
11
167.396930999999995
21
-102.1229259999999925
0
LINE
8
BLACK
6
CONTINUOUS
10
167.396930999999995
20
-102.1229259999999925
11
167.0444259999999872
21
-102.0047799999999967
0
LINE
8
BLACK
6
CONTINUOUS
10
167.0444259999999872
20
-102.0047799999999967
11
166.7043259999999805
21
-101.8546119999999888
0
LINE
8
BLACK
6
CONTINUOUS
10
166.7043259999999805
20
-101.8546119999999888
11
166.3795319999999833
21
-101.6737040000000007
0
LINE
8
BLACK
6
CONTINUOUS
10
166.3795319999999833
20
-101.6737040000000007
11
166.0728159999999889
21
-101.4635999999999996
0
LINE
8
BLACK
6
CONTINUOUS
10
166.0728159999999889
20
-101.4635999999999996
11
165.7867949999999837
21
-101.2260909999999967
0
LINE
8
BLACK
6
CONTINUOUS
10
165.7867949999999837
20
-101.2260909999999967
11
165.5239090000000033
21
-100.9632050000000021
0
LINE
8
BLACK
6
CONTINUOUS
10
165.5239090000000033
20
-100.9632050000000021
11
165.2863999999999862
21
-100.6771839999999969
0
LINE
8
BLACK
6
CONTINUOUS
10
165.2863999999999862
20
-100.6771839999999969
11
165.076295999999985
21
-100.3704680000000025
0
LINE
8
BLACK
6
CONTINUOUS
10
165.076295999999985
20
-100.3704680000000025
11
164.895387999999997
21
-100.0456739999999911
0
LINE
8
BLACK
6
CONTINUOUS
10
164.895387999999997
20
-100.0456739999999911
11
164.7452199999999891
21
-99.7055739999999986
0
LINE
8
BLACK
6
CONTINUOUS
10
164.7452199999999891
20
-99.7055739999999986
11
164.6270739999999932
21
-99.3530689999999908
0
LINE
8
BLACK
6
CONTINUOUS
10
164.6270739999999932
20
-99.3530689999999908
11
164.5419569999999965
21
-98.9911659999999927
0
LINE
8
BLACK
6
CONTINUOUS
10
164.5419569999999965
20
-98.9911659999999927
11
164.4905959999999823
21
-98.6229539999999929
0
LINE
8
BLACK
6
CONTINUOUS
10
164.4905959999999823
20
-98.6229539999999929
11
164.4734279999999842
21
-98.2515729999999934
0
LINE
8
BLACK
6
CONTINUOUS
10
164.4734279999999842
20
-98.2515729999999934
11
164.4734279999999842
21
-98.2515719999999959
0
LINE
8
BLACK
6
CONTINUOUS
10
164.4734279999999842
20
-98.2515719999999959
11
164.4734279999999842
21
-98.2515709999999984
0
LINE
8
BLACK
6
CONTINUOUS
10
164.4734279999999842
20
-98.2515709999999984
11
164.4750009999999918
21
-78.3499979999999994
0
LINE
8
BLACK
6
CONTINUOUS
10
164.4750009999999918
20
-78.3499979999999994
11
164.4750080000000025
21
-78.3499619999999908
0
LINE
8
BLACK
6
CONTINUOUS
10
164.4750080000000025
20
-78.3499619999999908
11
164.4749999999999943
21
-78.3499369999999971
0
LINE
8
BLACK
6
CONTINUOUS
10
164.4749999999999943
20
-78.3499369999999971
11
164.4750009999999918
21
-78.3499369999999971
0
LINE
8
BLACK
6
CONTINUOUS
10
164.4750009999999918
20
-78.3499369999999971
11
164.4930359999999894
21
-77.9793360000000035
0
LINE
8
BLACK
6
CONTINUOUS
10
164.4930359999999894
20
-77.9793360000000035
11
164.5451359999999852
21
-77.6119709999999969
0
LINE
8
BLACK
6
CONTINUOUS
10
164.5451359999999852
20
-77.6119709999999969
11
164.6308559999999943
21
-77.2509680000000003
0
LINE
8
BLACK
6
CONTINUOUS
10
164.6308559999999943
20
-77.2509680000000003
11
164.7494690000000048
21
-76.8993969999999933
0
LINE
8
BLACK
6
CONTINUOUS
10
164.7494690000000048
20
-76.8993969999999933
11
164.8999649999999804
21
-76.5602480000000014
0
LINE
8
BLACK
6
CONTINUOUS
10
164.8999649999999804
20
-76.5602480000000014
11
165.0810630000000003
21
-76.2364049999999907
0
LINE
8
BLACK
6
CONTINUOUS
10
165.0810630000000003
20
-76.2364049999999907
11
165.2912249999999972
21
-75.9306229999999971
0
LINE
8
BLACK
6
CONTINUOUS
10
165.2912249999999972
20
-75.9306229999999971
11
165.5286629999999946
21
-75.6455009999999959
0
LINE
8
BLACK
6
CONTINUOUS
10
165.5286629999999946
20
-75.6455009999999959
11
165.791357000000005
21
-75.3834650000000011
0
LINE
8
BLACK
6
CONTINUOUS
10
165.791357000000005
20
-75.3834650000000011
11
166.0770729999999844
21
-75.1467430000000007
0
LINE
8
BLACK
6
CONTINUOUS
10
166.0770729999999844
20
-75.1467430000000007
11
166.3833819999999832
21
-74.9373489999999975
0
LINE
8
BLACK
6
CONTINUOUS
10
166.3833819999999832
20
-74.9373489999999975
11
166.7076779999999872
21
-74.7570630000000023
0
LINE
8
BLACK
6
CONTINUOUS
10
166.7076779999999872
20
-74.7570630000000023
11
167.0472029999999961
21
-74.6074179999999956
0
LINE
8
BLACK
6
CONTINUOUS
10
167.0472029999999961
20
-74.6074179999999956
11
167.3990709999999922
21
-74.4896870000000035
0
LINE
8
BLACK
6
CONTINUOUS
10
167.3990709999999922
20
-74.4896870000000035
11
167.7602870000000053
21
-74.4048719999999975
0
LINE
8
BLACK
6
CONTINUOUS
10
167.7602870000000053
20
-74.4048719999999975
11
168.1277809999999988
21
-74.3536939999999902
0
LINE
8
BLACK
6
CONTINUOUS
10
168.1277809999999988
20
-74.3536939999999902
11
168.488726999999983
21
-74.3370350000000002
0
LINE
8
BLACK
6
CONTINUOUS
10
168.488726999999983
20
-74.3370350000000002
11
168.4888599999999883
21
-74.3369029999999924
0
LINE
8
BLACK
6
CONTINUOUS
10
168.4888599999999883
20
-74.3369029999999924
11
168.4984269999999924
21
-74.3349999999999937
0
LINE
8
BLACK
6
CONTINUOUS
10
168.4984269999999924
20
-74.3349999999999937
11
213.0615999999999985
21
-74.3349999999999937
0
LINE
8
BLACK
6
CONTINUOUS
10
213.0615999999999985
20
-74.3349999999999937
11
213.0616079999999783
21
-74.3350009999999912
0
LINE
8
BLACK
6
CONTINUOUS
10
168.503311999999994
20
-74.3849999999999909
11
168.4984269999999924
21
-74.3865869999999916
0
LINE
8
BLACK
6
CONTINUOUS
10
168.4984269999999924
20
-74.3865869999999916
11
168.4984269999999924
21
-74.3865880000000033
0
LINE
8
BLACK
6
CONTINUOUS
10
168.4984269999999924
20
-74.3865880000000033
11
168.3150159999999858
21
-74.386573999999996
0
LINE
8
BLACK
6
CONTINUOUS
10
168.3150159999999858
20
-74.386573999999996
11
167.9497549999999819
21
-74.4203629999999947
0
LINE
8
BLACK
6
CONTINUOUS
10
167.9497549999999819
20
-74.4203629999999947
11
167.5891599999999926
21
-74.4876579999999962
0
LINE
8
BLACK
6
CONTINUOUS
10
167.5891599999999926
20
-74.4876579999999962
11
167.2362969999999791
21
-74.5878859999999975
0
LINE
8
BLACK
6
CONTINUOUS
10
167.2362969999999791
20
-74.5878859999999975
11
166.8941690000000051
21
-74.7201939999999922
0
LINE
8
BLACK
6
CONTINUOUS
10
166.8941690000000051
20
-74.7201939999999922
11
166.5656829999999786
21
-74.8834569999999928
0
LINE
8
BLACK
6
CONTINUOUS
10
166.5656829999999786
20
-74.8834569999999928
11
166.2536350000000027
21
-75.0762859999999961
0
LINE
8
BLACK
6
CONTINUOUS
10
166.2536350000000027
20
-75.0762859999999961
11
165.960677000000004
21
-75.2970430000000022
0
LINE
8
BLACK
6
CONTINUOUS
10
165.960677000000004
20
-75.2970430000000022
11
165.6893010000000004
21
-75.543847999999997
0
LINE
8
BLACK
6
CONTINUOUS
10
165.6893010000000004
20
-75.543847999999997
11
165.4418159999999887
21
-75.8146040000000028
0
LINE
8
BLACK
6
CONTINUOUS
10
165.4418159999999887
20
-75.8146040000000028
11
165.220326
21
-76.1070069999999959
0
LINE
8
BLACK
6
CONTINUOUS
10
165.220326
20
-76.1070069999999959
11
165.0267149999999958
21
-76.418571
0
LINE
8
BLACK
6
CONTINUOUS
10
165.0267149999999958
20
-76.418571
11
164.8626280000000008
21
-76.7466459999999984
0
LINE
8
BLACK
6
CONTINUOUS
10
164.8626280000000008
20
-76.7466459999999984
11
164.7294629999999813
21
-77.0884420000000006
0
LINE
8
BLACK
6
CONTINUOUS
10
164.7294629999999813
20
-77.0884420000000006
11
164.6283509999999808
21
-77.4410519999999991
0
LINE
8
BLACK
6
CONTINUOUS
10
164.6283509999999808
20
-77.4410519999999991
11
164.560151999999988
21
-77.8014769999999913
0
LINE
8
BLACK
6
CONTINUOUS
10
164.560151999999988
20
-77.8014769999999913
11
164.5254459999999881
21
-78.1666529999999966
0
LINE
8
BLACK
6
CONTINUOUS
10
164.5254459999999881
20
-78.1666529999999966
11
164.5250000000000057
21
-78.3499970000000019
0
LINE
8
BLACK
6
CONTINUOUS
10
164.5250000000000057
20
-78.3499970000000019
11
164.5250010000000032
21
-78.3500020000000035
0
LINE
8
BLACK
6
CONTINUOUS
10
164.5250010000000032
20
-78.3500020000000035
11
164.5234279999999956
21
-98.2515729999999934
0
LINE
8
BLACK
6
CONTINUOUS
10
164.5234279999999956
20
-98.2515729999999934
11
164.5234269999999981
21
-98.4353490000000022
0
LINE
8
BLACK
6
CONTINUOUS
10
164.5234269999999981
20
-98.4353490000000022
11
164.5573379999999872
21
-98.8013320000000022
0
LINE
8
BLACK
6
CONTINUOUS
10
164.5573379999999872
20
-98.8013320000000022
11
164.6248729999999796
21
-99.1626259999999888
0
LINE
8
BLACK
6
CONTINUOUS
10
164.6248729999999796
20
-99.1626259999999888
11
164.7254570000000058
21
-99.516145999999992
0
LINE
8
BLACK
6
CONTINUOUS
10
164.7254570000000058
20
-99.516145999999992
11
164.8582309999999893
21
-99.85887799999999
0
LINE
8
BLACK
6
CONTINUOUS
10
164.8582309999999893
20
-99.85887799999999
11
165.0220609999999795
21
-100.1878969999999924
0
LINE
8
BLACK
6
CONTINUOUS
10
165.0220609999999795
20
-100.1878969999999924
11
165.2155520000000024
21
-100.500395999999995
0
LINE
8
BLACK
6
CONTINUOUS
10
165.2155520000000024
20
-100.500395999999995
11
165.4370499999999993
21
-100.7937079999999952
0
LINE
8
BLACK
6
CONTINUOUS
10
165.4370499999999993
20
-100.7937079999999952
11
165.6846679999999878
21
-101.0653319999999979
0
LINE
8
BLACK
6
CONTINUOUS
10
165.6846679999999878
20
-101.0653319999999979
11
165.9562919999999906
21
-101.3129500000000007
0
LINE
8
BLACK
6
CONTINUOUS
10
165.9562919999999906
20
-101.3129500000000007
11
166.249604000000005
21
-101.5344479999999976
0
LINE
8
BLACK
6
CONTINUOUS
10
166.249604000000005
20
-101.5344479999999976
11
166.5621029999999791
21
-101.7279389999999921
0
LINE
8
BLACK
6
CONTINUOUS
10
166.5621029999999791
20
-101.7279389999999921
11
166.8911219999999958
21
-101.8917689999999965
0
LINE
8
BLACK
6
CONTINUOUS
10
166.8911219999999958
20
-101.8917689999999965
11
167.2338539999999796
21
-102.0245429999999942
0
LINE
8
BLACK
6
CONTINUOUS
10
167.2338539999999796
20
-102.0245429999999942
11
167.5873739999999827
21
-102.125126999999992
0
LINE
8
BLACK
6
CONTINUOUS
10
167.5873739999999827
20
-102.125126999999992
11
167.9486679999999978
21
-102.1926619999999986
0
LINE
8
BLACK
6
CONTINUOUS
10
167.9486679999999978
20
-102.1926619999999986
11
168.3146509999999978
21
-102.2265730000000019
0
LINE
8
BLACK
6
CONTINUOUS
10
168.3146509999999978
20
-102.2265730000000019
11
168.4984209999999791
21
-102.2265719999999902
0
LINE
8
BLACK
6
CONTINUOUS
10
168.4984209999999791
20
-102.2265719999999902
11
168.4984269999999924
21
-102.2265709999999928
0
LINE
8
BLACK
6
CONTINUOUS
10
168.4984269999999924
20
-102.2265709999999928
11
213.0615689999999915
21
-102.2265719999999902
0
LINE
8
BLACK
6
CONTINUOUS
10
213.0615689999999915
20
-102.2265719999999902
11
213.0615729999999814
21
-102.2265719999999902
0
LINE
8
BLACK
6
CONTINUOUS
10
213.0615729999999814
20
-102.2265719999999902
11
213.2453490000000045
21
-102.2265730000000019
0
LINE
8
BLACK
6
CONTINUOUS
10
213.2453490000000045
20
-102.2265730000000019
11
213.6113320000000044
21
-102.1926619999999986
0
LINE
8
BLACK
6
CONTINUOUS
10
213.6113320000000044
20
-102.1926619999999986
11
213.9726259999999911
21
-102.125126999999992
0
LINE
8
BLACK
6
CONTINUOUS
10
213.9726259999999911
20
-102.125126999999992
11
214.3261459999999943
21
-102.0245429999999942
0
LINE
8
BLACK
6
CONTINUOUS
10
214.3261459999999943
20
-102.0245429999999942
11
214.6688779999999781
21
-101.8917689999999965
0
LINE
8
BLACK
6
CONTINUOUS
10
214.6688779999999781
20
-101.8917689999999965
11
214.9978969999999947
21
-101.7279389999999921
0
LINE
8
BLACK
6
CONTINUOUS
10
214.9978969999999947
20
-101.7279389999999921
11
215.3103959999999972
21
-101.5344479999999976
0
LINE
8
BLACK
6
CONTINUOUS
10
215.3103959999999972
20
-101.5344479999999976
11
215.6037079999999833
21
-101.3129500000000007
0
LINE
8
BLACK
6
CONTINUOUS
10
215.6037079999999833
20
-101.3129500000000007
11
215.875331999999986
21
-101.0653319999999979
0
LINE
8
BLACK
6
CONTINUOUS
10
215.875331999999986
20
-101.0653319999999979
11
216.122950000000003
21
-100.7937079999999952
0
LINE
8
BLACK
6
CONTINUOUS
10
216.122950000000003
20
-100.7937079999999952
11
216.3444479999999999
21
-100.500395999999995
0
LINE
8
BLACK
6
CONTINUOUS
10
216.3444479999999999
20
-100.500395999999995
11
216.5379389999999944
21
-100.1878969999999924
0
LINE
8
BLACK
6
CONTINUOUS
10
216.5379389999999944
20
-100.1878969999999924
11
216.7017689999999845
21
-99.85887799999999
0
LINE
8
BLACK
6
CONTINUOUS
10
216.7017689999999845
20
-99.85887799999999
11
216.8345429999999965
21
-99.516145999999992
0
LINE
8
BLACK
6
CONTINUOUS
10
216.8345429999999965
20
-99.516145999999992
11
216.9351269999999943
21
-99.1626259999999888
0
LINE
8
BLACK
6
CONTINUOUS
10
216.9351269999999943
20
-99.1626259999999888
11
217.0026619999999866
21
-98.8013320000000022
0
LINE
8
BLACK
6
CONTINUOUS
10
217.0026619999999866
20
-98.8013320000000022
11
217.0365730000000042
21
-98.4353490000000022
0
LINE
8
BLACK
6
CONTINUOUS
10
217.0365730000000042
20
-98.4353490000000022
11
217.0365719999999783
21
-98.2515729999999934
0
LINE
8
BLACK
6
CONTINUOUS
10
217.0365719999999783
20
-98.2515729999999934
11
217.0365730000000042
21
-98.2515689999999893
0
LINE
8
BLACK
6
CONTINUOUS
10
217.0365730000000042
20
-98.2515689999999893
11
217.0365730000000042
21
-78.3746960000000001
0
LINE
8
BLACK
6
CONTINUOUS
10
217.0365730000000042
20
-78.3746960000000001
11
217.0365839999999764
21
-78.3746390000000019
0
LINE
8
BLACK
6
CONTINUOUS
10
217.0365839999999764
20
-78.3746390000000019
11
217.0365730000000042
21
-78.3746039999999908
0
LINE
8
BLACK
6
CONTINUOUS
10
217.0365730000000042
20
-78.3746039999999908
11
217.0372299999999939
21
-78.1903999999999968
0
LINE
8
BLACK
6
CONTINUOUS
10
217.0372299999999939
20
-78.1903999999999968
11
217.0045059999999921
21
-77.8234449999999924
0
LINE
8
BLACK
6
CONTINUOUS
10
217.0045059999999921
20
-77.8234449999999924
11
216.9379849999999976
21
-77.4610890000000012
0
LINE
8
BLACK
6
CONTINUOUS
10
216.9379849999999976
20
-77.4610890000000012
11
216.8382359999999949
21
-77.1064379999999971
0
LINE
8
BLACK
6
CONTINUOUS
10
216.8382359999999949
20
-77.1064379999999971
11
216.7061159999999802
21
-76.7625319999999931
0
LINE
8
BLACK
6
CONTINUOUS
10
216.7061159999999802
20
-76.7625319999999931
11
216.5427559999999971
21
-76.4323189999999926
0
LINE
8
BLACK
6
CONTINUOUS
10
216.5427559999999971
20
-76.4323189999999926
11
216.3495570000000043
21
-76.118629999999996
0
LINE
8
BLACK
6
CONTINUOUS
10
216.3495570000000043
20
-76.118629999999996
11
216.1281740000000013
21
-75.8241529999999955
0
LINE
8
BLACK
6
CONTINUOUS
10
216.1281740000000013
20
-75.8241529999999955
11
215.8805059999999969
21
-75.5514119999999991
0
LINE
8
BLACK
6
CONTINUOUS
10
215.8805059999999969
20
-75.5514119999999991
11
215.6086760000000027
21
-75.3027459999999991
0
LINE
8
BLACK
6
CONTINUOUS
10
215.6086760000000027
20
-75.3027459999999991
11
215.3150129999999933
21
-75.0802850000000035
0
LINE
8
BLACK
6
CONTINUOUS
10
215.3150129999999933
20
-75.0802850000000035
11
215.0020339999999806
21
-74.8859369999999984
0
LINE
8
BLACK
6
CONTINUOUS
10
215.0020339999999806
20
-74.8859369999999984
11
214.6724219999999832
21
-74.7213670000000008
0
LINE
8
BLACK
6
CONTINUOUS
10
214.6724219999999832
20
-74.7213670000000008
11
214.3290039999999976
21
-74.5879860000000008
0
LINE
8
BLACK
6
CONTINUOUS
10
214.3290039999999976
20
-74.5879860000000008
11
213.9747209999999882
21
-74.486937999999995
0
LINE
8
BLACK
6
CONTINUOUS
10
213.9747209999999882
20
-74.486937999999995
11
213.6126109999999869
21
-74.4190880000000021
0
LINE
8
BLACK
6
CONTINUOUS
10
213.6126109999999869
20
-74.4190880000000021
11
213.2457789999999989
21
-74.3850189999999998
0
LINE
8
BLACK
6
CONTINUOUS
10
213.2457789999999989
20
-74.3850189999999998
11
213.0615729999999814
21
-74.3849999999999909
0
LINE
8
BLACK
6
CONTINUOUS
10
213.0615729999999814
20
-74.3849999999999909
11
168.503311999999994
21
-74.3849999999999909
  0
ENDSEC
  0
EOF
