%TF.GenerationSoftware,KiCad,Pcbnew,9.0.0*%
%TF.CreationDate,2025-05-24T09:04:45-07:00*%
%TF.ProjectId,nnv2-smd,6e6e7632-2d73-46d6-942e-6b696361645f,rev?*%
%TF.SameCoordinates,Original*%
%TF.FileFunction,Legend,Bot*%
%TF.FilePolarity,Positive*%
%FSLAX46Y46*%
G04 Gerber Fmt 4.6, Leading zero omitted, Abs format (unit mm)*
G04 Created by KiCad (PCBNEW 9.0.0) date 2025-05-24 09:04:45*
%MOMM*%
%LPD*%
G01*
G04 APERTURE LIST*
%ADD10C,0.150000*%
%ADD11C,0.381000*%
G04 APERTURE END LIST*
D10*
X179740390Y-93156476D02*
X179702295Y-93080286D01*
X179702295Y-93080286D02*
X179702295Y-92966000D01*
X179702295Y-92966000D02*
X179740390Y-92851714D01*
X179740390Y-92851714D02*
X179816580Y-92775524D01*
X179816580Y-92775524D02*
X179892771Y-92737429D01*
X179892771Y-92737429D02*
X180045152Y-92699333D01*
X180045152Y-92699333D02*
X180159438Y-92699333D01*
X180159438Y-92699333D02*
X180311819Y-92737429D01*
X180311819Y-92737429D02*
X180388009Y-92775524D01*
X180388009Y-92775524D02*
X180464200Y-92851714D01*
X180464200Y-92851714D02*
X180502295Y-92966000D01*
X180502295Y-92966000D02*
X180502295Y-93042191D01*
X180502295Y-93042191D02*
X180464200Y-93156476D01*
X180464200Y-93156476D02*
X180426104Y-93194572D01*
X180426104Y-93194572D02*
X180159438Y-93194572D01*
X180159438Y-93194572D02*
X180159438Y-93042191D01*
X180502295Y-93537429D02*
X179702295Y-93537429D01*
X179702295Y-93537429D02*
X180502295Y-93994572D01*
X180502295Y-93994572D02*
X179702295Y-93994572D01*
X180502295Y-94375524D02*
X179702295Y-94375524D01*
X179702295Y-94375524D02*
X179702295Y-94566000D01*
X179702295Y-94566000D02*
X179740390Y-94680286D01*
X179740390Y-94680286D02*
X179816580Y-94756476D01*
X179816580Y-94756476D02*
X179892771Y-94794571D01*
X179892771Y-94794571D02*
X180045152Y-94832667D01*
X180045152Y-94832667D02*
X180159438Y-94832667D01*
X180159438Y-94832667D02*
X180311819Y-94794571D01*
X180311819Y-94794571D02*
X180388009Y-94756476D01*
X180388009Y-94756476D02*
X180464200Y-94680286D01*
X180464200Y-94680286D02*
X180502295Y-94566000D01*
X180502295Y-94566000D02*
X180502295Y-94375524D01*
X195742295Y-93308856D02*
X195742295Y-92851713D01*
X195742295Y-93080285D02*
X194942295Y-93080285D01*
X194942295Y-93080285D02*
X195056580Y-93004094D01*
X195056580Y-93004094D02*
X195132771Y-92927904D01*
X195132771Y-92927904D02*
X195170866Y-92851713D01*
X194942295Y-93804095D02*
X194942295Y-93880285D01*
X194942295Y-93880285D02*
X194980390Y-93956476D01*
X194980390Y-93956476D02*
X195018485Y-93994571D01*
X195018485Y-93994571D02*
X195094676Y-94032666D01*
X195094676Y-94032666D02*
X195247057Y-94070761D01*
X195247057Y-94070761D02*
X195437533Y-94070761D01*
X195437533Y-94070761D02*
X195589914Y-94032666D01*
X195589914Y-94032666D02*
X195666104Y-93994571D01*
X195666104Y-93994571D02*
X195704200Y-93956476D01*
X195704200Y-93956476D02*
X195742295Y-93880285D01*
X195742295Y-93880285D02*
X195742295Y-93804095D01*
X195742295Y-93804095D02*
X195704200Y-93727904D01*
X195704200Y-93727904D02*
X195666104Y-93689809D01*
X195666104Y-93689809D02*
X195589914Y-93651714D01*
X195589914Y-93651714D02*
X195437533Y-93613618D01*
X195437533Y-93613618D02*
X195247057Y-93613618D01*
X195247057Y-93613618D02*
X195094676Y-93651714D01*
X195094676Y-93651714D02*
X195018485Y-93689809D01*
X195018485Y-93689809D02*
X194980390Y-93727904D01*
X194980390Y-93727904D02*
X194942295Y-93804095D01*
X194942295Y-94566000D02*
X194942295Y-94642190D01*
X194942295Y-94642190D02*
X194980390Y-94718381D01*
X194980390Y-94718381D02*
X195018485Y-94756476D01*
X195018485Y-94756476D02*
X195094676Y-94794571D01*
X195094676Y-94794571D02*
X195247057Y-94832666D01*
X195247057Y-94832666D02*
X195437533Y-94832666D01*
X195437533Y-94832666D02*
X195589914Y-94794571D01*
X195589914Y-94794571D02*
X195666104Y-94756476D01*
X195666104Y-94756476D02*
X195704200Y-94718381D01*
X195704200Y-94718381D02*
X195742295Y-94642190D01*
X195742295Y-94642190D02*
X195742295Y-94566000D01*
X195742295Y-94566000D02*
X195704200Y-94489809D01*
X195704200Y-94489809D02*
X195666104Y-94451714D01*
X195666104Y-94451714D02*
X195589914Y-94413619D01*
X195589914Y-94413619D02*
X195437533Y-94375523D01*
X195437533Y-94375523D02*
X195247057Y-94375523D01*
X195247057Y-94375523D02*
X195094676Y-94413619D01*
X195094676Y-94413619D02*
X195018485Y-94451714D01*
X195018485Y-94451714D02*
X194980390Y-94489809D01*
X194980390Y-94489809D02*
X194942295Y-94566000D01*
X182242295Y-81701142D02*
X183042295Y-81967809D01*
X183042295Y-81967809D02*
X182242295Y-82234475D01*
X182966104Y-82958285D02*
X183004200Y-82920189D01*
X183004200Y-82920189D02*
X183042295Y-82805904D01*
X183042295Y-82805904D02*
X183042295Y-82729713D01*
X183042295Y-82729713D02*
X183004200Y-82615427D01*
X183004200Y-82615427D02*
X182928009Y-82539237D01*
X182928009Y-82539237D02*
X182851819Y-82501142D01*
X182851819Y-82501142D02*
X182699438Y-82463046D01*
X182699438Y-82463046D02*
X182585152Y-82463046D01*
X182585152Y-82463046D02*
X182432771Y-82501142D01*
X182432771Y-82501142D02*
X182356580Y-82539237D01*
X182356580Y-82539237D02*
X182280390Y-82615427D01*
X182280390Y-82615427D02*
X182242295Y-82729713D01*
X182242295Y-82729713D02*
X182242295Y-82805904D01*
X182242295Y-82805904D02*
X182280390Y-82920189D01*
X182280390Y-82920189D02*
X182318485Y-82958285D01*
X182966104Y-83758285D02*
X183004200Y-83720189D01*
X183004200Y-83720189D02*
X183042295Y-83605904D01*
X183042295Y-83605904D02*
X183042295Y-83529713D01*
X183042295Y-83529713D02*
X183004200Y-83415427D01*
X183004200Y-83415427D02*
X182928009Y-83339237D01*
X182928009Y-83339237D02*
X182851819Y-83301142D01*
X182851819Y-83301142D02*
X182699438Y-83263046D01*
X182699438Y-83263046D02*
X182585152Y-83263046D01*
X182585152Y-83263046D02*
X182432771Y-83301142D01*
X182432771Y-83301142D02*
X182356580Y-83339237D01*
X182356580Y-83339237D02*
X182280390Y-83415427D01*
X182280390Y-83415427D02*
X182242295Y-83529713D01*
X182242295Y-83529713D02*
X182242295Y-83605904D01*
X182242295Y-83605904D02*
X182280390Y-83720189D01*
X182280390Y-83720189D02*
X182318485Y-83758285D01*
X177200390Y-82240809D02*
X177162295Y-82164619D01*
X177162295Y-82164619D02*
X177162295Y-82050333D01*
X177162295Y-82050333D02*
X177200390Y-81936047D01*
X177200390Y-81936047D02*
X177276580Y-81859857D01*
X177276580Y-81859857D02*
X177352771Y-81821762D01*
X177352771Y-81821762D02*
X177505152Y-81783666D01*
X177505152Y-81783666D02*
X177619438Y-81783666D01*
X177619438Y-81783666D02*
X177771819Y-81821762D01*
X177771819Y-81821762D02*
X177848009Y-81859857D01*
X177848009Y-81859857D02*
X177924200Y-81936047D01*
X177924200Y-81936047D02*
X177962295Y-82050333D01*
X177962295Y-82050333D02*
X177962295Y-82126524D01*
X177962295Y-82126524D02*
X177924200Y-82240809D01*
X177924200Y-82240809D02*
X177886104Y-82278905D01*
X177886104Y-82278905D02*
X177619438Y-82278905D01*
X177619438Y-82278905D02*
X177619438Y-82126524D01*
X177962295Y-82621762D02*
X177162295Y-82621762D01*
X177162295Y-82621762D02*
X177962295Y-83078905D01*
X177962295Y-83078905D02*
X177162295Y-83078905D01*
X177962295Y-83459857D02*
X177162295Y-83459857D01*
X177162295Y-83459857D02*
X177162295Y-83650333D01*
X177162295Y-83650333D02*
X177200390Y-83764619D01*
X177200390Y-83764619D02*
X177276580Y-83840809D01*
X177276580Y-83840809D02*
X177352771Y-83878904D01*
X177352771Y-83878904D02*
X177505152Y-83917000D01*
X177505152Y-83917000D02*
X177619438Y-83917000D01*
X177619438Y-83917000D02*
X177771819Y-83878904D01*
X177771819Y-83878904D02*
X177848009Y-83840809D01*
X177848009Y-83840809D02*
X177924200Y-83764619D01*
X177924200Y-83764619D02*
X177962295Y-83650333D01*
X177962295Y-83650333D02*
X177962295Y-83459857D01*
X177092295Y-93042190D02*
X177092295Y-93118380D01*
X177092295Y-93118380D02*
X177130390Y-93194571D01*
X177130390Y-93194571D02*
X177168485Y-93232666D01*
X177168485Y-93232666D02*
X177244676Y-93270761D01*
X177244676Y-93270761D02*
X177397057Y-93308856D01*
X177397057Y-93308856D02*
X177587533Y-93308856D01*
X177587533Y-93308856D02*
X177739914Y-93270761D01*
X177739914Y-93270761D02*
X177816104Y-93232666D01*
X177816104Y-93232666D02*
X177854200Y-93194571D01*
X177854200Y-93194571D02*
X177892295Y-93118380D01*
X177892295Y-93118380D02*
X177892295Y-93042190D01*
X177892295Y-93042190D02*
X177854200Y-92965999D01*
X177854200Y-92965999D02*
X177816104Y-92927904D01*
X177816104Y-92927904D02*
X177739914Y-92889809D01*
X177739914Y-92889809D02*
X177587533Y-92851713D01*
X177587533Y-92851713D02*
X177397057Y-92851713D01*
X177397057Y-92851713D02*
X177244676Y-92889809D01*
X177244676Y-92889809D02*
X177168485Y-92927904D01*
X177168485Y-92927904D02*
X177130390Y-92965999D01*
X177130390Y-92965999D02*
X177092295Y-93042190D01*
X177092295Y-93804095D02*
X177092295Y-93880285D01*
X177092295Y-93880285D02*
X177130390Y-93956476D01*
X177130390Y-93956476D02*
X177168485Y-93994571D01*
X177168485Y-93994571D02*
X177244676Y-94032666D01*
X177244676Y-94032666D02*
X177397057Y-94070761D01*
X177397057Y-94070761D02*
X177587533Y-94070761D01*
X177587533Y-94070761D02*
X177739914Y-94032666D01*
X177739914Y-94032666D02*
X177816104Y-93994571D01*
X177816104Y-93994571D02*
X177854200Y-93956476D01*
X177854200Y-93956476D02*
X177892295Y-93880285D01*
X177892295Y-93880285D02*
X177892295Y-93804095D01*
X177892295Y-93804095D02*
X177854200Y-93727904D01*
X177854200Y-93727904D02*
X177816104Y-93689809D01*
X177816104Y-93689809D02*
X177739914Y-93651714D01*
X177739914Y-93651714D02*
X177587533Y-93613618D01*
X177587533Y-93613618D02*
X177397057Y-93613618D01*
X177397057Y-93613618D02*
X177244676Y-93651714D01*
X177244676Y-93651714D02*
X177168485Y-93689809D01*
X177168485Y-93689809D02*
X177130390Y-93727904D01*
X177130390Y-93727904D02*
X177092295Y-93804095D01*
X177435152Y-94527904D02*
X177397057Y-94451714D01*
X177397057Y-94451714D02*
X177358961Y-94413619D01*
X177358961Y-94413619D02*
X177282771Y-94375523D01*
X177282771Y-94375523D02*
X177244676Y-94375523D01*
X177244676Y-94375523D02*
X177168485Y-94413619D01*
X177168485Y-94413619D02*
X177130390Y-94451714D01*
X177130390Y-94451714D02*
X177092295Y-94527904D01*
X177092295Y-94527904D02*
X177092295Y-94680285D01*
X177092295Y-94680285D02*
X177130390Y-94756476D01*
X177130390Y-94756476D02*
X177168485Y-94794571D01*
X177168485Y-94794571D02*
X177244676Y-94832666D01*
X177244676Y-94832666D02*
X177282771Y-94832666D01*
X177282771Y-94832666D02*
X177358961Y-94794571D01*
X177358961Y-94794571D02*
X177397057Y-94756476D01*
X177397057Y-94756476D02*
X177435152Y-94680285D01*
X177435152Y-94680285D02*
X177435152Y-94527904D01*
X177435152Y-94527904D02*
X177473247Y-94451714D01*
X177473247Y-94451714D02*
X177511342Y-94413619D01*
X177511342Y-94413619D02*
X177587533Y-94375523D01*
X177587533Y-94375523D02*
X177739914Y-94375523D01*
X177739914Y-94375523D02*
X177816104Y-94413619D01*
X177816104Y-94413619D02*
X177854200Y-94451714D01*
X177854200Y-94451714D02*
X177892295Y-94527904D01*
X177892295Y-94527904D02*
X177892295Y-94680285D01*
X177892295Y-94680285D02*
X177854200Y-94756476D01*
X177854200Y-94756476D02*
X177816104Y-94794571D01*
X177816104Y-94794571D02*
X177739914Y-94832666D01*
X177739914Y-94832666D02*
X177587533Y-94832666D01*
X177587533Y-94832666D02*
X177511342Y-94794571D01*
X177511342Y-94794571D02*
X177473247Y-94756476D01*
X177473247Y-94756476D02*
X177435152Y-94680285D01*
X200022295Y-81967809D02*
X200022295Y-82043999D01*
X200022295Y-82043999D02*
X200060390Y-82120190D01*
X200060390Y-82120190D02*
X200098485Y-82158285D01*
X200098485Y-82158285D02*
X200174676Y-82196380D01*
X200174676Y-82196380D02*
X200327057Y-82234475D01*
X200327057Y-82234475D02*
X200517533Y-82234475D01*
X200517533Y-82234475D02*
X200669914Y-82196380D01*
X200669914Y-82196380D02*
X200746104Y-82158285D01*
X200746104Y-82158285D02*
X200784200Y-82120190D01*
X200784200Y-82120190D02*
X200822295Y-82043999D01*
X200822295Y-82043999D02*
X200822295Y-81967809D01*
X200822295Y-81967809D02*
X200784200Y-81891618D01*
X200784200Y-81891618D02*
X200746104Y-81853523D01*
X200746104Y-81853523D02*
X200669914Y-81815428D01*
X200669914Y-81815428D02*
X200517533Y-81777332D01*
X200517533Y-81777332D02*
X200327057Y-81777332D01*
X200327057Y-81777332D02*
X200174676Y-81815428D01*
X200174676Y-81815428D02*
X200098485Y-81853523D01*
X200098485Y-81853523D02*
X200060390Y-81891618D01*
X200060390Y-81891618D02*
X200022295Y-81967809D01*
X200822295Y-82996380D02*
X200822295Y-82539237D01*
X200822295Y-82767809D02*
X200022295Y-82767809D01*
X200022295Y-82767809D02*
X200136580Y-82691618D01*
X200136580Y-82691618D02*
X200212771Y-82615428D01*
X200212771Y-82615428D02*
X200250866Y-82539237D01*
X200022295Y-83491619D02*
X200022295Y-83567809D01*
X200022295Y-83567809D02*
X200060390Y-83644000D01*
X200060390Y-83644000D02*
X200098485Y-83682095D01*
X200098485Y-83682095D02*
X200174676Y-83720190D01*
X200174676Y-83720190D02*
X200327057Y-83758285D01*
X200327057Y-83758285D02*
X200517533Y-83758285D01*
X200517533Y-83758285D02*
X200669914Y-83720190D01*
X200669914Y-83720190D02*
X200746104Y-83682095D01*
X200746104Y-83682095D02*
X200784200Y-83644000D01*
X200784200Y-83644000D02*
X200822295Y-83567809D01*
X200822295Y-83567809D02*
X200822295Y-83491619D01*
X200822295Y-83491619D02*
X200784200Y-83415428D01*
X200784200Y-83415428D02*
X200746104Y-83377333D01*
X200746104Y-83377333D02*
X200669914Y-83339238D01*
X200669914Y-83339238D02*
X200517533Y-83301142D01*
X200517533Y-83301142D02*
X200327057Y-83301142D01*
X200327057Y-83301142D02*
X200174676Y-83339238D01*
X200174676Y-83339238D02*
X200098485Y-83377333D01*
X200098485Y-83377333D02*
X200060390Y-83415428D01*
X200060390Y-83415428D02*
X200022295Y-83491619D01*
X198282295Y-82234475D02*
X198282295Y-81777332D01*
X198282295Y-82005904D02*
X197482295Y-82005904D01*
X197482295Y-82005904D02*
X197596580Y-81929713D01*
X197596580Y-81929713D02*
X197672771Y-81853523D01*
X197672771Y-81853523D02*
X197710866Y-81777332D01*
X198282295Y-82996380D02*
X198282295Y-82539237D01*
X198282295Y-82767809D02*
X197482295Y-82767809D01*
X197482295Y-82767809D02*
X197596580Y-82691618D01*
X197596580Y-82691618D02*
X197672771Y-82615428D01*
X197672771Y-82615428D02*
X197710866Y-82539237D01*
X198282295Y-83758285D02*
X198282295Y-83301142D01*
X198282295Y-83529714D02*
X197482295Y-83529714D01*
X197482295Y-83529714D02*
X197596580Y-83453523D01*
X197596580Y-83453523D02*
X197672771Y-83377333D01*
X197672771Y-83377333D02*
X197710866Y-83301142D01*
X175422295Y-82278904D02*
X175041342Y-82012237D01*
X175422295Y-81821761D02*
X174622295Y-81821761D01*
X174622295Y-81821761D02*
X174622295Y-82126523D01*
X174622295Y-82126523D02*
X174660390Y-82202713D01*
X174660390Y-82202713D02*
X174698485Y-82240808D01*
X174698485Y-82240808D02*
X174774676Y-82278904D01*
X174774676Y-82278904D02*
X174888961Y-82278904D01*
X174888961Y-82278904D02*
X174965152Y-82240808D01*
X174965152Y-82240808D02*
X175003247Y-82202713D01*
X175003247Y-82202713D02*
X175041342Y-82126523D01*
X175041342Y-82126523D02*
X175041342Y-81821761D01*
X175193723Y-82583665D02*
X175193723Y-82964618D01*
X175422295Y-82507475D02*
X174622295Y-82774142D01*
X174622295Y-82774142D02*
X175422295Y-83040808D01*
X174622295Y-83231284D02*
X175422295Y-83421760D01*
X175422295Y-83421760D02*
X174850866Y-83574141D01*
X174850866Y-83574141D02*
X175422295Y-83726522D01*
X175422295Y-83726522D02*
X174622295Y-83916999D01*
X189892295Y-93042190D02*
X189892295Y-93118380D01*
X189892295Y-93118380D02*
X189930390Y-93194571D01*
X189930390Y-93194571D02*
X189968485Y-93232666D01*
X189968485Y-93232666D02*
X190044676Y-93270761D01*
X190044676Y-93270761D02*
X190197057Y-93308856D01*
X190197057Y-93308856D02*
X190387533Y-93308856D01*
X190387533Y-93308856D02*
X190539914Y-93270761D01*
X190539914Y-93270761D02*
X190616104Y-93232666D01*
X190616104Y-93232666D02*
X190654200Y-93194571D01*
X190654200Y-93194571D02*
X190692295Y-93118380D01*
X190692295Y-93118380D02*
X190692295Y-93042190D01*
X190692295Y-93042190D02*
X190654200Y-92965999D01*
X190654200Y-92965999D02*
X190616104Y-92927904D01*
X190616104Y-92927904D02*
X190539914Y-92889809D01*
X190539914Y-92889809D02*
X190387533Y-92851713D01*
X190387533Y-92851713D02*
X190197057Y-92851713D01*
X190197057Y-92851713D02*
X190044676Y-92889809D01*
X190044676Y-92889809D02*
X189968485Y-92927904D01*
X189968485Y-92927904D02*
X189930390Y-92965999D01*
X189930390Y-92965999D02*
X189892295Y-93042190D01*
X189968485Y-93613618D02*
X189930390Y-93651714D01*
X189930390Y-93651714D02*
X189892295Y-93727904D01*
X189892295Y-93727904D02*
X189892295Y-93918380D01*
X189892295Y-93918380D02*
X189930390Y-93994571D01*
X189930390Y-93994571D02*
X189968485Y-94032666D01*
X189968485Y-94032666D02*
X190044676Y-94070761D01*
X190044676Y-94070761D02*
X190120866Y-94070761D01*
X190120866Y-94070761D02*
X190235152Y-94032666D01*
X190235152Y-94032666D02*
X190692295Y-93575523D01*
X190692295Y-93575523D02*
X190692295Y-94070761D01*
X189968485Y-94375523D02*
X189930390Y-94413619D01*
X189930390Y-94413619D02*
X189892295Y-94489809D01*
X189892295Y-94489809D02*
X189892295Y-94680285D01*
X189892295Y-94680285D02*
X189930390Y-94756476D01*
X189930390Y-94756476D02*
X189968485Y-94794571D01*
X189968485Y-94794571D02*
X190044676Y-94832666D01*
X190044676Y-94832666D02*
X190120866Y-94832666D01*
X190120866Y-94832666D02*
X190235152Y-94794571D01*
X190235152Y-94794571D02*
X190692295Y-94337428D01*
X190692295Y-94337428D02*
X190692295Y-94832666D01*
X200822295Y-93308856D02*
X200822295Y-92851713D01*
X200822295Y-93080285D02*
X200022295Y-93080285D01*
X200022295Y-93080285D02*
X200136580Y-93004094D01*
X200136580Y-93004094D02*
X200212771Y-92927904D01*
X200212771Y-92927904D02*
X200250866Y-92851713D01*
X200022295Y-93804095D02*
X200022295Y-93880285D01*
X200022295Y-93880285D02*
X200060390Y-93956476D01*
X200060390Y-93956476D02*
X200098485Y-93994571D01*
X200098485Y-93994571D02*
X200174676Y-94032666D01*
X200174676Y-94032666D02*
X200327057Y-94070761D01*
X200327057Y-94070761D02*
X200517533Y-94070761D01*
X200517533Y-94070761D02*
X200669914Y-94032666D01*
X200669914Y-94032666D02*
X200746104Y-93994571D01*
X200746104Y-93994571D02*
X200784200Y-93956476D01*
X200784200Y-93956476D02*
X200822295Y-93880285D01*
X200822295Y-93880285D02*
X200822295Y-93804095D01*
X200822295Y-93804095D02*
X200784200Y-93727904D01*
X200784200Y-93727904D02*
X200746104Y-93689809D01*
X200746104Y-93689809D02*
X200669914Y-93651714D01*
X200669914Y-93651714D02*
X200517533Y-93613618D01*
X200517533Y-93613618D02*
X200327057Y-93613618D01*
X200327057Y-93613618D02*
X200174676Y-93651714D01*
X200174676Y-93651714D02*
X200098485Y-93689809D01*
X200098485Y-93689809D02*
X200060390Y-93727904D01*
X200060390Y-93727904D02*
X200022295Y-93804095D01*
X200288961Y-94756476D02*
X200822295Y-94756476D01*
X199984200Y-94566000D02*
X200555628Y-94375523D01*
X200555628Y-94375523D02*
X200555628Y-94870762D01*
X184782295Y-93042190D02*
X184782295Y-93118380D01*
X184782295Y-93118380D02*
X184820390Y-93194571D01*
X184820390Y-93194571D02*
X184858485Y-93232666D01*
X184858485Y-93232666D02*
X184934676Y-93270761D01*
X184934676Y-93270761D02*
X185087057Y-93308856D01*
X185087057Y-93308856D02*
X185277533Y-93308856D01*
X185277533Y-93308856D02*
X185429914Y-93270761D01*
X185429914Y-93270761D02*
X185506104Y-93232666D01*
X185506104Y-93232666D02*
X185544200Y-93194571D01*
X185544200Y-93194571D02*
X185582295Y-93118380D01*
X185582295Y-93118380D02*
X185582295Y-93042190D01*
X185582295Y-93042190D02*
X185544200Y-92965999D01*
X185544200Y-92965999D02*
X185506104Y-92927904D01*
X185506104Y-92927904D02*
X185429914Y-92889809D01*
X185429914Y-92889809D02*
X185277533Y-92851713D01*
X185277533Y-92851713D02*
X185087057Y-92851713D01*
X185087057Y-92851713D02*
X184934676Y-92889809D01*
X184934676Y-92889809D02*
X184858485Y-92927904D01*
X184858485Y-92927904D02*
X184820390Y-92965999D01*
X184820390Y-92965999D02*
X184782295Y-93042190D01*
X185582295Y-94070761D02*
X185582295Y-93613618D01*
X185582295Y-93842190D02*
X184782295Y-93842190D01*
X184782295Y-93842190D02*
X184896580Y-93765999D01*
X184896580Y-93765999D02*
X184972771Y-93689809D01*
X184972771Y-93689809D02*
X185010866Y-93613618D01*
X184782295Y-94337428D02*
X184782295Y-94870762D01*
X184782295Y-94870762D02*
X185582295Y-94527904D01*
X184782295Y-81967809D02*
X184782295Y-82043999D01*
X184782295Y-82043999D02*
X184820390Y-82120190D01*
X184820390Y-82120190D02*
X184858485Y-82158285D01*
X184858485Y-82158285D02*
X184934676Y-82196380D01*
X184934676Y-82196380D02*
X185087057Y-82234475D01*
X185087057Y-82234475D02*
X185277533Y-82234475D01*
X185277533Y-82234475D02*
X185429914Y-82196380D01*
X185429914Y-82196380D02*
X185506104Y-82158285D01*
X185506104Y-82158285D02*
X185544200Y-82120190D01*
X185544200Y-82120190D02*
X185582295Y-82043999D01*
X185582295Y-82043999D02*
X185582295Y-81967809D01*
X185582295Y-81967809D02*
X185544200Y-81891618D01*
X185544200Y-81891618D02*
X185506104Y-81853523D01*
X185506104Y-81853523D02*
X185429914Y-81815428D01*
X185429914Y-81815428D02*
X185277533Y-81777332D01*
X185277533Y-81777332D02*
X185087057Y-81777332D01*
X185087057Y-81777332D02*
X184934676Y-81815428D01*
X184934676Y-81815428D02*
X184858485Y-81853523D01*
X184858485Y-81853523D02*
X184820390Y-81891618D01*
X184820390Y-81891618D02*
X184782295Y-81967809D01*
X184782295Y-82501142D02*
X184782295Y-82996380D01*
X184782295Y-82996380D02*
X185087057Y-82729714D01*
X185087057Y-82729714D02*
X185087057Y-82843999D01*
X185087057Y-82843999D02*
X185125152Y-82920190D01*
X185125152Y-82920190D02*
X185163247Y-82958285D01*
X185163247Y-82958285D02*
X185239438Y-82996380D01*
X185239438Y-82996380D02*
X185429914Y-82996380D01*
X185429914Y-82996380D02*
X185506104Y-82958285D01*
X185506104Y-82958285D02*
X185544200Y-82920190D01*
X185544200Y-82920190D02*
X185582295Y-82843999D01*
X185582295Y-82843999D02*
X185582295Y-82615428D01*
X185582295Y-82615428D02*
X185544200Y-82539237D01*
X185544200Y-82539237D02*
X185506104Y-82501142D01*
X185582295Y-83758285D02*
X185582295Y-83301142D01*
X185582295Y-83529714D02*
X184782295Y-83529714D01*
X184782295Y-83529714D02*
X184896580Y-83453523D01*
X184896580Y-83453523D02*
X184972771Y-83377333D01*
X184972771Y-83377333D02*
X185010866Y-83301142D01*
X182280390Y-93156476D02*
X182242295Y-93080286D01*
X182242295Y-93080286D02*
X182242295Y-92966000D01*
X182242295Y-92966000D02*
X182280390Y-92851714D01*
X182280390Y-92851714D02*
X182356580Y-92775524D01*
X182356580Y-92775524D02*
X182432771Y-92737429D01*
X182432771Y-92737429D02*
X182585152Y-92699333D01*
X182585152Y-92699333D02*
X182699438Y-92699333D01*
X182699438Y-92699333D02*
X182851819Y-92737429D01*
X182851819Y-92737429D02*
X182928009Y-92775524D01*
X182928009Y-92775524D02*
X183004200Y-92851714D01*
X183004200Y-92851714D02*
X183042295Y-92966000D01*
X183042295Y-92966000D02*
X183042295Y-93042191D01*
X183042295Y-93042191D02*
X183004200Y-93156476D01*
X183004200Y-93156476D02*
X182966104Y-93194572D01*
X182966104Y-93194572D02*
X182699438Y-93194572D01*
X182699438Y-93194572D02*
X182699438Y-93042191D01*
X183042295Y-93537429D02*
X182242295Y-93537429D01*
X182242295Y-93537429D02*
X183042295Y-93994572D01*
X183042295Y-93994572D02*
X182242295Y-93994572D01*
X183042295Y-94375524D02*
X182242295Y-94375524D01*
X182242295Y-94375524D02*
X182242295Y-94566000D01*
X182242295Y-94566000D02*
X182280390Y-94680286D01*
X182280390Y-94680286D02*
X182356580Y-94756476D01*
X182356580Y-94756476D02*
X182432771Y-94794571D01*
X182432771Y-94794571D02*
X182585152Y-94832667D01*
X182585152Y-94832667D02*
X182699438Y-94832667D01*
X182699438Y-94832667D02*
X182851819Y-94794571D01*
X182851819Y-94794571D02*
X182928009Y-94756476D01*
X182928009Y-94756476D02*
X183004200Y-94680286D01*
X183004200Y-94680286D02*
X183042295Y-94566000D01*
X183042295Y-94566000D02*
X183042295Y-94375524D01*
X187322295Y-81967809D02*
X187322295Y-82043999D01*
X187322295Y-82043999D02*
X187360390Y-82120190D01*
X187360390Y-82120190D02*
X187398485Y-82158285D01*
X187398485Y-82158285D02*
X187474676Y-82196380D01*
X187474676Y-82196380D02*
X187627057Y-82234475D01*
X187627057Y-82234475D02*
X187817533Y-82234475D01*
X187817533Y-82234475D02*
X187969914Y-82196380D01*
X187969914Y-82196380D02*
X188046104Y-82158285D01*
X188046104Y-82158285D02*
X188084200Y-82120190D01*
X188084200Y-82120190D02*
X188122295Y-82043999D01*
X188122295Y-82043999D02*
X188122295Y-81967809D01*
X188122295Y-81967809D02*
X188084200Y-81891618D01*
X188084200Y-81891618D02*
X188046104Y-81853523D01*
X188046104Y-81853523D02*
X187969914Y-81815428D01*
X187969914Y-81815428D02*
X187817533Y-81777332D01*
X187817533Y-81777332D02*
X187627057Y-81777332D01*
X187627057Y-81777332D02*
X187474676Y-81815428D01*
X187474676Y-81815428D02*
X187398485Y-81853523D01*
X187398485Y-81853523D02*
X187360390Y-81891618D01*
X187360390Y-81891618D02*
X187322295Y-81967809D01*
X187398485Y-82539237D02*
X187360390Y-82577333D01*
X187360390Y-82577333D02*
X187322295Y-82653523D01*
X187322295Y-82653523D02*
X187322295Y-82843999D01*
X187322295Y-82843999D02*
X187360390Y-82920190D01*
X187360390Y-82920190D02*
X187398485Y-82958285D01*
X187398485Y-82958285D02*
X187474676Y-82996380D01*
X187474676Y-82996380D02*
X187550866Y-82996380D01*
X187550866Y-82996380D02*
X187665152Y-82958285D01*
X187665152Y-82958285D02*
X188122295Y-82501142D01*
X188122295Y-82501142D02*
X188122295Y-82996380D01*
X188122295Y-83377333D02*
X188122295Y-83529714D01*
X188122295Y-83529714D02*
X188084200Y-83605904D01*
X188084200Y-83605904D02*
X188046104Y-83644000D01*
X188046104Y-83644000D02*
X187931819Y-83720190D01*
X187931819Y-83720190D02*
X187779438Y-83758285D01*
X187779438Y-83758285D02*
X187474676Y-83758285D01*
X187474676Y-83758285D02*
X187398485Y-83720190D01*
X187398485Y-83720190D02*
X187360390Y-83682095D01*
X187360390Y-83682095D02*
X187322295Y-83605904D01*
X187322295Y-83605904D02*
X187322295Y-83453523D01*
X187322295Y-83453523D02*
X187360390Y-83377333D01*
X187360390Y-83377333D02*
X187398485Y-83339238D01*
X187398485Y-83339238D02*
X187474676Y-83301142D01*
X187474676Y-83301142D02*
X187665152Y-83301142D01*
X187665152Y-83301142D02*
X187741342Y-83339238D01*
X187741342Y-83339238D02*
X187779438Y-83377333D01*
X187779438Y-83377333D02*
X187817533Y-83453523D01*
X187817533Y-83453523D02*
X187817533Y-83605904D01*
X187817533Y-83605904D02*
X187779438Y-83682095D01*
X187779438Y-83682095D02*
X187741342Y-83720190D01*
X187741342Y-83720190D02*
X187665152Y-83758285D01*
X192392295Y-93042190D02*
X192392295Y-93118380D01*
X192392295Y-93118380D02*
X192430390Y-93194571D01*
X192430390Y-93194571D02*
X192468485Y-93232666D01*
X192468485Y-93232666D02*
X192544676Y-93270761D01*
X192544676Y-93270761D02*
X192697057Y-93308856D01*
X192697057Y-93308856D02*
X192887533Y-93308856D01*
X192887533Y-93308856D02*
X193039914Y-93270761D01*
X193039914Y-93270761D02*
X193116104Y-93232666D01*
X193116104Y-93232666D02*
X193154200Y-93194571D01*
X193154200Y-93194571D02*
X193192295Y-93118380D01*
X193192295Y-93118380D02*
X193192295Y-93042190D01*
X193192295Y-93042190D02*
X193154200Y-92965999D01*
X193154200Y-92965999D02*
X193116104Y-92927904D01*
X193116104Y-92927904D02*
X193039914Y-92889809D01*
X193039914Y-92889809D02*
X192887533Y-92851713D01*
X192887533Y-92851713D02*
X192697057Y-92851713D01*
X192697057Y-92851713D02*
X192544676Y-92889809D01*
X192544676Y-92889809D02*
X192468485Y-92927904D01*
X192468485Y-92927904D02*
X192430390Y-92965999D01*
X192430390Y-92965999D02*
X192392295Y-93042190D01*
X192468485Y-93613618D02*
X192430390Y-93651714D01*
X192430390Y-93651714D02*
X192392295Y-93727904D01*
X192392295Y-93727904D02*
X192392295Y-93918380D01*
X192392295Y-93918380D02*
X192430390Y-93994571D01*
X192430390Y-93994571D02*
X192468485Y-94032666D01*
X192468485Y-94032666D02*
X192544676Y-94070761D01*
X192544676Y-94070761D02*
X192620866Y-94070761D01*
X192620866Y-94070761D02*
X192735152Y-94032666D01*
X192735152Y-94032666D02*
X193192295Y-93575523D01*
X193192295Y-93575523D02*
X193192295Y-94070761D01*
X192658961Y-94756476D02*
X193192295Y-94756476D01*
X192354200Y-94566000D02*
X192925628Y-94375523D01*
X192925628Y-94375523D02*
X192925628Y-94870762D01*
X174622295Y-93042190D02*
X174622295Y-93118380D01*
X174622295Y-93118380D02*
X174660390Y-93194571D01*
X174660390Y-93194571D02*
X174698485Y-93232666D01*
X174698485Y-93232666D02*
X174774676Y-93270761D01*
X174774676Y-93270761D02*
X174927057Y-93308856D01*
X174927057Y-93308856D02*
X175117533Y-93308856D01*
X175117533Y-93308856D02*
X175269914Y-93270761D01*
X175269914Y-93270761D02*
X175346104Y-93232666D01*
X175346104Y-93232666D02*
X175384200Y-93194571D01*
X175384200Y-93194571D02*
X175422295Y-93118380D01*
X175422295Y-93118380D02*
X175422295Y-93042190D01*
X175422295Y-93042190D02*
X175384200Y-92965999D01*
X175384200Y-92965999D02*
X175346104Y-92927904D01*
X175346104Y-92927904D02*
X175269914Y-92889809D01*
X175269914Y-92889809D02*
X175117533Y-92851713D01*
X175117533Y-92851713D02*
X174927057Y-92851713D01*
X174927057Y-92851713D02*
X174774676Y-92889809D01*
X174774676Y-92889809D02*
X174698485Y-92927904D01*
X174698485Y-92927904D02*
X174660390Y-92965999D01*
X174660390Y-92965999D02*
X174622295Y-93042190D01*
X174622295Y-93804095D02*
X174622295Y-93880285D01*
X174622295Y-93880285D02*
X174660390Y-93956476D01*
X174660390Y-93956476D02*
X174698485Y-93994571D01*
X174698485Y-93994571D02*
X174774676Y-94032666D01*
X174774676Y-94032666D02*
X174927057Y-94070761D01*
X174927057Y-94070761D02*
X175117533Y-94070761D01*
X175117533Y-94070761D02*
X175269914Y-94032666D01*
X175269914Y-94032666D02*
X175346104Y-93994571D01*
X175346104Y-93994571D02*
X175384200Y-93956476D01*
X175384200Y-93956476D02*
X175422295Y-93880285D01*
X175422295Y-93880285D02*
X175422295Y-93804095D01*
X175422295Y-93804095D02*
X175384200Y-93727904D01*
X175384200Y-93727904D02*
X175346104Y-93689809D01*
X175346104Y-93689809D02*
X175269914Y-93651714D01*
X175269914Y-93651714D02*
X175117533Y-93613618D01*
X175117533Y-93613618D02*
X174927057Y-93613618D01*
X174927057Y-93613618D02*
X174774676Y-93651714D01*
X174774676Y-93651714D02*
X174698485Y-93689809D01*
X174698485Y-93689809D02*
X174660390Y-93727904D01*
X174660390Y-93727904D02*
X174622295Y-93804095D01*
X174622295Y-94756476D02*
X174622295Y-94604095D01*
X174622295Y-94604095D02*
X174660390Y-94527904D01*
X174660390Y-94527904D02*
X174698485Y-94489809D01*
X174698485Y-94489809D02*
X174812771Y-94413619D01*
X174812771Y-94413619D02*
X174965152Y-94375523D01*
X174965152Y-94375523D02*
X175269914Y-94375523D01*
X175269914Y-94375523D02*
X175346104Y-94413619D01*
X175346104Y-94413619D02*
X175384200Y-94451714D01*
X175384200Y-94451714D02*
X175422295Y-94527904D01*
X175422295Y-94527904D02*
X175422295Y-94680285D01*
X175422295Y-94680285D02*
X175384200Y-94756476D01*
X175384200Y-94756476D02*
X175346104Y-94794571D01*
X175346104Y-94794571D02*
X175269914Y-94832666D01*
X175269914Y-94832666D02*
X175079438Y-94832666D01*
X175079438Y-94832666D02*
X175003247Y-94794571D01*
X175003247Y-94794571D02*
X174965152Y-94756476D01*
X174965152Y-94756476D02*
X174927057Y-94680285D01*
X174927057Y-94680285D02*
X174927057Y-94527904D01*
X174927057Y-94527904D02*
X174965152Y-94451714D01*
X174965152Y-94451714D02*
X175003247Y-94413619D01*
X175003247Y-94413619D02*
X175079438Y-94375523D01*
X193202295Y-82234475D02*
X193202295Y-81777332D01*
X193202295Y-82005904D02*
X192402295Y-82005904D01*
X192402295Y-82005904D02*
X192516580Y-81929713D01*
X192516580Y-81929713D02*
X192592771Y-81853523D01*
X192592771Y-81853523D02*
X192630866Y-81777332D01*
X193202295Y-82996380D02*
X193202295Y-82539237D01*
X193202295Y-82767809D02*
X192402295Y-82767809D01*
X192402295Y-82767809D02*
X192516580Y-82691618D01*
X192516580Y-82691618D02*
X192592771Y-82615428D01*
X192592771Y-82615428D02*
X192630866Y-82539237D01*
X192402295Y-83720190D02*
X192402295Y-83339238D01*
X192402295Y-83339238D02*
X192783247Y-83301142D01*
X192783247Y-83301142D02*
X192745152Y-83339238D01*
X192745152Y-83339238D02*
X192707057Y-83415428D01*
X192707057Y-83415428D02*
X192707057Y-83605904D01*
X192707057Y-83605904D02*
X192745152Y-83682095D01*
X192745152Y-83682095D02*
X192783247Y-83720190D01*
X192783247Y-83720190D02*
X192859438Y-83758285D01*
X192859438Y-83758285D02*
X193049914Y-83758285D01*
X193049914Y-83758285D02*
X193126104Y-83720190D01*
X193126104Y-83720190D02*
X193164200Y-83682095D01*
X193164200Y-83682095D02*
X193202295Y-83605904D01*
X193202295Y-83605904D02*
X193202295Y-83415428D01*
X193202295Y-83415428D02*
X193164200Y-83339238D01*
X193164200Y-83339238D02*
X193126104Y-83301142D01*
X195742295Y-82234475D02*
X195742295Y-81777332D01*
X195742295Y-82005904D02*
X194942295Y-82005904D01*
X194942295Y-82005904D02*
X195056580Y-81929713D01*
X195056580Y-81929713D02*
X195132771Y-81853523D01*
X195132771Y-81853523D02*
X195170866Y-81777332D01*
X195742295Y-82996380D02*
X195742295Y-82539237D01*
X195742295Y-82767809D02*
X194942295Y-82767809D01*
X194942295Y-82767809D02*
X195056580Y-82691618D01*
X195056580Y-82691618D02*
X195132771Y-82615428D01*
X195132771Y-82615428D02*
X195170866Y-82539237D01*
X194942295Y-83263047D02*
X194942295Y-83758285D01*
X194942295Y-83758285D02*
X195247057Y-83491619D01*
X195247057Y-83491619D02*
X195247057Y-83605904D01*
X195247057Y-83605904D02*
X195285152Y-83682095D01*
X195285152Y-83682095D02*
X195323247Y-83720190D01*
X195323247Y-83720190D02*
X195399438Y-83758285D01*
X195399438Y-83758285D02*
X195589914Y-83758285D01*
X195589914Y-83758285D02*
X195666104Y-83720190D01*
X195666104Y-83720190D02*
X195704200Y-83682095D01*
X195704200Y-83682095D02*
X195742295Y-83605904D01*
X195742295Y-83605904D02*
X195742295Y-83377333D01*
X195742295Y-83377333D02*
X195704200Y-83301142D01*
X195704200Y-83301142D02*
X195666104Y-83263047D01*
X180502295Y-82278905D02*
X180121342Y-82012238D01*
X180502295Y-81821762D02*
X179702295Y-81821762D01*
X179702295Y-81821762D02*
X179702295Y-82126524D01*
X179702295Y-82126524D02*
X179740390Y-82202714D01*
X179740390Y-82202714D02*
X179778485Y-82240809D01*
X179778485Y-82240809D02*
X179854676Y-82278905D01*
X179854676Y-82278905D02*
X179968961Y-82278905D01*
X179968961Y-82278905D02*
X180045152Y-82240809D01*
X180045152Y-82240809D02*
X180083247Y-82202714D01*
X180083247Y-82202714D02*
X180121342Y-82126524D01*
X180121342Y-82126524D02*
X180121342Y-81821762D01*
X180464200Y-82583666D02*
X180502295Y-82697952D01*
X180502295Y-82697952D02*
X180502295Y-82888428D01*
X180502295Y-82888428D02*
X180464200Y-82964619D01*
X180464200Y-82964619D02*
X180426104Y-83002714D01*
X180426104Y-83002714D02*
X180349914Y-83040809D01*
X180349914Y-83040809D02*
X180273723Y-83040809D01*
X180273723Y-83040809D02*
X180197533Y-83002714D01*
X180197533Y-83002714D02*
X180159438Y-82964619D01*
X180159438Y-82964619D02*
X180121342Y-82888428D01*
X180121342Y-82888428D02*
X180083247Y-82736047D01*
X180083247Y-82736047D02*
X180045152Y-82659857D01*
X180045152Y-82659857D02*
X180007057Y-82621762D01*
X180007057Y-82621762D02*
X179930866Y-82583666D01*
X179930866Y-82583666D02*
X179854676Y-82583666D01*
X179854676Y-82583666D02*
X179778485Y-82621762D01*
X179778485Y-82621762D02*
X179740390Y-82659857D01*
X179740390Y-82659857D02*
X179702295Y-82736047D01*
X179702295Y-82736047D02*
X179702295Y-82926524D01*
X179702295Y-82926524D02*
X179740390Y-83040809D01*
X179702295Y-83269381D02*
X179702295Y-83726524D01*
X180502295Y-83497952D02*
X179702295Y-83497952D01*
X187392295Y-93042190D02*
X187392295Y-93118380D01*
X187392295Y-93118380D02*
X187430390Y-93194571D01*
X187430390Y-93194571D02*
X187468485Y-93232666D01*
X187468485Y-93232666D02*
X187544676Y-93270761D01*
X187544676Y-93270761D02*
X187697057Y-93308856D01*
X187697057Y-93308856D02*
X187887533Y-93308856D01*
X187887533Y-93308856D02*
X188039914Y-93270761D01*
X188039914Y-93270761D02*
X188116104Y-93232666D01*
X188116104Y-93232666D02*
X188154200Y-93194571D01*
X188154200Y-93194571D02*
X188192295Y-93118380D01*
X188192295Y-93118380D02*
X188192295Y-93042190D01*
X188192295Y-93042190D02*
X188154200Y-92965999D01*
X188154200Y-92965999D02*
X188116104Y-92927904D01*
X188116104Y-92927904D02*
X188039914Y-92889809D01*
X188039914Y-92889809D02*
X187887533Y-92851713D01*
X187887533Y-92851713D02*
X187697057Y-92851713D01*
X187697057Y-92851713D02*
X187544676Y-92889809D01*
X187544676Y-92889809D02*
X187468485Y-92927904D01*
X187468485Y-92927904D02*
X187430390Y-92965999D01*
X187430390Y-92965999D02*
X187392295Y-93042190D01*
X187468485Y-93613618D02*
X187430390Y-93651714D01*
X187430390Y-93651714D02*
X187392295Y-93727904D01*
X187392295Y-93727904D02*
X187392295Y-93918380D01*
X187392295Y-93918380D02*
X187430390Y-93994571D01*
X187430390Y-93994571D02*
X187468485Y-94032666D01*
X187468485Y-94032666D02*
X187544676Y-94070761D01*
X187544676Y-94070761D02*
X187620866Y-94070761D01*
X187620866Y-94070761D02*
X187735152Y-94032666D01*
X187735152Y-94032666D02*
X188192295Y-93575523D01*
X188192295Y-93575523D02*
X188192295Y-94070761D01*
X187392295Y-94566000D02*
X187392295Y-94642190D01*
X187392295Y-94642190D02*
X187430390Y-94718381D01*
X187430390Y-94718381D02*
X187468485Y-94756476D01*
X187468485Y-94756476D02*
X187544676Y-94794571D01*
X187544676Y-94794571D02*
X187697057Y-94832666D01*
X187697057Y-94832666D02*
X187887533Y-94832666D01*
X187887533Y-94832666D02*
X188039914Y-94794571D01*
X188039914Y-94794571D02*
X188116104Y-94756476D01*
X188116104Y-94756476D02*
X188154200Y-94718381D01*
X188154200Y-94718381D02*
X188192295Y-94642190D01*
X188192295Y-94642190D02*
X188192295Y-94566000D01*
X188192295Y-94566000D02*
X188154200Y-94489809D01*
X188154200Y-94489809D02*
X188116104Y-94451714D01*
X188116104Y-94451714D02*
X188039914Y-94413619D01*
X188039914Y-94413619D02*
X187887533Y-94375523D01*
X187887533Y-94375523D02*
X187697057Y-94375523D01*
X187697057Y-94375523D02*
X187544676Y-94413619D01*
X187544676Y-94413619D02*
X187468485Y-94451714D01*
X187468485Y-94451714D02*
X187430390Y-94489809D01*
X187430390Y-94489809D02*
X187392295Y-94566000D01*
X189862295Y-81967809D02*
X189862295Y-82043999D01*
X189862295Y-82043999D02*
X189900390Y-82120190D01*
X189900390Y-82120190D02*
X189938485Y-82158285D01*
X189938485Y-82158285D02*
X190014676Y-82196380D01*
X190014676Y-82196380D02*
X190167057Y-82234475D01*
X190167057Y-82234475D02*
X190357533Y-82234475D01*
X190357533Y-82234475D02*
X190509914Y-82196380D01*
X190509914Y-82196380D02*
X190586104Y-82158285D01*
X190586104Y-82158285D02*
X190624200Y-82120190D01*
X190624200Y-82120190D02*
X190662295Y-82043999D01*
X190662295Y-82043999D02*
X190662295Y-81967809D01*
X190662295Y-81967809D02*
X190624200Y-81891618D01*
X190624200Y-81891618D02*
X190586104Y-81853523D01*
X190586104Y-81853523D02*
X190509914Y-81815428D01*
X190509914Y-81815428D02*
X190357533Y-81777332D01*
X190357533Y-81777332D02*
X190167057Y-81777332D01*
X190167057Y-81777332D02*
X190014676Y-81815428D01*
X190014676Y-81815428D02*
X189938485Y-81853523D01*
X189938485Y-81853523D02*
X189900390Y-81891618D01*
X189900390Y-81891618D02*
X189862295Y-81967809D01*
X189862295Y-82729714D02*
X189862295Y-82805904D01*
X189862295Y-82805904D02*
X189900390Y-82882095D01*
X189900390Y-82882095D02*
X189938485Y-82920190D01*
X189938485Y-82920190D02*
X190014676Y-82958285D01*
X190014676Y-82958285D02*
X190167057Y-82996380D01*
X190167057Y-82996380D02*
X190357533Y-82996380D01*
X190357533Y-82996380D02*
X190509914Y-82958285D01*
X190509914Y-82958285D02*
X190586104Y-82920190D01*
X190586104Y-82920190D02*
X190624200Y-82882095D01*
X190624200Y-82882095D02*
X190662295Y-82805904D01*
X190662295Y-82805904D02*
X190662295Y-82729714D01*
X190662295Y-82729714D02*
X190624200Y-82653523D01*
X190624200Y-82653523D02*
X190586104Y-82615428D01*
X190586104Y-82615428D02*
X190509914Y-82577333D01*
X190509914Y-82577333D02*
X190357533Y-82539237D01*
X190357533Y-82539237D02*
X190167057Y-82539237D01*
X190167057Y-82539237D02*
X190014676Y-82577333D01*
X190014676Y-82577333D02*
X189938485Y-82615428D01*
X189938485Y-82615428D02*
X189900390Y-82653523D01*
X189900390Y-82653523D02*
X189862295Y-82729714D01*
X189938485Y-83301142D02*
X189900390Y-83339238D01*
X189900390Y-83339238D02*
X189862295Y-83415428D01*
X189862295Y-83415428D02*
X189862295Y-83605904D01*
X189862295Y-83605904D02*
X189900390Y-83682095D01*
X189900390Y-83682095D02*
X189938485Y-83720190D01*
X189938485Y-83720190D02*
X190014676Y-83758285D01*
X190014676Y-83758285D02*
X190090866Y-83758285D01*
X190090866Y-83758285D02*
X190205152Y-83720190D01*
X190205152Y-83720190D02*
X190662295Y-83263047D01*
X190662295Y-83263047D02*
X190662295Y-83758285D01*
D11*
%TO.C,U1*%
X169890000Y-79415000D02*
X169890000Y-97195000D01*
X169890000Y-97195000D02*
X202910000Y-97195000D01*
X202910000Y-79415000D02*
X169890000Y-79415000D01*
X202910000Y-97195000D02*
X202910000Y-79415000D01*
%TD*%
M02*
