%TF.GenerationSoftware,KiCad,Pcbnew,9.0.0*%
%TF.CreationDate,2025-05-24T09:04:45-07:00*%
%TF.ProjectId,nnv2-smd,6e6e7632-2d73-46d6-942e-6b696361645f,rev?*%
%TF.SameCoordinates,Original*%
%TF.FileFunction,Legend,Top*%
%TF.FilePolarity,Positive*%
%FSLAX46Y46*%
G04 Gerber Fmt 4.6, Leading zero omitted, Abs format (unit mm)*
G04 Created by KiCad (PCBNEW 9.0.0) date 2025-05-24 09:04:45*
%MOMM*%
%LPD*%
G01*
G04 APERTURE LIST*
%ADD10C,0.100000*%
%ADD11C,0.150000*%
%ADD12C,0.300000*%
%ADD13C,0.381000*%
%ADD14C,0.120000*%
G04 APERTURE END LIST*
D10*
G36*
X214629134Y-97236639D02*
G01*
X214636217Y-97124776D01*
X214647857Y-97086331D01*
X214666992Y-97058953D01*
X214694566Y-97039888D01*
X214734281Y-97028178D01*
X214850662Y-97021217D01*
X215776099Y-97021217D01*
X215866286Y-97028060D01*
X215912142Y-97043565D01*
X215939755Y-97073416D01*
X215950000Y-97124776D01*
X215940034Y-97175920D01*
X215913607Y-97204521D01*
X215869144Y-97218947D01*
X215779152Y-97225404D01*
X214980844Y-97225404D01*
X214895354Y-97233839D01*
X214858967Y-97252027D01*
X214840777Y-97288400D01*
X214832344Y-97373782D01*
X214832344Y-97692763D01*
X214840777Y-97778144D01*
X214858967Y-97814518D01*
X214895339Y-97832618D01*
X214980844Y-97841018D01*
X215059246Y-97841018D01*
X215120521Y-97835849D01*
X215150226Y-97824288D01*
X215169711Y-97800580D01*
X215188084Y-97748695D01*
X215209641Y-97697323D01*
X215232903Y-97673224D01*
X215268156Y-97661698D01*
X215345010Y-97656371D01*
X215711863Y-97656371D01*
X215831053Y-97663332D01*
X215873829Y-97674389D01*
X215903838Y-97691297D01*
X215925935Y-97715756D01*
X215940230Y-97748695D01*
X215950000Y-97843827D01*
X215945327Y-97926797D01*
X215934612Y-97971200D01*
X215912568Y-98004291D01*
X215874284Y-98031284D01*
X215819574Y-98045327D01*
X215711618Y-98048136D01*
X214850662Y-98048136D01*
X214734281Y-98041175D01*
X214694564Y-98029371D01*
X214666992Y-98010279D01*
X214647851Y-97982916D01*
X214636217Y-97944577D01*
X214629134Y-97832592D01*
X214629134Y-97236639D01*
G37*
G36*
X214629134Y-95986116D02*
G01*
X214636217Y-95874253D01*
X214647857Y-95835808D01*
X214666992Y-95808429D01*
X214694566Y-95789365D01*
X214734281Y-95777655D01*
X214850662Y-95770694D01*
X215776099Y-95770694D01*
X215866286Y-95777536D01*
X215912142Y-95793042D01*
X215939755Y-95822893D01*
X215950000Y-95874253D01*
X215940034Y-95925397D01*
X215913607Y-95953998D01*
X215869144Y-95968423D01*
X215779152Y-95974881D01*
X214980844Y-95974881D01*
X214895354Y-95983316D01*
X214858967Y-96001503D01*
X214840777Y-96037877D01*
X214832344Y-96123258D01*
X214832344Y-96442240D01*
X214840777Y-96527621D01*
X214858967Y-96563995D01*
X214895339Y-96582095D01*
X214980844Y-96590495D01*
X215059246Y-96590495D01*
X215120521Y-96585326D01*
X215150226Y-96573764D01*
X215169711Y-96550057D01*
X215188084Y-96498171D01*
X215209641Y-96446800D01*
X215232903Y-96422700D01*
X215268156Y-96411174D01*
X215345010Y-96405847D01*
X215711863Y-96405847D01*
X215831053Y-96412808D01*
X215873829Y-96423865D01*
X215903838Y-96440774D01*
X215925935Y-96465232D01*
X215940230Y-96498171D01*
X215950000Y-96593304D01*
X215945327Y-96676273D01*
X215934612Y-96720676D01*
X215912568Y-96753768D01*
X215874284Y-96780760D01*
X215819574Y-96794804D01*
X215711618Y-96797613D01*
X214850662Y-96797613D01*
X214734281Y-96790652D01*
X214694564Y-96778847D01*
X214666992Y-96759755D01*
X214647851Y-96732393D01*
X214636217Y-96694054D01*
X214629134Y-96582069D01*
X214629134Y-95986116D01*
G37*
G36*
X215298482Y-94553754D02*
G01*
X215375228Y-94559079D01*
X215410467Y-94570607D01*
X215433729Y-94594706D01*
X215455286Y-94646078D01*
X215473614Y-94697685D01*
X215492899Y-94720205D01*
X215522215Y-94730813D01*
X215583147Y-94735593D01*
X215736043Y-94735593D01*
X215847173Y-94744019D01*
X215885304Y-94756779D01*
X215912508Y-94776259D01*
X215931448Y-94803515D01*
X215943039Y-94841960D01*
X215950000Y-94953824D01*
X215950000Y-95183290D01*
X215943039Y-95295275D01*
X215931432Y-95333625D01*
X215912386Y-95360976D01*
X215885048Y-95380450D01*
X215846685Y-95393217D01*
X215734944Y-95401521D01*
X215578628Y-95401521D01*
X215515061Y-95406392D01*
X215486427Y-95416908D01*
X215467635Y-95439212D01*
X215447348Y-95491036D01*
X215427854Y-95542214D01*
X215404117Y-95566629D01*
X215367647Y-95578121D01*
X215290910Y-95583360D01*
X214866538Y-95583360D01*
X214745027Y-95576399D01*
X214702591Y-95565280D01*
X214673831Y-95548433D01*
X214652743Y-95524302D01*
X214638904Y-95492501D01*
X214629134Y-95398712D01*
X214633810Y-95315758D01*
X214644521Y-95271461D01*
X214666103Y-95238648D01*
X214701919Y-95214064D01*
X214756629Y-95198677D01*
X214867271Y-95194525D01*
X215598290Y-95194525D01*
X215679567Y-95187113D01*
X215717358Y-95170711D01*
X215738050Y-95138895D01*
X215746789Y-95074113D01*
X215738306Y-95001351D01*
X215718824Y-94966524D01*
X215681849Y-94948159D01*
X215601099Y-94939902D01*
X215421824Y-94939902D01*
X215360427Y-94935123D01*
X215330844Y-94924515D01*
X215311447Y-94901964D01*
X215292986Y-94850265D01*
X215271145Y-94799064D01*
X215246824Y-94774794D01*
X215210646Y-94763180D01*
X215136182Y-94757941D01*
X214799982Y-94757941D01*
X214710105Y-94751053D01*
X214665526Y-94735593D01*
X214639051Y-94705913D01*
X214629134Y-94654504D01*
X214639110Y-94603279D01*
X214665526Y-94574759D01*
X214709999Y-94560248D01*
X214799982Y-94553754D01*
X215298482Y-94553754D01*
G37*
G36*
X214970341Y-92978998D02*
G01*
X215051314Y-92983093D01*
X215101133Y-92993042D01*
X215141832Y-93012081D01*
X215173551Y-93040547D01*
X215194206Y-93073992D01*
X215207013Y-93114797D01*
X215215317Y-93255969D01*
X215215317Y-93689745D01*
X215222400Y-93821270D01*
X215235745Y-93863903D01*
X215259403Y-93892588D01*
X215293852Y-93911008D01*
X215347452Y-93922020D01*
X215508042Y-93927515D01*
X215623203Y-93917745D01*
X215657772Y-93902637D01*
X215684263Y-93877201D01*
X215701360Y-93852044D01*
X215709909Y-93814309D01*
X215714183Y-93752759D01*
X215715526Y-93656161D01*
X215715526Y-93202847D01*
X215716992Y-93092449D01*
X215726639Y-93040547D01*
X215739999Y-93012641D01*
X215764375Y-92988890D01*
X215796156Y-92973337D01*
X215835572Y-92967885D01*
X215891994Y-92978570D01*
X215924965Y-93007086D01*
X215942379Y-93054516D01*
X215950000Y-93146915D01*
X215950000Y-94109476D01*
X215940230Y-94241001D01*
X215924862Y-94286892D01*
X215900907Y-94319281D01*
X215866931Y-94342019D01*
X215817986Y-94357138D01*
X215677547Y-94366908D01*
X215250488Y-94366908D01*
X215119940Y-94359947D01*
X215081263Y-94348899D01*
X215048255Y-94330516D01*
X215015048Y-94295941D01*
X214994888Y-94254923D01*
X214985024Y-94203797D01*
X214980844Y-94114972D01*
X214980844Y-93471514D01*
X214980844Y-93390303D01*
X214971196Y-93296636D01*
X214957039Y-93265110D01*
X214935048Y-93242048D01*
X214904624Y-93226752D01*
X214857135Y-93216891D01*
X214722313Y-93211273D01*
X214569417Y-93211273D01*
X214433251Y-93218234D01*
X214387502Y-93230463D01*
X214356803Y-93250474D01*
X214335885Y-93279947D01*
X214323464Y-93323258D01*
X214316503Y-93451852D01*
X214316503Y-93902358D01*
X214323464Y-94015687D01*
X214333997Y-94055936D01*
X214349720Y-94084319D01*
X214372098Y-94105525D01*
X214401011Y-94119246D01*
X214485397Y-94129016D01*
X214546214Y-94131824D01*
X214634925Y-94141378D01*
X214679204Y-94158447D01*
X214705107Y-94189892D01*
X214715108Y-94246496D01*
X214704062Y-94310123D01*
X214676151Y-94343094D01*
X214626908Y-94359390D01*
X214519836Y-94366908D01*
X214349720Y-94366908D01*
X214210380Y-94357138D01*
X214162312Y-94341334D01*
X214129535Y-94316472D01*
X214106947Y-94280973D01*
X214091800Y-94228422D01*
X214082030Y-94075893D01*
X214082030Y-93278440D01*
X214090457Y-93128719D01*
X214102888Y-93080468D01*
X214120987Y-93046165D01*
X214150296Y-93012704D01*
X214190596Y-92991699D01*
X214253244Y-92981807D01*
X214349354Y-92978998D01*
X214970341Y-92978998D01*
G37*
G36*
X215734577Y-91154626D02*
G01*
X215846563Y-91163053D01*
X215885045Y-91175426D01*
X215912264Y-91193827D01*
X215931265Y-91219982D01*
X215943039Y-91258185D01*
X215950000Y-91370048D01*
X215950000Y-91966001D01*
X215942916Y-92077986D01*
X215931155Y-92116422D01*
X215911898Y-92143810D01*
X215884398Y-92162871D01*
X215845708Y-92174584D01*
X215732745Y-92181545D01*
X215639689Y-92181545D01*
X215551908Y-92174656D01*
X215508531Y-92159197D01*
X215482778Y-92129911D01*
X215473237Y-92080795D01*
X215481115Y-92033559D01*
X215501448Y-92006667D01*
X215536696Y-91990991D01*
X215608548Y-91980045D01*
X215689338Y-91969754D01*
X215722854Y-91952079D01*
X215739288Y-91918525D01*
X215746789Y-91842903D01*
X215746789Y-91694647D01*
X215741172Y-91614902D01*
X215719923Y-91570083D01*
X215674616Y-91549200D01*
X215596702Y-91543583D01*
X215503279Y-91543583D01*
X215417016Y-91552090D01*
X215381524Y-91570205D01*
X215364124Y-91606344D01*
X215356001Y-91691838D01*
X215356001Y-91968810D01*
X215347697Y-92079330D01*
X215334820Y-92118741D01*
X215315579Y-92145153D01*
X215288491Y-92163486D01*
X215250122Y-92175928D01*
X215138747Y-92184354D01*
X214849197Y-92184354D01*
X214733670Y-92177393D01*
X214694186Y-92165595D01*
X214666748Y-92146496D01*
X214647702Y-92119145D01*
X214636095Y-92080795D01*
X214629134Y-91968810D01*
X214629134Y-91367240D01*
X214636217Y-91255376D01*
X214647863Y-91216953D01*
X214666992Y-91189675D01*
X214694464Y-91170616D01*
X214734159Y-91158900D01*
X214850296Y-91151817D01*
X214909036Y-91151817D01*
X214975600Y-91158815D01*
X215012595Y-91175631D01*
X215034892Y-91205451D01*
X215043370Y-91255376D01*
X215036410Y-91300881D01*
X215018091Y-91329504D01*
X214987259Y-91348265D01*
X214933583Y-91361622D01*
X214876513Y-91373753D01*
X214850662Y-91392519D01*
X214838206Y-91425451D01*
X214832344Y-91501573D01*
X214832344Y-91831789D01*
X214838084Y-91908726D01*
X214859333Y-91953422D01*
X214877477Y-91965617D01*
X214904640Y-91973084D01*
X214982676Y-91977236D01*
X215005268Y-91977236D01*
X215083304Y-91971618D01*
X215128733Y-91950614D01*
X215141039Y-91932623D01*
X215148517Y-91905917D01*
X215152791Y-91828981D01*
X215152791Y-91370048D01*
X215161217Y-91256720D01*
X215174031Y-91217344D01*
X215193335Y-91191018D01*
X215220769Y-91172988D01*
X215260502Y-91161587D01*
X215376517Y-91154626D01*
X215734577Y-91154626D01*
G37*
G36*
X214629134Y-89674392D02*
G01*
X214636217Y-89562529D01*
X214647857Y-89524084D01*
X214666992Y-89496706D01*
X214694566Y-89477641D01*
X214734281Y-89465931D01*
X214850662Y-89458970D01*
X215776099Y-89458970D01*
X215866286Y-89465813D01*
X215912142Y-89481318D01*
X215939761Y-89511153D01*
X215950000Y-89562407D01*
X215940028Y-89613657D01*
X215913607Y-89642274D01*
X215869144Y-89656700D01*
X215779152Y-89663157D01*
X214980844Y-89663157D01*
X214895354Y-89671592D01*
X214858967Y-89689780D01*
X214840777Y-89726153D01*
X214832344Y-89811535D01*
X214832344Y-89942937D01*
X214840779Y-90028427D01*
X214858967Y-90064815D01*
X214895339Y-90082915D01*
X214980844Y-90091315D01*
X215059246Y-90091315D01*
X215120521Y-90086145D01*
X215150226Y-90074584D01*
X215169711Y-90050877D01*
X215188084Y-89998991D01*
X215209641Y-89947620D01*
X215232903Y-89923520D01*
X215268156Y-89911994D01*
X215345010Y-89906667D01*
X215711863Y-89906667D01*
X215831053Y-89913628D01*
X215873829Y-89924685D01*
X215903838Y-89941594D01*
X215926016Y-89965850D01*
X215940230Y-89997648D01*
X215950000Y-90091315D01*
X215945327Y-90174284D01*
X215934612Y-90218688D01*
X215912575Y-90251194D01*
X215874406Y-90275963D01*
X215819818Y-90291350D01*
X215711863Y-90295502D01*
X214980844Y-90295502D01*
X214895192Y-90303552D01*
X214858967Y-90320781D01*
X214840837Y-90355931D01*
X214832344Y-90441071D01*
X214832344Y-90572595D01*
X214840777Y-90657977D01*
X214858967Y-90694351D01*
X214895339Y-90712451D01*
X214980844Y-90720851D01*
X215059246Y-90720851D01*
X215120521Y-90715681D01*
X215150226Y-90704120D01*
X215169711Y-90680413D01*
X215188084Y-90628527D01*
X215209641Y-90577156D01*
X215232903Y-90553056D01*
X215268156Y-90541530D01*
X215345010Y-90536203D01*
X215711863Y-90536203D01*
X215831053Y-90543164D01*
X215873829Y-90554221D01*
X215903838Y-90571130D01*
X215925935Y-90595588D01*
X215940230Y-90628527D01*
X215950000Y-90723660D01*
X215945327Y-90806629D01*
X215934612Y-90851032D01*
X215912568Y-90884124D01*
X215874284Y-90911116D01*
X215819574Y-90925160D01*
X215711618Y-90927969D01*
X214850662Y-90927969D01*
X214734281Y-90921008D01*
X214694564Y-90909203D01*
X214666992Y-90890111D01*
X214647851Y-90862749D01*
X214636217Y-90824410D01*
X214629134Y-90712424D01*
X214629134Y-89674392D01*
G37*
G36*
X215840701Y-88217362D02*
G01*
X215879168Y-88230040D01*
X215906524Y-88249480D01*
X215926397Y-88276604D01*
X215940230Y-88313838D01*
X215950000Y-88418740D01*
X215950000Y-89020310D01*
X215943039Y-89130830D01*
X215931178Y-89170208D01*
X215912142Y-89196653D01*
X215884920Y-89214981D01*
X215846318Y-89227428D01*
X215734089Y-89235854D01*
X214847854Y-89235854D01*
X214734281Y-89228893D01*
X214694564Y-89217089D01*
X214666992Y-89197997D01*
X214647851Y-89170635D01*
X214636217Y-89132295D01*
X214629134Y-89020310D01*
X214629134Y-88558691D01*
X214832344Y-88558691D01*
X214832344Y-88883290D01*
X214840777Y-88968671D01*
X214858967Y-89005045D01*
X214895353Y-89023142D01*
X214980966Y-89031545D01*
X215059612Y-89031545D01*
X215120996Y-89026374D01*
X215150715Y-89014815D01*
X215170200Y-88991107D01*
X215188572Y-88939221D01*
X215210155Y-88887866D01*
X215233513Y-88863750D01*
X215268766Y-88852224D01*
X215345621Y-88846898D01*
X215598168Y-88846898D01*
X215678035Y-88842745D01*
X215704752Y-88834993D01*
X215722976Y-88821741D01*
X215742637Y-88775579D01*
X215746789Y-88695833D01*
X215746789Y-88561500D01*
X215741172Y-88484563D01*
X215720167Y-88438401D01*
X215701951Y-88424750D01*
X215675226Y-88415931D01*
X215598168Y-88410314D01*
X214980966Y-88410314D01*
X214895368Y-88418751D01*
X214858967Y-88436936D01*
X214840777Y-88473310D01*
X214832344Y-88558691D01*
X214629134Y-88558691D01*
X214629134Y-88541838D01*
X214621028Y-88471622D01*
X214602512Y-88438401D01*
X214568523Y-88420744D01*
X214500174Y-88413122D01*
X214245184Y-88413122D01*
X214155307Y-88406234D01*
X214110729Y-88390774D01*
X214084028Y-88361460D01*
X214074214Y-88312494D01*
X214084344Y-88258845D01*
X214110729Y-88229940D01*
X214155215Y-88215431D01*
X214245307Y-88208935D01*
X215734089Y-88208935D01*
X215840701Y-88217362D01*
G37*
G36*
X213068205Y-96390136D02*
G01*
X213116788Y-96392593D01*
X213146680Y-96398562D01*
X213171099Y-96409985D01*
X213190131Y-96427065D01*
X213202523Y-96447132D01*
X213210207Y-96471615D01*
X213215190Y-96556318D01*
X213215190Y-96816584D01*
X213219440Y-96895498D01*
X213227447Y-96921079D01*
X213241642Y-96938290D01*
X213262311Y-96949342D01*
X213294471Y-96955949D01*
X213390825Y-96959246D01*
X213459921Y-96953384D01*
X213480663Y-96944319D01*
X213496558Y-96929057D01*
X213506816Y-96913963D01*
X213511945Y-96891322D01*
X213514510Y-96854392D01*
X213515316Y-96796434D01*
X213515316Y-96524445D01*
X213516195Y-96458206D01*
X213521983Y-96427065D01*
X213529999Y-96410322D01*
X213544625Y-96396071D01*
X213563693Y-96386739D01*
X213587343Y-96383468D01*
X213621196Y-96389879D01*
X213640979Y-96406988D01*
X213651427Y-96435447D01*
X213656000Y-96490886D01*
X213656000Y-97068422D01*
X213650138Y-97147337D01*
X213640917Y-97174872D01*
X213626544Y-97194305D01*
X213606158Y-97207948D01*
X213576792Y-97217020D01*
X213492528Y-97222882D01*
X213236293Y-97222882D01*
X213157964Y-97218705D01*
X213134758Y-97212076D01*
X213114953Y-97201046D01*
X213095029Y-97180301D01*
X213082933Y-97155690D01*
X213077014Y-97125015D01*
X213074506Y-97071720D01*
X213074506Y-96685645D01*
X213074506Y-96636919D01*
X213068718Y-96580718D01*
X213060223Y-96561803D01*
X213047029Y-96547965D01*
X213028774Y-96538788D01*
X213000281Y-96532871D01*
X212919387Y-96529501D01*
X212827650Y-96529501D01*
X212745951Y-96533677D01*
X212718501Y-96541015D01*
X212700082Y-96553021D01*
X212687531Y-96570705D01*
X212680078Y-96596692D01*
X212675902Y-96673848D01*
X212675902Y-96944152D01*
X212680078Y-97012149D01*
X212686398Y-97036298D01*
X212695832Y-97053328D01*
X212709259Y-97066051D01*
X212726607Y-97074284D01*
X212777238Y-97080146D01*
X212813728Y-97081831D01*
X212866955Y-97087564D01*
X212893522Y-97097805D01*
X212909064Y-97116672D01*
X212915064Y-97150635D01*
X212908437Y-97188811D01*
X212891690Y-97208593D01*
X212862145Y-97218370D01*
X212797901Y-97222882D01*
X212695832Y-97222882D01*
X212612228Y-97217020D01*
X212583387Y-97207537D01*
X212563721Y-97192620D01*
X212550168Y-97171320D01*
X212541080Y-97139790D01*
X212535218Y-97048272D01*
X212535218Y-96569801D01*
X212540274Y-96479968D01*
X212547732Y-96451018D01*
X212558592Y-96430436D01*
X212576177Y-96410359D01*
X212600357Y-96397756D01*
X212637946Y-96391821D01*
X212695612Y-96390136D01*
X213068205Y-96390136D01*
G37*
G36*
X213581261Y-95388203D02*
G01*
X213608099Y-95397326D01*
X213627423Y-95411723D01*
X213641105Y-95431862D01*
X213650138Y-95460376D01*
X213656000Y-95541782D01*
X213656000Y-96080704D01*
X213650138Y-96168046D01*
X213640433Y-96198501D01*
X213624932Y-96219263D01*
X213602928Y-96233517D01*
X213572029Y-96242711D01*
X213482929Y-96248572D01*
X212699862Y-96248572D01*
X212611715Y-96242711D01*
X212586190Y-96233862D01*
X212567165Y-96220069D01*
X212551771Y-96199423D01*
X212541959Y-96173101D01*
X212537236Y-96140334D01*
X212535218Y-96082390D01*
X212535218Y-95652571D01*
X212675902Y-95652571D01*
X212675902Y-95961489D01*
X212680152Y-96042896D01*
X212687712Y-96069427D01*
X212700302Y-96086566D01*
X212718904Y-96097679D01*
X212747416Y-96104225D01*
X212834025Y-96107595D01*
X213348766Y-96107595D01*
X213439625Y-96104225D01*
X213470791Y-96098464D01*
X213490110Y-96089937D01*
X213503511Y-96076266D01*
X213511139Y-96055498D01*
X213515316Y-95991751D01*
X213515316Y-95815457D01*
X213511945Y-95720642D01*
X213505488Y-95689142D01*
X213495166Y-95670230D01*
X213478901Y-95657598D01*
X213453913Y-95650080D01*
X213377343Y-95645903D01*
X213148585Y-95645903D01*
X213091432Y-95644218D01*
X213040068Y-95642533D01*
X213008121Y-95634180D01*
X212987092Y-95614836D01*
X212970312Y-95580397D01*
X212953024Y-95548111D01*
X212937486Y-95533429D01*
X212915967Y-95526438D01*
X212872713Y-95523318D01*
X212803763Y-95521632D01*
X212739869Y-95526688D01*
X212716724Y-95534356D01*
X212700302Y-95546032D01*
X212688665Y-95562492D01*
X212680958Y-95586259D01*
X212675902Y-95652571D01*
X212535218Y-95652571D01*
X212535218Y-95545153D01*
X212541153Y-95461256D01*
X212550368Y-95432060D01*
X212564674Y-95411723D01*
X212585117Y-95397456D01*
X212615012Y-95388203D01*
X212699862Y-95382341D01*
X213504764Y-95382341D01*
X213581261Y-95388203D01*
G37*
G36*
X213068205Y-94402976D02*
G01*
X213116788Y-94405433D01*
X213146680Y-94411402D01*
X213171099Y-94422825D01*
X213190131Y-94439905D01*
X213202523Y-94459972D01*
X213210207Y-94484455D01*
X213215190Y-94569159D01*
X213215190Y-94829424D01*
X213219440Y-94908339D01*
X213227447Y-94933919D01*
X213241642Y-94951130D01*
X213262311Y-94962182D01*
X213294471Y-94968789D01*
X213390825Y-94972086D01*
X213459921Y-94966224D01*
X213480663Y-94957159D01*
X213496558Y-94941898D01*
X213506816Y-94926803D01*
X213511945Y-94904162D01*
X213514510Y-94867233D01*
X213515316Y-94809274D01*
X213515316Y-94537285D01*
X213516195Y-94471046D01*
X213521983Y-94439905D01*
X213529999Y-94423162D01*
X213544625Y-94408911D01*
X213563693Y-94399579D01*
X213587343Y-94396308D01*
X213621196Y-94402719D01*
X213640979Y-94419829D01*
X213651427Y-94448287D01*
X213656000Y-94503726D01*
X213656000Y-95081263D01*
X213650138Y-95160177D01*
X213640917Y-95187712D01*
X213626544Y-95207145D01*
X213606158Y-95220788D01*
X213576792Y-95229860D01*
X213492528Y-95235722D01*
X213236293Y-95235722D01*
X213157964Y-95231545D01*
X213134758Y-95224916D01*
X213114953Y-95213886D01*
X213095029Y-95193142D01*
X213082933Y-95168531D01*
X213077014Y-95137855D01*
X213074506Y-95084560D01*
X213074506Y-94698485D01*
X213074506Y-94649759D01*
X213068718Y-94593558D01*
X213060223Y-94574643D01*
X213047029Y-94560806D01*
X213028774Y-94551628D01*
X213000281Y-94545711D01*
X212919387Y-94542341D01*
X212827650Y-94542341D01*
X212745951Y-94546517D01*
X212718501Y-94553855D01*
X212700082Y-94565861D01*
X212687531Y-94583545D01*
X212680078Y-94609532D01*
X212675902Y-94686688D01*
X212675902Y-94956992D01*
X212680078Y-95024989D01*
X212686398Y-95049138D01*
X212695832Y-95066168D01*
X212709259Y-95078892D01*
X212726607Y-95087124D01*
X212777238Y-95092986D01*
X212813728Y-95094672D01*
X212866955Y-95100404D01*
X212893522Y-95110645D01*
X212909064Y-95129512D01*
X212915064Y-95163475D01*
X212908437Y-95201651D01*
X212891690Y-95221434D01*
X212862145Y-95231211D01*
X212797901Y-95235722D01*
X212695832Y-95235722D01*
X212612228Y-95229860D01*
X212583387Y-95220377D01*
X212563721Y-95205460D01*
X212550168Y-95184161D01*
X212541080Y-95152630D01*
X212535218Y-95061113D01*
X212535218Y-94582641D01*
X212540274Y-94492808D01*
X212547732Y-94463858D01*
X212558592Y-94443276D01*
X212576177Y-94423199D01*
X212600357Y-94410596D01*
X212637946Y-94404661D01*
X212695612Y-94402976D01*
X213068205Y-94402976D01*
G37*
G36*
X213476774Y-93440464D02*
G01*
X213570563Y-93446399D01*
X213602846Y-93455687D01*
X213625005Y-93469919D01*
X213640572Y-93490393D01*
X213650138Y-93519378D01*
X213656000Y-93605034D01*
X213656000Y-94100286D01*
X213650138Y-94190118D01*
X213640882Y-94221578D01*
X213626764Y-94242948D01*
X213606374Y-94257905D01*
X213577378Y-94267348D01*
X213492015Y-94273210D01*
X213396614Y-94273210D01*
X213331401Y-94270718D01*
X213301286Y-94258042D01*
X213282587Y-94234448D01*
X213276153Y-94202648D01*
X213282139Y-94168392D01*
X213297915Y-94148133D01*
X213324166Y-94136924D01*
X213373166Y-94132159D01*
X213447612Y-94127983D01*
X213473018Y-94121275D01*
X213490256Y-94111203D01*
X213502522Y-94096342D01*
X213510333Y-94075080D01*
X213515316Y-94012944D01*
X213515316Y-93846762D01*
X213511139Y-93771217D01*
X213504052Y-93745077D01*
X213492748Y-93727547D01*
X213476041Y-93715513D01*
X213451715Y-93708276D01*
X213381300Y-93704026D01*
X213260766Y-93704026D01*
X213182071Y-93708276D01*
X213156236Y-93715937D01*
X213138473Y-93729232D01*
X213126825Y-93748897D01*
X213120082Y-93779644D01*
X213116711Y-93870282D01*
X213116711Y-94106953D01*
X213110849Y-94192609D01*
X213101803Y-94221965D01*
X213088062Y-94242948D01*
X213068365Y-94257905D01*
X213040068Y-94267348D01*
X212958295Y-94273210D01*
X212671725Y-94273210D01*
X212605193Y-94266468D01*
X212581243Y-94256820D01*
X212563062Y-94242142D01*
X212549919Y-94222123D01*
X212541153Y-94194295D01*
X212535218Y-94118750D01*
X212535218Y-93611702D01*
X212540083Y-93548694D01*
X212550972Y-93517693D01*
X212571560Y-93499304D01*
X212606366Y-93492487D01*
X212640141Y-93498474D01*
X212660221Y-93514323D01*
X212671184Y-93540880D01*
X212675902Y-93591552D01*
X212675902Y-93996165D01*
X212681031Y-94071709D01*
X212688429Y-94096055D01*
X212698103Y-94110324D01*
X212714700Y-94119846D01*
X212744998Y-94127983D01*
X212836223Y-94133845D01*
X212909569Y-94128789D01*
X212934316Y-94120678D01*
X212951334Y-94107833D01*
X212963065Y-94089573D01*
X212970898Y-94063356D01*
X212976027Y-93986127D01*
X212976027Y-93613387D01*
X212981889Y-93524434D01*
X212991087Y-93493548D01*
X213005337Y-93471605D01*
X213025695Y-93455935D01*
X213053916Y-93446399D01*
X213136788Y-93440464D01*
X213476774Y-93440464D01*
G37*
G36*
X213581261Y-92444392D02*
G01*
X213608099Y-92453515D01*
X213627423Y-92467913D01*
X213641105Y-92488051D01*
X213650138Y-92516566D01*
X213656000Y-92597972D01*
X213656000Y-93136894D01*
X213650138Y-93224235D01*
X213640433Y-93254691D01*
X213624932Y-93275453D01*
X213602928Y-93289706D01*
X213572029Y-93298900D01*
X213482929Y-93304762D01*
X212699862Y-93304762D01*
X212611715Y-93298900D01*
X212586190Y-93290052D01*
X212567165Y-93276259D01*
X212551771Y-93255613D01*
X212541959Y-93229291D01*
X212537236Y-93196524D01*
X212535218Y-93138579D01*
X212535218Y-92708761D01*
X212675902Y-92708761D01*
X212675902Y-93017679D01*
X212680152Y-93099085D01*
X212687712Y-93125617D01*
X212700302Y-93142756D01*
X212718904Y-93153869D01*
X212747416Y-93160415D01*
X212834025Y-93163785D01*
X213348766Y-93163785D01*
X213439625Y-93160415D01*
X213470791Y-93154653D01*
X213490110Y-93146127D01*
X213503511Y-93132456D01*
X213511139Y-93111688D01*
X213515316Y-93047941D01*
X213515316Y-92871646D01*
X213511945Y-92776831D01*
X213505488Y-92745332D01*
X213495166Y-92726420D01*
X213478901Y-92713788D01*
X213453913Y-92706270D01*
X213377343Y-92702093D01*
X213148585Y-92702093D01*
X213091432Y-92700408D01*
X213040068Y-92698722D01*
X213008121Y-92690369D01*
X212987092Y-92671025D01*
X212970312Y-92636587D01*
X212953024Y-92604300D01*
X212937486Y-92589619D01*
X212915967Y-92582628D01*
X212872713Y-92579508D01*
X212803763Y-92577822D01*
X212739869Y-92582878D01*
X212716724Y-92590545D01*
X212700302Y-92602222D01*
X212688665Y-92618682D01*
X212680958Y-92642449D01*
X212675902Y-92708761D01*
X212535218Y-92708761D01*
X212535218Y-92601343D01*
X212541153Y-92517445D01*
X212550368Y-92488250D01*
X212564674Y-92467913D01*
X212585117Y-92453646D01*
X212615012Y-92444392D01*
X212699862Y-92438531D01*
X213504764Y-92438531D01*
X213581261Y-92444392D01*
G37*
G36*
X213476774Y-91459166D02*
G01*
X213570563Y-91465101D01*
X213602846Y-91474389D01*
X213625005Y-91488621D01*
X213640572Y-91509095D01*
X213650138Y-91538080D01*
X213656000Y-91623736D01*
X213656000Y-92118988D01*
X213650138Y-92208820D01*
X213640882Y-92240280D01*
X213626764Y-92261650D01*
X213606374Y-92276607D01*
X213577378Y-92286050D01*
X213492015Y-92291912D01*
X213396614Y-92291912D01*
X213331401Y-92289420D01*
X213301286Y-92276744D01*
X213282587Y-92253150D01*
X213276153Y-92221350D01*
X213282139Y-92187094D01*
X213297915Y-92166835D01*
X213324166Y-92155626D01*
X213373166Y-92150861D01*
X213447612Y-92146685D01*
X213473018Y-92139977D01*
X213490256Y-92129905D01*
X213502522Y-92115044D01*
X213510333Y-92093782D01*
X213515316Y-92031646D01*
X213515316Y-91865464D01*
X213511139Y-91789919D01*
X213504052Y-91763779D01*
X213492748Y-91746249D01*
X213476041Y-91734215D01*
X213451715Y-91726978D01*
X213381300Y-91722728D01*
X213260766Y-91722728D01*
X213182071Y-91726978D01*
X213156236Y-91734639D01*
X213138473Y-91747934D01*
X213126825Y-91767599D01*
X213120082Y-91798346D01*
X213116711Y-91888984D01*
X213116711Y-92125655D01*
X213110849Y-92211311D01*
X213101803Y-92240667D01*
X213088062Y-92261650D01*
X213068365Y-92276608D01*
X213040068Y-92286050D01*
X212958295Y-92291912D01*
X212671725Y-92291912D01*
X212605193Y-92285170D01*
X212581243Y-92275522D01*
X212563062Y-92260844D01*
X212549919Y-92240825D01*
X212541153Y-92212997D01*
X212535218Y-92137452D01*
X212535218Y-91630404D01*
X212540083Y-91567396D01*
X212550972Y-91536395D01*
X212571560Y-91518006D01*
X212606366Y-91511189D01*
X212640141Y-91517176D01*
X212660221Y-91533025D01*
X212671184Y-91559582D01*
X212675902Y-91610254D01*
X212675902Y-92014867D01*
X212681031Y-92090411D01*
X212688429Y-92114757D01*
X212698103Y-92129026D01*
X212714700Y-92138548D01*
X212744998Y-92146685D01*
X212836223Y-92152547D01*
X212909569Y-92147491D01*
X212934316Y-92139380D01*
X212951334Y-92126535D01*
X212963065Y-92108275D01*
X212970898Y-92082058D01*
X212976027Y-92004829D01*
X212976027Y-91632090D01*
X212981889Y-91543136D01*
X212991087Y-91512250D01*
X213005337Y-91490307D01*
X213025695Y-91474637D01*
X213053916Y-91465101D01*
X213136788Y-91459166D01*
X213476774Y-91459166D01*
G37*
G36*
X213068205Y-90502515D02*
G01*
X213116788Y-90504972D01*
X213146680Y-90510942D01*
X213171099Y-90522365D01*
X213190131Y-90539445D01*
X213202523Y-90559512D01*
X213210207Y-90583995D01*
X213215190Y-90668698D01*
X213215190Y-90928963D01*
X213219440Y-91007878D01*
X213227447Y-91033458D01*
X213241642Y-91050669D01*
X213262311Y-91061721D01*
X213294471Y-91068328D01*
X213390825Y-91071625D01*
X213459921Y-91065764D01*
X213480663Y-91056699D01*
X213496558Y-91041437D01*
X213506816Y-91026343D01*
X213511945Y-91003702D01*
X213514510Y-90966772D01*
X213515316Y-90908813D01*
X213515316Y-90636824D01*
X213516195Y-90570586D01*
X213521983Y-90539445D01*
X213529999Y-90522701D01*
X213544625Y-90508450D01*
X213563693Y-90499119D01*
X213587343Y-90495847D01*
X213621196Y-90502259D01*
X213640979Y-90519368D01*
X213651427Y-90547826D01*
X213656000Y-90603265D01*
X213656000Y-91180802D01*
X213650138Y-91259717D01*
X213640917Y-91287251D01*
X213626544Y-91306685D01*
X213606158Y-91320328D01*
X213576792Y-91329399D01*
X213492528Y-91335261D01*
X213236293Y-91335261D01*
X213157964Y-91331085D01*
X213134758Y-91324456D01*
X213114953Y-91313426D01*
X213095029Y-91292681D01*
X213082933Y-91268070D01*
X213077014Y-91237395D01*
X213074506Y-91184099D01*
X213074506Y-90798025D01*
X213074506Y-90749298D01*
X213068718Y-90693098D01*
X213060223Y-90674182D01*
X213047029Y-90660345D01*
X213028774Y-90651168D01*
X213000281Y-90645251D01*
X212919387Y-90641880D01*
X212827650Y-90641880D01*
X212745951Y-90646057D01*
X212718501Y-90653394D01*
X212700082Y-90665401D01*
X212687531Y-90683084D01*
X212680078Y-90709071D01*
X212675902Y-90786228D01*
X212675902Y-91056531D01*
X212680078Y-91124528D01*
X212686398Y-91148678D01*
X212695832Y-91165708D01*
X212709259Y-91178431D01*
X212726607Y-91186664D01*
X212777238Y-91192526D01*
X212813728Y-91194211D01*
X212866955Y-91199943D01*
X212893522Y-91210184D01*
X212909064Y-91229052D01*
X212915064Y-91263014D01*
X212908437Y-91301190D01*
X212891690Y-91320973D01*
X212862145Y-91330750D01*
X212797901Y-91335261D01*
X212695832Y-91335261D01*
X212612228Y-91329399D01*
X212583387Y-91319917D01*
X212563721Y-91305000D01*
X212550168Y-91283700D01*
X212541080Y-91252170D01*
X212535218Y-91160652D01*
X212535218Y-90682180D01*
X212540274Y-90592348D01*
X212547732Y-90563397D01*
X212558592Y-90542815D01*
X212576177Y-90522739D01*
X212600357Y-90510136D01*
X212637946Y-90504200D01*
X212695612Y-90502515D01*
X213068205Y-90502515D01*
G37*
G36*
X213494653Y-89550115D02*
G01*
X213580382Y-89555976D01*
X213603878Y-89564975D01*
X213624053Y-89580303D01*
X213640026Y-89602138D01*
X213650138Y-89629836D01*
X213655193Y-89669330D01*
X213656000Y-89728021D01*
X213656000Y-90201437D01*
X213650064Y-90295519D01*
X213640925Y-90328079D01*
X213627203Y-90350914D01*
X213607277Y-90367369D01*
X213578916Y-90377805D01*
X213496778Y-90384473D01*
X213384963Y-90384473D01*
X213327458Y-90379429D01*
X213296889Y-90367693D01*
X213278316Y-90346117D01*
X213271464Y-90310614D01*
X213275787Y-90277861D01*
X213282071Y-90266672D01*
X213292933Y-90257711D01*
X213327297Y-90246793D01*
X213383058Y-90241737D01*
X213454353Y-90235875D01*
X213478624Y-90229001D01*
X213494726Y-90218290D01*
X213505476Y-90202365D01*
X213511872Y-90177990D01*
X213515316Y-90105816D01*
X213515316Y-89974804D01*
X213511066Y-89887536D01*
X213503770Y-89858387D01*
X213492381Y-89839689D01*
X213475013Y-89827106D01*
X213448124Y-89819539D01*
X213367304Y-89815362D01*
X213282161Y-89815362D01*
X213226034Y-89817048D01*
X213165658Y-89822103D01*
X213144987Y-89829894D01*
X213130780Y-89842254D01*
X213121356Y-89859467D01*
X213115466Y-89885045D01*
X213112022Y-89959710D01*
X213112022Y-90144357D01*
X213107385Y-90207380D01*
X213097147Y-90237561D01*
X213077241Y-90255238D01*
X213042486Y-90261887D01*
X213006248Y-90255363D01*
X212986286Y-90238440D01*
X212975944Y-90209535D01*
X212971338Y-90151099D01*
X212971338Y-89959710D01*
X212968041Y-89879989D01*
X212961322Y-89853370D01*
X212949649Y-89836318D01*
X212932089Y-89825183D01*
X212905466Y-89818733D01*
X212824426Y-89815362D01*
X212745218Y-89819539D01*
X212718388Y-89826638D01*
X212700155Y-89838004D01*
X212687541Y-89854913D01*
X212680078Y-89879989D01*
X212675902Y-89954654D01*
X212675902Y-90120910D01*
X212681871Y-90184823D01*
X212695173Y-90214919D01*
X212721187Y-90231682D01*
X212776286Y-90240052D01*
X212818051Y-90241737D01*
X212869883Y-90248854D01*
X212894988Y-90259396D01*
X212909407Y-90278158D01*
X212915064Y-90312299D01*
X212909095Y-90346709D01*
X212893229Y-90367693D01*
X212867321Y-90379610D01*
X212822594Y-90384473D01*
X212701621Y-90384473D01*
X212616771Y-90379417D01*
X212592417Y-90371345D01*
X212572221Y-90357581D01*
X212553851Y-90336949D01*
X212542765Y-90312299D01*
X212537451Y-90281844D01*
X212535218Y-90230013D01*
X212535218Y-89832142D01*
X212537710Y-89775578D01*
X212543644Y-89742309D01*
X212555566Y-89715777D01*
X212573833Y-89696147D01*
X212594056Y-89684424D01*
X212619262Y-89676877D01*
X212657071Y-89673506D01*
X212715030Y-89672627D01*
X212830947Y-89672627D01*
X212894841Y-89670942D01*
X212931844Y-89662588D01*
X212953679Y-89642438D01*
X212972071Y-89605509D01*
X212988117Y-89576127D01*
X213009073Y-89559347D01*
X213046076Y-89551800D01*
X213108212Y-89550115D01*
X213494653Y-89550115D01*
G37*
D11*
X191842295Y-82991142D02*
X191842295Y-83448285D01*
X191842295Y-83219713D02*
X191042295Y-83219713D01*
X191042295Y-83219713D02*
X191156580Y-83295904D01*
X191156580Y-83295904D02*
X191232771Y-83372094D01*
X191232771Y-83372094D02*
X191270866Y-83448285D01*
X191842295Y-82229237D02*
X191842295Y-82686380D01*
X191842295Y-82457808D02*
X191042295Y-82457808D01*
X191042295Y-82457808D02*
X191156580Y-82533999D01*
X191156580Y-82533999D02*
X191232771Y-82610189D01*
X191232771Y-82610189D02*
X191270866Y-82686380D01*
X191042295Y-81505427D02*
X191042295Y-81886379D01*
X191042295Y-81886379D02*
X191423247Y-81924475D01*
X191423247Y-81924475D02*
X191385152Y-81886379D01*
X191385152Y-81886379D02*
X191347057Y-81810189D01*
X191347057Y-81810189D02*
X191347057Y-81619713D01*
X191347057Y-81619713D02*
X191385152Y-81543522D01*
X191385152Y-81543522D02*
X191423247Y-81505427D01*
X191423247Y-81505427D02*
X191499438Y-81467332D01*
X191499438Y-81467332D02*
X191689914Y-81467332D01*
X191689914Y-81467332D02*
X191766104Y-81505427D01*
X191766104Y-81505427D02*
X191804200Y-81543522D01*
X191804200Y-81543522D02*
X191842295Y-81619713D01*
X191842295Y-81619713D02*
X191842295Y-81810189D01*
X191842295Y-81810189D02*
X191804200Y-81886379D01*
X191804200Y-81886379D02*
X191766104Y-81924475D01*
X188532295Y-94332189D02*
X188532295Y-94255999D01*
X188532295Y-94255999D02*
X188570390Y-94179808D01*
X188570390Y-94179808D02*
X188608485Y-94141713D01*
X188608485Y-94141713D02*
X188684676Y-94103618D01*
X188684676Y-94103618D02*
X188837057Y-94065523D01*
X188837057Y-94065523D02*
X189027533Y-94065523D01*
X189027533Y-94065523D02*
X189179914Y-94103618D01*
X189179914Y-94103618D02*
X189256104Y-94141713D01*
X189256104Y-94141713D02*
X189294200Y-94179808D01*
X189294200Y-94179808D02*
X189332295Y-94255999D01*
X189332295Y-94255999D02*
X189332295Y-94332189D01*
X189332295Y-94332189D02*
X189294200Y-94408380D01*
X189294200Y-94408380D02*
X189256104Y-94446475D01*
X189256104Y-94446475D02*
X189179914Y-94484570D01*
X189179914Y-94484570D02*
X189027533Y-94522666D01*
X189027533Y-94522666D02*
X188837057Y-94522666D01*
X188837057Y-94522666D02*
X188684676Y-94484570D01*
X188684676Y-94484570D02*
X188608485Y-94446475D01*
X188608485Y-94446475D02*
X188570390Y-94408380D01*
X188570390Y-94408380D02*
X188532295Y-94332189D01*
X188608485Y-93760761D02*
X188570390Y-93722665D01*
X188570390Y-93722665D02*
X188532295Y-93646475D01*
X188532295Y-93646475D02*
X188532295Y-93455999D01*
X188532295Y-93455999D02*
X188570390Y-93379808D01*
X188570390Y-93379808D02*
X188608485Y-93341713D01*
X188608485Y-93341713D02*
X188684676Y-93303618D01*
X188684676Y-93303618D02*
X188760866Y-93303618D01*
X188760866Y-93303618D02*
X188875152Y-93341713D01*
X188875152Y-93341713D02*
X189332295Y-93798856D01*
X189332295Y-93798856D02*
X189332295Y-93303618D01*
X188608485Y-92998856D02*
X188570390Y-92960760D01*
X188570390Y-92960760D02*
X188532295Y-92884570D01*
X188532295Y-92884570D02*
X188532295Y-92694094D01*
X188532295Y-92694094D02*
X188570390Y-92617903D01*
X188570390Y-92617903D02*
X188608485Y-92579808D01*
X188608485Y-92579808D02*
X188684676Y-92541713D01*
X188684676Y-92541713D02*
X188760866Y-92541713D01*
X188760866Y-92541713D02*
X188875152Y-92579808D01*
X188875152Y-92579808D02*
X189332295Y-93036951D01*
X189332295Y-93036951D02*
X189332295Y-92541713D01*
X186032295Y-94332189D02*
X186032295Y-94255999D01*
X186032295Y-94255999D02*
X186070390Y-94179808D01*
X186070390Y-94179808D02*
X186108485Y-94141713D01*
X186108485Y-94141713D02*
X186184676Y-94103618D01*
X186184676Y-94103618D02*
X186337057Y-94065523D01*
X186337057Y-94065523D02*
X186527533Y-94065523D01*
X186527533Y-94065523D02*
X186679914Y-94103618D01*
X186679914Y-94103618D02*
X186756104Y-94141713D01*
X186756104Y-94141713D02*
X186794200Y-94179808D01*
X186794200Y-94179808D02*
X186832295Y-94255999D01*
X186832295Y-94255999D02*
X186832295Y-94332189D01*
X186832295Y-94332189D02*
X186794200Y-94408380D01*
X186794200Y-94408380D02*
X186756104Y-94446475D01*
X186756104Y-94446475D02*
X186679914Y-94484570D01*
X186679914Y-94484570D02*
X186527533Y-94522666D01*
X186527533Y-94522666D02*
X186337057Y-94522666D01*
X186337057Y-94522666D02*
X186184676Y-94484570D01*
X186184676Y-94484570D02*
X186108485Y-94446475D01*
X186108485Y-94446475D02*
X186070390Y-94408380D01*
X186070390Y-94408380D02*
X186032295Y-94332189D01*
X186108485Y-93760761D02*
X186070390Y-93722665D01*
X186070390Y-93722665D02*
X186032295Y-93646475D01*
X186032295Y-93646475D02*
X186032295Y-93455999D01*
X186032295Y-93455999D02*
X186070390Y-93379808D01*
X186070390Y-93379808D02*
X186108485Y-93341713D01*
X186108485Y-93341713D02*
X186184676Y-93303618D01*
X186184676Y-93303618D02*
X186260866Y-93303618D01*
X186260866Y-93303618D02*
X186375152Y-93341713D01*
X186375152Y-93341713D02*
X186832295Y-93798856D01*
X186832295Y-93798856D02*
X186832295Y-93303618D01*
X186032295Y-92808379D02*
X186032295Y-92732189D01*
X186032295Y-92732189D02*
X186070390Y-92655998D01*
X186070390Y-92655998D02*
X186108485Y-92617903D01*
X186108485Y-92617903D02*
X186184676Y-92579808D01*
X186184676Y-92579808D02*
X186337057Y-92541713D01*
X186337057Y-92541713D02*
X186527533Y-92541713D01*
X186527533Y-92541713D02*
X186679914Y-92579808D01*
X186679914Y-92579808D02*
X186756104Y-92617903D01*
X186756104Y-92617903D02*
X186794200Y-92655998D01*
X186794200Y-92655998D02*
X186832295Y-92732189D01*
X186832295Y-92732189D02*
X186832295Y-92808379D01*
X186832295Y-92808379D02*
X186794200Y-92884570D01*
X186794200Y-92884570D02*
X186756104Y-92922665D01*
X186756104Y-92922665D02*
X186679914Y-92960760D01*
X186679914Y-92960760D02*
X186527533Y-92998856D01*
X186527533Y-92998856D02*
X186337057Y-92998856D01*
X186337057Y-92998856D02*
X186184676Y-92960760D01*
X186184676Y-92960760D02*
X186108485Y-92922665D01*
X186108485Y-92922665D02*
X186070390Y-92884570D01*
X186070390Y-92884570D02*
X186032295Y-92808379D01*
X173262295Y-94332189D02*
X173262295Y-94255999D01*
X173262295Y-94255999D02*
X173300390Y-94179808D01*
X173300390Y-94179808D02*
X173338485Y-94141713D01*
X173338485Y-94141713D02*
X173414676Y-94103618D01*
X173414676Y-94103618D02*
X173567057Y-94065523D01*
X173567057Y-94065523D02*
X173757533Y-94065523D01*
X173757533Y-94065523D02*
X173909914Y-94103618D01*
X173909914Y-94103618D02*
X173986104Y-94141713D01*
X173986104Y-94141713D02*
X174024200Y-94179808D01*
X174024200Y-94179808D02*
X174062295Y-94255999D01*
X174062295Y-94255999D02*
X174062295Y-94332189D01*
X174062295Y-94332189D02*
X174024200Y-94408380D01*
X174024200Y-94408380D02*
X173986104Y-94446475D01*
X173986104Y-94446475D02*
X173909914Y-94484570D01*
X173909914Y-94484570D02*
X173757533Y-94522666D01*
X173757533Y-94522666D02*
X173567057Y-94522666D01*
X173567057Y-94522666D02*
X173414676Y-94484570D01*
X173414676Y-94484570D02*
X173338485Y-94446475D01*
X173338485Y-94446475D02*
X173300390Y-94408380D01*
X173300390Y-94408380D02*
X173262295Y-94332189D01*
X173262295Y-93570284D02*
X173262295Y-93494094D01*
X173262295Y-93494094D02*
X173300390Y-93417903D01*
X173300390Y-93417903D02*
X173338485Y-93379808D01*
X173338485Y-93379808D02*
X173414676Y-93341713D01*
X173414676Y-93341713D02*
X173567057Y-93303618D01*
X173567057Y-93303618D02*
X173757533Y-93303618D01*
X173757533Y-93303618D02*
X173909914Y-93341713D01*
X173909914Y-93341713D02*
X173986104Y-93379808D01*
X173986104Y-93379808D02*
X174024200Y-93417903D01*
X174024200Y-93417903D02*
X174062295Y-93494094D01*
X174062295Y-93494094D02*
X174062295Y-93570284D01*
X174062295Y-93570284D02*
X174024200Y-93646475D01*
X174024200Y-93646475D02*
X173986104Y-93684570D01*
X173986104Y-93684570D02*
X173909914Y-93722665D01*
X173909914Y-93722665D02*
X173757533Y-93760761D01*
X173757533Y-93760761D02*
X173567057Y-93760761D01*
X173567057Y-93760761D02*
X173414676Y-93722665D01*
X173414676Y-93722665D02*
X173338485Y-93684570D01*
X173338485Y-93684570D02*
X173300390Y-93646475D01*
X173300390Y-93646475D02*
X173262295Y-93570284D01*
X173262295Y-92617903D02*
X173262295Y-92770284D01*
X173262295Y-92770284D02*
X173300390Y-92846475D01*
X173300390Y-92846475D02*
X173338485Y-92884570D01*
X173338485Y-92884570D02*
X173452771Y-92960760D01*
X173452771Y-92960760D02*
X173605152Y-92998856D01*
X173605152Y-92998856D02*
X173909914Y-92998856D01*
X173909914Y-92998856D02*
X173986104Y-92960760D01*
X173986104Y-92960760D02*
X174024200Y-92922665D01*
X174024200Y-92922665D02*
X174062295Y-92846475D01*
X174062295Y-92846475D02*
X174062295Y-92694094D01*
X174062295Y-92694094D02*
X174024200Y-92617903D01*
X174024200Y-92617903D02*
X173986104Y-92579808D01*
X173986104Y-92579808D02*
X173909914Y-92541713D01*
X173909914Y-92541713D02*
X173719438Y-92541713D01*
X173719438Y-92541713D02*
X173643247Y-92579808D01*
X173643247Y-92579808D02*
X173605152Y-92617903D01*
X173605152Y-92617903D02*
X173567057Y-92694094D01*
X173567057Y-92694094D02*
X173567057Y-92846475D01*
X173567057Y-92846475D02*
X173605152Y-92922665D01*
X173605152Y-92922665D02*
X173643247Y-92960760D01*
X173643247Y-92960760D02*
X173719438Y-92998856D01*
X175732295Y-94332189D02*
X175732295Y-94255999D01*
X175732295Y-94255999D02*
X175770390Y-94179808D01*
X175770390Y-94179808D02*
X175808485Y-94141713D01*
X175808485Y-94141713D02*
X175884676Y-94103618D01*
X175884676Y-94103618D02*
X176037057Y-94065523D01*
X176037057Y-94065523D02*
X176227533Y-94065523D01*
X176227533Y-94065523D02*
X176379914Y-94103618D01*
X176379914Y-94103618D02*
X176456104Y-94141713D01*
X176456104Y-94141713D02*
X176494200Y-94179808D01*
X176494200Y-94179808D02*
X176532295Y-94255999D01*
X176532295Y-94255999D02*
X176532295Y-94332189D01*
X176532295Y-94332189D02*
X176494200Y-94408380D01*
X176494200Y-94408380D02*
X176456104Y-94446475D01*
X176456104Y-94446475D02*
X176379914Y-94484570D01*
X176379914Y-94484570D02*
X176227533Y-94522666D01*
X176227533Y-94522666D02*
X176037057Y-94522666D01*
X176037057Y-94522666D02*
X175884676Y-94484570D01*
X175884676Y-94484570D02*
X175808485Y-94446475D01*
X175808485Y-94446475D02*
X175770390Y-94408380D01*
X175770390Y-94408380D02*
X175732295Y-94332189D01*
X175732295Y-93570284D02*
X175732295Y-93494094D01*
X175732295Y-93494094D02*
X175770390Y-93417903D01*
X175770390Y-93417903D02*
X175808485Y-93379808D01*
X175808485Y-93379808D02*
X175884676Y-93341713D01*
X175884676Y-93341713D02*
X176037057Y-93303618D01*
X176037057Y-93303618D02*
X176227533Y-93303618D01*
X176227533Y-93303618D02*
X176379914Y-93341713D01*
X176379914Y-93341713D02*
X176456104Y-93379808D01*
X176456104Y-93379808D02*
X176494200Y-93417903D01*
X176494200Y-93417903D02*
X176532295Y-93494094D01*
X176532295Y-93494094D02*
X176532295Y-93570284D01*
X176532295Y-93570284D02*
X176494200Y-93646475D01*
X176494200Y-93646475D02*
X176456104Y-93684570D01*
X176456104Y-93684570D02*
X176379914Y-93722665D01*
X176379914Y-93722665D02*
X176227533Y-93760761D01*
X176227533Y-93760761D02*
X176037057Y-93760761D01*
X176037057Y-93760761D02*
X175884676Y-93722665D01*
X175884676Y-93722665D02*
X175808485Y-93684570D01*
X175808485Y-93684570D02*
X175770390Y-93646475D01*
X175770390Y-93646475D02*
X175732295Y-93570284D01*
X176075152Y-92846475D02*
X176037057Y-92922665D01*
X176037057Y-92922665D02*
X175998961Y-92960760D01*
X175998961Y-92960760D02*
X175922771Y-92998856D01*
X175922771Y-92998856D02*
X175884676Y-92998856D01*
X175884676Y-92998856D02*
X175808485Y-92960760D01*
X175808485Y-92960760D02*
X175770390Y-92922665D01*
X175770390Y-92922665D02*
X175732295Y-92846475D01*
X175732295Y-92846475D02*
X175732295Y-92694094D01*
X175732295Y-92694094D02*
X175770390Y-92617903D01*
X175770390Y-92617903D02*
X175808485Y-92579808D01*
X175808485Y-92579808D02*
X175884676Y-92541713D01*
X175884676Y-92541713D02*
X175922771Y-92541713D01*
X175922771Y-92541713D02*
X175998961Y-92579808D01*
X175998961Y-92579808D02*
X176037057Y-92617903D01*
X176037057Y-92617903D02*
X176075152Y-92694094D01*
X176075152Y-92694094D02*
X176075152Y-92846475D01*
X176075152Y-92846475D02*
X176113247Y-92922665D01*
X176113247Y-92922665D02*
X176151342Y-92960760D01*
X176151342Y-92960760D02*
X176227533Y-92998856D01*
X176227533Y-92998856D02*
X176379914Y-92998856D01*
X176379914Y-92998856D02*
X176456104Y-92960760D01*
X176456104Y-92960760D02*
X176494200Y-92922665D01*
X176494200Y-92922665D02*
X176532295Y-92846475D01*
X176532295Y-92846475D02*
X176532295Y-92694094D01*
X176532295Y-92694094D02*
X176494200Y-92617903D01*
X176494200Y-92617903D02*
X176456104Y-92579808D01*
X176456104Y-92579808D02*
X176379914Y-92541713D01*
X176379914Y-92541713D02*
X176227533Y-92541713D01*
X176227533Y-92541713D02*
X176151342Y-92579808D01*
X176151342Y-92579808D02*
X176113247Y-92617903D01*
X176113247Y-92617903D02*
X176075152Y-92694094D01*
X188502295Y-83257808D02*
X188502295Y-83181618D01*
X188502295Y-83181618D02*
X188540390Y-83105427D01*
X188540390Y-83105427D02*
X188578485Y-83067332D01*
X188578485Y-83067332D02*
X188654676Y-83029237D01*
X188654676Y-83029237D02*
X188807057Y-82991142D01*
X188807057Y-82991142D02*
X188997533Y-82991142D01*
X188997533Y-82991142D02*
X189149914Y-83029237D01*
X189149914Y-83029237D02*
X189226104Y-83067332D01*
X189226104Y-83067332D02*
X189264200Y-83105427D01*
X189264200Y-83105427D02*
X189302295Y-83181618D01*
X189302295Y-83181618D02*
X189302295Y-83257808D01*
X189302295Y-83257808D02*
X189264200Y-83333999D01*
X189264200Y-83333999D02*
X189226104Y-83372094D01*
X189226104Y-83372094D02*
X189149914Y-83410189D01*
X189149914Y-83410189D02*
X188997533Y-83448285D01*
X188997533Y-83448285D02*
X188807057Y-83448285D01*
X188807057Y-83448285D02*
X188654676Y-83410189D01*
X188654676Y-83410189D02*
X188578485Y-83372094D01*
X188578485Y-83372094D02*
X188540390Y-83333999D01*
X188540390Y-83333999D02*
X188502295Y-83257808D01*
X188502295Y-82495903D02*
X188502295Y-82419713D01*
X188502295Y-82419713D02*
X188540390Y-82343522D01*
X188540390Y-82343522D02*
X188578485Y-82305427D01*
X188578485Y-82305427D02*
X188654676Y-82267332D01*
X188654676Y-82267332D02*
X188807057Y-82229237D01*
X188807057Y-82229237D02*
X188997533Y-82229237D01*
X188997533Y-82229237D02*
X189149914Y-82267332D01*
X189149914Y-82267332D02*
X189226104Y-82305427D01*
X189226104Y-82305427D02*
X189264200Y-82343522D01*
X189264200Y-82343522D02*
X189302295Y-82419713D01*
X189302295Y-82419713D02*
X189302295Y-82495903D01*
X189302295Y-82495903D02*
X189264200Y-82572094D01*
X189264200Y-82572094D02*
X189226104Y-82610189D01*
X189226104Y-82610189D02*
X189149914Y-82648284D01*
X189149914Y-82648284D02*
X188997533Y-82686380D01*
X188997533Y-82686380D02*
X188807057Y-82686380D01*
X188807057Y-82686380D02*
X188654676Y-82648284D01*
X188654676Y-82648284D02*
X188578485Y-82610189D01*
X188578485Y-82610189D02*
X188540390Y-82572094D01*
X188540390Y-82572094D02*
X188502295Y-82495903D01*
X188578485Y-81924475D02*
X188540390Y-81886379D01*
X188540390Y-81886379D02*
X188502295Y-81810189D01*
X188502295Y-81810189D02*
X188502295Y-81619713D01*
X188502295Y-81619713D02*
X188540390Y-81543522D01*
X188540390Y-81543522D02*
X188578485Y-81505427D01*
X188578485Y-81505427D02*
X188654676Y-81467332D01*
X188654676Y-81467332D02*
X188730866Y-81467332D01*
X188730866Y-81467332D02*
X188845152Y-81505427D01*
X188845152Y-81505427D02*
X189302295Y-81962570D01*
X189302295Y-81962570D02*
X189302295Y-81467332D01*
X194382295Y-94065523D02*
X194382295Y-94522666D01*
X194382295Y-94294094D02*
X193582295Y-94294094D01*
X193582295Y-94294094D02*
X193696580Y-94370285D01*
X193696580Y-94370285D02*
X193772771Y-94446475D01*
X193772771Y-94446475D02*
X193810866Y-94522666D01*
X193582295Y-93570284D02*
X193582295Y-93494094D01*
X193582295Y-93494094D02*
X193620390Y-93417903D01*
X193620390Y-93417903D02*
X193658485Y-93379808D01*
X193658485Y-93379808D02*
X193734676Y-93341713D01*
X193734676Y-93341713D02*
X193887057Y-93303618D01*
X193887057Y-93303618D02*
X194077533Y-93303618D01*
X194077533Y-93303618D02*
X194229914Y-93341713D01*
X194229914Y-93341713D02*
X194306104Y-93379808D01*
X194306104Y-93379808D02*
X194344200Y-93417903D01*
X194344200Y-93417903D02*
X194382295Y-93494094D01*
X194382295Y-93494094D02*
X194382295Y-93570284D01*
X194382295Y-93570284D02*
X194344200Y-93646475D01*
X194344200Y-93646475D02*
X194306104Y-93684570D01*
X194306104Y-93684570D02*
X194229914Y-93722665D01*
X194229914Y-93722665D02*
X194077533Y-93760761D01*
X194077533Y-93760761D02*
X193887057Y-93760761D01*
X193887057Y-93760761D02*
X193734676Y-93722665D01*
X193734676Y-93722665D02*
X193658485Y-93684570D01*
X193658485Y-93684570D02*
X193620390Y-93646475D01*
X193620390Y-93646475D02*
X193582295Y-93570284D01*
X193582295Y-92808379D02*
X193582295Y-92732189D01*
X193582295Y-92732189D02*
X193620390Y-92655998D01*
X193620390Y-92655998D02*
X193658485Y-92617903D01*
X193658485Y-92617903D02*
X193734676Y-92579808D01*
X193734676Y-92579808D02*
X193887057Y-92541713D01*
X193887057Y-92541713D02*
X194077533Y-92541713D01*
X194077533Y-92541713D02*
X194229914Y-92579808D01*
X194229914Y-92579808D02*
X194306104Y-92617903D01*
X194306104Y-92617903D02*
X194344200Y-92655998D01*
X194344200Y-92655998D02*
X194382295Y-92732189D01*
X194382295Y-92732189D02*
X194382295Y-92808379D01*
X194382295Y-92808379D02*
X194344200Y-92884570D01*
X194344200Y-92884570D02*
X194306104Y-92922665D01*
X194306104Y-92922665D02*
X194229914Y-92960760D01*
X194229914Y-92960760D02*
X194077533Y-92998856D01*
X194077533Y-92998856D02*
X193887057Y-92998856D01*
X193887057Y-92998856D02*
X193734676Y-92960760D01*
X193734676Y-92960760D02*
X193658485Y-92922665D01*
X193658485Y-92922665D02*
X193620390Y-92884570D01*
X193620390Y-92884570D02*
X193582295Y-92808379D01*
X183432295Y-94332189D02*
X183432295Y-94255999D01*
X183432295Y-94255999D02*
X183470390Y-94179808D01*
X183470390Y-94179808D02*
X183508485Y-94141713D01*
X183508485Y-94141713D02*
X183584676Y-94103618D01*
X183584676Y-94103618D02*
X183737057Y-94065523D01*
X183737057Y-94065523D02*
X183927533Y-94065523D01*
X183927533Y-94065523D02*
X184079914Y-94103618D01*
X184079914Y-94103618D02*
X184156104Y-94141713D01*
X184156104Y-94141713D02*
X184194200Y-94179808D01*
X184194200Y-94179808D02*
X184232295Y-94255999D01*
X184232295Y-94255999D02*
X184232295Y-94332189D01*
X184232295Y-94332189D02*
X184194200Y-94408380D01*
X184194200Y-94408380D02*
X184156104Y-94446475D01*
X184156104Y-94446475D02*
X184079914Y-94484570D01*
X184079914Y-94484570D02*
X183927533Y-94522666D01*
X183927533Y-94522666D02*
X183737057Y-94522666D01*
X183737057Y-94522666D02*
X183584676Y-94484570D01*
X183584676Y-94484570D02*
X183508485Y-94446475D01*
X183508485Y-94446475D02*
X183470390Y-94408380D01*
X183470390Y-94408380D02*
X183432295Y-94332189D01*
X184232295Y-93303618D02*
X184232295Y-93760761D01*
X184232295Y-93532189D02*
X183432295Y-93532189D01*
X183432295Y-93532189D02*
X183546580Y-93608380D01*
X183546580Y-93608380D02*
X183622771Y-93684570D01*
X183622771Y-93684570D02*
X183660866Y-93760761D01*
X183432295Y-93036951D02*
X183432295Y-92503617D01*
X183432295Y-92503617D02*
X184232295Y-92846475D01*
X174062295Y-83073665D02*
X173681342Y-83340332D01*
X174062295Y-83530808D02*
X173262295Y-83530808D01*
X173262295Y-83530808D02*
X173262295Y-83226046D01*
X173262295Y-83226046D02*
X173300390Y-83149856D01*
X173300390Y-83149856D02*
X173338485Y-83111761D01*
X173338485Y-83111761D02*
X173414676Y-83073665D01*
X173414676Y-83073665D02*
X173528961Y-83073665D01*
X173528961Y-83073665D02*
X173605152Y-83111761D01*
X173605152Y-83111761D02*
X173643247Y-83149856D01*
X173643247Y-83149856D02*
X173681342Y-83226046D01*
X173681342Y-83226046D02*
X173681342Y-83530808D01*
X173833723Y-82768904D02*
X173833723Y-82387951D01*
X174062295Y-82845094D02*
X173262295Y-82578427D01*
X173262295Y-82578427D02*
X174062295Y-82311761D01*
X173262295Y-82121285D02*
X174062295Y-81930809D01*
X174062295Y-81930809D02*
X173490866Y-81778428D01*
X173490866Y-81778428D02*
X174062295Y-81626047D01*
X174062295Y-81626047D02*
X173262295Y-81435571D01*
X198662295Y-83257808D02*
X198662295Y-83181618D01*
X198662295Y-83181618D02*
X198700390Y-83105427D01*
X198700390Y-83105427D02*
X198738485Y-83067332D01*
X198738485Y-83067332D02*
X198814676Y-83029237D01*
X198814676Y-83029237D02*
X198967057Y-82991142D01*
X198967057Y-82991142D02*
X199157533Y-82991142D01*
X199157533Y-82991142D02*
X199309914Y-83029237D01*
X199309914Y-83029237D02*
X199386104Y-83067332D01*
X199386104Y-83067332D02*
X199424200Y-83105427D01*
X199424200Y-83105427D02*
X199462295Y-83181618D01*
X199462295Y-83181618D02*
X199462295Y-83257808D01*
X199462295Y-83257808D02*
X199424200Y-83333999D01*
X199424200Y-83333999D02*
X199386104Y-83372094D01*
X199386104Y-83372094D02*
X199309914Y-83410189D01*
X199309914Y-83410189D02*
X199157533Y-83448285D01*
X199157533Y-83448285D02*
X198967057Y-83448285D01*
X198967057Y-83448285D02*
X198814676Y-83410189D01*
X198814676Y-83410189D02*
X198738485Y-83372094D01*
X198738485Y-83372094D02*
X198700390Y-83333999D01*
X198700390Y-83333999D02*
X198662295Y-83257808D01*
X199462295Y-82229237D02*
X199462295Y-82686380D01*
X199462295Y-82457808D02*
X198662295Y-82457808D01*
X198662295Y-82457808D02*
X198776580Y-82533999D01*
X198776580Y-82533999D02*
X198852771Y-82610189D01*
X198852771Y-82610189D02*
X198890866Y-82686380D01*
X198662295Y-81733998D02*
X198662295Y-81657808D01*
X198662295Y-81657808D02*
X198700390Y-81581617D01*
X198700390Y-81581617D02*
X198738485Y-81543522D01*
X198738485Y-81543522D02*
X198814676Y-81505427D01*
X198814676Y-81505427D02*
X198967057Y-81467332D01*
X198967057Y-81467332D02*
X199157533Y-81467332D01*
X199157533Y-81467332D02*
X199309914Y-81505427D01*
X199309914Y-81505427D02*
X199386104Y-81543522D01*
X199386104Y-81543522D02*
X199424200Y-81581617D01*
X199424200Y-81581617D02*
X199462295Y-81657808D01*
X199462295Y-81657808D02*
X199462295Y-81733998D01*
X199462295Y-81733998D02*
X199424200Y-81810189D01*
X199424200Y-81810189D02*
X199386104Y-81848284D01*
X199386104Y-81848284D02*
X199309914Y-81886379D01*
X199309914Y-81886379D02*
X199157533Y-81924475D01*
X199157533Y-81924475D02*
X198967057Y-81924475D01*
X198967057Y-81924475D02*
X198814676Y-81886379D01*
X198814676Y-81886379D02*
X198738485Y-81848284D01*
X198738485Y-81848284D02*
X198700390Y-81810189D01*
X198700390Y-81810189D02*
X198662295Y-81733998D01*
X178380390Y-94065523D02*
X178342295Y-94141713D01*
X178342295Y-94141713D02*
X178342295Y-94255999D01*
X178342295Y-94255999D02*
X178380390Y-94370285D01*
X178380390Y-94370285D02*
X178456580Y-94446475D01*
X178456580Y-94446475D02*
X178532771Y-94484570D01*
X178532771Y-94484570D02*
X178685152Y-94522666D01*
X178685152Y-94522666D02*
X178799438Y-94522666D01*
X178799438Y-94522666D02*
X178951819Y-94484570D01*
X178951819Y-94484570D02*
X179028009Y-94446475D01*
X179028009Y-94446475D02*
X179104200Y-94370285D01*
X179104200Y-94370285D02*
X179142295Y-94255999D01*
X179142295Y-94255999D02*
X179142295Y-94179808D01*
X179142295Y-94179808D02*
X179104200Y-94065523D01*
X179104200Y-94065523D02*
X179066104Y-94027427D01*
X179066104Y-94027427D02*
X178799438Y-94027427D01*
X178799438Y-94027427D02*
X178799438Y-94179808D01*
X179142295Y-93684570D02*
X178342295Y-93684570D01*
X178342295Y-93684570D02*
X179142295Y-93227427D01*
X179142295Y-93227427D02*
X178342295Y-93227427D01*
X179142295Y-92846475D02*
X178342295Y-92846475D01*
X178342295Y-92846475D02*
X178342295Y-92655999D01*
X178342295Y-92655999D02*
X178380390Y-92541713D01*
X178380390Y-92541713D02*
X178456580Y-92465523D01*
X178456580Y-92465523D02*
X178532771Y-92427428D01*
X178532771Y-92427428D02*
X178685152Y-92389332D01*
X178685152Y-92389332D02*
X178799438Y-92389332D01*
X178799438Y-92389332D02*
X178951819Y-92427428D01*
X178951819Y-92427428D02*
X179028009Y-92465523D01*
X179028009Y-92465523D02*
X179104200Y-92541713D01*
X179104200Y-92541713D02*
X179142295Y-92655999D01*
X179142295Y-92655999D02*
X179142295Y-92846475D01*
X180920390Y-94065523D02*
X180882295Y-94141713D01*
X180882295Y-94141713D02*
X180882295Y-94255999D01*
X180882295Y-94255999D02*
X180920390Y-94370285D01*
X180920390Y-94370285D02*
X180996580Y-94446475D01*
X180996580Y-94446475D02*
X181072771Y-94484570D01*
X181072771Y-94484570D02*
X181225152Y-94522666D01*
X181225152Y-94522666D02*
X181339438Y-94522666D01*
X181339438Y-94522666D02*
X181491819Y-94484570D01*
X181491819Y-94484570D02*
X181568009Y-94446475D01*
X181568009Y-94446475D02*
X181644200Y-94370285D01*
X181644200Y-94370285D02*
X181682295Y-94255999D01*
X181682295Y-94255999D02*
X181682295Y-94179808D01*
X181682295Y-94179808D02*
X181644200Y-94065523D01*
X181644200Y-94065523D02*
X181606104Y-94027427D01*
X181606104Y-94027427D02*
X181339438Y-94027427D01*
X181339438Y-94027427D02*
X181339438Y-94179808D01*
X181682295Y-93684570D02*
X180882295Y-93684570D01*
X180882295Y-93684570D02*
X181682295Y-93227427D01*
X181682295Y-93227427D02*
X180882295Y-93227427D01*
X181682295Y-92846475D02*
X180882295Y-92846475D01*
X180882295Y-92846475D02*
X180882295Y-92655999D01*
X180882295Y-92655999D02*
X180920390Y-92541713D01*
X180920390Y-92541713D02*
X180996580Y-92465523D01*
X180996580Y-92465523D02*
X181072771Y-92427428D01*
X181072771Y-92427428D02*
X181225152Y-92389332D01*
X181225152Y-92389332D02*
X181339438Y-92389332D01*
X181339438Y-92389332D02*
X181491819Y-92427428D01*
X181491819Y-92427428D02*
X181568009Y-92465523D01*
X181568009Y-92465523D02*
X181644200Y-92541713D01*
X181644200Y-92541713D02*
X181682295Y-92655999D01*
X181682295Y-92655999D02*
X181682295Y-92846475D01*
X175840390Y-83149856D02*
X175802295Y-83226046D01*
X175802295Y-83226046D02*
X175802295Y-83340332D01*
X175802295Y-83340332D02*
X175840390Y-83454618D01*
X175840390Y-83454618D02*
X175916580Y-83530808D01*
X175916580Y-83530808D02*
X175992771Y-83568903D01*
X175992771Y-83568903D02*
X176145152Y-83606999D01*
X176145152Y-83606999D02*
X176259438Y-83606999D01*
X176259438Y-83606999D02*
X176411819Y-83568903D01*
X176411819Y-83568903D02*
X176488009Y-83530808D01*
X176488009Y-83530808D02*
X176564200Y-83454618D01*
X176564200Y-83454618D02*
X176602295Y-83340332D01*
X176602295Y-83340332D02*
X176602295Y-83264141D01*
X176602295Y-83264141D02*
X176564200Y-83149856D01*
X176564200Y-83149856D02*
X176526104Y-83111760D01*
X176526104Y-83111760D02*
X176259438Y-83111760D01*
X176259438Y-83111760D02*
X176259438Y-83264141D01*
X176602295Y-82768903D02*
X175802295Y-82768903D01*
X175802295Y-82768903D02*
X176602295Y-82311760D01*
X176602295Y-82311760D02*
X175802295Y-82311760D01*
X176602295Y-81930808D02*
X175802295Y-81930808D01*
X175802295Y-81930808D02*
X175802295Y-81740332D01*
X175802295Y-81740332D02*
X175840390Y-81626046D01*
X175840390Y-81626046D02*
X175916580Y-81549856D01*
X175916580Y-81549856D02*
X175992771Y-81511761D01*
X175992771Y-81511761D02*
X176145152Y-81473665D01*
X176145152Y-81473665D02*
X176259438Y-81473665D01*
X176259438Y-81473665D02*
X176411819Y-81511761D01*
X176411819Y-81511761D02*
X176488009Y-81549856D01*
X176488009Y-81549856D02*
X176564200Y-81626046D01*
X176564200Y-81626046D02*
X176602295Y-81740332D01*
X176602295Y-81740332D02*
X176602295Y-81930808D01*
X191042295Y-94332189D02*
X191042295Y-94255999D01*
X191042295Y-94255999D02*
X191080390Y-94179808D01*
X191080390Y-94179808D02*
X191118485Y-94141713D01*
X191118485Y-94141713D02*
X191194676Y-94103618D01*
X191194676Y-94103618D02*
X191347057Y-94065523D01*
X191347057Y-94065523D02*
X191537533Y-94065523D01*
X191537533Y-94065523D02*
X191689914Y-94103618D01*
X191689914Y-94103618D02*
X191766104Y-94141713D01*
X191766104Y-94141713D02*
X191804200Y-94179808D01*
X191804200Y-94179808D02*
X191842295Y-94255999D01*
X191842295Y-94255999D02*
X191842295Y-94332189D01*
X191842295Y-94332189D02*
X191804200Y-94408380D01*
X191804200Y-94408380D02*
X191766104Y-94446475D01*
X191766104Y-94446475D02*
X191689914Y-94484570D01*
X191689914Y-94484570D02*
X191537533Y-94522666D01*
X191537533Y-94522666D02*
X191347057Y-94522666D01*
X191347057Y-94522666D02*
X191194676Y-94484570D01*
X191194676Y-94484570D02*
X191118485Y-94446475D01*
X191118485Y-94446475D02*
X191080390Y-94408380D01*
X191080390Y-94408380D02*
X191042295Y-94332189D01*
X191118485Y-93760761D02*
X191080390Y-93722665D01*
X191080390Y-93722665D02*
X191042295Y-93646475D01*
X191042295Y-93646475D02*
X191042295Y-93455999D01*
X191042295Y-93455999D02*
X191080390Y-93379808D01*
X191080390Y-93379808D02*
X191118485Y-93341713D01*
X191118485Y-93341713D02*
X191194676Y-93303618D01*
X191194676Y-93303618D02*
X191270866Y-93303618D01*
X191270866Y-93303618D02*
X191385152Y-93341713D01*
X191385152Y-93341713D02*
X191842295Y-93798856D01*
X191842295Y-93798856D02*
X191842295Y-93303618D01*
X191308961Y-92617903D02*
X191842295Y-92617903D01*
X191004200Y-92808379D02*
X191575628Y-92998856D01*
X191575628Y-92998856D02*
X191575628Y-92503617D01*
X196922295Y-82991142D02*
X196922295Y-83448285D01*
X196922295Y-83219713D02*
X196122295Y-83219713D01*
X196122295Y-83219713D02*
X196236580Y-83295904D01*
X196236580Y-83295904D02*
X196312771Y-83372094D01*
X196312771Y-83372094D02*
X196350866Y-83448285D01*
X196922295Y-82229237D02*
X196922295Y-82686380D01*
X196922295Y-82457808D02*
X196122295Y-82457808D01*
X196122295Y-82457808D02*
X196236580Y-82533999D01*
X196236580Y-82533999D02*
X196312771Y-82610189D01*
X196312771Y-82610189D02*
X196350866Y-82686380D01*
X196922295Y-81467332D02*
X196922295Y-81924475D01*
X196922295Y-81695903D02*
X196122295Y-81695903D01*
X196122295Y-81695903D02*
X196236580Y-81772094D01*
X196236580Y-81772094D02*
X196312771Y-81848284D01*
X196312771Y-81848284D02*
X196350866Y-81924475D01*
X199462295Y-94065523D02*
X199462295Y-94522666D01*
X199462295Y-94294094D02*
X198662295Y-94294094D01*
X198662295Y-94294094D02*
X198776580Y-94370285D01*
X198776580Y-94370285D02*
X198852771Y-94446475D01*
X198852771Y-94446475D02*
X198890866Y-94522666D01*
X198662295Y-93570284D02*
X198662295Y-93494094D01*
X198662295Y-93494094D02*
X198700390Y-93417903D01*
X198700390Y-93417903D02*
X198738485Y-93379808D01*
X198738485Y-93379808D02*
X198814676Y-93341713D01*
X198814676Y-93341713D02*
X198967057Y-93303618D01*
X198967057Y-93303618D02*
X199157533Y-93303618D01*
X199157533Y-93303618D02*
X199309914Y-93341713D01*
X199309914Y-93341713D02*
X199386104Y-93379808D01*
X199386104Y-93379808D02*
X199424200Y-93417903D01*
X199424200Y-93417903D02*
X199462295Y-93494094D01*
X199462295Y-93494094D02*
X199462295Y-93570284D01*
X199462295Y-93570284D02*
X199424200Y-93646475D01*
X199424200Y-93646475D02*
X199386104Y-93684570D01*
X199386104Y-93684570D02*
X199309914Y-93722665D01*
X199309914Y-93722665D02*
X199157533Y-93760761D01*
X199157533Y-93760761D02*
X198967057Y-93760761D01*
X198967057Y-93760761D02*
X198814676Y-93722665D01*
X198814676Y-93722665D02*
X198738485Y-93684570D01*
X198738485Y-93684570D02*
X198700390Y-93646475D01*
X198700390Y-93646475D02*
X198662295Y-93570284D01*
X198928961Y-92617903D02*
X199462295Y-92617903D01*
X198624200Y-92808379D02*
X199195628Y-92998856D01*
X199195628Y-92998856D02*
X199195628Y-92503617D01*
X183422295Y-83257808D02*
X183422295Y-83181618D01*
X183422295Y-83181618D02*
X183460390Y-83105427D01*
X183460390Y-83105427D02*
X183498485Y-83067332D01*
X183498485Y-83067332D02*
X183574676Y-83029237D01*
X183574676Y-83029237D02*
X183727057Y-82991142D01*
X183727057Y-82991142D02*
X183917533Y-82991142D01*
X183917533Y-82991142D02*
X184069914Y-83029237D01*
X184069914Y-83029237D02*
X184146104Y-83067332D01*
X184146104Y-83067332D02*
X184184200Y-83105427D01*
X184184200Y-83105427D02*
X184222295Y-83181618D01*
X184222295Y-83181618D02*
X184222295Y-83257808D01*
X184222295Y-83257808D02*
X184184200Y-83333999D01*
X184184200Y-83333999D02*
X184146104Y-83372094D01*
X184146104Y-83372094D02*
X184069914Y-83410189D01*
X184069914Y-83410189D02*
X183917533Y-83448285D01*
X183917533Y-83448285D02*
X183727057Y-83448285D01*
X183727057Y-83448285D02*
X183574676Y-83410189D01*
X183574676Y-83410189D02*
X183498485Y-83372094D01*
X183498485Y-83372094D02*
X183460390Y-83333999D01*
X183460390Y-83333999D02*
X183422295Y-83257808D01*
X183422295Y-82724475D02*
X183422295Y-82229237D01*
X183422295Y-82229237D02*
X183727057Y-82495903D01*
X183727057Y-82495903D02*
X183727057Y-82381618D01*
X183727057Y-82381618D02*
X183765152Y-82305427D01*
X183765152Y-82305427D02*
X183803247Y-82267332D01*
X183803247Y-82267332D02*
X183879438Y-82229237D01*
X183879438Y-82229237D02*
X184069914Y-82229237D01*
X184069914Y-82229237D02*
X184146104Y-82267332D01*
X184146104Y-82267332D02*
X184184200Y-82305427D01*
X184184200Y-82305427D02*
X184222295Y-82381618D01*
X184222295Y-82381618D02*
X184222295Y-82610189D01*
X184222295Y-82610189D02*
X184184200Y-82686380D01*
X184184200Y-82686380D02*
X184146104Y-82724475D01*
X184222295Y-81467332D02*
X184222295Y-81924475D01*
X184222295Y-81695903D02*
X183422295Y-81695903D01*
X183422295Y-81695903D02*
X183536580Y-81772094D01*
X183536580Y-81772094D02*
X183612771Y-81848284D01*
X183612771Y-81848284D02*
X183650866Y-81924475D01*
X179142295Y-82845094D02*
X178761342Y-83111761D01*
X179142295Y-83302237D02*
X178342295Y-83302237D01*
X178342295Y-83302237D02*
X178342295Y-82997475D01*
X178342295Y-82997475D02*
X178380390Y-82921285D01*
X178380390Y-82921285D02*
X178418485Y-82883190D01*
X178418485Y-82883190D02*
X178494676Y-82845094D01*
X178494676Y-82845094D02*
X178608961Y-82845094D01*
X178608961Y-82845094D02*
X178685152Y-82883190D01*
X178685152Y-82883190D02*
X178723247Y-82921285D01*
X178723247Y-82921285D02*
X178761342Y-82997475D01*
X178761342Y-82997475D02*
X178761342Y-83302237D01*
X179104200Y-82540333D02*
X179142295Y-82426047D01*
X179142295Y-82426047D02*
X179142295Y-82235571D01*
X179142295Y-82235571D02*
X179104200Y-82159380D01*
X179104200Y-82159380D02*
X179066104Y-82121285D01*
X179066104Y-82121285D02*
X178989914Y-82083190D01*
X178989914Y-82083190D02*
X178913723Y-82083190D01*
X178913723Y-82083190D02*
X178837533Y-82121285D01*
X178837533Y-82121285D02*
X178799438Y-82159380D01*
X178799438Y-82159380D02*
X178761342Y-82235571D01*
X178761342Y-82235571D02*
X178723247Y-82387952D01*
X178723247Y-82387952D02*
X178685152Y-82464142D01*
X178685152Y-82464142D02*
X178647057Y-82502237D01*
X178647057Y-82502237D02*
X178570866Y-82540333D01*
X178570866Y-82540333D02*
X178494676Y-82540333D01*
X178494676Y-82540333D02*
X178418485Y-82502237D01*
X178418485Y-82502237D02*
X178380390Y-82464142D01*
X178380390Y-82464142D02*
X178342295Y-82387952D01*
X178342295Y-82387952D02*
X178342295Y-82197475D01*
X178342295Y-82197475D02*
X178380390Y-82083190D01*
X178342295Y-81854618D02*
X178342295Y-81397475D01*
X179142295Y-81626047D02*
X178342295Y-81626047D01*
X180882295Y-83524475D02*
X181682295Y-83257808D01*
X181682295Y-83257808D02*
X180882295Y-82991142D01*
X181606104Y-82267332D02*
X181644200Y-82305428D01*
X181644200Y-82305428D02*
X181682295Y-82419713D01*
X181682295Y-82419713D02*
X181682295Y-82495904D01*
X181682295Y-82495904D02*
X181644200Y-82610190D01*
X181644200Y-82610190D02*
X181568009Y-82686380D01*
X181568009Y-82686380D02*
X181491819Y-82724475D01*
X181491819Y-82724475D02*
X181339438Y-82762571D01*
X181339438Y-82762571D02*
X181225152Y-82762571D01*
X181225152Y-82762571D02*
X181072771Y-82724475D01*
X181072771Y-82724475D02*
X180996580Y-82686380D01*
X180996580Y-82686380D02*
X180920390Y-82610190D01*
X180920390Y-82610190D02*
X180882295Y-82495904D01*
X180882295Y-82495904D02*
X180882295Y-82419713D01*
X180882295Y-82419713D02*
X180920390Y-82305428D01*
X180920390Y-82305428D02*
X180958485Y-82267332D01*
X181606104Y-81467332D02*
X181644200Y-81505428D01*
X181644200Y-81505428D02*
X181682295Y-81619713D01*
X181682295Y-81619713D02*
X181682295Y-81695904D01*
X181682295Y-81695904D02*
X181644200Y-81810190D01*
X181644200Y-81810190D02*
X181568009Y-81886380D01*
X181568009Y-81886380D02*
X181491819Y-81924475D01*
X181491819Y-81924475D02*
X181339438Y-81962571D01*
X181339438Y-81962571D02*
X181225152Y-81962571D01*
X181225152Y-81962571D02*
X181072771Y-81924475D01*
X181072771Y-81924475D02*
X180996580Y-81886380D01*
X180996580Y-81886380D02*
X180920390Y-81810190D01*
X180920390Y-81810190D02*
X180882295Y-81695904D01*
X180882295Y-81695904D02*
X180882295Y-81619713D01*
X180882295Y-81619713D02*
X180920390Y-81505428D01*
X180920390Y-81505428D02*
X180958485Y-81467332D01*
X194382295Y-82991142D02*
X194382295Y-83448285D01*
X194382295Y-83219713D02*
X193582295Y-83219713D01*
X193582295Y-83219713D02*
X193696580Y-83295904D01*
X193696580Y-83295904D02*
X193772771Y-83372094D01*
X193772771Y-83372094D02*
X193810866Y-83448285D01*
X194382295Y-82229237D02*
X194382295Y-82686380D01*
X194382295Y-82457808D02*
X193582295Y-82457808D01*
X193582295Y-82457808D02*
X193696580Y-82533999D01*
X193696580Y-82533999D02*
X193772771Y-82610189D01*
X193772771Y-82610189D02*
X193810866Y-82686380D01*
X193582295Y-81962570D02*
X193582295Y-81467332D01*
X193582295Y-81467332D02*
X193887057Y-81733998D01*
X193887057Y-81733998D02*
X193887057Y-81619713D01*
X193887057Y-81619713D02*
X193925152Y-81543522D01*
X193925152Y-81543522D02*
X193963247Y-81505427D01*
X193963247Y-81505427D02*
X194039438Y-81467332D01*
X194039438Y-81467332D02*
X194229914Y-81467332D01*
X194229914Y-81467332D02*
X194306104Y-81505427D01*
X194306104Y-81505427D02*
X194344200Y-81543522D01*
X194344200Y-81543522D02*
X194382295Y-81619713D01*
X194382295Y-81619713D02*
X194382295Y-81848284D01*
X194382295Y-81848284D02*
X194344200Y-81924475D01*
X194344200Y-81924475D02*
X194306104Y-81962570D01*
X185962295Y-83257808D02*
X185962295Y-83181618D01*
X185962295Y-83181618D02*
X186000390Y-83105427D01*
X186000390Y-83105427D02*
X186038485Y-83067332D01*
X186038485Y-83067332D02*
X186114676Y-83029237D01*
X186114676Y-83029237D02*
X186267057Y-82991142D01*
X186267057Y-82991142D02*
X186457533Y-82991142D01*
X186457533Y-82991142D02*
X186609914Y-83029237D01*
X186609914Y-83029237D02*
X186686104Y-83067332D01*
X186686104Y-83067332D02*
X186724200Y-83105427D01*
X186724200Y-83105427D02*
X186762295Y-83181618D01*
X186762295Y-83181618D02*
X186762295Y-83257808D01*
X186762295Y-83257808D02*
X186724200Y-83333999D01*
X186724200Y-83333999D02*
X186686104Y-83372094D01*
X186686104Y-83372094D02*
X186609914Y-83410189D01*
X186609914Y-83410189D02*
X186457533Y-83448285D01*
X186457533Y-83448285D02*
X186267057Y-83448285D01*
X186267057Y-83448285D02*
X186114676Y-83410189D01*
X186114676Y-83410189D02*
X186038485Y-83372094D01*
X186038485Y-83372094D02*
X186000390Y-83333999D01*
X186000390Y-83333999D02*
X185962295Y-83257808D01*
X186038485Y-82686380D02*
X186000390Y-82648284D01*
X186000390Y-82648284D02*
X185962295Y-82572094D01*
X185962295Y-82572094D02*
X185962295Y-82381618D01*
X185962295Y-82381618D02*
X186000390Y-82305427D01*
X186000390Y-82305427D02*
X186038485Y-82267332D01*
X186038485Y-82267332D02*
X186114676Y-82229237D01*
X186114676Y-82229237D02*
X186190866Y-82229237D01*
X186190866Y-82229237D02*
X186305152Y-82267332D01*
X186305152Y-82267332D02*
X186762295Y-82724475D01*
X186762295Y-82724475D02*
X186762295Y-82229237D01*
X186762295Y-81848284D02*
X186762295Y-81695903D01*
X186762295Y-81695903D02*
X186724200Y-81619713D01*
X186724200Y-81619713D02*
X186686104Y-81581617D01*
X186686104Y-81581617D02*
X186571819Y-81505427D01*
X186571819Y-81505427D02*
X186419438Y-81467332D01*
X186419438Y-81467332D02*
X186114676Y-81467332D01*
X186114676Y-81467332D02*
X186038485Y-81505427D01*
X186038485Y-81505427D02*
X186000390Y-81543522D01*
X186000390Y-81543522D02*
X185962295Y-81619713D01*
X185962295Y-81619713D02*
X185962295Y-81772094D01*
X185962295Y-81772094D02*
X186000390Y-81848284D01*
X186000390Y-81848284D02*
X186038485Y-81886379D01*
X186038485Y-81886379D02*
X186114676Y-81924475D01*
X186114676Y-81924475D02*
X186305152Y-81924475D01*
X186305152Y-81924475D02*
X186381342Y-81886379D01*
X186381342Y-81886379D02*
X186419438Y-81848284D01*
X186419438Y-81848284D02*
X186457533Y-81772094D01*
X186457533Y-81772094D02*
X186457533Y-81619713D01*
X186457533Y-81619713D02*
X186419438Y-81543522D01*
X186419438Y-81543522D02*
X186381342Y-81505427D01*
X186381342Y-81505427D02*
X186305152Y-81467332D01*
D12*
X182724285Y-87598328D02*
X182724285Y-88598328D01*
X182724285Y-87741185D02*
X182795714Y-87669757D01*
X182795714Y-87669757D02*
X182938571Y-87598328D01*
X182938571Y-87598328D02*
X183152857Y-87598328D01*
X183152857Y-87598328D02*
X183295714Y-87669757D01*
X183295714Y-87669757D02*
X183367143Y-87812614D01*
X183367143Y-87812614D02*
X183367143Y-88598328D01*
X184081428Y-88598328D02*
X184081428Y-87598328D01*
X184081428Y-87098328D02*
X184010000Y-87169757D01*
X184010000Y-87169757D02*
X184081428Y-87241185D01*
X184081428Y-87241185D02*
X184152857Y-87169757D01*
X184152857Y-87169757D02*
X184081428Y-87098328D01*
X184081428Y-87098328D02*
X184081428Y-87241185D01*
X185438572Y-88526900D02*
X185295714Y-88598328D01*
X185295714Y-88598328D02*
X185010000Y-88598328D01*
X185010000Y-88598328D02*
X184867143Y-88526900D01*
X184867143Y-88526900D02*
X184795714Y-88455471D01*
X184795714Y-88455471D02*
X184724286Y-88312614D01*
X184724286Y-88312614D02*
X184724286Y-87884042D01*
X184724286Y-87884042D02*
X184795714Y-87741185D01*
X184795714Y-87741185D02*
X184867143Y-87669757D01*
X184867143Y-87669757D02*
X185010000Y-87598328D01*
X185010000Y-87598328D02*
X185295714Y-87598328D01*
X185295714Y-87598328D02*
X185438572Y-87669757D01*
X186652857Y-88526900D02*
X186510000Y-88598328D01*
X186510000Y-88598328D02*
X186224286Y-88598328D01*
X186224286Y-88598328D02*
X186081428Y-88526900D01*
X186081428Y-88526900D02*
X186010000Y-88384042D01*
X186010000Y-88384042D02*
X186010000Y-87812614D01*
X186010000Y-87812614D02*
X186081428Y-87669757D01*
X186081428Y-87669757D02*
X186224286Y-87598328D01*
X186224286Y-87598328D02*
X186510000Y-87598328D01*
X186510000Y-87598328D02*
X186652857Y-87669757D01*
X186652857Y-87669757D02*
X186724286Y-87812614D01*
X186724286Y-87812614D02*
X186724286Y-87955471D01*
X186724286Y-87955471D02*
X186010000Y-88098328D01*
X187367142Y-88455471D02*
X187438571Y-88526900D01*
X187438571Y-88526900D02*
X187367142Y-88598328D01*
X187367142Y-88598328D02*
X187295714Y-88526900D01*
X187295714Y-88526900D02*
X187367142Y-88455471D01*
X187367142Y-88455471D02*
X187367142Y-88598328D01*
X187367142Y-88026900D02*
X187295714Y-87169757D01*
X187295714Y-87169757D02*
X187367142Y-87098328D01*
X187367142Y-87098328D02*
X187438571Y-87169757D01*
X187438571Y-87169757D02*
X187367142Y-88026900D01*
X187367142Y-88026900D02*
X187367142Y-87098328D01*
X188081428Y-87598328D02*
X188081428Y-88598328D01*
X188081428Y-87741185D02*
X188152857Y-87669757D01*
X188152857Y-87669757D02*
X188295714Y-87598328D01*
X188295714Y-87598328D02*
X188510000Y-87598328D01*
X188510000Y-87598328D02*
X188652857Y-87669757D01*
X188652857Y-87669757D02*
X188724286Y-87812614D01*
X188724286Y-87812614D02*
X188724286Y-88598328D01*
X190081429Y-88598328D02*
X190081429Y-87812614D01*
X190081429Y-87812614D02*
X190010000Y-87669757D01*
X190010000Y-87669757D02*
X189867143Y-87598328D01*
X189867143Y-87598328D02*
X189581429Y-87598328D01*
X189581429Y-87598328D02*
X189438571Y-87669757D01*
X190081429Y-88526900D02*
X189938571Y-88598328D01*
X189938571Y-88598328D02*
X189581429Y-88598328D01*
X189581429Y-88598328D02*
X189438571Y-88526900D01*
X189438571Y-88526900D02*
X189367143Y-88384042D01*
X189367143Y-88384042D02*
X189367143Y-88241185D01*
X189367143Y-88241185D02*
X189438571Y-88098328D01*
X189438571Y-88098328D02*
X189581429Y-88026900D01*
X189581429Y-88026900D02*
X189938571Y-88026900D01*
X189938571Y-88026900D02*
X190081429Y-87955471D01*
X190795714Y-87598328D02*
X190795714Y-88598328D01*
X190795714Y-87741185D02*
X190867143Y-87669757D01*
X190867143Y-87669757D02*
X191010000Y-87598328D01*
X191010000Y-87598328D02*
X191224286Y-87598328D01*
X191224286Y-87598328D02*
X191367143Y-87669757D01*
X191367143Y-87669757D02*
X191438572Y-87812614D01*
X191438572Y-87812614D02*
X191438572Y-88598328D01*
X192367143Y-88598328D02*
X192224286Y-88526900D01*
X192224286Y-88526900D02*
X192152857Y-88455471D01*
X192152857Y-88455471D02*
X192081429Y-88312614D01*
X192081429Y-88312614D02*
X192081429Y-87884042D01*
X192081429Y-87884042D02*
X192152857Y-87741185D01*
X192152857Y-87741185D02*
X192224286Y-87669757D01*
X192224286Y-87669757D02*
X192367143Y-87598328D01*
X192367143Y-87598328D02*
X192581429Y-87598328D01*
X192581429Y-87598328D02*
X192724286Y-87669757D01*
X192724286Y-87669757D02*
X192795715Y-87741185D01*
X192795715Y-87741185D02*
X192867143Y-87884042D01*
X192867143Y-87884042D02*
X192867143Y-88312614D01*
X192867143Y-88312614D02*
X192795715Y-88455471D01*
X192795715Y-88455471D02*
X192724286Y-88526900D01*
X192724286Y-88526900D02*
X192581429Y-88598328D01*
X192581429Y-88598328D02*
X192367143Y-88598328D01*
D11*
X204206666Y-94984819D02*
X204206666Y-95699104D01*
X204206666Y-95699104D02*
X204159047Y-95841961D01*
X204159047Y-95841961D02*
X204063809Y-95937200D01*
X204063809Y-95937200D02*
X203920952Y-95984819D01*
X203920952Y-95984819D02*
X203825714Y-95984819D01*
X204635238Y-95080057D02*
X204682857Y-95032438D01*
X204682857Y-95032438D02*
X204778095Y-94984819D01*
X204778095Y-94984819D02*
X205016190Y-94984819D01*
X205016190Y-94984819D02*
X205111428Y-95032438D01*
X205111428Y-95032438D02*
X205159047Y-95080057D01*
X205159047Y-95080057D02*
X205206666Y-95175295D01*
X205206666Y-95175295D02*
X205206666Y-95270533D01*
X205206666Y-95270533D02*
X205159047Y-95413390D01*
X205159047Y-95413390D02*
X204587619Y-95984819D01*
X204587619Y-95984819D02*
X205206666Y-95984819D01*
X204246666Y-81254819D02*
X204246666Y-81969104D01*
X204246666Y-81969104D02*
X204199047Y-82111961D01*
X204199047Y-82111961D02*
X204103809Y-82207200D01*
X204103809Y-82207200D02*
X203960952Y-82254819D01*
X203960952Y-82254819D02*
X203865714Y-82254819D01*
X205246666Y-82254819D02*
X204675238Y-82254819D01*
X204960952Y-82254819D02*
X204960952Y-81254819D01*
X204960952Y-81254819D02*
X204865714Y-81397676D01*
X204865714Y-81397676D02*
X204770476Y-81492914D01*
X204770476Y-81492914D02*
X204675238Y-81540533D01*
D13*
%TO.C,U1*%
X169890000Y-79105000D02*
X169890000Y-96885000D01*
X169890000Y-96885000D02*
X172430000Y-96885000D01*
X172430000Y-79105000D02*
X169890000Y-79105000D01*
X172430000Y-96885000D02*
X202910000Y-96885000D01*
X202910000Y-79105000D02*
X172430000Y-79105000D01*
X202910000Y-96885000D02*
X202910000Y-79105000D01*
D14*
%TO.C,J2*%
X206735000Y-92420000D02*
X206735000Y-93470000D01*
X206735000Y-97590000D02*
X205745000Y-97590000D01*
X206735000Y-98640000D02*
X206735000Y-97590000D01*
X209235000Y-92420000D02*
X206735000Y-92420000D01*
X209235000Y-98640000D02*
X206735000Y-98640000D01*
X211205000Y-97470000D02*
X211205000Y-93590000D01*
%TO.C,SW1*%
X164650000Y-84540000D02*
X164650000Y-92340000D01*
X164650000Y-84540000D02*
X168750000Y-84540000D01*
X168700000Y-87540000D02*
X168700000Y-86840000D01*
X168700000Y-90040000D02*
X168700000Y-89340000D01*
X168700000Y-92340000D02*
X164650000Y-92340000D01*
D10*
X168750000Y-85340000D02*
X168750000Y-84540000D01*
X168750000Y-91440000D02*
X168750000Y-92340000D01*
D14*
%TO.C,J1*%
X207070000Y-77740000D02*
X207070000Y-78760000D01*
X207070000Y-78760000D02*
X208670000Y-78760000D01*
X207070000Y-84840000D02*
X208670000Y-84840000D01*
X207070000Y-85860000D02*
X207070000Y-84840000D01*
X208670000Y-78760000D02*
X208670000Y-80040000D01*
X208670000Y-83560000D02*
X205780000Y-83560000D01*
X208670000Y-84840000D02*
X208670000Y-83560000D01*
X211320000Y-77740000D02*
X207070000Y-77740000D01*
X211320000Y-85860000D02*
X207070000Y-85860000D01*
X214890000Y-84140000D02*
X214890000Y-79460000D01*
%TD*%
M02*
