  0
SECTION
  2
HEADER
  9
$ANGBASE
  50
0.0
  9
$ANGDIR
  70
1
  9
$MEASUREMENT
  70
1
  0
ENDSEC
  0
SECTION
  2
TABLES
  0
TABLE
  2
LTYPE
  70
4
  0
LTYPE
  5
40F
  2
CONTINUOUS
  70
0
  3
Solid line
  72
65
  73
0
  40
0.0
  0
LTYPE
  5
410
  2
DASHDOT
 70
0
  3
Dash Dot ____ _ ____ _
 72
65
 73
4
 40
2.0
 49
1.25
 49
-0.25
 49
0.25
 49
-0.25
  0
LTYPE
  5
411
  2
DASHED
 70
0
  3
Dashed __ __ __ __ __
 72
65
 73
2
 40
0.75
 49
0.5
 49
-0.25
  0
LTYPE
  5
43B
  2
DOTTED
 70
0
  3
Dotted .  .  .  .
 72
65
 73
2
 40
0.2
 49
0.0
 49
-0.2
  0
ENDTAB
  0
TABLE
  2
STYLE
  70
4
  0
STYLE
  2
KICAD
  70
0
  40
0
  41
1
  42
1
  50
0
  71
0
  3
isocp.shx
  0
STYLE
  2
KICADB
  70
0
  40
0
  41
1
  42
1
  50
0
  71
0
  3
isocp.shx
  0
STYLE
  2
KICADI
  70
0
  40
0
  41
1
  42
1
  50
15
  71
0
  3
isocp.shx
  0
STYLE
  2
KICADBI
  70
0
  40
0
  41
1
  42
1
  50
15
  71
0
  3
isocp.shx
  0
ENDTAB
  0
TABLE
  2
LAYER
  70
1
  0
LAYER
  2
BLACK
  70
0
  62
7
  6
CONTINUOUS
  0
ENDTAB
  0
ENDSEC
  0
SECTION
  2
ENTITIES
0
LINE
8
BLACK
6
CONTINUOUS
10
174.2299999999999898
20
-99.4350000000000023
11
173.2299999999999898
21
-99.4350000000000023
0
LINE
8
BLACK
6
CONTINUOUS
10
173.2299999999999898
20
-99.4350000000000023
11
173.2299999999999898
21
-96.9249999999999972
0
LINE
8
BLACK
6
CONTINUOUS
10
173.2299999999999898
20
-96.9249999999999972
11
174.2299999999999898
21
-96.9249999999999972
0
LINE
8
BLACK
6
CONTINUOUS
10
174.2299999999999898
20
-96.9249999999999972
11
174.2299999999999898
21
-99.4350000000000023
0
LINE
8
BLACK
6
CONTINUOUS
10
176.7699999999999818
20
-99.4350000000000023
11
175.7699999999999818
21
-99.4350000000000023
0
LINE
8
BLACK
6
CONTINUOUS
10
175.7699999999999818
20
-99.4350000000000023
11
175.7699999999999818
21
-96.9249999999999972
0
LINE
8
BLACK
6
CONTINUOUS
10
175.7699999999999818
20
-96.9249999999999972
11
176.7699999999999818
21
-96.9249999999999972
0
LINE
8
BLACK
6
CONTINUOUS
10
176.7699999999999818
20
-96.9249999999999972
11
176.7699999999999818
21
-99.4350000000000023
0
LINE
8
BLACK
6
CONTINUOUS
10
179.3100000000000023
20
-99.4350000000000023
11
178.3100000000000023
21
-99.4350000000000023
0
LINE
8
BLACK
6
CONTINUOUS
10
178.3100000000000023
20
-99.4350000000000023
11
178.3100000000000023
21
-96.9249999999999972
0
LINE
8
BLACK
6
CONTINUOUS
10
178.3100000000000023
20
-96.9249999999999972
11
179.3100000000000023
21
-96.9249999999999972
0
LINE
8
BLACK
6
CONTINUOUS
10
179.3100000000000023
20
-96.9249999999999972
11
179.3100000000000023
21
-99.4350000000000023
0
LINE
8
BLACK
6
CONTINUOUS
10
181.8499999999999943
20
-99.4350000000000023
11
180.8499999999999943
21
-99.4350000000000023
0
LINE
8
BLACK
6
CONTINUOUS
10
180.8499999999999943
20
-99.4350000000000023
11
180.8499999999999943
21
-96.9249999999999972
0
LINE
8
BLACK
6
CONTINUOUS
10
180.8499999999999943
20
-96.9249999999999972
11
181.8499999999999943
21
-96.9249999999999972
0
LINE
8
BLACK
6
CONTINUOUS
10
181.8499999999999943
20
-96.9249999999999972
11
181.8499999999999943
21
-99.4350000000000023
0
LINE
8
BLACK
6
CONTINUOUS
10
184.3899999999999864
20
-99.4350000000000023
11
183.3899999999999864
21
-99.4350000000000023
0
LINE
8
BLACK
6
CONTINUOUS
10
183.3899999999999864
20
-99.4350000000000023
11
183.3899999999999864
21
-96.9249999999999972
0
LINE
8
BLACK
6
CONTINUOUS
10
183.3899999999999864
20
-96.9249999999999972
11
184.3899999999999864
21
-96.9249999999999972
0
LINE
8
BLACK
6
CONTINUOUS
10
184.3899999999999864
20
-96.9249999999999972
11
184.3899999999999864
21
-99.4350000000000023
0
LINE
8
BLACK
6
CONTINUOUS
10
186.9299999999999784
20
-99.4350000000000023
11
185.9299999999999784
21
-99.4350000000000023
0
LINE
8
BLACK
6
CONTINUOUS
10
185.9299999999999784
20
-99.4350000000000023
11
185.9299999999999784
21
-96.9249999999999972
0
LINE
8
BLACK
6
CONTINUOUS
10
185.9299999999999784
20
-96.9249999999999972
11
186.9299999999999784
21
-96.9249999999999972
0
LINE
8
BLACK
6
CONTINUOUS
10
186.9299999999999784
20
-96.9249999999999972
11
186.9299999999999784
21
-99.4350000000000023
0
LINE
8
BLACK
6
CONTINUOUS
10
189.4699999999999989
20
-99.4350000000000023
11
188.4699999999999989
21
-99.4350000000000023
0
LINE
8
BLACK
6
CONTINUOUS
10
188.4699999999999989
20
-99.4350000000000023
11
188.4699999999999989
21
-96.9249999999999972
0
LINE
8
BLACK
6
CONTINUOUS
10
188.4699999999999989
20
-96.9249999999999972
11
189.4699999999999989
21
-96.9249999999999972
0
LINE
8
BLACK
6
CONTINUOUS
10
189.4699999999999989
20
-96.9249999999999972
11
189.4699999999999989
21
-99.4350000000000023
0
LINE
8
BLACK
6
CONTINUOUS
10
192.0099999999999909
20
-99.4350000000000023
11
191.0099999999999909
21
-99.4350000000000023
0
LINE
8
BLACK
6
CONTINUOUS
10
191.0099999999999909
20
-99.4350000000000023
11
191.0099999999999909
21
-96.9249999999999972
0
LINE
8
BLACK
6
CONTINUOUS
10
191.0099999999999909
20
-96.9249999999999972
11
192.0099999999999909
21
-96.9249999999999972
0
LINE
8
BLACK
6
CONTINUOUS
10
192.0099999999999909
20
-96.9249999999999972
11
192.0099999999999909
21
-99.4350000000000023
0
LINE
8
BLACK
6
CONTINUOUS
10
194.5499999999999829
20
-99.4350000000000023
11
193.5499999999999829
21
-99.4350000000000023
0
LINE
8
BLACK
6
CONTINUOUS
10
193.5499999999999829
20
-99.4350000000000023
11
193.5499999999999829
21
-96.9249999999999972
0
LINE
8
BLACK
6
CONTINUOUS
10
193.5499999999999829
20
-96.9249999999999972
11
194.5499999999999829
21
-96.9249999999999972
0
LINE
8
BLACK
6
CONTINUOUS
10
194.5499999999999829
20
-96.9249999999999972
11
194.5499999999999829
21
-99.4350000000000023
0
LINE
8
BLACK
6
CONTINUOUS
10
197.0900000000000034
20
-99.4350000000000023
11
196.0900000000000034
21
-99.4350000000000023
0
LINE
8
BLACK
6
CONTINUOUS
10
196.0900000000000034
20
-99.4350000000000023
11
196.0900000000000034
21
-96.9249999999999972
0
LINE
8
BLACK
6
CONTINUOUS
10
196.0900000000000034
20
-96.9249999999999972
11
197.0900000000000034
21
-96.9249999999999972
0
LINE
8
BLACK
6
CONTINUOUS
10
197.0900000000000034
20
-96.9249999999999972
11
197.0900000000000034
21
-99.4350000000000023
0
LINE
8
BLACK
6
CONTINUOUS
10
199.6299999999999955
20
-99.4350000000000023
11
198.6299999999999955
21
-99.4350000000000023
0
LINE
8
BLACK
6
CONTINUOUS
10
198.6299999999999955
20
-99.4350000000000023
11
198.6299999999999955
21
-96.9249999999999972
0
LINE
8
BLACK
6
CONTINUOUS
10
198.6299999999999955
20
-96.9249999999999972
11
199.6299999999999955
21
-96.9249999999999972
0
LINE
8
BLACK
6
CONTINUOUS
10
199.6299999999999955
20
-96.9249999999999972
11
199.6299999999999955
21
-99.4350000000000023
0
LINE
8
BLACK
6
CONTINUOUS
10
202.1699999999999875
20
-99.4350000000000023
11
201.1699999999999875
21
-99.4350000000000023
0
LINE
8
BLACK
6
CONTINUOUS
10
201.1699999999999875
20
-99.4350000000000023
11
201.1699999999999875
21
-96.9249999999999972
0
LINE
8
BLACK
6
CONTINUOUS
10
201.1699999999999875
20
-96.9249999999999972
11
202.1699999999999875
21
-96.9249999999999972
0
LINE
8
BLACK
6
CONTINUOUS
10
202.1699999999999875
20
-96.9249999999999972
11
202.1699999999999875
21
-99.4350000000000023
0
LINE
8
BLACK
6
CONTINUOUS
10
211.1406709999999975
20
-97.7490299999999905
11
211.221777000000003
21
-97.8032229999999885
0
LINE
8
BLACK
6
CONTINUOUS
10
211.221777000000003
20
-97.8032229999999885
11
211.2759700000000009
21
-97.8843289999999939
0
LINE
8
BLACK
6
CONTINUOUS
10
211.2759700000000009
20
-97.8843289999999939
11
211.2949999999999875
21
-97.9799999999999898
0
LINE
8
BLACK
6
CONTINUOUS
10
211.2949999999999875
20
-97.9799999999999898
11
211.2949999999999875
21
-98.6799999999999926
0
LINE
8
BLACK
6
CONTINUOUS
10
211.2949999999999875
20
-98.6799999999999926
11
211.2759700000000009
21
-98.7756709999999885
0
LINE
8
BLACK
6
CONTINUOUS
10
211.2759700000000009
20
-98.7756709999999885
11
211.221777000000003
21
-98.8567769999999939
0
LINE
8
BLACK
6
CONTINUOUS
10
211.221777000000003
20
-98.8567769999999939
11
211.1406709999999975
21
-98.9109699999999918
0
LINE
8
BLACK
6
CONTINUOUS
10
211.1406709999999975
20
-98.9109699999999918
11
211.0449999999999875
21
-98.9299999999999926
0
LINE
8
BLACK
6
CONTINUOUS
10
211.0449999999999875
20
-98.9299999999999926
11
209.7450000000000045
21
-98.9299999999999926
0
LINE
8
BLACK
6
CONTINUOUS
10
209.7450000000000045
20
-98.9299999999999926
11
209.6493289999999945
21
-98.9109699999999918
0
LINE
8
BLACK
6
CONTINUOUS
10
209.6493289999999945
20
-98.9109699999999918
11
209.568222999999989
21
-98.8567769999999939
0
LINE
8
BLACK
6
CONTINUOUS
10
209.568222999999989
20
-98.8567769999999939
11
209.5140299999999911
21
-98.7756709999999885
0
LINE
8
BLACK
6
CONTINUOUS
10
209.5140299999999911
20
-98.7756709999999885
11
209.4950000000000045
21
-98.6799999999999926
0
LINE
8
BLACK
6
CONTINUOUS
10
209.4950000000000045
20
-98.6799999999999926
11
209.4950000000000045
21
-97.9799999999999898
0
LINE
8
BLACK
6
CONTINUOUS
10
209.4950000000000045
20
-97.9799999999999898
11
209.5140299999999911
21
-97.8843289999999939
0
LINE
8
BLACK
6
CONTINUOUS
10
209.5140299999999911
20
-97.8843289999999939
11
209.568222999999989
21
-97.8032229999999885
0
LINE
8
BLACK
6
CONTINUOUS
10
209.568222999999989
20
-97.8032229999999885
11
209.6493289999999945
21
-97.7490299999999905
0
LINE
8
BLACK
6
CONTINUOUS
10
209.6493289999999945
20
-97.7490299999999905
11
209.7450000000000045
21
-97.7299999999999898
0
LINE
8
BLACK
6
CONTINUOUS
10
209.7450000000000045
20
-97.7299999999999898
11
211.0449999999999875
21
-97.7299999999999898
0
LINE
8
BLACK
6
CONTINUOUS
10
211.0449999999999875
20
-97.7299999999999898
11
211.1406709999999975
21
-97.7490299999999905
0
LINE
8
BLACK
6
CONTINUOUS
10
207.2024030000000039
20
-96.7414179999999959
11
207.2510659999999802
21
-96.773933999999997
0
LINE
8
BLACK
6
CONTINUOUS
10
207.2510659999999802
20
-96.773933999999997
11
207.2835819999999956
21
-96.8225970000000018
0
LINE
8
BLACK
6
CONTINUOUS
10
207.2835819999999956
20
-96.8225970000000018
11
207.2949999999999875
21
-96.8799999999999955
0
LINE
8
BLACK
6
CONTINUOUS
10
207.2949999999999875
20
-96.8799999999999955
11
207.2949999999999875
21
-97.1799999999999926
0
LINE
8
BLACK
6
CONTINUOUS
10
207.2949999999999875
20
-97.1799999999999926
11
207.2835819999999956
21
-97.2374030000000005
0
LINE
8
BLACK
6
CONTINUOUS
10
207.2835819999999956
20
-97.2374030000000005
11
207.2510659999999802
21
-97.286065999999991
0
LINE
8
BLACK
6
CONTINUOUS
10
207.2510659999999802
20
-97.286065999999991
11
207.2024030000000039
21
-97.3185819999999921
0
LINE
8
BLACK
6
CONTINUOUS
10
207.2024030000000039
20
-97.3185819999999921
11
207.1449999999999818
21
-97.3299999999999983
0
LINE
8
BLACK
6
CONTINUOUS
10
207.1449999999999818
20
-97.3299999999999983
11
205.8949999999999818
21
-97.3299999999999983
0
LINE
8
BLACK
6
CONTINUOUS
10
205.8949999999999818
20
-97.3299999999999983
11
205.8375969999999882
21
-97.3185819999999921
0
LINE
8
BLACK
6
CONTINUOUS
10
205.8375969999999882
20
-97.3185819999999921
11
205.7889339999999834
21
-97.286065999999991
0
LINE
8
BLACK
6
CONTINUOUS
10
205.7889339999999834
20
-97.286065999999991
11
205.7564179999999965
21
-97.2374030000000005
0
LINE
8
BLACK
6
CONTINUOUS
10
205.7564179999999965
20
-97.2374030000000005
11
205.7450000000000045
21
-97.1799999999999926
0
LINE
8
BLACK
6
CONTINUOUS
10
205.7450000000000045
20
-97.1799999999999926
11
205.7450000000000045
21
-96.8799999999999955
0
LINE
8
BLACK
6
CONTINUOUS
10
205.7450000000000045
20
-96.8799999999999955
11
205.7564179999999965
21
-96.8225970000000018
0
LINE
8
BLACK
6
CONTINUOUS
10
205.7564179999999965
20
-96.8225970000000018
11
205.7889339999999834
21
-96.773933999999997
0
LINE
8
BLACK
6
CONTINUOUS
10
205.7889339999999834
20
-96.773933999999997
11
205.8375969999999882
21
-96.7414179999999959
0
LINE
8
BLACK
6
CONTINUOUS
10
205.8375969999999882
20
-96.7414179999999959
11
205.8949999999999818
21
-96.7299999999999898
0
LINE
8
BLACK
6
CONTINUOUS
10
205.8949999999999818
20
-96.7299999999999898
11
207.1449999999999818
21
-96.7299999999999898
0
LINE
8
BLACK
6
CONTINUOUS
10
207.1449999999999818
20
-96.7299999999999898
11
207.2024030000000039
21
-96.7414179999999959
0
LINE
8
BLACK
6
CONTINUOUS
10
207.2024030000000039
20
-95.7414179999999959
11
207.2510659999999802
21
-95.773933999999997
0
LINE
8
BLACK
6
CONTINUOUS
10
207.2510659999999802
20
-95.773933999999997
11
207.2835819999999956
21
-95.8225970000000018
0
LINE
8
BLACK
6
CONTINUOUS
10
207.2835819999999956
20
-95.8225970000000018
11
207.2949999999999875
21
-95.8799999999999955
0
LINE
8
BLACK
6
CONTINUOUS
10
207.2949999999999875
20
-95.8799999999999955
11
207.2949999999999875
21
-96.1799999999999926
0
LINE
8
BLACK
6
CONTINUOUS
10
207.2949999999999875
20
-96.1799999999999926
11
207.2835819999999956
21
-96.2374030000000005
0
LINE
8
BLACK
6
CONTINUOUS
10
207.2835819999999956
20
-96.2374030000000005
11
207.2510659999999802
21
-96.286065999999991
0
LINE
8
BLACK
6
CONTINUOUS
10
207.2510659999999802
20
-96.286065999999991
11
207.2024030000000039
21
-96.3185819999999921
0
LINE
8
BLACK
6
CONTINUOUS
10
207.2024030000000039
20
-96.3185819999999921
11
207.1449999999999818
21
-96.3299999999999983
0
LINE
8
BLACK
6
CONTINUOUS
10
207.1449999999999818
20
-96.3299999999999983
11
205.8949999999999818
21
-96.3299999999999983
0
LINE
8
BLACK
6
CONTINUOUS
10
205.8949999999999818
20
-96.3299999999999983
11
205.8375969999999882
21
-96.3185819999999921
0
LINE
8
BLACK
6
CONTINUOUS
10
205.8375969999999882
20
-96.3185819999999921
11
205.7889339999999834
21
-96.286065999999991
0
LINE
8
BLACK
6
CONTINUOUS
10
205.7889339999999834
20
-96.286065999999991
11
205.7564179999999965
21
-96.2374030000000005
0
LINE
8
BLACK
6
CONTINUOUS
10
205.7564179999999965
20
-96.2374030000000005
11
205.7450000000000045
21
-96.1799999999999926
0
LINE
8
BLACK
6
CONTINUOUS
10
205.7450000000000045
20
-96.1799999999999926
11
205.7450000000000045
21
-95.8799999999999955
0
LINE
8
BLACK
6
CONTINUOUS
10
205.7450000000000045
20
-95.8799999999999955
11
205.7564179999999965
21
-95.8225970000000018
0
LINE
8
BLACK
6
CONTINUOUS
10
205.7564179999999965
20
-95.8225970000000018
11
205.7889339999999834
21
-95.773933999999997
0
LINE
8
BLACK
6
CONTINUOUS
10
205.7889339999999834
20
-95.773933999999997
11
205.8375969999999882
21
-95.7414179999999959
0
LINE
8
BLACK
6
CONTINUOUS
10
205.8375969999999882
20
-95.7414179999999959
11
205.8949999999999818
21
-95.7299999999999898
0
LINE
8
BLACK
6
CONTINUOUS
10
205.8949999999999818
20
-95.7299999999999898
11
207.1449999999999818
21
-95.7299999999999898
0
LINE
8
BLACK
6
CONTINUOUS
10
207.1449999999999818
20
-95.7299999999999898
11
207.2024030000000039
21
-95.7414179999999959
0
LINE
8
BLACK
6
CONTINUOUS
10
207.2024030000000039
20
-94.7414179999999959
11
207.2510659999999802
21
-94.773933999999997
0
LINE
8
BLACK
6
CONTINUOUS
10
207.2510659999999802
20
-94.773933999999997
11
207.2835819999999956
21
-94.8225970000000018
0
LINE
8
BLACK
6
CONTINUOUS
10
207.2835819999999956
20
-94.8225970000000018
11
207.2949999999999875
21
-94.8799999999999955
0
LINE
8
BLACK
6
CONTINUOUS
10
207.2949999999999875
20
-94.8799999999999955
11
207.2949999999999875
21
-95.1799999999999926
0
LINE
8
BLACK
6
CONTINUOUS
10
207.2949999999999875
20
-95.1799999999999926
11
207.2835819999999956
21
-95.2374030000000005
0
LINE
8
BLACK
6
CONTINUOUS
10
207.2835819999999956
20
-95.2374030000000005
11
207.2510659999999802
21
-95.286065999999991
0
LINE
8
BLACK
6
CONTINUOUS
10
207.2510659999999802
20
-95.286065999999991
11
207.2024030000000039
21
-95.3185819999999921
0
LINE
8
BLACK
6
CONTINUOUS
10
207.2024030000000039
20
-95.3185819999999921
11
207.1449999999999818
21
-95.3299999999999983
0
LINE
8
BLACK
6
CONTINUOUS
10
207.1449999999999818
20
-95.3299999999999983
11
205.8949999999999818
21
-95.3299999999999983
0
LINE
8
BLACK
6
CONTINUOUS
10
205.8949999999999818
20
-95.3299999999999983
11
205.8375969999999882
21
-95.3185819999999921
0
LINE
8
BLACK
6
CONTINUOUS
10
205.8375969999999882
20
-95.3185819999999921
11
205.7889339999999834
21
-95.286065999999991
0
LINE
8
BLACK
6
CONTINUOUS
10
205.7889339999999834
20
-95.286065999999991
11
205.7564179999999965
21
-95.2374030000000005
0
LINE
8
BLACK
6
CONTINUOUS
10
205.7564179999999965
20
-95.2374030000000005
11
205.7450000000000045
21
-95.1799999999999926
0
LINE
8
BLACK
6
CONTINUOUS
10
205.7450000000000045
20
-95.1799999999999926
11
205.7450000000000045
21
-94.8799999999999955
0
LINE
8
BLACK
6
CONTINUOUS
10
205.7450000000000045
20
-94.8799999999999955
11
205.7564179999999965
21
-94.8225970000000018
0
LINE
8
BLACK
6
CONTINUOUS
10
205.7564179999999965
20
-94.8225970000000018
11
205.7889339999999834
21
-94.773933999999997
0
LINE
8
BLACK
6
CONTINUOUS
10
205.7889339999999834
20
-94.773933999999997
11
205.8375969999999882
21
-94.7414179999999959
0
LINE
8
BLACK
6
CONTINUOUS
10
205.8375969999999882
20
-94.7414179999999959
11
205.8949999999999818
21
-94.7299999999999898
0
LINE
8
BLACK
6
CONTINUOUS
10
205.8949999999999818
20
-94.7299999999999898
11
207.1449999999999818
21
-94.7299999999999898
0
LINE
8
BLACK
6
CONTINUOUS
10
207.1449999999999818
20
-94.7299999999999898
11
207.2024030000000039
21
-94.7414179999999959
0
LINE
8
BLACK
6
CONTINUOUS
10
207.2024030000000039
20
-93.7414179999999959
11
207.2510659999999802
21
-93.773933999999997
0
LINE
8
BLACK
6
CONTINUOUS
10
207.2510659999999802
20
-93.773933999999997
11
207.2835819999999956
21
-93.8225970000000018
0
LINE
8
BLACK
6
CONTINUOUS
10
207.2835819999999956
20
-93.8225970000000018
11
207.2949999999999875
21
-93.8799999999999955
0
LINE
8
BLACK
6
CONTINUOUS
10
207.2949999999999875
20
-93.8799999999999955
11
207.2949999999999875
21
-94.1799999999999926
0
LINE
8
BLACK
6
CONTINUOUS
10
207.2949999999999875
20
-94.1799999999999926
11
207.2835819999999956
21
-94.2374030000000005
0
LINE
8
BLACK
6
CONTINUOUS
10
207.2835819999999956
20
-94.2374030000000005
11
207.2510659999999802
21
-94.286065999999991
0
LINE
8
BLACK
6
CONTINUOUS
10
207.2510659999999802
20
-94.286065999999991
11
207.2024030000000039
21
-94.3185819999999921
0
LINE
8
BLACK
6
CONTINUOUS
10
207.2024030000000039
20
-94.3185819999999921
11
207.1449999999999818
21
-94.3299999999999983
0
LINE
8
BLACK
6
CONTINUOUS
10
207.1449999999999818
20
-94.3299999999999983
11
205.8949999999999818
21
-94.3299999999999983
0
LINE
8
BLACK
6
CONTINUOUS
10
205.8949999999999818
20
-94.3299999999999983
11
205.8375969999999882
21
-94.3185819999999921
0
LINE
8
BLACK
6
CONTINUOUS
10
205.8375969999999882
20
-94.3185819999999921
11
205.7889339999999834
21
-94.286065999999991
0
LINE
8
BLACK
6
CONTINUOUS
10
205.7889339999999834
20
-94.286065999999991
11
205.7564179999999965
21
-94.2374030000000005
0
LINE
8
BLACK
6
CONTINUOUS
10
205.7564179999999965
20
-94.2374030000000005
11
205.7450000000000045
21
-94.1799999999999926
0
LINE
8
BLACK
6
CONTINUOUS
10
205.7450000000000045
20
-94.1799999999999926
11
205.7450000000000045
21
-93.8799999999999955
0
LINE
8
BLACK
6
CONTINUOUS
10
205.7450000000000045
20
-93.8799999999999955
11
205.7564179999999965
21
-93.8225970000000018
0
LINE
8
BLACK
6
CONTINUOUS
10
205.7564179999999965
20
-93.8225970000000018
11
205.7889339999999834
21
-93.773933999999997
0
LINE
8
BLACK
6
CONTINUOUS
10
205.7889339999999834
20
-93.773933999999997
11
205.8375969999999882
21
-93.7414179999999959
0
LINE
8
BLACK
6
CONTINUOUS
10
205.8375969999999882
20
-93.7414179999999959
11
205.8949999999999818
21
-93.7299999999999898
0
LINE
8
BLACK
6
CONTINUOUS
10
205.8949999999999818
20
-93.7299999999999898
11
207.1449999999999818
21
-93.7299999999999898
0
LINE
8
BLACK
6
CONTINUOUS
10
207.1449999999999818
20
-93.7299999999999898
11
207.2024030000000039
21
-93.7414179999999959
0
LINE
8
BLACK
6
CONTINUOUS
10
211.1406709999999975
20
-92.1490299999999962
11
211.221777000000003
21
-92.2032229999999942
0
LINE
8
BLACK
6
CONTINUOUS
10
211.221777000000003
20
-92.2032229999999942
11
211.2759700000000009
21
-92.2843289999999996
0
LINE
8
BLACK
6
CONTINUOUS
10
211.2759700000000009
20
-92.2843289999999996
11
211.2949999999999875
21
-92.3799999999999955
0
LINE
8
BLACK
6
CONTINUOUS
10
211.2949999999999875
20
-92.3799999999999955
11
211.2949999999999875
21
-93.0799999999999983
0
LINE
8
BLACK
6
CONTINUOUS
10
211.2949999999999875
20
-93.0799999999999983
11
211.2759700000000009
21
-93.1756709999999941
0
LINE
8
BLACK
6
CONTINUOUS
10
211.2759700000000009
20
-93.1756709999999941
11
211.221777000000003
21
-93.2567769999999996
0
LINE
8
BLACK
6
CONTINUOUS
10
211.221777000000003
20
-93.2567769999999996
11
211.1406709999999975
21
-93.3109699999999975
0
LINE
8
BLACK
6
CONTINUOUS
10
211.1406709999999975
20
-93.3109699999999975
11
211.0449999999999875
21
-93.3299999999999983
0
LINE
8
BLACK
6
CONTINUOUS
10
211.0449999999999875
20
-93.3299999999999983
11
209.7450000000000045
21
-93.3299999999999983
0
LINE
8
BLACK
6
CONTINUOUS
10
209.7450000000000045
20
-93.3299999999999983
11
209.6493289999999945
21
-93.3109699999999975
0
LINE
8
BLACK
6
CONTINUOUS
10
209.6493289999999945
20
-93.3109699999999975
11
209.568222999999989
21
-93.2567769999999996
0
LINE
8
BLACK
6
CONTINUOUS
10
209.568222999999989
20
-93.2567769999999996
11
209.5140299999999911
21
-93.1756709999999941
0
LINE
8
BLACK
6
CONTINUOUS
10
209.5140299999999911
20
-93.1756709999999941
11
209.4950000000000045
21
-93.0799999999999983
0
LINE
8
BLACK
6
CONTINUOUS
10
209.4950000000000045
20
-93.0799999999999983
11
209.4950000000000045
21
-92.3799999999999955
0
LINE
8
BLACK
6
CONTINUOUS
10
209.4950000000000045
20
-92.3799999999999955
11
209.5140299999999911
21
-92.2843289999999996
0
LINE
8
BLACK
6
CONTINUOUS
10
209.5140299999999911
20
-92.2843289999999996
11
209.568222999999989
21
-92.2032229999999942
0
LINE
8
BLACK
6
CONTINUOUS
10
209.568222999999989
20
-92.2032229999999942
11
209.6493289999999945
21
-92.1490299999999962
0
LINE
8
BLACK
6
CONTINUOUS
10
209.6493289999999945
20
-92.1490299999999962
11
209.7450000000000045
21
-92.1299999999999955
0
LINE
8
BLACK
6
CONTINUOUS
10
209.7450000000000045
20
-92.1299999999999955
11
211.0449999999999875
21
-92.1299999999999955
0
LINE
8
BLACK
6
CONTINUOUS
10
211.0449999999999875
20
-92.1299999999999955
11
211.1406709999999975
21
-92.1490299999999962
0
LINE
8
BLACK
6
CONTINUOUS
10
170.6765369999999962
20
-90.4552240000000012
11
170.7414210000000026
21
-90.4985789999999923
0
LINE
8
BLACK
6
CONTINUOUS
10
170.7414210000000026
20
-90.4985789999999923
11
170.7847759999999937
21
-90.5634629999999987
0
LINE
8
BLACK
6
CONTINUOUS
10
170.7847759999999937
20
-90.5634629999999987
11
170.7999999999999829
21
-90.6400000000000006
0
LINE
8
BLACK
6
CONTINUOUS
10
170.7999999999999829
20
-90.6400000000000006
11
170.7999999999999829
21
-91.2399999999999949
0
LINE
8
BLACK
6
CONTINUOUS
10
170.7999999999999829
20
-91.2399999999999949
11
170.7847759999999937
21
-91.3165369999999967
0
LINE
8
BLACK
6
CONTINUOUS
10
170.7847759999999937
20
-91.3165369999999967
11
170.7414210000000026
21
-91.3814209999999889
0
LINE
8
BLACK
6
CONTINUOUS
10
170.7414210000000026
20
-91.3814209999999889
11
170.6765369999999962
21
-91.4247759999999943
0
LINE
8
BLACK
6
CONTINUOUS
10
170.6765369999999962
20
-91.4247759999999943
11
170.5999999999999943
21
-91.4399999999999977
0
LINE
8
BLACK
6
CONTINUOUS
10
170.5999999999999943
20
-91.4399999999999977
11
168.5
21
-91.4399999999999977
0
LINE
8
BLACK
6
CONTINUOUS
10
168.5
20
-91.4399999999999977
11
168.4234629999999981
21
-91.4247759999999943
0
LINE
8
BLACK
6
CONTINUOUS
10
168.4234629999999981
20
-91.4247759999999943
11
168.3585789999999918
21
-91.3814209999999889
0
LINE
8
BLACK
6
CONTINUOUS
10
168.3585789999999918
20
-91.3814209999999889
11
168.3152240000000006
21
-91.3165369999999967
0
LINE
8
BLACK
6
CONTINUOUS
10
168.3152240000000006
20
-91.3165369999999967
11
168.2999999999999829
21
-91.2399999999999949
0
LINE
8
BLACK
6
CONTINUOUS
10
168.2999999999999829
20
-91.2399999999999949
11
168.2999999999999829
21
-90.6400000000000006
0
LINE
8
BLACK
6
CONTINUOUS
10
168.2999999999999829
20
-90.6400000000000006
11
168.3152240000000006
21
-90.5634629999999987
0
LINE
8
BLACK
6
CONTINUOUS
10
168.3152240000000006
20
-90.5634629999999987
11
168.3585789999999918
21
-90.4985789999999923
0
LINE
8
BLACK
6
CONTINUOUS
10
168.3585789999999918
20
-90.4985789999999923
11
168.4234629999999981
21
-90.4552240000000012
0
LINE
8
BLACK
6
CONTINUOUS
10
168.4234629999999981
20
-90.4552240000000012
11
168.5
21
-90.4399999999999977
0
LINE
8
BLACK
6
CONTINUOUS
10
168.5
20
-90.4399999999999977
11
170.5999999999999943
21
-90.4399999999999977
0
LINE
8
BLACK
6
CONTINUOUS
10
170.5999999999999943
20
-90.4399999999999977
11
170.6765369999999962
21
-90.4552240000000012
0
LINE
8
BLACK
6
CONTINUOUS
10
166.9722079999999949
20
-89.5242539999999991
11
167.0739429999999857
21
-89.5829909999999927
0
LINE
8
BLACK
6
CONTINUOUS
10
167.0739429999999857
20
-89.5829909999999927
11
167.157008999999988
21
-89.666056999999995
0
LINE
8
BLACK
6
CONTINUOUS
10
167.157008999999988
20
-89.666056999999995
11
167.2157459999999958
21
-89.767792
0
LINE
8
BLACK
6
CONTINUOUS
10
167.2157459999999958
20
-89.767792
11
167.2461500000000001
21
-89.8812629999999899
0
LINE
8
BLACK
6
CONTINUOUS
10
167.2461500000000001
20
-89.8812629999999899
11
167.2461500000000001
21
-89.9987369999999913
0
LINE
8
BLACK
6
CONTINUOUS
10
167.2461500000000001
20
-89.9987369999999913
11
167.2157459999999958
21
-90.1122079999999954
0
LINE
8
BLACK
6
CONTINUOUS
10
167.2157459999999958
20
-90.1122079999999954
11
167.157008999999988
21
-90.2139430000000004
0
LINE
8
BLACK
6
CONTINUOUS
10
167.157008999999988
20
-90.2139430000000004
11
167.0739429999999857
21
-90.2970090000000027
0
LINE
8
BLACK
6
CONTINUOUS
10
167.0739429999999857
20
-90.2970090000000027
11
166.9722079999999949
21
-90.3557459999999963
0
LINE
8
BLACK
6
CONTINUOUS
10
166.9722079999999949
20
-90.3557459999999963
11
166.8587369999999908
21
-90.3861500000000007
0
LINE
8
BLACK
6
CONTINUOUS
10
166.8587369999999908
20
-90.3861500000000007
11
166.7412630000000036
21
-90.3861500000000007
0
LINE
8
BLACK
6
CONTINUOUS
10
166.7412630000000036
20
-90.3861500000000007
11
166.6277919999999995
21
-90.3557459999999963
0
LINE
8
BLACK
6
CONTINUOUS
10
166.6277919999999995
20
-90.3557459999999963
11
166.5260569999999802
21
-90.2970090000000027
0
LINE
8
BLACK
6
CONTINUOUS
10
166.5260569999999802
20
-90.2970090000000027
11
166.4429910000000064
21
-90.2139430000000004
0
LINE
8
BLACK
6
CONTINUOUS
10
166.4429910000000064
20
-90.2139430000000004
11
166.3842539999999985
21
-90.1122079999999954
0
LINE
8
BLACK
6
CONTINUOUS
10
166.3842539999999985
20
-90.1122079999999954
11
166.3538499999999942
21
-89.9987369999999913
0
LINE
8
BLACK
6
CONTINUOUS
10
166.3538499999999942
20
-89.9987369999999913
11
166.3538499999999942
21
-89.8812629999999899
0
LINE
8
BLACK
6
CONTINUOUS
10
166.3538499999999942
20
-89.8812629999999899
11
166.3842539999999985
21
-89.767792
0
LINE
8
BLACK
6
CONTINUOUS
10
166.3842539999999985
20
-89.767792
11
166.4429910000000064
21
-89.666056999999995
0
LINE
8
BLACK
6
CONTINUOUS
10
166.4429910000000064
20
-89.666056999999995
11
166.5260569999999802
21
-89.5829909999999927
0
LINE
8
BLACK
6
CONTINUOUS
10
166.5260569999999802
20
-89.5829909999999927
11
166.6277919999999995
21
-89.5242539999999991
0
LINE
8
BLACK
6
CONTINUOUS
10
166.6277919999999995
20
-89.5242539999999991
11
166.7412630000000036
21
-89.4938499999999948
0
LINE
8
BLACK
6
CONTINUOUS
10
166.7412630000000036
20
-89.4938499999999948
11
166.8587369999999908
21
-89.4938499999999948
0
LINE
8
BLACK
6
CONTINUOUS
10
166.8587369999999908
20
-89.4938499999999948
11
166.9722079999999949
21
-89.5242539999999991
0
LINE
8
BLACK
6
CONTINUOUS
10
170.6765369999999962
20
-87.9552240000000012
11
170.7414210000000026
21
-87.9985789999999923
0
LINE
8
BLACK
6
CONTINUOUS
10
170.7414210000000026
20
-87.9985789999999923
11
170.7847759999999937
21
-88.0634629999999987
0
LINE
8
BLACK
6
CONTINUOUS
10
170.7847759999999937
20
-88.0634629999999987
11
170.7999999999999829
21
-88.1400000000000006
0
LINE
8
BLACK
6
CONTINUOUS
10
170.7999999999999829
20
-88.1400000000000006
11
170.7999999999999829
21
-88.7399999999999949
0
LINE
8
BLACK
6
CONTINUOUS
10
170.7999999999999829
20
-88.7399999999999949
11
170.7847759999999937
21
-88.8165369999999967
0
LINE
8
BLACK
6
CONTINUOUS
10
170.7847759999999937
20
-88.8165369999999967
11
170.7414210000000026
21
-88.8814209999999889
0
LINE
8
BLACK
6
CONTINUOUS
10
170.7414210000000026
20
-88.8814209999999889
11
170.6765369999999962
21
-88.9247759999999943
0
LINE
8
BLACK
6
CONTINUOUS
10
170.6765369999999962
20
-88.9247759999999943
11
170.5999999999999943
21
-88.9399999999999977
0
LINE
8
BLACK
6
CONTINUOUS
10
170.5999999999999943
20
-88.9399999999999977
11
168.5
21
-88.9399999999999977
0
LINE
8
BLACK
6
CONTINUOUS
10
168.5
20
-88.9399999999999977
11
168.4234629999999981
21
-88.9247759999999943
0
LINE
8
BLACK
6
CONTINUOUS
10
168.4234629999999981
20
-88.9247759999999943
11
168.3585789999999918
21
-88.8814209999999889
0
LINE
8
BLACK
6
CONTINUOUS
10
168.3585789999999918
20
-88.8814209999999889
11
168.3152240000000006
21
-88.8165369999999967
0
LINE
8
BLACK
6
CONTINUOUS
10
168.3152240000000006
20
-88.8165369999999967
11
168.2999999999999829
21
-88.7399999999999949
0
LINE
8
BLACK
6
CONTINUOUS
10
168.2999999999999829
20
-88.7399999999999949
11
168.2999999999999829
21
-88.1400000000000006
0
LINE
8
BLACK
6
CONTINUOUS
10
168.2999999999999829
20
-88.1400000000000006
11
168.3152240000000006
21
-88.0634629999999987
0
LINE
8
BLACK
6
CONTINUOUS
10
168.3152240000000006
20
-88.0634629999999987
11
168.3585789999999918
21
-87.9985789999999923
0
LINE
8
BLACK
6
CONTINUOUS
10
168.3585789999999918
20
-87.9985789999999923
11
168.4234629999999981
21
-87.9552240000000012
0
LINE
8
BLACK
6
CONTINUOUS
10
168.4234629999999981
20
-87.9552240000000012
11
168.5
21
-87.9399999999999977
0
LINE
8
BLACK
6
CONTINUOUS
10
168.5
20
-87.9399999999999977
11
170.5999999999999943
21
-87.9399999999999977
0
LINE
8
BLACK
6
CONTINUOUS
10
170.5999999999999943
20
-87.9399999999999977
11
170.6765369999999962
21
-87.9552240000000012
0
LINE
8
BLACK
6
CONTINUOUS
10
166.9722079999999949
20
-86.5242539999999991
11
167.0739429999999857
21
-86.5829909999999927
0
LINE
8
BLACK
6
CONTINUOUS
10
167.0739429999999857
20
-86.5829909999999927
11
167.157008999999988
21
-86.666056999999995
0
LINE
8
BLACK
6
CONTINUOUS
10
167.157008999999988
20
-86.666056999999995
11
167.2157459999999958
21
-86.767792
0
LINE
8
BLACK
6
CONTINUOUS
10
167.2157459999999958
20
-86.767792
11
167.2461500000000001
21
-86.8812629999999899
0
LINE
8
BLACK
6
CONTINUOUS
10
167.2461500000000001
20
-86.8812629999999899
11
167.2461500000000001
21
-86.9987369999999913
0
LINE
8
BLACK
6
CONTINUOUS
10
167.2461500000000001
20
-86.9987369999999913
11
167.2157459999999958
21
-87.1122079999999954
0
LINE
8
BLACK
6
CONTINUOUS
10
167.2157459999999958
20
-87.1122079999999954
11
167.157008999999988
21
-87.2139430000000004
0
LINE
8
BLACK
6
CONTINUOUS
10
167.157008999999988
20
-87.2139430000000004
11
167.0739429999999857
21
-87.2970090000000027
0
LINE
8
BLACK
6
CONTINUOUS
10
167.0739429999999857
20
-87.2970090000000027
11
166.9722079999999949
21
-87.3557459999999963
0
LINE
8
BLACK
6
CONTINUOUS
10
166.9722079999999949
20
-87.3557459999999963
11
166.8587369999999908
21
-87.3861500000000007
0
LINE
8
BLACK
6
CONTINUOUS
10
166.8587369999999908
20
-87.3861500000000007
11
166.7412630000000036
21
-87.3861500000000007
0
LINE
8
BLACK
6
CONTINUOUS
10
166.7412630000000036
20
-87.3861500000000007
11
166.6277919999999995
21
-87.3557459999999963
0
LINE
8
BLACK
6
CONTINUOUS
10
166.6277919999999995
20
-87.3557459999999963
11
166.5260569999999802
21
-87.2970090000000027
0
LINE
8
BLACK
6
CONTINUOUS
10
166.5260569999999802
20
-87.2970090000000027
11
166.4429910000000064
21
-87.2139430000000004
0
LINE
8
BLACK
6
CONTINUOUS
10
166.4429910000000064
20
-87.2139430000000004
11
166.3842539999999985
21
-87.1122079999999954
0
LINE
8
BLACK
6
CONTINUOUS
10
166.3842539999999985
20
-87.1122079999999954
11
166.3538499999999942
21
-86.9987369999999913
0
LINE
8
BLACK
6
CONTINUOUS
10
166.3538499999999942
20
-86.9987369999999913
11
166.3538499999999942
21
-86.8812629999999899
0
LINE
8
BLACK
6
CONTINUOUS
10
166.3538499999999942
20
-86.8812629999999899
11
166.3842539999999985
21
-86.767792
0
LINE
8
BLACK
6
CONTINUOUS
10
166.3842539999999985
20
-86.767792
11
166.4429910000000064
21
-86.666056999999995
0
LINE
8
BLACK
6
CONTINUOUS
10
166.4429910000000064
20
-86.666056999999995
11
166.5260569999999802
21
-86.5829909999999927
0
LINE
8
BLACK
6
CONTINUOUS
10
166.5260569999999802
20
-86.5829909999999927
11
166.6277919999999995
21
-86.5242539999999991
0
LINE
8
BLACK
6
CONTINUOUS
10
166.6277919999999995
20
-86.5242539999999991
11
166.7412630000000036
21
-86.4938499999999948
0
LINE
8
BLACK
6
CONTINUOUS
10
166.7412630000000036
20
-86.4938499999999948
11
166.8587369999999908
21
-86.4938499999999948
0
LINE
8
BLACK
6
CONTINUOUS
10
166.8587369999999908
20
-86.4938499999999948
11
166.9722079999999949
21
-86.5242539999999991
0
LINE
8
BLACK
6
CONTINUOUS
10
170.6765369999999962
20
-85.4552240000000012
11
170.7414210000000026
21
-85.4985789999999923
0
LINE
8
BLACK
6
CONTINUOUS
10
170.7414210000000026
20
-85.4985789999999923
11
170.7847759999999937
21
-85.5634629999999987
0
LINE
8
BLACK
6
CONTINUOUS
10
170.7847759999999937
20
-85.5634629999999987
11
170.7999999999999829
21
-85.6400000000000006
0
LINE
8
BLACK
6
CONTINUOUS
10
170.7999999999999829
20
-85.6400000000000006
11
170.7999999999999829
21
-86.2399999999999949
0
LINE
8
BLACK
6
CONTINUOUS
10
170.7999999999999829
20
-86.2399999999999949
11
170.7847759999999937
21
-86.3165369999999967
0
LINE
8
BLACK
6
CONTINUOUS
10
170.7847759999999937
20
-86.3165369999999967
11
170.7414210000000026
21
-86.3814210000000031
0
LINE
8
BLACK
6
CONTINUOUS
10
170.7414210000000026
20
-86.3814210000000031
11
170.6765369999999962
21
-86.4247759999999943
0
LINE
8
BLACK
6
CONTINUOUS
10
170.6765369999999962
20
-86.4247759999999943
11
170.5999999999999943
21
-86.4399999999999977
0
LINE
8
BLACK
6
CONTINUOUS
10
170.5999999999999943
20
-86.4399999999999977
11
168.5
21
-86.4399999999999977
0
LINE
8
BLACK
6
CONTINUOUS
10
168.5
20
-86.4399999999999977
11
168.4234629999999981
21
-86.4247759999999943
0
LINE
8
BLACK
6
CONTINUOUS
10
168.4234629999999981
20
-86.4247759999999943
11
168.3585789999999918
21
-86.3814210000000031
0
LINE
8
BLACK
6
CONTINUOUS
10
168.3585789999999918
20
-86.3814210000000031
11
168.3152240000000006
21
-86.3165369999999967
0
LINE
8
BLACK
6
CONTINUOUS
10
168.3152240000000006
20
-86.3165369999999967
11
168.2999999999999829
21
-86.2399999999999949
0
LINE
8
BLACK
6
CONTINUOUS
10
168.2999999999999829
20
-86.2399999999999949
11
168.2999999999999829
21
-85.6400000000000006
0
LINE
8
BLACK
6
CONTINUOUS
10
168.2999999999999829
20
-85.6400000000000006
11
168.3152240000000006
21
-85.5634629999999987
0
LINE
8
BLACK
6
CONTINUOUS
10
168.3152240000000006
20
-85.5634629999999987
11
168.3585789999999918
21
-85.4985789999999923
0
LINE
8
BLACK
6
CONTINUOUS
10
168.3585789999999918
20
-85.4985789999999923
11
168.4234629999999981
21
-85.4552240000000012
0
LINE
8
BLACK
6
CONTINUOUS
10
168.4234629999999981
20
-85.4552240000000012
11
168.5
21
-85.4399999999999977
0
LINE
8
BLACK
6
CONTINUOUS
10
168.5
20
-85.4399999999999977
11
170.5999999999999943
21
-85.4399999999999977
0
LINE
8
BLACK
6
CONTINUOUS
10
170.5999999999999943
20
-85.4399999999999977
11
170.6765369999999962
21
-85.4552240000000012
0
LINE
8
BLACK
6
CONTINUOUS
10
214.8256700000000023
20
-84.4190299999999922
11
214.9067759999999794
21
-84.4732240000000019
0
LINE
8
BLACK
6
CONTINUOUS
10
214.9067759999999794
20
-84.4732240000000019
11
214.9609700000000032
21
-84.5543299999999931
0
LINE
8
BLACK
6
CONTINUOUS
10
214.9609700000000032
20
-84.5543299999999931
11
214.9799989999999923
21
-84.6500020000000006
0
LINE
8
BLACK
6
CONTINUOUS
10
214.9799989999999923
20
-84.6500020000000006
11
214.9799999999999898
21
-85.649998999999994
0
LINE
8
BLACK
6
CONTINUOUS
10
214.9799999999999898
20
-85.649998999999994
11
214.9609700000000032
21
-85.7456699999999898
0
LINE
8
BLACK
6
CONTINUOUS
10
214.9609700000000032
20
-85.7456699999999898
11
214.9067759999999794
21
-85.8267759999999953
0
LINE
8
BLACK
6
CONTINUOUS
10
214.9067759999999794
20
-85.8267759999999953
11
214.8256700000000023
21
-85.8809699999999907
0
LINE
8
BLACK
6
CONTINUOUS
10
214.8256700000000023
20
-85.8809699999999907
11
214.7299979999999948
21
-85.899998999999994
0
LINE
8
BLACK
6
CONTINUOUS
10
214.7299979999999948
20
-85.899998999999994
11
211.8300009999999816
21
-85.8999999999999915
0
LINE
8
BLACK
6
CONTINUOUS
10
211.8300009999999816
20
-85.8999999999999915
11
211.7343299999999999
21
-85.8809699999999907
0
LINE
8
BLACK
6
CONTINUOUS
10
211.7343299999999999
20
-85.8809699999999907
11
211.6532239999999945
21
-85.8267759999999953
0
LINE
8
BLACK
6
CONTINUOUS
10
211.6532239999999945
20
-85.8267759999999953
11
211.5990299999999991
21
-85.7456699999999898
0
LINE
8
BLACK
6
CONTINUOUS
10
211.5990299999999991
20
-85.7456699999999898
11
211.5800009999999816
21
-85.6499979999999965
0
LINE
8
BLACK
6
CONTINUOUS
10
211.5800009999999816
20
-85.6499979999999965
11
211.5799999999999841
21
-84.6500010000000032
0
LINE
8
BLACK
6
CONTINUOUS
10
211.5799999999999841
20
-84.6500010000000032
11
211.5990299999999991
21
-84.5543299999999931
0
LINE
8
BLACK
6
CONTINUOUS
10
211.5990299999999991
20
-84.5543299999999931
11
211.6532239999999945
21
-84.4732240000000019
0
LINE
8
BLACK
6
CONTINUOUS
10
211.6532239999999945
20
-84.4732240000000019
11
211.7343299999999999
21
-84.4190299999999922
0
LINE
8
BLACK
6
CONTINUOUS
10
211.7343299999999999
20
-84.4190299999999922
11
211.830001999999979
21
-84.4000010000000032
0
LINE
8
BLACK
6
CONTINUOUS
10
211.830001999999979
20
-84.4000010000000032
11
214.7299989999999923
21
-84.3999999999999915
0
LINE
8
BLACK
6
CONTINUOUS
10
214.7299989999999923
20
-84.3999999999999915
11
214.8256700000000023
21
-84.4190299999999922
0
LINE
8
BLACK
6
CONTINUOUS
10
209.1256709999999828
20
-82.3190299999999979
11
209.2067769999999882
21
-82.3732229999999959
0
LINE
8
BLACK
6
CONTINUOUS
10
209.2067769999999882
20
-82.3732229999999959
11
209.2609699999999862
21
-82.4543290000000013
0
LINE
8
BLACK
6
CONTINUOUS
10
209.2609699999999862
20
-82.4543290000000013
11
209.2800000000000011
21
-82.5499999999999972
0
LINE
8
BLACK
6
CONTINUOUS
10
209.2800000000000011
20
-82.5499999999999972
11
209.2800000000000011
21
-83.0499999999999972
0
LINE
8
BLACK
6
CONTINUOUS
10
209.2800000000000011
20
-83.0499999999999972
11
209.2609699999999862
21
-83.145670999999993
0
LINE
8
BLACK
6
CONTINUOUS
10
209.2609699999999862
20
-83.145670999999993
11
209.2067769999999882
21
-83.2267769999999985
0
LINE
8
BLACK
6
CONTINUOUS
10
209.2067769999999882
20
-83.2267769999999985
11
209.1256709999999828
21
-83.2809699999999964
0
LINE
8
BLACK
6
CONTINUOUS
10
209.1256709999999828
20
-83.2809699999999964
11
209.0300000000000011
21
-83.2999999999999972
0
LINE
8
BLACK
6
CONTINUOUS
10
209.0300000000000011
20
-83.2999999999999972
11
206.0300000000000011
21
-83.2999999999999972
0
LINE
8
BLACK
6
CONTINUOUS
10
206.0300000000000011
20
-83.2999999999999972
11
205.9343289999999911
21
-83.2809699999999964
0
LINE
8
BLACK
6
CONTINUOUS
10
205.9343289999999911
20
-83.2809699999999964
11
205.8532229999999856
21
-83.2267769999999985
0
LINE
8
BLACK
6
CONTINUOUS
10
205.8532229999999856
20
-83.2267769999999985
11
205.7990299999999877
21
-83.145670999999993
0
LINE
8
BLACK
6
CONTINUOUS
10
205.7990299999999877
20
-83.145670999999993
11
205.7800000000000011
21
-83.0499999999999972
0
LINE
8
BLACK
6
CONTINUOUS
10
205.7800000000000011
20
-83.0499999999999972
11
205.7800000000000011
21
-82.5499999999999972
0
LINE
8
BLACK
6
CONTINUOUS
10
205.7800000000000011
20
-82.5499999999999972
11
205.7990299999999877
21
-82.4543290000000013
0
LINE
8
BLACK
6
CONTINUOUS
10
205.7990299999999877
20
-82.4543290000000013
11
205.8532229999999856
21
-82.3732229999999959
0
LINE
8
BLACK
6
CONTINUOUS
10
205.8532229999999856
20
-82.3732229999999959
11
205.9343289999999911
21
-82.3190299999999979
0
LINE
8
BLACK
6
CONTINUOUS
10
205.9343289999999911
20
-82.3190299999999979
11
206.0300000000000011
21
-82.2999999999999972
0
LINE
8
BLACK
6
CONTINUOUS
10
206.0300000000000011
20
-82.2999999999999972
11
209.0300000000000011
21
-82.2999999999999972
0
LINE
8
BLACK
6
CONTINUOUS
10
209.0300000000000011
20
-82.2999999999999972
11
209.1256709999999828
21
-82.3190299999999979
0
LINE
8
BLACK
6
CONTINUOUS
10
209.1256709999999828
20
-80.3190299999999979
11
209.2067769999999882
21
-80.3732229999999959
0
LINE
8
BLACK
6
CONTINUOUS
10
209.2067769999999882
20
-80.3732229999999959
11
209.2609699999999862
21
-80.4543290000000013
0
LINE
8
BLACK
6
CONTINUOUS
10
209.2609699999999862
20
-80.4543290000000013
11
209.2800000000000011
21
-80.5499999999999972
0
LINE
8
BLACK
6
CONTINUOUS
10
209.2800000000000011
20
-80.5499999999999972
11
209.2800000000000011
21
-81.0499999999999972
0
LINE
8
BLACK
6
CONTINUOUS
10
209.2800000000000011
20
-81.0499999999999972
11
209.2609699999999862
21
-81.145670999999993
0
LINE
8
BLACK
6
CONTINUOUS
10
209.2609699999999862
20
-81.145670999999993
11
209.2067769999999882
21
-81.2267769999999985
0
LINE
8
BLACK
6
CONTINUOUS
10
209.2067769999999882
20
-81.2267769999999985
11
209.1256709999999828
21
-81.2809699999999964
0
LINE
8
BLACK
6
CONTINUOUS
10
209.1256709999999828
20
-81.2809699999999964
11
209.0300000000000011
21
-81.2999999999999972
0
LINE
8
BLACK
6
CONTINUOUS
10
209.0300000000000011
20
-81.2999999999999972
11
206.0300000000000011
21
-81.2999999999999972
0
LINE
8
BLACK
6
CONTINUOUS
10
206.0300000000000011
20
-81.2999999999999972
11
205.9343289999999911
21
-81.2809699999999964
0
LINE
8
BLACK
6
CONTINUOUS
10
205.9343289999999911
20
-81.2809699999999964
11
205.8532229999999856
21
-81.2267769999999985
0
LINE
8
BLACK
6
CONTINUOUS
10
205.8532229999999856
20
-81.2267769999999985
11
205.7990299999999877
21
-81.145670999999993
0
LINE
8
BLACK
6
CONTINUOUS
10
205.7990299999999877
20
-81.145670999999993
11
205.7800000000000011
21
-81.0499999999999972
0
LINE
8
BLACK
6
CONTINUOUS
10
205.7800000000000011
20
-81.0499999999999972
11
205.7800000000000011
21
-80.5499999999999972
0
LINE
8
BLACK
6
CONTINUOUS
10
205.7800000000000011
20
-80.5499999999999972
11
205.7990299999999877
21
-80.4543290000000013
0
LINE
8
BLACK
6
CONTINUOUS
10
205.7990299999999877
20
-80.4543290000000013
11
205.8532229999999856
21
-80.3732229999999959
0
LINE
8
BLACK
6
CONTINUOUS
10
205.8532229999999856
20
-80.3732229999999959
11
205.9343289999999911
21
-80.3190299999999979
0
LINE
8
BLACK
6
CONTINUOUS
10
205.9343289999999911
20
-80.3190299999999979
11
206.0300000000000011
21
-80.2999999999999972
0
LINE
8
BLACK
6
CONTINUOUS
10
206.0300000000000011
20
-80.2999999999999972
11
209.0300000000000011
21
-80.2999999999999972
0
LINE
8
BLACK
6
CONTINUOUS
10
209.0300000000000011
20
-80.2999999999999972
11
209.1256709999999828
21
-80.3190299999999979
0
LINE
8
BLACK
6
CONTINUOUS
10
174.2299999999999898
20
-79.7000000000000028
11
173.2299999999999898
21
-79.7000000000000028
0
LINE
8
BLACK
6
CONTINUOUS
10
173.2299999999999898
20
-79.7000000000000028
11
173.2299999999999898
21
-77.1899999999999977
0
LINE
8
BLACK
6
CONTINUOUS
10
173.2299999999999898
20
-77.1899999999999977
11
174.2299999999999898
21
-77.1899999999999977
0
LINE
8
BLACK
6
CONTINUOUS
10
174.2299999999999898
20
-77.1899999999999977
11
174.2299999999999898
21
-79.7000000000000028
0
LINE
8
BLACK
6
CONTINUOUS
10
176.7699999999999818
20
-79.7000000000000028
11
175.7699999999999818
21
-79.7000000000000028
0
LINE
8
BLACK
6
CONTINUOUS
10
175.7699999999999818
20
-79.7000000000000028
11
175.7699999999999818
21
-77.1899999999999977
0
LINE
8
BLACK
6
CONTINUOUS
10
175.7699999999999818
20
-77.1899999999999977
11
176.7699999999999818
21
-77.1899999999999977
0
LINE
8
BLACK
6
CONTINUOUS
10
176.7699999999999818
20
-77.1899999999999977
11
176.7699999999999818
21
-79.7000000000000028
0
LINE
8
BLACK
6
CONTINUOUS
10
179.3100000000000023
20
-79.7000000000000028
11
178.3100000000000023
21
-79.7000000000000028
0
LINE
8
BLACK
6
CONTINUOUS
10
178.3100000000000023
20
-79.7000000000000028
11
178.3100000000000023
21
-77.1899999999999977
0
LINE
8
BLACK
6
CONTINUOUS
10
178.3100000000000023
20
-77.1899999999999977
11
179.3100000000000023
21
-77.1899999999999977
0
LINE
8
BLACK
6
CONTINUOUS
10
179.3100000000000023
20
-77.1899999999999977
11
179.3100000000000023
21
-79.7000000000000028
0
LINE
8
BLACK
6
CONTINUOUS
10
181.8499999999999943
20
-79.7000000000000028
11
180.8499999999999943
21
-79.7000000000000028
0
LINE
8
BLACK
6
CONTINUOUS
10
180.8499999999999943
20
-79.7000000000000028
11
180.8499999999999943
21
-77.1899999999999977
0
LINE
8
BLACK
6
CONTINUOUS
10
180.8499999999999943
20
-77.1899999999999977
11
181.8499999999999943
21
-77.1899999999999977
0
LINE
8
BLACK
6
CONTINUOUS
10
181.8499999999999943
20
-77.1899999999999977
11
181.8499999999999943
21
-79.7000000000000028
0
LINE
8
BLACK
6
CONTINUOUS
10
184.3899999999999864
20
-79.7000000000000028
11
183.3899999999999864
21
-79.7000000000000028
0
LINE
8
BLACK
6
CONTINUOUS
10
183.3899999999999864
20
-79.7000000000000028
11
183.3899999999999864
21
-77.1899999999999977
0
LINE
8
BLACK
6
CONTINUOUS
10
183.3899999999999864
20
-77.1899999999999977
11
184.3899999999999864
21
-77.1899999999999977
0
LINE
8
BLACK
6
CONTINUOUS
10
184.3899999999999864
20
-77.1899999999999977
11
184.3899999999999864
21
-79.7000000000000028
0
LINE
8
BLACK
6
CONTINUOUS
10
186.9299999999999784
20
-79.7000000000000028
11
185.9299999999999784
21
-79.7000000000000028
0
LINE
8
BLACK
6
CONTINUOUS
10
185.9299999999999784
20
-79.7000000000000028
11
185.9299999999999784
21
-77.1899999999999977
0
LINE
8
BLACK
6
CONTINUOUS
10
185.9299999999999784
20
-77.1899999999999977
11
186.9299999999999784
21
-77.1899999999999977
0
LINE
8
BLACK
6
CONTINUOUS
10
186.9299999999999784
20
-77.1899999999999977
11
186.9299999999999784
21
-79.7000000000000028
0
LINE
8
BLACK
6
CONTINUOUS
10
189.4699999999999989
20
-79.7000000000000028
11
188.4699999999999989
21
-79.7000000000000028
0
LINE
8
BLACK
6
CONTINUOUS
10
188.4699999999999989
20
-79.7000000000000028
11
188.4699999999999989
21
-77.1899999999999977
0
LINE
8
BLACK
6
CONTINUOUS
10
188.4699999999999989
20
-77.1899999999999977
11
189.4699999999999989
21
-77.1899999999999977
0
LINE
8
BLACK
6
CONTINUOUS
10
189.4699999999999989
20
-77.1899999999999977
11
189.4699999999999989
21
-79.7000000000000028
0
LINE
8
BLACK
6
CONTINUOUS
10
192.0099999999999909
20
-79.7000000000000028
11
191.0099999999999909
21
-79.7000000000000028
0
LINE
8
BLACK
6
CONTINUOUS
10
191.0099999999999909
20
-79.7000000000000028
11
191.0099999999999909
21
-77.1899999999999977
0
LINE
8
BLACK
6
CONTINUOUS
10
191.0099999999999909
20
-77.1899999999999977
11
192.0099999999999909
21
-77.1899999999999977
0
LINE
8
BLACK
6
CONTINUOUS
10
192.0099999999999909
20
-77.1899999999999977
11
192.0099999999999909
21
-79.7000000000000028
0
LINE
8
BLACK
6
CONTINUOUS
10
194.5499999999999829
20
-79.7000000000000028
11
193.5499999999999829
21
-79.7000000000000028
0
LINE
8
BLACK
6
CONTINUOUS
10
193.5499999999999829
20
-79.7000000000000028
11
193.5499999999999829
21
-77.1899999999999977
0
LINE
8
BLACK
6
CONTINUOUS
10
193.5499999999999829
20
-77.1899999999999977
11
194.5499999999999829
21
-77.1899999999999977
0
LINE
8
BLACK
6
CONTINUOUS
10
194.5499999999999829
20
-77.1899999999999977
11
194.5499999999999829
21
-79.7000000000000028
0
LINE
8
BLACK
6
CONTINUOUS
10
197.0900000000000034
20
-79.7000000000000028
11
196.0900000000000034
21
-79.7000000000000028
0
LINE
8
BLACK
6
CONTINUOUS
10
196.0900000000000034
20
-79.7000000000000028
11
196.0900000000000034
21
-77.1899999999999977
0
LINE
8
BLACK
6
CONTINUOUS
10
196.0900000000000034
20
-77.1899999999999977
11
197.0900000000000034
21
-77.1899999999999977
0
LINE
8
BLACK
6
CONTINUOUS
10
197.0900000000000034
20
-77.1899999999999977
11
197.0900000000000034
21
-79.7000000000000028
0
LINE
8
BLACK
6
CONTINUOUS
10
199.6299999999999955
20
-79.7000000000000028
11
198.6299999999999955
21
-79.7000000000000028
0
LINE
8
BLACK
6
CONTINUOUS
10
198.6299999999999955
20
-79.7000000000000028
11
198.6299999999999955
21
-77.1899999999999977
0
LINE
8
BLACK
6
CONTINUOUS
10
198.6299999999999955
20
-77.1899999999999977
11
199.6299999999999955
21
-77.1899999999999977
0
LINE
8
BLACK
6
CONTINUOUS
10
199.6299999999999955
20
-77.1899999999999977
11
199.6299999999999955
21
-79.7000000000000028
0
LINE
8
BLACK
6
CONTINUOUS
10
202.1699999999999875
20
-79.7000000000000028
11
201.1699999999999875
21
-79.7000000000000028
0
LINE
8
BLACK
6
CONTINUOUS
10
201.1699999999999875
20
-79.7000000000000028
11
201.1699999999999875
21
-77.1899999999999977
0
LINE
8
BLACK
6
CONTINUOUS
10
201.1699999999999875
20
-77.1899999999999977
11
202.1699999999999875
21
-77.1899999999999977
0
LINE
8
BLACK
6
CONTINUOUS
10
202.1699999999999875
20
-77.1899999999999977
11
202.1699999999999875
21
-79.7000000000000028
0
LINE
8
BLACK
6
CONTINUOUS
10
214.8256700000000023
20
-77.7190299999999894
11
214.9067759999999794
21
-77.773223999999999
0
LINE
8
BLACK
6
CONTINUOUS
10
214.9067759999999794
20
-77.773223999999999
11
214.9609700000000032
21
-77.8543299999999903
0
LINE
8
BLACK
6
CONTINUOUS
10
214.9609700000000032
20
-77.8543299999999903
11
214.9799989999999923
21
-77.9500019999999978
0
LINE
8
BLACK
6
CONTINUOUS
10
214.9799989999999923
20
-77.9500019999999978
11
214.9799999999999898
21
-78.9499989999999912
0
LINE
8
BLACK
6
CONTINUOUS
10
214.9799999999999898
20
-78.9499989999999912
11
214.9609700000000032
21
-79.0456700000000012
0
LINE
8
BLACK
6
CONTINUOUS
10
214.9609700000000032
20
-79.0456700000000012
11
214.9067759999999794
21
-79.1267759999999925
0
LINE
8
BLACK
6
CONTINUOUS
10
214.9067759999999794
20
-79.1267759999999925
11
214.8256700000000023
21
-79.1809700000000021
0
LINE
8
BLACK
6
CONTINUOUS
10
214.8256700000000023
20
-79.1809700000000021
11
214.7299979999999948
21
-79.1999989999999912
0
LINE
8
BLACK
6
CONTINUOUS
10
214.7299979999999948
20
-79.1999989999999912
11
211.8300009999999816
21
-79.2000000000000028
0
LINE
8
BLACK
6
CONTINUOUS
10
211.8300009999999816
20
-79.2000000000000028
11
211.7343299999999999
21
-79.1809700000000021
0
LINE
8
BLACK
6
CONTINUOUS
10
211.7343299999999999
20
-79.1809700000000021
11
211.6532239999999945
21
-79.1267759999999925
0
LINE
8
BLACK
6
CONTINUOUS
10
211.6532239999999945
20
-79.1267759999999925
11
211.5990299999999991
21
-79.0456700000000012
0
LINE
8
BLACK
6
CONTINUOUS
10
211.5990299999999991
20
-79.0456700000000012
11
211.5800009999999816
21
-78.9499979999999937
0
LINE
8
BLACK
6
CONTINUOUS
10
211.5800009999999816
20
-78.9499979999999937
11
211.5799999999999841
21
-77.9500010000000003
0
LINE
8
BLACK
6
CONTINUOUS
10
211.5799999999999841
20
-77.9500010000000003
11
211.5990299999999991
21
-77.8543299999999903
0
LINE
8
BLACK
6
CONTINUOUS
10
211.5990299999999991
20
-77.8543299999999903
11
211.6532239999999945
21
-77.773223999999999
0
LINE
8
BLACK
6
CONTINUOUS
10
211.6532239999999945
20
-77.773223999999999
11
211.7343299999999999
21
-77.7190299999999894
0
LINE
8
BLACK
6
CONTINUOUS
10
211.7343299999999999
20
-77.7190299999999894
11
211.830001999999979
21
-77.7000010000000003
0
LINE
8
BLACK
6
CONTINUOUS
10
211.830001999999979
20
-77.7000010000000003
11
214.7299989999999923
21
-77.7000000000000028
0
LINE
8
BLACK
6
CONTINUOUS
10
214.7299989999999923
20
-77.7000000000000028
11
214.8256700000000023
21
-77.7190299999999894
  0
ENDSEC
  0
EOF
