<?xml version="1.0" standalone="no"?>
<!DOCTYPE svg PUBLIC "-//W3C//DTD SVG 20010904//EN"
 "http://www.w3.org/TR/2001/REC-SVG-20010904/DTD/svg10.dtd">
<svg version="1.0" xmlns="http://www.w3.org/2000/svg"
 width="567.000000pt" height="271.000000pt" viewBox="0 0 567.000000 271.000000"
 preserveAspectRatio="xMidYMid meet">
<metadata>
Created by potrace 1.16, written by Peter Selinger 2001-2019
</metadata>
<g transform="translate(0.000000,271.000000) scale(0.100000,-0.100000)"
fill="#000000" stroke="none">
<path d="M763 2466 l-71 -14 -54 -17 -53 -17 -76 -40 -76 -39 -67 -55 -67 -55
-46 -62 -45 -62 -24 -47 -24 -47 -26 -78 -27 -78 -5 -148 -4 -148 17 -71 17
-72 33 -77 33 -78 65 -113 65 -113 27 -77 27 -77 -4 -98 -4 -98 -62 -184 -62
-184 0 -32 0 -31 12 -12 12 -12 462 0 462 0 10 13 11 13 10 83 11 84 17 36 18
36 160 -3 160 -3 23 18 23 19 14 39 13 40 -5 47 -6 47 33 37 32 37 -5 21 -4
21 -8 18 -7 17 15 0 16 0 15 22 16 22 0 73 0 73 30 0 31 0 29 15 29 15 12 39
11 38 -22 64 -23 64 -47 96 -48 95 -31 53 -31 52 15 59 15 58 0 58 0 59 -20
80 -20 80 -44 90 -45 90 -50 59 -51 60 -52 43 -53 43 -75 39 -75 39 -80 22
-80 21 -125 4 -125 5 -72 -14z M4564 2456 l-31 -14 -21 -27 -21 -27 -7 -34 -6
-34 6 -25 6 -25 30 -34 30 -34 0 -61 0 -61 -315 0 -314 0 -52 -11 -52 -11 -43
-40 -44 -41 -15 -50 -15 -51 0 -640 0 -641 24 -50 23 -50 24 -22 24 -22 37
-16 37 -15 738 0 738 0 40 11 40 11 40 42 41 42 12 41 12 40 0 649 0 649 -24
51 -24 51 -32 23 -31 22 -46 14 -46 14 -329 0 -328 0 0 57 0 57 30 25 31 26
13 39 13 39 -7 34 -8 33 -15 24 -16 23 -34 17 -35 16 -24 0 -23 -1 -31 -13z
m-254 -807 l32 -24 24 -41 24 -41 0 -46 0 -46 -11 -28 -10 -28 -27 -28 -27
-29 -30 -16 -30 -15 -57 0 -57 0 -39 26 -40 26 -22 37 -23 36 -4 47 -5 46 29
54 28 55 45 24 45 24 61 -5 61 -4 33 -24z m787 20 l28 -10 28 -27 29 -27 15
-29 15 -28 1 -52 1 -51 -25 -45 -24 -44 -39 -22 -40 -22 -33 -7 -33 -6 -42 12
-43 11 -41 42 -42 41 -12 42 -13 42 13 47 14 47 30 35 31 35 30 13 30 13 47 1
47 0 28 -11z m-107 -829 l20 -20 0 -30 0 -29 -22 -21 -22 -20 -348 0 -349 0
-24 25 -25 24 0 26 0 25 20 20 20 20 355 0 355 0 20 -20z M2385 1720 l-20 -8
-157 -159 -158 -159 -1 -20 -1 -19 -3 -20 -4 -20 172 -172 171 -173 31 0 31 0
12 12 12 12 0 93 0 93 310 0 310 0 0 -94 0 -94 13 -10 12 -10 24 -7 23 -7 179
179 179 179 0 29 0 29 -172 173 -172 173 -27 0 -28 0 -15 -16 -16 -15 0 -90 0
-89 -310 0 -310 0 0 90 0 90 -20 20 -20 20 -12 -1 -13 0 -20 -9z"/>
</g>
</svg>
