<?xml version="1.0" standalone="no"?>
<!DOCTYPE svg PUBLIC "-//W3C//DTD SVG 20010904//EN"
 "http://www.w3.org/TR/2001/REC-SVG-20010904/DTD/svg10.dtd">
<svg version="1.0" xmlns="http://www.w3.org/2000/svg"
 width="320.000000pt" height="146.000000pt" viewBox="0 0 320.000000 146.000000"
 preserveAspectRatio="xMidYMid meet">
<metadata>
Created by potrace 1.16, written by Peter Selinger 2001-2019
</metadata>
<g transform="translate(0.000000,146.000000) scale(0.100000,-0.100000)"
fill="#000000" stroke="none">
<path d="M590 1299 l-55 -9 -62 -31 -62 -30 -45 -45 -45 -44 -26 -54 -26 -54
-12 -66 -11 -66 11 -64 11 -64 29 -58 c16 -33 44 -88 63 -124 l35 -65 -2 -65
-1 -65 -31 -89 c-17 -50 -31 -98 -31 -108 l0 -18 243 2 242 3 3 25 c1 14 7 42
12 62 l10 37 86 -2 85 -2 15 19 14 20 0 37 0 38 10 6 10 6 0 25 0 25 15 15 15
15 0 35 0 34 13 0 c7 0 21 6 32 14 l18 13 -1 30 -1 31 -42 83 -43 84 -1 90 0
90 -27 57 c-50 106 -121 173 -221 208 l-52 18 -60 5 -60 5 -55 -9z"/>
<path d="M2476 1279 l-26 -20 0 -28 0 -28 21 -27 20 -26 -3 -22 -3 -23 -183
-5 -184 -5 -29 -33 -29 -32 0 -346 0 -346 34 -34 34 -34 381 0 380 0 25 12
c14 6 34 23 43 37 l18 26 3 305 3 305 -6 43 -6 42 -24 28 -23 27 -189 5 -188
5 -3 23 -3 22 26 32 26 31 -6 26 -6 26 -21 18 c-27 22 -49 22 -82 -4z m-107
-396 l21 -18 9 -31 9 -31 -14 -32 -13 -32 -36 -15 -37 -15 -36 18 -37 18 -13
28 -13 28 11 34 12 35 21 15 21 15 37 0 37 0 21 -17z m402 7 c10 -6 26 -24 35
-41 l15 -30 -6 -28 -6 -28 -22 -21 c-12 -11 -32 -23 -44 -26 l-22 -7 -34 15
-35 14 -11 20 c-6 12 -11 36 -11 55 l0 34 25 27 24 26 36 0 c20 0 45 -5 56
-10z m-63 -432 l3 -27 -23 -6 c-13 -3 -97 -4 -187 -3 l-164 3 -10 16 -10 16 6
17 7 16 187 -2 188 -3 3 -27z"/>
<path d="M1318 843 l-88 -88 0 -21 0 -20 89 -87 89 -87 16 6 16 6 0 49 0 49
155 0 155 0 0 -44 0 -44 14 -12 15 -12 13 9 c8 4 51 47 97 95 l83 87 -7 20 -6
20 -86 80 -85 80 -19 -10 -19 -10 0 -44 0 -45 -154 0 -155 0 -3 52 -3 53 -15
3 -15 2 -87 -87z"/>
</g>
</svg>
