  0
SECTION
  2
HEADER
  9
$ANGBASE
  50
0.0
  9
$ANGDIR
  70
1
  9
$MEASUREMENT
  70
1
  0
ENDSEC
  0
SECTION
  2
TABLES
  0
TABLE
  2
LTYPE
  70
4
  0
LTYPE
  5
40F
  2
CONTINUOUS
  70
0
  3
Solid line
  72
65
  73
0
  40
0.0
  0
LTYPE
  5
410
  2
DASHDOT
 70
0
  3
Dash Dot ____ _ ____ _
 72
65
 73
4
 40
2.0
 49
1.25
 49
-0.25
 49
0.25
 49
-0.25
  0
LTYPE
  5
411
  2
DASHED
 70
0
  3
Dashed __ __ __ __ __
 72
65
 73
2
 40
0.75
 49
0.5
 49
-0.25
  0
LTYPE
  5
43B
  2
DOTTED
 70
0
  3
Dotted .  .  .  .
 72
65
 73
2
 40
0.2
 49
0.0
 49
-0.2
  0
ENDTAB
  0
TABLE
  2
STYLE
  70
4
  0
STYLE
  2
KICAD
  70
0
  40
0
  41
1
  42
1
  50
0
  71
0
  3
isocp.shx
  0
STYLE
  2
KICADB
  70
0
  40
0
  41
1
  42
1
  50
0
  71
0
  3
isocp.shx
  0
STYLE
  2
KICADI
  70
0
  40
0
  41
1
  42
1
  50
15
  71
0
  3
isocp.shx
  0
STYLE
  2
KICADBI
  70
0
  40
0
  41
1
  42
1
  50
15
  71
0
  3
isocp.shx
  0
ENDTAB
  0
TABLE
  2
LAYER
  70
1
  0
LAYER
  2
BLACK
  70
0
  62
7
  6
CONTINUOUS
  0
ENDTAB
  0
ENDSEC
  0
SECTION
  2
ENTITIES
0
LINE
8
BLACK
6
CONTINUOUS
10
252.7449999999999761
20
-134.75
11
250.1449999999999818
21
-134.75
0
LINE
8
BLACK
6
CONTINUOUS
10
250.1449999999999818
20
-134.75
11
250.1449999999999818
21
-132.1500000000000057
0
LINE
8
BLACK
6
CONTINUOUS
10
250.1449999999999818
20
-132.1500000000000057
11
252.7449999999999761
21
-132.1500000000000057
0
LINE
8
BLACK
6
CONTINUOUS
10
252.7449999999999761
20
-132.1500000000000057
11
252.7449999999999761
21
-134.75
0
LINE
8
BLACK
6
CONTINUOUS
10
241.1949999999999932
20
-132.5499999999999829
11
238.5949999999999989
21
-132.5499999999999829
0
LINE
8
BLACK
6
CONTINUOUS
10
238.5949999999999989
20
-132.5499999999999829
11
238.5949999999999989
21
-129.9499999999999886
0
LINE
8
BLACK
6
CONTINUOUS
10
238.5949999999999989
20
-129.9499999999999886
11
241.1949999999999932
21
-129.9499999999999886
0
LINE
8
BLACK
6
CONTINUOUS
10
241.1949999999999932
20
-129.9499999999999886
11
241.1949999999999932
21
-132.5499999999999829
0
LINE
8
BLACK
6
CONTINUOUS
10
189.3156709999999805
20
-101.3540299999999945
11
189.3967769999999859
21
-101.4082229999999925
0
LINE
8
BLACK
6
CONTINUOUS
10
189.3967769999999859
20
-101.4082229999999925
11
189.4509699999999839
21
-101.4893289999999979
0
LINE
8
BLACK
6
CONTINUOUS
10
189.4509699999999839
20
-101.4893289999999979
11
189.4699999999999989
21
-101.5849999999999937
0
LINE
8
BLACK
6
CONTINUOUS
10
189.4699999999999989
20
-101.5849999999999937
11
189.4699999999999989
21
-102.8849999999999909
0
LINE
8
BLACK
6
CONTINUOUS
10
189.4699999999999989
20
-102.8849999999999909
11
189.4509699999999839
21
-102.980671000000001
0
LINE
8
BLACK
6
CONTINUOUS
10
189.4509699999999839
20
-102.980671000000001
11
189.3967769999999859
21
-103.0617769999999922
0
LINE
8
BLACK
6
CONTINUOUS
10
189.3967769999999859
20
-103.0617769999999922
11
189.3156709999999805
21
-103.1159699999999901
0
LINE
8
BLACK
6
CONTINUOUS
10
189.3156709999999805
20
-103.1159699999999901
11
189.2199999999999989
21
-103.1349999999999909
0
LINE
8
BLACK
6
CONTINUOUS
10
189.2199999999999989
20
-103.1349999999999909
11
188.5199999999999818
21
-103.1349999999999909
0
LINE
8
BLACK
6
CONTINUOUS
10
188.5199999999999818
20
-103.1349999999999909
11
188.4243290000000002
21
-103.1159699999999901
0
LINE
8
BLACK
6
CONTINUOUS
10
188.4243290000000002
20
-103.1159699999999901
11
188.3432229999999947
21
-103.0617769999999922
0
LINE
8
BLACK
6
CONTINUOUS
10
188.3432229999999947
20
-103.0617769999999922
11
188.2890299999999968
21
-102.980671000000001
0
LINE
8
BLACK
6
CONTINUOUS
10
188.2890299999999968
20
-102.980671000000001
11
188.2699999999999818
21
-102.8849999999999909
0
LINE
8
BLACK
6
CONTINUOUS
10
188.2699999999999818
20
-102.8849999999999909
11
188.2699999999999818
21
-101.5849999999999937
0
LINE
8
BLACK
6
CONTINUOUS
10
188.2699999999999818
20
-101.5849999999999937
11
188.2890299999999968
21
-101.4893289999999979
0
LINE
8
BLACK
6
CONTINUOUS
10
188.2890299999999968
20
-101.4893289999999979
11
188.3432229999999947
21
-101.4082229999999925
0
LINE
8
BLACK
6
CONTINUOUS
10
188.3432229999999947
20
-101.4082229999999925
11
188.4243290000000002
21
-101.3540299999999945
0
LINE
8
BLACK
6
CONTINUOUS
10
188.4243290000000002
20
-101.3540299999999945
11
188.5199999999999818
21
-101.3349999999999937
0
LINE
8
BLACK
6
CONTINUOUS
10
188.5199999999999818
20
-101.3349999999999937
11
189.2199999999999989
21
-101.3349999999999937
0
LINE
8
BLACK
6
CONTINUOUS
10
189.2199999999999989
20
-101.3349999999999937
11
189.3156709999999805
21
-101.3540299999999945
0
LINE
8
BLACK
6
CONTINUOUS
10
194.9156710000000032
20
-101.3540299999999945
11
194.9967769999999803
21
-101.4082229999999925
0
LINE
8
BLACK
6
CONTINUOUS
10
194.9967769999999803
20
-101.4082229999999925
11
195.0509699999999782
21
-101.4893289999999979
0
LINE
8
BLACK
6
CONTINUOUS
10
195.0509699999999782
20
-101.4893289999999979
11
195.0699999999999932
21
-101.5849999999999937
0
LINE
8
BLACK
6
CONTINUOUS
10
195.0699999999999932
20
-101.5849999999999937
11
195.0699999999999932
21
-102.8849999999999909
0
LINE
8
BLACK
6
CONTINUOUS
10
195.0699999999999932
20
-102.8849999999999909
11
195.0509699999999782
21
-102.980671000000001
0
LINE
8
BLACK
6
CONTINUOUS
10
195.0509699999999782
20
-102.980671000000001
11
194.9967769999999803
21
-103.0617769999999922
0
LINE
8
BLACK
6
CONTINUOUS
10
194.9967769999999803
20
-103.0617769999999922
11
194.9156710000000032
21
-103.1159699999999901
0
LINE
8
BLACK
6
CONTINUOUS
10
194.9156710000000032
20
-103.1159699999999901
11
194.8199999999999932
21
-103.1349999999999909
0
LINE
8
BLACK
6
CONTINUOUS
10
194.8199999999999932
20
-103.1349999999999909
11
194.1200000000000045
21
-103.1349999999999909
0
LINE
8
BLACK
6
CONTINUOUS
10
194.1200000000000045
20
-103.1349999999999909
11
194.0243289999999945
21
-103.1159699999999901
0
LINE
8
BLACK
6
CONTINUOUS
10
194.0243289999999945
20
-103.1159699999999901
11
193.943222999999989
21
-103.0617769999999922
0
LINE
8
BLACK
6
CONTINUOUS
10
193.943222999999989
20
-103.0617769999999922
11
193.8890299999999911
21
-102.980671000000001
0
LINE
8
BLACK
6
CONTINUOUS
10
193.8890299999999911
20
-102.980671000000001
11
193.8700000000000045
21
-102.8849999999999909
0
LINE
8
BLACK
6
CONTINUOUS
10
193.8700000000000045
20
-102.8849999999999909
11
193.8700000000000045
21
-101.5849999999999937
0
LINE
8
BLACK
6
CONTINUOUS
10
193.8700000000000045
20
-101.5849999999999937
11
193.8890299999999911
21
-101.4893289999999979
0
LINE
8
BLACK
6
CONTINUOUS
10
193.8890299999999911
20
-101.4893289999999979
11
193.943222999999989
21
-101.4082229999999925
0
LINE
8
BLACK
6
CONTINUOUS
10
193.943222999999989
20
-101.4082229999999925
11
194.0243289999999945
21
-101.3540299999999945
0
LINE
8
BLACK
6
CONTINUOUS
10
194.0243289999999945
20
-101.3540299999999945
11
194.1200000000000045
21
-101.3349999999999937
0
LINE
8
BLACK
6
CONTINUOUS
10
194.1200000000000045
20
-101.3349999999999937
11
194.8199999999999932
21
-101.3349999999999937
0
LINE
8
BLACK
6
CONTINUOUS
10
194.8199999999999932
20
-101.3349999999999937
11
194.9156710000000032
21
-101.3540299999999945
0
LINE
8
BLACK
6
CONTINUOUS
10
190.3774029999999868
20
-97.5964179999999999
11
190.4260659999999916
21
-97.628934000000001
0
LINE
8
BLACK
6
CONTINUOUS
10
190.4260659999999916
20
-97.628934000000001
11
190.4585819999999785
21
-97.6775969999999916
0
LINE
8
BLACK
6
CONTINUOUS
10
190.4585819999999785
20
-97.6775969999999916
11
190.4699999999999989
21
-97.7349999999999994
0
LINE
8
BLACK
6
CONTINUOUS
10
190.4699999999999989
20
-97.7349999999999994
11
190.4699999999999989
21
-98.9849999999999994
0
LINE
8
BLACK
6
CONTINUOUS
10
190.4699999999999989
20
-98.9849999999999994
11
190.4585819999999785
21
-99.0424029999999931
0
LINE
8
BLACK
6
CONTINUOUS
10
190.4585819999999785
20
-99.0424029999999931
11
190.4260659999999916
21
-99.0910659999999979
0
LINE
8
BLACK
6
CONTINUOUS
10
190.4260659999999916
20
-99.0910659999999979
11
190.3774029999999868
21
-99.123581999999999
0
LINE
8
BLACK
6
CONTINUOUS
10
190.3774029999999868
20
-99.123581999999999
11
190.3199999999999932
21
-99.1349999999999909
0
LINE
8
BLACK
6
CONTINUOUS
10
190.3199999999999932
20
-99.1349999999999909
11
190.0199999999999818
21
-99.1349999999999909
0
LINE
8
BLACK
6
CONTINUOUS
10
190.0199999999999818
20
-99.1349999999999909
11
189.9625969999999882
21
-99.123581999999999
0
LINE
8
BLACK
6
CONTINUOUS
10
189.9625969999999882
20
-99.123581999999999
11
189.9139339999999834
21
-99.0910659999999979
0
LINE
8
BLACK
6
CONTINUOUS
10
189.9139339999999834
20
-99.0910659999999979
11
189.8814179999999965
21
-99.0424029999999931
0
LINE
8
BLACK
6
CONTINUOUS
10
189.8814179999999965
20
-99.0424029999999931
11
189.8700000000000045
21
-98.9849999999999994
0
LINE
8
BLACK
6
CONTINUOUS
10
189.8700000000000045
20
-98.9849999999999994
11
189.8700000000000045
21
-97.7349999999999994
0
LINE
8
BLACK
6
CONTINUOUS
10
189.8700000000000045
20
-97.7349999999999994
11
189.8814179999999965
21
-97.6775969999999916
0
LINE
8
BLACK
6
CONTINUOUS
10
189.8814179999999965
20
-97.6775969999999916
11
189.9139339999999834
21
-97.628934000000001
0
LINE
8
BLACK
6
CONTINUOUS
10
189.9139339999999834
20
-97.628934000000001
11
189.9625969999999882
21
-97.5964179999999999
0
LINE
8
BLACK
6
CONTINUOUS
10
189.9625969999999882
20
-97.5964179999999999
11
190.0199999999999818
21
-97.5849999999999937
0
LINE
8
BLACK
6
CONTINUOUS
10
190.0199999999999818
20
-97.5849999999999937
11
190.3199999999999932
21
-97.5849999999999937
0
LINE
8
BLACK
6
CONTINUOUS
10
190.3199999999999932
20
-97.5849999999999937
11
190.3774029999999868
21
-97.5964179999999999
0
LINE
8
BLACK
6
CONTINUOUS
10
191.3774029999999868
20
-97.5964179999999999
11
191.4260659999999916
21
-97.628934000000001
0
LINE
8
BLACK
6
CONTINUOUS
10
191.4260659999999916
20
-97.628934000000001
11
191.4585819999999785
21
-97.6775969999999916
0
LINE
8
BLACK
6
CONTINUOUS
10
191.4585819999999785
20
-97.6775969999999916
11
191.4699999999999989
21
-97.7349999999999994
0
LINE
8
BLACK
6
CONTINUOUS
10
191.4699999999999989
20
-97.7349999999999994
11
191.4699999999999989
21
-98.9849999999999994
0
LINE
8
BLACK
6
CONTINUOUS
10
191.4699999999999989
20
-98.9849999999999994
11
191.4585819999999785
21
-99.0424029999999931
0
LINE
8
BLACK
6
CONTINUOUS
10
191.4585819999999785
20
-99.0424029999999931
11
191.4260659999999916
21
-99.0910659999999979
0
LINE
8
BLACK
6
CONTINUOUS
10
191.4260659999999916
20
-99.0910659999999979
11
191.3774029999999868
21
-99.123581999999999
0
LINE
8
BLACK
6
CONTINUOUS
10
191.3774029999999868
20
-99.123581999999999
11
191.3199999999999932
21
-99.1349999999999909
0
LINE
8
BLACK
6
CONTINUOUS
10
191.3199999999999932
20
-99.1349999999999909
11
191.0199999999999818
21
-99.1349999999999909
0
LINE
8
BLACK
6
CONTINUOUS
10
191.0199999999999818
20
-99.1349999999999909
11
190.9625969999999882
21
-99.123581999999999
0
LINE
8
BLACK
6
CONTINUOUS
10
190.9625969999999882
20
-99.123581999999999
11
190.9139339999999834
21
-99.0910659999999979
0
LINE
8
BLACK
6
CONTINUOUS
10
190.9139339999999834
20
-99.0910659999999979
11
190.8814179999999965
21
-99.0424029999999931
0
LINE
8
BLACK
6
CONTINUOUS
10
190.8814179999999965
20
-99.0424029999999931
11
190.8700000000000045
21
-98.9849999999999994
0
LINE
8
BLACK
6
CONTINUOUS
10
190.8700000000000045
20
-98.9849999999999994
11
190.8700000000000045
21
-97.7349999999999994
0
LINE
8
BLACK
6
CONTINUOUS
10
190.8700000000000045
20
-97.7349999999999994
11
190.8814179999999965
21
-97.6775969999999916
0
LINE
8
BLACK
6
CONTINUOUS
10
190.8814179999999965
20
-97.6775969999999916
11
190.9139339999999834
21
-97.628934000000001
0
LINE
8
BLACK
6
CONTINUOUS
10
190.9139339999999834
20
-97.628934000000001
11
190.9625969999999882
21
-97.5964179999999999
0
LINE
8
BLACK
6
CONTINUOUS
10
190.9625969999999882
20
-97.5964179999999999
11
191.0199999999999818
21
-97.5849999999999937
0
LINE
8
BLACK
6
CONTINUOUS
10
191.0199999999999818
20
-97.5849999999999937
11
191.3199999999999932
21
-97.5849999999999937
0
LINE
8
BLACK
6
CONTINUOUS
10
191.3199999999999932
20
-97.5849999999999937
11
191.3774029999999868
21
-97.5964179999999999
0
LINE
8
BLACK
6
CONTINUOUS
10
192.3774029999999868
20
-97.5964179999999999
11
192.4260659999999916
21
-97.628934000000001
0
LINE
8
BLACK
6
CONTINUOUS
10
192.4260659999999916
20
-97.628934000000001
11
192.4585819999999785
21
-97.6775969999999916
0
LINE
8
BLACK
6
CONTINUOUS
10
192.4585819999999785
20
-97.6775969999999916
11
192.4699999999999989
21
-97.7349999999999994
0
LINE
8
BLACK
6
CONTINUOUS
10
192.4699999999999989
20
-97.7349999999999994
11
192.4699999999999989
21
-98.9849999999999994
0
LINE
8
BLACK
6
CONTINUOUS
10
192.4699999999999989
20
-98.9849999999999994
11
192.4585819999999785
21
-99.0424029999999931
0
LINE
8
BLACK
6
CONTINUOUS
10
192.4585819999999785
20
-99.0424029999999931
11
192.4260659999999916
21
-99.0910659999999979
0
LINE
8
BLACK
6
CONTINUOUS
10
192.4260659999999916
20
-99.0910659999999979
11
192.3774029999999868
21
-99.123581999999999
0
LINE
8
BLACK
6
CONTINUOUS
10
192.3774029999999868
20
-99.123581999999999
11
192.3199999999999932
21
-99.1349999999999909
0
LINE
8
BLACK
6
CONTINUOUS
10
192.3199999999999932
20
-99.1349999999999909
11
192.0199999999999818
21
-99.1349999999999909
0
LINE
8
BLACK
6
CONTINUOUS
10
192.0199999999999818
20
-99.1349999999999909
11
191.9625969999999882
21
-99.123581999999999
0
LINE
8
BLACK
6
CONTINUOUS
10
191.9625969999999882
20
-99.123581999999999
11
191.9139339999999834
21
-99.0910659999999979
0
LINE
8
BLACK
6
CONTINUOUS
10
191.9139339999999834
20
-99.0910659999999979
11
191.8814179999999965
21
-99.0424029999999931
0
LINE
8
BLACK
6
CONTINUOUS
10
191.8814179999999965
20
-99.0424029999999931
11
191.8700000000000045
21
-98.9849999999999994
0
LINE
8
BLACK
6
CONTINUOUS
10
191.8700000000000045
20
-98.9849999999999994
11
191.8700000000000045
21
-97.7349999999999994
0
LINE
8
BLACK
6
CONTINUOUS
10
191.8700000000000045
20
-97.7349999999999994
11
191.8814179999999965
21
-97.6775969999999916
0
LINE
8
BLACK
6
CONTINUOUS
10
191.8814179999999965
20
-97.6775969999999916
11
191.9139339999999834
21
-97.628934000000001
0
LINE
8
BLACK
6
CONTINUOUS
10
191.9139339999999834
20
-97.628934000000001
11
191.9625969999999882
21
-97.5964179999999999
0
LINE
8
BLACK
6
CONTINUOUS
10
191.9625969999999882
20
-97.5964179999999999
11
192.0199999999999818
21
-97.5849999999999937
0
LINE
8
BLACK
6
CONTINUOUS
10
192.0199999999999818
20
-97.5849999999999937
11
192.3199999999999932
21
-97.5849999999999937
0
LINE
8
BLACK
6
CONTINUOUS
10
192.3199999999999932
20
-97.5849999999999937
11
192.3774029999999868
21
-97.5964179999999999
0
LINE
8
BLACK
6
CONTINUOUS
10
193.3774029999999868
20
-97.5964179999999999
11
193.4260659999999916
21
-97.628934000000001
0
LINE
8
BLACK
6
CONTINUOUS
10
193.4260659999999916
20
-97.628934000000001
11
193.4585819999999785
21
-97.6775969999999916
0
LINE
8
BLACK
6
CONTINUOUS
10
193.4585819999999785
20
-97.6775969999999916
11
193.4699999999999989
21
-97.7349999999999994
0
LINE
8
BLACK
6
CONTINUOUS
10
193.4699999999999989
20
-97.7349999999999994
11
193.4699999999999989
21
-98.9849999999999994
0
LINE
8
BLACK
6
CONTINUOUS
10
193.4699999999999989
20
-98.9849999999999994
11
193.4585819999999785
21
-99.0424029999999931
0
LINE
8
BLACK
6
CONTINUOUS
10
193.4585819999999785
20
-99.0424029999999931
11
193.4260659999999916
21
-99.0910659999999979
0
LINE
8
BLACK
6
CONTINUOUS
10
193.4260659999999916
20
-99.0910659999999979
11
193.3774029999999868
21
-99.123581999999999
0
LINE
8
BLACK
6
CONTINUOUS
10
193.3774029999999868
20
-99.123581999999999
11
193.3199999999999932
21
-99.1349999999999909
0
LINE
8
BLACK
6
CONTINUOUS
10
193.3199999999999932
20
-99.1349999999999909
11
193.0199999999999818
21
-99.1349999999999909
0
LINE
8
BLACK
6
CONTINUOUS
10
193.0199999999999818
20
-99.1349999999999909
11
192.9625969999999882
21
-99.123581999999999
0
LINE
8
BLACK
6
CONTINUOUS
10
192.9625969999999882
20
-99.123581999999999
11
192.9139339999999834
21
-99.0910659999999979
0
LINE
8
BLACK
6
CONTINUOUS
10
192.9139339999999834
20
-99.0910659999999979
11
192.8814179999999965
21
-99.0424029999999931
0
LINE
8
BLACK
6
CONTINUOUS
10
192.8814179999999965
20
-99.0424029999999931
11
192.8700000000000045
21
-98.9849999999999994
0
LINE
8
BLACK
6
CONTINUOUS
10
192.8700000000000045
20
-98.9849999999999994
11
192.8700000000000045
21
-97.7349999999999994
0
LINE
8
BLACK
6
CONTINUOUS
10
192.8700000000000045
20
-97.7349999999999994
11
192.8814179999999965
21
-97.6775969999999916
0
LINE
8
BLACK
6
CONTINUOUS
10
192.8814179999999965
20
-97.6775969999999916
11
192.9139339999999834
21
-97.628934000000001
0
LINE
8
BLACK
6
CONTINUOUS
10
192.9139339999999834
20
-97.628934000000001
11
192.9625969999999882
21
-97.5964179999999999
0
LINE
8
BLACK
6
CONTINUOUS
10
192.9625969999999882
20
-97.5964179999999999
11
193.0199999999999818
21
-97.5849999999999937
0
LINE
8
BLACK
6
CONTINUOUS
10
193.0199999999999818
20
-97.5849999999999937
11
193.3199999999999932
21
-97.5849999999999937
0
LINE
8
BLACK
6
CONTINUOUS
10
193.3199999999999932
20
-97.5849999999999937
11
193.3774029999999868
21
-97.5964179999999999
0
LINE
8
BLACK
6
CONTINUOUS
10
208.7828349999999773
20
-96.2095149999999961
11
208.8233879999999942
21
-96.2366119999999938
0
LINE
8
BLACK
6
CONTINUOUS
10
208.8233879999999942
20
-96.2366119999999938
11
208.8504849999999919
21
-96.2771649999999966
0
LINE
8
BLACK
6
CONTINUOUS
10
208.8504849999999919
20
-96.2771649999999966
11
208.8599999999999852
21
-96.3249999999999886
0
LINE
8
BLACK
6
CONTINUOUS
10
208.8599999999999852
20
-96.3249999999999886
11
208.8599999999999852
21
-97.9749999999999943
0
LINE
8
BLACK
6
CONTINUOUS
10
208.8599999999999852
20
-97.9749999999999943
11
208.8504849999999919
21
-98.0228350000000006
0
LINE
8
BLACK
6
CONTINUOUS
10
208.8504849999999919
20
-98.0228350000000006
11
208.8233879999999942
21
-98.0633879999999891
0
LINE
8
BLACK
6
CONTINUOUS
10
208.8233879999999942
20
-98.0633879999999891
11
208.7828349999999773
21
-98.090485000000001
0
LINE
8
BLACK
6
CONTINUOUS
10
208.7828349999999773
20
-98.090485000000001
11
208.7349999999999852
21
-98.0999999999999943
0
LINE
8
BLACK
6
CONTINUOUS
10
208.7349999999999852
20
-98.0999999999999943
11
208.4849999999999852
21
-98.0999999999999943
0
LINE
8
BLACK
6
CONTINUOUS
10
208.4849999999999852
20
-98.0999999999999943
11
208.4371649999999931
21
-98.090485000000001
0
LINE
8
BLACK
6
CONTINUOUS
10
208.4371649999999931
20
-98.090485000000001
11
208.3966120000000046
21
-98.0633879999999891
0
LINE
8
BLACK
6
CONTINUOUS
10
208.3966120000000046
20
-98.0633879999999891
11
208.3695149999999785
21
-98.0228350000000006
0
LINE
8
BLACK
6
CONTINUOUS
10
208.3695149999999785
20
-98.0228350000000006
11
208.3599999999999852
21
-97.9749999999999943
0
LINE
8
BLACK
6
CONTINUOUS
10
208.3599999999999852
20
-97.9749999999999943
11
208.3599999999999852
21
-96.3249999999999886
0
LINE
8
BLACK
6
CONTINUOUS
10
208.3599999999999852
20
-96.3249999999999886
11
208.3695149999999785
21
-96.2771649999999966
0
LINE
8
BLACK
6
CONTINUOUS
10
208.3695149999999785
20
-96.2771649999999966
11
208.3966120000000046
21
-96.2366119999999938
0
LINE
8
BLACK
6
CONTINUOUS
10
208.3966120000000046
20
-96.2366119999999938
11
208.4371649999999931
21
-96.2095149999999961
0
LINE
8
BLACK
6
CONTINUOUS
10
208.4371649999999931
20
-96.2095149999999961
11
208.4849999999999852
21
-96.1999999999999886
0
LINE
8
BLACK
6
CONTINUOUS
10
208.4849999999999852
20
-96.1999999999999886
11
208.7349999999999852
21
-96.1999999999999886
0
LINE
8
BLACK
6
CONTINUOUS
10
208.7349999999999852
20
-96.1999999999999886
11
208.7828349999999773
21
-96.2095149999999961
0
LINE
8
BLACK
6
CONTINUOUS
10
209.432834999999983
20
-96.2095149999999961
11
209.4733879999999999
21
-96.2366119999999938
0
LINE
8
BLACK
6
CONTINUOUS
10
209.4733879999999999
20
-96.2366119999999938
11
209.5004849999999976
21
-96.2771649999999966
0
LINE
8
BLACK
6
CONTINUOUS
10
209.5004849999999976
20
-96.2771649999999966
11
209.5099999999999909
21
-96.3249999999999886
0
LINE
8
BLACK
6
CONTINUOUS
10
209.5099999999999909
20
-96.3249999999999886
11
209.5099999999999909
21
-97.9749999999999943
0
LINE
8
BLACK
6
CONTINUOUS
10
209.5099999999999909
20
-97.9749999999999943
11
209.5004849999999976
21
-98.0228350000000006
0
LINE
8
BLACK
6
CONTINUOUS
10
209.5004849999999976
20
-98.0228350000000006
11
209.4733879999999999
21
-98.0633879999999891
0
LINE
8
BLACK
6
CONTINUOUS
10
209.4733879999999999
20
-98.0633879999999891
11
209.432834999999983
21
-98.090485000000001
0
LINE
8
BLACK
6
CONTINUOUS
10
209.432834999999983
20
-98.090485000000001
11
209.3849999999999909
21
-98.0999999999999943
0
LINE
8
BLACK
6
CONTINUOUS
10
209.3849999999999909
20
-98.0999999999999943
11
209.1349999999999909
21
-98.0999999999999943
0
LINE
8
BLACK
6
CONTINUOUS
10
209.1349999999999909
20
-98.0999999999999943
11
209.0871649999999988
21
-98.090485000000001
0
LINE
8
BLACK
6
CONTINUOUS
10
209.0871649999999988
20
-98.090485000000001
11
209.0466119999999819
21
-98.0633879999999891
0
LINE
8
BLACK
6
CONTINUOUS
10
209.0466119999999819
20
-98.0633879999999891
11
209.0195149999999842
21
-98.0228350000000006
0
LINE
8
BLACK
6
CONTINUOUS
10
209.0195149999999842
20
-98.0228350000000006
11
209.0099999999999909
21
-97.9749999999999943
0
LINE
8
BLACK
6
CONTINUOUS
10
209.0099999999999909
20
-97.9749999999999943
11
209.0099999999999909
21
-96.3249999999999886
0
LINE
8
BLACK
6
CONTINUOUS
10
209.0099999999999909
20
-96.3249999999999886
11
209.0195149999999842
21
-96.2771649999999966
0
LINE
8
BLACK
6
CONTINUOUS
10
209.0195149999999842
20
-96.2771649999999966
11
209.0466119999999819
21
-96.2366119999999938
0
LINE
8
BLACK
6
CONTINUOUS
10
209.0466119999999819
20
-96.2366119999999938
11
209.0871649999999988
21
-96.2095149999999961
0
LINE
8
BLACK
6
CONTINUOUS
10
209.0871649999999988
20
-96.2095149999999961
11
209.1349999999999909
21
-96.1999999999999886
0
LINE
8
BLACK
6
CONTINUOUS
10
209.1349999999999909
20
-96.1999999999999886
11
209.3849999999999909
21
-96.1999999999999886
0
LINE
8
BLACK
6
CONTINUOUS
10
209.3849999999999909
20
-96.1999999999999886
11
209.432834999999983
21
-96.2095149999999961
0
LINE
8
BLACK
6
CONTINUOUS
10
210.0828349999999887
20
-96.2095149999999961
11
210.1233879999999772
21
-96.2366119999999938
0
LINE
8
BLACK
6
CONTINUOUS
10
210.1233879999999772
20
-96.2366119999999938
11
210.1504850000000033
21
-96.2771649999999966
0
LINE
8
BLACK
6
CONTINUOUS
10
210.1504850000000033
20
-96.2771649999999966
11
210.1599999999999966
21
-96.3249999999999886
0
LINE
8
BLACK
6
CONTINUOUS
10
210.1599999999999966
20
-96.3249999999999886
11
210.1599999999999966
21
-97.9749999999999943
0
LINE
8
BLACK
6
CONTINUOUS
10
210.1599999999999966
20
-97.9749999999999943
11
210.1504850000000033
21
-98.0228350000000006
0
LINE
8
BLACK
6
CONTINUOUS
10
210.1504850000000033
20
-98.0228350000000006
11
210.1233879999999772
21
-98.0633879999999891
0
LINE
8
BLACK
6
CONTINUOUS
10
210.1233879999999772
20
-98.0633879999999891
11
210.0828349999999887
21
-98.090485000000001
0
LINE
8
BLACK
6
CONTINUOUS
10
210.0828349999999887
20
-98.090485000000001
11
210.0349999999999966
21
-98.0999999999999943
0
LINE
8
BLACK
6
CONTINUOUS
10
210.0349999999999966
20
-98.0999999999999943
11
209.7849999999999966
21
-98.0999999999999943
0
LINE
8
BLACK
6
CONTINUOUS
10
209.7849999999999966
20
-98.0999999999999943
11
209.7371650000000045
21
-98.090485000000001
0
LINE
8
BLACK
6
CONTINUOUS
10
209.7371650000000045
20
-98.090485000000001
11
209.6966119999999876
21
-98.0633879999999891
0
LINE
8
BLACK
6
CONTINUOUS
10
209.6966119999999876
20
-98.0633879999999891
11
209.6695149999999899
21
-98.0228350000000006
0
LINE
8
BLACK
6
CONTINUOUS
10
209.6695149999999899
20
-98.0228350000000006
11
209.6599999999999966
21
-97.9749999999999943
0
LINE
8
BLACK
6
CONTINUOUS
10
209.6599999999999966
20
-97.9749999999999943
11
209.6599999999999966
21
-96.3249999999999886
0
LINE
8
BLACK
6
CONTINUOUS
10
209.6599999999999966
20
-96.3249999999999886
11
209.6695149999999899
21
-96.2771649999999966
0
LINE
8
BLACK
6
CONTINUOUS
10
209.6695149999999899
20
-96.2771649999999966
11
209.6966119999999876
21
-96.2366119999999938
0
LINE
8
BLACK
6
CONTINUOUS
10
209.6966119999999876
20
-96.2366119999999938
11
209.7371650000000045
21
-96.2095149999999961
0
LINE
8
BLACK
6
CONTINUOUS
10
209.7371650000000045
20
-96.2095149999999961
11
209.7849999999999966
21
-96.1999999999999886
0
LINE
8
BLACK
6
CONTINUOUS
10
209.7849999999999966
20
-96.1999999999999886
11
210.0349999999999966
21
-96.1999999999999886
0
LINE
8
BLACK
6
CONTINUOUS
10
210.0349999999999966
20
-96.1999999999999886
11
210.0828349999999887
21
-96.2095149999999961
0
LINE
8
BLACK
6
CONTINUOUS
10
210.7328349999999944
20
-96.2095149999999961
11
210.7733879999999829
21
-96.2366119999999938
0
LINE
8
BLACK
6
CONTINUOUS
10
210.7733879999999829
20
-96.2366119999999938
11
210.8004849999999806
21
-96.2771649999999966
0
LINE
8
BLACK
6
CONTINUOUS
10
210.8004849999999806
20
-96.2771649999999966
11
210.8100000000000023
21
-96.3249999999999886
0
LINE
8
BLACK
6
CONTINUOUS
10
210.8100000000000023
20
-96.3249999999999886
11
210.8100000000000023
21
-97.9749999999999943
0
LINE
8
BLACK
6
CONTINUOUS
10
210.8100000000000023
20
-97.9749999999999943
11
210.8004849999999806
21
-98.0228350000000006
0
LINE
8
BLACK
6
CONTINUOUS
10
210.8004849999999806
20
-98.0228350000000006
11
210.7733879999999829
21
-98.0633879999999891
0
LINE
8
BLACK
6
CONTINUOUS
10
210.7733879999999829
20
-98.0633879999999891
11
210.7328349999999944
21
-98.090485000000001
0
LINE
8
BLACK
6
CONTINUOUS
10
210.7328349999999944
20
-98.090485000000001
11
210.6850000000000023
21
-98.0999999999999943
0
LINE
8
BLACK
6
CONTINUOUS
10
210.6850000000000023
20
-98.0999999999999943
11
210.4350000000000023
21
-98.0999999999999943
0
LINE
8
BLACK
6
CONTINUOUS
10
210.4350000000000023
20
-98.0999999999999943
11
210.3871649999999818
21
-98.090485000000001
0
LINE
8
BLACK
6
CONTINUOUS
10
210.3871649999999818
20
-98.090485000000001
11
210.3466119999999933
21
-98.0633879999999891
0
LINE
8
BLACK
6
CONTINUOUS
10
210.3466119999999933
20
-98.0633879999999891
11
210.3195149999999956
21
-98.0228350000000006
0
LINE
8
BLACK
6
CONTINUOUS
10
210.3195149999999956
20
-98.0228350000000006
11
210.3100000000000023
21
-97.9749999999999943
0
LINE
8
BLACK
6
CONTINUOUS
10
210.3100000000000023
20
-97.9749999999999943
11
210.3100000000000023
21
-96.3249999999999886
0
LINE
8
BLACK
6
CONTINUOUS
10
210.3100000000000023
20
-96.3249999999999886
11
210.3195149999999956
21
-96.2771649999999966
0
LINE
8
BLACK
6
CONTINUOUS
10
210.3195149999999956
20
-96.2771649999999966
11
210.3466119999999933
21
-96.2366119999999938
0
LINE
8
BLACK
6
CONTINUOUS
10
210.3466119999999933
20
-96.2366119999999938
11
210.3871649999999818
21
-96.2095149999999961
0
LINE
8
BLACK
6
CONTINUOUS
10
210.3871649999999818
20
-96.2095149999999961
11
210.4350000000000023
21
-96.1999999999999886
0
LINE
8
BLACK
6
CONTINUOUS
10
210.4350000000000023
20
-96.1999999999999886
11
210.6850000000000023
21
-96.1999999999999886
0
LINE
8
BLACK
6
CONTINUOUS
10
210.6850000000000023
20
-96.1999999999999886
11
210.7328349999999944
21
-96.2095149999999961
0
LINE
8
BLACK
6
CONTINUOUS
10
211.382835
20
-96.2095149999999961
11
211.4233879999999886
21
-96.2366119999999938
0
LINE
8
BLACK
6
CONTINUOUS
10
211.4233879999999886
20
-96.2366119999999938
11
211.4504849999999863
21
-96.2771649999999966
0
LINE
8
BLACK
6
CONTINUOUS
10
211.4504849999999863
20
-96.2771649999999966
11
211.4599999999999795
21
-96.3249999999999886
0
LINE
8
BLACK
6
CONTINUOUS
10
211.4599999999999795
20
-96.3249999999999886
11
211.4599999999999795
21
-97.9749999999999943
0
LINE
8
BLACK
6
CONTINUOUS
10
211.4599999999999795
20
-97.9749999999999943
11
211.4504849999999863
21
-98.0228350000000006
0
LINE
8
BLACK
6
CONTINUOUS
10
211.4504849999999863
20
-98.0228350000000006
11
211.4233879999999886
21
-98.0633879999999891
0
LINE
8
BLACK
6
CONTINUOUS
10
211.4233879999999886
20
-98.0633879999999891
11
211.382835
21
-98.090485000000001
0
LINE
8
BLACK
6
CONTINUOUS
10
211.382835
20
-98.090485000000001
11
211.3349999999999795
21
-98.0999999999999943
0
LINE
8
BLACK
6
CONTINUOUS
10
211.3349999999999795
20
-98.0999999999999943
11
211.0849999999999795
21
-98.0999999999999943
0
LINE
8
BLACK
6
CONTINUOUS
10
211.0849999999999795
20
-98.0999999999999943
11
211.0371649999999875
21
-98.090485000000001
0
LINE
8
BLACK
6
CONTINUOUS
10
211.0371649999999875
20
-98.090485000000001
11
210.9966119999999989
21
-98.0633879999999891
0
LINE
8
BLACK
6
CONTINUOUS
10
210.9966119999999989
20
-98.0633879999999891
11
210.9695150000000012
21
-98.0228350000000006
0
LINE
8
BLACK
6
CONTINUOUS
10
210.9695150000000012
20
-98.0228350000000006
11
210.9599999999999795
21
-97.9749999999999943
0
LINE
8
BLACK
6
CONTINUOUS
10
210.9599999999999795
20
-97.9749999999999943
11
210.9599999999999795
21
-96.3249999999999886
0
LINE
8
BLACK
6
CONTINUOUS
10
210.9599999999999795
20
-96.3249999999999886
11
210.9695150000000012
21
-96.2771649999999966
0
LINE
8
BLACK
6
CONTINUOUS
10
210.9695150000000012
20
-96.2771649999999966
11
210.9966119999999989
21
-96.2366119999999938
0
LINE
8
BLACK
6
CONTINUOUS
10
210.9966119999999989
20
-96.2366119999999938
11
211.0371649999999875
21
-96.2095149999999961
0
LINE
8
BLACK
6
CONTINUOUS
10
211.0371649999999875
20
-96.2095149999999961
11
211.0849999999999795
21
-96.1999999999999886
0
LINE
8
BLACK
6
CONTINUOUS
10
211.0849999999999795
20
-96.1999999999999886
11
211.3349999999999795
21
-96.1999999999999886
0
LINE
8
BLACK
6
CONTINUOUS
10
211.3349999999999795
20
-96.1999999999999886
11
211.382835
21
-96.2095149999999961
0
LINE
8
BLACK
6
CONTINUOUS
10
212.0328349999999773
20
-96.2095149999999961
11
212.0733879999999942
21
-96.2366119999999938
0
LINE
8
BLACK
6
CONTINUOUS
10
212.0733879999999942
20
-96.2366119999999938
11
212.1004849999999919
21
-96.2771649999999966
0
LINE
8
BLACK
6
CONTINUOUS
10
212.1004849999999919
20
-96.2771649999999966
11
212.1099999999999852
21
-96.3249999999999886
0
LINE
8
BLACK
6
CONTINUOUS
10
212.1099999999999852
20
-96.3249999999999886
11
212.1099999999999852
21
-97.9749999999999943
0
LINE
8
BLACK
6
CONTINUOUS
10
212.1099999999999852
20
-97.9749999999999943
11
212.1004849999999919
21
-98.0228350000000006
0
LINE
8
BLACK
6
CONTINUOUS
10
212.1004849999999919
20
-98.0228350000000006
11
212.0733879999999942
21
-98.0633879999999891
0
LINE
8
BLACK
6
CONTINUOUS
10
212.0733879999999942
20
-98.0633879999999891
11
212.0328349999999773
21
-98.090485000000001
0
LINE
8
BLACK
6
CONTINUOUS
10
212.0328349999999773
20
-98.090485000000001
11
211.9849999999999852
21
-98.0999999999999943
0
LINE
8
BLACK
6
CONTINUOUS
10
211.9849999999999852
20
-98.0999999999999943
11
211.7349999999999852
21
-98.0999999999999943
0
LINE
8
BLACK
6
CONTINUOUS
10
211.7349999999999852
20
-98.0999999999999943
11
211.6871649999999931
21
-98.090485000000001
0
LINE
8
BLACK
6
CONTINUOUS
10
211.6871649999999931
20
-98.090485000000001
11
211.6466120000000046
21
-98.0633879999999891
0
LINE
8
BLACK
6
CONTINUOUS
10
211.6466120000000046
20
-98.0633879999999891
11
211.6195149999999785
21
-98.0228350000000006
0
LINE
8
BLACK
6
CONTINUOUS
10
211.6195149999999785
20
-98.0228350000000006
11
211.6099999999999852
21
-97.9749999999999943
0
LINE
8
BLACK
6
CONTINUOUS
10
211.6099999999999852
20
-97.9749999999999943
11
211.6099999999999852
21
-96.3249999999999886
0
LINE
8
BLACK
6
CONTINUOUS
10
211.6099999999999852
20
-96.3249999999999886
11
211.6195149999999785
21
-96.2771649999999966
0
LINE
8
BLACK
6
CONTINUOUS
10
211.6195149999999785
20
-96.2771649999999966
11
211.6466120000000046
21
-96.2366119999999938
0
LINE
8
BLACK
6
CONTINUOUS
10
211.6466120000000046
20
-96.2366119999999938
11
211.6871649999999931
21
-96.2095149999999961
0
LINE
8
BLACK
6
CONTINUOUS
10
211.6871649999999931
20
-96.2095149999999961
11
211.7349999999999852
21
-96.1999999999999886
0
LINE
8
BLACK
6
CONTINUOUS
10
211.7349999999999852
20
-96.1999999999999886
11
211.9849999999999852
21
-96.1999999999999886
0
LINE
8
BLACK
6
CONTINUOUS
10
211.9849999999999852
20
-96.1999999999999886
11
212.0328349999999773
21
-96.2095149999999961
0
LINE
8
BLACK
6
CONTINUOUS
10
212.682834999999983
20
-96.2095149999999961
11
212.7233879999999999
21
-96.2366119999999938
0
LINE
8
BLACK
6
CONTINUOUS
10
212.7233879999999999
20
-96.2366119999999938
11
212.7504849999999976
21
-96.2771649999999966
0
LINE
8
BLACK
6
CONTINUOUS
10
212.7504849999999976
20
-96.2771649999999966
11
212.7599999999999909
21
-96.3249999999999886
0
LINE
8
BLACK
6
CONTINUOUS
10
212.7599999999999909
20
-96.3249999999999886
11
212.7599999999999909
21
-97.9749999999999943
0
LINE
8
BLACK
6
CONTINUOUS
10
212.7599999999999909
20
-97.9749999999999943
11
212.7504849999999976
21
-98.0228350000000006
0
LINE
8
BLACK
6
CONTINUOUS
10
212.7504849999999976
20
-98.0228350000000006
11
212.7233879999999999
21
-98.0633879999999891
0
LINE
8
BLACK
6
CONTINUOUS
10
212.7233879999999999
20
-98.0633879999999891
11
212.682834999999983
21
-98.090485000000001
0
LINE
8
BLACK
6
CONTINUOUS
10
212.682834999999983
20
-98.090485000000001
11
212.6349999999999909
21
-98.0999999999999943
0
LINE
8
BLACK
6
CONTINUOUS
10
212.6349999999999909
20
-98.0999999999999943
11
212.3849999999999909
21
-98.0999999999999943
0
LINE
8
BLACK
6
CONTINUOUS
10
212.3849999999999909
20
-98.0999999999999943
11
212.3371649999999988
21
-98.090485000000001
0
LINE
8
BLACK
6
CONTINUOUS
10
212.3371649999999988
20
-98.090485000000001
11
212.2966119999999819
21
-98.0633879999999891
0
LINE
8
BLACK
6
CONTINUOUS
10
212.2966119999999819
20
-98.0633879999999891
11
212.2695149999999842
21
-98.0228350000000006
0
LINE
8
BLACK
6
CONTINUOUS
10
212.2695149999999842
20
-98.0228350000000006
11
212.2599999999999909
21
-97.9749999999999943
0
LINE
8
BLACK
6
CONTINUOUS
10
212.2599999999999909
20
-97.9749999999999943
11
212.2599999999999909
21
-96.3249999999999886
0
LINE
8
BLACK
6
CONTINUOUS
10
212.2599999999999909
20
-96.3249999999999886
11
212.2695149999999842
21
-96.2771649999999966
0
LINE
8
BLACK
6
CONTINUOUS
10
212.2695149999999842
20
-96.2771649999999966
11
212.2966119999999819
21
-96.2366119999999938
0
LINE
8
BLACK
6
CONTINUOUS
10
212.2966119999999819
20
-96.2366119999999938
11
212.3371649999999988
21
-96.2095149999999961
0
LINE
8
BLACK
6
CONTINUOUS
10
212.3371649999999988
20
-96.2095149999999961
11
212.3849999999999909
21
-96.1999999999999886
0
LINE
8
BLACK
6
CONTINUOUS
10
212.3849999999999909
20
-96.1999999999999886
11
212.6349999999999909
21
-96.1999999999999886
0
LINE
8
BLACK
6
CONTINUOUS
10
212.6349999999999909
20
-96.1999999999999886
11
212.682834999999983
21
-96.2095149999999961
0
LINE
8
BLACK
6
CONTINUOUS
10
213.3328349999999887
20
-96.2095149999999961
11
213.3733879999999772
21
-96.2366119999999938
0
LINE
8
BLACK
6
CONTINUOUS
10
213.3733879999999772
20
-96.2366119999999938
11
213.4004850000000033
21
-96.2771649999999966
0
LINE
8
BLACK
6
CONTINUOUS
10
213.4004850000000033
20
-96.2771649999999966
11
213.4099999999999966
21
-96.3249999999999886
0
LINE
8
BLACK
6
CONTINUOUS
10
213.4099999999999966
20
-96.3249999999999886
11
213.4099999999999966
21
-97.9749999999999943
0
LINE
8
BLACK
6
CONTINUOUS
10
213.4099999999999966
20
-97.9749999999999943
11
213.4004850000000033
21
-98.0228350000000006
0
LINE
8
BLACK
6
CONTINUOUS
10
213.4004850000000033
20
-98.0228350000000006
11
213.3733879999999772
21
-98.0633879999999891
0
LINE
8
BLACK
6
CONTINUOUS
10
213.3733879999999772
20
-98.0633879999999891
11
213.3328349999999887
21
-98.090485000000001
0
LINE
8
BLACK
6
CONTINUOUS
10
213.3328349999999887
20
-98.090485000000001
11
213.2849999999999966
21
-98.0999999999999943
0
LINE
8
BLACK
6
CONTINUOUS
10
213.2849999999999966
20
-98.0999999999999943
11
213.0349999999999966
21
-98.0999999999999943
0
LINE
8
BLACK
6
CONTINUOUS
10
213.0349999999999966
20
-98.0999999999999943
11
212.9871650000000045
21
-98.090485000000001
0
LINE
8
BLACK
6
CONTINUOUS
10
212.9871650000000045
20
-98.090485000000001
11
212.9466119999999876
21
-98.0633879999999891
0
LINE
8
BLACK
6
CONTINUOUS
10
212.9466119999999876
20
-98.0633879999999891
11
212.9195149999999899
21
-98.0228350000000006
0
LINE
8
BLACK
6
CONTINUOUS
10
212.9195149999999899
20
-98.0228350000000006
11
212.9099999999999966
21
-97.9749999999999943
0
LINE
8
BLACK
6
CONTINUOUS
10
212.9099999999999966
20
-97.9749999999999943
11
212.9099999999999966
21
-96.3249999999999886
0
LINE
8
BLACK
6
CONTINUOUS
10
212.9099999999999966
20
-96.3249999999999886
11
212.9195149999999899
21
-96.2771649999999966
0
LINE
8
BLACK
6
CONTINUOUS
10
212.9195149999999899
20
-96.2771649999999966
11
212.9466119999999876
21
-96.2366119999999938
0
LINE
8
BLACK
6
CONTINUOUS
10
212.9466119999999876
20
-96.2366119999999938
11
212.9871650000000045
21
-96.2095149999999961
0
LINE
8
BLACK
6
CONTINUOUS
10
212.9871650000000045
20
-96.2095149999999961
11
213.0349999999999966
21
-96.1999999999999886
0
LINE
8
BLACK
6
CONTINUOUS
10
213.0349999999999966
20
-96.1999999999999886
11
213.2849999999999966
21
-96.1999999999999886
0
LINE
8
BLACK
6
CONTINUOUS
10
213.2849999999999966
20
-96.1999999999999886
11
213.3328349999999887
21
-96.2095149999999961
0
LINE
8
BLACK
6
CONTINUOUS
10
213.9828349999999944
20
-96.2095149999999961
11
214.0233879999999829
21
-96.2366119999999938
0
LINE
8
BLACK
6
CONTINUOUS
10
214.0233879999999829
20
-96.2366119999999938
11
214.0504849999999806
21
-96.2771649999999966
0
LINE
8
BLACK
6
CONTINUOUS
10
214.0504849999999806
20
-96.2771649999999966
11
214.0600000000000023
21
-96.3249999999999886
0
LINE
8
BLACK
6
CONTINUOUS
10
214.0600000000000023
20
-96.3249999999999886
11
214.0600000000000023
21
-97.9749999999999943
0
LINE
8
BLACK
6
CONTINUOUS
10
214.0600000000000023
20
-97.9749999999999943
11
214.0504849999999806
21
-98.0228350000000006
0
LINE
8
BLACK
6
CONTINUOUS
10
214.0504849999999806
20
-98.0228350000000006
11
214.0233879999999829
21
-98.0633879999999891
0
LINE
8
BLACK
6
CONTINUOUS
10
214.0233879999999829
20
-98.0633879999999891
11
213.9828349999999944
21
-98.090485000000001
0
LINE
8
BLACK
6
CONTINUOUS
10
213.9828349999999944
20
-98.090485000000001
11
213.9350000000000023
21
-98.0999999999999943
0
LINE
8
BLACK
6
CONTINUOUS
10
213.9350000000000023
20
-98.0999999999999943
11
213.6850000000000023
21
-98.0999999999999943
0
LINE
8
BLACK
6
CONTINUOUS
10
213.6850000000000023
20
-98.0999999999999943
11
213.6371649999999818
21
-98.090485000000001
0
LINE
8
BLACK
6
CONTINUOUS
10
213.6371649999999818
20
-98.090485000000001
11
213.5966119999999933
21
-98.0633879999999891
0
LINE
8
BLACK
6
CONTINUOUS
10
213.5966119999999933
20
-98.0633879999999891
11
213.5695149999999956
21
-98.0228350000000006
0
LINE
8
BLACK
6
CONTINUOUS
10
213.5695149999999956
20
-98.0228350000000006
11
213.5600000000000023
21
-97.9749999999999943
0
LINE
8
BLACK
6
CONTINUOUS
10
213.5600000000000023
20
-97.9749999999999943
11
213.5600000000000023
21
-96.3249999999999886
0
LINE
8
BLACK
6
CONTINUOUS
10
213.5600000000000023
20
-96.3249999999999886
11
213.5695149999999956
21
-96.2771649999999966
0
LINE
8
BLACK
6
CONTINUOUS
10
213.5695149999999956
20
-96.2771649999999966
11
213.5966119999999933
21
-96.2366119999999938
0
LINE
8
BLACK
6
CONTINUOUS
10
213.5966119999999933
20
-96.2366119999999938
11
213.6371649999999818
21
-96.2095149999999961
0
LINE
8
BLACK
6
CONTINUOUS
10
213.6371649999999818
20
-96.2095149999999961
11
213.6850000000000023
21
-96.1999999999999886
0
LINE
8
BLACK
6
CONTINUOUS
10
213.6850000000000023
20
-96.1999999999999886
11
213.9350000000000023
21
-96.1999999999999886
0
LINE
8
BLACK
6
CONTINUOUS
10
213.9350000000000023
20
-96.1999999999999886
11
213.9828349999999944
21
-96.2095149999999961
0
LINE
8
BLACK
6
CONTINUOUS
10
214.632835
20
-96.2095149999999961
11
214.6733879999999886
21
-96.2366119999999938
0
LINE
8
BLACK
6
CONTINUOUS
10
214.6733879999999886
20
-96.2366119999999938
11
214.7004849999999863
21
-96.2771649999999966
0
LINE
8
BLACK
6
CONTINUOUS
10
214.7004849999999863
20
-96.2771649999999966
11
214.7099999999999795
21
-96.3249999999999886
0
LINE
8
BLACK
6
CONTINUOUS
10
214.7099999999999795
20
-96.3249999999999886
11
214.7099999999999795
21
-97.9749999999999943
0
LINE
8
BLACK
6
CONTINUOUS
10
214.7099999999999795
20
-97.9749999999999943
11
214.7004849999999863
21
-98.0228350000000006
0
LINE
8
BLACK
6
CONTINUOUS
10
214.7004849999999863
20
-98.0228350000000006
11
214.6733879999999886
21
-98.0633879999999891
0
LINE
8
BLACK
6
CONTINUOUS
10
214.6733879999999886
20
-98.0633879999999891
11
214.632835
21
-98.090485000000001
0
LINE
8
BLACK
6
CONTINUOUS
10
214.632835
20
-98.090485000000001
11
214.5849999999999795
21
-98.0999999999999943
0
LINE
8
BLACK
6
CONTINUOUS
10
214.5849999999999795
20
-98.0999999999999943
11
214.3349999999999795
21
-98.0999999999999943
0
LINE
8
BLACK
6
CONTINUOUS
10
214.3349999999999795
20
-98.0999999999999943
11
214.2871649999999875
21
-98.090485000000001
0
LINE
8
BLACK
6
CONTINUOUS
10
214.2871649999999875
20
-98.090485000000001
11
214.2466119999999989
21
-98.0633879999999891
0
LINE
8
BLACK
6
CONTINUOUS
10
214.2466119999999989
20
-98.0633879999999891
11
214.2195150000000012
21
-98.0228350000000006
0
LINE
8
BLACK
6
CONTINUOUS
10
214.2195150000000012
20
-98.0228350000000006
11
214.2099999999999795
21
-97.9749999999999943
0
LINE
8
BLACK
6
CONTINUOUS
10
214.2099999999999795
20
-97.9749999999999943
11
214.2099999999999795
21
-96.3249999999999886
0
LINE
8
BLACK
6
CONTINUOUS
10
214.2099999999999795
20
-96.3249999999999886
11
214.2195150000000012
21
-96.2771649999999966
0
LINE
8
BLACK
6
CONTINUOUS
10
214.2195150000000012
20
-96.2771649999999966
11
214.2466119999999989
21
-96.2366119999999938
0
LINE
8
BLACK
6
CONTINUOUS
10
214.2466119999999989
20
-96.2366119999999938
11
214.2871649999999875
21
-96.2095149999999961
0
LINE
8
BLACK
6
CONTINUOUS
10
214.2871649999999875
20
-96.2095149999999961
11
214.3349999999999795
21
-96.1999999999999886
0
LINE
8
BLACK
6
CONTINUOUS
10
214.3349999999999795
20
-96.1999999999999886
11
214.5849999999999795
21
-96.1999999999999886
0
LINE
8
BLACK
6
CONTINUOUS
10
214.5849999999999795
20
-96.1999999999999886
11
214.632835
21
-96.2095149999999961
0
LINE
8
BLACK
6
CONTINUOUS
10
188.6756709999999941
20
-94.0690299999999979
11
188.7567769999999996
21
-94.1232229999999959
0
LINE
8
BLACK
6
CONTINUOUS
10
188.7567769999999996
20
-94.1232229999999959
11
188.8109699999999975
21
-94.2043290000000013
0
LINE
8
BLACK
6
CONTINUOUS
10
188.8109699999999975
20
-94.2043290000000013
11
188.8299999999999841
21
-94.2999999999999972
0
LINE
8
BLACK
6
CONTINUOUS
10
188.8299999999999841
20
-94.2999999999999972
11
188.8299999999999841
21
-95.
0
LINE
8
BLACK
6
CONTINUOUS
10
188.8299999999999841
20
-95.
11
188.8109699999999975
21
-95.0956709999999958
0
LINE
8
BLACK
6
CONTINUOUS
10
188.8109699999999975
20
-95.0956709999999958
11
188.7567769999999996
21
-95.1767770000000013
0
LINE
8
BLACK
6
CONTINUOUS
10
188.7567769999999996
20
-95.1767770000000013
11
188.6756709999999941
21
-95.2309699999999992
0
LINE
8
BLACK
6
CONTINUOUS
10
188.6756709999999941
20
-95.2309699999999992
11
188.5799999999999841
21
-95.25
0
LINE
8
BLACK
6
CONTINUOUS
10
188.5799999999999841
20
-95.25
11
187.6799999999999784
21
-95.25
0
LINE
8
BLACK
6
CONTINUOUS
10
187.6799999999999784
20
-95.25
11
187.5843289999999968
21
-95.2309699999999992
0
LINE
8
BLACK
6
CONTINUOUS
10
187.5843289999999968
20
-95.2309699999999992
11
187.5032229999999913
21
-95.1767770000000013
0
LINE
8
BLACK
6
CONTINUOUS
10
187.5032229999999913
20
-95.1767770000000013
11
187.4490299999999934
21
-95.0956709999999958
0
LINE
8
BLACK
6
CONTINUOUS
10
187.4490299999999934
20
-95.0956709999999958
11
187.4299999999999784
21
-95.
0
LINE
8
BLACK
6
CONTINUOUS
10
187.4299999999999784
20
-95.
11
187.4299999999999784
21
-94.2999999999999972
0
LINE
8
BLACK
6
CONTINUOUS
10
187.4299999999999784
20
-94.2999999999999972
11
187.4490299999999934
21
-94.2043290000000013
0
LINE
8
BLACK
6
CONTINUOUS
10
187.4490299999999934
20
-94.2043290000000013
11
187.5032229999999913
21
-94.1232229999999959
0
LINE
8
BLACK
6
CONTINUOUS
10
187.5032229999999913
20
-94.1232229999999959
11
187.5843289999999968
21
-94.0690299999999979
0
LINE
8
BLACK
6
CONTINUOUS
10
187.5843289999999968
20
-94.0690299999999979
11
187.6799999999999784
21
-94.0499999999999972
0
LINE
8
BLACK
6
CONTINUOUS
10
187.6799999999999784
20
-94.0499999999999972
11
188.5799999999999841
21
-94.0499999999999972
0
LINE
8
BLACK
6
CONTINUOUS
10
188.5799999999999841
20
-94.0499999999999972
11
188.6756709999999941
21
-94.0690299999999979
0
LINE
8
BLACK
6
CONTINUOUS
10
193.4556709999999953
20
-94.0690299999999979
11
193.5367770000000007
21
-94.1232229999999959
0
LINE
8
BLACK
6
CONTINUOUS
10
193.5367770000000007
20
-94.1232229999999959
11
193.5909699999999987
21
-94.2043290000000013
0
LINE
8
BLACK
6
CONTINUOUS
10
193.5909699999999987
20
-94.2043290000000013
11
193.6099999999999852
21
-94.2999999999999972
0
LINE
8
BLACK
6
CONTINUOUS
10
193.6099999999999852
20
-94.2999999999999972
11
193.6099999999999852
21
-95.
0
LINE
8
BLACK
6
CONTINUOUS
10
193.6099999999999852
20
-95.
11
193.5909699999999987
21
-95.0956709999999958
0
LINE
8
BLACK
6
CONTINUOUS
10
193.5909699999999987
20
-95.0956709999999958
11
193.5367770000000007
21
-95.1767770000000013
0
LINE
8
BLACK
6
CONTINUOUS
10
193.5367770000000007
20
-95.1767770000000013
11
193.4556709999999953
21
-95.2309699999999992
0
LINE
8
BLACK
6
CONTINUOUS
10
193.4556709999999953
20
-95.2309699999999992
11
193.3599999999999852
21
-95.25
0
LINE
8
BLACK
6
CONTINUOUS
10
193.3599999999999852
20
-95.25
11
192.4599999999999795
21
-95.25
0
LINE
8
BLACK
6
CONTINUOUS
10
192.4599999999999795
20
-95.25
11
192.3643289999999979
21
-95.2309699999999992
0
LINE
8
BLACK
6
CONTINUOUS
10
192.3643289999999979
20
-95.2309699999999992
11
192.2832229999999925
21
-95.1767770000000013
0
LINE
8
BLACK
6
CONTINUOUS
10
192.2832229999999925
20
-95.1767770000000013
11
192.2290299999999945
21
-95.0956709999999958
0
LINE
8
BLACK
6
CONTINUOUS
10
192.2290299999999945
20
-95.0956709999999958
11
192.2099999999999795
21
-95.
0
LINE
8
BLACK
6
CONTINUOUS
10
192.2099999999999795
20
-95.
11
192.2099999999999795
21
-94.2999999999999972
0
LINE
8
BLACK
6
CONTINUOUS
10
192.2099999999999795
20
-94.2999999999999972
11
192.2290299999999945
21
-94.2043290000000013
0
LINE
8
BLACK
6
CONTINUOUS
10
192.2290299999999945
20
-94.2043290000000013
11
192.2832229999999925
21
-94.1232229999999959
0
LINE
8
BLACK
6
CONTINUOUS
10
192.2832229999999925
20
-94.1232229999999959
11
192.3643289999999979
21
-94.0690299999999979
0
LINE
8
BLACK
6
CONTINUOUS
10
192.3643289999999979
20
-94.0690299999999979
11
192.4599999999999795
21
-94.0499999999999972
0
LINE
8
BLACK
6
CONTINUOUS
10
192.4599999999999795
20
-94.0499999999999972
11
193.3599999999999852
21
-94.0499999999999972
0
LINE
8
BLACK
6
CONTINUOUS
10
193.3599999999999852
20
-94.0499999999999972
11
193.4556709999999953
21
-94.0690299999999979
0
LINE
8
BLACK
6
CONTINUOUS
10
196.9956709999999873
20
-94.0690299999999979
11
197.0767769999999928
21
-94.1232229999999959
0
LINE
8
BLACK
6
CONTINUOUS
10
197.0767769999999928
20
-94.1232229999999959
11
197.1309699999999907
21
-94.2043290000000013
0
LINE
8
BLACK
6
CONTINUOUS
10
197.1309699999999907
20
-94.2043290000000013
11
197.1499999999999773
21
-94.2999999999999972
0
LINE
8
BLACK
6
CONTINUOUS
10
197.1499999999999773
20
-94.2999999999999972
11
197.1499999999999773
21
-95.
0
LINE
8
BLACK
6
CONTINUOUS
10
197.1499999999999773
20
-95.
11
197.1309699999999907
21
-95.0956709999999958
0
LINE
8
BLACK
6
CONTINUOUS
10
197.1309699999999907
20
-95.0956709999999958
11
197.0767769999999928
21
-95.1767770000000013
0
LINE
8
BLACK
6
CONTINUOUS
10
197.0767769999999928
20
-95.1767770000000013
11
196.9956709999999873
21
-95.2309699999999992
0
LINE
8
BLACK
6
CONTINUOUS
10
196.9956709999999873
20
-95.2309699999999992
11
196.8999999999999773
21
-95.25
0
LINE
8
BLACK
6
CONTINUOUS
10
196.8999999999999773
20
-95.25
11
196.
21
-95.25
0
LINE
8
BLACK
6
CONTINUOUS
10
196.
20
-95.25
11
195.9043289999999899
21
-95.2309699999999992
0
LINE
8
BLACK
6
CONTINUOUS
10
195.9043289999999899
20
-95.2309699999999992
11
195.8232229999999845
21
-95.1767770000000013
0
LINE
8
BLACK
6
CONTINUOUS
10
195.8232229999999845
20
-95.1767770000000013
11
195.7690299999999866
21
-95.0956709999999958
0
LINE
8
BLACK
6
CONTINUOUS
10
195.7690299999999866
20
-95.0956709999999958
11
195.75
21
-95.
0
LINE
8
BLACK
6
CONTINUOUS
10
195.75
20
-95.
11
195.75
21
-94.2999999999999972
0
LINE
8
BLACK
6
CONTINUOUS
10
195.75
20
-94.2999999999999972
11
195.7690299999999866
21
-94.2043290000000013
0
LINE
8
BLACK
6
CONTINUOUS
10
195.7690299999999866
20
-94.2043290000000013
11
195.8232229999999845
21
-94.1232229999999959
0
LINE
8
BLACK
6
CONTINUOUS
10
195.8232229999999845
20
-94.1232229999999959
11
195.9043289999999899
21
-94.0690299999999979
0
LINE
8
BLACK
6
CONTINUOUS
10
195.9043289999999899
20
-94.0690299999999979
11
196.
21
-94.0499999999999972
0
LINE
8
BLACK
6
CONTINUOUS
10
196.
20
-94.0499999999999972
11
196.8999999999999773
21
-94.0499999999999972
0
LINE
8
BLACK
6
CONTINUOUS
10
196.8999999999999773
20
-94.0499999999999972
11
196.9956709999999873
21
-94.0690299999999979
0
LINE
8
BLACK
6
CONTINUOUS
10
204.6956710000000044
20
-94.0690299999999979
11
204.7767769999999814
21
-94.1232229999999959
0
LINE
8
BLACK
6
CONTINUOUS
10
204.7767769999999814
20
-94.1232229999999959
11
204.8309699999999793
21
-94.2043290000000013
0
LINE
8
BLACK
6
CONTINUOUS
10
204.8309699999999793
20
-94.2043290000000013
11
204.8499999999999943
21
-94.2999999999999972
0
LINE
8
BLACK
6
CONTINUOUS
10
204.8499999999999943
20
-94.2999999999999972
11
204.8499999999999943
21
-95.
0
LINE
8
BLACK
6
CONTINUOUS
10
204.8499999999999943
20
-95.
11
204.8309699999999793
21
-95.0956709999999958
0
LINE
8
BLACK
6
CONTINUOUS
10
204.8309699999999793
20
-95.0956709999999958
11
204.7767769999999814
21
-95.1767770000000013
0
LINE
8
BLACK
6
CONTINUOUS
10
204.7767769999999814
20
-95.1767770000000013
11
204.6956710000000044
21
-95.2309699999999992
0
LINE
8
BLACK
6
CONTINUOUS
10
204.6956710000000044
20
-95.2309699999999992
11
204.5999999999999943
21
-95.25
0
LINE
8
BLACK
6
CONTINUOUS
10
204.5999999999999943
20
-95.25
11
203.6999999999999886
21
-95.25
0
LINE
8
BLACK
6
CONTINUOUS
10
203.6999999999999886
20
-95.25
11
203.6043289999999786
21
-95.2309699999999992
0
LINE
8
BLACK
6
CONTINUOUS
10
203.6043289999999786
20
-95.2309699999999992
11
203.5232230000000015
21
-95.1767770000000013
0
LINE
8
BLACK
6
CONTINUOUS
10
203.5232230000000015
20
-95.1767770000000013
11
203.4690300000000036
21
-95.0956709999999958
0
LINE
8
BLACK
6
CONTINUOUS
10
203.4690300000000036
20
-95.0956709999999958
11
203.4499999999999886
21
-95.
0
LINE
8
BLACK
6
CONTINUOUS
10
203.4499999999999886
20
-95.
11
203.4499999999999886
21
-94.2999999999999972
0
LINE
8
BLACK
6
CONTINUOUS
10
203.4499999999999886
20
-94.2999999999999972
11
203.4690300000000036
21
-94.2043290000000013
0
LINE
8
BLACK
6
CONTINUOUS
10
203.4690300000000036
20
-94.2043290000000013
11
203.5232230000000015
21
-94.1232229999999959
0
LINE
8
BLACK
6
CONTINUOUS
10
203.5232230000000015
20
-94.1232229999999959
11
203.6043289999999786
21
-94.0690299999999979
0
LINE
8
BLACK
6
CONTINUOUS
10
203.6043289999999786
20
-94.0690299999999979
11
203.6999999999999886
21
-94.0499999999999972
0
LINE
8
BLACK
6
CONTINUOUS
10
203.6999999999999886
20
-94.0499999999999972
11
204.5999999999999943
21
-94.0499999999999972
0
LINE
8
BLACK
6
CONTINUOUS
10
204.5999999999999943
20
-94.0499999999999972
11
204.6956710000000044
21
-94.0690299999999979
0
LINE
8
BLACK
6
CONTINUOUS
10
188.6756709999999941
20
-92.0690299999999979
11
188.7567769999999996
21
-92.1232229999999959
0
LINE
8
BLACK
6
CONTINUOUS
10
188.7567769999999996
20
-92.1232229999999959
11
188.8109699999999975
21
-92.2043290000000013
0
LINE
8
BLACK
6
CONTINUOUS
10
188.8109699999999975
20
-92.2043290000000013
11
188.8299999999999841
21
-92.2999999999999972
0
LINE
8
BLACK
6
CONTINUOUS
10
188.8299999999999841
20
-92.2999999999999972
11
188.8299999999999841
21
-93.
0
LINE
8
BLACK
6
CONTINUOUS
10
188.8299999999999841
20
-93.
11
188.8109699999999975
21
-93.0956709999999958
0
LINE
8
BLACK
6
CONTINUOUS
10
188.8109699999999975
20
-93.0956709999999958
11
188.7567769999999996
21
-93.1767770000000013
0
LINE
8
BLACK
6
CONTINUOUS
10
188.7567769999999996
20
-93.1767770000000013
11
188.6756709999999941
21
-93.2309699999999992
0
LINE
8
BLACK
6
CONTINUOUS
10
188.6756709999999941
20
-93.2309699999999992
11
188.5799999999999841
21
-93.25
0
LINE
8
BLACK
6
CONTINUOUS
10
188.5799999999999841
20
-93.25
11
187.6799999999999784
21
-93.25
0
LINE
8
BLACK
6
CONTINUOUS
10
187.6799999999999784
20
-93.25
11
187.5843289999999968
21
-93.2309699999999992
0
LINE
8
BLACK
6
CONTINUOUS
10
187.5843289999999968
20
-93.2309699999999992
11
187.5032229999999913
21
-93.1767770000000013
0
LINE
8
BLACK
6
CONTINUOUS
10
187.5032229999999913
20
-93.1767770000000013
11
187.4490299999999934
21
-93.0956709999999958
0
LINE
8
BLACK
6
CONTINUOUS
10
187.4490299999999934
20
-93.0956709999999958
11
187.4299999999999784
21
-93.
0
LINE
8
BLACK
6
CONTINUOUS
10
187.4299999999999784
20
-93.
11
187.4299999999999784
21
-92.2999999999999972
0
LINE
8
BLACK
6
CONTINUOUS
10
187.4299999999999784
20
-92.2999999999999972
11
187.4490299999999934
21
-92.2043290000000013
0
LINE
8
BLACK
6
CONTINUOUS
10
187.4490299999999934
20
-92.2043290000000013
11
187.5032229999999913
21
-92.1232229999999959
0
LINE
8
BLACK
6
CONTINUOUS
10
187.5032229999999913
20
-92.1232229999999959
11
187.5843289999999968
21
-92.0690299999999979
0
LINE
8
BLACK
6
CONTINUOUS
10
187.5843289999999968
20
-92.0690299999999979
11
187.6799999999999784
21
-92.0499999999999972
0
LINE
8
BLACK
6
CONTINUOUS
10
187.6799999999999784
20
-92.0499999999999972
11
188.5799999999999841
21
-92.0499999999999972
0
LINE
8
BLACK
6
CONTINUOUS
10
188.5799999999999841
20
-92.0499999999999972
11
188.6756709999999941
21
-92.0690299999999979
0
LINE
8
BLACK
6
CONTINUOUS
10
193.4556709999999953
20
-92.0690299999999979
11
193.5367770000000007
21
-92.1232229999999959
0
LINE
8
BLACK
6
CONTINUOUS
10
193.5367770000000007
20
-92.1232229999999959
11
193.5909699999999987
21
-92.2043290000000013
0
LINE
8
BLACK
6
CONTINUOUS
10
193.5909699999999987
20
-92.2043290000000013
11
193.6099999999999852
21
-92.2999999999999972
0
LINE
8
BLACK
6
CONTINUOUS
10
193.6099999999999852
20
-92.2999999999999972
11
193.6099999999999852
21
-93.
0
LINE
8
BLACK
6
CONTINUOUS
10
193.6099999999999852
20
-93.
11
193.5909699999999987
21
-93.0956709999999958
0
LINE
8
BLACK
6
CONTINUOUS
10
193.5909699999999987
20
-93.0956709999999958
11
193.5367770000000007
21
-93.1767770000000013
0
LINE
8
BLACK
6
CONTINUOUS
10
193.5367770000000007
20
-93.1767770000000013
11
193.4556709999999953
21
-93.2309699999999992
0
LINE
8
BLACK
6
CONTINUOUS
10
193.4556709999999953
20
-93.2309699999999992
11
193.3599999999999852
21
-93.25
0
LINE
8
BLACK
6
CONTINUOUS
10
193.3599999999999852
20
-93.25
11
192.4599999999999795
21
-93.25
0
LINE
8
BLACK
6
CONTINUOUS
10
192.4599999999999795
20
-93.25
11
192.3643289999999979
21
-93.2309699999999992
0
LINE
8
BLACK
6
CONTINUOUS
10
192.3643289999999979
20
-93.2309699999999992
11
192.2832229999999925
21
-93.1767770000000013
0
LINE
8
BLACK
6
CONTINUOUS
10
192.2832229999999925
20
-93.1767770000000013
11
192.2290299999999945
21
-93.0956709999999958
0
LINE
8
BLACK
6
CONTINUOUS
10
192.2290299999999945
20
-93.0956709999999958
11
192.2099999999999795
21
-93.
0
LINE
8
BLACK
6
CONTINUOUS
10
192.2099999999999795
20
-93.
11
192.2099999999999795
21
-92.2999999999999972
0
LINE
8
BLACK
6
CONTINUOUS
10
192.2099999999999795
20
-92.2999999999999972
11
192.2290299999999945
21
-92.2043290000000013
0
LINE
8
BLACK
6
CONTINUOUS
10
192.2290299999999945
20
-92.2043290000000013
11
192.2832229999999925
21
-92.1232229999999959
0
LINE
8
BLACK
6
CONTINUOUS
10
192.2832229999999925
20
-92.1232229999999959
11
192.3643289999999979
21
-92.0690299999999979
0
LINE
8
BLACK
6
CONTINUOUS
10
192.3643289999999979
20
-92.0690299999999979
11
192.4599999999999795
21
-92.0499999999999972
0
LINE
8
BLACK
6
CONTINUOUS
10
192.4599999999999795
20
-92.0499999999999972
11
193.3599999999999852
21
-92.0499999999999972
0
LINE
8
BLACK
6
CONTINUOUS
10
193.3599999999999852
20
-92.0499999999999972
11
193.4556709999999953
21
-92.0690299999999979
0
LINE
8
BLACK
6
CONTINUOUS
10
196.9956709999999873
20
-92.0690299999999979
11
197.0767769999999928
21
-92.1232229999999959
0
LINE
8
BLACK
6
CONTINUOUS
10
197.0767769999999928
20
-92.1232229999999959
11
197.1309699999999907
21
-92.2043290000000013
0
LINE
8
BLACK
6
CONTINUOUS
10
197.1309699999999907
20
-92.2043290000000013
11
197.1499999999999773
21
-92.2999999999999972
0
LINE
8
BLACK
6
CONTINUOUS
10
197.1499999999999773
20
-92.2999999999999972
11
197.1499999999999773
21
-93.
0
LINE
8
BLACK
6
CONTINUOUS
10
197.1499999999999773
20
-93.
11
197.1309699999999907
21
-93.0956709999999958
0
LINE
8
BLACK
6
CONTINUOUS
10
197.1309699999999907
20
-93.0956709999999958
11
197.0767769999999928
21
-93.1767770000000013
0
LINE
8
BLACK
6
CONTINUOUS
10
197.0767769999999928
20
-93.1767770000000013
11
196.9956709999999873
21
-93.2309699999999992
0
LINE
8
BLACK
6
CONTINUOUS
10
196.9956709999999873
20
-93.2309699999999992
11
196.8999999999999773
21
-93.25
0
LINE
8
BLACK
6
CONTINUOUS
10
196.8999999999999773
20
-93.25
11
196.
21
-93.25
0
LINE
8
BLACK
6
CONTINUOUS
10
196.
20
-93.25
11
195.9043289999999899
21
-93.2309699999999992
0
LINE
8
BLACK
6
CONTINUOUS
10
195.9043289999999899
20
-93.2309699999999992
11
195.8232229999999845
21
-93.1767770000000013
0
LINE
8
BLACK
6
CONTINUOUS
10
195.8232229999999845
20
-93.1767770000000013
11
195.7690299999999866
21
-93.0956709999999958
0
LINE
8
BLACK
6
CONTINUOUS
10
195.7690299999999866
20
-93.0956709999999958
11
195.75
21
-93.
0
LINE
8
BLACK
6
CONTINUOUS
10
195.75
20
-93.
11
195.75
21
-92.2999999999999972
0
LINE
8
BLACK
6
CONTINUOUS
10
195.75
20
-92.2999999999999972
11
195.7690299999999866
21
-92.2043290000000013
0
LINE
8
BLACK
6
CONTINUOUS
10
195.7690299999999866
20
-92.2043290000000013
11
195.8232229999999845
21
-92.1232229999999959
0
LINE
8
BLACK
6
CONTINUOUS
10
195.8232229999999845
20
-92.1232229999999959
11
195.9043289999999899
21
-92.0690299999999979
0
LINE
8
BLACK
6
CONTINUOUS
10
195.9043289999999899
20
-92.0690299999999979
11
196.
21
-92.0499999999999972
0
LINE
8
BLACK
6
CONTINUOUS
10
196.
20
-92.0499999999999972
11
196.8999999999999773
21
-92.0499999999999972
0
LINE
8
BLACK
6
CONTINUOUS
10
196.8999999999999773
20
-92.0499999999999972
11
196.9956709999999873
21
-92.0690299999999979
0
LINE
8
BLACK
6
CONTINUOUS
10
204.6956710000000044
20
-92.0690299999999979
11
204.7767769999999814
21
-92.1232229999999959
0
LINE
8
BLACK
6
CONTINUOUS
10
204.7767769999999814
20
-92.1232229999999959
11
204.8309699999999793
21
-92.2043290000000013
0
LINE
8
BLACK
6
CONTINUOUS
10
204.8309699999999793
20
-92.2043290000000013
11
204.8499999999999943
21
-92.2999999999999972
0
LINE
8
BLACK
6
CONTINUOUS
10
204.8499999999999943
20
-92.2999999999999972
11
204.8499999999999943
21
-93.
0
LINE
8
BLACK
6
CONTINUOUS
10
204.8499999999999943
20
-93.
11
204.8309699999999793
21
-93.0956709999999958
0
LINE
8
BLACK
6
CONTINUOUS
10
204.8309699999999793
20
-93.0956709999999958
11
204.7767769999999814
21
-93.1767770000000013
0
LINE
8
BLACK
6
CONTINUOUS
10
204.7767769999999814
20
-93.1767770000000013
11
204.6956710000000044
21
-93.2309699999999992
0
LINE
8
BLACK
6
CONTINUOUS
10
204.6956710000000044
20
-93.2309699999999992
11
204.5999999999999943
21
-93.25
0
LINE
8
BLACK
6
CONTINUOUS
10
204.5999999999999943
20
-93.25
11
203.6999999999999886
21
-93.25
0
LINE
8
BLACK
6
CONTINUOUS
10
203.6999999999999886
20
-93.25
11
203.6043289999999786
21
-93.2309699999999992
0
LINE
8
BLACK
6
CONTINUOUS
10
203.6043289999999786
20
-93.2309699999999992
11
203.5232230000000015
21
-93.1767770000000013
0
LINE
8
BLACK
6
CONTINUOUS
10
203.5232230000000015
20
-93.1767770000000013
11
203.4690300000000036
21
-93.0956709999999958
0
LINE
8
BLACK
6
CONTINUOUS
10
203.4690300000000036
20
-93.0956709999999958
11
203.4499999999999886
21
-93.
0
LINE
8
BLACK
6
CONTINUOUS
10
203.4499999999999886
20
-93.
11
203.4499999999999886
21
-92.2999999999999972
0
LINE
8
BLACK
6
CONTINUOUS
10
203.4499999999999886
20
-92.2999999999999972
11
203.4690300000000036
21
-92.2043290000000013
0
LINE
8
BLACK
6
CONTINUOUS
10
203.4690300000000036
20
-92.2043290000000013
11
203.5232230000000015
21
-92.1232229999999959
0
LINE
8
BLACK
6
CONTINUOUS
10
203.5232230000000015
20
-92.1232229999999959
11
203.6043289999999786
21
-92.0690299999999979
0
LINE
8
BLACK
6
CONTINUOUS
10
203.6043289999999786
20
-92.0690299999999979
11
203.6999999999999886
21
-92.0499999999999972
0
LINE
8
BLACK
6
CONTINUOUS
10
203.6999999999999886
20
-92.0499999999999972
11
204.5999999999999943
21
-92.0499999999999972
0
LINE
8
BLACK
6
CONTINUOUS
10
204.5999999999999943
20
-92.0499999999999972
11
204.6956710000000044
21
-92.0690299999999979
0
LINE
8
BLACK
6
CONTINUOUS
10
174.8649999999999807
20
-93.0499999999999972
11
172.2649999999999864
21
-93.0499999999999972
0
LINE
8
BLACK
6
CONTINUOUS
10
172.2649999999999864
20
-93.0499999999999972
11
172.2649999999999864
21
-90.4500000000000028
0
LINE
8
BLACK
6
CONTINUOUS
10
172.2649999999999864
20
-90.4500000000000028
11
174.8649999999999807
21
-90.4500000000000028
0
LINE
8
BLACK
6
CONTINUOUS
10
174.8649999999999807
20
-90.4500000000000028
11
174.8649999999999807
21
-93.0499999999999972
0
LINE
8
BLACK
6
CONTINUOUS
10
236.8249999999999886
20
-93.0499999999999972
11
234.2249999999999943
21
-93.0499999999999972
0
LINE
8
BLACK
6
CONTINUOUS
10
234.2249999999999943
20
-93.0499999999999972
11
234.2249999999999943
21
-90.4500000000000028
0
LINE
8
BLACK
6
CONTINUOUS
10
234.2249999999999943
20
-90.4500000000000028
11
236.8249999999999886
21
-90.4500000000000028
0
LINE
8
BLACK
6
CONTINUOUS
10
236.8249999999999886
20
-90.4500000000000028
11
236.8249999999999886
21
-93.0499999999999972
0
LINE
8
BLACK
6
CONTINUOUS
10
208.7828349999999773
20
-89.2095149999999961
11
208.8233879999999942
21
-89.2366119999999938
0
LINE
8
BLACK
6
CONTINUOUS
10
208.8233879999999942
20
-89.2366119999999938
11
208.8504849999999919
21
-89.2771649999999966
0
LINE
8
BLACK
6
CONTINUOUS
10
208.8504849999999919
20
-89.2771649999999966
11
208.8599999999999852
21
-89.3250000000000028
0
LINE
8
BLACK
6
CONTINUOUS
10
208.8599999999999852
20
-89.3250000000000028
11
208.8599999999999852
21
-90.9749999999999943
0
LINE
8
BLACK
6
CONTINUOUS
10
208.8599999999999852
20
-90.9749999999999943
11
208.8504849999999919
21
-91.0228350000000006
0
LINE
8
BLACK
6
CONTINUOUS
10
208.8504849999999919
20
-91.0228350000000006
11
208.8233879999999942
21
-91.0633879999999891
0
LINE
8
BLACK
6
CONTINUOUS
10
208.8233879999999942
20
-91.0633879999999891
11
208.7828349999999773
21
-91.090485000000001
0
LINE
8
BLACK
6
CONTINUOUS
10
208.7828349999999773
20
-91.090485000000001
11
208.7349999999999852
21
-91.0999999999999943
0
LINE
8
BLACK
6
CONTINUOUS
10
208.7349999999999852
20
-91.0999999999999943
11
208.4849999999999852
21
-91.0999999999999943
0
LINE
8
BLACK
6
CONTINUOUS
10
208.4849999999999852
20
-91.0999999999999943
11
208.4371649999999931
21
-91.090485000000001
0
LINE
8
BLACK
6
CONTINUOUS
10
208.4371649999999931
20
-91.090485000000001
11
208.3966120000000046
21
-91.0633879999999891
0
LINE
8
BLACK
6
CONTINUOUS
10
208.3966120000000046
20
-91.0633879999999891
11
208.3695149999999785
21
-91.0228350000000006
0
LINE
8
BLACK
6
CONTINUOUS
10
208.3695149999999785
20
-91.0228350000000006
11
208.3599999999999852
21
-90.9749999999999943
0
LINE
8
BLACK
6
CONTINUOUS
10
208.3599999999999852
20
-90.9749999999999943
11
208.3599999999999852
21
-89.3250000000000028
0
LINE
8
BLACK
6
CONTINUOUS
10
208.3599999999999852
20
-89.3250000000000028
11
208.3695149999999785
21
-89.2771649999999966
0
LINE
8
BLACK
6
CONTINUOUS
10
208.3695149999999785
20
-89.2771649999999966
11
208.3966120000000046
21
-89.2366119999999938
0
LINE
8
BLACK
6
CONTINUOUS
10
208.3966120000000046
20
-89.2366119999999938
11
208.4371649999999931
21
-89.2095149999999961
0
LINE
8
BLACK
6
CONTINUOUS
10
208.4371649999999931
20
-89.2095149999999961
11
208.4849999999999852
21
-89.2000000000000028
0
LINE
8
BLACK
6
CONTINUOUS
10
208.4849999999999852
20
-89.2000000000000028
11
208.7349999999999852
21
-89.2000000000000028
0
LINE
8
BLACK
6
CONTINUOUS
10
208.7349999999999852
20
-89.2000000000000028
11
208.7828349999999773
21
-89.2095149999999961
0
LINE
8
BLACK
6
CONTINUOUS
10
209.432834999999983
20
-89.2095149999999961
11
209.4733879999999999
21
-89.2366119999999938
0
LINE
8
BLACK
6
CONTINUOUS
10
209.4733879999999999
20
-89.2366119999999938
11
209.5004849999999976
21
-89.2771649999999966
0
LINE
8
BLACK
6
CONTINUOUS
10
209.5004849999999976
20
-89.2771649999999966
11
209.5099999999999909
21
-89.3250000000000028
0
LINE
8
BLACK
6
CONTINUOUS
10
209.5099999999999909
20
-89.3250000000000028
11
209.5099999999999909
21
-90.9749999999999943
0
LINE
8
BLACK
6
CONTINUOUS
10
209.5099999999999909
20
-90.9749999999999943
11
209.5004849999999976
21
-91.0228350000000006
0
LINE
8
BLACK
6
CONTINUOUS
10
209.5004849999999976
20
-91.0228350000000006
11
209.4733879999999999
21
-91.0633879999999891
0
LINE
8
BLACK
6
CONTINUOUS
10
209.4733879999999999
20
-91.0633879999999891
11
209.432834999999983
21
-91.090485000000001
0
LINE
8
BLACK
6
CONTINUOUS
10
209.432834999999983
20
-91.090485000000001
11
209.3849999999999909
21
-91.0999999999999943
0
LINE
8
BLACK
6
CONTINUOUS
10
209.3849999999999909
20
-91.0999999999999943
11
209.1349999999999909
21
-91.0999999999999943
0
LINE
8
BLACK
6
CONTINUOUS
10
209.1349999999999909
20
-91.0999999999999943
11
209.0871649999999988
21
-91.090485000000001
0
LINE
8
BLACK
6
CONTINUOUS
10
209.0871649999999988
20
-91.090485000000001
11
209.0466119999999819
21
-91.0633879999999891
0
LINE
8
BLACK
6
CONTINUOUS
10
209.0466119999999819
20
-91.0633879999999891
11
209.0195149999999842
21
-91.0228350000000006
0
LINE
8
BLACK
6
CONTINUOUS
10
209.0195149999999842
20
-91.0228350000000006
11
209.0099999999999909
21
-90.9749999999999943
0
LINE
8
BLACK
6
CONTINUOUS
10
209.0099999999999909
20
-90.9749999999999943
11
209.0099999999999909
21
-89.3250000000000028
0
LINE
8
BLACK
6
CONTINUOUS
10
209.0099999999999909
20
-89.3250000000000028
11
209.0195149999999842
21
-89.2771649999999966
0
LINE
8
BLACK
6
CONTINUOUS
10
209.0195149999999842
20
-89.2771649999999966
11
209.0466119999999819
21
-89.2366119999999938
0
LINE
8
BLACK
6
CONTINUOUS
10
209.0466119999999819
20
-89.2366119999999938
11
209.0871649999999988
21
-89.2095149999999961
0
LINE
8
BLACK
6
CONTINUOUS
10
209.0871649999999988
20
-89.2095149999999961
11
209.1349999999999909
21
-89.2000000000000028
0
LINE
8
BLACK
6
CONTINUOUS
10
209.1349999999999909
20
-89.2000000000000028
11
209.3849999999999909
21
-89.2000000000000028
0
LINE
8
BLACK
6
CONTINUOUS
10
209.3849999999999909
20
-89.2000000000000028
11
209.432834999999983
21
-89.2095149999999961
0
LINE
8
BLACK
6
CONTINUOUS
10
210.0828349999999887
20
-89.2095149999999961
11
210.1233879999999772
21
-89.2366119999999938
0
LINE
8
BLACK
6
CONTINUOUS
10
210.1233879999999772
20
-89.2366119999999938
11
210.1504850000000033
21
-89.2771649999999966
0
LINE
8
BLACK
6
CONTINUOUS
10
210.1504850000000033
20
-89.2771649999999966
11
210.1599999999999966
21
-89.3250000000000028
0
LINE
8
BLACK
6
CONTINUOUS
10
210.1599999999999966
20
-89.3250000000000028
11
210.1599999999999966
21
-90.9749999999999943
0
LINE
8
BLACK
6
CONTINUOUS
10
210.1599999999999966
20
-90.9749999999999943
11
210.1504850000000033
21
-91.0228350000000006
0
LINE
8
BLACK
6
CONTINUOUS
10
210.1504850000000033
20
-91.0228350000000006
11
210.1233879999999772
21
-91.0633879999999891
0
LINE
8
BLACK
6
CONTINUOUS
10
210.1233879999999772
20
-91.0633879999999891
11
210.0828349999999887
21
-91.090485000000001
0
LINE
8
BLACK
6
CONTINUOUS
10
210.0828349999999887
20
-91.090485000000001
11
210.0349999999999966
21
-91.0999999999999943
0
LINE
8
BLACK
6
CONTINUOUS
10
210.0349999999999966
20
-91.0999999999999943
11
209.7849999999999966
21
-91.0999999999999943
0
LINE
8
BLACK
6
CONTINUOUS
10
209.7849999999999966
20
-91.0999999999999943
11
209.7371650000000045
21
-91.090485000000001
0
LINE
8
BLACK
6
CONTINUOUS
10
209.7371650000000045
20
-91.090485000000001
11
209.6966119999999876
21
-91.0633879999999891
0
LINE
8
BLACK
6
CONTINUOUS
10
209.6966119999999876
20
-91.0633879999999891
11
209.6695149999999899
21
-91.0228350000000006
0
LINE
8
BLACK
6
CONTINUOUS
10
209.6695149999999899
20
-91.0228350000000006
11
209.6599999999999966
21
-90.9749999999999943
0
LINE
8
BLACK
6
CONTINUOUS
10
209.6599999999999966
20
-90.9749999999999943
11
209.6599999999999966
21
-89.3250000000000028
0
LINE
8
BLACK
6
CONTINUOUS
10
209.6599999999999966
20
-89.3250000000000028
11
209.6695149999999899
21
-89.2771649999999966
0
LINE
8
BLACK
6
CONTINUOUS
10
209.6695149999999899
20
-89.2771649999999966
11
209.6966119999999876
21
-89.2366119999999938
0
LINE
8
BLACK
6
CONTINUOUS
10
209.6966119999999876
20
-89.2366119999999938
11
209.7371650000000045
21
-89.2095149999999961
0
LINE
8
BLACK
6
CONTINUOUS
10
209.7371650000000045
20
-89.2095149999999961
11
209.7849999999999966
21
-89.2000000000000028
0
LINE
8
BLACK
6
CONTINUOUS
10
209.7849999999999966
20
-89.2000000000000028
11
210.0349999999999966
21
-89.2000000000000028
0
LINE
8
BLACK
6
CONTINUOUS
10
210.0349999999999966
20
-89.2000000000000028
11
210.0828349999999887
21
-89.2095149999999961
0
LINE
8
BLACK
6
CONTINUOUS
10
210.7328349999999944
20
-89.2095149999999961
11
210.7733879999999829
21
-89.2366119999999938
0
LINE
8
BLACK
6
CONTINUOUS
10
210.7733879999999829
20
-89.2366119999999938
11
210.8004849999999806
21
-89.2771649999999966
0
LINE
8
BLACK
6
CONTINUOUS
10
210.8004849999999806
20
-89.2771649999999966
11
210.8100000000000023
21
-89.3250000000000028
0
LINE
8
BLACK
6
CONTINUOUS
10
210.8100000000000023
20
-89.3250000000000028
11
210.8100000000000023
21
-90.9749999999999943
0
LINE
8
BLACK
6
CONTINUOUS
10
210.8100000000000023
20
-90.9749999999999943
11
210.8004849999999806
21
-91.0228350000000006
0
LINE
8
BLACK
6
CONTINUOUS
10
210.8004849999999806
20
-91.0228350000000006
11
210.7733879999999829
21
-91.0633879999999891
0
LINE
8
BLACK
6
CONTINUOUS
10
210.7733879999999829
20
-91.0633879999999891
11
210.7328349999999944
21
-91.090485000000001
0
LINE
8
BLACK
6
CONTINUOUS
10
210.7328349999999944
20
-91.090485000000001
11
210.6850000000000023
21
-91.0999999999999943
0
LINE
8
BLACK
6
CONTINUOUS
10
210.6850000000000023
20
-91.0999999999999943
11
210.4350000000000023
21
-91.0999999999999943
0
LINE
8
BLACK
6
CONTINUOUS
10
210.4350000000000023
20
-91.0999999999999943
11
210.3871649999999818
21
-91.090485000000001
0
LINE
8
BLACK
6
CONTINUOUS
10
210.3871649999999818
20
-91.090485000000001
11
210.3466119999999933
21
-91.0633879999999891
0
LINE
8
BLACK
6
CONTINUOUS
10
210.3466119999999933
20
-91.0633879999999891
11
210.3195149999999956
21
-91.0228350000000006
0
LINE
8
BLACK
6
CONTINUOUS
10
210.3195149999999956
20
-91.0228350000000006
11
210.3100000000000023
21
-90.9749999999999943
0
LINE
8
BLACK
6
CONTINUOUS
10
210.3100000000000023
20
-90.9749999999999943
11
210.3100000000000023
21
-89.3250000000000028
0
LINE
8
BLACK
6
CONTINUOUS
10
210.3100000000000023
20
-89.3250000000000028
11
210.3195149999999956
21
-89.2771649999999966
0
LINE
8
BLACK
6
CONTINUOUS
10
210.3195149999999956
20
-89.2771649999999966
11
210.3466119999999933
21
-89.2366119999999938
0
LINE
8
BLACK
6
CONTINUOUS
10
210.3466119999999933
20
-89.2366119999999938
11
210.3871649999999818
21
-89.2095149999999961
0
LINE
8
BLACK
6
CONTINUOUS
10
210.3871649999999818
20
-89.2095149999999961
11
210.4350000000000023
21
-89.2000000000000028
0
LINE
8
BLACK
6
CONTINUOUS
10
210.4350000000000023
20
-89.2000000000000028
11
210.6850000000000023
21
-89.2000000000000028
0
LINE
8
BLACK
6
CONTINUOUS
10
210.6850000000000023
20
-89.2000000000000028
11
210.7328349999999944
21
-89.2095149999999961
0
LINE
8
BLACK
6
CONTINUOUS
10
211.382835
20
-89.2095149999999961
11
211.4233879999999886
21
-89.2366119999999938
0
LINE
8
BLACK
6
CONTINUOUS
10
211.4233879999999886
20
-89.2366119999999938
11
211.4504849999999863
21
-89.2771649999999966
0
LINE
8
BLACK
6
CONTINUOUS
10
211.4504849999999863
20
-89.2771649999999966
11
211.4599999999999795
21
-89.3250000000000028
0
LINE
8
BLACK
6
CONTINUOUS
10
211.4599999999999795
20
-89.3250000000000028
11
211.4599999999999795
21
-90.9749999999999943
0
LINE
8
BLACK
6
CONTINUOUS
10
211.4599999999999795
20
-90.9749999999999943
11
211.4504849999999863
21
-91.0228350000000006
0
LINE
8
BLACK
6
CONTINUOUS
10
211.4504849999999863
20
-91.0228350000000006
11
211.4233879999999886
21
-91.0633879999999891
0
LINE
8
BLACK
6
CONTINUOUS
10
211.4233879999999886
20
-91.0633879999999891
11
211.382835
21
-91.090485000000001
0
LINE
8
BLACK
6
CONTINUOUS
10
211.382835
20
-91.090485000000001
11
211.3349999999999795
21
-91.0999999999999943
0
LINE
8
BLACK
6
CONTINUOUS
10
211.3349999999999795
20
-91.0999999999999943
11
211.0849999999999795
21
-91.0999999999999943
0
LINE
8
BLACK
6
CONTINUOUS
10
211.0849999999999795
20
-91.0999999999999943
11
211.0371649999999875
21
-91.090485000000001
0
LINE
8
BLACK
6
CONTINUOUS
10
211.0371649999999875
20
-91.090485000000001
11
210.9966119999999989
21
-91.0633879999999891
0
LINE
8
BLACK
6
CONTINUOUS
10
210.9966119999999989
20
-91.0633879999999891
11
210.9695150000000012
21
-91.0228350000000006
0
LINE
8
BLACK
6
CONTINUOUS
10
210.9695150000000012
20
-91.0228350000000006
11
210.9599999999999795
21
-90.9749999999999943
0
LINE
8
BLACK
6
CONTINUOUS
10
210.9599999999999795
20
-90.9749999999999943
11
210.9599999999999795
21
-89.3250000000000028
0
LINE
8
BLACK
6
CONTINUOUS
10
210.9599999999999795
20
-89.3250000000000028
11
210.9695150000000012
21
-89.2771649999999966
0
LINE
8
BLACK
6
CONTINUOUS
10
210.9695150000000012
20
-89.2771649999999966
11
210.9966119999999989
21
-89.2366119999999938
0
LINE
8
BLACK
6
CONTINUOUS
10
210.9966119999999989
20
-89.2366119999999938
11
211.0371649999999875
21
-89.2095149999999961
0
LINE
8
BLACK
6
CONTINUOUS
10
211.0371649999999875
20
-89.2095149999999961
11
211.0849999999999795
21
-89.2000000000000028
0
LINE
8
BLACK
6
CONTINUOUS
10
211.0849999999999795
20
-89.2000000000000028
11
211.3349999999999795
21
-89.2000000000000028
0
LINE
8
BLACK
6
CONTINUOUS
10
211.3349999999999795
20
-89.2000000000000028
11
211.382835
21
-89.2095149999999961
0
LINE
8
BLACK
6
CONTINUOUS
10
212.0328349999999773
20
-89.2095149999999961
11
212.0733879999999942
21
-89.2366119999999938
0
LINE
8
BLACK
6
CONTINUOUS
10
212.0733879999999942
20
-89.2366119999999938
11
212.1004849999999919
21
-89.2771649999999966
0
LINE
8
BLACK
6
CONTINUOUS
10
212.1004849999999919
20
-89.2771649999999966
11
212.1099999999999852
21
-89.3250000000000028
0
LINE
8
BLACK
6
CONTINUOUS
10
212.1099999999999852
20
-89.3250000000000028
11
212.1099999999999852
21
-90.9749999999999943
0
LINE
8
BLACK
6
CONTINUOUS
10
212.1099999999999852
20
-90.9749999999999943
11
212.1004849999999919
21
-91.0228350000000006
0
LINE
8
BLACK
6
CONTINUOUS
10
212.1004849999999919
20
-91.0228350000000006
11
212.0733879999999942
21
-91.0633879999999891
0
LINE
8
BLACK
6
CONTINUOUS
10
212.0733879999999942
20
-91.0633879999999891
11
212.0328349999999773
21
-91.090485000000001
0
LINE
8
BLACK
6
CONTINUOUS
10
212.0328349999999773
20
-91.090485000000001
11
211.9849999999999852
21
-91.0999999999999943
0
LINE
8
BLACK
6
CONTINUOUS
10
211.9849999999999852
20
-91.0999999999999943
11
211.7349999999999852
21
-91.0999999999999943
0
LINE
8
BLACK
6
CONTINUOUS
10
211.7349999999999852
20
-91.0999999999999943
11
211.6871649999999931
21
-91.090485000000001
0
LINE
8
BLACK
6
CONTINUOUS
10
211.6871649999999931
20
-91.090485000000001
11
211.6466120000000046
21
-91.0633879999999891
0
LINE
8
BLACK
6
CONTINUOUS
10
211.6466120000000046
20
-91.0633879999999891
11
211.6195149999999785
21
-91.0228350000000006
0
LINE
8
BLACK
6
CONTINUOUS
10
211.6195149999999785
20
-91.0228350000000006
11
211.6099999999999852
21
-90.9749999999999943
0
LINE
8
BLACK
6
CONTINUOUS
10
211.6099999999999852
20
-90.9749999999999943
11
211.6099999999999852
21
-89.3250000000000028
0
LINE
8
BLACK
6
CONTINUOUS
10
211.6099999999999852
20
-89.3250000000000028
11
211.6195149999999785
21
-89.2771649999999966
0
LINE
8
BLACK
6
CONTINUOUS
10
211.6195149999999785
20
-89.2771649999999966
11
211.6466120000000046
21
-89.2366119999999938
0
LINE
8
BLACK
6
CONTINUOUS
10
211.6466120000000046
20
-89.2366119999999938
11
211.6871649999999931
21
-89.2095149999999961
0
LINE
8
BLACK
6
CONTINUOUS
10
211.6871649999999931
20
-89.2095149999999961
11
211.7349999999999852
21
-89.2000000000000028
0
LINE
8
BLACK
6
CONTINUOUS
10
211.7349999999999852
20
-89.2000000000000028
11
211.9849999999999852
21
-89.2000000000000028
0
LINE
8
BLACK
6
CONTINUOUS
10
211.9849999999999852
20
-89.2000000000000028
11
212.0328349999999773
21
-89.2095149999999961
0
LINE
8
BLACK
6
CONTINUOUS
10
212.682834999999983
20
-89.2095149999999961
11
212.7233879999999999
21
-89.2366119999999938
0
LINE
8
BLACK
6
CONTINUOUS
10
212.7233879999999999
20
-89.2366119999999938
11
212.7504849999999976
21
-89.2771649999999966
0
LINE
8
BLACK
6
CONTINUOUS
10
212.7504849999999976
20
-89.2771649999999966
11
212.7599999999999909
21
-89.3250000000000028
0
LINE
8
BLACK
6
CONTINUOUS
10
212.7599999999999909
20
-89.3250000000000028
11
212.7599999999999909
21
-90.9749999999999943
0
LINE
8
BLACK
6
CONTINUOUS
10
212.7599999999999909
20
-90.9749999999999943
11
212.7504849999999976
21
-91.0228350000000006
0
LINE
8
BLACK
6
CONTINUOUS
10
212.7504849999999976
20
-91.0228350000000006
11
212.7233879999999999
21
-91.0633879999999891
0
LINE
8
BLACK
6
CONTINUOUS
10
212.7233879999999999
20
-91.0633879999999891
11
212.682834999999983
21
-91.090485000000001
0
LINE
8
BLACK
6
CONTINUOUS
10
212.682834999999983
20
-91.090485000000001
11
212.6349999999999909
21
-91.0999999999999943
0
LINE
8
BLACK
6
CONTINUOUS
10
212.6349999999999909
20
-91.0999999999999943
11
212.3849999999999909
21
-91.0999999999999943
0
LINE
8
BLACK
6
CONTINUOUS
10
212.3849999999999909
20
-91.0999999999999943
11
212.3371649999999988
21
-91.090485000000001
0
LINE
8
BLACK
6
CONTINUOUS
10
212.3371649999999988
20
-91.090485000000001
11
212.2966119999999819
21
-91.0633879999999891
0
LINE
8
BLACK
6
CONTINUOUS
10
212.2966119999999819
20
-91.0633879999999891
11
212.2695149999999842
21
-91.0228350000000006
0
LINE
8
BLACK
6
CONTINUOUS
10
212.2695149999999842
20
-91.0228350000000006
11
212.2599999999999909
21
-90.9749999999999943
0
LINE
8
BLACK
6
CONTINUOUS
10
212.2599999999999909
20
-90.9749999999999943
11
212.2599999999999909
21
-89.3250000000000028
0
LINE
8
BLACK
6
CONTINUOUS
10
212.2599999999999909
20
-89.3250000000000028
11
212.2695149999999842
21
-89.2771649999999966
0
LINE
8
BLACK
6
CONTINUOUS
10
212.2695149999999842
20
-89.2771649999999966
11
212.2966119999999819
21
-89.2366119999999938
0
LINE
8
BLACK
6
CONTINUOUS
10
212.2966119999999819
20
-89.2366119999999938
11
212.3371649999999988
21
-89.2095149999999961
0
LINE
8
BLACK
6
CONTINUOUS
10
212.3371649999999988
20
-89.2095149999999961
11
212.3849999999999909
21
-89.2000000000000028
0
LINE
8
BLACK
6
CONTINUOUS
10
212.3849999999999909
20
-89.2000000000000028
11
212.6349999999999909
21
-89.2000000000000028
0
LINE
8
BLACK
6
CONTINUOUS
10
212.6349999999999909
20
-89.2000000000000028
11
212.682834999999983
21
-89.2095149999999961
0
LINE
8
BLACK
6
CONTINUOUS
10
213.3328349999999887
20
-89.2095149999999961
11
213.3733879999999772
21
-89.2366119999999938
0
LINE
8
BLACK
6
CONTINUOUS
10
213.3733879999999772
20
-89.2366119999999938
11
213.4004850000000033
21
-89.2771649999999966
0
LINE
8
BLACK
6
CONTINUOUS
10
213.4004850000000033
20
-89.2771649999999966
11
213.4099999999999966
21
-89.3250000000000028
0
LINE
8
BLACK
6
CONTINUOUS
10
213.4099999999999966
20
-89.3250000000000028
11
213.4099999999999966
21
-90.9749999999999943
0
LINE
8
BLACK
6
CONTINUOUS
10
213.4099999999999966
20
-90.9749999999999943
11
213.4004850000000033
21
-91.0228350000000006
0
LINE
8
BLACK
6
CONTINUOUS
10
213.4004850000000033
20
-91.0228350000000006
11
213.3733879999999772
21
-91.0633879999999891
0
LINE
8
BLACK
6
CONTINUOUS
10
213.3733879999999772
20
-91.0633879999999891
11
213.3328349999999887
21
-91.090485000000001
0
LINE
8
BLACK
6
CONTINUOUS
10
213.3328349999999887
20
-91.090485000000001
11
213.2849999999999966
21
-91.0999999999999943
0
LINE
8
BLACK
6
CONTINUOUS
10
213.2849999999999966
20
-91.0999999999999943
11
213.0349999999999966
21
-91.0999999999999943
0
LINE
8
BLACK
6
CONTINUOUS
10
213.0349999999999966
20
-91.0999999999999943
11
212.9871650000000045
21
-91.090485000000001
0
LINE
8
BLACK
6
CONTINUOUS
10
212.9871650000000045
20
-91.090485000000001
11
212.9466119999999876
21
-91.0633879999999891
0
LINE
8
BLACK
6
CONTINUOUS
10
212.9466119999999876
20
-91.0633879999999891
11
212.9195149999999899
21
-91.0228350000000006
0
LINE
8
BLACK
6
CONTINUOUS
10
212.9195149999999899
20
-91.0228350000000006
11
212.9099999999999966
21
-90.9749999999999943
0
LINE
8
BLACK
6
CONTINUOUS
10
212.9099999999999966
20
-90.9749999999999943
11
212.9099999999999966
21
-89.3250000000000028
0
LINE
8
BLACK
6
CONTINUOUS
10
212.9099999999999966
20
-89.3250000000000028
11
212.9195149999999899
21
-89.2771649999999966
0
LINE
8
BLACK
6
CONTINUOUS
10
212.9195149999999899
20
-89.2771649999999966
11
212.9466119999999876
21
-89.2366119999999938
0
LINE
8
BLACK
6
CONTINUOUS
10
212.9466119999999876
20
-89.2366119999999938
11
212.9871650000000045
21
-89.2095149999999961
0
LINE
8
BLACK
6
CONTINUOUS
10
212.9871650000000045
20
-89.2095149999999961
11
213.0349999999999966
21
-89.2000000000000028
0
LINE
8
BLACK
6
CONTINUOUS
10
213.0349999999999966
20
-89.2000000000000028
11
213.2849999999999966
21
-89.2000000000000028
0
LINE
8
BLACK
6
CONTINUOUS
10
213.2849999999999966
20
-89.2000000000000028
11
213.3328349999999887
21
-89.2095149999999961
0
LINE
8
BLACK
6
CONTINUOUS
10
213.9828349999999944
20
-89.2095149999999961
11
214.0233879999999829
21
-89.2366119999999938
0
LINE
8
BLACK
6
CONTINUOUS
10
214.0233879999999829
20
-89.2366119999999938
11
214.0504849999999806
21
-89.2771649999999966
0
LINE
8
BLACK
6
CONTINUOUS
10
214.0504849999999806
20
-89.2771649999999966
11
214.0600000000000023
21
-89.3250000000000028
0
LINE
8
BLACK
6
CONTINUOUS
10
214.0600000000000023
20
-89.3250000000000028
11
214.0600000000000023
21
-90.9749999999999943
0
LINE
8
BLACK
6
CONTINUOUS
10
214.0600000000000023
20
-90.9749999999999943
11
214.0504849999999806
21
-91.0228350000000006
0
LINE
8
BLACK
6
CONTINUOUS
10
214.0504849999999806
20
-91.0228350000000006
11
214.0233879999999829
21
-91.0633879999999891
0
LINE
8
BLACK
6
CONTINUOUS
10
214.0233879999999829
20
-91.0633879999999891
11
213.9828349999999944
21
-91.090485000000001
0
LINE
8
BLACK
6
CONTINUOUS
10
213.9828349999999944
20
-91.090485000000001
11
213.9350000000000023
21
-91.0999999999999943
0
LINE
8
BLACK
6
CONTINUOUS
10
213.9350000000000023
20
-91.0999999999999943
11
213.6850000000000023
21
-91.0999999999999943
0
LINE
8
BLACK
6
CONTINUOUS
10
213.6850000000000023
20
-91.0999999999999943
11
213.6371649999999818
21
-91.090485000000001
0
LINE
8
BLACK
6
CONTINUOUS
10
213.6371649999999818
20
-91.090485000000001
11
213.5966119999999933
21
-91.0633879999999891
0
LINE
8
BLACK
6
CONTINUOUS
10
213.5966119999999933
20
-91.0633879999999891
11
213.5695149999999956
21
-91.0228350000000006
0
LINE
8
BLACK
6
CONTINUOUS
10
213.5695149999999956
20
-91.0228350000000006
11
213.5600000000000023
21
-90.9749999999999943
0
LINE
8
BLACK
6
CONTINUOUS
10
213.5600000000000023
20
-90.9749999999999943
11
213.5600000000000023
21
-89.3250000000000028
0
LINE
8
BLACK
6
CONTINUOUS
10
213.5600000000000023
20
-89.3250000000000028
11
213.5695149999999956
21
-89.2771649999999966
0
LINE
8
BLACK
6
CONTINUOUS
10
213.5695149999999956
20
-89.2771649999999966
11
213.5966119999999933
21
-89.2366119999999938
0
LINE
8
BLACK
6
CONTINUOUS
10
213.5966119999999933
20
-89.2366119999999938
11
213.6371649999999818
21
-89.2095149999999961
0
LINE
8
BLACK
6
CONTINUOUS
10
213.6371649999999818
20
-89.2095149999999961
11
213.6850000000000023
21
-89.2000000000000028
0
LINE
8
BLACK
6
CONTINUOUS
10
213.6850000000000023
20
-89.2000000000000028
11
213.9350000000000023
21
-89.2000000000000028
0
LINE
8
BLACK
6
CONTINUOUS
10
213.9350000000000023
20
-89.2000000000000028
11
213.9828349999999944
21
-89.2095149999999961
0
LINE
8
BLACK
6
CONTINUOUS
10
214.632835
20
-89.2095149999999961
11
214.6733879999999886
21
-89.2366119999999938
0
LINE
8
BLACK
6
CONTINUOUS
10
214.6733879999999886
20
-89.2366119999999938
11
214.7004849999999863
21
-89.2771649999999966
0
LINE
8
BLACK
6
CONTINUOUS
10
214.7004849999999863
20
-89.2771649999999966
11
214.7099999999999795
21
-89.3250000000000028
0
LINE
8
BLACK
6
CONTINUOUS
10
214.7099999999999795
20
-89.3250000000000028
11
214.7099999999999795
21
-90.9749999999999943
0
LINE
8
BLACK
6
CONTINUOUS
10
214.7099999999999795
20
-90.9749999999999943
11
214.7004849999999863
21
-91.0228350000000006
0
LINE
8
BLACK
6
CONTINUOUS
10
214.7004849999999863
20
-91.0228350000000006
11
214.6733879999999886
21
-91.0633879999999891
0
LINE
8
BLACK
6
CONTINUOUS
10
214.6733879999999886
20
-91.0633879999999891
11
214.632835
21
-91.090485000000001
0
LINE
8
BLACK
6
CONTINUOUS
10
214.632835
20
-91.090485000000001
11
214.5849999999999795
21
-91.0999999999999943
0
LINE
8
BLACK
6
CONTINUOUS
10
214.5849999999999795
20
-91.0999999999999943
11
214.3349999999999795
21
-91.0999999999999943
0
LINE
8
BLACK
6
CONTINUOUS
10
214.3349999999999795
20
-91.0999999999999943
11
214.2871649999999875
21
-91.090485000000001
0
LINE
8
BLACK
6
CONTINUOUS
10
214.2871649999999875
20
-91.090485000000001
11
214.2466119999999989
21
-91.0633879999999891
0
LINE
8
BLACK
6
CONTINUOUS
10
214.2466119999999989
20
-91.0633879999999891
11
214.2195150000000012
21
-91.0228350000000006
0
LINE
8
BLACK
6
CONTINUOUS
10
214.2195150000000012
20
-91.0228350000000006
11
214.2099999999999795
21
-90.9749999999999943
0
LINE
8
BLACK
6
CONTINUOUS
10
214.2099999999999795
20
-90.9749999999999943
11
214.2099999999999795
21
-89.3250000000000028
0
LINE
8
BLACK
6
CONTINUOUS
10
214.2099999999999795
20
-89.3250000000000028
11
214.2195150000000012
21
-89.2771649999999966
0
LINE
8
BLACK
6
CONTINUOUS
10
214.2195150000000012
20
-89.2771649999999966
11
214.2466119999999989
21
-89.2366119999999938
0
LINE
8
BLACK
6
CONTINUOUS
10
214.2466119999999989
20
-89.2366119999999938
11
214.2871649999999875
21
-89.2095149999999961
0
LINE
8
BLACK
6
CONTINUOUS
10
214.2871649999999875
20
-89.2095149999999961
11
214.3349999999999795
21
-89.2000000000000028
0
LINE
8
BLACK
6
CONTINUOUS
10
214.3349999999999795
20
-89.2000000000000028
11
214.5849999999999795
21
-89.2000000000000028
0
LINE
8
BLACK
6
CONTINUOUS
10
214.5849999999999795
20
-89.2000000000000028
11
214.632835
21
-89.2095149999999961
0
LINE
8
BLACK
6
CONTINUOUS
10
163.3149999999999977
20
-90.8499999999999943
11
160.7150000000000034
21
-90.8499999999999943
0
LINE
8
BLACK
6
CONTINUOUS
10
160.7150000000000034
20
-90.8499999999999943
11
160.7150000000000034
21
-88.25
0
LINE
8
BLACK
6
CONTINUOUS
10
160.7150000000000034
20
-88.25
11
163.3149999999999977
21
-88.25
0
LINE
8
BLACK
6
CONTINUOUS
10
163.3149999999999977
20
-88.25
11
163.3149999999999977
21
-90.8499999999999943
0
LINE
8
BLACK
6
CONTINUOUS
10
225.2749999999999773
20
-90.8499999999999943
11
222.6749999999999829
21
-90.8499999999999943
0
LINE
8
BLACK
6
CONTINUOUS
10
222.6749999999999829
20
-90.8499999999999943
11
222.6749999999999829
21
-88.25
0
LINE
8
BLACK
6
CONTINUOUS
10
222.6749999999999829
20
-88.25
11
225.2749999999999773
21
-88.25
0
LINE
8
BLACK
6
CONTINUOUS
10
225.2749999999999773
20
-88.25
11
225.2749999999999773
21
-90.8499999999999943
0
LINE
8
BLACK
6
CONTINUOUS
10
195.4449999999999932
20
-85.25
11
192.8449999999999989
21
-85.25
0
LINE
8
BLACK
6
CONTINUOUS
10
192.8449999999999989
20
-85.25
11
192.8449999999999989
21
-82.6499999999999915
0
LINE
8
BLACK
6
CONTINUOUS
10
192.8449999999999989
20
-82.6499999999999915
11
195.4449999999999932
21
-82.6499999999999915
0
LINE
8
BLACK
6
CONTINUOUS
10
195.4449999999999932
20
-82.6499999999999915
11
195.4449999999999932
21
-85.25
0
LINE
8
BLACK
6
CONTINUOUS
10
216.1199999999999761
20
-85.25
11
213.5199999999999818
21
-85.25
0
LINE
8
BLACK
6
CONTINUOUS
10
213.5199999999999818
20
-85.25
11
213.5199999999999818
21
-82.6499999999999915
0
LINE
8
BLACK
6
CONTINUOUS
10
213.5199999999999818
20
-82.6499999999999915
11
216.1199999999999761
21
-82.6499999999999915
0
LINE
8
BLACK
6
CONTINUOUS
10
216.1199999999999761
20
-82.6499999999999915
11
216.1199999999999761
21
-85.25
0
LINE
8
BLACK
6
CONTINUOUS
10
183.8949999999999818
20
-83.0499999999999972
11
181.2949999999999875
21
-83.0499999999999972
0
LINE
8
BLACK
6
CONTINUOUS
10
181.2949999999999875
20
-83.0499999999999972
11
181.2949999999999875
21
-80.4500000000000028
0
LINE
8
BLACK
6
CONTINUOUS
10
181.2949999999999875
20
-80.4500000000000028
11
183.8949999999999818
21
-80.4500000000000028
0
LINE
8
BLACK
6
CONTINUOUS
10
183.8949999999999818
20
-80.4500000000000028
11
183.8949999999999818
21
-83.0499999999999972
0
LINE
8
BLACK
6
CONTINUOUS
10
204.5699999999999932
20
-83.0499999999999972
11
201.9699999999999989
21
-83.0499999999999972
0
LINE
8
BLACK
6
CONTINUOUS
10
201.9699999999999989
20
-83.0499999999999972
11
201.9699999999999989
21
-80.4500000000000028
0
LINE
8
BLACK
6
CONTINUOUS
10
201.9699999999999989
20
-80.4500000000000028
11
204.5699999999999932
21
-80.4500000000000028
0
LINE
8
BLACK
6
CONTINUOUS
10
204.5699999999999932
20
-80.4500000000000028
11
204.5699999999999932
21
-83.0499999999999972
  0
ENDSEC
  0
EOF
