%TF.GenerationSoftware,KiCad,Pcbnew,9.0.0*%
%TF.CreationDate,2025-05-22T09:46:44-07:00*%
%TF.ProjectId,cinco-cinco,63696e63-6f2d-4636-996e-636f2e6b6963,rev?*%
%TF.SameCoordinates,Original*%
%TF.FileFunction,Paste,Bot*%
%TF.FilePolarity,Positive*%
%FSLAX46Y46*%
G04 Gerber Fmt 4.6, Leading zero omitted, Abs format (unit mm)*
G04 Created by KiCad (PCBNEW 9.0.0) date 2025-05-22 09:46:44*
%MOMM*%
%LPD*%
G01*
G04 APERTURE LIST*
G04 Aperture macros list*
%AMRoundRect*
0 Rectangle with rounded corners*
0 $1 Rounding radius*
0 $2 $3 $4 $5 $6 $7 $8 $9 X,Y pos of 4 corners*
0 Add a 4 corners polygon primitive as box body*
4,1,4,$2,$3,$4,$5,$6,$7,$8,$9,$2,$3,0*
0 Add four circle primitives for the rounded corners*
1,1,$1+$1,$2,$3*
1,1,$1+$1,$4,$5*
1,1,$1+$1,$6,$7*
1,1,$1+$1,$8,$9*
0 Add four rect primitives between the rounded corners*
20,1,$1+$1,$2,$3,$4,$5,0*
20,1,$1+$1,$4,$5,$6,$7,0*
20,1,$1+$1,$6,$7,$8,$9,0*
20,1,$1+$1,$8,$9,$2,$3,0*%
G04 Aperture macros list end*
%ADD10R,2.600000X2.600000*%
%ADD11RoundRect,0.250000X0.450000X-0.350000X0.450000X0.350000X-0.450000X0.350000X-0.450000X-0.350000X0*%
%ADD12RoundRect,0.125000X-0.125000X0.825000X-0.125000X-0.825000X0.125000X-0.825000X0.125000X0.825000X0*%
%ADD13RoundRect,0.150000X0.150000X0.625000X-0.150000X0.625000X-0.150000X-0.625000X0.150000X-0.625000X0*%
%ADD14RoundRect,0.250000X0.350000X0.650000X-0.350000X0.650000X-0.350000X-0.650000X0.350000X-0.650000X0*%
G04 APERTURE END LIST*
D10*
%TO.C,SW1*%
X214820000Y-83950000D03*
X203270000Y-81750000D03*
%TD*%
%TO.C,SW2*%
X194145000Y-83950000D03*
X182595000Y-81750000D03*
%TD*%
%TO.C,SW5*%
X251445000Y-133450000D03*
X239895000Y-131250000D03*
%TD*%
%TO.C,SW3*%
X173565000Y-91750000D03*
X162015000Y-89550000D03*
%TD*%
%TO.C,SW4*%
X235525000Y-91750000D03*
X223975000Y-89550000D03*
%TD*%
D11*
%TO.C,R3*%
X188130000Y-94650000D03*
X188130000Y-92650000D03*
%TD*%
D12*
%TO.C,U1*%
X208610000Y-90150000D03*
X209260000Y-90150000D03*
X209910000Y-90150000D03*
X210560000Y-90150000D03*
X211210000Y-90150000D03*
X211860000Y-90150000D03*
X212510000Y-90150000D03*
X213160000Y-90150000D03*
X213810000Y-90150000D03*
X214460000Y-90150000D03*
X214460000Y-97150000D03*
X213810000Y-97150000D03*
X213160000Y-97150000D03*
X212510000Y-97150000D03*
X211860000Y-97150000D03*
X211210000Y-97150000D03*
X210560000Y-97150000D03*
X209910000Y-97150000D03*
X209260000Y-97150000D03*
X208610000Y-97150000D03*
%TD*%
D11*
%TO.C,R4*%
X204150000Y-94650000D03*
X204150000Y-92650000D03*
%TD*%
D13*
%TO.C,J1*%
X193170000Y-98360000D03*
X192170000Y-98360000D03*
X191170000Y-98360000D03*
X190170000Y-98360000D03*
D14*
X194470000Y-102235000D03*
X188870000Y-102235000D03*
%TD*%
D11*
%TO.C,R2*%
X192910000Y-94650000D03*
X192910000Y-92650000D03*
%TD*%
%TO.C,R1*%
X196450000Y-94650000D03*
X196450000Y-92650000D03*
%TD*%
M02*
