%TF.GenerationSoftware,KiCad,Pcbnew,9.0.0*%
%TF.CreationDate,2025-05-22T09:46:44-07:00*%
%TF.ProjectId,cinco-cinco,63696e63-6f2d-4636-996e-636f2e6b6963,rev?*%
%TF.SameCoordinates,Original*%
%TF.FileFunction,Copper,L2,Bot*%
%TF.FilePolarity,Positive*%
%FSLAX46Y46*%
G04 Gerber Fmt 4.6, Leading zero omitted, Abs format (unit mm)*
G04 Created by KiCad (PCBNEW 9.0.0) date 2025-05-22 09:46:44*
%MOMM*%
%LPD*%
G01*
G04 APERTURE LIST*
G04 Aperture macros list*
%AMRoundRect*
0 Rectangle with rounded corners*
0 $1 Rounding radius*
0 $2 $3 $4 $5 $6 $7 $8 $9 X,Y pos of 4 corners*
0 Add a 4 corners polygon primitive as box body*
4,1,4,$2,$3,$4,$5,$6,$7,$8,$9,$2,$3,0*
0 Add four circle primitives for the rounded corners*
1,1,$1+$1,$2,$3*
1,1,$1+$1,$4,$5*
1,1,$1+$1,$6,$7*
1,1,$1+$1,$8,$9*
0 Add four rect primitives between the rounded corners*
20,1,$1+$1,$2,$3,$4,$5,0*
20,1,$1+$1,$4,$5,$6,$7,0*
20,1,$1+$1,$6,$7,$8,$9,0*
20,1,$1+$1,$8,$9,$2,$3,0*%
%AMFreePoly0*
4,1,6,1.000000,0.000000,0.500000,-0.750000,-0.500000,-0.750000,-0.500000,0.750000,0.500000,0.750000,1.000000,0.000000,1.000000,0.000000,$1*%
%AMFreePoly1*
4,1,6,0.500000,-0.750000,-0.650000,-0.750000,-0.150000,0.000000,-0.650000,0.750000,0.500000,0.750000,0.500000,-0.750000,0.500000,-0.750000,$1*%
G04 Aperture macros list end*
%TA.AperFunction,SMDPad,CuDef*%
%ADD10R,2.600000X2.600000*%
%TD*%
%TA.AperFunction,SMDPad,CuDef*%
%ADD11RoundRect,0.250000X0.450000X-0.350000X0.450000X0.350000X-0.450000X0.350000X-0.450000X-0.350000X0*%
%TD*%
%TA.AperFunction,SMDPad,CuDef*%
%ADD12RoundRect,0.125000X-0.125000X0.825000X-0.125000X-0.825000X0.125000X-0.825000X0.125000X0.825000X0*%
%TD*%
%TA.AperFunction,SMDPad,CuDef*%
%ADD13FreePoly0,270.000000*%
%TD*%
%TA.AperFunction,SMDPad,CuDef*%
%ADD14FreePoly1,270.000000*%
%TD*%
%TA.AperFunction,SMDPad,CuDef*%
%ADD15RoundRect,0.150000X0.150000X0.625000X-0.150000X0.625000X-0.150000X-0.625000X0.150000X-0.625000X0*%
%TD*%
%TA.AperFunction,SMDPad,CuDef*%
%ADD16RoundRect,0.250000X0.350000X0.650000X-0.350000X0.650000X-0.350000X-0.650000X0.350000X-0.650000X0*%
%TD*%
%TA.AperFunction,Conductor*%
%ADD17C,0.300000*%
%TD*%
G04 APERTURE END LIST*
D10*
%TO.P,SW1,1,1*%
%TO.N,/middle*%
X214820000Y-83950000D03*
%TO.P,SW1,2,2*%
%TO.N,GND*%
X203270000Y-81750000D03*
%TD*%
%TO.P,SW2,1,1*%
%TO.N,/ring*%
X194145000Y-83950000D03*
%TO.P,SW2,2,2*%
%TO.N,GND*%
X182595000Y-81750000D03*
%TD*%
%TO.P,SW5,1,1*%
%TO.N,/thumb*%
X251445000Y-133450000D03*
%TO.P,SW5,2,2*%
%TO.N,GND*%
X239895000Y-131250000D03*
%TD*%
%TO.P,SW3,1,1*%
%TO.N,/pinky*%
X173565000Y-91750000D03*
%TO.P,SW3,2,2*%
%TO.N,GND*%
X162015000Y-89550000D03*
%TD*%
%TO.P,SW4,1,1*%
%TO.N,/index*%
X235525000Y-91750000D03*
%TO.P,SW4,2,2*%
%TO.N,GND*%
X223975000Y-89550000D03*
%TD*%
D11*
%TO.P,R3,1*%
%TO.N,GND*%
X188130000Y-94650000D03*
%TO.P,R3,2*%
%TO.N,/A0*%
X188130000Y-92650000D03*
%TD*%
D12*
%TO.P,U1,1,SCL*%
%TO.N,/SCL*%
X208610000Y-90150000D03*
%TO.P,U1,2,SDA*%
%TO.N,/SDA*%
X209260000Y-90150000D03*
%TO.P,U1,3,A2*%
%TO.N,GND*%
X209910000Y-90150000D03*
%TO.P,U1,4,A1*%
X210560000Y-90150000D03*
%TO.P,U1,5,A0*%
%TO.N,/A0*%
X211210000Y-90150000D03*
%TO.P,U1,6,~{RESET}*%
%TO.N,Net-(U1-~{RESET})*%
X211860000Y-90150000D03*
%TO.P,U1,7,NC*%
%TO.N,unconnected-(U1-NC-Pad7)*%
X212510000Y-90150000D03*
%TO.P,U1,8,INT*%
%TO.N,unconnected-(U1-INT-Pad8)*%
X213160000Y-90150000D03*
%TO.P,U1,9,VSS*%
%TO.N,GND*%
X213810000Y-90150000D03*
%TO.P,U1,10,NC*%
%TO.N,unconnected-(U1-NC-Pad10)*%
X214460000Y-90150000D03*
%TO.P,U1,11,NC*%
%TO.N,unconnected-(U1-NC-Pad11)*%
X214460000Y-97150000D03*
%TO.P,U1,12,GP0*%
%TO.N,/index*%
X213810000Y-97150000D03*
%TO.P,U1,13,GP1*%
%TO.N,/middle*%
X213160000Y-97150000D03*
%TO.P,U1,14,GP2*%
%TO.N,/ring*%
X212510000Y-97150000D03*
%TO.P,U1,15,GP3*%
%TO.N,/pinky*%
X211860000Y-97150000D03*
%TO.P,U1,16,GP4*%
%TO.N,/thumb*%
X211210000Y-97150000D03*
%TO.P,U1,17,GP5*%
%TO.N,unconnected-(U1-GP5-Pad17)*%
X210560000Y-97150000D03*
%TO.P,U1,18,GP6*%
%TO.N,unconnected-(U1-GP6-Pad18)*%
X209910000Y-97150000D03*
%TO.P,U1,19,GP7*%
%TO.N,unconnected-(U1-GP7-Pad19)*%
X209260000Y-97150000D03*
%TO.P,U1,20,VDD*%
%TO.N,VCC*%
X208610000Y-97150000D03*
%TD*%
D13*
%TO.P,JP1,1,A*%
%TO.N,/A0*%
X200290000Y-92925000D03*
D14*
%TO.P,JP1,2,B*%
%TO.N,VCC*%
X200290000Y-94375000D03*
%TD*%
D11*
%TO.P,R4,1*%
%TO.N,VCC*%
X204150000Y-94650000D03*
%TO.P,R4,2*%
%TO.N,Net-(U1-~{RESET})*%
X204150000Y-92650000D03*
%TD*%
D15*
%TO.P,J1,1,Pin_1*%
%TO.N,GND*%
X193170000Y-98360000D03*
%TO.P,J1,2,Pin_2*%
%TO.N,VCC*%
X192170000Y-98360000D03*
%TO.P,J1,3,Pin_3*%
%TO.N,/SDA*%
X191170000Y-98360000D03*
%TO.P,J1,4,Pin_4*%
%TO.N,/SCL*%
X190170000Y-98360000D03*
D16*
%TO.P,J1,MP*%
%TO.N,N/C*%
X194470000Y-102235000D03*
X188870000Y-102235000D03*
%TD*%
D11*
%TO.P,R2,1*%
%TO.N,VCC*%
X192910000Y-94650000D03*
%TO.P,R2,2*%
%TO.N,/SCL*%
X192910000Y-92650000D03*
%TD*%
%TO.P,R1,1*%
%TO.N,VCC*%
X196450000Y-94650000D03*
%TO.P,R1,2*%
%TO.N,/SDA*%
X196450000Y-92650000D03*
%TD*%
D17*
%TO.N,/SDA*%
X207280000Y-91850000D02*
X208900000Y-91850000D01*
X208900000Y-91850000D02*
X209260000Y-91490000D01*
X209260000Y-91490000D02*
X209260000Y-90829000D01*
X196450000Y-92650000D02*
X195460000Y-93640000D01*
X205880000Y-90450000D02*
X207280000Y-91850000D01*
X209260000Y-90829000D02*
X209309000Y-90780000D01*
X191170000Y-94290000D02*
X191170000Y-98360000D01*
X195460000Y-93640000D02*
X191820000Y-93640000D01*
X197500000Y-90450000D02*
X205880000Y-90450000D01*
X191820000Y-93640000D02*
X191170000Y-94290000D01*
X196450000Y-92650000D02*
X196450000Y-91500000D01*
X196450000Y-91500000D02*
X197500000Y-90450000D01*
%TO.N,VCC*%
X192170000Y-98360000D02*
X192170000Y-95390000D01*
X192170000Y-95390000D02*
X192910000Y-94650000D01*
X200290000Y-94375000D02*
X200515000Y-94600000D01*
X208610000Y-97150000D02*
X206110000Y-94650000D01*
X200290000Y-94375000D02*
X200025000Y-94640000D01*
X196450000Y-94650000D02*
X192910000Y-94650000D01*
X206110000Y-94650000D02*
X204150000Y-94650000D01*
X196460000Y-94640000D02*
X196450000Y-94650000D01*
X204100000Y-94600000D02*
X204150000Y-94650000D01*
X200025000Y-94640000D02*
X196460000Y-94640000D01*
X200515000Y-94600000D02*
X204100000Y-94600000D01*
%TO.N,/SCL*%
X192910000Y-92650000D02*
X191830000Y-92650000D01*
X191830000Y-92650000D02*
X190170000Y-94310000D01*
X192910000Y-91140000D02*
X194190000Y-89860000D01*
X190170000Y-96330000D02*
X190170000Y-98360000D01*
X192910000Y-92650000D02*
X192910000Y-91140000D01*
X208320000Y-89860000D02*
X208610000Y-90150000D01*
X190170000Y-94310000D02*
X190170000Y-96310000D01*
X194190000Y-89860000D02*
X208320000Y-89860000D01*
%TO.N,/A0*%
X210560000Y-92470000D02*
X211210000Y-91820000D01*
X211210000Y-88300000D02*
X211210000Y-90150000D01*
X210940000Y-88030000D02*
X211210000Y-88300000D01*
X201070000Y-91080000D02*
X204920000Y-91080000D01*
X211210000Y-91820000D02*
X211210000Y-90150000D01*
X188130000Y-89710000D02*
X189810000Y-88030000D01*
X188130000Y-92650000D02*
X188130000Y-89710000D01*
X206310000Y-92470000D02*
X210560000Y-92470000D01*
X189810000Y-88030000D02*
X210940000Y-88030000D01*
X200290000Y-91860000D02*
X201070000Y-91080000D01*
X204920000Y-91080000D02*
X206310000Y-92470000D01*
X200290000Y-92925000D02*
X200290000Y-91860000D01*
%TO.N,Net-(U1-~{RESET})*%
X204580000Y-93080000D02*
X211070000Y-93080000D01*
X211070000Y-93080000D02*
X211909000Y-92241000D01*
X204150000Y-92650000D02*
X204580000Y-93080000D01*
X211909000Y-92241000D02*
X211909000Y-90940000D01*
%TO.N,/middle*%
X213160000Y-97150000D02*
X213160000Y-95500000D01*
X213160000Y-95500000D02*
X217010000Y-91650000D01*
X214820000Y-85900000D02*
X214820000Y-83950000D01*
X217010000Y-91650000D02*
X217010000Y-88090000D01*
X217010000Y-88090000D02*
X214820000Y-85900000D01*
%TO.N,/ring*%
X196425000Y-86230000D02*
X194145000Y-83950000D01*
X214320000Y-86230000D02*
X196425000Y-86230000D01*
X212510000Y-95390000D02*
X216420000Y-91480000D01*
X212510000Y-97150000D02*
X212510000Y-95390000D01*
X216420000Y-88330000D02*
X214320000Y-86230000D01*
X216420000Y-91480000D02*
X216420000Y-88330000D01*
%TO.N,/pinky*%
X215580000Y-88580000D02*
X215580000Y-91530000D01*
X215580000Y-91530000D02*
X211860000Y-95250000D01*
X213750000Y-86750000D02*
X215580000Y-88580000D01*
X211860000Y-95250000D02*
X211860000Y-97150000D01*
X178565000Y-86750000D02*
X213750000Y-86750000D01*
X173565000Y-91750000D02*
X178565000Y-86750000D01*
%TO.N,/index*%
X213810000Y-97150000D02*
X213810000Y-95600000D01*
X213810000Y-95600000D02*
X226180000Y-83230000D01*
X226180000Y-83230000D02*
X234300000Y-83230000D01*
X235525000Y-84455000D02*
X235525000Y-91750000D01*
X234300000Y-83230000D02*
X235525000Y-84455000D01*
%TO.N,/thumb*%
X251440000Y-132335000D02*
X251440000Y-121680000D01*
X251440000Y-121680000D02*
X231340000Y-101580000D01*
X252180000Y-133075000D02*
X251440000Y-132335000D01*
X212240000Y-101580000D02*
X211210000Y-100550000D01*
X211210000Y-100550000D02*
X211210000Y-97150000D01*
X231340000Y-101580000D02*
X212240000Y-101580000D01*
%TD*%
%TA.AperFunction,Conductor*%
%TO.N,GND*%
G36*
X218952695Y-69487489D02*
G01*
X218956591Y-69487496D01*
X218957004Y-69487608D01*
X219016170Y-69487607D01*
X219016224Y-69487623D01*
X219029823Y-69488387D01*
X219047454Y-69490373D01*
X219120160Y-69498565D01*
X219147227Y-69504742D01*
X219226436Y-69532458D01*
X219251451Y-69544505D01*
X219322500Y-69589148D01*
X219344209Y-69606461D01*
X219403538Y-69665790D01*
X219420851Y-69687499D01*
X219465494Y-69758548D01*
X219477542Y-69783566D01*
X219505256Y-69862770D01*
X219511434Y-69889841D01*
X219521612Y-69980179D01*
X219522392Y-69993966D01*
X219522392Y-69995103D01*
X219522392Y-70052996D01*
X219522437Y-70053169D01*
X219522444Y-70061318D01*
X219522443Y-70061319D01*
X219522444Y-70061327D01*
X219526607Y-75961087D01*
X219526607Y-75962889D01*
X219526606Y-76070206D01*
X219526606Y-76070208D01*
X219557149Y-76282652D01*
X219557153Y-76282668D01*
X219617616Y-76488594D01*
X219617621Y-76488606D01*
X219706776Y-76683831D01*
X219706789Y-76683854D01*
X219822819Y-76864400D01*
X219822829Y-76864413D01*
X219963379Y-77026618D01*
X219963381Y-77026620D01*
X220117195Y-77159899D01*
X220125593Y-77167176D01*
X220125597Y-77167179D01*
X220125599Y-77167180D01*
X220306145Y-77283210D01*
X220306168Y-77283223D01*
X220459420Y-77353210D01*
X220501397Y-77372380D01*
X220501399Y-77372380D01*
X220501405Y-77372383D01*
X220634346Y-77411416D01*
X220707340Y-77432849D01*
X220919792Y-77463394D01*
X221027111Y-77463393D01*
X221093003Y-77463393D01*
X221101789Y-77461038D01*
X221116176Y-77460596D01*
X221117319Y-77460893D01*
X221120032Y-77460537D01*
X239918554Y-77467578D01*
X239918975Y-77467607D01*
X239927000Y-77467607D01*
X239927004Y-77467608D01*
X239985938Y-77467607D01*
X239999822Y-77468387D01*
X240018116Y-77470448D01*
X240090160Y-77478565D01*
X240117227Y-77484742D01*
X240196436Y-77512458D01*
X240221449Y-77524504D01*
X240292500Y-77569148D01*
X240314209Y-77586461D01*
X240373538Y-77645790D01*
X240390851Y-77667499D01*
X240435494Y-77738548D01*
X240447542Y-77763566D01*
X240475256Y-77842770D01*
X240481434Y-77869841D01*
X240491585Y-77959937D01*
X240492364Y-77974244D01*
X240399791Y-105073986D01*
X240399592Y-105132249D01*
X240395321Y-105171874D01*
X240399366Y-105197869D01*
X240399333Y-105207673D01*
X240399277Y-105224176D01*
X240399278Y-105224181D01*
X240407811Y-105256473D01*
X240410450Y-105269076D01*
X240415589Y-105302088D01*
X240422266Y-105317192D01*
X240422265Y-105317192D01*
X240426228Y-105326156D01*
X240432951Y-105351592D01*
X240452754Y-105386165D01*
X240455364Y-105392068D01*
X240468870Y-105422621D01*
X240468872Y-105422623D01*
X240485376Y-105443115D01*
X240498453Y-105465944D01*
X240526533Y-105494217D01*
X240530581Y-105499243D01*
X245210704Y-111310206D01*
X245221261Y-111325542D01*
X245230764Y-111341846D01*
X245252804Y-111363706D01*
X245262056Y-111373966D01*
X245281534Y-111398150D01*
X245296763Y-111409276D01*
X245310935Y-111421362D01*
X245324333Y-111434651D01*
X245351278Y-111450060D01*
X245351280Y-111450061D01*
X245357291Y-111453499D01*
X245387943Y-111475894D01*
X245414247Y-111486071D01*
X245438730Y-111500073D01*
X245468755Y-111507985D01*
X245481889Y-111512243D01*
X245492608Y-111516390D01*
X245510848Y-111523448D01*
X245538892Y-111526470D01*
X245566163Y-111533658D01*
X245604125Y-111533502D01*
X245641874Y-111537571D01*
X245660526Y-111534666D01*
X245679072Y-111533193D01*
X256072825Y-111490532D01*
X256087198Y-111491310D01*
X256177267Y-111501459D01*
X256204331Y-111507636D01*
X256283540Y-111535352D01*
X256308553Y-111547398D01*
X256379606Y-111592043D01*
X256401313Y-111609355D01*
X256460644Y-111668686D01*
X256477957Y-111690395D01*
X256522600Y-111761444D01*
X256534648Y-111786462D01*
X256562362Y-111865666D01*
X256568540Y-111892737D01*
X256577855Y-111975411D01*
X256578635Y-111989401D01*
X256559500Y-134128615D01*
X256559499Y-134128984D01*
X256552678Y-135907194D01*
X256552392Y-135911448D01*
X256552392Y-135975943D01*
X256551612Y-135989827D01*
X256541434Y-136080159D01*
X256535256Y-136107229D01*
X256507542Y-136186433D01*
X256495494Y-136211451D01*
X256450851Y-136282500D01*
X256433538Y-136304209D01*
X256374209Y-136363538D01*
X256352500Y-136380851D01*
X256281451Y-136425494D01*
X256256433Y-136437542D01*
X256177229Y-136465256D01*
X256150158Y-136471434D01*
X256059825Y-136481612D01*
X256046016Y-136482392D01*
X255987004Y-136482392D01*
X255986868Y-136482427D01*
X255978841Y-136482432D01*
X255978840Y-136482431D01*
X255978836Y-136482432D01*
X238004091Y-136492388D01*
X237990139Y-136491608D01*
X237899841Y-136481434D01*
X237872770Y-136475256D01*
X237793566Y-136447542D01*
X237768548Y-136435494D01*
X237697499Y-136390851D01*
X237675790Y-136373538D01*
X237616461Y-136314209D01*
X237599148Y-136292500D01*
X237554505Y-136221451D01*
X237542457Y-136196433D01*
X237514743Y-136117229D01*
X237508565Y-136090159D01*
X237507438Y-136080159D01*
X237498386Y-135999826D01*
X237497607Y-135986146D01*
X237497608Y-135927004D01*
X237497509Y-135926636D01*
X237497496Y-135918242D01*
X237497496Y-135918226D01*
X237497479Y-135907194D01*
X237492458Y-132574628D01*
X238345000Y-132574628D01*
X238359503Y-132647540D01*
X238359505Y-132647544D01*
X238414760Y-132730239D01*
X238497455Y-132785494D01*
X238497459Y-132785496D01*
X238570371Y-132799999D01*
X238570374Y-132800000D01*
X239395000Y-132800000D01*
X239395000Y-131750000D01*
X238345000Y-131750000D01*
X238345000Y-132574628D01*
X237492458Y-132574628D01*
X237488467Y-129925371D01*
X238345000Y-129925371D01*
X238345000Y-130750000D01*
X239395000Y-130750000D01*
X239395000Y-129700000D01*
X240395000Y-129700000D01*
X240395000Y-132800000D01*
X241219626Y-132800000D01*
X241219628Y-132799999D01*
X241292540Y-132785496D01*
X241292544Y-132785494D01*
X241375239Y-132730239D01*
X241430494Y-132647544D01*
X241430496Y-132647540D01*
X241444999Y-132574628D01*
X241445000Y-132574626D01*
X241445000Y-132225985D01*
X241464685Y-132158946D01*
X241517489Y-132113191D01*
X241586647Y-132103247D01*
X241650203Y-132132272D01*
X241676387Y-132163986D01*
X241711390Y-132224614D01*
X241851081Y-132406661D01*
X241851089Y-132406670D01*
X242013330Y-132568911D01*
X242013338Y-132568918D01*
X242013339Y-132568919D01*
X242020779Y-132574628D01*
X242195382Y-132708607D01*
X242195385Y-132708608D01*
X242195388Y-132708611D01*
X242394112Y-132823344D01*
X242394117Y-132823346D01*
X242394123Y-132823349D01*
X242485480Y-132861190D01*
X242606113Y-132911158D01*
X242827762Y-132970548D01*
X243055266Y-133000500D01*
X243055273Y-133000500D01*
X243284727Y-133000500D01*
X243284734Y-133000500D01*
X243512238Y-132970548D01*
X243733887Y-132911158D01*
X243945888Y-132823344D01*
X244144612Y-132708611D01*
X244326661Y-132568919D01*
X244326665Y-132568914D01*
X244326670Y-132568911D01*
X244488911Y-132406670D01*
X244488914Y-132406665D01*
X244488919Y-132406661D01*
X244628611Y-132224612D01*
X244743344Y-132025888D01*
X244831158Y-131813887D01*
X244890548Y-131592238D01*
X244920500Y-131364734D01*
X244920500Y-131135266D01*
X244890548Y-130907762D01*
X244831158Y-130686113D01*
X244743344Y-130474112D01*
X244628611Y-130275388D01*
X244628608Y-130275385D01*
X244628607Y-130275382D01*
X244488918Y-130093338D01*
X244488911Y-130093330D01*
X244326670Y-129931089D01*
X244326661Y-129931081D01*
X244144617Y-129791392D01*
X243945890Y-129676657D01*
X243945876Y-129676650D01*
X243733887Y-129588842D01*
X243512238Y-129529452D01*
X243474215Y-129524446D01*
X243284741Y-129499500D01*
X243284734Y-129499500D01*
X243055266Y-129499500D01*
X243055258Y-129499500D01*
X242838715Y-129528009D01*
X242827762Y-129529452D01*
X242734076Y-129554554D01*
X242606112Y-129588842D01*
X242394123Y-129676650D01*
X242394109Y-129676657D01*
X242195382Y-129791392D01*
X242013338Y-129931081D01*
X241851081Y-130093338D01*
X241711392Y-130275382D01*
X241676387Y-130336014D01*
X241625820Y-130384230D01*
X241557213Y-130397452D01*
X241492348Y-130371484D01*
X241451820Y-130314570D01*
X241445000Y-130274014D01*
X241445000Y-129925373D01*
X241444999Y-129925371D01*
X241430496Y-129852459D01*
X241430494Y-129852455D01*
X241375239Y-129769760D01*
X241292544Y-129714505D01*
X241292540Y-129714503D01*
X241219627Y-129700000D01*
X240395000Y-129700000D01*
X239395000Y-129700000D01*
X238570373Y-129700000D01*
X238497459Y-129714503D01*
X238497455Y-129714505D01*
X238414760Y-129769760D01*
X238359505Y-129852455D01*
X238359503Y-129852459D01*
X238345000Y-129925371D01*
X237488467Y-129925371D01*
X237484682Y-127413312D01*
X241568600Y-127413312D01*
X241568600Y-127586687D01*
X241595720Y-127757913D01*
X241649290Y-127922788D01*
X241649291Y-127922791D01*
X241727998Y-128077260D01*
X241829899Y-128217514D01*
X241952486Y-128340101D01*
X242092740Y-128442002D01*
X242168502Y-128480604D01*
X242247208Y-128520708D01*
X242247211Y-128520709D01*
X242329648Y-128547494D01*
X242412088Y-128574280D01*
X242491391Y-128586840D01*
X242583313Y-128601400D01*
X242583318Y-128601400D01*
X242756687Y-128601400D01*
X242839695Y-128588252D01*
X242927912Y-128574280D01*
X243092791Y-128520708D01*
X243247260Y-128442002D01*
X243387514Y-128340101D01*
X243510101Y-128217514D01*
X243612002Y-128077260D01*
X243690708Y-127922791D01*
X243744280Y-127757912D01*
X243758252Y-127669695D01*
X243771400Y-127586687D01*
X243771400Y-127413315D01*
X243767160Y-127386548D01*
X243767160Y-127386546D01*
X243764729Y-127371199D01*
X246205000Y-127371199D01*
X246205000Y-127628800D01*
X246238622Y-127884174D01*
X246305289Y-128132982D01*
X246403859Y-128370952D01*
X246403867Y-128370969D01*
X246532652Y-128594030D01*
X246532663Y-128594046D01*
X246689463Y-128798392D01*
X246689469Y-128798399D01*
X246871600Y-128980530D01*
X246871606Y-128980535D01*
X247075962Y-129137343D01*
X247075969Y-129137347D01*
X247299030Y-129266132D01*
X247299035Y-129266134D01*
X247299038Y-129266136D01*
X247299042Y-129266137D01*
X247299047Y-129266140D01*
X247393386Y-129305216D01*
X247537016Y-129364710D01*
X247785825Y-129431378D01*
X248041207Y-129465000D01*
X248041214Y-129465000D01*
X248298786Y-129465000D01*
X248298793Y-129465000D01*
X248554175Y-129431378D01*
X248802984Y-129364710D01*
X249040962Y-129266136D01*
X249264038Y-129137343D01*
X249468394Y-128980535D01*
X249650535Y-128798394D01*
X249807343Y-128594038D01*
X249936136Y-128370962D01*
X250034710Y-128132984D01*
X250101378Y-127884175D01*
X250135000Y-127628793D01*
X250135000Y-127371207D01*
X250101378Y-127115825D01*
X250034710Y-126867016D01*
X249936136Y-126629038D01*
X249936134Y-126629035D01*
X249936132Y-126629030D01*
X249807347Y-126405969D01*
X249807343Y-126405962D01*
X249650535Y-126201606D01*
X249650530Y-126201600D01*
X249468399Y-126019469D01*
X249468392Y-126019463D01*
X249264046Y-125862663D01*
X249264044Y-125862661D01*
X249264038Y-125862657D01*
X249264033Y-125862654D01*
X249264030Y-125862652D01*
X249040969Y-125733867D01*
X249040952Y-125733859D01*
X248802982Y-125635289D01*
X248645243Y-125593023D01*
X248554175Y-125568622D01*
X248522252Y-125564419D01*
X248298800Y-125535000D01*
X248298793Y-125535000D01*
X248041207Y-125535000D01*
X248041199Y-125535000D01*
X247785825Y-125568622D01*
X247537017Y-125635289D01*
X247299047Y-125733859D01*
X247299030Y-125733867D01*
X247075969Y-125862652D01*
X247075953Y-125862663D01*
X246871607Y-126019463D01*
X246871600Y-126019469D01*
X246689469Y-126201600D01*
X246689463Y-126201607D01*
X246532663Y-126405953D01*
X246532652Y-126405969D01*
X246403867Y-126629030D01*
X246403859Y-126629047D01*
X246305289Y-126867017D01*
X246238622Y-127115825D01*
X246205000Y-127371199D01*
X243764729Y-127371199D01*
X243761175Y-127348760D01*
X243744280Y-127242088D01*
X243690708Y-127077209D01*
X243690708Y-127077208D01*
X243612001Y-126922739D01*
X243510101Y-126782486D01*
X243387514Y-126659899D01*
X243247260Y-126557998D01*
X243092791Y-126479291D01*
X243092788Y-126479290D01*
X242927913Y-126425720D01*
X242756687Y-126398600D01*
X242756682Y-126398600D01*
X242583318Y-126398600D01*
X242583313Y-126398600D01*
X242412086Y-126425720D01*
X242247211Y-126479290D01*
X242247208Y-126479291D01*
X242092739Y-126557998D01*
X242012719Y-126616136D01*
X241952486Y-126659899D01*
X241952484Y-126659901D01*
X241952483Y-126659901D01*
X241829901Y-126782483D01*
X241829901Y-126782484D01*
X241829899Y-126782486D01*
X241786136Y-126842719D01*
X241727998Y-126922739D01*
X241649291Y-127077208D01*
X241649290Y-127077211D01*
X241595720Y-127242086D01*
X241568600Y-127413312D01*
X237484682Y-127413312D01*
X237470510Y-118007039D01*
X237471289Y-117992990D01*
X237481460Y-117902730D01*
X237487635Y-117875670D01*
X237515353Y-117796456D01*
X237527396Y-117771450D01*
X237572046Y-117700389D01*
X237589351Y-117678690D01*
X237648690Y-117619351D01*
X237670389Y-117602046D01*
X237741450Y-117557396D01*
X237766456Y-117545353D01*
X237845670Y-117517635D01*
X237872732Y-117511459D01*
X237962841Y-117501306D01*
X237977156Y-117500527D01*
X240832470Y-117510477D01*
X240894214Y-117511765D01*
X240898516Y-117510707D01*
X240904142Y-117510727D01*
X240904143Y-117510727D01*
X240904143Y-117510726D01*
X240904147Y-117510727D01*
X240979945Y-117490699D01*
X241022191Y-117480319D01*
X241024927Y-117478814D01*
X241031559Y-117477062D01*
X241114441Y-117429593D01*
X241137669Y-117416822D01*
X241139041Y-117415504D01*
X241142674Y-117413424D01*
X241145916Y-117411568D01*
X241224247Y-117333781D01*
X241232777Y-117325600D01*
X241233216Y-117324874D01*
X241239426Y-117318708D01*
X241300752Y-117213338D01*
X241301036Y-117212870D01*
X241301046Y-117212832D01*
X241305716Y-117204810D01*
X241340267Y-117077635D01*
X241340726Y-116945852D01*
X241307062Y-116818440D01*
X241307061Y-116818439D01*
X241307061Y-116818437D01*
X241246327Y-116712393D01*
X241246321Y-116712382D01*
X241245737Y-116711363D01*
X241245596Y-116711105D01*
X241245580Y-116711088D01*
X241241568Y-116704083D01*
X241163092Y-116625058D01*
X241161615Y-116623545D01*
X235277996Y-110489234D01*
X229713069Y-104687193D01*
X229710355Y-104682497D01*
X229667503Y-104639685D01*
X229666590Y-104638733D01*
X229625603Y-104595999D01*
X229621707Y-104592879D01*
X229621611Y-104592793D01*
X229621106Y-104592405D01*
X229621099Y-104592401D01*
X229617123Y-104589353D01*
X229565828Y-104559770D01*
X229563551Y-104558425D01*
X229512870Y-104527737D01*
X229508286Y-104525726D01*
X229508286Y-104525725D01*
X229507697Y-104525467D01*
X229507595Y-104525431D01*
X229502969Y-104523517D01*
X229445748Y-104508214D01*
X229443215Y-104507507D01*
X229432895Y-104504510D01*
X229386315Y-104490982D01*
X229381331Y-104490220D01*
X229381331Y-104490219D01*
X229380762Y-104490132D01*
X229380641Y-104490123D01*
X229375651Y-104489468D01*
X229316415Y-104489495D01*
X229316416Y-104489496D01*
X229315080Y-104489496D01*
X229254560Y-104488235D01*
X229249295Y-104489527D01*
X229236024Y-104489534D01*
X187102952Y-104509464D01*
X187102919Y-104509463D01*
X187096139Y-104509466D01*
X187096138Y-104509466D01*
X187074207Y-104509476D01*
X187037214Y-104509495D01*
X187023327Y-104508722D01*
X186932942Y-104498580D01*
X186905860Y-104492410D01*
X186897613Y-104489528D01*
X186826628Y-104464720D01*
X186801599Y-104452678D01*
X186730512Y-104408043D01*
X186708795Y-104390734D01*
X186649423Y-104331391D01*
X186632105Y-104309684D01*
X186587434Y-104238619D01*
X186575379Y-104213595D01*
X186547647Y-104134370D01*
X186541467Y-104107302D01*
X186531299Y-104017091D01*
X186530521Y-104002857D01*
X186530690Y-103944108D01*
X186537584Y-101537135D01*
X188019500Y-101537135D01*
X188019500Y-102932870D01*
X188019501Y-102932876D01*
X188025908Y-102992483D01*
X188076202Y-103127328D01*
X188076206Y-103127335D01*
X188162452Y-103242544D01*
X188162455Y-103242547D01*
X188277664Y-103328793D01*
X188277671Y-103328797D01*
X188412517Y-103379091D01*
X188412516Y-103379091D01*
X188419444Y-103379835D01*
X188472127Y-103385500D01*
X189267872Y-103385499D01*
X189327483Y-103379091D01*
X189462331Y-103328796D01*
X189577546Y-103242546D01*
X189663796Y-103127331D01*
X189714091Y-102992483D01*
X189720500Y-102932873D01*
X189720499Y-101537135D01*
X193619500Y-101537135D01*
X193619500Y-102932870D01*
X193619501Y-102932876D01*
X193625908Y-102992483D01*
X193676202Y-103127328D01*
X193676206Y-103127335D01*
X193762452Y-103242544D01*
X193762455Y-103242547D01*
X193877664Y-103328793D01*
X193877671Y-103328797D01*
X194012517Y-103379091D01*
X194012516Y-103379091D01*
X194019444Y-103379835D01*
X194072127Y-103385500D01*
X194867872Y-103385499D01*
X194927483Y-103379091D01*
X195062331Y-103328796D01*
X195177546Y-103242546D01*
X195263796Y-103127331D01*
X195314091Y-102992483D01*
X195320500Y-102932873D01*
X195320499Y-101537128D01*
X195314091Y-101477517D01*
X195282606Y-101393102D01*
X195263797Y-101342671D01*
X195263793Y-101342664D01*
X195177547Y-101227455D01*
X195177544Y-101227452D01*
X195062335Y-101141206D01*
X195062328Y-101141202D01*
X194927482Y-101090908D01*
X194927483Y-101090908D01*
X194867883Y-101084501D01*
X194867881Y-101084500D01*
X194867873Y-101084500D01*
X194867864Y-101084500D01*
X194072129Y-101084500D01*
X194072123Y-101084501D01*
X194012516Y-101090908D01*
X193877671Y-101141202D01*
X193877664Y-101141206D01*
X193762455Y-101227452D01*
X193762452Y-101227455D01*
X193676206Y-101342664D01*
X193676202Y-101342671D01*
X193625908Y-101477517D01*
X193619895Y-101533451D01*
X193619501Y-101537123D01*
X193619500Y-101537135D01*
X189720499Y-101537135D01*
X189720499Y-101537128D01*
X189714091Y-101477517D01*
X189682606Y-101393102D01*
X189663797Y-101342671D01*
X189663793Y-101342664D01*
X189577547Y-101227455D01*
X189577544Y-101227452D01*
X189462335Y-101141206D01*
X189462328Y-101141202D01*
X189327482Y-101090908D01*
X189327483Y-101090908D01*
X189267883Y-101084501D01*
X189267881Y-101084500D01*
X189267873Y-101084500D01*
X189267864Y-101084500D01*
X188472129Y-101084500D01*
X188472123Y-101084501D01*
X188412516Y-101090908D01*
X188277671Y-101141202D01*
X188277664Y-101141206D01*
X188162455Y-101227452D01*
X188162452Y-101227455D01*
X188076206Y-101342664D01*
X188076202Y-101342671D01*
X188025908Y-101477517D01*
X188019895Y-101533451D01*
X188019501Y-101537123D01*
X188019500Y-101537135D01*
X186537584Y-101537135D01*
X186542396Y-99857065D01*
X200564500Y-99857065D01*
X200564500Y-100102934D01*
X200581737Y-100233854D01*
X200596591Y-100346677D01*
X200616352Y-100420426D01*
X200660222Y-100584152D01*
X200660225Y-100584162D01*
X200754303Y-100811285D01*
X200754306Y-100811292D01*
X200877233Y-101024208D01*
X200877235Y-101024211D01*
X200877236Y-101024212D01*
X201026897Y-101219254D01*
X201026903Y-101219261D01*
X201200738Y-101393096D01*
X201200744Y-101393101D01*
X201395792Y-101542767D01*
X201608708Y-101665694D01*
X201835847Y-101759778D01*
X202073323Y-101823409D01*
X202317073Y-101855500D01*
X202317080Y-101855500D01*
X202562920Y-101855500D01*
X202562927Y-101855500D01*
X202806677Y-101823409D01*
X203044153Y-101759778D01*
X203271292Y-101665694D01*
X203484208Y-101542767D01*
X203679256Y-101393101D01*
X203853101Y-101219256D01*
X204002767Y-101024208D01*
X204125694Y-100811292D01*
X204219778Y-100584153D01*
X204283409Y-100346677D01*
X204315500Y-100102927D01*
X204315500Y-99857073D01*
X204283409Y-99613323D01*
X204219778Y-99375847D01*
X204125694Y-99148708D01*
X204002767Y-98935792D01*
X203853101Y-98740744D01*
X203853096Y-98740738D01*
X203679261Y-98566903D01*
X203679254Y-98566897D01*
X203484212Y-98417236D01*
X203484211Y-98417235D01*
X203484208Y-98417233D01*
X203271292Y-98294306D01*
X203248408Y-98284827D01*
X203044162Y-98200225D01*
X203044155Y-98200223D01*
X203044153Y-98200222D01*
X202806677Y-98136591D01*
X202765939Y-98131227D01*
X202562934Y-98104500D01*
X202562927Y-98104500D01*
X202317073Y-98104500D01*
X202317065Y-98104500D01*
X202085059Y-98135045D01*
X202073323Y-98136591D01*
X201850820Y-98196210D01*
X201835847Y-98200222D01*
X201835837Y-98200225D01*
X201608714Y-98294303D01*
X201608705Y-98294307D01*
X201395787Y-98417236D01*
X201200745Y-98566897D01*
X201200738Y-98566903D01*
X201026903Y-98740738D01*
X201026897Y-98740745D01*
X200877236Y-98935787D01*
X200754307Y-99148705D01*
X200754303Y-99148714D01*
X200660225Y-99375837D01*
X200660222Y-99375847D01*
X200608799Y-99567764D01*
X200596592Y-99613320D01*
X200596590Y-99613331D01*
X200564500Y-99857065D01*
X186542396Y-99857065D01*
X186553203Y-96083709D01*
X186553393Y-96083003D01*
X186553393Y-96017590D01*
X186553579Y-95952649D01*
X186553597Y-95946411D01*
X186553393Y-95943233D01*
X186553393Y-95937259D01*
X186553394Y-95909792D01*
X186522849Y-95697340D01*
X186484600Y-95567072D01*
X186462383Y-95491405D01*
X186462378Y-95491393D01*
X186373223Y-95296168D01*
X186373210Y-95296145D01*
X186311165Y-95199601D01*
X186311164Y-95199600D01*
X186279288Y-95150000D01*
X187202300Y-95150000D01*
X187236645Y-95242086D01*
X187236649Y-95242093D01*
X187322809Y-95357187D01*
X187322812Y-95357190D01*
X187437906Y-95443350D01*
X187437913Y-95443354D01*
X187572624Y-95493598D01*
X187630000Y-95499765D01*
X188630000Y-95499765D01*
X188687375Y-95493598D01*
X188822086Y-95443354D01*
X188822093Y-95443350D01*
X188937187Y-95357190D01*
X188937190Y-95357187D01*
X189023350Y-95242093D01*
X189023354Y-95242086D01*
X189057700Y-95150000D01*
X188630000Y-95150000D01*
X188630000Y-95499765D01*
X187630000Y-95499765D01*
X187630000Y-95150000D01*
X187202300Y-95150000D01*
X186279288Y-95150000D01*
X186257176Y-95115593D01*
X186257170Y-95115586D01*
X186116620Y-94953381D01*
X186116618Y-94953379D01*
X185954413Y-94812829D01*
X185954400Y-94812819D01*
X185773854Y-94696789D01*
X185773831Y-94696776D01*
X185578606Y-94607621D01*
X185578594Y-94607616D01*
X185372668Y-94547153D01*
X185372652Y-94547149D01*
X185160208Y-94516606D01*
X185053835Y-94516606D01*
X160071262Y-94502434D01*
X160071255Y-94502434D01*
X160063135Y-94502428D01*
X160062996Y-94502392D01*
X160005385Y-94502392D01*
X160003985Y-94502392D01*
X160003966Y-94502386D01*
X159990179Y-94501612D01*
X159899841Y-94491434D01*
X159872770Y-94485256D01*
X159793566Y-94457542D01*
X159768548Y-94445494D01*
X159697499Y-94400851D01*
X159675790Y-94383538D01*
X159616461Y-94324209D01*
X159599148Y-94302500D01*
X159584114Y-94278574D01*
X159555736Y-94233410D01*
X159555736Y-94233408D01*
X159555733Y-94233405D01*
X159554501Y-94231444D01*
X159542457Y-94206433D01*
X159534096Y-94182539D01*
X159522710Y-94149999D01*
X187202299Y-94149999D01*
X187202300Y-94150000D01*
X187630000Y-94150000D01*
X188630000Y-94150000D01*
X189057700Y-94150000D01*
X189057700Y-94149999D01*
X189023354Y-94057913D01*
X189023350Y-94057906D01*
X188937190Y-93942812D01*
X188937187Y-93942809D01*
X188822093Y-93856649D01*
X188822086Y-93856645D01*
X188687380Y-93806403D01*
X188687373Y-93806401D01*
X188630000Y-93800232D01*
X188630000Y-94150000D01*
X187630000Y-94150000D01*
X187630000Y-93800233D01*
X187629999Y-93800232D01*
X187572626Y-93806401D01*
X187572619Y-93806403D01*
X187437913Y-93856645D01*
X187437906Y-93856649D01*
X187322812Y-93942809D01*
X187322809Y-93942812D01*
X187236649Y-94057906D01*
X187236645Y-94057913D01*
X187202299Y-94149999D01*
X159522710Y-94149999D01*
X159514742Y-94127227D01*
X159508565Y-94100159D01*
X159504500Y-94064084D01*
X159498387Y-94009834D01*
X159497608Y-93995932D01*
X159497643Y-93805909D01*
X159498035Y-91635258D01*
X168539500Y-91635258D01*
X168539500Y-91864741D01*
X168554069Y-91975398D01*
X168569452Y-92092238D01*
X168612296Y-92252135D01*
X168628842Y-92313887D01*
X168716650Y-92525876D01*
X168716657Y-92525890D01*
X168831392Y-92724617D01*
X168971081Y-92906661D01*
X168971089Y-92906670D01*
X169133330Y-93068911D01*
X169133338Y-93068918D01*
X169315382Y-93208607D01*
X169315385Y-93208608D01*
X169315388Y-93208611D01*
X169514112Y-93323344D01*
X169514117Y-93323346D01*
X169514123Y-93323349D01*
X169596678Y-93357544D01*
X169726113Y-93411158D01*
X169947762Y-93470548D01*
X170164312Y-93499057D01*
X170175250Y-93500498D01*
X170175266Y-93500500D01*
X170175273Y-93500500D01*
X170404727Y-93500500D01*
X170404734Y-93500500D01*
X170632238Y-93470548D01*
X170853887Y-93411158D01*
X171065888Y-93323344D01*
X171264612Y-93208611D01*
X171446661Y-93068919D01*
X171446665Y-93068914D01*
X171446670Y-93068911D01*
X171608911Y-92906670D01*
X171608914Y-92906665D01*
X171608919Y-92906661D01*
X171748611Y-92724612D01*
X171783113Y-92664851D01*
X171833679Y-92616636D01*
X171902286Y-92603412D01*
X171967151Y-92629380D01*
X172007680Y-92686294D01*
X172014500Y-92726851D01*
X172014500Y-93074678D01*
X172029032Y-93147735D01*
X172029033Y-93147739D01*
X172029034Y-93147740D01*
X172084399Y-93230601D01*
X172167260Y-93285966D01*
X172167264Y-93285967D01*
X172240321Y-93300499D01*
X172240324Y-93300500D01*
X172240326Y-93300500D01*
X174889676Y-93300500D01*
X174889677Y-93300499D01*
X174962740Y-93285966D01*
X175045601Y-93230601D01*
X175100966Y-93147740D01*
X175115500Y-93074674D01*
X175115500Y-90817255D01*
X175135185Y-90750216D01*
X175151819Y-90729574D01*
X175344328Y-90537065D01*
X181049500Y-90537065D01*
X181049500Y-90782934D01*
X181074672Y-90974123D01*
X181081591Y-91026677D01*
X181136215Y-91230537D01*
X181145222Y-91264152D01*
X181145225Y-91264162D01*
X181234836Y-91480500D01*
X181239306Y-91491292D01*
X181362233Y-91704208D01*
X181362235Y-91704211D01*
X181362236Y-91704212D01*
X181511897Y-91899254D01*
X181511903Y-91899261D01*
X181685738Y-92073096D01*
X181685745Y-92073102D01*
X181785719Y-92149815D01*
X181880792Y-92222767D01*
X182093708Y-92345694D01*
X182320847Y-92439778D01*
X182558323Y-92503409D01*
X182802073Y-92535500D01*
X182802080Y-92535500D01*
X183047920Y-92535500D01*
X183047927Y-92535500D01*
X183291677Y-92503409D01*
X183529153Y-92439778D01*
X183756292Y-92345694D01*
X183969208Y-92222767D01*
X184164256Y-92073101D01*
X184338101Y-91899256D01*
X184487767Y-91704208D01*
X184610694Y-91491292D01*
X184704778Y-91264153D01*
X184768409Y-91026677D01*
X184800500Y-90782927D01*
X184800500Y-90537073D01*
X184768409Y-90293323D01*
X184704778Y-90055847D01*
X184610694Y-89828708D01*
X184487767Y-89615792D01*
X184338101Y-89420744D01*
X184338096Y-89420738D01*
X184164261Y-89246903D01*
X184164254Y-89246897D01*
X183969212Y-89097236D01*
X183969211Y-89097235D01*
X183969208Y-89097233D01*
X183783849Y-88990216D01*
X183756294Y-88974307D01*
X183756285Y-88974303D01*
X183529162Y-88880225D01*
X183529155Y-88880223D01*
X183529153Y-88880222D01*
X183291677Y-88816591D01*
X183250939Y-88811227D01*
X183047934Y-88784500D01*
X183047927Y-88784500D01*
X182802073Y-88784500D01*
X182802065Y-88784500D01*
X182570059Y-88815045D01*
X182558323Y-88816591D01*
X182332831Y-88877011D01*
X182320847Y-88880222D01*
X182320837Y-88880225D01*
X182093714Y-88974303D01*
X182093705Y-88974307D01*
X181880787Y-89097236D01*
X181685745Y-89246897D01*
X181685738Y-89246903D01*
X181511903Y-89420738D01*
X181511897Y-89420745D01*
X181362236Y-89615787D01*
X181239307Y-89828705D01*
X181239303Y-89828714D01*
X181145225Y-90055837D01*
X181145222Y-90055847D01*
X181082109Y-90291392D01*
X181081592Y-90293320D01*
X181081590Y-90293331D01*
X181049500Y-90537065D01*
X175344328Y-90537065D01*
X178694574Y-87186819D01*
X178755897Y-87153334D01*
X178782255Y-87150500D01*
X213532745Y-87150500D01*
X213599784Y-87170185D01*
X213620426Y-87186819D01*
X215143181Y-88709574D01*
X215176666Y-88770897D01*
X215179500Y-88797255D01*
X215179500Y-89150118D01*
X215159815Y-89217157D01*
X215107011Y-89262912D01*
X215037853Y-89272856D01*
X214974297Y-89243831D01*
X214944100Y-89204579D01*
X214894825Y-89103787D01*
X214806210Y-89015172D01*
X214693628Y-88960135D01*
X214693626Y-88960134D01*
X214693625Y-88960134D01*
X214620636Y-88949500D01*
X214299364Y-88949500D01*
X214226375Y-88960134D01*
X214226373Y-88960134D01*
X214226372Y-88960135D01*
X214199750Y-88973148D01*
X214199741Y-88973154D01*
X214113789Y-89015174D01*
X214025174Y-89103789D01*
X214023772Y-89106656D01*
X214023769Y-89106659D01*
X213970135Y-89216371D01*
X213970134Y-89216373D01*
X213970134Y-89216375D01*
X213959500Y-89289364D01*
X213959500Y-91010636D01*
X213970134Y-91083625D01*
X213970134Y-91083626D01*
X213970135Y-91083628D01*
X214020236Y-91186112D01*
X214025174Y-91196211D01*
X214113789Y-91284826D01*
X214208857Y-91331302D01*
X214226372Y-91339865D01*
X214226373Y-91339865D01*
X214226375Y-91339866D01*
X214299364Y-91350500D01*
X214299370Y-91350500D01*
X214620630Y-91350500D01*
X214620636Y-91350500D01*
X214693625Y-91339866D01*
X214754596Y-91310059D01*
X214806210Y-91284827D01*
X214894827Y-91196210D01*
X214944100Y-91095421D01*
X214991227Y-91043838D01*
X215058761Y-91025924D01*
X215125260Y-91047365D01*
X215169610Y-91101354D01*
X215179500Y-91149881D01*
X215179500Y-91312745D01*
X215159815Y-91379784D01*
X215143181Y-91400426D01*
X211539522Y-95004084D01*
X211539520Y-95004087D01*
X211486791Y-95095413D01*
X211473751Y-95144086D01*
X211473751Y-95144087D01*
X211459500Y-95197273D01*
X211459500Y-95825500D01*
X211439815Y-95892539D01*
X211387011Y-95938294D01*
X211335500Y-95949500D01*
X211049364Y-95949500D01*
X210986802Y-95958614D01*
X210976374Y-95960134D01*
X210939458Y-95978181D01*
X210870584Y-95989938D01*
X210830542Y-95978181D01*
X210813629Y-95969913D01*
X210793625Y-95960134D01*
X210720636Y-95949500D01*
X210399364Y-95949500D01*
X210336802Y-95958614D01*
X210326374Y-95960134D01*
X210289458Y-95978181D01*
X210220584Y-95989938D01*
X210180542Y-95978181D01*
X210163629Y-95969913D01*
X210143625Y-95960134D01*
X210070636Y-95949500D01*
X209749364Y-95949500D01*
X209686802Y-95958614D01*
X209676374Y-95960134D01*
X209639458Y-95978181D01*
X209570584Y-95989938D01*
X209530542Y-95978181D01*
X209513629Y-95969913D01*
X209493625Y-95960134D01*
X209420636Y-95949500D01*
X209099364Y-95949500D01*
X209036802Y-95958614D01*
X209026374Y-95960134D01*
X208989458Y-95978181D01*
X208920584Y-95989938D01*
X208880542Y-95978181D01*
X208863629Y-95969913D01*
X208843625Y-95960134D01*
X208770636Y-95949500D01*
X208449364Y-95949500D01*
X208376375Y-95960134D01*
X208376373Y-95960134D01*
X208376371Y-95960135D01*
X208263790Y-96015172D01*
X208240357Y-96038605D01*
X208179033Y-96072089D01*
X208109342Y-96067103D01*
X208064996Y-96038603D01*
X206355915Y-94329522D01*
X206355913Y-94329520D01*
X206290832Y-94291945D01*
X206264589Y-94276793D01*
X206213657Y-94263146D01*
X206162727Y-94249500D01*
X206162726Y-94249500D01*
X205201440Y-94249500D01*
X205134401Y-94229815D01*
X205088646Y-94177011D01*
X205085258Y-94168833D01*
X205043797Y-94057671D01*
X205043793Y-94057664D01*
X204957547Y-93942455D01*
X204957544Y-93942452D01*
X204842335Y-93856206D01*
X204842328Y-93856202D01*
X204707482Y-93805908D01*
X204707483Y-93805908D01*
X204647883Y-93799501D01*
X204647881Y-93799500D01*
X204647873Y-93799500D01*
X204647864Y-93799500D01*
X203652129Y-93799500D01*
X203652123Y-93799501D01*
X203592516Y-93805908D01*
X203457671Y-93856202D01*
X203457664Y-93856206D01*
X203342455Y-93942452D01*
X203342452Y-93942455D01*
X203256206Y-94057664D01*
X203256202Y-94057671D01*
X203233391Y-94118833D01*
X203191520Y-94174767D01*
X203126056Y-94199184D01*
X203117209Y-94199500D01*
X201419500Y-94199500D01*
X201352461Y-94179815D01*
X201306706Y-94127011D01*
X201295500Y-94075500D01*
X201295500Y-93725010D01*
X201295499Y-93724995D01*
X201290643Y-93675417D01*
X201288895Y-93671184D01*
X201271369Y-93628746D01*
X201263972Y-93559269D01*
X201271419Y-93533956D01*
X201276048Y-93522779D01*
X201276051Y-93522776D01*
X201276051Y-93522771D01*
X201276053Y-93522769D01*
X201295499Y-93425004D01*
X201295500Y-93425002D01*
X201295500Y-92424997D01*
X201295499Y-92424995D01*
X201276052Y-92327228D01*
X201276051Y-92327227D01*
X201276051Y-92327224D01*
X201220666Y-92244334D01*
X201220665Y-92244333D01*
X201137778Y-92188950D01*
X201137771Y-92188947D01*
X201040003Y-92169500D01*
X201040000Y-92169500D01*
X200846254Y-92169500D01*
X200779215Y-92149815D01*
X200733460Y-92097011D01*
X200723516Y-92027853D01*
X200752541Y-91964297D01*
X200758573Y-91957819D01*
X201199573Y-91516819D01*
X201260896Y-91483334D01*
X201287254Y-91480500D01*
X204702745Y-91480500D01*
X204769784Y-91500185D01*
X204790426Y-91516819D01*
X204897754Y-91624147D01*
X204931239Y-91685470D01*
X204926255Y-91755162D01*
X204884383Y-91811095D01*
X204818919Y-91835512D01*
X204766740Y-91828010D01*
X204707482Y-91805908D01*
X204707483Y-91805908D01*
X204647883Y-91799501D01*
X204647881Y-91799500D01*
X204647873Y-91799500D01*
X204647864Y-91799500D01*
X203652129Y-91799500D01*
X203652123Y-91799501D01*
X203592516Y-91805908D01*
X203457671Y-91856202D01*
X203457664Y-91856206D01*
X203342455Y-91942452D01*
X203342452Y-91942455D01*
X203256206Y-92057664D01*
X203256202Y-92057671D01*
X203205908Y-92192517D01*
X203199782Y-92249500D01*
X203199501Y-92252123D01*
X203199500Y-92252135D01*
X203199500Y-93047870D01*
X203199501Y-93047876D01*
X203205908Y-93107483D01*
X203256202Y-93242328D01*
X203256206Y-93242335D01*
X203342452Y-93357544D01*
X203342455Y-93357547D01*
X203457664Y-93443793D01*
X203457671Y-93443797D01*
X203592517Y-93494091D01*
X203592516Y-93494091D01*
X203599444Y-93494835D01*
X203652127Y-93500500D01*
X204647872Y-93500499D01*
X204707483Y-93494091D01*
X204712068Y-93492380D01*
X204722960Y-93488319D01*
X204766294Y-93480500D01*
X211122725Y-93480500D01*
X211122727Y-93480500D01*
X211224588Y-93453207D01*
X211315913Y-93400480D01*
X212229480Y-92486913D01*
X212282207Y-92395588D01*
X212309500Y-92293727D01*
X212309500Y-92188273D01*
X212309500Y-91474500D01*
X212329185Y-91407461D01*
X212381989Y-91361706D01*
X212433500Y-91350500D01*
X212670630Y-91350500D01*
X212670636Y-91350500D01*
X212743625Y-91339866D01*
X212780538Y-91321819D01*
X212849410Y-91310059D01*
X212889459Y-91321819D01*
X212926375Y-91339866D01*
X212999364Y-91350500D01*
X212999370Y-91350500D01*
X213320630Y-91350500D01*
X213320636Y-91350500D01*
X213393625Y-91339866D01*
X213506211Y-91284826D01*
X213594826Y-91196211D01*
X213649866Y-91083625D01*
X213660500Y-91010636D01*
X213660500Y-89289364D01*
X213649866Y-89216375D01*
X213617475Y-89150118D01*
X213596230Y-89106659D01*
X213596228Y-89106657D01*
X213594826Y-89103789D01*
X213506211Y-89015174D01*
X213420250Y-88973150D01*
X213420246Y-88973147D01*
X213393630Y-88960136D01*
X213393625Y-88960134D01*
X213320636Y-88949500D01*
X212999364Y-88949500D01*
X212936802Y-88958614D01*
X212926374Y-88960134D01*
X212889458Y-88978181D01*
X212820584Y-88989938D01*
X212780542Y-88978181D01*
X212761135Y-88968694D01*
X212743625Y-88960134D01*
X212670636Y-88949500D01*
X212349364Y-88949500D01*
X212286802Y-88958614D01*
X212276374Y-88960134D01*
X212239458Y-88978181D01*
X212170584Y-88989938D01*
X212130542Y-88978181D01*
X212111135Y-88968694D01*
X212093625Y-88960134D01*
X212020636Y-88949500D01*
X211734500Y-88949500D01*
X211667461Y-88929815D01*
X211621706Y-88877011D01*
X211610500Y-88825500D01*
X211610500Y-88362729D01*
X211610501Y-88362716D01*
X211610501Y-88247274D01*
X211606162Y-88231081D01*
X211583207Y-88145413D01*
X211547015Y-88082727D01*
X211530480Y-88054087D01*
X211455913Y-87979520D01*
X211455911Y-87979518D01*
X211185913Y-87709520D01*
X211108299Y-87664709D01*
X211094589Y-87656793D01*
X211043657Y-87643146D01*
X210992727Y-87629500D01*
X189862727Y-87629500D01*
X189757273Y-87629500D01*
X189655411Y-87656793D01*
X189641702Y-87664709D01*
X189641700Y-87664710D01*
X189564090Y-87709518D01*
X189564084Y-87709522D01*
X187809522Y-89464084D01*
X187809520Y-89464087D01*
X187756793Y-89555412D01*
X187741071Y-89614088D01*
X187741071Y-89614089D01*
X187741070Y-89614088D01*
X187729500Y-89657269D01*
X187729500Y-91677648D01*
X187709815Y-91744687D01*
X187657011Y-91790442D01*
X187618755Y-91800938D01*
X187572516Y-91805909D01*
X187437671Y-91856202D01*
X187437664Y-91856206D01*
X187322455Y-91942452D01*
X187322452Y-91942455D01*
X187236206Y-92057664D01*
X187236202Y-92057671D01*
X187185908Y-92192517D01*
X187179782Y-92249500D01*
X187179501Y-92252123D01*
X187179500Y-92252135D01*
X187179500Y-93047870D01*
X187179501Y-93047876D01*
X187185908Y-93107483D01*
X187236202Y-93242328D01*
X187236206Y-93242335D01*
X187322452Y-93357544D01*
X187322455Y-93357547D01*
X187437664Y-93443793D01*
X187437671Y-93443797D01*
X187572517Y-93494091D01*
X187572516Y-93494091D01*
X187579444Y-93494835D01*
X187632127Y-93500500D01*
X188627872Y-93500499D01*
X188687483Y-93494091D01*
X188822331Y-93443796D01*
X188937546Y-93357546D01*
X189023796Y-93242331D01*
X189074091Y-93107483D01*
X189080500Y-93047873D01*
X189080499Y-92252128D01*
X189074091Y-92192517D01*
X189072760Y-92188949D01*
X189023797Y-92057671D01*
X189023793Y-92057664D01*
X188937547Y-91942455D01*
X188937544Y-91942452D01*
X188822335Y-91856206D01*
X188822328Y-91856202D01*
X188687483Y-91805908D01*
X188641243Y-91800937D01*
X188576693Y-91774199D01*
X188536845Y-91716806D01*
X188530500Y-91677648D01*
X188530500Y-89927254D01*
X188550185Y-89860215D01*
X188566819Y-89839573D01*
X189939573Y-88466819D01*
X190000896Y-88433334D01*
X190027254Y-88430500D01*
X210685500Y-88430500D01*
X210752539Y-88450185D01*
X210798294Y-88502989D01*
X210809500Y-88554500D01*
X210809500Y-89018100D01*
X210789815Y-89085139D01*
X210778182Y-89099574D01*
X210775172Y-89103789D01*
X210720135Y-89216371D01*
X210720134Y-89216373D01*
X210720134Y-89216375D01*
X210709500Y-89289364D01*
X210709500Y-91010636D01*
X210720134Y-91083625D01*
X210720134Y-91083626D01*
X210720135Y-91083628D01*
X210775172Y-91196210D01*
X210781145Y-91204575D01*
X210779482Y-91205761D01*
X210806664Y-91255529D01*
X210809500Y-91281899D01*
X210809500Y-91602745D01*
X210789815Y-91669784D01*
X210773181Y-91690426D01*
X210430426Y-92033181D01*
X210369103Y-92066666D01*
X210342745Y-92069500D01*
X209546255Y-92069500D01*
X209479216Y-92049815D01*
X209433461Y-91997011D01*
X209423517Y-91927853D01*
X209452542Y-91864297D01*
X209458574Y-91857819D01*
X209516893Y-91799500D01*
X209580480Y-91735913D01*
X209633207Y-91644588D01*
X209660500Y-91542727D01*
X209660500Y-91437273D01*
X209660500Y-91331302D01*
X210160000Y-91331302D01*
X210180538Y-91321262D01*
X210249411Y-91309502D01*
X210289462Y-91321262D01*
X210310000Y-91331302D01*
X210310000Y-90400000D01*
X210160000Y-90400000D01*
X210160000Y-91331302D01*
X209660500Y-91331302D01*
X209660500Y-91281899D01*
X209680185Y-91214860D01*
X209691819Y-91200422D01*
X209694827Y-91196210D01*
X209730446Y-91123349D01*
X209749866Y-91083625D01*
X209760500Y-91010636D01*
X209760500Y-89289364D01*
X209749866Y-89216375D01*
X209717475Y-89150118D01*
X209694827Y-89103789D01*
X209688855Y-89095425D01*
X209690353Y-89094355D01*
X209681615Y-89078353D01*
X209665023Y-89052535D01*
X209664131Y-89046334D01*
X209662834Y-89043958D01*
X209660000Y-89017600D01*
X209660000Y-88968694D01*
X210160000Y-88968694D01*
X210160000Y-89900000D01*
X210310000Y-89900000D01*
X210310000Y-88968694D01*
X210289461Y-88978736D01*
X210220588Y-88990496D01*
X210180539Y-88978736D01*
X210160000Y-88968694D01*
X209660000Y-88968694D01*
X209640028Y-88978458D01*
X209571155Y-88990216D01*
X209531110Y-88978458D01*
X209493630Y-88960136D01*
X209493625Y-88960134D01*
X209420636Y-88949500D01*
X209099364Y-88949500D01*
X209036802Y-88958614D01*
X209026374Y-88960134D01*
X208989458Y-88978181D01*
X208920584Y-88989938D01*
X208880542Y-88978181D01*
X208861135Y-88968694D01*
X208843625Y-88960134D01*
X208770636Y-88949500D01*
X208449364Y-88949500D01*
X208376375Y-88960134D01*
X208376373Y-88960134D01*
X208376371Y-88960135D01*
X208263789Y-89015172D01*
X208175172Y-89103789D01*
X208120135Y-89216371D01*
X208120134Y-89216373D01*
X208120134Y-89216375D01*
X208109500Y-89289364D01*
X208109500Y-89289369D01*
X208109500Y-89335500D01*
X208089815Y-89402539D01*
X208037011Y-89448294D01*
X207985500Y-89459500D01*
X194137273Y-89459500D01*
X194035413Y-89486793D01*
X194035410Y-89486794D01*
X193944085Y-89539521D01*
X192589522Y-90894084D01*
X192589520Y-90894087D01*
X192536793Y-90985412D01*
X192525941Y-91025913D01*
X192525941Y-91025914D01*
X192525940Y-91025913D01*
X192509500Y-91087271D01*
X192509500Y-91677648D01*
X192489815Y-91744687D01*
X192437011Y-91790442D01*
X192398755Y-91800938D01*
X192352516Y-91805909D01*
X192217671Y-91856202D01*
X192217664Y-91856206D01*
X192102455Y-91942452D01*
X192102452Y-91942455D01*
X192016206Y-92057664D01*
X192016202Y-92057671D01*
X191974742Y-92168832D01*
X191932871Y-92224766D01*
X191867406Y-92249183D01*
X191858560Y-92249499D01*
X191777274Y-92249499D01*
X191675413Y-92276793D01*
X191675411Y-92276793D01*
X191675411Y-92276794D01*
X191584084Y-92329522D01*
X189849522Y-94064084D01*
X189849520Y-94064087D01*
X189796793Y-94155411D01*
X189796793Y-94155412D01*
X189791372Y-94175643D01*
X189791372Y-94175644D01*
X189791371Y-94175643D01*
X189769500Y-94257271D01*
X189769500Y-97367745D01*
X189749815Y-97434784D01*
X189733181Y-97455426D01*
X189691954Y-97496652D01*
X189691951Y-97496657D01*
X189691950Y-97496658D01*
X189687191Y-97505998D01*
X189634352Y-97609698D01*
X189619500Y-97703475D01*
X189619500Y-99016517D01*
X189630292Y-99084657D01*
X189634354Y-99110304D01*
X189691950Y-99223342D01*
X189691952Y-99223344D01*
X189691954Y-99223347D01*
X189781652Y-99313045D01*
X189781654Y-99313046D01*
X189781658Y-99313050D01*
X189868898Y-99357501D01*
X189894698Y-99370647D01*
X189988475Y-99385499D01*
X189988481Y-99385500D01*
X190351518Y-99385499D01*
X190445304Y-99370646D01*
X190558342Y-99313050D01*
X190582319Y-99289072D01*
X190643640Y-99255588D01*
X190713332Y-99260572D01*
X190757680Y-99289072D01*
X190781658Y-99313050D01*
X190868898Y-99357501D01*
X190894698Y-99370647D01*
X190988475Y-99385499D01*
X190988481Y-99385500D01*
X191351518Y-99385499D01*
X191445304Y-99370646D01*
X191558342Y-99313050D01*
X191582319Y-99289072D01*
X191643640Y-99255588D01*
X191713332Y-99260572D01*
X191757680Y-99289072D01*
X191781658Y-99313050D01*
X191868898Y-99357501D01*
X191894698Y-99370647D01*
X191988475Y-99385499D01*
X191988481Y-99385500D01*
X192351518Y-99385499D01*
X192445304Y-99370646D01*
X192558342Y-99313050D01*
X192582670Y-99288721D01*
X192643990Y-99255236D01*
X192713682Y-99260218D01*
X192758033Y-99288720D01*
X192781949Y-99312636D01*
X192781953Y-99312639D01*
X192870000Y-99357501D01*
X193470000Y-99357501D01*
X193558046Y-99312639D01*
X193558050Y-99312636D01*
X193647636Y-99223050D01*
X193647639Y-99223046D01*
X193705166Y-99110144D01*
X193720000Y-99016486D01*
X193720000Y-98660000D01*
X193470000Y-98660000D01*
X193470000Y-99357501D01*
X192870000Y-99357501D01*
X192870000Y-98060000D01*
X193470000Y-98060000D01*
X193719999Y-98060000D01*
X193719999Y-97703520D01*
X193705164Y-97609850D01*
X193705162Y-97609844D01*
X193647643Y-97496958D01*
X193647636Y-97496949D01*
X193558046Y-97407359D01*
X193470000Y-97362496D01*
X193470000Y-98060000D01*
X192870000Y-98060000D01*
X192870000Y-97362497D01*
X192869999Y-97362496D01*
X192781953Y-97407359D01*
X192774059Y-97413095D01*
X192773264Y-97412000D01*
X192720858Y-97440617D01*
X192651166Y-97435633D01*
X192595233Y-97393761D01*
X192570816Y-97328297D01*
X192570500Y-97319451D01*
X192570500Y-95624499D01*
X192590185Y-95557460D01*
X192642989Y-95511705D01*
X192694500Y-95500499D01*
X193407871Y-95500499D01*
X193407872Y-95500499D01*
X193467483Y-95494091D01*
X193602331Y-95443796D01*
X193717546Y-95357546D01*
X193803796Y-95242331D01*
X193816908Y-95207176D01*
X193845258Y-95131167D01*
X193887129Y-95075233D01*
X193952593Y-95050816D01*
X193961440Y-95050500D01*
X195398560Y-95050500D01*
X195465599Y-95070185D01*
X195511354Y-95122989D01*
X195514742Y-95131167D01*
X195556202Y-95242328D01*
X195556206Y-95242335D01*
X195642452Y-95357544D01*
X195642455Y-95357547D01*
X195757664Y-95443793D01*
X195757671Y-95443797D01*
X195892517Y-95494091D01*
X195892516Y-95494091D01*
X195899444Y-95494835D01*
X195952127Y-95500500D01*
X196947872Y-95500499D01*
X197007483Y-95494091D01*
X197142331Y-95443796D01*
X197257546Y-95357546D01*
X197343796Y-95242331D01*
X197388987Y-95121166D01*
X197430858Y-95065234D01*
X197496322Y-95040816D01*
X197505169Y-95040500D01*
X199299021Y-95040500D01*
X199366060Y-95060185D01*
X199367911Y-95061397D01*
X199442224Y-95111051D01*
X199442226Y-95111051D01*
X199442228Y-95111052D01*
X199539995Y-95130499D01*
X199539998Y-95130500D01*
X199540000Y-95130500D01*
X201040002Y-95130500D01*
X201040003Y-95130499D01*
X201137776Y-95111051D01*
X201220666Y-95055666D01*
X201220702Y-95055611D01*
X201220808Y-95055522D01*
X201229304Y-95047028D01*
X201230063Y-95047787D01*
X201274313Y-95010806D01*
X201323806Y-95000500D01*
X203083023Y-95000500D01*
X203150062Y-95020185D01*
X203195817Y-95072989D01*
X203203266Y-95100134D01*
X203204124Y-95099932D01*
X203205907Y-95107479D01*
X203256202Y-95242328D01*
X203256206Y-95242335D01*
X203342452Y-95357544D01*
X203342455Y-95357547D01*
X203457664Y-95443793D01*
X203457671Y-95443797D01*
X203592517Y-95494091D01*
X203592516Y-95494091D01*
X203599444Y-95494835D01*
X203652127Y-95500500D01*
X204647872Y-95500499D01*
X204707483Y-95494091D01*
X204842331Y-95443796D01*
X204957546Y-95357546D01*
X205043796Y-95242331D01*
X205056908Y-95207176D01*
X205085258Y-95131167D01*
X205127129Y-95075233D01*
X205192593Y-95050816D01*
X205201440Y-95050500D01*
X205892745Y-95050500D01*
X205959784Y-95070185D01*
X205980426Y-95086819D01*
X208073181Y-97179574D01*
X208106666Y-97240897D01*
X208109500Y-97267255D01*
X208109500Y-98010636D01*
X208120134Y-98083625D01*
X208120134Y-98083626D01*
X208120135Y-98083628D01*
X208175172Y-98196210D01*
X208263789Y-98284827D01*
X208371572Y-98337518D01*
X208376375Y-98339866D01*
X208449364Y-98350500D01*
X208449370Y-98350500D01*
X208770630Y-98350500D01*
X208770636Y-98350500D01*
X208843625Y-98339866D01*
X208880538Y-98321819D01*
X208949410Y-98310059D01*
X208989459Y-98321819D01*
X209026375Y-98339866D01*
X209099364Y-98350500D01*
X209099370Y-98350500D01*
X209420630Y-98350500D01*
X209420636Y-98350500D01*
X209493625Y-98339866D01*
X209530538Y-98321819D01*
X209599410Y-98310059D01*
X209639459Y-98321819D01*
X209676375Y-98339866D01*
X209749364Y-98350500D01*
X209749370Y-98350500D01*
X210070630Y-98350500D01*
X210070636Y-98350500D01*
X210143625Y-98339866D01*
X210180538Y-98321819D01*
X210249410Y-98310059D01*
X210289459Y-98321819D01*
X210326375Y-98339866D01*
X210399364Y-98350500D01*
X210399370Y-98350500D01*
X210685500Y-98350500D01*
X210752539Y-98370185D01*
X210798294Y-98422989D01*
X210809500Y-98474500D01*
X210809500Y-100602726D01*
X210836793Y-100704589D01*
X210863156Y-100750250D01*
X210889520Y-100795913D01*
X211994087Y-101900480D01*
X212085412Y-101953207D01*
X212187273Y-101980500D01*
X231122745Y-101980500D01*
X231189784Y-102000185D01*
X231210426Y-102016819D01*
X251003181Y-121809573D01*
X251036666Y-121870896D01*
X251039500Y-121897254D01*
X251039500Y-131775500D01*
X251019815Y-131842539D01*
X250967011Y-131888294D01*
X250915500Y-131899500D01*
X250120323Y-131899500D01*
X250047264Y-131914032D01*
X250047260Y-131914033D01*
X249964399Y-131969399D01*
X249909033Y-132052260D01*
X249909032Y-132052264D01*
X249894500Y-132125321D01*
X249894500Y-132473148D01*
X249874815Y-132540187D01*
X249822011Y-132585942D01*
X249752853Y-132595886D01*
X249689297Y-132566861D01*
X249663113Y-132535148D01*
X249628611Y-132475388D01*
X249628608Y-132475385D01*
X249628607Y-132475382D01*
X249488918Y-132293338D01*
X249488911Y-132293330D01*
X249326670Y-132131089D01*
X249326661Y-132131081D01*
X249144617Y-131991392D01*
X248945890Y-131876657D01*
X248945876Y-131876650D01*
X248733887Y-131788842D01*
X248684093Y-131775500D01*
X248512238Y-131729452D01*
X248474215Y-131724446D01*
X248284741Y-131699500D01*
X248284734Y-131699500D01*
X248055266Y-131699500D01*
X248055258Y-131699500D01*
X247838715Y-131728009D01*
X247827762Y-131729452D01*
X247751075Y-131750000D01*
X247606112Y-131788842D01*
X247394123Y-131876650D01*
X247394109Y-131876657D01*
X247195382Y-131991392D01*
X247013338Y-132131081D01*
X246851081Y-132293338D01*
X246711392Y-132475382D01*
X246596657Y-132674109D01*
X246596650Y-132674123D01*
X246508842Y-132886112D01*
X246449453Y-133107759D01*
X246449451Y-133107770D01*
X246419500Y-133335258D01*
X246419500Y-133564741D01*
X246444446Y-133754215D01*
X246449452Y-133792238D01*
X246449453Y-133792240D01*
X246508842Y-134013887D01*
X246596650Y-134225876D01*
X246596657Y-134225890D01*
X246711392Y-134424617D01*
X246851081Y-134606661D01*
X246851089Y-134606670D01*
X247013330Y-134768911D01*
X247013338Y-134768918D01*
X247195382Y-134908607D01*
X247195385Y-134908608D01*
X247195388Y-134908611D01*
X247394112Y-135023344D01*
X247394117Y-135023346D01*
X247394123Y-135023349D01*
X247485480Y-135061190D01*
X247606113Y-135111158D01*
X247827762Y-135170548D01*
X248055266Y-135200500D01*
X248055273Y-135200500D01*
X248284727Y-135200500D01*
X248284734Y-135200500D01*
X248512238Y-135170548D01*
X248733887Y-135111158D01*
X248945888Y-135023344D01*
X249144612Y-134908611D01*
X249326661Y-134768919D01*
X249326665Y-134768914D01*
X249326670Y-134768911D01*
X249488911Y-134606670D01*
X249488914Y-134606665D01*
X249488919Y-134606661D01*
X249628611Y-134424612D01*
X249663113Y-134364851D01*
X249713679Y-134316636D01*
X249782286Y-134303412D01*
X249847151Y-134329380D01*
X249887680Y-134386294D01*
X249894500Y-134426851D01*
X249894500Y-134774678D01*
X249909032Y-134847735D01*
X249909033Y-134847739D01*
X249909034Y-134847740D01*
X249964399Y-134930601D01*
X250047260Y-134985966D01*
X250047264Y-134985967D01*
X250120321Y-135000499D01*
X250120324Y-135000500D01*
X250120326Y-135000500D01*
X252769676Y-135000500D01*
X252769677Y-135000499D01*
X252842740Y-134985966D01*
X252925601Y-134930601D01*
X252980966Y-134847740D01*
X252995500Y-134774674D01*
X252995500Y-132125326D01*
X252995500Y-132125323D01*
X252995499Y-132125321D01*
X252980967Y-132052264D01*
X252980966Y-132052260D01*
X252963337Y-132025876D01*
X252925601Y-131969399D01*
X252842740Y-131914034D01*
X252842739Y-131914033D01*
X252842735Y-131914032D01*
X252769677Y-131899500D01*
X252769674Y-131899500D01*
X251964500Y-131899500D01*
X251897461Y-131879815D01*
X251851706Y-131827011D01*
X251840500Y-131775500D01*
X251840500Y-127413312D01*
X252568600Y-127413312D01*
X252568600Y-127586687D01*
X252595720Y-127757913D01*
X252649290Y-127922788D01*
X252649291Y-127922791D01*
X252727998Y-128077260D01*
X252829899Y-128217514D01*
X252952486Y-128340101D01*
X253092740Y-128442002D01*
X253168502Y-128480604D01*
X253247208Y-128520708D01*
X253247211Y-128520709D01*
X253329648Y-128547494D01*
X253412088Y-128574280D01*
X253491391Y-128586840D01*
X253583313Y-128601400D01*
X253583318Y-128601400D01*
X253756687Y-128601400D01*
X253839695Y-128588252D01*
X253927912Y-128574280D01*
X254092791Y-128520708D01*
X254247260Y-128442002D01*
X254387514Y-128340101D01*
X254510101Y-128217514D01*
X254612002Y-128077260D01*
X254690708Y-127922791D01*
X254744280Y-127757912D01*
X254758252Y-127669695D01*
X254771400Y-127586687D01*
X254771400Y-127413312D01*
X254755622Y-127313702D01*
X254744280Y-127242088D01*
X254690708Y-127077209D01*
X254690708Y-127077208D01*
X254612001Y-126922739D01*
X254510101Y-126782486D01*
X254387514Y-126659899D01*
X254247260Y-126557998D01*
X254092791Y-126479291D01*
X254092788Y-126479290D01*
X253927913Y-126425720D01*
X253756687Y-126398600D01*
X253756682Y-126398600D01*
X253583318Y-126398600D01*
X253583313Y-126398600D01*
X253412086Y-126425720D01*
X253247211Y-126479290D01*
X253247208Y-126479291D01*
X253092739Y-126557998D01*
X253012719Y-126616136D01*
X252952486Y-126659899D01*
X252952484Y-126659901D01*
X252952483Y-126659901D01*
X252829901Y-126782483D01*
X252829901Y-126782484D01*
X252829899Y-126782486D01*
X252786136Y-126842719D01*
X252727998Y-126922739D01*
X252649291Y-127077208D01*
X252649290Y-127077211D01*
X252595720Y-127242086D01*
X252568600Y-127413312D01*
X251840500Y-127413312D01*
X251840500Y-121742729D01*
X251840501Y-121742716D01*
X251840501Y-121627274D01*
X251840501Y-121627273D01*
X251813207Y-121525413D01*
X251760480Y-121434087D01*
X251685913Y-121359520D01*
X251685912Y-121359519D01*
X251681582Y-121355189D01*
X251681571Y-121355179D01*
X245643969Y-115317577D01*
X245560339Y-115233947D01*
X249819500Y-115233947D01*
X249819500Y-115466052D01*
X249849794Y-115696148D01*
X249909862Y-115920328D01*
X249998677Y-116134745D01*
X249998685Y-116134762D01*
X250114720Y-116335743D01*
X250114721Y-116335745D01*
X250256009Y-116519875D01*
X250256015Y-116519882D01*
X250420117Y-116683984D01*
X250420124Y-116683990D01*
X250604254Y-116825278D01*
X250604256Y-116825279D01*
X250805237Y-116941314D01*
X250805240Y-116941315D01*
X250805248Y-116941320D01*
X251019670Y-117030137D01*
X251243851Y-117090206D01*
X251473955Y-117120500D01*
X251473962Y-117120500D01*
X251706038Y-117120500D01*
X251706045Y-117120500D01*
X251936149Y-117090206D01*
X252160330Y-117030137D01*
X252374752Y-116941320D01*
X252575748Y-116825276D01*
X252759877Y-116683989D01*
X252923989Y-116519877D01*
X253065276Y-116335748D01*
X253181320Y-116134752D01*
X253270137Y-115920330D01*
X253330206Y-115696149D01*
X253360500Y-115466045D01*
X253360500Y-115233955D01*
X253330206Y-115003851D01*
X253270137Y-114779670D01*
X253181320Y-114565248D01*
X253181314Y-114565237D01*
X253065279Y-114364256D01*
X253065278Y-114364254D01*
X252923990Y-114180124D01*
X252923984Y-114180117D01*
X252759882Y-114016015D01*
X252759875Y-114016009D01*
X252575745Y-113874721D01*
X252575743Y-113874720D01*
X252374762Y-113758685D01*
X252374754Y-113758681D01*
X252374752Y-113758680D01*
X252160330Y-113669863D01*
X252160331Y-113669863D01*
X252160328Y-113669862D01*
X252018203Y-113631780D01*
X251936149Y-113609794D01*
X251907386Y-113606007D01*
X251706052Y-113579500D01*
X251706045Y-113579500D01*
X251473955Y-113579500D01*
X251473947Y-113579500D01*
X251243851Y-113609794D01*
X251019671Y-113669862D01*
X250805254Y-113758677D01*
X250805237Y-113758685D01*
X250604256Y-113874720D01*
X250604254Y-113874721D01*
X250420124Y-114016009D01*
X250420117Y-114016015D01*
X250256015Y-114180117D01*
X250256009Y-114180124D01*
X250114721Y-114364254D01*
X250114720Y-114364256D01*
X249998685Y-114565237D01*
X249998677Y-114565254D01*
X249909862Y-114779671D01*
X249849794Y-115003851D01*
X249819500Y-115233947D01*
X245560339Y-115233947D01*
X241595442Y-111269050D01*
X231585913Y-101259520D01*
X231540250Y-101233156D01*
X231494589Y-101206793D01*
X231443657Y-101193146D01*
X231392727Y-101179500D01*
X231392726Y-101179500D01*
X212457255Y-101179500D01*
X212390216Y-101159815D01*
X212369574Y-101143181D01*
X211646819Y-100420426D01*
X211613334Y-100359103D01*
X211610500Y-100332745D01*
X211610500Y-98474500D01*
X211630185Y-98407461D01*
X211682989Y-98361706D01*
X211734500Y-98350500D01*
X212020630Y-98350500D01*
X212020636Y-98350500D01*
X212093625Y-98339866D01*
X212130538Y-98321819D01*
X212199410Y-98310059D01*
X212239459Y-98321819D01*
X212276375Y-98339866D01*
X212349364Y-98350500D01*
X212349370Y-98350500D01*
X212670630Y-98350500D01*
X212670636Y-98350500D01*
X212743625Y-98339866D01*
X212780538Y-98321819D01*
X212849410Y-98310059D01*
X212889459Y-98321819D01*
X212926375Y-98339866D01*
X212999364Y-98350500D01*
X212999370Y-98350500D01*
X213320630Y-98350500D01*
X213320636Y-98350500D01*
X213393625Y-98339866D01*
X213430538Y-98321819D01*
X213499410Y-98310059D01*
X213539459Y-98321819D01*
X213576375Y-98339866D01*
X213649364Y-98350500D01*
X213649370Y-98350500D01*
X213970630Y-98350500D01*
X213970636Y-98350500D01*
X214043625Y-98339866D01*
X214080538Y-98321819D01*
X214149410Y-98310059D01*
X214189459Y-98321819D01*
X214226375Y-98339866D01*
X214299364Y-98350500D01*
X214299370Y-98350500D01*
X214620630Y-98350500D01*
X214620636Y-98350500D01*
X214693625Y-98339866D01*
X214754596Y-98310059D01*
X214806210Y-98284827D01*
X214894827Y-98196210D01*
X214923973Y-98136590D01*
X214949866Y-98083625D01*
X214960500Y-98010636D01*
X214960500Y-96707065D01*
X219009500Y-96707065D01*
X219009500Y-96952934D01*
X219026737Y-97083854D01*
X219041591Y-97196677D01*
X219086022Y-97362496D01*
X219105222Y-97434152D01*
X219105225Y-97434162D01*
X219177998Y-97609850D01*
X219199306Y-97661292D01*
X219322233Y-97874208D01*
X219322235Y-97874211D01*
X219322236Y-97874212D01*
X219471897Y-98069254D01*
X219471903Y-98069261D01*
X219645738Y-98243096D01*
X219645745Y-98243102D01*
X219712475Y-98294306D01*
X219840792Y-98392767D01*
X220053708Y-98515694D01*
X220280847Y-98609778D01*
X220518323Y-98673409D01*
X220762073Y-98705500D01*
X220762080Y-98705500D01*
X221007920Y-98705500D01*
X221007927Y-98705500D01*
X221251677Y-98673409D01*
X221489153Y-98609778D01*
X221716292Y-98515694D01*
X221929208Y-98392767D01*
X222124256Y-98243101D01*
X222298101Y-98069256D01*
X222447767Y-97874208D01*
X222570694Y-97661292D01*
X222664778Y-97434153D01*
X222728409Y-97196677D01*
X222760500Y-96952927D01*
X222760500Y-96707073D01*
X222728409Y-96463323D01*
X222664778Y-96225847D01*
X222570694Y-95998708D01*
X222447767Y-95785792D01*
X222298101Y-95590744D01*
X222298096Y-95590738D01*
X222124261Y-95416903D01*
X222124254Y-95416897D01*
X221929212Y-95267236D01*
X221929211Y-95267235D01*
X221929208Y-95267233D01*
X221751423Y-95164589D01*
X221716294Y-95144307D01*
X221716285Y-95144303D01*
X221489162Y-95050225D01*
X221489155Y-95050223D01*
X221489153Y-95050222D01*
X221251677Y-94986591D01*
X221210939Y-94981227D01*
X221007934Y-94954500D01*
X221007927Y-94954500D01*
X220762073Y-94954500D01*
X220762065Y-94954500D01*
X220530059Y-94985045D01*
X220518323Y-94986591D01*
X220292767Y-95047028D01*
X220280847Y-95050222D01*
X220280837Y-95050225D01*
X220053714Y-95144303D01*
X220053705Y-95144307D01*
X219840787Y-95267236D01*
X219645745Y-95416897D01*
X219645738Y-95416903D01*
X219471903Y-95590738D01*
X219471897Y-95590745D01*
X219322236Y-95785787D01*
X219199307Y-95998705D01*
X219199303Y-95998714D01*
X219105225Y-96225837D01*
X219105222Y-96225847D01*
X219053799Y-96417764D01*
X219041592Y-96463320D01*
X219041590Y-96463331D01*
X219009500Y-96707065D01*
X214960500Y-96707065D01*
X214960500Y-96289364D01*
X214949866Y-96216375D01*
X214909599Y-96134007D01*
X214894827Y-96103789D01*
X214806210Y-96015172D01*
X214693628Y-95960135D01*
X214693626Y-95960134D01*
X214693625Y-95960134D01*
X214620636Y-95949500D01*
X214334500Y-95949500D01*
X214325814Y-95946949D01*
X214316853Y-95948238D01*
X214292812Y-95937259D01*
X214267461Y-95929815D01*
X214261533Y-95922974D01*
X214253297Y-95919213D01*
X214239007Y-95896978D01*
X214221706Y-95877011D01*
X214219418Y-95866496D01*
X214215523Y-95860435D01*
X214210500Y-95825500D01*
X214210500Y-95817254D01*
X214230185Y-95750215D01*
X214246819Y-95729573D01*
X219101764Y-90874628D01*
X222425000Y-90874628D01*
X222439503Y-90947540D01*
X222439505Y-90947544D01*
X222494760Y-91030239D01*
X222577455Y-91085494D01*
X222577459Y-91085496D01*
X222650371Y-91099999D01*
X222650374Y-91100000D01*
X223475000Y-91100000D01*
X223475000Y-90050000D01*
X222425000Y-90050000D01*
X222425000Y-90874628D01*
X219101764Y-90874628D01*
X221751021Y-88225371D01*
X222425000Y-88225371D01*
X222425000Y-89050000D01*
X223475000Y-89050000D01*
X223475000Y-88000000D01*
X224475000Y-88000000D01*
X224475000Y-91100000D01*
X225299626Y-91100000D01*
X225299628Y-91099999D01*
X225372540Y-91085496D01*
X225372544Y-91085494D01*
X225455239Y-91030239D01*
X225510494Y-90947544D01*
X225510496Y-90947540D01*
X225524999Y-90874628D01*
X225525000Y-90874626D01*
X225525000Y-90525985D01*
X225544685Y-90458946D01*
X225597489Y-90413191D01*
X225666647Y-90403247D01*
X225730203Y-90432272D01*
X225756387Y-90463986D01*
X225791390Y-90524614D01*
X225931081Y-90706661D01*
X225931089Y-90706670D01*
X226093330Y-90868911D01*
X226093338Y-90868918D01*
X226093339Y-90868919D01*
X226126138Y-90894087D01*
X226275382Y-91008607D01*
X226275385Y-91008608D01*
X226275388Y-91008611D01*
X226474112Y-91123344D01*
X226474117Y-91123346D01*
X226474123Y-91123349D01*
X226565480Y-91161190D01*
X226686113Y-91211158D01*
X226907762Y-91270548D01*
X227135266Y-91300500D01*
X227135273Y-91300500D01*
X227364727Y-91300500D01*
X227364734Y-91300500D01*
X227592238Y-91270548D01*
X227813887Y-91211158D01*
X228025888Y-91123344D01*
X228224612Y-91008611D01*
X228406661Y-90868919D01*
X228406665Y-90868914D01*
X228406670Y-90868911D01*
X228568911Y-90706670D01*
X228568914Y-90706665D01*
X228568919Y-90706661D01*
X228708611Y-90524612D01*
X228823344Y-90325888D01*
X228911158Y-90113887D01*
X228970548Y-89892238D01*
X229000500Y-89664734D01*
X229000500Y-89435266D01*
X228970548Y-89207762D01*
X228911158Y-88986113D01*
X228840940Y-88816592D01*
X228823349Y-88774123D01*
X228823346Y-88774117D01*
X228823344Y-88774112D01*
X228708611Y-88575388D01*
X228708608Y-88575385D01*
X228708607Y-88575382D01*
X228568918Y-88393338D01*
X228568911Y-88393330D01*
X228406670Y-88231089D01*
X228406661Y-88231081D01*
X228224617Y-88091392D01*
X228025890Y-87976657D01*
X228025876Y-87976650D01*
X227813887Y-87888842D01*
X227592238Y-87829452D01*
X227554215Y-87824446D01*
X227364741Y-87799500D01*
X227364734Y-87799500D01*
X227135266Y-87799500D01*
X227135258Y-87799500D01*
X226918715Y-87828009D01*
X226907762Y-87829452D01*
X226853143Y-87844087D01*
X226686112Y-87888842D01*
X226474123Y-87976650D01*
X226474109Y-87976657D01*
X226275382Y-88091392D01*
X226093338Y-88231081D01*
X225931081Y-88393338D01*
X225791392Y-88575382D01*
X225756387Y-88636014D01*
X225705820Y-88684230D01*
X225637213Y-88697452D01*
X225572348Y-88671484D01*
X225531820Y-88614570D01*
X225525000Y-88574014D01*
X225525000Y-88225373D01*
X225524999Y-88225371D01*
X225510496Y-88152459D01*
X225510494Y-88152455D01*
X225455239Y-88069760D01*
X225372544Y-88014505D01*
X225372540Y-88014503D01*
X225299627Y-88000000D01*
X224475000Y-88000000D01*
X223475000Y-88000000D01*
X222650373Y-88000000D01*
X222577459Y-88014503D01*
X222577455Y-88014505D01*
X222494760Y-88069760D01*
X222439505Y-88152455D01*
X222439503Y-88152459D01*
X222425000Y-88225371D01*
X221751021Y-88225371D01*
X224263080Y-85713312D01*
X225648600Y-85713312D01*
X225648600Y-85886687D01*
X225675720Y-86057913D01*
X225729290Y-86222788D01*
X225729291Y-86222791D01*
X225807760Y-86376793D01*
X225807998Y-86377260D01*
X225909899Y-86517514D01*
X226032486Y-86640101D01*
X226172740Y-86742002D01*
X226248502Y-86780604D01*
X226327208Y-86820708D01*
X226327211Y-86820709D01*
X226409648Y-86847494D01*
X226492088Y-86874280D01*
X226571391Y-86886840D01*
X226663313Y-86901400D01*
X226663318Y-86901400D01*
X226836687Y-86901400D01*
X226919695Y-86888252D01*
X227007912Y-86874280D01*
X227172791Y-86820708D01*
X227327260Y-86742002D01*
X227467514Y-86640101D01*
X227590101Y-86517514D01*
X227692002Y-86377260D01*
X227770708Y-86222791D01*
X227824280Y-86057912D01*
X227838252Y-85969695D01*
X227851400Y-85886687D01*
X227851400Y-85713312D01*
X227832017Y-85590939D01*
X227824280Y-85542088D01*
X227770708Y-85377209D01*
X227770708Y-85377208D01*
X227692001Y-85222739D01*
X227590101Y-85082486D01*
X227467514Y-84959899D01*
X227327260Y-84857998D01*
X227172791Y-84779291D01*
X227172788Y-84779290D01*
X227007913Y-84725720D01*
X226836687Y-84698600D01*
X226836682Y-84698600D01*
X226663318Y-84698600D01*
X226663313Y-84698600D01*
X226492086Y-84725720D01*
X226327211Y-84779290D01*
X226327208Y-84779291D01*
X226172739Y-84857998D01*
X226133794Y-84886294D01*
X226032486Y-84959899D01*
X226032484Y-84959901D01*
X226032483Y-84959901D01*
X225909901Y-85082483D01*
X225909901Y-85082484D01*
X225909899Y-85082486D01*
X225866136Y-85142719D01*
X225807998Y-85222739D01*
X225729291Y-85377208D01*
X225729290Y-85377211D01*
X225675720Y-85542086D01*
X225648600Y-85713312D01*
X224263080Y-85713312D01*
X226309573Y-83666819D01*
X226370896Y-83633334D01*
X226397254Y-83630500D01*
X231812636Y-83630500D01*
X231879675Y-83650185D01*
X231925430Y-83702989D01*
X231935374Y-83772147D01*
X231906349Y-83835703D01*
X231847571Y-83873477D01*
X231844756Y-83874267D01*
X231769900Y-83894324D01*
X231617017Y-83935289D01*
X231379047Y-84033859D01*
X231379030Y-84033867D01*
X231155969Y-84162652D01*
X231155953Y-84162663D01*
X230951607Y-84319463D01*
X230951600Y-84319469D01*
X230769469Y-84501600D01*
X230769463Y-84501607D01*
X230612663Y-84705953D01*
X230612652Y-84705969D01*
X230483867Y-84929030D01*
X230483859Y-84929047D01*
X230385289Y-85167017D01*
X230318622Y-85415825D01*
X230285000Y-85671199D01*
X230285000Y-85928800D01*
X230301999Y-86057912D01*
X230318622Y-86184175D01*
X230328968Y-86222788D01*
X230385289Y-86432982D01*
X230483859Y-86670952D01*
X230483867Y-86670969D01*
X230612652Y-86894030D01*
X230612663Y-86894046D01*
X230769463Y-87098392D01*
X230769469Y-87098399D01*
X230951600Y-87280530D01*
X230951606Y-87280535D01*
X231155962Y-87437343D01*
X231155969Y-87437347D01*
X231379030Y-87566132D01*
X231379035Y-87566134D01*
X231379038Y-87566136D01*
X231379042Y-87566137D01*
X231379047Y-87566140D01*
X231473386Y-87605216D01*
X231617016Y-87664710D01*
X231865825Y-87731378D01*
X232121207Y-87765000D01*
X232121214Y-87765000D01*
X232378786Y-87765000D01*
X232378793Y-87765000D01*
X232634175Y-87731378D01*
X232882984Y-87664710D01*
X233120962Y-87566136D01*
X233344038Y-87437343D01*
X233548394Y-87280535D01*
X233730535Y-87098394D01*
X233887343Y-86894038D01*
X234016136Y-86670962D01*
X234114710Y-86432984D01*
X234181378Y-86184175D01*
X234215000Y-85928793D01*
X234215000Y-85671207D01*
X234181378Y-85415825D01*
X234114710Y-85167016D01*
X234016136Y-84929038D01*
X234016134Y-84929035D01*
X234016132Y-84929030D01*
X233887347Y-84705969D01*
X233887343Y-84705962D01*
X233730535Y-84501606D01*
X233730530Y-84501600D01*
X233548399Y-84319469D01*
X233548392Y-84319463D01*
X233344046Y-84162663D01*
X233344044Y-84162661D01*
X233344038Y-84162657D01*
X233344033Y-84162654D01*
X233344030Y-84162652D01*
X233120969Y-84033867D01*
X233120952Y-84033859D01*
X232882982Y-83935289D01*
X232754479Y-83900857D01*
X232655269Y-83874274D01*
X232595610Y-83837910D01*
X232565081Y-83775063D01*
X232573376Y-83705688D01*
X232617861Y-83651810D01*
X232684413Y-83630535D01*
X232687364Y-83630500D01*
X234082745Y-83630500D01*
X234149784Y-83650185D01*
X234170426Y-83666819D01*
X235088181Y-84584573D01*
X235121666Y-84645896D01*
X235124500Y-84672254D01*
X235124500Y-90075500D01*
X235104815Y-90142539D01*
X235052011Y-90188294D01*
X235000500Y-90199500D01*
X234200323Y-90199500D01*
X234127264Y-90214032D01*
X234127260Y-90214033D01*
X234044399Y-90269399D01*
X233989033Y-90352260D01*
X233989032Y-90352264D01*
X233974500Y-90425321D01*
X233974500Y-90773148D01*
X233954815Y-90840187D01*
X233902011Y-90885942D01*
X233832853Y-90895886D01*
X233769297Y-90866861D01*
X233743113Y-90835148D01*
X233708611Y-90775388D01*
X233708608Y-90775385D01*
X233708607Y-90775382D01*
X233568918Y-90593338D01*
X233568911Y-90593330D01*
X233406670Y-90431089D01*
X233406661Y-90431081D01*
X233224617Y-90291392D01*
X233171110Y-90260500D01*
X233065455Y-90199500D01*
X233025890Y-90176657D01*
X233025876Y-90176650D01*
X232813887Y-90088842D01*
X232764093Y-90075500D01*
X232592238Y-90029452D01*
X232554215Y-90024446D01*
X232364741Y-89999500D01*
X232364734Y-89999500D01*
X232135266Y-89999500D01*
X232135258Y-89999500D01*
X231918715Y-90028009D01*
X231907762Y-90029452D01*
X231831075Y-90050000D01*
X231686112Y-90088842D01*
X231474123Y-90176650D01*
X231474109Y-90176657D01*
X231275382Y-90291392D01*
X231093338Y-90431081D01*
X230931081Y-90593338D01*
X230791392Y-90775382D01*
X230676657Y-90974109D01*
X230676650Y-90974123D01*
X230588842Y-91186112D01*
X230562392Y-91284826D01*
X230535307Y-91385913D01*
X230529453Y-91407759D01*
X230529451Y-91407770D01*
X230499500Y-91635258D01*
X230499500Y-91864741D01*
X230514069Y-91975398D01*
X230529452Y-92092238D01*
X230572296Y-92252135D01*
X230588842Y-92313887D01*
X230676650Y-92525876D01*
X230676657Y-92525890D01*
X230791392Y-92724617D01*
X230931081Y-92906661D01*
X230931089Y-92906670D01*
X231093330Y-93068911D01*
X231093338Y-93068918D01*
X231275382Y-93208607D01*
X231275385Y-93208608D01*
X231275388Y-93208611D01*
X231474112Y-93323344D01*
X231474117Y-93323346D01*
X231474123Y-93323349D01*
X231556678Y-93357544D01*
X231686113Y-93411158D01*
X231907762Y-93470548D01*
X232124312Y-93499057D01*
X232135250Y-93500498D01*
X232135266Y-93500500D01*
X232135273Y-93500500D01*
X232364727Y-93500500D01*
X232364734Y-93500500D01*
X232592238Y-93470548D01*
X232813887Y-93411158D01*
X233025888Y-93323344D01*
X233224612Y-93208611D01*
X233406661Y-93068919D01*
X233406665Y-93068914D01*
X233406670Y-93068911D01*
X233568911Y-92906670D01*
X233568914Y-92906665D01*
X233568919Y-92906661D01*
X233708611Y-92724612D01*
X233743113Y-92664851D01*
X233793679Y-92616636D01*
X233862286Y-92603412D01*
X233927151Y-92629380D01*
X233967680Y-92686294D01*
X233974500Y-92726851D01*
X233974500Y-93074678D01*
X233989032Y-93147735D01*
X233989033Y-93147739D01*
X233989034Y-93147740D01*
X234044399Y-93230601D01*
X234127260Y-93285966D01*
X234127264Y-93285967D01*
X234200321Y-93300499D01*
X234200324Y-93300500D01*
X234200326Y-93300500D01*
X236849676Y-93300500D01*
X236849677Y-93300499D01*
X236922740Y-93285966D01*
X237005601Y-93230601D01*
X237060966Y-93147740D01*
X237075500Y-93074674D01*
X237075500Y-90425326D01*
X237075500Y-90425323D01*
X237075499Y-90425321D01*
X237060967Y-90352264D01*
X237060966Y-90352260D01*
X237043337Y-90325876D01*
X237005601Y-90269399D01*
X236922740Y-90214034D01*
X236922739Y-90214033D01*
X236922735Y-90214032D01*
X236849677Y-90199500D01*
X236849674Y-90199500D01*
X236049500Y-90199500D01*
X235982461Y-90179815D01*
X235936706Y-90127011D01*
X235925500Y-90075500D01*
X235925500Y-85713312D01*
X236648600Y-85713312D01*
X236648600Y-85886687D01*
X236675720Y-86057913D01*
X236729290Y-86222788D01*
X236729291Y-86222791D01*
X236807760Y-86376793D01*
X236807998Y-86377260D01*
X236909899Y-86517514D01*
X237032486Y-86640101D01*
X237172740Y-86742002D01*
X237248502Y-86780604D01*
X237327208Y-86820708D01*
X237327211Y-86820709D01*
X237409648Y-86847494D01*
X237492088Y-86874280D01*
X237571391Y-86886840D01*
X237663313Y-86901400D01*
X237663318Y-86901400D01*
X237836687Y-86901400D01*
X237919695Y-86888252D01*
X238007912Y-86874280D01*
X238172791Y-86820708D01*
X238327260Y-86742002D01*
X238467514Y-86640101D01*
X238590101Y-86517514D01*
X238692002Y-86377260D01*
X238770708Y-86222791D01*
X238824280Y-86057912D01*
X238838252Y-85969695D01*
X238851400Y-85886687D01*
X238851400Y-85713312D01*
X238832017Y-85590939D01*
X238824280Y-85542088D01*
X238770708Y-85377209D01*
X238770708Y-85377208D01*
X238692001Y-85222739D01*
X238590101Y-85082486D01*
X238467514Y-84959899D01*
X238327260Y-84857998D01*
X238172791Y-84779291D01*
X238172788Y-84779290D01*
X238007913Y-84725720D01*
X237836687Y-84698600D01*
X237836682Y-84698600D01*
X237663318Y-84698600D01*
X237663313Y-84698600D01*
X237492086Y-84725720D01*
X237327211Y-84779290D01*
X237327208Y-84779291D01*
X237172739Y-84857998D01*
X237133794Y-84886294D01*
X237032486Y-84959899D01*
X237032484Y-84959901D01*
X237032483Y-84959901D01*
X236909901Y-85082483D01*
X236909901Y-85082484D01*
X236909899Y-85082486D01*
X236866136Y-85142719D01*
X236807998Y-85222739D01*
X236729291Y-85377208D01*
X236729290Y-85377211D01*
X236675720Y-85542086D01*
X236648600Y-85713312D01*
X235925500Y-85713312D01*
X235925500Y-84517729D01*
X235925501Y-84517716D01*
X235925501Y-84402274D01*
X235925501Y-84402273D01*
X235898207Y-84300413D01*
X235893487Y-84292238D01*
X235845480Y-84209087D01*
X235770913Y-84134520D01*
X235770910Y-84134518D01*
X234545913Y-82909520D01*
X234500248Y-82883155D01*
X234454589Y-82856793D01*
X234403657Y-82843146D01*
X234352727Y-82829500D01*
X226232727Y-82829500D01*
X226127273Y-82829500D01*
X226025412Y-82856793D01*
X226025409Y-82856794D01*
X225979750Y-82883155D01*
X225979750Y-82883156D01*
X225939039Y-82906661D01*
X225934087Y-82909520D01*
X225934084Y-82909522D01*
X217622181Y-91221426D01*
X217560858Y-91254911D01*
X217491166Y-91249927D01*
X217435233Y-91208055D01*
X217410816Y-91142591D01*
X217410500Y-91133745D01*
X217410500Y-88152729D01*
X217410501Y-88152716D01*
X217410501Y-88037274D01*
X217404399Y-88014503D01*
X217383207Y-87935413D01*
X217383206Y-87935412D01*
X217383206Y-87935410D01*
X217382571Y-87934311D01*
X217382569Y-87934309D01*
X217378230Y-87926793D01*
X217330480Y-87844087D01*
X217255913Y-87769520D01*
X217255910Y-87769518D01*
X215256819Y-85770426D01*
X215223334Y-85709103D01*
X215220500Y-85682745D01*
X215220500Y-85624500D01*
X215240185Y-85557461D01*
X215292989Y-85511706D01*
X215344500Y-85500500D01*
X216144676Y-85500500D01*
X216144677Y-85500499D01*
X216217740Y-85485966D01*
X216300601Y-85430601D01*
X216355966Y-85347740D01*
X216370500Y-85274674D01*
X216370500Y-82625326D01*
X216370500Y-82625323D01*
X216370499Y-82625321D01*
X216355967Y-82552264D01*
X216355966Y-82552260D01*
X216338337Y-82525876D01*
X216300601Y-82469399D01*
X216217740Y-82414034D01*
X216217739Y-82414033D01*
X216217735Y-82414032D01*
X216144677Y-82399500D01*
X216144674Y-82399500D01*
X213495326Y-82399500D01*
X213495323Y-82399500D01*
X213422264Y-82414032D01*
X213422260Y-82414033D01*
X213339399Y-82469399D01*
X213284033Y-82552260D01*
X213284032Y-82552264D01*
X213269500Y-82625321D01*
X213269500Y-82973148D01*
X213249815Y-83040187D01*
X213197011Y-83085942D01*
X213127853Y-83095886D01*
X213064297Y-83066861D01*
X213038113Y-83035148D01*
X213003611Y-82975388D01*
X213003608Y-82975385D01*
X213003607Y-82975382D01*
X212863918Y-82793338D01*
X212863911Y-82793330D01*
X212701670Y-82631089D01*
X212701661Y-82631081D01*
X212519617Y-82491392D01*
X212320890Y-82376657D01*
X212320876Y-82376650D01*
X212108887Y-82288842D01*
X211887238Y-82229452D01*
X211849215Y-82224446D01*
X211659741Y-82199500D01*
X211659734Y-82199500D01*
X211430266Y-82199500D01*
X211430258Y-82199500D01*
X211213715Y-82228009D01*
X211202762Y-82229452D01*
X211126075Y-82250000D01*
X210981112Y-82288842D01*
X210769123Y-82376650D01*
X210769109Y-82376657D01*
X210570382Y-82491392D01*
X210388338Y-82631081D01*
X210226081Y-82793338D01*
X210086392Y-82975382D01*
X209971657Y-83174109D01*
X209971650Y-83174123D01*
X209883842Y-83386112D01*
X209824453Y-83607759D01*
X209824451Y-83607770D01*
X209794500Y-83835258D01*
X209794500Y-84064741D01*
X209813505Y-84209087D01*
X209824452Y-84292238D01*
X209853936Y-84402274D01*
X209883842Y-84513887D01*
X209971650Y-84725876D01*
X209971657Y-84725890D01*
X210086392Y-84924617D01*
X210226081Y-85106661D01*
X210226089Y-85106670D01*
X210388330Y-85268911D01*
X210388338Y-85268918D01*
X210570382Y-85408607D01*
X210570385Y-85408608D01*
X210570388Y-85408611D01*
X210769112Y-85523344D01*
X210932301Y-85590939D01*
X210986704Y-85634780D01*
X211008769Y-85701074D01*
X210991490Y-85768773D01*
X210940353Y-85816384D01*
X210884848Y-85829500D01*
X196642255Y-85829500D01*
X196575216Y-85809815D01*
X196554574Y-85793181D01*
X195731819Y-84970426D01*
X195698334Y-84909103D01*
X195695500Y-84882745D01*
X195695500Y-83074628D01*
X201720000Y-83074628D01*
X201734503Y-83147540D01*
X201734505Y-83147544D01*
X201789760Y-83230239D01*
X201872455Y-83285494D01*
X201872459Y-83285496D01*
X201945371Y-83299999D01*
X201945374Y-83300000D01*
X202770000Y-83300000D01*
X202770000Y-82250000D01*
X201720000Y-82250000D01*
X201720000Y-83074628D01*
X195695500Y-83074628D01*
X195695500Y-82625323D01*
X195695499Y-82625321D01*
X195680967Y-82552264D01*
X195680966Y-82552260D01*
X195663337Y-82525876D01*
X195625601Y-82469399D01*
X195542740Y-82414034D01*
X195542739Y-82414033D01*
X195542735Y-82414032D01*
X195469677Y-82399500D01*
X195469674Y-82399500D01*
X192820326Y-82399500D01*
X192820323Y-82399500D01*
X192747264Y-82414032D01*
X192747260Y-82414033D01*
X192664399Y-82469399D01*
X192609033Y-82552260D01*
X192609032Y-82552264D01*
X192594500Y-82625321D01*
X192594500Y-82973148D01*
X192574815Y-83040187D01*
X192522011Y-83085942D01*
X192452853Y-83095886D01*
X192389297Y-83066861D01*
X192363113Y-83035148D01*
X192328611Y-82975388D01*
X192328608Y-82975385D01*
X192328607Y-82975382D01*
X192188918Y-82793338D01*
X192188911Y-82793330D01*
X192026670Y-82631089D01*
X192026661Y-82631081D01*
X191844617Y-82491392D01*
X191645890Y-82376657D01*
X191645876Y-82376650D01*
X191492690Y-82313199D01*
X191433887Y-82288842D01*
X191212238Y-82229452D01*
X191174215Y-82224446D01*
X190984741Y-82199500D01*
X190984734Y-82199500D01*
X190755266Y-82199500D01*
X190755258Y-82199500D01*
X190538715Y-82228009D01*
X190527762Y-82229452D01*
X190451075Y-82250000D01*
X190306112Y-82288842D01*
X190094123Y-82376650D01*
X190094109Y-82376657D01*
X189895382Y-82491392D01*
X189713338Y-82631081D01*
X189551081Y-82793338D01*
X189411392Y-82975382D01*
X189296657Y-83174109D01*
X189296650Y-83174123D01*
X189208842Y-83386112D01*
X189149453Y-83607759D01*
X189149451Y-83607770D01*
X189119500Y-83835258D01*
X189119500Y-84064741D01*
X189138505Y-84209087D01*
X189149452Y-84292238D01*
X189178936Y-84402274D01*
X189208842Y-84513887D01*
X189296650Y-84725876D01*
X189296657Y-84725890D01*
X189411392Y-84924617D01*
X189551081Y-85106661D01*
X189551089Y-85106670D01*
X189713330Y-85268911D01*
X189713338Y-85268918D01*
X189895382Y-85408607D01*
X189895385Y-85408608D01*
X189895388Y-85408611D01*
X190094112Y-85523344D01*
X190094117Y-85523346D01*
X190094123Y-85523349D01*
X190165758Y-85553021D01*
X190306113Y-85611158D01*
X190527762Y-85670548D01*
X190755266Y-85700500D01*
X190755273Y-85700500D01*
X190984727Y-85700500D01*
X190984734Y-85700500D01*
X191212238Y-85670548D01*
X191433887Y-85611158D01*
X191645888Y-85523344D01*
X191844612Y-85408611D01*
X192026661Y-85268919D01*
X192026665Y-85268914D01*
X192026670Y-85268911D01*
X192188911Y-85106670D01*
X192188914Y-85106665D01*
X192188919Y-85106661D01*
X192328611Y-84924612D01*
X192363113Y-84864851D01*
X192413679Y-84816636D01*
X192482286Y-84803412D01*
X192547151Y-84829380D01*
X192587680Y-84886294D01*
X192594500Y-84926851D01*
X192594500Y-85274678D01*
X192609032Y-85347735D01*
X192609033Y-85347739D01*
X192609034Y-85347740D01*
X192664399Y-85430601D01*
X192747260Y-85485966D01*
X192747264Y-85485967D01*
X192820321Y-85500499D01*
X192820324Y-85500500D01*
X192820326Y-85500500D01*
X195077745Y-85500500D01*
X195144784Y-85520185D01*
X195165426Y-85536819D01*
X195766426Y-86137819D01*
X195799911Y-86199142D01*
X195794927Y-86268834D01*
X195753055Y-86324767D01*
X195687591Y-86349184D01*
X195678745Y-86349500D01*
X178512273Y-86349500D01*
X178410410Y-86376793D01*
X178319087Y-86429520D01*
X178319084Y-86429522D01*
X174585426Y-90163181D01*
X174524103Y-90196666D01*
X174497745Y-90199500D01*
X172240323Y-90199500D01*
X172167264Y-90214032D01*
X172167260Y-90214033D01*
X172084399Y-90269399D01*
X172029033Y-90352260D01*
X172029032Y-90352264D01*
X172014500Y-90425321D01*
X172014500Y-90773148D01*
X171994815Y-90840187D01*
X171942011Y-90885942D01*
X171872853Y-90895886D01*
X171809297Y-90866861D01*
X171783113Y-90835148D01*
X171748611Y-90775388D01*
X171748608Y-90775385D01*
X171748607Y-90775382D01*
X171608918Y-90593338D01*
X171608911Y-90593330D01*
X171446670Y-90431089D01*
X171446661Y-90431081D01*
X171264617Y-90291392D01*
X171211110Y-90260500D01*
X171105455Y-90199500D01*
X171065890Y-90176657D01*
X171065876Y-90176650D01*
X170853887Y-90088842D01*
X170804093Y-90075500D01*
X170632238Y-90029452D01*
X170594215Y-90024446D01*
X170404741Y-89999500D01*
X170404734Y-89999500D01*
X170175266Y-89999500D01*
X170175258Y-89999500D01*
X169958715Y-90028009D01*
X169947762Y-90029452D01*
X169871075Y-90050000D01*
X169726112Y-90088842D01*
X169514123Y-90176650D01*
X169514109Y-90176657D01*
X169315382Y-90291392D01*
X169133338Y-90431081D01*
X168971081Y-90593338D01*
X168831392Y-90775382D01*
X168716657Y-90974109D01*
X168716650Y-90974123D01*
X168628842Y-91186112D01*
X168602392Y-91284826D01*
X168575307Y-91385913D01*
X168569453Y-91407759D01*
X168569451Y-91407770D01*
X168539500Y-91635258D01*
X159498035Y-91635258D01*
X159498172Y-90874628D01*
X160465000Y-90874628D01*
X160479503Y-90947540D01*
X160479505Y-90947544D01*
X160534760Y-91030239D01*
X160617455Y-91085494D01*
X160617459Y-91085496D01*
X160690371Y-91099999D01*
X160690374Y-91100000D01*
X161515000Y-91100000D01*
X161515000Y-90050000D01*
X160465000Y-90050000D01*
X160465000Y-90874628D01*
X159498172Y-90874628D01*
X159498650Y-88225371D01*
X160465000Y-88225371D01*
X160465000Y-89050000D01*
X161515000Y-89050000D01*
X161515000Y-88000000D01*
X162515000Y-88000000D01*
X162515000Y-91100000D01*
X163339626Y-91100000D01*
X163339628Y-91099999D01*
X163412540Y-91085496D01*
X163412544Y-91085494D01*
X163495239Y-91030239D01*
X163550494Y-90947544D01*
X163550496Y-90947540D01*
X163564999Y-90874628D01*
X163565000Y-90874626D01*
X163565000Y-90525985D01*
X163584685Y-90458946D01*
X163637489Y-90413191D01*
X163706647Y-90403247D01*
X163770203Y-90432272D01*
X163796387Y-90463986D01*
X163831390Y-90524614D01*
X163971081Y-90706661D01*
X163971089Y-90706670D01*
X164133330Y-90868911D01*
X164133338Y-90868918D01*
X164133339Y-90868919D01*
X164166138Y-90894087D01*
X164315382Y-91008607D01*
X164315385Y-91008608D01*
X164315388Y-91008611D01*
X164514112Y-91123344D01*
X164514117Y-91123346D01*
X164514123Y-91123349D01*
X164605480Y-91161190D01*
X164726113Y-91211158D01*
X164947762Y-91270548D01*
X165175266Y-91300500D01*
X165175273Y-91300500D01*
X165404727Y-91300500D01*
X165404734Y-91300500D01*
X165632238Y-91270548D01*
X165853887Y-91211158D01*
X166065888Y-91123344D01*
X166264612Y-91008611D01*
X166446661Y-90868919D01*
X166446665Y-90868914D01*
X166446670Y-90868911D01*
X166608911Y-90706670D01*
X166608914Y-90706665D01*
X166608919Y-90706661D01*
X166748611Y-90524612D01*
X166863344Y-90325888D01*
X166951158Y-90113887D01*
X167010548Y-89892238D01*
X167040500Y-89664734D01*
X167040500Y-89435266D01*
X167010548Y-89207762D01*
X166951158Y-88986113D01*
X166880940Y-88816592D01*
X166863349Y-88774123D01*
X166863346Y-88774117D01*
X166863344Y-88774112D01*
X166748611Y-88575388D01*
X166748608Y-88575385D01*
X166748607Y-88575382D01*
X166608918Y-88393338D01*
X166608911Y-88393330D01*
X166446670Y-88231089D01*
X166446661Y-88231081D01*
X166264617Y-88091392D01*
X166065890Y-87976657D01*
X166065876Y-87976650D01*
X165853887Y-87888842D01*
X165632238Y-87829452D01*
X165594215Y-87824446D01*
X165404741Y-87799500D01*
X165404734Y-87799500D01*
X165175266Y-87799500D01*
X165175258Y-87799500D01*
X164958715Y-87828009D01*
X164947762Y-87829452D01*
X164893143Y-87844087D01*
X164726112Y-87888842D01*
X164514123Y-87976650D01*
X164514109Y-87976657D01*
X164315382Y-88091392D01*
X164133338Y-88231081D01*
X163971081Y-88393338D01*
X163831392Y-88575382D01*
X163796387Y-88636014D01*
X163745820Y-88684230D01*
X163677213Y-88697452D01*
X163612348Y-88671484D01*
X163571820Y-88614570D01*
X163565000Y-88574014D01*
X163565000Y-88225373D01*
X163564999Y-88225371D01*
X163550496Y-88152459D01*
X163550494Y-88152455D01*
X163495239Y-88069760D01*
X163412544Y-88014505D01*
X163412540Y-88014503D01*
X163339627Y-88000000D01*
X162515000Y-88000000D01*
X161515000Y-88000000D01*
X160690373Y-88000000D01*
X160617459Y-88014503D01*
X160617455Y-88014505D01*
X160534760Y-88069760D01*
X160479505Y-88152455D01*
X160479503Y-88152459D01*
X160465000Y-88225371D01*
X159498650Y-88225371D01*
X159499104Y-85713312D01*
X163688600Y-85713312D01*
X163688600Y-85886687D01*
X163715720Y-86057913D01*
X163769290Y-86222788D01*
X163769291Y-86222791D01*
X163847760Y-86376793D01*
X163847998Y-86377260D01*
X163949899Y-86517514D01*
X164072486Y-86640101D01*
X164212740Y-86742002D01*
X164288502Y-86780604D01*
X164367208Y-86820708D01*
X164367211Y-86820709D01*
X164449648Y-86847494D01*
X164532088Y-86874280D01*
X164611391Y-86886840D01*
X164703313Y-86901400D01*
X164703318Y-86901400D01*
X164876687Y-86901400D01*
X164959695Y-86888252D01*
X165047912Y-86874280D01*
X165212791Y-86820708D01*
X165367260Y-86742002D01*
X165507514Y-86640101D01*
X165630101Y-86517514D01*
X165732002Y-86377260D01*
X165810708Y-86222791D01*
X165864280Y-86057912D01*
X165878252Y-85969695D01*
X165891400Y-85886687D01*
X165891400Y-85713315D01*
X165887160Y-85686548D01*
X165887160Y-85686546D01*
X165884729Y-85671199D01*
X168325000Y-85671199D01*
X168325000Y-85928800D01*
X168341999Y-86057912D01*
X168358622Y-86184175D01*
X168368968Y-86222788D01*
X168425289Y-86432982D01*
X168523859Y-86670952D01*
X168523867Y-86670969D01*
X168652652Y-86894030D01*
X168652663Y-86894046D01*
X168809463Y-87098392D01*
X168809469Y-87098399D01*
X168991600Y-87280530D01*
X168991606Y-87280535D01*
X169195962Y-87437343D01*
X169195969Y-87437347D01*
X169419030Y-87566132D01*
X169419035Y-87566134D01*
X169419038Y-87566136D01*
X169419042Y-87566137D01*
X169419047Y-87566140D01*
X169513386Y-87605216D01*
X169657016Y-87664710D01*
X169905825Y-87731378D01*
X170161207Y-87765000D01*
X170161214Y-87765000D01*
X170418786Y-87765000D01*
X170418793Y-87765000D01*
X170674175Y-87731378D01*
X170922984Y-87664710D01*
X171160962Y-87566136D01*
X171384038Y-87437343D01*
X171588394Y-87280535D01*
X171770535Y-87098394D01*
X171927343Y-86894038D01*
X172056136Y-86670962D01*
X172154710Y-86432984D01*
X172221378Y-86184175D01*
X172255000Y-85928793D01*
X172255000Y-85713312D01*
X174688600Y-85713312D01*
X174688600Y-85886687D01*
X174715720Y-86057913D01*
X174769290Y-86222788D01*
X174769291Y-86222791D01*
X174847760Y-86376793D01*
X174847998Y-86377260D01*
X174949899Y-86517514D01*
X175072486Y-86640101D01*
X175212740Y-86742002D01*
X175288502Y-86780604D01*
X175367208Y-86820708D01*
X175367211Y-86820709D01*
X175449648Y-86847494D01*
X175532088Y-86874280D01*
X175611391Y-86886840D01*
X175703313Y-86901400D01*
X175703318Y-86901400D01*
X175876687Y-86901400D01*
X175959695Y-86888252D01*
X176047912Y-86874280D01*
X176212791Y-86820708D01*
X176367260Y-86742002D01*
X176507514Y-86640101D01*
X176630101Y-86517514D01*
X176732002Y-86377260D01*
X176810708Y-86222791D01*
X176864280Y-86057912D01*
X176878252Y-85969695D01*
X176891400Y-85886687D01*
X176891400Y-85713312D01*
X176872017Y-85590939D01*
X176864280Y-85542088D01*
X176810708Y-85377209D01*
X176810708Y-85377208D01*
X176732001Y-85222739D01*
X176630101Y-85082486D01*
X176507514Y-84959899D01*
X176367260Y-84857998D01*
X176212791Y-84779291D01*
X176212788Y-84779290D01*
X176047913Y-84725720D01*
X175876687Y-84698600D01*
X175876682Y-84698600D01*
X175703318Y-84698600D01*
X175703313Y-84698600D01*
X175532086Y-84725720D01*
X175367211Y-84779290D01*
X175367208Y-84779291D01*
X175212739Y-84857998D01*
X175173794Y-84886294D01*
X175072486Y-84959899D01*
X175072484Y-84959901D01*
X175072483Y-84959901D01*
X174949901Y-85082483D01*
X174949901Y-85082484D01*
X174949899Y-85082486D01*
X174906136Y-85142719D01*
X174847998Y-85222739D01*
X174769291Y-85377208D01*
X174769290Y-85377211D01*
X174715720Y-85542086D01*
X174688600Y-85713312D01*
X172255000Y-85713312D01*
X172255000Y-85671207D01*
X172221378Y-85415825D01*
X172154710Y-85167016D01*
X172056136Y-84929038D01*
X172056134Y-84929035D01*
X172056132Y-84929030D01*
X171927347Y-84705969D01*
X171927343Y-84705962D01*
X171770535Y-84501606D01*
X171770530Y-84501600D01*
X171588399Y-84319469D01*
X171588392Y-84319463D01*
X171384046Y-84162663D01*
X171384044Y-84162661D01*
X171384038Y-84162657D01*
X171384033Y-84162654D01*
X171384030Y-84162652D01*
X171160969Y-84033867D01*
X171160952Y-84033859D01*
X170922982Y-83935289D01*
X170695272Y-83874275D01*
X170674175Y-83868622D01*
X170642252Y-83864419D01*
X170418800Y-83835000D01*
X170418793Y-83835000D01*
X170161207Y-83835000D01*
X170161199Y-83835000D01*
X169905825Y-83868622D01*
X169657017Y-83935289D01*
X169419047Y-84033859D01*
X169419030Y-84033867D01*
X169195969Y-84162652D01*
X169195953Y-84162663D01*
X168991607Y-84319463D01*
X168991600Y-84319469D01*
X168809469Y-84501600D01*
X168809463Y-84501607D01*
X168652663Y-84705953D01*
X168652652Y-84705969D01*
X168523867Y-84929030D01*
X168523859Y-84929047D01*
X168425289Y-85167017D01*
X168358622Y-85415825D01*
X168325000Y-85671199D01*
X165884729Y-85671199D01*
X165877333Y-85624500D01*
X165864280Y-85542088D01*
X165810708Y-85377209D01*
X165810708Y-85377208D01*
X165732001Y-85222739D01*
X165630101Y-85082486D01*
X165507514Y-84959899D01*
X165367260Y-84857998D01*
X165212791Y-84779291D01*
X165212788Y-84779290D01*
X165047913Y-84725720D01*
X164876687Y-84698600D01*
X164876682Y-84698600D01*
X164703318Y-84698600D01*
X164703313Y-84698600D01*
X164532086Y-84725720D01*
X164367211Y-84779290D01*
X164367208Y-84779291D01*
X164212739Y-84857998D01*
X164173794Y-84886294D01*
X164072486Y-84959899D01*
X164072484Y-84959901D01*
X164072483Y-84959901D01*
X163949901Y-85082483D01*
X163949901Y-85082484D01*
X163949899Y-85082486D01*
X163906136Y-85142719D01*
X163847998Y-85222739D01*
X163769291Y-85377208D01*
X163769290Y-85377211D01*
X163715720Y-85542086D01*
X163688600Y-85713312D01*
X159499104Y-85713312D01*
X159499580Y-83074628D01*
X181045000Y-83074628D01*
X181059503Y-83147540D01*
X181059505Y-83147544D01*
X181114760Y-83230239D01*
X181197455Y-83285494D01*
X181197459Y-83285496D01*
X181270371Y-83299999D01*
X181270374Y-83300000D01*
X182095000Y-83300000D01*
X182095000Y-82250000D01*
X181045000Y-82250000D01*
X181045000Y-83074628D01*
X159499580Y-83074628D01*
X159500058Y-80425371D01*
X181045000Y-80425371D01*
X181045000Y-81250000D01*
X182095000Y-81250000D01*
X182095000Y-80200000D01*
X183095000Y-80200000D01*
X183095000Y-83300000D01*
X183919626Y-83300000D01*
X183919628Y-83299999D01*
X183992540Y-83285496D01*
X183992544Y-83285494D01*
X184075239Y-83230239D01*
X184130494Y-83147544D01*
X184130496Y-83147540D01*
X184144999Y-83074628D01*
X184145000Y-83074626D01*
X184145000Y-82725985D01*
X184164685Y-82658946D01*
X184217489Y-82613191D01*
X184286647Y-82603247D01*
X184350203Y-82632272D01*
X184376387Y-82663986D01*
X184411390Y-82724614D01*
X184551081Y-82906661D01*
X184551089Y-82906670D01*
X184713330Y-83068911D01*
X184713338Y-83068918D01*
X184713339Y-83068919D01*
X184720779Y-83074628D01*
X184895382Y-83208607D01*
X184895385Y-83208608D01*
X184895388Y-83208611D01*
X185094112Y-83323344D01*
X185094117Y-83323346D01*
X185094123Y-83323349D01*
X185185480Y-83361190D01*
X185306113Y-83411158D01*
X185527762Y-83470548D01*
X185755266Y-83500500D01*
X185755273Y-83500500D01*
X185984727Y-83500500D01*
X185984734Y-83500500D01*
X186212238Y-83470548D01*
X186433887Y-83411158D01*
X186645888Y-83323344D01*
X186844612Y-83208611D01*
X187026661Y-83068919D01*
X187026665Y-83068914D01*
X187026670Y-83068911D01*
X187188911Y-82906670D01*
X187188914Y-82906665D01*
X187188919Y-82906661D01*
X187328611Y-82724612D01*
X187443344Y-82525888D01*
X187531158Y-82313887D01*
X187590548Y-82092238D01*
X187620500Y-81864734D01*
X187620500Y-81635266D01*
X187590548Y-81407762D01*
X187531158Y-81186113D01*
X187443344Y-80974112D01*
X187328611Y-80775388D01*
X187328608Y-80775385D01*
X187328607Y-80775382D01*
X187188918Y-80593338D01*
X187188911Y-80593330D01*
X187026670Y-80431089D01*
X187026661Y-80431081D01*
X187019220Y-80425371D01*
X201720000Y-80425371D01*
X201720000Y-81250000D01*
X202770000Y-81250000D01*
X202770000Y-80200000D01*
X203770000Y-80200000D01*
X203770000Y-83300000D01*
X204594626Y-83300000D01*
X204594628Y-83299999D01*
X204667540Y-83285496D01*
X204667544Y-83285494D01*
X204750239Y-83230239D01*
X204805494Y-83147544D01*
X204805496Y-83147540D01*
X204819999Y-83074628D01*
X204820000Y-83074626D01*
X204820000Y-82725985D01*
X204839685Y-82658946D01*
X204892489Y-82613191D01*
X204961647Y-82603247D01*
X205025203Y-82632272D01*
X205051387Y-82663986D01*
X205086390Y-82724614D01*
X205226081Y-82906661D01*
X205226089Y-82906670D01*
X205388330Y-83068911D01*
X205388338Y-83068918D01*
X205388339Y-83068919D01*
X205395779Y-83074628D01*
X205570382Y-83208607D01*
X205570385Y-83208608D01*
X205570388Y-83208611D01*
X205769112Y-83323344D01*
X205769117Y-83323346D01*
X205769123Y-83323349D01*
X205860480Y-83361190D01*
X205981113Y-83411158D01*
X206202762Y-83470548D01*
X206430266Y-83500500D01*
X206430273Y-83500500D01*
X206659727Y-83500500D01*
X206659734Y-83500500D01*
X206887238Y-83470548D01*
X207108887Y-83411158D01*
X207320888Y-83323344D01*
X207519612Y-83208611D01*
X207701661Y-83068919D01*
X207701665Y-83068914D01*
X207701670Y-83068911D01*
X207863911Y-82906670D01*
X207863914Y-82906665D01*
X207863919Y-82906661D01*
X208003611Y-82724612D01*
X208118344Y-82525888D01*
X208206158Y-82313887D01*
X208265548Y-82092238D01*
X208295500Y-81864734D01*
X208295500Y-81635266D01*
X208265548Y-81407762D01*
X208206158Y-81186113D01*
X208118344Y-80974112D01*
X208003611Y-80775388D01*
X208003608Y-80775385D01*
X208003607Y-80775382D01*
X207863918Y-80593338D01*
X207863911Y-80593330D01*
X207701670Y-80431089D01*
X207701661Y-80431081D01*
X207519617Y-80291392D01*
X207320890Y-80176657D01*
X207320876Y-80176650D01*
X207108887Y-80088842D01*
X206887238Y-80029452D01*
X206849215Y-80024446D01*
X206659741Y-79999500D01*
X206659734Y-79999500D01*
X206430266Y-79999500D01*
X206430258Y-79999500D01*
X206213715Y-80028009D01*
X206202762Y-80029452D01*
X206109076Y-80054554D01*
X205981112Y-80088842D01*
X205769123Y-80176650D01*
X205769109Y-80176657D01*
X205570382Y-80291392D01*
X205388338Y-80431081D01*
X205226081Y-80593338D01*
X205086392Y-80775382D01*
X205051387Y-80836014D01*
X205000820Y-80884230D01*
X204932213Y-80897452D01*
X204867348Y-80871484D01*
X204826820Y-80814570D01*
X204820000Y-80774014D01*
X204820000Y-80425373D01*
X204819999Y-80425371D01*
X204805496Y-80352459D01*
X204805494Y-80352455D01*
X204750239Y-80269760D01*
X204667544Y-80214505D01*
X204667540Y-80214503D01*
X204594627Y-80200000D01*
X203770000Y-80200000D01*
X202770000Y-80200000D01*
X201945373Y-80200000D01*
X201872459Y-80214503D01*
X201872455Y-80214505D01*
X201789760Y-80269760D01*
X201734505Y-80352455D01*
X201734503Y-80352459D01*
X201720000Y-80425371D01*
X187019220Y-80425371D01*
X186844617Y-80291392D01*
X186645890Y-80176657D01*
X186645876Y-80176650D01*
X186433887Y-80088842D01*
X186212238Y-80029452D01*
X186174215Y-80024446D01*
X185984741Y-79999500D01*
X185984734Y-79999500D01*
X185755266Y-79999500D01*
X185755258Y-79999500D01*
X185538715Y-80028009D01*
X185527762Y-80029452D01*
X185434076Y-80054554D01*
X185306112Y-80088842D01*
X185094123Y-80176650D01*
X185094109Y-80176657D01*
X184895382Y-80291392D01*
X184713338Y-80431081D01*
X184551081Y-80593338D01*
X184411392Y-80775382D01*
X184376387Y-80836014D01*
X184325820Y-80884230D01*
X184257213Y-80897452D01*
X184192348Y-80871484D01*
X184151820Y-80814570D01*
X184145000Y-80774014D01*
X184145000Y-80425373D01*
X184144999Y-80425371D01*
X184130496Y-80352459D01*
X184130494Y-80352455D01*
X184075239Y-80269760D01*
X183992544Y-80214505D01*
X183992540Y-80214503D01*
X183919627Y-80200000D01*
X183095000Y-80200000D01*
X182095000Y-80200000D01*
X181270373Y-80200000D01*
X181197459Y-80214503D01*
X181197455Y-80214505D01*
X181114760Y-80269760D01*
X181059505Y-80352455D01*
X181059503Y-80352459D01*
X181045000Y-80425371D01*
X159500058Y-80425371D01*
X159500488Y-78045935D01*
X159500500Y-78045892D01*
X159500500Y-77986935D01*
X159500501Y-77986928D01*
X159501280Y-77973077D01*
X159508014Y-77913312D01*
X184268600Y-77913312D01*
X184268600Y-78086687D01*
X184295720Y-78257913D01*
X184349290Y-78422788D01*
X184349291Y-78422791D01*
X184427998Y-78577260D01*
X184529899Y-78717514D01*
X184652486Y-78840101D01*
X184792740Y-78942002D01*
X184868502Y-78980604D01*
X184947208Y-79020708D01*
X184947211Y-79020709D01*
X185029648Y-79047494D01*
X185112088Y-79074280D01*
X185191391Y-79086840D01*
X185283313Y-79101400D01*
X185283318Y-79101400D01*
X185456687Y-79101400D01*
X185539695Y-79088252D01*
X185627912Y-79074280D01*
X185792791Y-79020708D01*
X185947260Y-78942002D01*
X186087514Y-78840101D01*
X186210101Y-78717514D01*
X186312002Y-78577260D01*
X186390708Y-78422791D01*
X186444280Y-78257912D01*
X186458252Y-78169695D01*
X186471400Y-78086687D01*
X186471400Y-77913315D01*
X186467160Y-77886548D01*
X186467160Y-77886546D01*
X186464729Y-77871199D01*
X188905000Y-77871199D01*
X188905000Y-78128800D01*
X188938622Y-78384174D01*
X189005289Y-78632982D01*
X189103859Y-78870952D01*
X189103867Y-78870969D01*
X189232652Y-79094030D01*
X189232663Y-79094046D01*
X189389463Y-79298392D01*
X189389469Y-79298399D01*
X189571600Y-79480530D01*
X189571606Y-79480535D01*
X189775962Y-79637343D01*
X189775969Y-79637347D01*
X189999030Y-79766132D01*
X189999035Y-79766134D01*
X189999038Y-79766136D01*
X189999042Y-79766137D01*
X189999047Y-79766140D01*
X190093386Y-79805216D01*
X190237016Y-79864710D01*
X190485825Y-79931378D01*
X190741207Y-79965000D01*
X190741214Y-79965000D01*
X190998786Y-79965000D01*
X190998793Y-79965000D01*
X191254175Y-79931378D01*
X191502984Y-79864710D01*
X191740962Y-79766136D01*
X191964038Y-79637343D01*
X192168394Y-79480535D01*
X192350535Y-79298394D01*
X192507343Y-79094038D01*
X192636136Y-78870962D01*
X192734710Y-78632984D01*
X192801378Y-78384175D01*
X192835000Y-78128793D01*
X192835000Y-77913312D01*
X195268600Y-77913312D01*
X195268600Y-78086687D01*
X195295720Y-78257913D01*
X195349290Y-78422788D01*
X195349291Y-78422791D01*
X195427998Y-78577260D01*
X195529899Y-78717514D01*
X195652486Y-78840101D01*
X195792740Y-78942002D01*
X195868502Y-78980604D01*
X195947208Y-79020708D01*
X195947211Y-79020709D01*
X196029648Y-79047494D01*
X196112088Y-79074280D01*
X196191391Y-79086840D01*
X196283313Y-79101400D01*
X196283318Y-79101400D01*
X196456687Y-79101400D01*
X196539695Y-79088252D01*
X196627912Y-79074280D01*
X196792791Y-79020708D01*
X196947260Y-78942002D01*
X197087514Y-78840101D01*
X197210101Y-78717514D01*
X197312002Y-78577260D01*
X197390708Y-78422791D01*
X197444280Y-78257912D01*
X197458252Y-78169695D01*
X197471400Y-78086687D01*
X197471400Y-77913312D01*
X204943600Y-77913312D01*
X204943600Y-78086687D01*
X204970720Y-78257913D01*
X205024290Y-78422788D01*
X205024291Y-78422791D01*
X205102998Y-78577260D01*
X205204899Y-78717514D01*
X205327486Y-78840101D01*
X205467740Y-78942002D01*
X205543502Y-78980604D01*
X205622208Y-79020708D01*
X205622211Y-79020709D01*
X205704648Y-79047494D01*
X205787088Y-79074280D01*
X205866391Y-79086840D01*
X205958313Y-79101400D01*
X205958318Y-79101400D01*
X206131687Y-79101400D01*
X206214695Y-79088252D01*
X206302912Y-79074280D01*
X206467791Y-79020708D01*
X206622260Y-78942002D01*
X206762514Y-78840101D01*
X206885101Y-78717514D01*
X206987002Y-78577260D01*
X207065708Y-78422791D01*
X207119280Y-78257912D01*
X207133252Y-78169695D01*
X207146400Y-78086687D01*
X207146400Y-77913315D01*
X207142160Y-77886548D01*
X207142160Y-77886546D01*
X207139729Y-77871199D01*
X209580000Y-77871199D01*
X209580000Y-78128800D01*
X209613622Y-78384174D01*
X209680289Y-78632982D01*
X209778859Y-78870952D01*
X209778867Y-78870969D01*
X209907652Y-79094030D01*
X209907663Y-79094046D01*
X210064463Y-79298392D01*
X210064469Y-79298399D01*
X210246600Y-79480530D01*
X210246606Y-79480535D01*
X210450962Y-79637343D01*
X210450969Y-79637347D01*
X210674030Y-79766132D01*
X210674035Y-79766134D01*
X210674038Y-79766136D01*
X210674042Y-79766137D01*
X210674047Y-79766140D01*
X210768386Y-79805216D01*
X210912016Y-79864710D01*
X211160825Y-79931378D01*
X211416207Y-79965000D01*
X211416214Y-79965000D01*
X211673786Y-79965000D01*
X211673793Y-79965000D01*
X211929175Y-79931378D01*
X212177984Y-79864710D01*
X212415962Y-79766136D01*
X212639038Y-79637343D01*
X212843394Y-79480535D01*
X213025535Y-79298394D01*
X213182343Y-79094038D01*
X213311136Y-78870962D01*
X213409710Y-78632984D01*
X213476378Y-78384175D01*
X213510000Y-78128793D01*
X213510000Y-77913312D01*
X215943600Y-77913312D01*
X215943600Y-78086687D01*
X215970720Y-78257913D01*
X216024290Y-78422788D01*
X216024291Y-78422791D01*
X216102998Y-78577260D01*
X216204899Y-78717514D01*
X216327486Y-78840101D01*
X216467740Y-78942002D01*
X216543502Y-78980604D01*
X216622208Y-79020708D01*
X216622211Y-79020709D01*
X216704648Y-79047494D01*
X216787088Y-79074280D01*
X216866391Y-79086840D01*
X216958313Y-79101400D01*
X216958318Y-79101400D01*
X217131687Y-79101400D01*
X217214695Y-79088252D01*
X217302912Y-79074280D01*
X217467791Y-79020708D01*
X217622260Y-78942002D01*
X217762514Y-78840101D01*
X217885101Y-78717514D01*
X217987002Y-78577260D01*
X218065708Y-78422791D01*
X218119280Y-78257912D01*
X218133252Y-78169695D01*
X218146400Y-78086687D01*
X218146400Y-77913312D01*
X218124724Y-77776462D01*
X218119280Y-77742088D01*
X218072904Y-77599355D01*
X218065709Y-77577211D01*
X218065708Y-77577208D01*
X218006442Y-77460893D01*
X217987002Y-77422740D01*
X217885101Y-77282486D01*
X217762514Y-77159899D01*
X217622260Y-77057998D01*
X217467791Y-76979291D01*
X217467788Y-76979290D01*
X217302913Y-76925720D01*
X217131687Y-76898600D01*
X217131682Y-76898600D01*
X216958318Y-76898600D01*
X216958313Y-76898600D01*
X216787086Y-76925720D01*
X216622211Y-76979290D01*
X216622208Y-76979291D01*
X216467739Y-77057998D01*
X216457286Y-77065593D01*
X216327486Y-77159899D01*
X216327484Y-77159901D01*
X216327483Y-77159901D01*
X216204901Y-77282483D01*
X216204901Y-77282484D01*
X216204899Y-77282486D01*
X216204368Y-77283217D01*
X216102998Y-77422739D01*
X216024291Y-77577208D01*
X216024290Y-77577211D01*
X215970720Y-77742086D01*
X215943600Y-77913312D01*
X213510000Y-77913312D01*
X213510000Y-77871207D01*
X213476378Y-77615825D01*
X213409710Y-77367016D01*
X213311136Y-77129038D01*
X213311134Y-77129035D01*
X213311132Y-77129030D01*
X213182347Y-76905969D01*
X213182343Y-76905962D01*
X213025535Y-76701606D01*
X213025530Y-76701600D01*
X212843399Y-76519469D01*
X212843392Y-76519463D01*
X212639046Y-76362663D01*
X212639044Y-76362661D01*
X212639038Y-76362657D01*
X212639033Y-76362654D01*
X212639030Y-76362652D01*
X212415969Y-76233867D01*
X212415952Y-76233859D01*
X212177982Y-76135289D01*
X212020243Y-76093023D01*
X211929175Y-76068622D01*
X211897252Y-76064419D01*
X211673800Y-76035000D01*
X211673793Y-76035000D01*
X211416207Y-76035000D01*
X211416199Y-76035000D01*
X211160825Y-76068622D01*
X210912017Y-76135289D01*
X210674047Y-76233859D01*
X210674030Y-76233867D01*
X210450969Y-76362652D01*
X210450953Y-76362663D01*
X210246607Y-76519463D01*
X210246600Y-76519469D01*
X210064469Y-76701600D01*
X210064463Y-76701607D01*
X209907663Y-76905953D01*
X209907652Y-76905969D01*
X209778867Y-77129030D01*
X209778859Y-77129047D01*
X209680289Y-77367017D01*
X209613622Y-77615825D01*
X209580000Y-77871199D01*
X207139729Y-77871199D01*
X207124724Y-77776462D01*
X207119280Y-77742088D01*
X207072904Y-77599355D01*
X207065709Y-77577211D01*
X207065708Y-77577208D01*
X207006442Y-77460893D01*
X206987002Y-77422740D01*
X206885101Y-77282486D01*
X206762514Y-77159899D01*
X206622260Y-77057998D01*
X206467791Y-76979291D01*
X206467788Y-76979290D01*
X206302913Y-76925720D01*
X206131687Y-76898600D01*
X206131682Y-76898600D01*
X205958318Y-76898600D01*
X205958313Y-76898600D01*
X205787086Y-76925720D01*
X205622211Y-76979290D01*
X205622208Y-76979291D01*
X205467739Y-77057998D01*
X205457286Y-77065593D01*
X205327486Y-77159899D01*
X205327484Y-77159901D01*
X205327483Y-77159901D01*
X205204901Y-77282483D01*
X205204901Y-77282484D01*
X205204899Y-77282486D01*
X205204368Y-77283217D01*
X205102998Y-77422739D01*
X205024291Y-77577208D01*
X205024290Y-77577211D01*
X204970720Y-77742086D01*
X204943600Y-77913312D01*
X197471400Y-77913312D01*
X197449724Y-77776462D01*
X197444280Y-77742088D01*
X197397904Y-77599355D01*
X197390709Y-77577211D01*
X197390708Y-77577208D01*
X197331442Y-77460893D01*
X197312002Y-77422740D01*
X197210101Y-77282486D01*
X197087514Y-77159899D01*
X196947260Y-77057998D01*
X196792791Y-76979291D01*
X196792788Y-76979290D01*
X196627913Y-76925720D01*
X196456687Y-76898600D01*
X196456682Y-76898600D01*
X196283318Y-76898600D01*
X196283313Y-76898600D01*
X196112086Y-76925720D01*
X195947211Y-76979290D01*
X195947208Y-76979291D01*
X195792739Y-77057998D01*
X195782286Y-77065593D01*
X195652486Y-77159899D01*
X195652484Y-77159901D01*
X195652483Y-77159901D01*
X195529901Y-77282483D01*
X195529901Y-77282484D01*
X195529899Y-77282486D01*
X195529368Y-77283217D01*
X195427998Y-77422739D01*
X195349291Y-77577208D01*
X195349290Y-77577211D01*
X195295720Y-77742086D01*
X195268600Y-77913312D01*
X192835000Y-77913312D01*
X192835000Y-77871207D01*
X192801378Y-77615825D01*
X192734710Y-77367016D01*
X192636136Y-77129038D01*
X192636134Y-77129035D01*
X192636132Y-77129030D01*
X192507347Y-76905969D01*
X192507343Y-76905962D01*
X192350535Y-76701606D01*
X192350530Y-76701600D01*
X192168399Y-76519469D01*
X192168392Y-76519463D01*
X191964046Y-76362663D01*
X191964044Y-76362661D01*
X191964038Y-76362657D01*
X191964033Y-76362654D01*
X191964030Y-76362652D01*
X191740969Y-76233867D01*
X191740952Y-76233859D01*
X191502982Y-76135289D01*
X191345243Y-76093023D01*
X191254175Y-76068622D01*
X191222252Y-76064419D01*
X190998800Y-76035000D01*
X190998793Y-76035000D01*
X190741207Y-76035000D01*
X190741199Y-76035000D01*
X190485825Y-76068622D01*
X190237017Y-76135289D01*
X189999047Y-76233859D01*
X189999030Y-76233867D01*
X189775969Y-76362652D01*
X189775953Y-76362663D01*
X189571607Y-76519463D01*
X189571600Y-76519469D01*
X189389469Y-76701600D01*
X189389463Y-76701607D01*
X189232663Y-76905953D01*
X189232652Y-76905969D01*
X189103867Y-77129030D01*
X189103859Y-77129047D01*
X189005289Y-77367017D01*
X188938622Y-77615825D01*
X188905000Y-77871199D01*
X186464729Y-77871199D01*
X186449724Y-77776462D01*
X186444280Y-77742088D01*
X186397904Y-77599355D01*
X186390709Y-77577211D01*
X186390708Y-77577208D01*
X186331442Y-77460893D01*
X186312002Y-77422740D01*
X186210101Y-77282486D01*
X186087514Y-77159899D01*
X185947260Y-77057998D01*
X185792791Y-76979291D01*
X185792788Y-76979290D01*
X185627913Y-76925720D01*
X185456687Y-76898600D01*
X185456682Y-76898600D01*
X185283318Y-76898600D01*
X185283313Y-76898600D01*
X185112086Y-76925720D01*
X184947211Y-76979290D01*
X184947208Y-76979291D01*
X184792739Y-77057998D01*
X184782286Y-77065593D01*
X184652486Y-77159899D01*
X184652484Y-77159901D01*
X184652483Y-77159901D01*
X184529901Y-77282483D01*
X184529901Y-77282484D01*
X184529899Y-77282486D01*
X184529368Y-77283217D01*
X184427998Y-77422739D01*
X184349291Y-77577208D01*
X184349290Y-77577211D01*
X184295720Y-77742086D01*
X184268600Y-77913312D01*
X159508014Y-77913312D01*
X159510127Y-77894562D01*
X159510200Y-77893908D01*
X159511459Y-77882733D01*
X159517635Y-77855670D01*
X159545353Y-77776456D01*
X159557396Y-77751450D01*
X159602046Y-77680389D01*
X159619351Y-77658690D01*
X159678690Y-77599351D01*
X159700389Y-77582046D01*
X159771450Y-77537396D01*
X159796456Y-77525353D01*
X159875670Y-77497635D01*
X159902730Y-77491459D01*
X159992919Y-77481297D01*
X160007085Y-77480518D01*
X180986379Y-77533227D01*
X180986997Y-77533393D01*
X181052257Y-77533393D01*
X181117534Y-77533557D01*
X181117538Y-77533555D01*
X181124030Y-77533572D01*
X181126806Y-77533393D01*
X181160208Y-77533394D01*
X181372660Y-77502849D01*
X181516785Y-77460531D01*
X181578594Y-77442383D01*
X181578596Y-77442381D01*
X181578603Y-77442380D01*
X181685570Y-77393529D01*
X181773831Y-77353223D01*
X181773835Y-77353220D01*
X181773843Y-77353217D01*
X181954407Y-77237176D01*
X182116619Y-77096619D01*
X182122324Y-77090034D01*
X182200000Y-77090000D01*
X182199754Y-77000675D01*
X182257176Y-76934407D01*
X182373217Y-76753843D01*
X182373220Y-76753835D01*
X182373223Y-76753831D01*
X182416220Y-76659679D01*
X182462380Y-76558603D01*
X182470077Y-76532391D01*
X182505153Y-76412928D01*
X182522849Y-76352660D01*
X182553394Y-76140208D01*
X182553393Y-76098540D01*
X182553455Y-76098311D01*
X182553393Y-76032885D01*
X182553393Y-75966997D01*
X182553393Y-75959483D01*
X182553322Y-75958413D01*
X182547670Y-69993966D01*
X182547613Y-69934110D01*
X182548392Y-69920132D01*
X182558565Y-69829836D01*
X182564741Y-69802774D01*
X182592459Y-69723560D01*
X182604502Y-69698553D01*
X182649151Y-69627495D01*
X182666457Y-69605794D01*
X182725794Y-69546457D01*
X182747495Y-69529151D01*
X182818553Y-69484502D01*
X182843560Y-69472459D01*
X182922774Y-69444741D01*
X182949835Y-69438566D01*
X183040087Y-69428397D01*
X183054149Y-69427618D01*
X218952695Y-69487489D01*
G37*
%TD.AperFunction*%
%TD*%
M02*
