%TF.GenerationSoftware,KiCad,Pcbnew,9.0.0*%
%TF.CreationDate,2025-05-22T09:46:44-07:00*%
%TF.ProjectId,cinco-cinco,63696e63-6f2d-4636-996e-636f2e6b6963,rev?*%
%TF.SameCoordinates,Original*%
%TF.FileFunction,Legend,Bot*%
%TF.FilePolarity,Positive*%
%FSLAX46Y46*%
G04 Gerber Fmt 4.6, Leading zero omitted, Abs format (unit mm)*
G04 Created by KiCad (PCBNEW 9.0.0) date 2025-05-22 09:46:44*
%MOMM*%
%LPD*%
G01*
G04 APERTURE LIST*
%ADD10C,0.100000*%
%ADD11C,0.150000*%
%ADD12C,0.120000*%
G04 APERTURE END LIST*
D10*
G36*
X237786522Y-97296638D02*
G01*
X237795223Y-97434330D01*
X237809929Y-97483391D01*
X237833691Y-97516304D01*
X237867704Y-97539094D01*
X237915970Y-97554619D01*
X238055799Y-97565000D01*
X238800740Y-97565000D01*
X238938890Y-97556298D01*
X238988113Y-97541473D01*
X239021169Y-97517677D01*
X239044078Y-97483651D01*
X239059637Y-97435398D01*
X239070170Y-97295111D01*
X239070170Y-96190828D01*
X239061469Y-96045351D01*
X239046714Y-95995705D01*
X239022848Y-95961240D01*
X238988646Y-95937314D01*
X238940722Y-95922772D01*
X238800740Y-95913918D01*
X238055799Y-95913918D01*
X237914139Y-95922772D01*
X237864944Y-95937485D01*
X237832012Y-95961240D01*
X237809488Y-95995571D01*
X237795223Y-96045504D01*
X237786522Y-96190981D01*
X237786522Y-96268070D01*
X237795261Y-96361914D01*
X237816289Y-96415532D01*
X237854741Y-96448688D01*
X237919329Y-96461022D01*
X237972624Y-96451537D01*
X238006951Y-96425759D01*
X238028105Y-96383025D01*
X238041755Y-96305622D01*
X238055799Y-96231434D01*
X238082056Y-96189149D01*
X238134568Y-96171441D01*
X238223716Y-96167930D01*
X238629465Y-96167930D01*
X238725635Y-96174952D01*
X238781506Y-96201361D01*
X238807762Y-96255858D01*
X238814784Y-96350807D01*
X238814784Y-96456290D01*
X238808259Y-96533067D01*
X238793871Y-96568947D01*
X238764506Y-96592694D01*
X238699379Y-96618101D01*
X238635474Y-96642662D01*
X238605040Y-96672597D01*
X238590574Y-96718416D01*
X238583975Y-96815021D01*
X238583975Y-97124599D01*
X238578784Y-97224891D01*
X238569094Y-97258288D01*
X238552528Y-97281067D01*
X238494826Y-97305797D01*
X238395144Y-97310987D01*
X238230738Y-97310987D01*
X238126152Y-97301703D01*
X238078545Y-97281372D01*
X238052975Y-97240423D01*
X238041755Y-97150550D01*
X238041755Y-97132995D01*
X238033147Y-97021074D01*
X238013820Y-96965536D01*
X237976737Y-96932560D01*
X237912459Y-96920198D01*
X237848227Y-96932260D01*
X237812778Y-96963857D01*
X237794745Y-97018072D01*
X237786522Y-97132842D01*
X237786522Y-97296638D01*
G37*
G36*
X237042802Y-95441461D02*
G01*
X237057519Y-95552407D01*
X237093483Y-95612431D01*
X237157631Y-95645674D01*
X237284145Y-95659905D01*
X237417322Y-95646932D01*
X237481676Y-95617621D01*
X237517534Y-95562436D01*
X237532356Y-95455505D01*
X237524993Y-95372523D01*
X237506001Y-95316289D01*
X237478165Y-95279344D01*
X237410066Y-95244794D01*
X237277123Y-95230038D01*
X237156441Y-95243195D01*
X237093483Y-95274154D01*
X237057668Y-95331142D01*
X237042802Y-95441461D01*
G37*
G36*
X237042802Y-97268244D02*
G01*
X237051503Y-97416622D01*
X237065318Y-97469958D01*
X237086461Y-97507450D01*
X237117037Y-97535037D01*
X237158207Y-97552787D01*
X237277123Y-97565000D01*
X237377745Y-97559199D01*
X237432827Y-97545765D01*
X237474208Y-97518379D01*
X237507932Y-97470813D01*
X237525487Y-97402731D01*
X237528998Y-97268244D01*
X237528998Y-96126867D01*
X237520390Y-96014946D01*
X237501063Y-95959408D01*
X237463841Y-95926308D01*
X237399549Y-95913918D01*
X237338327Y-95926151D01*
X237301700Y-95959408D01*
X237282264Y-96014959D01*
X237273612Y-96126867D01*
X237273612Y-96378132D01*
X237267153Y-96454591D01*
X237252698Y-96491705D01*
X237223082Y-96515914D01*
X237158207Y-96538722D01*
X237093996Y-96565545D01*
X237063868Y-96594592D01*
X237049454Y-96638605D01*
X237042802Y-96734269D01*
X237042802Y-97268244D01*
G37*
G36*
X235774571Y-95913918D02*
G01*
X235634742Y-95922772D01*
X235586686Y-95937322D01*
X235552463Y-95961240D01*
X235528632Y-95995707D01*
X235513995Y-96045351D01*
X235505293Y-96190828D01*
X235505293Y-97347623D01*
X235513847Y-97460358D01*
X235533229Y-97517677D01*
X235570542Y-97552194D01*
X235634742Y-97565000D01*
X235698672Y-97552542D01*
X235734424Y-97519509D01*
X235752455Y-97463930D01*
X235760527Y-97351440D01*
X235760527Y-96353555D01*
X235771071Y-96246693D01*
X235793805Y-96201209D01*
X235839272Y-96178471D01*
X235945999Y-96167930D01*
X236344726Y-96167930D01*
X236451452Y-96178471D01*
X236496919Y-96201209D01*
X236519544Y-96246674D01*
X236530045Y-96353555D01*
X236530045Y-96451557D01*
X236523583Y-96528152D01*
X236509132Y-96565283D01*
X236479498Y-96589639D01*
X236414640Y-96612605D01*
X236350426Y-96639551D01*
X236320301Y-96668628D01*
X236305894Y-96712695D01*
X236299235Y-96808763D01*
X236299235Y-97267329D01*
X236307937Y-97416317D01*
X236321758Y-97469786D01*
X236342894Y-97507297D01*
X236373466Y-97534919D01*
X236414640Y-97552787D01*
X236533556Y-97565000D01*
X236637268Y-97559159D01*
X236692772Y-97545765D01*
X236734136Y-97518210D01*
X236767876Y-97470355D01*
X236785431Y-97401967D01*
X236788942Y-97267023D01*
X236788942Y-96190828D01*
X236780241Y-96045351D01*
X236765485Y-95995705D01*
X236741620Y-95961240D01*
X236707418Y-95937314D01*
X236659494Y-95922772D01*
X236519512Y-95913918D01*
X235774571Y-95913918D01*
G37*
G36*
X233942139Y-97296638D02*
G01*
X233950840Y-97434330D01*
X233965547Y-97483391D01*
X233989309Y-97516304D01*
X234023321Y-97539094D01*
X234071588Y-97554619D01*
X234211417Y-97565000D01*
X234956358Y-97565000D01*
X235094508Y-97556298D01*
X235143730Y-97541473D01*
X235176787Y-97517677D01*
X235199696Y-97483651D01*
X235215255Y-97435398D01*
X235225788Y-97295111D01*
X235225788Y-96190828D01*
X235217087Y-96045351D01*
X235202331Y-95995705D01*
X235178466Y-95961240D01*
X235144263Y-95937314D01*
X235096339Y-95922772D01*
X234956358Y-95913918D01*
X234211417Y-95913918D01*
X234069756Y-95922772D01*
X234020562Y-95937485D01*
X233987629Y-95961240D01*
X233965106Y-95995571D01*
X233950840Y-96045504D01*
X233942139Y-96190981D01*
X233942139Y-96268070D01*
X233950878Y-96361914D01*
X233971906Y-96415532D01*
X234010359Y-96448688D01*
X234074946Y-96461022D01*
X234128241Y-96451537D01*
X234162568Y-96425759D01*
X234183723Y-96383025D01*
X234197373Y-96305622D01*
X234211417Y-96231434D01*
X234237673Y-96189149D01*
X234290185Y-96171441D01*
X234379334Y-96167930D01*
X234785082Y-96167930D01*
X234881253Y-96174952D01*
X234937124Y-96201361D01*
X234963380Y-96255858D01*
X234970402Y-96350807D01*
X234970402Y-96456290D01*
X234963877Y-96533067D01*
X234949488Y-96568947D01*
X234920123Y-96592694D01*
X234854997Y-96618101D01*
X234791092Y-96642662D01*
X234760658Y-96672597D01*
X234746191Y-96718416D01*
X234739592Y-96815021D01*
X234739592Y-97124599D01*
X234734402Y-97224891D01*
X234724712Y-97258288D01*
X234708146Y-97281067D01*
X234650443Y-97305797D01*
X234550762Y-97310987D01*
X234386356Y-97310987D01*
X234281770Y-97301703D01*
X234234162Y-97281372D01*
X234208592Y-97240423D01*
X234197373Y-97150550D01*
X234197373Y-97132995D01*
X234188765Y-97021074D01*
X234169438Y-96965536D01*
X234132355Y-96932560D01*
X234068077Y-96920198D01*
X234003844Y-96932260D01*
X233968395Y-96963857D01*
X233950362Y-97018072D01*
X233942139Y-97132842D01*
X233942139Y-97296638D01*
G37*
G36*
X233555167Y-95922772D02*
G01*
X233603091Y-95937314D01*
X233637294Y-95961240D01*
X233661159Y-95995705D01*
X233675915Y-96045351D01*
X233684616Y-96190828D01*
X233684616Y-97295111D01*
X233674083Y-97435398D01*
X233658524Y-97483651D01*
X233635614Y-97517677D01*
X233602558Y-97541473D01*
X233553335Y-97556298D01*
X233415185Y-97565000D01*
X232670245Y-97565000D01*
X232530416Y-97556298D01*
X232482676Y-97541548D01*
X232449968Y-97517677D01*
X232426975Y-97483634D01*
X232411500Y-97435398D01*
X232400967Y-97295111D01*
X232400967Y-96353708D01*
X232656201Y-96353708D01*
X232656201Y-97125210D01*
X232663223Y-97221533D01*
X232689479Y-97277709D01*
X232745502Y-97303965D01*
X232841673Y-97310987D01*
X233009590Y-97310987D01*
X233109271Y-97305797D01*
X233166974Y-97281220D01*
X233183539Y-97258441D01*
X233193230Y-97225044D01*
X233198420Y-97125210D01*
X233198420Y-96809526D01*
X233205078Y-96713458D01*
X233219486Y-96669392D01*
X233249630Y-96640194D01*
X233313825Y-96613216D01*
X233378682Y-96590250D01*
X233408316Y-96565894D01*
X233422765Y-96528745D01*
X233429229Y-96452015D01*
X233429229Y-96353708D01*
X233418726Y-96246692D01*
X233396104Y-96201209D01*
X233350637Y-96178471D01*
X233243910Y-96167930D01*
X232838162Y-96167930D01*
X232731736Y-96178546D01*
X232687800Y-96201209D01*
X232666266Y-96246508D01*
X232656201Y-96353708D01*
X232400967Y-96353708D01*
X232400967Y-96190828D01*
X232409668Y-96045351D01*
X232423927Y-95995551D01*
X232446457Y-95961240D01*
X232479390Y-95937485D01*
X232528584Y-95922772D01*
X232670245Y-95913918D01*
X233415185Y-95913918D01*
X233555167Y-95922772D01*
G37*
G36*
X230114854Y-97296638D02*
G01*
X230123555Y-97434330D01*
X230138261Y-97483391D01*
X230162023Y-97516304D01*
X230196036Y-97539094D01*
X230244303Y-97554619D01*
X230384132Y-97565000D01*
X231129072Y-97565000D01*
X231267222Y-97556298D01*
X231316445Y-97541473D01*
X231349501Y-97517677D01*
X231372411Y-97483651D01*
X231387970Y-97435398D01*
X231398503Y-97295111D01*
X231398503Y-96190828D01*
X231389801Y-96045351D01*
X231375046Y-95995705D01*
X231351181Y-95961240D01*
X231316978Y-95937314D01*
X231269054Y-95922772D01*
X231129072Y-95913918D01*
X230384132Y-95913918D01*
X230242471Y-95922772D01*
X230193277Y-95937485D01*
X230160344Y-95961240D01*
X230137821Y-95995571D01*
X230123555Y-96045504D01*
X230114854Y-96190981D01*
X230114854Y-96268070D01*
X230123593Y-96361914D01*
X230144621Y-96415532D01*
X230183073Y-96448688D01*
X230247661Y-96461022D01*
X230300956Y-96451537D01*
X230335283Y-96425759D01*
X230356438Y-96383025D01*
X230370088Y-96305622D01*
X230384132Y-96231434D01*
X230410388Y-96189149D01*
X230462900Y-96171441D01*
X230552049Y-96167930D01*
X230957797Y-96167930D01*
X231053968Y-96174952D01*
X231109838Y-96201361D01*
X231136094Y-96255858D01*
X231143116Y-96350807D01*
X231143116Y-96456290D01*
X231136591Y-96533067D01*
X231122203Y-96568947D01*
X231092838Y-96592694D01*
X231027711Y-96618101D01*
X230963806Y-96642662D01*
X230933373Y-96672597D01*
X230918906Y-96718416D01*
X230912307Y-96815021D01*
X230912307Y-97124599D01*
X230907117Y-97224891D01*
X230897426Y-97258288D01*
X230880860Y-97281067D01*
X230823158Y-97305797D01*
X230723476Y-97310987D01*
X230559071Y-97310987D01*
X230454485Y-97301703D01*
X230406877Y-97281372D01*
X230381307Y-97240423D01*
X230370088Y-97150550D01*
X230370088Y-97132995D01*
X230361479Y-97021074D01*
X230342152Y-96965536D01*
X230305069Y-96932560D01*
X230240792Y-96920198D01*
X230176559Y-96932260D01*
X230141110Y-96963857D01*
X230123077Y-97018072D01*
X230114854Y-97132842D01*
X230114854Y-97296638D01*
G37*
G36*
X229371134Y-95441461D02*
G01*
X229385851Y-95552407D01*
X229421815Y-95612431D01*
X229485963Y-95645674D01*
X229612477Y-95659905D01*
X229745654Y-95646932D01*
X229810008Y-95617621D01*
X229845866Y-95562436D01*
X229860689Y-95455505D01*
X229853326Y-95372523D01*
X229834334Y-95316289D01*
X229806497Y-95279344D01*
X229738398Y-95244794D01*
X229605455Y-95230038D01*
X229484774Y-95243195D01*
X229421815Y-95274154D01*
X229386000Y-95331142D01*
X229371134Y-95441461D01*
G37*
G36*
X229371134Y-97268244D02*
G01*
X229379836Y-97416622D01*
X229393650Y-97469958D01*
X229414793Y-97507450D01*
X229445369Y-97535037D01*
X229486539Y-97552787D01*
X229605455Y-97565000D01*
X229706078Y-97559199D01*
X229761160Y-97545765D01*
X229802540Y-97518379D01*
X229836264Y-97470813D01*
X229853819Y-97402731D01*
X229857330Y-97268244D01*
X229857330Y-96126867D01*
X229848722Y-96014946D01*
X229829395Y-95959408D01*
X229792173Y-95926308D01*
X229727882Y-95913918D01*
X229666659Y-95926151D01*
X229630032Y-95959408D01*
X229610597Y-96014959D01*
X229601944Y-96126867D01*
X229601944Y-96378132D01*
X229595485Y-96454591D01*
X229581031Y-96491705D01*
X229551414Y-96515914D01*
X229486539Y-96538722D01*
X229422328Y-96565545D01*
X229392200Y-96594592D01*
X229377787Y-96638605D01*
X229371134Y-96734269D01*
X229371134Y-97268244D01*
G37*
G36*
X228102903Y-95913918D02*
G01*
X227963074Y-95922772D01*
X227915018Y-95937322D01*
X227880795Y-95961240D01*
X227856964Y-95995707D01*
X227842327Y-96045351D01*
X227833626Y-96190828D01*
X227833626Y-97347623D01*
X227842179Y-97460358D01*
X227861561Y-97517677D01*
X227898875Y-97552194D01*
X227963074Y-97565000D01*
X228027004Y-97552542D01*
X228062756Y-97519509D01*
X228080787Y-97463930D01*
X228088859Y-97351440D01*
X228088859Y-96353555D01*
X228099403Y-96246693D01*
X228122137Y-96201209D01*
X228167605Y-96178471D01*
X228274331Y-96167930D01*
X228673058Y-96167930D01*
X228779784Y-96178471D01*
X228825252Y-96201209D01*
X228847877Y-96246674D01*
X228858377Y-96353555D01*
X228858377Y-96451557D01*
X228851915Y-96528152D01*
X228837464Y-96565283D01*
X228807830Y-96589639D01*
X228742972Y-96612605D01*
X228678758Y-96639551D01*
X228648633Y-96668628D01*
X228634226Y-96712695D01*
X228627568Y-96808763D01*
X228627568Y-97267329D01*
X228636269Y-97416317D01*
X228650090Y-97469786D01*
X228671226Y-97507297D01*
X228701798Y-97534919D01*
X228742972Y-97552787D01*
X228861888Y-97565000D01*
X228965600Y-97559159D01*
X229021104Y-97545765D01*
X229062468Y-97518210D01*
X229096209Y-97470355D01*
X229113763Y-97401967D01*
X229117274Y-97267023D01*
X229117274Y-96190828D01*
X229108573Y-96045351D01*
X229093818Y-95995705D01*
X229069952Y-95961240D01*
X229035750Y-95937314D01*
X228987826Y-95922772D01*
X228847844Y-95913918D01*
X228102903Y-95913918D01*
G37*
G36*
X226270471Y-97296638D02*
G01*
X226279173Y-97434330D01*
X226293879Y-97483391D01*
X226317641Y-97516304D01*
X226351654Y-97539094D01*
X226399920Y-97554619D01*
X226539749Y-97565000D01*
X227284690Y-97565000D01*
X227422840Y-97556298D01*
X227472063Y-97541473D01*
X227505119Y-97517677D01*
X227528028Y-97483651D01*
X227543587Y-97435398D01*
X227554120Y-97295111D01*
X227554120Y-96190828D01*
X227545419Y-96045351D01*
X227530663Y-95995705D01*
X227506798Y-95961240D01*
X227472595Y-95937314D01*
X227424672Y-95922772D01*
X227284690Y-95913918D01*
X226539749Y-95913918D01*
X226398088Y-95922772D01*
X226348894Y-95937485D01*
X226315962Y-95961240D01*
X226293438Y-95995571D01*
X226279173Y-96045504D01*
X226270471Y-96190981D01*
X226270471Y-96268070D01*
X226279210Y-96361914D01*
X226300239Y-96415532D01*
X226338691Y-96448688D01*
X226403278Y-96461022D01*
X226456574Y-96451537D01*
X226490901Y-96425759D01*
X226512055Y-96383025D01*
X226525705Y-96305622D01*
X226539749Y-96231434D01*
X226566005Y-96189149D01*
X226618517Y-96171441D01*
X226707666Y-96167930D01*
X227113415Y-96167930D01*
X227209585Y-96174952D01*
X227265456Y-96201361D01*
X227291712Y-96255858D01*
X227298734Y-96350807D01*
X227298734Y-96456290D01*
X227292209Y-96533067D01*
X227277821Y-96568947D01*
X227248455Y-96592694D01*
X227183329Y-96618101D01*
X227119424Y-96642662D01*
X227088990Y-96672597D01*
X227074523Y-96718416D01*
X227067924Y-96815021D01*
X227067924Y-97124599D01*
X227062734Y-97224891D01*
X227053044Y-97258288D01*
X227036478Y-97281067D01*
X226978776Y-97305797D01*
X226879094Y-97310987D01*
X226714688Y-97310987D01*
X226610102Y-97301703D01*
X226562494Y-97281372D01*
X226536925Y-97240423D01*
X226525705Y-97150550D01*
X226525705Y-97132995D01*
X226517097Y-97021074D01*
X226497770Y-96965536D01*
X226460687Y-96932560D01*
X226396409Y-96920198D01*
X226332176Y-96932260D01*
X226296728Y-96963857D01*
X226278694Y-97018072D01*
X226270471Y-97132842D01*
X226270471Y-97296638D01*
G37*
G36*
X225883499Y-95922772D02*
G01*
X225931423Y-95937314D01*
X225965626Y-95961240D01*
X225989491Y-95995705D01*
X226004247Y-96045351D01*
X226012948Y-96190828D01*
X226012948Y-97295111D01*
X226002415Y-97435398D01*
X225986856Y-97483651D01*
X225963947Y-97517677D01*
X225930890Y-97541473D01*
X225881667Y-97556298D01*
X225743517Y-97565000D01*
X224998577Y-97565000D01*
X224858748Y-97556298D01*
X224811008Y-97541548D01*
X224778300Y-97517677D01*
X224755307Y-97483634D01*
X224739832Y-97435398D01*
X224729299Y-97295111D01*
X224729299Y-96353708D01*
X224984533Y-96353708D01*
X224984533Y-97125210D01*
X224991555Y-97221533D01*
X225017811Y-97277709D01*
X225073834Y-97303965D01*
X225170005Y-97310987D01*
X225337922Y-97310987D01*
X225437603Y-97305797D01*
X225495306Y-97281220D01*
X225511872Y-97258441D01*
X225521562Y-97225044D01*
X225526752Y-97125210D01*
X225526752Y-96809526D01*
X225533410Y-96713458D01*
X225547818Y-96669392D01*
X225577962Y-96640194D01*
X225642157Y-96613216D01*
X225707014Y-96590250D01*
X225736648Y-96565894D01*
X225751097Y-96528745D01*
X225757561Y-96452015D01*
X225757561Y-96353708D01*
X225747058Y-96246692D01*
X225724436Y-96201209D01*
X225678969Y-96178471D01*
X225572242Y-96167930D01*
X225166494Y-96167930D01*
X225060069Y-96178546D01*
X225016132Y-96201209D01*
X224994599Y-96246508D01*
X224984533Y-96353708D01*
X224729299Y-96353708D01*
X224729299Y-96190828D01*
X224738000Y-96045351D01*
X224752259Y-95995551D01*
X224774789Y-95961240D01*
X224807722Y-95937485D01*
X224856916Y-95922772D01*
X224998577Y-95913918D01*
X225743517Y-95913918D01*
X225883499Y-95922772D01*
G37*
G36*
X237710226Y-99396325D02*
G01*
X237714322Y-99477757D01*
X237724270Y-99527850D01*
X237743311Y-99568674D01*
X237771775Y-99600512D01*
X237805229Y-99621261D01*
X237846025Y-99634096D01*
X237987198Y-99642522D01*
X238420973Y-99642522D01*
X238552498Y-99649483D01*
X238595176Y-99662629D01*
X238623817Y-99685875D01*
X238642251Y-99719912D01*
X238653248Y-99772704D01*
X238658743Y-99930729D01*
X238648974Y-100044057D01*
X238633890Y-100078040D01*
X238608429Y-100104141D01*
X238583272Y-100120994D01*
X238545537Y-100129420D01*
X238483988Y-100133572D01*
X238387390Y-100134916D01*
X237934075Y-100134916D01*
X237823677Y-100136381D01*
X237771775Y-100146151D01*
X237743879Y-100159533D01*
X237720118Y-100184009D01*
X237704569Y-100215806D01*
X237699113Y-100255327D01*
X237709804Y-100311855D01*
X237738314Y-100344842D01*
X237785755Y-100362344D01*
X237878143Y-100370000D01*
X238840704Y-100370000D01*
X238972229Y-100360230D01*
X239018118Y-100344956D01*
X239050509Y-100321029D01*
X239073253Y-100287186D01*
X239088367Y-100238475D01*
X239098136Y-100098646D01*
X239098136Y-99673297D01*
X239091175Y-99543237D01*
X239080128Y-99504685D01*
X239061744Y-99471796D01*
X239027175Y-99438716D01*
X238986151Y-99418674D01*
X238935025Y-99408810D01*
X238846200Y-99404630D01*
X238202742Y-99404630D01*
X238121531Y-99404630D01*
X238027864Y-99394860D01*
X237996348Y-99380678D01*
X237973276Y-99358590D01*
X237957988Y-99328019D01*
X237948119Y-99280188D01*
X237942501Y-99144511D01*
X237942501Y-98990516D01*
X237949462Y-98853496D01*
X237961702Y-98807406D01*
X237981702Y-98776559D01*
X238011198Y-98755452D01*
X238054487Y-98742976D01*
X238183080Y-98735893D01*
X238633586Y-98735893D01*
X238746915Y-98742976D01*
X238787144Y-98753661D01*
X238815547Y-98769598D01*
X238836735Y-98792132D01*
X238850474Y-98821378D01*
X238860244Y-98906618D01*
X238863053Y-98968168D01*
X238872611Y-99057794D01*
X238889675Y-99102501D01*
X238921175Y-99128781D01*
X238977725Y-99138893D01*
X239041323Y-99127792D01*
X239074323Y-99099692D01*
X239090618Y-99050316D01*
X239098136Y-98943011D01*
X239098136Y-98772285D01*
X239088367Y-98632456D01*
X239072555Y-98584155D01*
X239047700Y-98551245D01*
X239012201Y-98528657D01*
X238959651Y-98513510D01*
X238807121Y-98503740D01*
X238009668Y-98503740D01*
X237859947Y-98512166D01*
X237811708Y-98524626D01*
X237777393Y-98542819D01*
X237743932Y-98572250D01*
X237722927Y-98612794D01*
X237713035Y-98675809D01*
X237710226Y-98772285D01*
X237710226Y-99396325D01*
G37*
G36*
X237293891Y-98507103D02*
G01*
X237348503Y-98514975D01*
X237392382Y-98531303D01*
X237426782Y-98556863D01*
X237449777Y-98588554D01*
X237464518Y-98630990D01*
X237474288Y-98777903D01*
X237474288Y-100081793D01*
X237464518Y-100230170D01*
X237449195Y-100281669D01*
X237425439Y-100318342D01*
X237390834Y-100344150D01*
X237340076Y-100360230D01*
X237194508Y-100370000D01*
X236296304Y-100370000D01*
X236160628Y-100360230D01*
X236113105Y-100345270D01*
X236079539Y-100322494D01*
X236055537Y-100290187D01*
X236040338Y-100245436D01*
X236030568Y-100118185D01*
X236030568Y-98948628D01*
X236262721Y-98948628D01*
X236265530Y-99063300D01*
X236270728Y-99135283D01*
X236282383Y-99171133D01*
X236306839Y-99196910D01*
X236360662Y-99225600D01*
X236418060Y-99253688D01*
X236450300Y-99288614D01*
X236464221Y-99341737D01*
X236467030Y-99427100D01*
X236469839Y-99522233D01*
X236469839Y-99902763D01*
X236476800Y-100030013D01*
X236489325Y-100071554D01*
X236510383Y-100098646D01*
X236541904Y-100115850D01*
X236594403Y-100126612D01*
X236752428Y-100132107D01*
X237046252Y-100132107D01*
X237152498Y-100125146D01*
X237187109Y-100112527D01*
X237209895Y-100090219D01*
X237224105Y-100058140D01*
X237233709Y-100006322D01*
X237239326Y-99855136D01*
X237239326Y-98998942D01*
X237233709Y-98854839D01*
X237222798Y-98807446D01*
X237204277Y-98776559D01*
X237175712Y-98755576D01*
X237131493Y-98742976D01*
X236995816Y-98735893D01*
X236480952Y-98735893D01*
X236370432Y-98744319D01*
X236330821Y-98757164D01*
X236303387Y-98776559D01*
X236283926Y-98803813D01*
X236271147Y-98842260D01*
X236262721Y-98948628D01*
X236030568Y-98948628D01*
X236030568Y-98777903D01*
X236040338Y-98636608D01*
X236055761Y-98586783D01*
X236079539Y-98552711D01*
X236113434Y-98528868D01*
X236162093Y-98513510D01*
X236301922Y-98503740D01*
X237197316Y-98503740D01*
X237293891Y-98507103D01*
G37*
G36*
X234398293Y-99396325D02*
G01*
X234402389Y-99477757D01*
X234412337Y-99527850D01*
X234431378Y-99568674D01*
X234459842Y-99600512D01*
X234493296Y-99621261D01*
X234534092Y-99634096D01*
X234675265Y-99642522D01*
X235109040Y-99642522D01*
X235240565Y-99649483D01*
X235283243Y-99662629D01*
X235311884Y-99685875D01*
X235330318Y-99719912D01*
X235341315Y-99772704D01*
X235346810Y-99930729D01*
X235337041Y-100044057D01*
X235321957Y-100078040D01*
X235296496Y-100104141D01*
X235271339Y-100120994D01*
X235233604Y-100129420D01*
X235172055Y-100133572D01*
X235075457Y-100134916D01*
X234622142Y-100134916D01*
X234511744Y-100136381D01*
X234459842Y-100146151D01*
X234431946Y-100159533D01*
X234408185Y-100184009D01*
X234392636Y-100215806D01*
X234387180Y-100255327D01*
X234397871Y-100311855D01*
X234426381Y-100344842D01*
X234473822Y-100362344D01*
X234566210Y-100370000D01*
X235528771Y-100370000D01*
X235660296Y-100360230D01*
X235706185Y-100344956D01*
X235738576Y-100321029D01*
X235761320Y-100287186D01*
X235776434Y-100238475D01*
X235786203Y-100098646D01*
X235786203Y-99673297D01*
X235779242Y-99543237D01*
X235768195Y-99504685D01*
X235749811Y-99471796D01*
X235715242Y-99438716D01*
X235674218Y-99418674D01*
X235623092Y-99408810D01*
X235534267Y-99404630D01*
X234890809Y-99404630D01*
X234809598Y-99404630D01*
X234715931Y-99394860D01*
X234684415Y-99380678D01*
X234661343Y-99358590D01*
X234646055Y-99328019D01*
X234636186Y-99280188D01*
X234630568Y-99144511D01*
X234630568Y-98990516D01*
X234637529Y-98853496D01*
X234649769Y-98807406D01*
X234669769Y-98776559D01*
X234699265Y-98755452D01*
X234742554Y-98742976D01*
X234871147Y-98735893D01*
X235321653Y-98735893D01*
X235434982Y-98742976D01*
X235475211Y-98753661D01*
X235503614Y-98769598D01*
X235524802Y-98792132D01*
X235538541Y-98821378D01*
X235548311Y-98906618D01*
X235551120Y-98968168D01*
X235560678Y-99057794D01*
X235577742Y-99102501D01*
X235609242Y-99128781D01*
X235665792Y-99138893D01*
X235729390Y-99127792D01*
X235762390Y-99099692D01*
X235778685Y-99050316D01*
X235786203Y-98943011D01*
X235786203Y-98772285D01*
X235776434Y-98632456D01*
X235760622Y-98584155D01*
X235735767Y-98551245D01*
X235700268Y-98528657D01*
X235647718Y-98513510D01*
X235495188Y-98503740D01*
X234697735Y-98503740D01*
X234548014Y-98512166D01*
X234499775Y-98524626D01*
X234465460Y-98542819D01*
X234431999Y-98572250D01*
X234410994Y-98612794D01*
X234401102Y-98675809D01*
X234398293Y-98772285D01*
X234398293Y-99396325D01*
G37*
G36*
X232794106Y-100070558D02*
G01*
X232803998Y-100227362D01*
X232819478Y-100281294D01*
X232843199Y-100318342D01*
X232877322Y-100344287D01*
X232925631Y-100360230D01*
X233068391Y-100370000D01*
X233893810Y-100370000D01*
X234043531Y-100360230D01*
X234095941Y-100344748D01*
X234131580Y-100321029D01*
X234156509Y-100286929D01*
X234172247Y-100238475D01*
X234182016Y-100095837D01*
X234182016Y-99936346D01*
X234177864Y-99827170D01*
X234156737Y-99776856D01*
X234117403Y-99745595D01*
X234064413Y-99734846D01*
X234007333Y-99744851D01*
X233973555Y-99771238D01*
X233954871Y-99815226D01*
X233946933Y-99897145D01*
X233939972Y-100021709D01*
X233928781Y-100064267D01*
X233912006Y-100093028D01*
X233887226Y-100113566D01*
X233851800Y-100126612D01*
X233748241Y-100134916D01*
X233471270Y-100134916D01*
X233345362Y-100127955D01*
X233301807Y-100116115D01*
X233272578Y-100097180D01*
X233252529Y-100069320D01*
X233240460Y-100028670D01*
X233233377Y-99911067D01*
X233233377Y-99709689D01*
X233240460Y-99578164D01*
X233253234Y-99535001D01*
X233275387Y-99505380D01*
X233308161Y-99485939D01*
X233359406Y-99474605D01*
X233510471Y-99468988D01*
X233904923Y-99468988D01*
X234047683Y-99459218D01*
X234096617Y-99444262D01*
X234131580Y-99421482D01*
X234156510Y-99388771D01*
X234172247Y-99341737D01*
X234182016Y-99206060D01*
X234182016Y-98730397D01*
X234170781Y-98619877D01*
X234154701Y-98580086D01*
X234130237Y-98549902D01*
X234096883Y-98528092D01*
X234050491Y-98513510D01*
X233924584Y-98503740D01*
X233079504Y-98503740D01*
X232974522Y-98511956D01*
X232922822Y-98530362D01*
X232892205Y-98565103D01*
X232880812Y-98624030D01*
X232890812Y-98681133D01*
X232917205Y-98715010D01*
X232961503Y-98733546D01*
X233045921Y-98741510D01*
X233720275Y-98741510D01*
X233846182Y-98749937D01*
X233886797Y-98762085D01*
X233910540Y-98777903D01*
X233926422Y-98805154D01*
X233939972Y-98854839D01*
X233949741Y-99004560D01*
X233941315Y-99124972D01*
X233927817Y-99165518D01*
X233906388Y-99193482D01*
X233875987Y-99212723D01*
X233832260Y-99225600D01*
X233703545Y-99234026D01*
X233082313Y-99234026D01*
X232934057Y-99243796D01*
X232882591Y-99259152D01*
X232846008Y-99282997D01*
X232819898Y-99316944D01*
X232803998Y-99364085D01*
X232794106Y-99502571D01*
X232794106Y-100070558D01*
G37*
G36*
X231680969Y-99606130D02*
G01*
X231611116Y-99608939D01*
X231574602Y-99620174D01*
X231552255Y-99637582D01*
X231534057Y-99663527D01*
X231522531Y-99693849D01*
X231518670Y-99726420D01*
X231522565Y-99758791D01*
X231534057Y-99787969D01*
X231571793Y-99829979D01*
X231611116Y-99844023D01*
X231680969Y-99846709D01*
X232405638Y-99846709D01*
X232478422Y-99844023D01*
X232514815Y-99832787D01*
X232534879Y-99815547D01*
X232552550Y-99789434D01*
X232564080Y-99759008D01*
X232567937Y-99726420D01*
X232564077Y-99693849D01*
X232552550Y-99663527D01*
X232534864Y-99637336D01*
X232514815Y-99620174D01*
X232475865Y-99610346D01*
X232405638Y-99606130D01*
X231680969Y-99606130D01*
G37*
G36*
X231074491Y-98507103D02*
G01*
X231129103Y-98514975D01*
X231172982Y-98531303D01*
X231207383Y-98556863D01*
X231230377Y-98588554D01*
X231245118Y-98630990D01*
X231254888Y-98777903D01*
X231254888Y-100081793D01*
X231245118Y-100230170D01*
X231229795Y-100281669D01*
X231206039Y-100318342D01*
X231171434Y-100344150D01*
X231120676Y-100360230D01*
X230975108Y-100370000D01*
X230076905Y-100370000D01*
X229941228Y-100360230D01*
X229893705Y-100345270D01*
X229860139Y-100322494D01*
X229836138Y-100290187D01*
X229820938Y-100245436D01*
X229811168Y-100118185D01*
X229811168Y-98948628D01*
X230043321Y-98948628D01*
X230046130Y-99063300D01*
X230051329Y-99135283D01*
X230062983Y-99171133D01*
X230087439Y-99196910D01*
X230141263Y-99225600D01*
X230198660Y-99253688D01*
X230230900Y-99288614D01*
X230244822Y-99341737D01*
X230247630Y-99427100D01*
X230250439Y-99522233D01*
X230250439Y-99902763D01*
X230257400Y-100030013D01*
X230269925Y-100071554D01*
X230290983Y-100098646D01*
X230322504Y-100115850D01*
X230375003Y-100126612D01*
X230533028Y-100132107D01*
X230826852Y-100132107D01*
X230933098Y-100125146D01*
X230967709Y-100112527D01*
X230990495Y-100090219D01*
X231004705Y-100058140D01*
X231014309Y-100006322D01*
X231019926Y-99855136D01*
X231019926Y-98998942D01*
X231014309Y-98854839D01*
X231003398Y-98807446D01*
X230984877Y-98776559D01*
X230956312Y-98755576D01*
X230912093Y-98742976D01*
X230776416Y-98735893D01*
X230261552Y-98735893D01*
X230151032Y-98744319D01*
X230111421Y-98757164D01*
X230083988Y-98776559D01*
X230064526Y-98803813D01*
X230051748Y-98842260D01*
X230043321Y-98948628D01*
X229811168Y-98948628D01*
X229811168Y-98777903D01*
X229820938Y-98636608D01*
X229836361Y-98586783D01*
X229860139Y-98552711D01*
X229894034Y-98528868D01*
X229942693Y-98513510D01*
X230082522Y-98503740D01*
X230977916Y-98503740D01*
X231074491Y-98507103D01*
G37*
G36*
X228178893Y-100070558D02*
G01*
X228188785Y-100227362D01*
X228204266Y-100281294D01*
X228227986Y-100318342D01*
X228262109Y-100344287D01*
X228310418Y-100360230D01*
X228453178Y-100370000D01*
X229278597Y-100370000D01*
X229428318Y-100360230D01*
X229480728Y-100344748D01*
X229516367Y-100321029D01*
X229541296Y-100286929D01*
X229557034Y-100238475D01*
X229566803Y-100095837D01*
X229566803Y-99936346D01*
X229562651Y-99827170D01*
X229541524Y-99776856D01*
X229502190Y-99745595D01*
X229449200Y-99734846D01*
X229392120Y-99744851D01*
X229358342Y-99771238D01*
X229339658Y-99815226D01*
X229331720Y-99897145D01*
X229324759Y-100021709D01*
X229313568Y-100064267D01*
X229296793Y-100093028D01*
X229272013Y-100113566D01*
X229236587Y-100126612D01*
X229133028Y-100134916D01*
X228856057Y-100134916D01*
X228730150Y-100127955D01*
X228686594Y-100116115D01*
X228657365Y-100097180D01*
X228637316Y-100069320D01*
X228625247Y-100028670D01*
X228618164Y-99911067D01*
X228618164Y-99709689D01*
X228625247Y-99578164D01*
X228638021Y-99535001D01*
X228660174Y-99505380D01*
X228692949Y-99485939D01*
X228744193Y-99474605D01*
X228895258Y-99468988D01*
X229289710Y-99468988D01*
X229432470Y-99459218D01*
X229481404Y-99444262D01*
X229516367Y-99421482D01*
X229541297Y-99388771D01*
X229557034Y-99341737D01*
X229566803Y-99206060D01*
X229566803Y-98730397D01*
X229555568Y-98619877D01*
X229539488Y-98580086D01*
X229515024Y-98549902D01*
X229481670Y-98528092D01*
X229435279Y-98513510D01*
X229309371Y-98503740D01*
X228464291Y-98503740D01*
X228359309Y-98511956D01*
X228307609Y-98530362D01*
X228276992Y-98565103D01*
X228265600Y-98624030D01*
X228275600Y-98681133D01*
X228301992Y-98715010D01*
X228346290Y-98733546D01*
X228430708Y-98741510D01*
X229105062Y-98741510D01*
X229230969Y-98749937D01*
X229271584Y-98762085D01*
X229295327Y-98777903D01*
X229311209Y-98805154D01*
X229324759Y-98854839D01*
X229334528Y-99004560D01*
X229326102Y-99124972D01*
X229312604Y-99165518D01*
X229291175Y-99193482D01*
X229260774Y-99212723D01*
X229217048Y-99225600D01*
X229088332Y-99234026D01*
X228467100Y-99234026D01*
X228318845Y-99243796D01*
X228267378Y-99259152D01*
X228230795Y-99282997D01*
X228204685Y-99316944D01*
X228188785Y-99364085D01*
X228178893Y-99502571D01*
X228178893Y-100070558D01*
G37*
G36*
X227065757Y-99606130D02*
G01*
X226995903Y-99608939D01*
X226959389Y-99620174D01*
X226937042Y-99637582D01*
X226918845Y-99663527D01*
X226907318Y-99693849D01*
X226903457Y-99726420D01*
X226907352Y-99758791D01*
X226918845Y-99787969D01*
X226956580Y-99829979D01*
X226995903Y-99844023D01*
X227065757Y-99846709D01*
X227790425Y-99846709D01*
X227863210Y-99844023D01*
X227899602Y-99832787D01*
X227919666Y-99815547D01*
X227937337Y-99789434D01*
X227948867Y-99759008D01*
X227952725Y-99726420D01*
X227948864Y-99693849D01*
X227937337Y-99663527D01*
X227919651Y-99637336D01*
X227899602Y-99620174D01*
X227860652Y-99610346D01*
X227790425Y-99606130D01*
X227065757Y-99606130D01*
G37*
G36*
X225271427Y-99396325D02*
G01*
X225275522Y-99477757D01*
X225285471Y-99527850D01*
X225304511Y-99568674D01*
X225332976Y-99600512D01*
X225366430Y-99621261D01*
X225407226Y-99634096D01*
X225548398Y-99642522D01*
X225982173Y-99642522D01*
X226113698Y-99649483D01*
X226156376Y-99662629D01*
X226185017Y-99685875D01*
X226203452Y-99719912D01*
X226214448Y-99772704D01*
X226219944Y-99930729D01*
X226210174Y-100044057D01*
X226195090Y-100078040D01*
X226169630Y-100104141D01*
X226144473Y-100120994D01*
X226106737Y-100129420D01*
X226045188Y-100133572D01*
X225948590Y-100134916D01*
X225495275Y-100134916D01*
X225384877Y-100136381D01*
X225332976Y-100146151D01*
X225305079Y-100159533D01*
X225281318Y-100184009D01*
X225265769Y-100215806D01*
X225260314Y-100255327D01*
X225271004Y-100311855D01*
X225299515Y-100344842D01*
X225346956Y-100362344D01*
X225439344Y-100370000D01*
X226401905Y-100370000D01*
X226533429Y-100360230D01*
X226579318Y-100344956D01*
X226611709Y-100321029D01*
X226634453Y-100287186D01*
X226649567Y-100238475D01*
X226659337Y-100098646D01*
X226659337Y-99673297D01*
X226652376Y-99543237D01*
X226641328Y-99504685D01*
X226622944Y-99471796D01*
X226588375Y-99438716D01*
X226547351Y-99418674D01*
X226496226Y-99408810D01*
X226407400Y-99404630D01*
X225763942Y-99404630D01*
X225682732Y-99404630D01*
X225589064Y-99394860D01*
X225557549Y-99380678D01*
X225534476Y-99358590D01*
X225519188Y-99328019D01*
X225509319Y-99280188D01*
X225503702Y-99144511D01*
X225503702Y-98990516D01*
X225510662Y-98853496D01*
X225522902Y-98807406D01*
X225542903Y-98776559D01*
X225572398Y-98755452D01*
X225615687Y-98742976D01*
X225744281Y-98735893D01*
X226194787Y-98735893D01*
X226308115Y-98742976D01*
X226348344Y-98753661D01*
X226376748Y-98769598D01*
X226397935Y-98792132D01*
X226411674Y-98821378D01*
X226421444Y-98906618D01*
X226424253Y-98968168D01*
X226433811Y-99057794D01*
X226450875Y-99102501D01*
X226482375Y-99128781D01*
X226538925Y-99138893D01*
X226602523Y-99127792D01*
X226635523Y-99099692D01*
X226651819Y-99050316D01*
X226659337Y-98943011D01*
X226659337Y-98772285D01*
X226649567Y-98632456D01*
X226633756Y-98584155D01*
X226608900Y-98551245D01*
X226573401Y-98528657D01*
X226520851Y-98513510D01*
X226368321Y-98503740D01*
X225570868Y-98503740D01*
X225421147Y-98512166D01*
X225372908Y-98524626D01*
X225338593Y-98542819D01*
X225305132Y-98572250D01*
X225284127Y-98612794D01*
X225274235Y-98675809D01*
X225271427Y-98772285D01*
X225271427Y-99396325D01*
G37*
G36*
X223667240Y-99396325D02*
G01*
X223671335Y-99477757D01*
X223681284Y-99527850D01*
X223700324Y-99568674D01*
X223728789Y-99600512D01*
X223762243Y-99621261D01*
X223803039Y-99634096D01*
X223944211Y-99642522D01*
X224377986Y-99642522D01*
X224509511Y-99649483D01*
X224552189Y-99662629D01*
X224580830Y-99685875D01*
X224599265Y-99719912D01*
X224610261Y-99772704D01*
X224615757Y-99930729D01*
X224605987Y-100044057D01*
X224590903Y-100078040D01*
X224565443Y-100104141D01*
X224540286Y-100120994D01*
X224502550Y-100129420D01*
X224441001Y-100133572D01*
X224344403Y-100134916D01*
X223891088Y-100134916D01*
X223780690Y-100136381D01*
X223728789Y-100146151D01*
X223700892Y-100159533D01*
X223677131Y-100184009D01*
X223661582Y-100215806D01*
X223656127Y-100255327D01*
X223666817Y-100311855D01*
X223695327Y-100344842D01*
X223742769Y-100362344D01*
X223835157Y-100370000D01*
X224797718Y-100370000D01*
X224929242Y-100360230D01*
X224975131Y-100344956D01*
X225007522Y-100321029D01*
X225030266Y-100287186D01*
X225045380Y-100238475D01*
X225055150Y-100098646D01*
X225055150Y-99673297D01*
X225048189Y-99543237D01*
X225037141Y-99504685D01*
X225018757Y-99471796D01*
X224984188Y-99438716D01*
X224943164Y-99418674D01*
X224892039Y-99408810D01*
X224803213Y-99404630D01*
X224159755Y-99404630D01*
X224078545Y-99404630D01*
X223984877Y-99394860D01*
X223953362Y-99380678D01*
X223930289Y-99358590D01*
X223915001Y-99328019D01*
X223905132Y-99280188D01*
X223899515Y-99144511D01*
X223899515Y-98990516D01*
X223906475Y-98853496D01*
X223918715Y-98807406D01*
X223938715Y-98776559D01*
X223968211Y-98755452D01*
X224011500Y-98742976D01*
X224140094Y-98735893D01*
X224590600Y-98735893D01*
X224703928Y-98742976D01*
X224744157Y-98753661D01*
X224772561Y-98769598D01*
X224793748Y-98792132D01*
X224807487Y-98821378D01*
X224817257Y-98906618D01*
X224820066Y-98968168D01*
X224829624Y-99057794D01*
X224846688Y-99102501D01*
X224878188Y-99128781D01*
X224934738Y-99138893D01*
X224998336Y-99127792D01*
X225031336Y-99099692D01*
X225047632Y-99050316D01*
X225055150Y-98943011D01*
X225055150Y-98772285D01*
X225045380Y-98632456D01*
X225029569Y-98584155D01*
X225004713Y-98551245D01*
X224969214Y-98528657D01*
X224916664Y-98513510D01*
X224764134Y-98503740D01*
X223966681Y-98503740D01*
X223816960Y-98512166D01*
X223768721Y-98524626D01*
X223734406Y-98542819D01*
X223700945Y-98572250D01*
X223679940Y-98612794D01*
X223670048Y-98675809D01*
X223667240Y-98772285D01*
X223667240Y-99396325D01*
G37*
D11*
X207878332Y-76407200D02*
X207735475Y-76454819D01*
X207735475Y-76454819D02*
X207497380Y-76454819D01*
X207497380Y-76454819D02*
X207402142Y-76407200D01*
X207402142Y-76407200D02*
X207354523Y-76359580D01*
X207354523Y-76359580D02*
X207306904Y-76264342D01*
X207306904Y-76264342D02*
X207306904Y-76169104D01*
X207306904Y-76169104D02*
X207354523Y-76073866D01*
X207354523Y-76073866D02*
X207402142Y-76026247D01*
X207402142Y-76026247D02*
X207497380Y-75978628D01*
X207497380Y-75978628D02*
X207687856Y-75931009D01*
X207687856Y-75931009D02*
X207783094Y-75883390D01*
X207783094Y-75883390D02*
X207830713Y-75835771D01*
X207830713Y-75835771D02*
X207878332Y-75740533D01*
X207878332Y-75740533D02*
X207878332Y-75645295D01*
X207878332Y-75645295D02*
X207830713Y-75550057D01*
X207830713Y-75550057D02*
X207783094Y-75502438D01*
X207783094Y-75502438D02*
X207687856Y-75454819D01*
X207687856Y-75454819D02*
X207449761Y-75454819D01*
X207449761Y-75454819D02*
X207306904Y-75502438D01*
X206973570Y-75454819D02*
X206735475Y-76454819D01*
X206735475Y-76454819D02*
X206544999Y-75740533D01*
X206544999Y-75740533D02*
X206354523Y-76454819D01*
X206354523Y-76454819D02*
X206116428Y-75454819D01*
X205211666Y-76454819D02*
X205783094Y-76454819D01*
X205497380Y-76454819D02*
X205497380Y-75454819D01*
X205497380Y-75454819D02*
X205592618Y-75597676D01*
X205592618Y-75597676D02*
X205687856Y-75692914D01*
X205687856Y-75692914D02*
X205783094Y-75740533D01*
X187203332Y-76407200D02*
X187060475Y-76454819D01*
X187060475Y-76454819D02*
X186822380Y-76454819D01*
X186822380Y-76454819D02*
X186727142Y-76407200D01*
X186727142Y-76407200D02*
X186679523Y-76359580D01*
X186679523Y-76359580D02*
X186631904Y-76264342D01*
X186631904Y-76264342D02*
X186631904Y-76169104D01*
X186631904Y-76169104D02*
X186679523Y-76073866D01*
X186679523Y-76073866D02*
X186727142Y-76026247D01*
X186727142Y-76026247D02*
X186822380Y-75978628D01*
X186822380Y-75978628D02*
X187012856Y-75931009D01*
X187012856Y-75931009D02*
X187108094Y-75883390D01*
X187108094Y-75883390D02*
X187155713Y-75835771D01*
X187155713Y-75835771D02*
X187203332Y-75740533D01*
X187203332Y-75740533D02*
X187203332Y-75645295D01*
X187203332Y-75645295D02*
X187155713Y-75550057D01*
X187155713Y-75550057D02*
X187108094Y-75502438D01*
X187108094Y-75502438D02*
X187012856Y-75454819D01*
X187012856Y-75454819D02*
X186774761Y-75454819D01*
X186774761Y-75454819D02*
X186631904Y-75502438D01*
X186298570Y-75454819D02*
X186060475Y-76454819D01*
X186060475Y-76454819D02*
X185869999Y-75740533D01*
X185869999Y-75740533D02*
X185679523Y-76454819D01*
X185679523Y-76454819D02*
X185441428Y-75454819D01*
X185108094Y-75550057D02*
X185060475Y-75502438D01*
X185060475Y-75502438D02*
X184965237Y-75454819D01*
X184965237Y-75454819D02*
X184727142Y-75454819D01*
X184727142Y-75454819D02*
X184631904Y-75502438D01*
X184631904Y-75502438D02*
X184584285Y-75550057D01*
X184584285Y-75550057D02*
X184536666Y-75645295D01*
X184536666Y-75645295D02*
X184536666Y-75740533D01*
X184536666Y-75740533D02*
X184584285Y-75883390D01*
X184584285Y-75883390D02*
X185155713Y-76454819D01*
X185155713Y-76454819D02*
X184536666Y-76454819D01*
X244503332Y-125907200D02*
X244360475Y-125954819D01*
X244360475Y-125954819D02*
X244122380Y-125954819D01*
X244122380Y-125954819D02*
X244027142Y-125907200D01*
X244027142Y-125907200D02*
X243979523Y-125859580D01*
X243979523Y-125859580D02*
X243931904Y-125764342D01*
X243931904Y-125764342D02*
X243931904Y-125669104D01*
X243931904Y-125669104D02*
X243979523Y-125573866D01*
X243979523Y-125573866D02*
X244027142Y-125526247D01*
X244027142Y-125526247D02*
X244122380Y-125478628D01*
X244122380Y-125478628D02*
X244312856Y-125431009D01*
X244312856Y-125431009D02*
X244408094Y-125383390D01*
X244408094Y-125383390D02*
X244455713Y-125335771D01*
X244455713Y-125335771D02*
X244503332Y-125240533D01*
X244503332Y-125240533D02*
X244503332Y-125145295D01*
X244503332Y-125145295D02*
X244455713Y-125050057D01*
X244455713Y-125050057D02*
X244408094Y-125002438D01*
X244408094Y-125002438D02*
X244312856Y-124954819D01*
X244312856Y-124954819D02*
X244074761Y-124954819D01*
X244074761Y-124954819D02*
X243931904Y-125002438D01*
X243598570Y-124954819D02*
X243360475Y-125954819D01*
X243360475Y-125954819D02*
X243169999Y-125240533D01*
X243169999Y-125240533D02*
X242979523Y-125954819D01*
X242979523Y-125954819D02*
X242741428Y-124954819D01*
X241884285Y-124954819D02*
X242360475Y-124954819D01*
X242360475Y-124954819D02*
X242408094Y-125431009D01*
X242408094Y-125431009D02*
X242360475Y-125383390D01*
X242360475Y-125383390D02*
X242265237Y-125335771D01*
X242265237Y-125335771D02*
X242027142Y-125335771D01*
X242027142Y-125335771D02*
X241931904Y-125383390D01*
X241931904Y-125383390D02*
X241884285Y-125431009D01*
X241884285Y-125431009D02*
X241836666Y-125526247D01*
X241836666Y-125526247D02*
X241836666Y-125764342D01*
X241836666Y-125764342D02*
X241884285Y-125859580D01*
X241884285Y-125859580D02*
X241931904Y-125907200D01*
X241931904Y-125907200D02*
X242027142Y-125954819D01*
X242027142Y-125954819D02*
X242265237Y-125954819D01*
X242265237Y-125954819D02*
X242360475Y-125907200D01*
X242360475Y-125907200D02*
X242408094Y-125859580D01*
X166623332Y-84207200D02*
X166480475Y-84254819D01*
X166480475Y-84254819D02*
X166242380Y-84254819D01*
X166242380Y-84254819D02*
X166147142Y-84207200D01*
X166147142Y-84207200D02*
X166099523Y-84159580D01*
X166099523Y-84159580D02*
X166051904Y-84064342D01*
X166051904Y-84064342D02*
X166051904Y-83969104D01*
X166051904Y-83969104D02*
X166099523Y-83873866D01*
X166099523Y-83873866D02*
X166147142Y-83826247D01*
X166147142Y-83826247D02*
X166242380Y-83778628D01*
X166242380Y-83778628D02*
X166432856Y-83731009D01*
X166432856Y-83731009D02*
X166528094Y-83683390D01*
X166528094Y-83683390D02*
X166575713Y-83635771D01*
X166575713Y-83635771D02*
X166623332Y-83540533D01*
X166623332Y-83540533D02*
X166623332Y-83445295D01*
X166623332Y-83445295D02*
X166575713Y-83350057D01*
X166575713Y-83350057D02*
X166528094Y-83302438D01*
X166528094Y-83302438D02*
X166432856Y-83254819D01*
X166432856Y-83254819D02*
X166194761Y-83254819D01*
X166194761Y-83254819D02*
X166051904Y-83302438D01*
X165718570Y-83254819D02*
X165480475Y-84254819D01*
X165480475Y-84254819D02*
X165289999Y-83540533D01*
X165289999Y-83540533D02*
X165099523Y-84254819D01*
X165099523Y-84254819D02*
X164861428Y-83254819D01*
X164575713Y-83254819D02*
X163956666Y-83254819D01*
X163956666Y-83254819D02*
X164289999Y-83635771D01*
X164289999Y-83635771D02*
X164147142Y-83635771D01*
X164147142Y-83635771D02*
X164051904Y-83683390D01*
X164051904Y-83683390D02*
X164004285Y-83731009D01*
X164004285Y-83731009D02*
X163956666Y-83826247D01*
X163956666Y-83826247D02*
X163956666Y-84064342D01*
X163956666Y-84064342D02*
X164004285Y-84159580D01*
X164004285Y-84159580D02*
X164051904Y-84207200D01*
X164051904Y-84207200D02*
X164147142Y-84254819D01*
X164147142Y-84254819D02*
X164432856Y-84254819D01*
X164432856Y-84254819D02*
X164528094Y-84207200D01*
X164528094Y-84207200D02*
X164575713Y-84159580D01*
X228583332Y-84207200D02*
X228440475Y-84254819D01*
X228440475Y-84254819D02*
X228202380Y-84254819D01*
X228202380Y-84254819D02*
X228107142Y-84207200D01*
X228107142Y-84207200D02*
X228059523Y-84159580D01*
X228059523Y-84159580D02*
X228011904Y-84064342D01*
X228011904Y-84064342D02*
X228011904Y-83969104D01*
X228011904Y-83969104D02*
X228059523Y-83873866D01*
X228059523Y-83873866D02*
X228107142Y-83826247D01*
X228107142Y-83826247D02*
X228202380Y-83778628D01*
X228202380Y-83778628D02*
X228392856Y-83731009D01*
X228392856Y-83731009D02*
X228488094Y-83683390D01*
X228488094Y-83683390D02*
X228535713Y-83635771D01*
X228535713Y-83635771D02*
X228583332Y-83540533D01*
X228583332Y-83540533D02*
X228583332Y-83445295D01*
X228583332Y-83445295D02*
X228535713Y-83350057D01*
X228535713Y-83350057D02*
X228488094Y-83302438D01*
X228488094Y-83302438D02*
X228392856Y-83254819D01*
X228392856Y-83254819D02*
X228154761Y-83254819D01*
X228154761Y-83254819D02*
X228011904Y-83302438D01*
X227678570Y-83254819D02*
X227440475Y-84254819D01*
X227440475Y-84254819D02*
X227249999Y-83540533D01*
X227249999Y-83540533D02*
X227059523Y-84254819D01*
X227059523Y-84254819D02*
X226821428Y-83254819D01*
X226011904Y-83588152D02*
X226011904Y-84254819D01*
X226249999Y-83207200D02*
X226488094Y-83921485D01*
X226488094Y-83921485D02*
X225869047Y-83921485D01*
X188356666Y-91594819D02*
X188689999Y-91118628D01*
X188928094Y-91594819D02*
X188928094Y-90594819D01*
X188928094Y-90594819D02*
X188547142Y-90594819D01*
X188547142Y-90594819D02*
X188451904Y-90642438D01*
X188451904Y-90642438D02*
X188404285Y-90690057D01*
X188404285Y-90690057D02*
X188356666Y-90785295D01*
X188356666Y-90785295D02*
X188356666Y-90928152D01*
X188356666Y-90928152D02*
X188404285Y-91023390D01*
X188404285Y-91023390D02*
X188451904Y-91071009D01*
X188451904Y-91071009D02*
X188547142Y-91118628D01*
X188547142Y-91118628D02*
X188928094Y-91118628D01*
X188023332Y-90594819D02*
X187404285Y-90594819D01*
X187404285Y-90594819D02*
X187737618Y-90975771D01*
X187737618Y-90975771D02*
X187594761Y-90975771D01*
X187594761Y-90975771D02*
X187499523Y-91023390D01*
X187499523Y-91023390D02*
X187451904Y-91071009D01*
X187451904Y-91071009D02*
X187404285Y-91166247D01*
X187404285Y-91166247D02*
X187404285Y-91404342D01*
X187404285Y-91404342D02*
X187451904Y-91499580D01*
X187451904Y-91499580D02*
X187499523Y-91547200D01*
X187499523Y-91547200D02*
X187594761Y-91594819D01*
X187594761Y-91594819D02*
X187880475Y-91594819D01*
X187880475Y-91594819D02*
X187975713Y-91547200D01*
X187975713Y-91547200D02*
X188023332Y-91499580D01*
X206439819Y-92888095D02*
X207249342Y-92888095D01*
X207249342Y-92888095D02*
X207344580Y-92935714D01*
X207344580Y-92935714D02*
X207392200Y-92983333D01*
X207392200Y-92983333D02*
X207439819Y-93078571D01*
X207439819Y-93078571D02*
X207439819Y-93269047D01*
X207439819Y-93269047D02*
X207392200Y-93364285D01*
X207392200Y-93364285D02*
X207344580Y-93411904D01*
X207344580Y-93411904D02*
X207249342Y-93459523D01*
X207249342Y-93459523D02*
X206439819Y-93459523D01*
X207439819Y-94459523D02*
X207439819Y-93888095D01*
X207439819Y-94173809D02*
X206439819Y-94173809D01*
X206439819Y-94173809D02*
X206582676Y-94078571D01*
X206582676Y-94078571D02*
X206677914Y-93983333D01*
X206677914Y-93983333D02*
X206725533Y-93888095D01*
X201093333Y-90814819D02*
X201093333Y-91529104D01*
X201093333Y-91529104D02*
X201140952Y-91671961D01*
X201140952Y-91671961D02*
X201236190Y-91767200D01*
X201236190Y-91767200D02*
X201379047Y-91814819D01*
X201379047Y-91814819D02*
X201474285Y-91814819D01*
X200617142Y-91814819D02*
X200617142Y-90814819D01*
X200617142Y-90814819D02*
X200236190Y-90814819D01*
X200236190Y-90814819D02*
X200140952Y-90862438D01*
X200140952Y-90862438D02*
X200093333Y-90910057D01*
X200093333Y-90910057D02*
X200045714Y-91005295D01*
X200045714Y-91005295D02*
X200045714Y-91148152D01*
X200045714Y-91148152D02*
X200093333Y-91243390D01*
X200093333Y-91243390D02*
X200140952Y-91291009D01*
X200140952Y-91291009D02*
X200236190Y-91338628D01*
X200236190Y-91338628D02*
X200617142Y-91338628D01*
X199093333Y-91814819D02*
X199664761Y-91814819D01*
X199379047Y-91814819D02*
X199379047Y-90814819D01*
X199379047Y-90814819D02*
X199474285Y-90957676D01*
X199474285Y-90957676D02*
X199569523Y-91052914D01*
X199569523Y-91052914D02*
X199664761Y-91100533D01*
X204306666Y-91654819D02*
X204639999Y-91178628D01*
X204878094Y-91654819D02*
X204878094Y-90654819D01*
X204878094Y-90654819D02*
X204497142Y-90654819D01*
X204497142Y-90654819D02*
X204401904Y-90702438D01*
X204401904Y-90702438D02*
X204354285Y-90750057D01*
X204354285Y-90750057D02*
X204306666Y-90845295D01*
X204306666Y-90845295D02*
X204306666Y-90988152D01*
X204306666Y-90988152D02*
X204354285Y-91083390D01*
X204354285Y-91083390D02*
X204401904Y-91131009D01*
X204401904Y-91131009D02*
X204497142Y-91178628D01*
X204497142Y-91178628D02*
X204878094Y-91178628D01*
X203449523Y-90988152D02*
X203449523Y-91654819D01*
X203687618Y-90607200D02*
X203925713Y-91321485D01*
X203925713Y-91321485D02*
X203306666Y-91321485D01*
X192003333Y-96434819D02*
X192003333Y-97149104D01*
X192003333Y-97149104D02*
X192050952Y-97291961D01*
X192050952Y-97291961D02*
X192146190Y-97387200D01*
X192146190Y-97387200D02*
X192289047Y-97434819D01*
X192289047Y-97434819D02*
X192384285Y-97434819D01*
X191003333Y-97434819D02*
X191574761Y-97434819D01*
X191289047Y-97434819D02*
X191289047Y-96434819D01*
X191289047Y-96434819D02*
X191384285Y-96577676D01*
X191384285Y-96577676D02*
X191479523Y-96672914D01*
X191479523Y-96672914D02*
X191574761Y-96720533D01*
X193136666Y-91624819D02*
X193469999Y-91148628D01*
X193708094Y-91624819D02*
X193708094Y-90624819D01*
X193708094Y-90624819D02*
X193327142Y-90624819D01*
X193327142Y-90624819D02*
X193231904Y-90672438D01*
X193231904Y-90672438D02*
X193184285Y-90720057D01*
X193184285Y-90720057D02*
X193136666Y-90815295D01*
X193136666Y-90815295D02*
X193136666Y-90958152D01*
X193136666Y-90958152D02*
X193184285Y-91053390D01*
X193184285Y-91053390D02*
X193231904Y-91101009D01*
X193231904Y-91101009D02*
X193327142Y-91148628D01*
X193327142Y-91148628D02*
X193708094Y-91148628D01*
X192755713Y-90720057D02*
X192708094Y-90672438D01*
X192708094Y-90672438D02*
X192612856Y-90624819D01*
X192612856Y-90624819D02*
X192374761Y-90624819D01*
X192374761Y-90624819D02*
X192279523Y-90672438D01*
X192279523Y-90672438D02*
X192231904Y-90720057D01*
X192231904Y-90720057D02*
X192184285Y-90815295D01*
X192184285Y-90815295D02*
X192184285Y-90910533D01*
X192184285Y-90910533D02*
X192231904Y-91053390D01*
X192231904Y-91053390D02*
X192803332Y-91624819D01*
X192803332Y-91624819D02*
X192184285Y-91624819D01*
X196616666Y-91654819D02*
X196949999Y-91178628D01*
X197188094Y-91654819D02*
X197188094Y-90654819D01*
X197188094Y-90654819D02*
X196807142Y-90654819D01*
X196807142Y-90654819D02*
X196711904Y-90702438D01*
X196711904Y-90702438D02*
X196664285Y-90750057D01*
X196664285Y-90750057D02*
X196616666Y-90845295D01*
X196616666Y-90845295D02*
X196616666Y-90988152D01*
X196616666Y-90988152D02*
X196664285Y-91083390D01*
X196664285Y-91083390D02*
X196711904Y-91131009D01*
X196711904Y-91131009D02*
X196807142Y-91178628D01*
X196807142Y-91178628D02*
X197188094Y-91178628D01*
X195664285Y-91654819D02*
X196235713Y-91654819D01*
X195949999Y-91654819D02*
X195949999Y-90654819D01*
X195949999Y-90654819D02*
X196045237Y-90797676D01*
X196045237Y-90797676D02*
X196140475Y-90892914D01*
X196140475Y-90892914D02*
X196235713Y-90940533D01*
%TO.C,SW1*%
X204545000Y-79500000D02*
X204545000Y-80000000D01*
X204545000Y-83600000D02*
X204545000Y-84200000D01*
X204545000Y-84200000D02*
X209045000Y-84200000D01*
X209045000Y-79500000D02*
X204545000Y-79500000D01*
X209045000Y-80200000D02*
X209045000Y-79500000D01*
X209545000Y-84700000D02*
X209545000Y-85700000D01*
X210045000Y-86200000D02*
X209545000Y-85700000D01*
X213045000Y-81700000D02*
X210545000Y-81700000D01*
X213045000Y-86200000D02*
X210045000Y-86200000D01*
X213545000Y-82200000D02*
X213045000Y-81700000D01*
X213545000Y-85700000D02*
X213045000Y-86200000D01*
X209045000Y-84200000D02*
G75*
G02*
X209545000Y-84700000I-1J-500001D01*
G01*
X210545000Y-81700000D02*
G75*
G02*
X209045000Y-80200000I1J1500001D01*
G01*
%TO.C,SW2*%
X183870000Y-79500000D02*
X183870000Y-80000000D01*
X183870000Y-83600000D02*
X183870000Y-84200000D01*
X183870000Y-84200000D02*
X188370000Y-84200000D01*
X188370000Y-79500000D02*
X183870000Y-79500000D01*
X188370000Y-80200000D02*
X188370000Y-79500000D01*
X188870000Y-84700000D02*
X188870000Y-85700000D01*
X189370000Y-86200000D02*
X188870000Y-85700000D01*
X192370000Y-81700000D02*
X189870000Y-81700000D01*
X192370000Y-86200000D02*
X189370000Y-86200000D01*
X192870000Y-82200000D02*
X192370000Y-81700000D01*
X192870000Y-85700000D02*
X192370000Y-86200000D01*
X188370000Y-84200000D02*
G75*
G02*
X188870000Y-84700000I-1J-500001D01*
G01*
X189870000Y-81700000D02*
G75*
G02*
X188370000Y-80200000I1J1500001D01*
G01*
%TO.C,SW5*%
X241170000Y-129000000D02*
X241170000Y-129500000D01*
X241170000Y-133100000D02*
X241170000Y-133700000D01*
X241170000Y-133700000D02*
X245670000Y-133700000D01*
X245670000Y-129000000D02*
X241170000Y-129000000D01*
X245670000Y-129700000D02*
X245670000Y-129000000D01*
X246170000Y-134200000D02*
X246170000Y-135200000D01*
X246670000Y-135700000D02*
X246170000Y-135200000D01*
X249670000Y-131200000D02*
X247170000Y-131200000D01*
X249670000Y-135700000D02*
X246670000Y-135700000D01*
X250170000Y-131700000D02*
X249670000Y-131200000D01*
X250170000Y-135200000D02*
X249670000Y-135700000D01*
X245670000Y-133700000D02*
G75*
G02*
X246170000Y-134200000I-1J-500001D01*
G01*
X247170000Y-131200000D02*
G75*
G02*
X245670000Y-129700000I1J1500001D01*
G01*
%TO.C,SW3*%
X163290000Y-87300000D02*
X163290000Y-87800000D01*
X163290000Y-91400000D02*
X163290000Y-92000000D01*
X163290000Y-92000000D02*
X167790000Y-92000000D01*
X167790000Y-87300000D02*
X163290000Y-87300000D01*
X167790000Y-88000000D02*
X167790000Y-87300000D01*
X168290000Y-92500000D02*
X168290000Y-93500000D01*
X168790000Y-94000000D02*
X168290000Y-93500000D01*
X171790000Y-89500000D02*
X169290000Y-89500000D01*
X171790000Y-94000000D02*
X168790000Y-94000000D01*
X172290000Y-90000000D02*
X171790000Y-89500000D01*
X172290000Y-93500000D02*
X171790000Y-94000000D01*
X167790000Y-92000000D02*
G75*
G02*
X168290000Y-92500000I-1J-500001D01*
G01*
X169290000Y-89500000D02*
G75*
G02*
X167790000Y-88000000I1J1500001D01*
G01*
%TO.C,SW4*%
X225250000Y-87300000D02*
X225250000Y-87800000D01*
X225250000Y-91400000D02*
X225250000Y-92000000D01*
X225250000Y-92000000D02*
X229750000Y-92000000D01*
X229750000Y-87300000D02*
X225250000Y-87300000D01*
X229750000Y-88000000D02*
X229750000Y-87300000D01*
X230250000Y-92500000D02*
X230250000Y-93500000D01*
X230750000Y-94000000D02*
X230250000Y-93500000D01*
X233750000Y-89500000D02*
X231250000Y-89500000D01*
X233750000Y-94000000D02*
X230750000Y-94000000D01*
X234250000Y-90000000D02*
X233750000Y-89500000D01*
X234250000Y-93500000D02*
X233750000Y-94000000D01*
X229750000Y-92000000D02*
G75*
G02*
X230250000Y-92500000I-1J-500001D01*
G01*
X231250000Y-89500000D02*
G75*
G02*
X229750000Y-88000000I1J1500001D01*
G01*
D12*
%TO.C,R3*%
X187395000Y-93877064D02*
X187395000Y-93422936D01*
X188865000Y-93877064D02*
X188865000Y-93422936D01*
%TO.C,U1*%
X207825000Y-90890000D02*
X208100000Y-90890000D01*
X207825000Y-93650000D02*
X207825000Y-90890000D01*
X207825000Y-93650000D02*
X207825000Y-96410000D01*
X207825000Y-96410000D02*
X208100000Y-96410000D01*
X215245000Y-90890000D02*
X214970000Y-90890000D01*
X215245000Y-93650000D02*
X215245000Y-90890000D01*
X215245000Y-93650000D02*
X215245000Y-96410000D01*
X215245000Y-96410000D02*
X214970000Y-96410000D01*
X208100000Y-90100000D02*
X207770000Y-90340000D01*
X207770000Y-89860000D01*
X208100000Y-90100000D01*
G36*
X208100000Y-90100000D02*
G01*
X207770000Y-90340000D01*
X207770000Y-89860000D01*
X208100000Y-90100000D01*
G37*
%TO.C,JP1*%
X199290000Y-92250000D02*
X199290000Y-95050000D01*
X199290000Y-95050000D02*
X201290000Y-95050000D01*
X201290000Y-92250000D02*
X199290000Y-92250000D01*
X201290000Y-95050000D02*
X201290000Y-92250000D01*
%TO.C,R4*%
X203415000Y-93877064D02*
X203415000Y-93422936D01*
X204885000Y-93877064D02*
X204885000Y-93422936D01*
%TO.C,J1*%
X188560000Y-98575000D02*
X189610000Y-98575000D01*
X188560000Y-101075000D02*
X188560000Y-98575000D01*
X193610000Y-103045000D02*
X189730000Y-103045000D01*
X193730000Y-98575000D02*
X193730000Y-97585000D01*
X194780000Y-98575000D02*
X193730000Y-98575000D01*
X194780000Y-101075000D02*
X194780000Y-98575000D01*
%TO.C,R2*%
X192175000Y-93877064D02*
X192175000Y-93422936D01*
X193645000Y-93877064D02*
X193645000Y-93422936D01*
%TO.C,R1*%
X195715000Y-93877064D02*
X195715000Y-93422936D01*
X197185000Y-93877064D02*
X197185000Y-93422936D01*
%TD*%
M02*
