  0
SECTION
  2
HEADER
  9
$ANGBASE
  50
0.0
  9
$ANGDIR
  70
1
  9
$MEASUREMENT
  70
1
  0
ENDSEC
  0
SECTION
  2
TABLES
  0
TABLE
  2
LTYPE
  70
4
  0
LTYPE
  5
40F
  2
CONTINUOUS
  70
0
  3
Solid line
  72
65
  73
0
  40
0.0
  0
LTYPE
  5
410
  2
DASHDOT
 70
0
  3
Dash Dot ____ _ ____ _
 72
65
 73
4
 40
2.0
 49
1.25
 49
-0.25
 49
0.25
 49
-0.25
  0
LTYPE
  5
411
  2
DASHED
 70
0
  3
Dashed __ __ __ __ __
 72
65
 73
2
 40
0.75
 49
0.5
 49
-0.25
  0
LTYPE
  5
43B
  2
DOTTED
 70
0
  3
Dotted .  .  .  .
 72
65
 73
2
 40
0.2
 49
0.0
 49
-0.2
  0
ENDTAB
  0
TABLE
  2
STYLE
  70
4
  0
STYLE
  2
KICAD
  70
0
  40
0
  41
1
  42
1
  50
0
  71
0
  3
isocp.shx
  0
STYLE
  2
KICADB
  70
0
  40
0
  41
1
  42
1
  50
0
  71
0
  3
isocp.shx
  0
STYLE
  2
KICADI
  70
0
  40
0
  41
1
  42
1
  50
15
  71
0
  3
isocp.shx
  0
STYLE
  2
KICADBI
  70
0
  40
0
  41
1
  42
1
  50
15
  71
0
  3
isocp.shx
  0
ENDTAB
  0
TABLE
  2
LAYER
  70
1
  0
LAYER
  2
BLACK
  70
0
  62
7
  6
CONTINUOUS
  0
ENDTAB
  0
ENDSEC
  0
SECTION
  2
ENTITIES
0
LINE
8
BLACK
6
CONTINUOUS
10
241.2116680000000031
20
-133.4376399999999876
11
241.2323599999999999
21
-133.4583319999999844
0
LINE
8
BLACK
6
CONTINUOUS
10
241.2323599999999999
20
-133.4583319999999844
11
241.2435589999999763
21
-133.485367999999994
0
LINE
8
BLACK
6
CONTINUOUS
10
241.2435589999999763
20
-133.485367999999994
11
241.2449999999999761
21
-133.5
0
LINE
8
BLACK
6
CONTINUOUS
10
241.2449999999999761
20
-133.5
11
241.2449999999999761
21
-134.4249999999999829
0
LINE
8
BLACK
6
CONTINUOUS
10
241.2449999999999761
20
-134.4249999999999829
11
242.1699999999999875
21
-134.4249999999999829
0
LINE
8
BLACK
6
CONTINUOUS
10
242.1699999999999875
20
-134.4249999999999829
11
242.1846319999999935
21
-134.4264409999999828
0
LINE
8
BLACK
6
CONTINUOUS
10
242.1846319999999935
20
-134.4264409999999828
11
242.2116680000000031
21
-134.4376399999999876
0
LINE
8
BLACK
6
CONTINUOUS
10
242.2116680000000031
20
-134.4376399999999876
11
242.2323599999999999
21
-134.4583319999999844
0
LINE
8
BLACK
6
CONTINUOUS
10
242.2323599999999999
20
-134.4583319999999844
11
242.2435589999999763
21
-134.485367999999994
0
LINE
8
BLACK
6
CONTINUOUS
10
242.2435589999999763
20
-134.485367999999994
11
242.2435589999999763
21
-134.514632000000006
0
LINE
8
BLACK
6
CONTINUOUS
10
242.2435589999999763
20
-134.514632000000006
11
242.2323599999999999
21
-134.5416679999999872
0
LINE
8
BLACK
6
CONTINUOUS
10
242.2323599999999999
20
-134.5416679999999872
11
242.2116680000000031
21
-134.562359999999984
0
LINE
8
BLACK
6
CONTINUOUS
10
242.2116680000000031
20
-134.562359999999984
11
242.1846319999999935
21
-134.5735589999999888
0
LINE
8
BLACK
6
CONTINUOUS
10
242.1846319999999935
20
-134.5735589999999888
11
242.1699999999999875
21
-134.5749999999999886
0
LINE
8
BLACK
6
CONTINUOUS
10
242.1699999999999875
20
-134.5749999999999886
11
241.1699999999999875
21
-134.5749999999999886
0
LINE
8
BLACK
6
CONTINUOUS
10
241.1699999999999875
20
-134.5749999999999886
11
241.1553679999999815
21
-134.5735589999999888
0
LINE
8
BLACK
6
CONTINUOUS
10
241.1553679999999815
20
-134.5735589999999888
11
241.1283320000000003
21
-134.562359999999984
0
LINE
8
BLACK
6
CONTINUOUS
10
241.1283320000000003
20
-134.562359999999984
11
241.1076399999999751
21
-134.5416679999999872
0
LINE
8
BLACK
6
CONTINUOUS
10
241.1076399999999751
20
-134.5416679999999872
11
241.0964409999999987
21
-134.514632000000006
0
LINE
8
BLACK
6
CONTINUOUS
10
241.0964409999999987
20
-134.514632000000006
11
241.0949999999999989
21
-134.5
0
LINE
8
BLACK
6
CONTINUOUS
10
241.0949999999999989
20
-134.5
11
241.0949999999999989
21
-133.5
0
LINE
8
BLACK
6
CONTINUOUS
10
241.0949999999999989
20
-133.5
11
241.0964409999999987
21
-133.485367999999994
0
LINE
8
BLACK
6
CONTINUOUS
10
241.0964409999999987
20
-133.485367999999994
11
241.1076399999999751
21
-133.4583319999999844
0
LINE
8
BLACK
6
CONTINUOUS
10
241.1076399999999751
20
-133.4583319999999844
11
241.1283320000000003
21
-133.4376399999999876
0
LINE
8
BLACK
6
CONTINUOUS
10
241.1283320000000003
20
-133.4376399999999876
11
241.1553679999999815
21
-133.4264409999999828
0
LINE
8
BLACK
6
CONTINUOUS
10
241.1553679999999815
20
-133.4264409999999828
11
241.1846319999999935
21
-133.4264409999999828
0
LINE
8
BLACK
6
CONTINUOUS
10
241.1846319999999935
20
-133.4264409999999828
11
241.2116680000000031
21
-133.4376399999999876
0
LINE
8
BLACK
6
CONTINUOUS
10
255.2116679999999747
20
-133.4376399999999876
11
255.2323599999999999
21
-133.4583319999999844
0
LINE
8
BLACK
6
CONTINUOUS
10
255.2323599999999999
20
-133.4583319999999844
11
255.2435589999999763
21
-133.485367999999994
0
LINE
8
BLACK
6
CONTINUOUS
10
255.2435589999999763
20
-133.485367999999994
11
255.2449999999999761
21
-133.5
0
LINE
8
BLACK
6
CONTINUOUS
10
255.2449999999999761
20
-133.5
11
255.2449999999999761
21
-134.5
0
LINE
8
BLACK
6
CONTINUOUS
10
255.2449999999999761
20
-134.5
11
255.2435589999999763
21
-134.514632000000006
0
LINE
8
BLACK
6
CONTINUOUS
10
255.2435589999999763
20
-134.514632000000006
11
255.2323599999999999
21
-134.5416679999999872
0
LINE
8
BLACK
6
CONTINUOUS
10
255.2323599999999999
20
-134.5416679999999872
11
255.2116679999999747
21
-134.562359999999984
0
LINE
8
BLACK
6
CONTINUOUS
10
255.2116679999999747
20
-134.562359999999984
11
255.1846319999999935
21
-134.5735589999999888
0
LINE
8
BLACK
6
CONTINUOUS
10
255.1846319999999935
20
-134.5735589999999888
11
255.1699999999999875
21
-134.5749999999999886
0
LINE
8
BLACK
6
CONTINUOUS
10
255.1699999999999875
20
-134.5749999999999886
11
254.1699999999999875
21
-134.5749999999999886
0
LINE
8
BLACK
6
CONTINUOUS
10
254.1699999999999875
20
-134.5749999999999886
11
254.1553679999999815
21
-134.5735589999999888
0
LINE
8
BLACK
6
CONTINUOUS
10
254.1553679999999815
20
-134.5735589999999888
11
254.1283320000000003
21
-134.562359999999984
0
LINE
8
BLACK
6
CONTINUOUS
10
254.1283320000000003
20
-134.562359999999984
11
254.1076399999999751
21
-134.5416679999999872
0
LINE
8
BLACK
6
CONTINUOUS
10
254.1076399999999751
20
-134.5416679999999872
11
254.0964409999999987
21
-134.514632000000006
0
LINE
8
BLACK
6
CONTINUOUS
10
254.0964409999999987
20
-134.514632000000006
11
254.0964409999999987
21
-134.485367999999994
0
LINE
8
BLACK
6
CONTINUOUS
10
254.0964409999999987
20
-134.485367999999994
11
254.1076399999999751
21
-134.4583319999999844
0
LINE
8
BLACK
6
CONTINUOUS
10
254.1076399999999751
20
-134.4583319999999844
11
254.1283320000000003
21
-134.4376399999999876
0
LINE
8
BLACK
6
CONTINUOUS
10
254.1283320000000003
20
-134.4376399999999876
11
254.1553679999999815
21
-134.4264409999999828
0
LINE
8
BLACK
6
CONTINUOUS
10
254.1553679999999815
20
-134.4264409999999828
11
254.1699999999999875
21
-134.4249999999999829
0
LINE
8
BLACK
6
CONTINUOUS
10
254.1699999999999875
20
-134.4249999999999829
11
255.0949999999999989
21
-134.4249999999999829
0
LINE
8
BLACK
6
CONTINUOUS
10
255.0949999999999989
20
-134.4249999999999829
11
255.0949999999999989
21
-133.5
0
LINE
8
BLACK
6
CONTINUOUS
10
255.0949999999999989
20
-133.5
11
255.0964409999999987
21
-133.485367999999994
0
LINE
8
BLACK
6
CONTINUOUS
10
255.0964409999999987
20
-133.485367999999994
11
255.1076399999999751
21
-133.4583319999999844
0
LINE
8
BLACK
6
CONTINUOUS
10
255.1076399999999751
20
-133.4583319999999844
11
255.1283320000000003
21
-133.4376399999999876
0
LINE
8
BLACK
6
CONTINUOUS
10
255.1283320000000003
20
-133.4376399999999876
11
255.1553679999999815
21
-133.4264409999999828
0
LINE
8
BLACK
6
CONTINUOUS
10
255.1553679999999815
20
-133.4264409999999828
11
255.1846319999999935
21
-133.4264409999999828
0
LINE
8
BLACK
6
CONTINUOUS
10
255.1846319999999935
20
-133.4264409999999828
11
255.2116679999999747
21
-133.4376399999999876
0
LINE
8
BLACK
6
CONTINUOUS
10
242.1846319999999935
20
-120.426440999999997
11
242.2116680000000031
21
-120.4376399999999876
0
LINE
8
BLACK
6
CONTINUOUS
10
242.2116680000000031
20
-120.4376399999999876
11
242.2323599999999999
21
-120.4583319999999986
0
LINE
8
BLACK
6
CONTINUOUS
10
242.2323599999999999
20
-120.4583319999999986
11
242.2435589999999763
21
-120.485367999999994
0
LINE
8
BLACK
6
CONTINUOUS
10
242.2435589999999763
20
-120.485367999999994
11
242.2435589999999763
21
-120.5146319999999918
0
LINE
8
BLACK
6
CONTINUOUS
10
242.2435589999999763
20
-120.5146319999999918
11
242.2323599999999999
21
-120.5416680000000014
0
LINE
8
BLACK
6
CONTINUOUS
10
242.2323599999999999
20
-120.5416680000000014
11
242.2116680000000031
21
-120.5623599999999982
0
LINE
8
BLACK
6
CONTINUOUS
10
242.2116680000000031
20
-120.5623599999999982
11
242.1846319999999935
21
-120.5735589999999888
0
LINE
8
BLACK
6
CONTINUOUS
10
242.1846319999999935
20
-120.5735589999999888
11
242.1699999999999875
21
-120.5749999999999886
0
LINE
8
BLACK
6
CONTINUOUS
10
242.1699999999999875
20
-120.5749999999999886
11
241.2449999999999761
21
-120.5749999999999886
0
LINE
8
BLACK
6
CONTINUOUS
10
241.2449999999999761
20
-120.5749999999999886
11
241.2449999999999761
21
-121.5
0
LINE
8
BLACK
6
CONTINUOUS
10
241.2449999999999761
20
-121.5
11
241.2435589999999763
21
-121.5146319999999918
0
LINE
8
BLACK
6
CONTINUOUS
10
241.2435589999999763
20
-121.5146319999999918
11
241.2323599999999999
21
-121.5416680000000014
0
LINE
8
BLACK
6
CONTINUOUS
10
241.2323599999999999
20
-121.5416680000000014
11
241.2116680000000031
21
-121.5623599999999982
0
LINE
8
BLACK
6
CONTINUOUS
10
241.2116680000000031
20
-121.5623599999999982
11
241.1846319999999935
21
-121.5735589999999888
0
LINE
8
BLACK
6
CONTINUOUS
10
241.1846319999999935
20
-121.5735589999999888
11
241.1553679999999815
21
-121.5735589999999888
0
LINE
8
BLACK
6
CONTINUOUS
10
241.1553679999999815
20
-121.5735589999999888
11
241.1283320000000003
21
-121.5623599999999982
0
LINE
8
BLACK
6
CONTINUOUS
10
241.1283320000000003
20
-121.5623599999999982
11
241.1076399999999751
21
-121.5416680000000014
0
LINE
8
BLACK
6
CONTINUOUS
10
241.1076399999999751
20
-121.5416680000000014
11
241.0964409999999987
21
-121.5146319999999918
0
LINE
8
BLACK
6
CONTINUOUS
10
241.0964409999999987
20
-121.5146319999999918
11
241.0949999999999989
21
-121.5
0
LINE
8
BLACK
6
CONTINUOUS
10
241.0949999999999989
20
-121.5
11
241.0949999999999989
21
-120.5
0
LINE
8
BLACK
6
CONTINUOUS
10
241.0949999999999989
20
-120.5
11
241.0964409999999987
21
-120.485367999999994
0
LINE
8
BLACK
6
CONTINUOUS
10
241.0964409999999987
20
-120.485367999999994
11
241.1076399999999751
21
-120.4583319999999986
0
LINE
8
BLACK
6
CONTINUOUS
10
241.1076399999999751
20
-120.4583319999999986
11
241.1283320000000003
21
-120.4376399999999876
0
LINE
8
BLACK
6
CONTINUOUS
10
241.1283320000000003
20
-120.4376399999999876
11
241.1553679999999815
21
-120.426440999999997
0
LINE
8
BLACK
6
CONTINUOUS
10
241.1553679999999815
20
-120.426440999999997
11
241.1699999999999875
21
-120.4249999999999972
0
LINE
8
BLACK
6
CONTINUOUS
10
241.1699999999999875
20
-120.4249999999999972
11
242.1699999999999875
21
-120.4249999999999972
0
LINE
8
BLACK
6
CONTINUOUS
10
242.1699999999999875
20
-120.4249999999999972
11
242.1846319999999935
21
-120.426440999999997
0
LINE
8
BLACK
6
CONTINUOUS
10
255.1846319999999935
20
-120.426440999999997
11
255.2116679999999747
21
-120.4376399999999876
0
LINE
8
BLACK
6
CONTINUOUS
10
255.2116679999999747
20
-120.4376399999999876
11
255.2323599999999999
21
-120.4583319999999986
0
LINE
8
BLACK
6
CONTINUOUS
10
255.2323599999999999
20
-120.4583319999999986
11
255.2435589999999763
21
-120.485367999999994
0
LINE
8
BLACK
6
CONTINUOUS
10
255.2435589999999763
20
-120.485367999999994
11
255.2449999999999761
21
-120.5
0
LINE
8
BLACK
6
CONTINUOUS
10
255.2449999999999761
20
-120.5
11
255.2449999999999761
21
-121.5
0
LINE
8
BLACK
6
CONTINUOUS
10
255.2449999999999761
20
-121.5
11
255.2435589999999763
21
-121.5146319999999918
0
LINE
8
BLACK
6
CONTINUOUS
10
255.2435589999999763
20
-121.5146319999999918
11
255.2323599999999999
21
-121.5416680000000014
0
LINE
8
BLACK
6
CONTINUOUS
10
255.2323599999999999
20
-121.5416680000000014
11
255.2116679999999747
21
-121.5623599999999982
0
LINE
8
BLACK
6
CONTINUOUS
10
255.2116679999999747
20
-121.5623599999999982
11
255.1846319999999935
21
-121.5735589999999888
0
LINE
8
BLACK
6
CONTINUOUS
10
255.1846319999999935
20
-121.5735589999999888
11
255.1553679999999815
21
-121.5735589999999888
0
LINE
8
BLACK
6
CONTINUOUS
10
255.1553679999999815
20
-121.5735589999999888
11
255.1283320000000003
21
-121.5623599999999982
0
LINE
8
BLACK
6
CONTINUOUS
10
255.1283320000000003
20
-121.5623599999999982
11
255.1076399999999751
21
-121.5416680000000014
0
LINE
8
BLACK
6
CONTINUOUS
10
255.1076399999999751
20
-121.5416680000000014
11
255.0964409999999987
21
-121.5146319999999918
0
LINE
8
BLACK
6
CONTINUOUS
10
255.0964409999999987
20
-121.5146319999999918
11
255.0949999999999989
21
-121.5
0
LINE
8
BLACK
6
CONTINUOUS
10
255.0949999999999989
20
-121.5
11
255.0949999999999989
21
-120.5749999999999886
0
LINE
8
BLACK
6
CONTINUOUS
10
255.0949999999999989
20
-120.5749999999999886
11
254.1699999999999875
21
-120.5749999999999886
0
LINE
8
BLACK
6
CONTINUOUS
10
254.1699999999999875
20
-120.5749999999999886
11
254.1553679999999815
21
-120.5735589999999888
0
LINE
8
BLACK
6
CONTINUOUS
10
254.1553679999999815
20
-120.5735589999999888
11
254.1283320000000003
21
-120.5623599999999982
0
LINE
8
BLACK
6
CONTINUOUS
10
254.1283320000000003
20
-120.5623599999999982
11
254.1076399999999751
21
-120.5416680000000014
0
LINE
8
BLACK
6
CONTINUOUS
10
254.1076399999999751
20
-120.5416680000000014
11
254.0964409999999987
21
-120.5146319999999918
0
LINE
8
BLACK
6
CONTINUOUS
10
254.0964409999999987
20
-120.5146319999999918
11
254.0964409999999987
21
-120.485367999999994
0
LINE
8
BLACK
6
CONTINUOUS
10
254.0964409999999987
20
-120.485367999999994
11
254.1076399999999751
21
-120.4583319999999986
0
LINE
8
BLACK
6
CONTINUOUS
10
254.1076399999999751
20
-120.4583319999999986
11
254.1283320000000003
21
-120.4376399999999876
0
LINE
8
BLACK
6
CONTINUOUS
10
254.1283320000000003
20
-120.4376399999999876
11
254.1553679999999815
21
-120.426440999999997
0
LINE
8
BLACK
6
CONTINUOUS
10
254.1553679999999815
20
-120.426440999999997
11
254.1699999999999875
21
-120.4249999999999972
0
LINE
8
BLACK
6
CONTINUOUS
10
254.1699999999999875
20
-120.4249999999999972
11
255.1699999999999875
21
-120.4249999999999972
0
LINE
8
BLACK
6
CONTINUOUS
10
255.1699999999999875
20
-120.4249999999999972
11
255.1846319999999935
21
-120.426440999999997
0
LINE
8
BLACK
6
CONTINUOUS
10
163.3316679999999792
20
-91.737639999999999
11
163.3523600000000044
21
-91.7583319999999958
0
LINE
8
BLACK
6
CONTINUOUS
10
163.3523600000000044
20
-91.7583319999999958
11
163.3635589999999809
21
-91.7853679999999912
0
LINE
8
BLACK
6
CONTINUOUS
10
163.3635589999999809
20
-91.7853679999999912
11
163.3649999999999807
21
-91.7999999999999972
0
LINE
8
BLACK
6
CONTINUOUS
10
163.3649999999999807
20
-91.7999999999999972
11
163.3649999999999807
21
-92.7249999999999943
0
LINE
8
BLACK
6
CONTINUOUS
10
163.3649999999999807
20
-92.7249999999999943
11
164.289999999999992
21
-92.7249999999999943
0
LINE
8
BLACK
6
CONTINUOUS
10
164.289999999999992
20
-92.7249999999999943
11
164.304631999999998
21
-92.7264409999999941
0
LINE
8
BLACK
6
CONTINUOUS
10
164.304631999999998
20
-92.7264409999999941
11
164.3316679999999792
21
-92.737639999999999
0
LINE
8
BLACK
6
CONTINUOUS
10
164.3316679999999792
20
-92.737639999999999
11
164.3523600000000044
21
-92.7583319999999958
0
LINE
8
BLACK
6
CONTINUOUS
10
164.3523600000000044
20
-92.7583319999999958
11
164.3635589999999809
21
-92.7853679999999912
0
LINE
8
BLACK
6
CONTINUOUS
10
164.3635589999999809
20
-92.7853679999999912
11
164.3635589999999809
21
-92.8146319999999889
0
LINE
8
BLACK
6
CONTINUOUS
10
164.3635589999999809
20
-92.8146319999999889
11
164.3523600000000044
21
-92.8416679999999985
0
LINE
8
BLACK
6
CONTINUOUS
10
164.3523600000000044
20
-92.8416679999999985
11
164.3316679999999792
21
-92.8623599999999954
0
LINE
8
BLACK
6
CONTINUOUS
10
164.3316679999999792
20
-92.8623599999999954
11
164.304631999999998
21
-92.8735590000000002
0
LINE
8
BLACK
6
CONTINUOUS
10
164.304631999999998
20
-92.8735590000000002
11
164.289999999999992
21
-92.875
0
LINE
8
BLACK
6
CONTINUOUS
10
164.289999999999992
20
-92.875
11
163.289999999999992
21
-92.875
0
LINE
8
BLACK
6
CONTINUOUS
10
163.289999999999992
20
-92.875
11
163.2753679999999861
21
-92.8735590000000002
0
LINE
8
BLACK
6
CONTINUOUS
10
163.2753679999999861
20
-92.8735590000000002
11
163.2483320000000049
21
-92.8623599999999954
0
LINE
8
BLACK
6
CONTINUOUS
10
163.2483320000000049
20
-92.8623599999999954
11
163.2276399999999796
21
-92.8416679999999985
0
LINE
8
BLACK
6
CONTINUOUS
10
163.2276399999999796
20
-92.8416679999999985
11
163.2164410000000032
21
-92.8146319999999889
0
LINE
8
BLACK
6
CONTINUOUS
10
163.2164410000000032
20
-92.8146319999999889
11
163.2150000000000034
21
-92.7999999999999972
0
LINE
8
BLACK
6
CONTINUOUS
10
163.2150000000000034
20
-92.7999999999999972
11
163.2150000000000034
21
-91.7999999999999972
0
LINE
8
BLACK
6
CONTINUOUS
10
163.2150000000000034
20
-91.7999999999999972
11
163.2164410000000032
21
-91.7853679999999912
0
LINE
8
BLACK
6
CONTINUOUS
10
163.2164410000000032
20
-91.7853679999999912
11
163.2276399999999796
21
-91.7583319999999958
0
LINE
8
BLACK
6
CONTINUOUS
10
163.2276399999999796
20
-91.7583319999999958
11
163.2483320000000049
21
-91.737639999999999
0
LINE
8
BLACK
6
CONTINUOUS
10
163.2483320000000049
20
-91.737639999999999
11
163.2753679999999861
21
-91.7264409999999941
0
LINE
8
BLACK
6
CONTINUOUS
10
163.2753679999999861
20
-91.7264409999999941
11
163.304631999999998
21
-91.7264409999999941
0
LINE
8
BLACK
6
CONTINUOUS
10
163.304631999999998
20
-91.7264409999999941
11
163.3316679999999792
21
-91.737639999999999
0
LINE
8
BLACK
6
CONTINUOUS
10
177.3316679999999792
20
-91.737639999999999
11
177.3523600000000044
21
-91.7583319999999958
0
LINE
8
BLACK
6
CONTINUOUS
10
177.3523600000000044
20
-91.7583319999999958
11
177.3635589999999809
21
-91.7853679999999912
0
LINE
8
BLACK
6
CONTINUOUS
10
177.3635589999999809
20
-91.7853679999999912
11
177.3649999999999807
21
-91.7999999999999972
0
LINE
8
BLACK
6
CONTINUOUS
10
177.3649999999999807
20
-91.7999999999999972
11
177.3649999999999807
21
-92.7999999999999972
0
LINE
8
BLACK
6
CONTINUOUS
10
177.3649999999999807
20
-92.7999999999999972
11
177.3635589999999809
21
-92.8146319999999889
0
LINE
8
BLACK
6
CONTINUOUS
10
177.3635589999999809
20
-92.8146319999999889
11
177.3523600000000044
21
-92.8416679999999985
0
LINE
8
BLACK
6
CONTINUOUS
10
177.3523600000000044
20
-92.8416679999999985
11
177.3316679999999792
21
-92.8623599999999954
0
LINE
8
BLACK
6
CONTINUOUS
10
177.3316679999999792
20
-92.8623599999999954
11
177.304631999999998
21
-92.8735590000000002
0
LINE
8
BLACK
6
CONTINUOUS
10
177.304631999999998
20
-92.8735590000000002
11
177.289999999999992
21
-92.875
0
LINE
8
BLACK
6
CONTINUOUS
10
177.289999999999992
20
-92.875
11
176.289999999999992
21
-92.875
0
LINE
8
BLACK
6
CONTINUOUS
10
176.289999999999992
20
-92.875
11
176.2753679999999861
21
-92.8735590000000002
0
LINE
8
BLACK
6
CONTINUOUS
10
176.2753679999999861
20
-92.8735590000000002
11
176.2483320000000049
21
-92.8623599999999954
0
LINE
8
BLACK
6
CONTINUOUS
10
176.2483320000000049
20
-92.8623599999999954
11
176.2276399999999796
21
-92.8416679999999985
0
LINE
8
BLACK
6
CONTINUOUS
10
176.2276399999999796
20
-92.8416679999999985
11
176.2164410000000032
21
-92.8146319999999889
0
LINE
8
BLACK
6
CONTINUOUS
10
176.2164410000000032
20
-92.8146319999999889
11
176.2164410000000032
21
-92.7853679999999912
0
LINE
8
BLACK
6
CONTINUOUS
10
176.2164410000000032
20
-92.7853679999999912
11
176.2276399999999796
21
-92.7583319999999958
0
LINE
8
BLACK
6
CONTINUOUS
10
176.2276399999999796
20
-92.7583319999999958
11
176.2483320000000049
21
-92.737639999999999
0
LINE
8
BLACK
6
CONTINUOUS
10
176.2483320000000049
20
-92.737639999999999
11
176.2753679999999861
21
-92.7264409999999941
0
LINE
8
BLACK
6
CONTINUOUS
10
176.2753679999999861
20
-92.7264409999999941
11
176.289999999999992
21
-92.7249999999999943
0
LINE
8
BLACK
6
CONTINUOUS
10
176.289999999999992
20
-92.7249999999999943
11
177.2150000000000034
21
-92.7249999999999943
0
LINE
8
BLACK
6
CONTINUOUS
10
177.2150000000000034
20
-92.7249999999999943
11
177.2150000000000034
21
-91.7999999999999972
0
LINE
8
BLACK
6
CONTINUOUS
10
177.2150000000000034
20
-91.7999999999999972
11
177.2164410000000032
21
-91.7853679999999912
0
LINE
8
BLACK
6
CONTINUOUS
10
177.2164410000000032
20
-91.7853679999999912
11
177.2276399999999796
21
-91.7583319999999958
0
LINE
8
BLACK
6
CONTINUOUS
10
177.2276399999999796
20
-91.7583319999999958
11
177.2483320000000049
21
-91.737639999999999
0
LINE
8
BLACK
6
CONTINUOUS
10
177.2483320000000049
20
-91.737639999999999
11
177.2753679999999861
21
-91.7264409999999941
0
LINE
8
BLACK
6
CONTINUOUS
10
177.2753679999999861
20
-91.7264409999999941
11
177.304631999999998
21
-91.7264409999999941
0
LINE
8
BLACK
6
CONTINUOUS
10
177.304631999999998
20
-91.7264409999999941
11
177.3316679999999792
21
-91.737639999999999
0
LINE
8
BLACK
6
CONTINUOUS
10
225.2916679999999872
20
-91.737639999999999
11
225.312359999999984
21
-91.7583319999999958
0
LINE
8
BLACK
6
CONTINUOUS
10
225.312359999999984
20
-91.7583319999999958
11
225.3235589999999888
21
-91.7853679999999912
0
LINE
8
BLACK
6
CONTINUOUS
10
225.3235589999999888
20
-91.7853679999999912
11
225.3249999999999886
21
-91.7999999999999972
0
LINE
8
BLACK
6
CONTINUOUS
10
225.3249999999999886
20
-91.7999999999999972
11
225.3249999999999886
21
-92.7249999999999943
0
LINE
8
BLACK
6
CONTINUOUS
10
225.3249999999999886
20
-92.7249999999999943
11
226.25
21
-92.7249999999999943
0
LINE
8
BLACK
6
CONTINUOUS
10
226.25
20
-92.7249999999999943
11
226.2646319999999776
21
-92.7264409999999941
0
LINE
8
BLACK
6
CONTINUOUS
10
226.2646319999999776
20
-92.7264409999999941
11
226.2916679999999872
21
-92.737639999999999
0
LINE
8
BLACK
6
CONTINUOUS
10
226.2916679999999872
20
-92.737639999999999
11
226.312359999999984
21
-92.7583319999999958
0
LINE
8
BLACK
6
CONTINUOUS
10
226.312359999999984
20
-92.7583319999999958
11
226.3235589999999888
21
-92.7853679999999912
0
LINE
8
BLACK
6
CONTINUOUS
10
226.3235589999999888
20
-92.7853679999999912
11
226.3235589999999888
21
-92.8146319999999889
0
LINE
8
BLACK
6
CONTINUOUS
10
226.3235589999999888
20
-92.8146319999999889
11
226.312359999999984
21
-92.8416679999999985
0
LINE
8
BLACK
6
CONTINUOUS
10
226.312359999999984
20
-92.8416679999999985
11
226.2916679999999872
21
-92.8623599999999954
0
LINE
8
BLACK
6
CONTINUOUS
10
226.2916679999999872
20
-92.8623599999999954
11
226.2646319999999776
21
-92.8735590000000002
0
LINE
8
BLACK
6
CONTINUOUS
10
226.2646319999999776
20
-92.8735590000000002
11
226.25
21
-92.875
0
LINE
8
BLACK
6
CONTINUOUS
10
226.25
20
-92.875
11
225.25
21
-92.875
0
LINE
8
BLACK
6
CONTINUOUS
10
225.25
20
-92.875
11
225.235367999999994
21
-92.8735590000000002
0
LINE
8
BLACK
6
CONTINUOUS
10
225.235367999999994
20
-92.8735590000000002
11
225.2083319999999844
21
-92.8623599999999954
0
LINE
8
BLACK
6
CONTINUOUS
10
225.2083319999999844
20
-92.8623599999999954
11
225.1876399999999876
21
-92.8416679999999985
0
LINE
8
BLACK
6
CONTINUOUS
10
225.1876399999999876
20
-92.8416679999999985
11
225.1764409999999828
21
-92.8146319999999889
0
LINE
8
BLACK
6
CONTINUOUS
10
225.1764409999999828
20
-92.8146319999999889
11
225.1749999999999829
21
-92.7999999999999972
0
LINE
8
BLACK
6
CONTINUOUS
10
225.1749999999999829
20
-92.7999999999999972
11
225.1749999999999829
21
-91.7999999999999972
0
LINE
8
BLACK
6
CONTINUOUS
10
225.1749999999999829
20
-91.7999999999999972
11
225.1764409999999828
21
-91.7853679999999912
0
LINE
8
BLACK
6
CONTINUOUS
10
225.1764409999999828
20
-91.7853679999999912
11
225.1876399999999876
21
-91.7583319999999958
0
LINE
8
BLACK
6
CONTINUOUS
10
225.1876399999999876
20
-91.7583319999999958
11
225.2083319999999844
21
-91.737639999999999
0
LINE
8
BLACK
6
CONTINUOUS
10
225.2083319999999844
20
-91.737639999999999
11
225.235367999999994
21
-91.7264409999999941
0
LINE
8
BLACK
6
CONTINUOUS
10
225.235367999999994
20
-91.7264409999999941
11
225.2646319999999776
21
-91.7264409999999941
0
LINE
8
BLACK
6
CONTINUOUS
10
225.2646319999999776
20
-91.7264409999999941
11
225.2916679999999872
21
-91.737639999999999
0
LINE
8
BLACK
6
CONTINUOUS
10
239.2916679999999872
20
-91.737639999999999
11
239.312359999999984
21
-91.7583319999999958
0
LINE
8
BLACK
6
CONTINUOUS
10
239.312359999999984
20
-91.7583319999999958
11
239.3235589999999888
21
-91.7853679999999912
0
LINE
8
BLACK
6
CONTINUOUS
10
239.3235589999999888
20
-91.7853679999999912
11
239.3249999999999886
21
-91.7999999999999972
0
LINE
8
BLACK
6
CONTINUOUS
10
239.3249999999999886
20
-91.7999999999999972
11
239.3249999999999886
21
-92.7999999999999972
0
LINE
8
BLACK
6
CONTINUOUS
10
239.3249999999999886
20
-92.7999999999999972
11
239.3235589999999888
21
-92.8146319999999889
0
LINE
8
BLACK
6
CONTINUOUS
10
239.3235589999999888
20
-92.8146319999999889
11
239.312359999999984
21
-92.8416679999999985
0
LINE
8
BLACK
6
CONTINUOUS
10
239.312359999999984
20
-92.8416679999999985
11
239.2916679999999872
21
-92.8623599999999954
0
LINE
8
BLACK
6
CONTINUOUS
10
239.2916679999999872
20
-92.8623599999999954
11
239.2646319999999776
21
-92.8735590000000002
0
LINE
8
BLACK
6
CONTINUOUS
10
239.2646319999999776
20
-92.8735590000000002
11
239.25
21
-92.875
0
LINE
8
BLACK
6
CONTINUOUS
10
239.25
20
-92.875
11
238.25
21
-92.875
0
LINE
8
BLACK
6
CONTINUOUS
10
238.25
20
-92.875
11
238.235367999999994
21
-92.8735590000000002
0
LINE
8
BLACK
6
CONTINUOUS
10
238.235367999999994
20
-92.8735590000000002
11
238.2083319999999844
21
-92.8623599999999954
0
LINE
8
BLACK
6
CONTINUOUS
10
238.2083319999999844
20
-92.8623599999999954
11
238.1876399999999876
21
-92.8416679999999985
0
LINE
8
BLACK
6
CONTINUOUS
10
238.1876399999999876
20
-92.8416679999999985
11
238.1764409999999828
21
-92.8146319999999889
0
LINE
8
BLACK
6
CONTINUOUS
10
238.1764409999999828
20
-92.8146319999999889
11
238.1764409999999828
21
-92.7853679999999912
0
LINE
8
BLACK
6
CONTINUOUS
10
238.1764409999999828
20
-92.7853679999999912
11
238.1876399999999876
21
-92.7583319999999958
0
LINE
8
BLACK
6
CONTINUOUS
10
238.1876399999999876
20
-92.7583319999999958
11
238.2083319999999844
21
-92.737639999999999
0
LINE
8
BLACK
6
CONTINUOUS
10
238.2083319999999844
20
-92.737639999999999
11
238.235367999999994
21
-92.7264409999999941
0
LINE
8
BLACK
6
CONTINUOUS
10
238.235367999999994
20
-92.7264409999999941
11
238.25
21
-92.7249999999999943
0
LINE
8
BLACK
6
CONTINUOUS
10
238.25
20
-92.7249999999999943
11
239.1749999999999829
21
-92.7249999999999943
0
LINE
8
BLACK
6
CONTINUOUS
10
239.1749999999999829
20
-92.7249999999999943
11
239.1749999999999829
21
-91.7999999999999972
0
LINE
8
BLACK
6
CONTINUOUS
10
239.1749999999999829
20
-91.7999999999999972
11
239.1764409999999828
21
-91.7853679999999912
0
LINE
8
BLACK
6
CONTINUOUS
10
239.1764409999999828
20
-91.7853679999999912
11
239.1876399999999876
21
-91.7583319999999958
0
LINE
8
BLACK
6
CONTINUOUS
10
239.1876399999999876
20
-91.7583319999999958
11
239.2083319999999844
21
-91.737639999999999
0
LINE
8
BLACK
6
CONTINUOUS
10
239.2083319999999844
20
-91.737639999999999
11
239.235367999999994
21
-91.7264409999999941
0
LINE
8
BLACK
6
CONTINUOUS
10
239.235367999999994
20
-91.7264409999999941
11
239.2646319999999776
21
-91.7264409999999941
0
LINE
8
BLACK
6
CONTINUOUS
10
239.2646319999999776
20
-91.7264409999999941
11
239.2916679999999872
21
-91.737639999999999
0
LINE
8
BLACK
6
CONTINUOUS
10
183.9116679999999917
20
-83.9376400000000018
11
183.9323599999999885
21
-83.9583319999999986
0
LINE
8
BLACK
6
CONTINUOUS
10
183.9323599999999885
20
-83.9583319999999986
11
183.9435589999999934
21
-83.985367999999994
0
LINE
8
BLACK
6
CONTINUOUS
10
183.9435589999999934
20
-83.985367999999994
11
183.9449999999999932
21
-84.
0
LINE
8
BLACK
6
CONTINUOUS
10
183.9449999999999932
20
-84.
11
183.9449999999999932
21
-84.9249999999999972
0
LINE
8
BLACK
6
CONTINUOUS
10
183.9449999999999932
20
-84.9249999999999972
11
184.8700000000000045
21
-84.9249999999999972
0
LINE
8
BLACK
6
CONTINUOUS
10
184.8700000000000045
20
-84.9249999999999972
11
184.8846319999999821
21
-84.926440999999997
0
LINE
8
BLACK
6
CONTINUOUS
10
184.8846319999999821
20
-84.926440999999997
11
184.9116679999999917
21
-84.9376400000000018
0
LINE
8
BLACK
6
CONTINUOUS
10
184.9116679999999917
20
-84.9376400000000018
11
184.9323599999999885
21
-84.9583319999999986
0
LINE
8
BLACK
6
CONTINUOUS
10
184.9323599999999885
20
-84.9583319999999986
11
184.9435589999999934
21
-84.985367999999994
0
LINE
8
BLACK
6
CONTINUOUS
10
184.9435589999999934
20
-84.985367999999994
11
184.9435589999999934
21
-85.0146319999999918
0
LINE
8
BLACK
6
CONTINUOUS
10
184.9435589999999934
20
-85.0146319999999918
11
184.9323599999999885
21
-85.0416680000000014
0
LINE
8
BLACK
6
CONTINUOUS
10
184.9323599999999885
20
-85.0416680000000014
11
184.9116679999999917
21
-85.0623599999999982
0
LINE
8
BLACK
6
CONTINUOUS
10
184.9116679999999917
20
-85.0623599999999982
11
184.8846319999999821
21
-85.073559000000003
0
LINE
8
BLACK
6
CONTINUOUS
10
184.8846319999999821
20
-85.073559000000003
11
184.8700000000000045
21
-85.0750000000000028
0
LINE
8
BLACK
6
CONTINUOUS
10
184.8700000000000045
20
-85.0750000000000028
11
183.8700000000000045
21
-85.0750000000000028
0
LINE
8
BLACK
6
CONTINUOUS
10
183.8700000000000045
20
-85.0750000000000028
11
183.8553679999999986
21
-85.073559000000003
0
LINE
8
BLACK
6
CONTINUOUS
10
183.8553679999999986
20
-85.073559000000003
11
183.828331999999989
21
-85.0623599999999982
0
LINE
8
BLACK
6
CONTINUOUS
10
183.828331999999989
20
-85.0623599999999982
11
183.8076399999999921
21
-85.0416680000000014
0
LINE
8
BLACK
6
CONTINUOUS
10
183.8076399999999921
20
-85.0416680000000014
11
183.7964409999999873
21
-85.0146319999999918
0
LINE
8
BLACK
6
CONTINUOUS
10
183.7964409999999873
20
-85.0146319999999918
11
183.7949999999999875
21
-85.
0
LINE
8
BLACK
6
CONTINUOUS
10
183.7949999999999875
20
-85.
11
183.7949999999999875
21
-84.
0
LINE
8
BLACK
6
CONTINUOUS
10
183.7949999999999875
20
-84.
11
183.7964409999999873
21
-83.985367999999994
0
LINE
8
BLACK
6
CONTINUOUS
10
183.7964409999999873
20
-83.985367999999994
11
183.8076399999999921
21
-83.9583319999999986
0
LINE
8
BLACK
6
CONTINUOUS
10
183.8076399999999921
20
-83.9583319999999986
11
183.828331999999989
21
-83.9376400000000018
0
LINE
8
BLACK
6
CONTINUOUS
10
183.828331999999989
20
-83.9376400000000018
11
183.8553679999999986
21
-83.926440999999997
0
LINE
8
BLACK
6
CONTINUOUS
10
183.8553679999999986
20
-83.926440999999997
11
183.8846319999999821
21
-83.926440999999997
0
LINE
8
BLACK
6
CONTINUOUS
10
183.8846319999999821
20
-83.926440999999997
11
183.9116679999999917
21
-83.9376400000000018
0
LINE
8
BLACK
6
CONTINUOUS
10
197.9116679999999917
20
-83.9376400000000018
11
197.9323599999999885
21
-83.9583319999999986
0
LINE
8
BLACK
6
CONTINUOUS
10
197.9323599999999885
20
-83.9583319999999986
11
197.9435589999999934
21
-83.985367999999994
0
LINE
8
BLACK
6
CONTINUOUS
10
197.9435589999999934
20
-83.985367999999994
11
197.9449999999999932
21
-84.
0
LINE
8
BLACK
6
CONTINUOUS
10
197.9449999999999932
20
-84.
11
197.9449999999999932
21
-85.
0
LINE
8
BLACK
6
CONTINUOUS
10
197.9449999999999932
20
-85.
11
197.9435589999999934
21
-85.0146319999999918
0
LINE
8
BLACK
6
CONTINUOUS
10
197.9435589999999934
20
-85.0146319999999918
11
197.9323599999999885
21
-85.0416680000000014
0
LINE
8
BLACK
6
CONTINUOUS
10
197.9323599999999885
20
-85.0416680000000014
11
197.9116679999999917
21
-85.0623599999999982
0
LINE
8
BLACK
6
CONTINUOUS
10
197.9116679999999917
20
-85.0623599999999982
11
197.8846319999999821
21
-85.073559000000003
0
LINE
8
BLACK
6
CONTINUOUS
10
197.8846319999999821
20
-85.073559000000003
11
197.8700000000000045
21
-85.0750000000000028
0
LINE
8
BLACK
6
CONTINUOUS
10
197.8700000000000045
20
-85.0750000000000028
11
196.8700000000000045
21
-85.0750000000000028
0
LINE
8
BLACK
6
CONTINUOUS
10
196.8700000000000045
20
-85.0750000000000028
11
196.8553679999999986
21
-85.073559000000003
0
LINE
8
BLACK
6
CONTINUOUS
10
196.8553679999999986
20
-85.073559000000003
11
196.828331999999989
21
-85.0623599999999982
0
LINE
8
BLACK
6
CONTINUOUS
10
196.828331999999989
20
-85.0623599999999982
11
196.8076399999999921
21
-85.0416680000000014
0
LINE
8
BLACK
6
CONTINUOUS
10
196.8076399999999921
20
-85.0416680000000014
11
196.7964409999999873
21
-85.0146319999999918
0
LINE
8
BLACK
6
CONTINUOUS
10
196.7964409999999873
20
-85.0146319999999918
11
196.7964409999999873
21
-84.985367999999994
0
LINE
8
BLACK
6
CONTINUOUS
10
196.7964409999999873
20
-84.985367999999994
11
196.8076399999999921
21
-84.9583319999999986
0
LINE
8
BLACK
6
CONTINUOUS
10
196.8076399999999921
20
-84.9583319999999986
11
196.828331999999989
21
-84.9376400000000018
0
LINE
8
BLACK
6
CONTINUOUS
10
196.828331999999989
20
-84.9376400000000018
11
196.8553679999999986
21
-84.926440999999997
0
LINE
8
BLACK
6
CONTINUOUS
10
196.8553679999999986
20
-84.926440999999997
11
196.8700000000000045
21
-84.9249999999999972
0
LINE
8
BLACK
6
CONTINUOUS
10
196.8700000000000045
20
-84.9249999999999972
11
197.7949999999999875
21
-84.9249999999999972
0
LINE
8
BLACK
6
CONTINUOUS
10
197.7949999999999875
20
-84.9249999999999972
11
197.7949999999999875
21
-84.
0
LINE
8
BLACK
6
CONTINUOUS
10
197.7949999999999875
20
-84.
11
197.7964409999999873
21
-83.985367999999994
0
LINE
8
BLACK
6
CONTINUOUS
10
197.7964409999999873
20
-83.985367999999994
11
197.8076399999999921
21
-83.9583319999999986
0
LINE
8
BLACK
6
CONTINUOUS
10
197.8076399999999921
20
-83.9583319999999986
11
197.828331999999989
21
-83.9376400000000018
0
LINE
8
BLACK
6
CONTINUOUS
10
197.828331999999989
20
-83.9376400000000018
11
197.8553679999999986
21
-83.926440999999997
0
LINE
8
BLACK
6
CONTINUOUS
10
197.8553679999999986
20
-83.926440999999997
11
197.8846319999999821
21
-83.926440999999997
0
LINE
8
BLACK
6
CONTINUOUS
10
197.8846319999999821
20
-83.926440999999997
11
197.9116679999999917
21
-83.9376400000000018
0
LINE
8
BLACK
6
CONTINUOUS
10
204.5866680000000031
20
-83.9376400000000018
11
204.6073599999999999
21
-83.9583319999999986
0
LINE
8
BLACK
6
CONTINUOUS
10
204.6073599999999999
20
-83.9583319999999986
11
204.6185590000000047
21
-83.985367999999994
0
LINE
8
BLACK
6
CONTINUOUS
10
204.6185590000000047
20
-83.985367999999994
11
204.6200000000000045
21
-84.
0
LINE
8
BLACK
6
CONTINUOUS
10
204.6200000000000045
20
-84.
11
204.6200000000000045
21
-84.9249999999999972
0
LINE
8
BLACK
6
CONTINUOUS
10
204.6200000000000045
20
-84.9249999999999972
11
205.5449999999999875
21
-84.9249999999999972
0
LINE
8
BLACK
6
CONTINUOUS
10
205.5449999999999875
20
-84.9249999999999972
11
205.5596319999999935
21
-84.926440999999997
0
LINE
8
BLACK
6
CONTINUOUS
10
205.5596319999999935
20
-84.926440999999997
11
205.5866680000000031
21
-84.9376400000000018
0
LINE
8
BLACK
6
CONTINUOUS
10
205.5866680000000031
20
-84.9376400000000018
11
205.6073599999999999
21
-84.9583319999999986
0
LINE
8
BLACK
6
CONTINUOUS
10
205.6073599999999999
20
-84.9583319999999986
11
205.6185590000000047
21
-84.985367999999994
0
LINE
8
BLACK
6
CONTINUOUS
10
205.6185590000000047
20
-84.985367999999994
11
205.6185590000000047
21
-85.0146319999999918
0
LINE
8
BLACK
6
CONTINUOUS
10
205.6185590000000047
20
-85.0146319999999918
11
205.6073599999999999
21
-85.0416680000000014
0
LINE
8
BLACK
6
CONTINUOUS
10
205.6073599999999999
20
-85.0416680000000014
11
205.5866680000000031
21
-85.0623599999999982
0
LINE
8
BLACK
6
CONTINUOUS
10
205.5866680000000031
20
-85.0623599999999982
11
205.5596319999999935
21
-85.073559000000003
0
LINE
8
BLACK
6
CONTINUOUS
10
205.5596319999999935
20
-85.073559000000003
11
205.5449999999999875
21
-85.0750000000000028
0
LINE
8
BLACK
6
CONTINUOUS
10
205.5449999999999875
20
-85.0750000000000028
11
204.5449999999999875
21
-85.0750000000000028
0
LINE
8
BLACK
6
CONTINUOUS
10
204.5449999999999875
20
-85.0750000000000028
11
204.5303679999999815
21
-85.073559000000003
0
LINE
8
BLACK
6
CONTINUOUS
10
204.5303679999999815
20
-85.073559000000003
11
204.5033320000000003
21
-85.0623599999999982
0
LINE
8
BLACK
6
CONTINUOUS
10
204.5033320000000003
20
-85.0623599999999982
11
204.4826400000000035
21
-85.0416680000000014
0
LINE
8
BLACK
6
CONTINUOUS
10
204.4826400000000035
20
-85.0416680000000014
11
204.4714409999999987
21
-85.0146319999999918
0
LINE
8
BLACK
6
CONTINUOUS
10
204.4714409999999987
20
-85.0146319999999918
11
204.4699999999999989
21
-85.
0
LINE
8
BLACK
6
CONTINUOUS
10
204.4699999999999989
20
-85.
11
204.4699999999999989
21
-84.
0
LINE
8
BLACK
6
CONTINUOUS
10
204.4699999999999989
20
-84.
11
204.4714409999999987
21
-83.985367999999994
0
LINE
8
BLACK
6
CONTINUOUS
10
204.4714409999999987
20
-83.985367999999994
11
204.4826400000000035
21
-83.9583319999999986
0
LINE
8
BLACK
6
CONTINUOUS
10
204.4826400000000035
20
-83.9583319999999986
11
204.5033320000000003
21
-83.9376400000000018
0
LINE
8
BLACK
6
CONTINUOUS
10
204.5033320000000003
20
-83.9376400000000018
11
204.5303679999999815
21
-83.926440999999997
0
LINE
8
BLACK
6
CONTINUOUS
10
204.5303679999999815
20
-83.926440999999997
11
204.5596319999999935
21
-83.926440999999997
0
LINE
8
BLACK
6
CONTINUOUS
10
204.5596319999999935
20
-83.926440999999997
11
204.5866680000000031
21
-83.9376400000000018
0
LINE
8
BLACK
6
CONTINUOUS
10
218.5866680000000031
20
-83.9376400000000018
11
218.6073599999999999
21
-83.9583319999999986
0
LINE
8
BLACK
6
CONTINUOUS
10
218.6073599999999999
20
-83.9583319999999986
11
218.6185589999999763
21
-83.985367999999994
0
LINE
8
BLACK
6
CONTINUOUS
10
218.6185589999999763
20
-83.985367999999994
11
218.6199999999999761
21
-84.
0
LINE
8
BLACK
6
CONTINUOUS
10
218.6199999999999761
20
-84.
11
218.6199999999999761
21
-85.
0
LINE
8
BLACK
6
CONTINUOUS
10
218.6199999999999761
20
-85.
11
218.6185589999999763
21
-85.0146319999999918
0
LINE
8
BLACK
6
CONTINUOUS
10
218.6185589999999763
20
-85.0146319999999918
11
218.6073599999999999
21
-85.0416680000000014
0
LINE
8
BLACK
6
CONTINUOUS
10
218.6073599999999999
20
-85.0416680000000014
11
218.5866680000000031
21
-85.0623599999999982
0
LINE
8
BLACK
6
CONTINUOUS
10
218.5866680000000031
20
-85.0623599999999982
11
218.5596319999999935
21
-85.073559000000003
0
LINE
8
BLACK
6
CONTINUOUS
10
218.5596319999999935
20
-85.073559000000003
11
218.5449999999999875
21
-85.0750000000000028
0
LINE
8
BLACK
6
CONTINUOUS
10
218.5449999999999875
20
-85.0750000000000028
11
217.5449999999999875
21
-85.0750000000000028
0
LINE
8
BLACK
6
CONTINUOUS
10
217.5449999999999875
20
-85.0750000000000028
11
217.5303679999999815
21
-85.073559000000003
0
LINE
8
BLACK
6
CONTINUOUS
10
217.5303679999999815
20
-85.073559000000003
11
217.5033320000000003
21
-85.0623599999999982
0
LINE
8
BLACK
6
CONTINUOUS
10
217.5033320000000003
20
-85.0623599999999982
11
217.4826400000000035
21
-85.0416680000000014
0
LINE
8
BLACK
6
CONTINUOUS
10
217.4826400000000035
20
-85.0416680000000014
11
217.4714409999999987
21
-85.0146319999999918
0
LINE
8
BLACK
6
CONTINUOUS
10
217.4714409999999987
20
-85.0146319999999918
11
217.4714409999999987
21
-84.985367999999994
0
LINE
8
BLACK
6
CONTINUOUS
10
217.4714409999999987
20
-84.985367999999994
11
217.4826400000000035
21
-84.9583319999999986
0
LINE
8
BLACK
6
CONTINUOUS
10
217.4826400000000035
20
-84.9583319999999986
11
217.5033320000000003
21
-84.9376400000000018
0
LINE
8
BLACK
6
CONTINUOUS
10
217.5033320000000003
20
-84.9376400000000018
11
217.5303679999999815
21
-84.926440999999997
0
LINE
8
BLACK
6
CONTINUOUS
10
217.5303679999999815
20
-84.926440999999997
11
217.5449999999999875
21
-84.9249999999999972
0
LINE
8
BLACK
6
CONTINUOUS
10
217.5449999999999875
20
-84.9249999999999972
11
218.4699999999999989
21
-84.9249999999999972
0
LINE
8
BLACK
6
CONTINUOUS
10
218.4699999999999989
20
-84.9249999999999972
11
218.4699999999999989
21
-84.
0
LINE
8
BLACK
6
CONTINUOUS
10
218.4699999999999989
20
-84.
11
218.4714409999999987
21
-83.985367999999994
0
LINE
8
BLACK
6
CONTINUOUS
10
218.4714409999999987
20
-83.985367999999994
11
218.4826400000000035
21
-83.9583319999999986
0
LINE
8
BLACK
6
CONTINUOUS
10
218.4826400000000035
20
-83.9583319999999986
11
218.5033320000000003
21
-83.9376400000000018
0
LINE
8
BLACK
6
CONTINUOUS
10
218.5033320000000003
20
-83.9376400000000018
11
218.5303679999999815
21
-83.926440999999997
0
LINE
8
BLACK
6
CONTINUOUS
10
218.5303679999999815
20
-83.926440999999997
11
218.5596319999999935
21
-83.926440999999997
0
LINE
8
BLACK
6
CONTINUOUS
10
218.5596319999999935
20
-83.926440999999997
11
218.5866680000000031
21
-83.9376400000000018
0
LINE
8
BLACK
6
CONTINUOUS
10
164.304631999999998
20
-78.7264409999999941
11
164.3316679999999792
21
-78.737639999999999
0
LINE
8
BLACK
6
CONTINUOUS
10
164.3316679999999792
20
-78.737639999999999
11
164.3523600000000044
21
-78.7583319999999958
0
LINE
8
BLACK
6
CONTINUOUS
10
164.3523600000000044
20
-78.7583319999999958
11
164.3635589999999809
21
-78.7853679999999912
0
LINE
8
BLACK
6
CONTINUOUS
10
164.3635589999999809
20
-78.7853679999999912
11
164.3635589999999809
21
-78.8146320000000031
0
LINE
8
BLACK
6
CONTINUOUS
10
164.3635589999999809
20
-78.8146320000000031
11
164.3523600000000044
21
-78.8416679999999985
0
LINE
8
BLACK
6
CONTINUOUS
10
164.3523600000000044
20
-78.8416679999999985
11
164.3316679999999792
21
-78.8623599999999954
0
LINE
8
BLACK
6
CONTINUOUS
10
164.3316679999999792
20
-78.8623599999999954
11
164.304631999999998
21
-78.8735590000000002
0
LINE
8
BLACK
6
CONTINUOUS
10
164.304631999999998
20
-78.8735590000000002
11
164.289999999999992
21
-78.875
0
LINE
8
BLACK
6
CONTINUOUS
10
164.289999999999992
20
-78.875
11
163.3649999999999807
21
-78.875
0
LINE
8
BLACK
6
CONTINUOUS
10
163.3649999999999807
20
-78.875
11
163.3649999999999807
21
-79.7999999999999972
0
LINE
8
BLACK
6
CONTINUOUS
10
163.3649999999999807
20
-79.7999999999999972
11
163.3635589999999809
21
-79.8146320000000031
0
LINE
8
BLACK
6
CONTINUOUS
10
163.3635589999999809
20
-79.8146320000000031
11
163.3523600000000044
21
-79.8416679999999985
0
LINE
8
BLACK
6
CONTINUOUS
10
163.3523600000000044
20
-79.8416679999999985
11
163.3316679999999792
21
-79.8623599999999954
0
LINE
8
BLACK
6
CONTINUOUS
10
163.3316679999999792
20
-79.8623599999999954
11
163.304631999999998
21
-79.8735590000000002
0
LINE
8
BLACK
6
CONTINUOUS
10
163.304631999999998
20
-79.8735590000000002
11
163.2753679999999861
21
-79.8735590000000002
0
LINE
8
BLACK
6
CONTINUOUS
10
163.2753679999999861
20
-79.8735590000000002
11
163.2483320000000049
21
-79.8623599999999954
0
LINE
8
BLACK
6
CONTINUOUS
10
163.2483320000000049
20
-79.8623599999999954
11
163.2276399999999796
21
-79.8416679999999985
0
LINE
8
BLACK
6
CONTINUOUS
10
163.2276399999999796
20
-79.8416679999999985
11
163.2164410000000032
21
-79.8146320000000031
0
LINE
8
BLACK
6
CONTINUOUS
10
163.2164410000000032
20
-79.8146320000000031
11
163.2150000000000034
21
-79.7999999999999972
0
LINE
8
BLACK
6
CONTINUOUS
10
163.2150000000000034
20
-79.7999999999999972
11
163.2150000000000034
21
-78.7999999999999972
0
LINE
8
BLACK
6
CONTINUOUS
10
163.2150000000000034
20
-78.7999999999999972
11
163.2164410000000032
21
-78.7853679999999912
0
LINE
8
BLACK
6
CONTINUOUS
10
163.2164410000000032
20
-78.7853679999999912
11
163.2276399999999796
21
-78.7583319999999958
0
LINE
8
BLACK
6
CONTINUOUS
10
163.2276399999999796
20
-78.7583319999999958
11
163.2483320000000049
21
-78.737639999999999
0
LINE
8
BLACK
6
CONTINUOUS
10
163.2483320000000049
20
-78.737639999999999
11
163.2753679999999861
21
-78.7264409999999941
0
LINE
8
BLACK
6
CONTINUOUS
10
163.2753679999999861
20
-78.7264409999999941
11
163.289999999999992
21
-78.7249999999999943
0
LINE
8
BLACK
6
CONTINUOUS
10
163.289999999999992
20
-78.7249999999999943
11
164.289999999999992
21
-78.7249999999999943
0
LINE
8
BLACK
6
CONTINUOUS
10
164.289999999999992
20
-78.7249999999999943
11
164.304631999999998
21
-78.7264409999999941
0
LINE
8
BLACK
6
CONTINUOUS
10
177.304631999999998
20
-78.7264409999999941
11
177.3316679999999792
21
-78.737639999999999
0
LINE
8
BLACK
6
CONTINUOUS
10
177.3316679999999792
20
-78.737639999999999
11
177.3523600000000044
21
-78.7583319999999958
0
LINE
8
BLACK
6
CONTINUOUS
10
177.3523600000000044
20
-78.7583319999999958
11
177.3635589999999809
21
-78.7853679999999912
0
LINE
8
BLACK
6
CONTINUOUS
10
177.3635589999999809
20
-78.7853679999999912
11
177.3649999999999807
21
-78.7999999999999972
0
LINE
8
BLACK
6
CONTINUOUS
10
177.3649999999999807
20
-78.7999999999999972
11
177.3649999999999807
21
-79.7999999999999972
0
LINE
8
BLACK
6
CONTINUOUS
10
177.3649999999999807
20
-79.7999999999999972
11
177.3635589999999809
21
-79.8146320000000031
0
LINE
8
BLACK
6
CONTINUOUS
10
177.3635589999999809
20
-79.8146320000000031
11
177.3523600000000044
21
-79.8416679999999985
0
LINE
8
BLACK
6
CONTINUOUS
10
177.3523600000000044
20
-79.8416679999999985
11
177.3316679999999792
21
-79.8623599999999954
0
LINE
8
BLACK
6
CONTINUOUS
10
177.3316679999999792
20
-79.8623599999999954
11
177.304631999999998
21
-79.8735590000000002
0
LINE
8
BLACK
6
CONTINUOUS
10
177.304631999999998
20
-79.8735590000000002
11
177.2753679999999861
21
-79.8735590000000002
0
LINE
8
BLACK
6
CONTINUOUS
10
177.2753679999999861
20
-79.8735590000000002
11
177.2483320000000049
21
-79.8623599999999954
0
LINE
8
BLACK
6
CONTINUOUS
10
177.2483320000000049
20
-79.8623599999999954
11
177.2276399999999796
21
-79.8416679999999985
0
LINE
8
BLACK
6
CONTINUOUS
10
177.2276399999999796
20
-79.8416679999999985
11
177.2164410000000032
21
-79.8146320000000031
0
LINE
8
BLACK
6
CONTINUOUS
10
177.2164410000000032
20
-79.8146320000000031
11
177.2150000000000034
21
-79.7999999999999972
0
LINE
8
BLACK
6
CONTINUOUS
10
177.2150000000000034
20
-79.7999999999999972
11
177.2150000000000034
21
-78.875
0
LINE
8
BLACK
6
CONTINUOUS
10
177.2150000000000034
20
-78.875
11
176.289999999999992
21
-78.875
0
LINE
8
BLACK
6
CONTINUOUS
10
176.289999999999992
20
-78.875
11
176.2753679999999861
21
-78.8735590000000002
0
LINE
8
BLACK
6
CONTINUOUS
10
176.2753679999999861
20
-78.8735590000000002
11
176.2483320000000049
21
-78.8623599999999954
0
LINE
8
BLACK
6
CONTINUOUS
10
176.2483320000000049
20
-78.8623599999999954
11
176.2276399999999796
21
-78.8416679999999985
0
LINE
8
BLACK
6
CONTINUOUS
10
176.2276399999999796
20
-78.8416679999999985
11
176.2164410000000032
21
-78.8146320000000031
0
LINE
8
BLACK
6
CONTINUOUS
10
176.2164410000000032
20
-78.8146320000000031
11
176.2164410000000032
21
-78.7853679999999912
0
LINE
8
BLACK
6
CONTINUOUS
10
176.2164410000000032
20
-78.7853679999999912
11
176.2276399999999796
21
-78.7583319999999958
0
LINE
8
BLACK
6
CONTINUOUS
10
176.2276399999999796
20
-78.7583319999999958
11
176.2483320000000049
21
-78.737639999999999
0
LINE
8
BLACK
6
CONTINUOUS
10
176.2483320000000049
20
-78.737639999999999
11
176.2753679999999861
21
-78.7264409999999941
0
LINE
8
BLACK
6
CONTINUOUS
10
176.2753679999999861
20
-78.7264409999999941
11
176.289999999999992
21
-78.7249999999999943
0
LINE
8
BLACK
6
CONTINUOUS
10
176.289999999999992
20
-78.7249999999999943
11
177.289999999999992
21
-78.7249999999999943
0
LINE
8
BLACK
6
CONTINUOUS
10
177.289999999999992
20
-78.7249999999999943
11
177.304631999999998
21
-78.7264409999999941
0
LINE
8
BLACK
6
CONTINUOUS
10
226.2646319999999776
20
-78.7264409999999941
11
226.2916679999999872
21
-78.737639999999999
0
LINE
8
BLACK
6
CONTINUOUS
10
226.2916679999999872
20
-78.737639999999999
11
226.312359999999984
21
-78.7583319999999958
0
LINE
8
BLACK
6
CONTINUOUS
10
226.312359999999984
20
-78.7583319999999958
11
226.3235589999999888
21
-78.7853679999999912
0
LINE
8
BLACK
6
CONTINUOUS
10
226.3235589999999888
20
-78.7853679999999912
11
226.3235589999999888
21
-78.8146320000000031
0
LINE
8
BLACK
6
CONTINUOUS
10
226.3235589999999888
20
-78.8146320000000031
11
226.312359999999984
21
-78.8416679999999985
0
LINE
8
BLACK
6
CONTINUOUS
10
226.312359999999984
20
-78.8416679999999985
11
226.2916679999999872
21
-78.8623599999999954
0
LINE
8
BLACK
6
CONTINUOUS
10
226.2916679999999872
20
-78.8623599999999954
11
226.2646319999999776
21
-78.8735590000000002
0
LINE
8
BLACK
6
CONTINUOUS
10
226.2646319999999776
20
-78.8735590000000002
11
226.25
21
-78.875
0
LINE
8
BLACK
6
CONTINUOUS
10
226.25
20
-78.875
11
225.3249999999999886
21
-78.875
0
LINE
8
BLACK
6
CONTINUOUS
10
225.3249999999999886
20
-78.875
11
225.3249999999999886
21
-79.7999999999999972
0
LINE
8
BLACK
6
CONTINUOUS
10
225.3249999999999886
20
-79.7999999999999972
11
225.3235589999999888
21
-79.8146320000000031
0
LINE
8
BLACK
6
CONTINUOUS
10
225.3235589999999888
20
-79.8146320000000031
11
225.312359999999984
21
-79.8416679999999985
0
LINE
8
BLACK
6
CONTINUOUS
10
225.312359999999984
20
-79.8416679999999985
11
225.2916679999999872
21
-79.8623599999999954
0
LINE
8
BLACK
6
CONTINUOUS
10
225.2916679999999872
20
-79.8623599999999954
11
225.2646319999999776
21
-79.8735590000000002
0
LINE
8
BLACK
6
CONTINUOUS
10
225.2646319999999776
20
-79.8735590000000002
11
225.235367999999994
21
-79.8735590000000002
0
LINE
8
BLACK
6
CONTINUOUS
10
225.235367999999994
20
-79.8735590000000002
11
225.2083319999999844
21
-79.8623599999999954
0
LINE
8
BLACK
6
CONTINUOUS
10
225.2083319999999844
20
-79.8623599999999954
11
225.1876399999999876
21
-79.8416679999999985
0
LINE
8
BLACK
6
CONTINUOUS
10
225.1876399999999876
20
-79.8416679999999985
11
225.1764409999999828
21
-79.8146320000000031
0
LINE
8
BLACK
6
CONTINUOUS
10
225.1764409999999828
20
-79.8146320000000031
11
225.1749999999999829
21
-79.7999999999999972
0
LINE
8
BLACK
6
CONTINUOUS
10
225.1749999999999829
20
-79.7999999999999972
11
225.1749999999999829
21
-78.7999999999999972
0
LINE
8
BLACK
6
CONTINUOUS
10
225.1749999999999829
20
-78.7999999999999972
11
225.1764409999999828
21
-78.7853679999999912
0
LINE
8
BLACK
6
CONTINUOUS
10
225.1764409999999828
20
-78.7853679999999912
11
225.1876399999999876
21
-78.7583319999999958
0
LINE
8
BLACK
6
CONTINUOUS
10
225.1876399999999876
20
-78.7583319999999958
11
225.2083319999999844
21
-78.737639999999999
0
LINE
8
BLACK
6
CONTINUOUS
10
225.2083319999999844
20
-78.737639999999999
11
225.235367999999994
21
-78.7264409999999941
0
LINE
8
BLACK
6
CONTINUOUS
10
225.235367999999994
20
-78.7264409999999941
11
225.25
21
-78.7249999999999943
0
LINE
8
BLACK
6
CONTINUOUS
10
225.25
20
-78.7249999999999943
11
226.25
21
-78.7249999999999943
0
LINE
8
BLACK
6
CONTINUOUS
10
226.25
20
-78.7249999999999943
11
226.2646319999999776
21
-78.7264409999999941
0
LINE
8
BLACK
6
CONTINUOUS
10
239.2646319999999776
20
-78.7264409999999941
11
239.2916679999999872
21
-78.737639999999999
0
LINE
8
BLACK
6
CONTINUOUS
10
239.2916679999999872
20
-78.737639999999999
11
239.312359999999984
21
-78.7583319999999958
0
LINE
8
BLACK
6
CONTINUOUS
10
239.312359999999984
20
-78.7583319999999958
11
239.3235589999999888
21
-78.7853679999999912
0
LINE
8
BLACK
6
CONTINUOUS
10
239.3235589999999888
20
-78.7853679999999912
11
239.3249999999999886
21
-78.7999999999999972
0
LINE
8
BLACK
6
CONTINUOUS
10
239.3249999999999886
20
-78.7999999999999972
11
239.3249999999999886
21
-79.7999999999999972
0
LINE
8
BLACK
6
CONTINUOUS
10
239.3249999999999886
20
-79.7999999999999972
11
239.3235589999999888
21
-79.8146320000000031
0
LINE
8
BLACK
6
CONTINUOUS
10
239.3235589999999888
20
-79.8146320000000031
11
239.312359999999984
21
-79.8416679999999985
0
LINE
8
BLACK
6
CONTINUOUS
10
239.312359999999984
20
-79.8416679999999985
11
239.2916679999999872
21
-79.8623599999999954
0
LINE
8
BLACK
6
CONTINUOUS
10
239.2916679999999872
20
-79.8623599999999954
11
239.2646319999999776
21
-79.8735590000000002
0
LINE
8
BLACK
6
CONTINUOUS
10
239.2646319999999776
20
-79.8735590000000002
11
239.235367999999994
21
-79.8735590000000002
0
LINE
8
BLACK
6
CONTINUOUS
10
239.235367999999994
20
-79.8735590000000002
11
239.2083319999999844
21
-79.8623599999999954
0
LINE
8
BLACK
6
CONTINUOUS
10
239.2083319999999844
20
-79.8623599999999954
11
239.1876399999999876
21
-79.8416679999999985
0
LINE
8
BLACK
6
CONTINUOUS
10
239.1876399999999876
20
-79.8416679999999985
11
239.1764409999999828
21
-79.8146320000000031
0
LINE
8
BLACK
6
CONTINUOUS
10
239.1764409999999828
20
-79.8146320000000031
11
239.1749999999999829
21
-79.7999999999999972
0
LINE
8
BLACK
6
CONTINUOUS
10
239.1749999999999829
20
-79.7999999999999972
11
239.1749999999999829
21
-78.875
0
LINE
8
BLACK
6
CONTINUOUS
10
239.1749999999999829
20
-78.875
11
238.25
21
-78.875
0
LINE
8
BLACK
6
CONTINUOUS
10
238.25
20
-78.875
11
238.235367999999994
21
-78.8735590000000002
0
LINE
8
BLACK
6
CONTINUOUS
10
238.235367999999994
20
-78.8735590000000002
11
238.2083319999999844
21
-78.8623599999999954
0
LINE
8
BLACK
6
CONTINUOUS
10
238.2083319999999844
20
-78.8623599999999954
11
238.1876399999999876
21
-78.8416679999999985
0
LINE
8
BLACK
6
CONTINUOUS
10
238.1876399999999876
20
-78.8416679999999985
11
238.1764409999999828
21
-78.8146320000000031
0
LINE
8
BLACK
6
CONTINUOUS
10
238.1764409999999828
20
-78.8146320000000031
11
238.1764409999999828
21
-78.7853679999999912
0
LINE
8
BLACK
6
CONTINUOUS
10
238.1764409999999828
20
-78.7853679999999912
11
238.1876399999999876
21
-78.7583319999999958
0
LINE
8
BLACK
6
CONTINUOUS
10
238.1876399999999876
20
-78.7583319999999958
11
238.2083319999999844
21
-78.737639999999999
0
LINE
8
BLACK
6
CONTINUOUS
10
238.2083319999999844
20
-78.737639999999999
11
238.235367999999994
21
-78.7264409999999941
0
LINE
8
BLACK
6
CONTINUOUS
10
238.235367999999994
20
-78.7264409999999941
11
238.25
21
-78.7249999999999943
0
LINE
8
BLACK
6
CONTINUOUS
10
238.25
20
-78.7249999999999943
11
239.25
21
-78.7249999999999943
0
LINE
8
BLACK
6
CONTINUOUS
10
239.25
20
-78.7249999999999943
11
239.2646319999999776
21
-78.7264409999999941
0
LINE
8
BLACK
6
CONTINUOUS
10
184.8846319999999821
20
-70.926440999999997
11
184.9116679999999917
21
-70.9376400000000018
0
LINE
8
BLACK
6
CONTINUOUS
10
184.9116679999999917
20
-70.9376400000000018
11
184.9323599999999885
21
-70.9583319999999986
0
LINE
8
BLACK
6
CONTINUOUS
10
184.9323599999999885
20
-70.9583319999999986
11
184.9435589999999934
21
-70.985367999999994
0
LINE
8
BLACK
6
CONTINUOUS
10
184.9435589999999934
20
-70.985367999999994
11
184.9435589999999934
21
-71.0146319999999918
0
LINE
8
BLACK
6
CONTINUOUS
10
184.9435589999999934
20
-71.0146319999999918
11
184.9323599999999885
21
-71.0416680000000014
0
LINE
8
BLACK
6
CONTINUOUS
10
184.9323599999999885
20
-71.0416680000000014
11
184.9116679999999917
21
-71.0623599999999982
0
LINE
8
BLACK
6
CONTINUOUS
10
184.9116679999999917
20
-71.0623599999999982
11
184.8846319999999821
21
-71.073559000000003
0
LINE
8
BLACK
6
CONTINUOUS
10
184.8846319999999821
20
-71.073559000000003
11
184.8700000000000045
21
-71.0750000000000028
0
LINE
8
BLACK
6
CONTINUOUS
10
184.8700000000000045
20
-71.0750000000000028
11
183.9449999999999932
21
-71.0750000000000028
0
LINE
8
BLACK
6
CONTINUOUS
10
183.9449999999999932
20
-71.0750000000000028
11
183.9449999999999932
21
-72.
0
LINE
8
BLACK
6
CONTINUOUS
10
183.9449999999999932
20
-72.
11
183.9435589999999934
21
-72.0146319999999918
0
LINE
8
BLACK
6
CONTINUOUS
10
183.9435589999999934
20
-72.0146319999999918
11
183.9323599999999885
21
-72.0416680000000014
0
LINE
8
BLACK
6
CONTINUOUS
10
183.9323599999999885
20
-72.0416680000000014
11
183.9116679999999917
21
-72.0623599999999982
0
LINE
8
BLACK
6
CONTINUOUS
10
183.9116679999999917
20
-72.0623599999999982
11
183.8846319999999821
21
-72.073559000000003
0
LINE
8
BLACK
6
CONTINUOUS
10
183.8846319999999821
20
-72.073559000000003
11
183.8553679999999986
21
-72.073559000000003
0
LINE
8
BLACK
6
CONTINUOUS
10
183.8553679999999986
20
-72.073559000000003
11
183.828331999999989
21
-72.0623599999999982
0
LINE
8
BLACK
6
CONTINUOUS
10
183.828331999999989
20
-72.0623599999999982
11
183.8076399999999921
21
-72.0416680000000014
0
LINE
8
BLACK
6
CONTINUOUS
10
183.8076399999999921
20
-72.0416680000000014
11
183.7964409999999873
21
-72.0146319999999918
0
LINE
8
BLACK
6
CONTINUOUS
10
183.7964409999999873
20
-72.0146319999999918
11
183.7949999999999875
21
-72.
0
LINE
8
BLACK
6
CONTINUOUS
10
183.7949999999999875
20
-72.
11
183.7949999999999875
21
-71.
0
LINE
8
BLACK
6
CONTINUOUS
10
183.7949999999999875
20
-71.
11
183.7964409999999873
21
-70.985367999999994
0
LINE
8
BLACK
6
CONTINUOUS
10
183.7964409999999873
20
-70.985367999999994
11
183.8076399999999921
21
-70.9583319999999986
0
LINE
8
BLACK
6
CONTINUOUS
10
183.8076399999999921
20
-70.9583319999999986
11
183.828331999999989
21
-70.9376400000000018
0
LINE
8
BLACK
6
CONTINUOUS
10
183.828331999999989
20
-70.9376400000000018
11
183.8553679999999986
21
-70.926440999999997
0
LINE
8
BLACK
6
CONTINUOUS
10
183.8553679999999986
20
-70.926440999999997
11
183.8700000000000045
21
-70.9249999999999972
0
LINE
8
BLACK
6
CONTINUOUS
10
183.8700000000000045
20
-70.9249999999999972
11
184.8700000000000045
21
-70.9249999999999972
0
LINE
8
BLACK
6
CONTINUOUS
10
184.8700000000000045
20
-70.9249999999999972
11
184.8846319999999821
21
-70.926440999999997
0
LINE
8
BLACK
6
CONTINUOUS
10
197.8846319999999821
20
-70.926440999999997
11
197.9116679999999917
21
-70.9376400000000018
0
LINE
8
BLACK
6
CONTINUOUS
10
197.9116679999999917
20
-70.9376400000000018
11
197.9323599999999885
21
-70.9583319999999986
0
LINE
8
BLACK
6
CONTINUOUS
10
197.9323599999999885
20
-70.9583319999999986
11
197.9435589999999934
21
-70.985367999999994
0
LINE
8
BLACK
6
CONTINUOUS
10
197.9435589999999934
20
-70.985367999999994
11
197.9449999999999932
21
-71.
0
LINE
8
BLACK
6
CONTINUOUS
10
197.9449999999999932
20
-71.
11
197.9449999999999932
21
-72.
0
LINE
8
BLACK
6
CONTINUOUS
10
197.9449999999999932
20
-72.
11
197.9435589999999934
21
-72.0146319999999918
0
LINE
8
BLACK
6
CONTINUOUS
10
197.9435589999999934
20
-72.0146319999999918
11
197.9323599999999885
21
-72.0416680000000014
0
LINE
8
BLACK
6
CONTINUOUS
10
197.9323599999999885
20
-72.0416680000000014
11
197.9116679999999917
21
-72.0623599999999982
0
LINE
8
BLACK
6
CONTINUOUS
10
197.9116679999999917
20
-72.0623599999999982
11
197.8846319999999821
21
-72.073559000000003
0
LINE
8
BLACK
6
CONTINUOUS
10
197.8846319999999821
20
-72.073559000000003
11
197.8553679999999986
21
-72.073559000000003
0
LINE
8
BLACK
6
CONTINUOUS
10
197.8553679999999986
20
-72.073559000000003
11
197.828331999999989
21
-72.0623599999999982
0
LINE
8
BLACK
6
CONTINUOUS
10
197.828331999999989
20
-72.0623599999999982
11
197.8076399999999921
21
-72.0416680000000014
0
LINE
8
BLACK
6
CONTINUOUS
10
197.8076399999999921
20
-72.0416680000000014
11
197.7964409999999873
21
-72.0146319999999918
0
LINE
8
BLACK
6
CONTINUOUS
10
197.7964409999999873
20
-72.0146319999999918
11
197.7949999999999875
21
-72.
0
LINE
8
BLACK
6
CONTINUOUS
10
197.7949999999999875
20
-72.
11
197.7949999999999875
21
-71.0750000000000028
0
LINE
8
BLACK
6
CONTINUOUS
10
197.7949999999999875
20
-71.0750000000000028
11
196.8700000000000045
21
-71.0750000000000028
0
LINE
8
BLACK
6
CONTINUOUS
10
196.8700000000000045
20
-71.0750000000000028
11
196.8553679999999986
21
-71.073559000000003
0
LINE
8
BLACK
6
CONTINUOUS
10
196.8553679999999986
20
-71.073559000000003
11
196.828331999999989
21
-71.0623599999999982
0
LINE
8
BLACK
6
CONTINUOUS
10
196.828331999999989
20
-71.0623599999999982
11
196.8076399999999921
21
-71.0416680000000014
0
LINE
8
BLACK
6
CONTINUOUS
10
196.8076399999999921
20
-71.0416680000000014
11
196.7964409999999873
21
-71.0146319999999918
0
LINE
8
BLACK
6
CONTINUOUS
10
196.7964409999999873
20
-71.0146319999999918
11
196.7964409999999873
21
-70.985367999999994
0
LINE
8
BLACK
6
CONTINUOUS
10
196.7964409999999873
20
-70.985367999999994
11
196.8076399999999921
21
-70.9583319999999986
0
LINE
8
BLACK
6
CONTINUOUS
10
196.8076399999999921
20
-70.9583319999999986
11
196.828331999999989
21
-70.9376400000000018
0
LINE
8
BLACK
6
CONTINUOUS
10
196.828331999999989
20
-70.9376400000000018
11
196.8553679999999986
21
-70.926440999999997
0
LINE
8
BLACK
6
CONTINUOUS
10
196.8553679999999986
20
-70.926440999999997
11
196.8700000000000045
21
-70.9249999999999972
0
LINE
8
BLACK
6
CONTINUOUS
10
196.8700000000000045
20
-70.9249999999999972
11
197.8700000000000045
21
-70.9249999999999972
0
LINE
8
BLACK
6
CONTINUOUS
10
197.8700000000000045
20
-70.9249999999999972
11
197.8846319999999821
21
-70.926440999999997
0
LINE
8
BLACK
6
CONTINUOUS
10
205.5596319999999935
20
-70.926440999999997
11
205.5866680000000031
21
-70.9376400000000018
0
LINE
8
BLACK
6
CONTINUOUS
10
205.5866680000000031
20
-70.9376400000000018
11
205.6073599999999999
21
-70.9583319999999986
0
LINE
8
BLACK
6
CONTINUOUS
10
205.6073599999999999
20
-70.9583319999999986
11
205.6185590000000047
21
-70.985367999999994
0
LINE
8
BLACK
6
CONTINUOUS
10
205.6185590000000047
20
-70.985367999999994
11
205.6185590000000047
21
-71.0146319999999918
0
LINE
8
BLACK
6
CONTINUOUS
10
205.6185590000000047
20
-71.0146319999999918
11
205.6073599999999999
21
-71.0416680000000014
0
LINE
8
BLACK
6
CONTINUOUS
10
205.6073599999999999
20
-71.0416680000000014
11
205.5866680000000031
21
-71.0623599999999982
0
LINE
8
BLACK
6
CONTINUOUS
10
205.5866680000000031
20
-71.0623599999999982
11
205.5596319999999935
21
-71.073559000000003
0
LINE
8
BLACK
6
CONTINUOUS
10
205.5596319999999935
20
-71.073559000000003
11
205.5449999999999875
21
-71.0750000000000028
0
LINE
8
BLACK
6
CONTINUOUS
10
205.5449999999999875
20
-71.0750000000000028
11
204.6200000000000045
21
-71.0750000000000028
0
LINE
8
BLACK
6
CONTINUOUS
10
204.6200000000000045
20
-71.0750000000000028
11
204.6200000000000045
21
-72.
0
LINE
8
BLACK
6
CONTINUOUS
10
204.6200000000000045
20
-72.
11
204.6185590000000047
21
-72.0146319999999918
0
LINE
8
BLACK
6
CONTINUOUS
10
204.6185590000000047
20
-72.0146319999999918
11
204.6073599999999999
21
-72.0416680000000014
0
LINE
8
BLACK
6
CONTINUOUS
10
204.6073599999999999
20
-72.0416680000000014
11
204.5866680000000031
21
-72.0623599999999982
0
LINE
8
BLACK
6
CONTINUOUS
10
204.5866680000000031
20
-72.0623599999999982
11
204.5596319999999935
21
-72.073559000000003
0
LINE
8
BLACK
6
CONTINUOUS
10
204.5596319999999935
20
-72.073559000000003
11
204.5303679999999815
21
-72.073559000000003
0
LINE
8
BLACK
6
CONTINUOUS
10
204.5303679999999815
20
-72.073559000000003
11
204.5033320000000003
21
-72.0623599999999982
0
LINE
8
BLACK
6
CONTINUOUS
10
204.5033320000000003
20
-72.0623599999999982
11
204.4826400000000035
21
-72.0416680000000014
0
LINE
8
BLACK
6
CONTINUOUS
10
204.4826400000000035
20
-72.0416680000000014
11
204.4714409999999987
21
-72.0146319999999918
0
LINE
8
BLACK
6
CONTINUOUS
10
204.4714409999999987
20
-72.0146319999999918
11
204.4699999999999989
21
-72.
0
LINE
8
BLACK
6
CONTINUOUS
10
204.4699999999999989
20
-72.
11
204.4699999999999989
21
-71.
0
LINE
8
BLACK
6
CONTINUOUS
10
204.4699999999999989
20
-71.
11
204.4714409999999987
21
-70.985367999999994
0
LINE
8
BLACK
6
CONTINUOUS
10
204.4714409999999987
20
-70.985367999999994
11
204.4826400000000035
21
-70.9583319999999986
0
LINE
8
BLACK
6
CONTINUOUS
10
204.4826400000000035
20
-70.9583319999999986
11
204.5033320000000003
21
-70.9376400000000018
0
LINE
8
BLACK
6
CONTINUOUS
10
204.5033320000000003
20
-70.9376400000000018
11
204.5303679999999815
21
-70.926440999999997
0
LINE
8
BLACK
6
CONTINUOUS
10
204.5303679999999815
20
-70.926440999999997
11
204.5449999999999875
21
-70.9249999999999972
0
LINE
8
BLACK
6
CONTINUOUS
10
204.5449999999999875
20
-70.9249999999999972
11
205.5449999999999875
21
-70.9249999999999972
0
LINE
8
BLACK
6
CONTINUOUS
10
205.5449999999999875
20
-70.9249999999999972
11
205.5596319999999935
21
-70.926440999999997
0
LINE
8
BLACK
6
CONTINUOUS
10
218.5596319999999935
20
-70.926440999999997
11
218.5866680000000031
21
-70.9376400000000018
0
LINE
8
BLACK
6
CONTINUOUS
10
218.5866680000000031
20
-70.9376400000000018
11
218.6073599999999999
21
-70.9583319999999986
0
LINE
8
BLACK
6
CONTINUOUS
10
218.6073599999999999
20
-70.9583319999999986
11
218.6185589999999763
21
-70.985367999999994
0
LINE
8
BLACK
6
CONTINUOUS
10
218.6185589999999763
20
-70.985367999999994
11
218.6199999999999761
21
-71.
0
LINE
8
BLACK
6
CONTINUOUS
10
218.6199999999999761
20
-71.
11
218.6199999999999761
21
-72.
0
LINE
8
BLACK
6
CONTINUOUS
10
218.6199999999999761
20
-72.
11
218.6185589999999763
21
-72.0146319999999918
0
LINE
8
BLACK
6
CONTINUOUS
10
218.6185589999999763
20
-72.0146319999999918
11
218.6073599999999999
21
-72.0416680000000014
0
LINE
8
BLACK
6
CONTINUOUS
10
218.6073599999999999
20
-72.0416680000000014
11
218.5866680000000031
21
-72.0623599999999982
0
LINE
8
BLACK
6
CONTINUOUS
10
218.5866680000000031
20
-72.0623599999999982
11
218.5596319999999935
21
-72.073559000000003
0
LINE
8
BLACK
6
CONTINUOUS
10
218.5596319999999935
20
-72.073559000000003
11
218.5303679999999815
21
-72.073559000000003
0
LINE
8
BLACK
6
CONTINUOUS
10
218.5303679999999815
20
-72.073559000000003
11
218.5033320000000003
21
-72.0623599999999982
0
LINE
8
BLACK
6
CONTINUOUS
10
218.5033320000000003
20
-72.0623599999999982
11
218.4826400000000035
21
-72.0416680000000014
0
LINE
8
BLACK
6
CONTINUOUS
10
218.4826400000000035
20
-72.0416680000000014
11
218.4714409999999987
21
-72.0146319999999918
0
LINE
8
BLACK
6
CONTINUOUS
10
218.4714409999999987
20
-72.0146319999999918
11
218.4699999999999989
21
-72.
0
LINE
8
BLACK
6
CONTINUOUS
10
218.4699999999999989
20
-72.
11
218.4699999999999989
21
-71.0750000000000028
0
LINE
8
BLACK
6
CONTINUOUS
10
218.4699999999999989
20
-71.0750000000000028
11
217.5449999999999875
21
-71.0750000000000028
0
LINE
8
BLACK
6
CONTINUOUS
10
217.5449999999999875
20
-71.0750000000000028
11
217.5303679999999815
21
-71.073559000000003
0
LINE
8
BLACK
6
CONTINUOUS
10
217.5303679999999815
20
-71.073559000000003
11
217.5033320000000003
21
-71.0623599999999982
0
LINE
8
BLACK
6
CONTINUOUS
10
217.5033320000000003
20
-71.0623599999999982
11
217.4826400000000035
21
-71.0416680000000014
0
LINE
8
BLACK
6
CONTINUOUS
10
217.4826400000000035
20
-71.0416680000000014
11
217.4714409999999987
21
-71.0146319999999918
0
LINE
8
BLACK
6
CONTINUOUS
10
217.4714409999999987
20
-71.0146319999999918
11
217.4714409999999987
21
-70.985367999999994
0
LINE
8
BLACK
6
CONTINUOUS
10
217.4714409999999987
20
-70.985367999999994
11
217.4826400000000035
21
-70.9583319999999986
0
LINE
8
BLACK
6
CONTINUOUS
10
217.4826400000000035
20
-70.9583319999999986
11
217.5033320000000003
21
-70.9376400000000018
0
LINE
8
BLACK
6
CONTINUOUS
10
217.5033320000000003
20
-70.9376400000000018
11
217.5303679999999815
21
-70.926440999999997
0
LINE
8
BLACK
6
CONTINUOUS
10
217.5303679999999815
20
-70.926440999999997
11
217.5449999999999875
21
-70.9249999999999972
0
LINE
8
BLACK
6
CONTINUOUS
10
217.5449999999999875
20
-70.9249999999999972
11
218.5449999999999875
21
-70.9249999999999972
0
LINE
8
BLACK
6
CONTINUOUS
10
218.5449999999999875
20
-70.9249999999999972
11
218.5596319999999935
21
-70.926440999999997
  0
ENDSEC
  0
EOF
