%TF.GenerationSoftware,KiCad,Pcbnew,9.0.0*%
%TF.CreationDate,2025-05-22T09:46:44-07:00*%
%TF.ProjectId,cinco-cinco,63696e63-6f2d-4636-996e-636f2e6b6963,rev?*%
%TF.SameCoordinates,Original*%
%TF.FileFunction,Profile,NP*%
%FSLAX46Y46*%
G04 Gerber Fmt 4.6, Leading zero omitted, Abs format (unit mm)*
G04 Created by KiCad (PCBNEW 9.0.0) date 2025-05-22 09:46:44*
%MOMM*%
%LPD*%
G01*
G04 APERTURE LIST*
%TA.AperFunction,Profile*%
%ADD10C,0.050000*%
%TD*%
G04 APERTURE END LIST*
D10*
X245630000Y-111032892D02*
X240900000Y-105160000D01*
X236970000Y-118000000D02*
X236997108Y-135992893D01*
X159997107Y-95002893D02*
G75*
G02*
X158997107Y-94002893I-7J999993D01*
G01*
X182052893Y-76032893D02*
X182047107Y-69927107D01*
X187030000Y-105010000D02*
X229310000Y-104990000D01*
X257079136Y-111990000D02*
X257060000Y-134130000D01*
X236970000Y-118000000D02*
G75*
G02*
X237970000Y-117000000I1000000J0D01*
G01*
X221027107Y-76962893D02*
G75*
G02*
X220027107Y-75962893I-7J999993D01*
G01*
X182047107Y-69927107D02*
G75*
G02*
X183047107Y-68927107I999993J7D01*
G01*
X182052893Y-76032893D02*
G75*
G02*
X181052893Y-77032893I-999993J-7D01*
G01*
X159000000Y-77980000D02*
X158997108Y-94002893D01*
X257052893Y-135982893D02*
G75*
G02*
X256052893Y-136982893I-999993J-7D01*
G01*
X240992892Y-77967107D02*
X240900000Y-105160000D01*
X237970000Y-117000000D02*
X240840000Y-117010000D01*
X256052893Y-136982892D02*
X237997107Y-136992893D01*
X222260000Y-96830000D02*
G75*
G02*
X219510000Y-96830000I-1375000J0D01*
G01*
X219510000Y-96830000D02*
G75*
G02*
X222260000Y-96830000I1375000J0D01*
G01*
X183047100Y-68927107D02*
X219022893Y-68987107D01*
X159000000Y-77980000D02*
G75*
G02*
X160000000Y-76980000I1000000J0D01*
G01*
X186052892Y-96017107D02*
X186030000Y-104010000D01*
X240838774Y-117010000D02*
X229310000Y-104990000D01*
X185052893Y-95017107D02*
G75*
G02*
X186052893Y-96017107I7J-999993D01*
G01*
X220022893Y-69987100D02*
X220027108Y-75962893D01*
X203815000Y-99980000D02*
G75*
G02*
X201065000Y-99980000I-1375000J0D01*
G01*
X201065000Y-99980000D02*
G75*
G02*
X203815000Y-99980000I1375000J0D01*
G01*
X219022893Y-68987107D02*
G75*
G02*
X220022893Y-69987107I7J-999993D01*
G01*
X159997100Y-95002893D02*
X185052900Y-95017107D01*
X184300000Y-90660000D02*
G75*
G02*
X181550000Y-90660000I-1375000J0D01*
G01*
X181550000Y-90660000D02*
G75*
G02*
X184300000Y-90660000I1375000J0D01*
G01*
X239992893Y-76967107D02*
G75*
G02*
X240992893Y-77967107I7J-999993D01*
G01*
X256080000Y-110990000D02*
G75*
G02*
X257080000Y-111990000I0J-1000000D01*
G01*
X187030493Y-105009999D02*
G75*
G02*
X186030001Y-104010000I-493J999999D01*
G01*
X160000000Y-76980000D02*
X181052900Y-77032893D01*
X252860000Y-115350000D02*
G75*
G02*
X250320000Y-115350000I-1270000J0D01*
G01*
X250320000Y-115350000D02*
G75*
G02*
X252860000Y-115350000I1270000J0D01*
G01*
X257060000Y-134130000D02*
X257052892Y-135982893D01*
X237997107Y-136992893D02*
G75*
G02*
X236997107Y-135992893I-7J999993D01*
G01*
X221020000Y-76960000D02*
X239992893Y-76967107D01*
X245630000Y-111032892D02*
X256080000Y-110990000D01*
M02*
