  0
SECTION
  2
HEADER
  9
$ANGBASE
  50
0.0
  9
$ANGDIR
  70
1
  9
$MEASUREMENT
  70
1
  0
ENDSEC
  0
SECTION
  2
TABLES
  0
TABLE
  2
LTYPE
  70
4
  0
LTYPE
  5
40F
  2
CONTINUOUS
  70
0
  3
Solid line
  72
65
  73
0
  40
0.0
  0
LTYPE
  5
410
  2
DASHDOT
 70
0
  3
Dash Dot ____ _ ____ _
 72
65
 73
4
 40
2.0
 49
1.25
 49
-0.25
 49
0.25
 49
-0.25
  0
LTYPE
  5
411
  2
DASHED
 70
0
  3
Dashed __ __ __ __ __
 72
65
 73
2
 40
0.75
 49
0.5
 49
-0.25
  0
LTYPE
  5
43B
  2
DOTTED
 70
0
  3
Dotted .  .  .  .
 72
65
 73
2
 40
0.2
 49
0.0
 49
-0.2
  0
ENDTAB
  0
TABLE
  2
STYLE
  70
4
  0
STYLE
  2
KICAD
  70
0
  40
0
  41
1
  42
1
  50
0
  71
0
  3
isocp.shx
  0
STYLE
  2
KICADB
  70
0
  40
0
  41
1
  42
1
  50
0
  71
0
  3
isocp.shx
  0
STYLE
  2
KICADI
  70
0
  40
0
  41
1
  42
1
  50
15
  71
0
  3
isocp.shx
  0
STYLE
  2
KICADBI
  70
0
  40
0
  41
1
  42
1
  50
15
  71
0
  3
isocp.shx
  0
ENDTAB
  0
TABLE
  2
LAYER
  70
1
  0
LAYER
  2
BLACK
  70
0
  62
7
  6
CONTINUOUS
  0
ENDTAB
  0
ENDSEC
  0
SECTION
  2
ENTITIES
0
LINE
8
BLACK
6
CONTINUOUS
10
251.8923119999999756
20
-114.0907809999999927
11
252.0855749999999773
21
-114.153576000000001
0
LINE
8
BLACK
6
CONTINUOUS
10
252.0855749999999773
20
-114.153576000000001
11
252.266635999999977
21
-114.2458309999999955
0
LINE
8
BLACK
6
CONTINUOUS
10
252.266635999999977
20
-114.2458309999999955
11
252.4310349999999801
21
-114.3652739999999994
0
LINE
8
BLACK
6
CONTINUOUS
10
252.4310349999999801
20
-114.3652739999999994
11
252.5747259999999983
21
-114.5089649999999892
0
LINE
8
BLACK
6
CONTINUOUS
10
252.5747259999999983
20
-114.5089649999999892
11
252.694168999999988
21
-114.6733639999999923
0
LINE
8
BLACK
6
CONTINUOUS
10
252.694168999999988
20
-114.6733639999999923
11
252.7864239999999825
21
-114.854424999999992
0
LINE
8
BLACK
6
CONTINUOUS
10
252.7864239999999825
20
-114.854424999999992
11
252.8492189999999766
21
-115.0476879999999937
0
LINE
8
BLACK
6
CONTINUOUS
10
252.8492189999999766
20
-115.0476879999999937
11
252.88100799999998
21
-115.2483949999999879
0
LINE
8
BLACK
6
CONTINUOUS
10
252.88100799999998
20
-115.2483949999999879
11
252.88100799999998
21
-115.4516050000000007
0
LINE
8
BLACK
6
CONTINUOUS
10
252.88100799999998
20
-115.4516050000000007
11
252.8492189999999766
21
-115.6523119999999949
0
LINE
8
BLACK
6
CONTINUOUS
10
252.8492189999999766
20
-115.6523119999999949
11
252.7864239999999825
21
-115.8455749999999966
0
LINE
8
BLACK
6
CONTINUOUS
10
252.7864239999999825
20
-115.8455749999999966
11
252.694168999999988
21
-116.0266359999999963
0
LINE
8
BLACK
6
CONTINUOUS
10
252.694168999999988
20
-116.0266359999999963
11
252.5747259999999983
21
-116.1910349999999994
0
LINE
8
BLACK
6
CONTINUOUS
10
252.5747259999999983
20
-116.1910349999999994
11
252.4310349999999801
21
-116.3347259999999892
0
LINE
8
BLACK
6
CONTINUOUS
10
252.4310349999999801
20
-116.3347259999999892
11
252.266635999999977
21
-116.4541689999999932
0
LINE
8
BLACK
6
CONTINUOUS
10
252.266635999999977
20
-116.4541689999999932
11
252.0855749999999773
21
-116.5464240000000018
0
LINE
8
BLACK
6
CONTINUOUS
10
252.0855749999999773
20
-116.5464240000000018
11
251.8923119999999756
21
-116.609218999999996
0
LINE
8
BLACK
6
CONTINUOUS
10
251.8923119999999756
20
-116.609218999999996
11
251.6916049999999814
21
-116.6410079999999994
0
LINE
8
BLACK
6
CONTINUOUS
10
251.6916049999999814
20
-116.6410079999999994
11
251.488394999999997
21
-116.6410079999999994
0
LINE
8
BLACK
6
CONTINUOUS
10
251.488394999999997
20
-116.6410079999999994
11
251.2876880000000028
21
-116.609218999999996
0
LINE
8
BLACK
6
CONTINUOUS
10
251.2876880000000028
20
-116.609218999999996
11
251.0944250000000011
21
-116.5464240000000018
0
LINE
8
BLACK
6
CONTINUOUS
10
251.0944250000000011
20
-116.5464240000000018
11
250.9133640000000014
21
-116.4541689999999932
0
LINE
8
BLACK
6
CONTINUOUS
10
250.9133640000000014
20
-116.4541689999999932
11
250.7489649999999983
21
-116.3347259999999892
0
LINE
8
BLACK
6
CONTINUOUS
10
250.7489649999999983
20
-116.3347259999999892
11
250.6052739999999801
21
-116.1910349999999994
0
LINE
8
BLACK
6
CONTINUOUS
10
250.6052739999999801
20
-116.1910349999999994
11
250.4858309999999904
21
-116.0266359999999963
0
LINE
8
BLACK
6
CONTINUOUS
10
250.4858309999999904
20
-116.0266359999999963
11
250.3935759999999959
21
-115.8455749999999966
0
LINE
8
BLACK
6
CONTINUOUS
10
250.3935759999999959
20
-115.8455749999999966
11
250.3307810000000018
21
-115.6523119999999949
0
LINE
8
BLACK
6
CONTINUOUS
10
250.3307810000000018
20
-115.6523119999999949
11
250.2989919999999984
21
-115.4516050000000007
0
LINE
8
BLACK
6
CONTINUOUS
10
250.2989919999999984
20
-115.4516050000000007
11
250.2989919999999984
21
-115.2520159999999976
0
LINE
8
BLACK
6
CONTINUOUS
10
250.2989919999999984
20
-115.2520159999999976
11
250.2989919999999984
21
-115.2483949999999879
0
LINE
8
BLACK
6
CONTINUOUS
10
250.2989919999999984
20
-115.2483949999999879
11
250.3307810000000018
21
-115.0476879999999937
0
LINE
8
BLACK
6
CONTINUOUS
10
250.3307810000000018
20
-115.0476879999999937
11
250.3935759999999959
21
-114.854424999999992
0
LINE
8
BLACK
6
CONTINUOUS
10
250.3935759999999959
20
-114.854424999999992
11
250.4858309999999904
21
-114.6733639999999923
0
LINE
8
BLACK
6
CONTINUOUS
10
250.4858309999999904
20
-114.6733639999999923
11
250.6052739999999801
21
-114.5089649999999892
0
LINE
8
BLACK
6
CONTINUOUS
10
250.6052739999999801
20
-114.5089649999999892
11
250.7489649999999983
21
-114.3652739999999994
0
LINE
8
BLACK
6
CONTINUOUS
10
250.7489649999999983
20
-114.3652739999999994
11
250.9133640000000014
21
-114.2458309999999955
0
LINE
8
BLACK
6
CONTINUOUS
10
250.9133640000000014
20
-114.2458309999999955
11
251.0944250000000011
21
-114.153576000000001
0
LINE
8
BLACK
6
CONTINUOUS
10
251.0944250000000011
20
-114.153576000000001
11
251.2876880000000028
21
-114.0907809999999927
0
LINE
8
BLACK
6
CONTINUOUS
10
251.2876880000000028
20
-114.0907809999999927
11
251.488394999999997
21
-114.0589919999999893
0
LINE
8
BLACK
6
CONTINUOUS
10
251.488394999999997
20
-114.0589919999999893
11
251.6916049999999814
21
-114.0589919999999893
0
LINE
8
BLACK
6
CONTINUOUS
10
251.6916049999999814
20
-114.0589919999999893
11
251.8923119999999756
21
-114.0907809999999927
0
LINE
8
BLACK
6
CONTINUOUS
10
250.3449999999999989
20
-115.4479839999999911
11
250.3756559999999922
21
-115.6415379999999971
0
LINE
8
BLACK
6
CONTINUOUS
10
250.3756559999999922
20
-115.6415379999999971
11
250.4362129999999809
21
-115.8279139999999927
0
LINE
8
BLACK
6
CONTINUOUS
10
250.4362129999999809
20
-115.8279139999999927
11
250.5251799999999776
21
-116.002521999999999
0
LINE
8
BLACK
6
CONTINUOUS
10
250.5251799999999776
20
-116.002521999999999
11
250.6403669999999977
21
-116.1610629999999986
0
LINE
8
BLACK
6
CONTINUOUS
10
250.6403669999999977
20
-116.1610629999999986
11
250.7789369999999849
21
-116.299633
0
LINE
8
BLACK
6
CONTINUOUS
10
250.7789369999999849
20
-116.299633
11
250.9374779999999987
21
-116.4148199999999918
0
LINE
8
BLACK
6
CONTINUOUS
10
250.9374779999999987
20
-116.4148199999999918
11
251.1120859999999766
21
-116.5037869999999884
0
LINE
8
BLACK
6
CONTINUOUS
10
251.1120859999999766
20
-116.5037869999999884
11
251.2984620000000007
21
-116.5643439999999913
0
LINE
8
BLACK
6
CONTINUOUS
10
251.2984620000000007
20
-116.5643439999999913
11
251.4920159999999782
21
-116.5949999999999989
0
LINE
8
BLACK
6
CONTINUOUS
10
251.4920159999999782
20
-116.5949999999999989
11
251.6879840000000002
21
-116.5949999999999989
0
LINE
8
BLACK
6
CONTINUOUS
10
251.6879840000000002
20
-116.5949999999999989
11
251.8815379999999777
21
-116.5643439999999913
0
LINE
8
BLACK
6
CONTINUOUS
10
251.8815379999999777
20
-116.5643439999999913
11
252.0679140000000018
21
-116.5037869999999884
0
LINE
8
BLACK
6
CONTINUOUS
10
252.0679140000000018
20
-116.5037869999999884
11
252.2425219999999797
21
-116.4148199999999918
0
LINE
8
BLACK
6
CONTINUOUS
10
252.2425219999999797
20
-116.4148199999999918
11
252.4010629999999935
21
-116.299633
0
LINE
8
BLACK
6
CONTINUOUS
10
252.4010629999999935
20
-116.299633
11
252.5396329999999807
21
-116.1610629999999986
0
LINE
8
BLACK
6
CONTINUOUS
10
252.5396329999999807
20
-116.1610629999999986
11
252.6548200000000008
21
-116.002521999999999
0
LINE
8
BLACK
6
CONTINUOUS
10
252.6548200000000008
20
-116.002521999999999
11
252.7437869999999975
21
-115.8279139999999927
0
LINE
8
BLACK
6
CONTINUOUS
10
252.7437869999999975
20
-115.8279139999999927
11
252.8043439999999862
21
-115.6415379999999971
0
LINE
8
BLACK
6
CONTINUOUS
10
252.8043439999999862
20
-115.6415379999999971
11
252.8349999999999795
21
-115.4479839999999911
0
LINE
8
BLACK
6
CONTINUOUS
10
252.8349999999999795
20
-115.4479839999999911
11
252.8349999999999795
21
-115.2520159999999976
0
LINE
8
BLACK
6
CONTINUOUS
10
252.8349999999999795
20
-115.2520159999999976
11
252.8043439999999862
21
-115.0584619999999916
0
LINE
8
BLACK
6
CONTINUOUS
10
252.8043439999999862
20
-115.0584619999999916
11
252.7437869999999975
21
-114.8720859999999959
0
LINE
8
BLACK
6
CONTINUOUS
10
252.7437869999999975
20
-114.8720859999999959
11
252.6548200000000008
21
-114.6974779999999896
0
LINE
8
BLACK
6
CONTINUOUS
10
252.6548200000000008
20
-114.6974779999999896
11
252.5396329999999807
21
-114.53893699999999
0
LINE
8
BLACK
6
CONTINUOUS
10
252.5396329999999807
20
-114.53893699999999
11
252.4010629999999935
21
-114.4003669999999886
0
LINE
8
BLACK
6
CONTINUOUS
10
252.4010629999999935
20
-114.4003669999999886
11
252.2425219999999797
21
-114.2851799999999969
0
LINE
8
BLACK
6
CONTINUOUS
10
252.2425219999999797
20
-114.2851799999999969
11
252.0679140000000018
21
-114.1962130000000002
0
LINE
8
BLACK
6
CONTINUOUS
10
252.0679140000000018
20
-114.1962130000000002
11
251.8815379999999777
21
-114.1356559999999973
0
LINE
8
BLACK
6
CONTINUOUS
10
251.8815379999999777
20
-114.1356559999999973
11
251.6879840000000002
21
-114.1049999999999898
0
LINE
8
BLACK
6
CONTINUOUS
10
251.6879840000000002
20
-114.1049999999999898
11
251.4920159999999782
21
-114.1049999999999898
0
LINE
8
BLACK
6
CONTINUOUS
10
251.4920159999999782
20
-114.1049999999999898
11
251.2984620000000007
21
-114.1356559999999973
0
LINE
8
BLACK
6
CONTINUOUS
10
251.2984620000000007
20
-114.1356559999999973
11
251.1120859999999766
21
-114.1962130000000002
0
LINE
8
BLACK
6
CONTINUOUS
10
251.1120859999999766
20
-114.1962130000000002
11
250.9374779999999987
21
-114.2851799999999969
0
LINE
8
BLACK
6
CONTINUOUS
10
250.9374779999999987
20
-114.2851799999999969
11
250.7789369999999849
21
-114.4003669999999886
0
LINE
8
BLACK
6
CONTINUOUS
10
250.7789369999999849
20
-114.4003669999999886
11
250.6403669999999977
21
-114.53893699999999
0
LINE
8
BLACK
6
CONTINUOUS
10
250.6403669999999977
20
-114.53893699999999
11
250.5251799999999776
21
-114.6974779999999896
0
LINE
8
BLACK
6
CONTINUOUS
10
250.5251799999999776
20
-114.6974779999999896
11
250.4362129999999809
21
-114.8720859999999959
0
LINE
8
BLACK
6
CONTINUOUS
10
250.4362129999999809
20
-114.8720859999999959
11
250.3756559999999922
21
-115.0584619999999916
0
LINE
8
BLACK
6
CONTINUOUS
10
250.3756559999999922
20
-115.0584619999999916
11
250.3449999999999989
21
-115.2520159999999976
0
LINE
8
BLACK
6
CONTINUOUS
10
250.3449999999999989
20
-115.2520159999999976
11
250.3449999999999989
21
-115.4479839999999911
0
LINE
8
BLACK
6
CONTINUOUS
10
202.7668239999999855
20
-98.6186819999999926
11
202.9757569999999873
21
-98.6865689999999915
0
LINE
8
BLACK
6
CONTINUOUS
10
202.9757569999999873
20
-98.6865689999999915
11
203.1714979999999855
21
-98.7863040000000012
0
LINE
8
BLACK
6
CONTINUOUS
10
203.1714979999999855
20
-98.7863040000000012
11
203.3492269999999849
21
-98.9154319999999956
0
LINE
8
BLACK
6
CONTINUOUS
10
203.3492269999999849
20
-98.9154319999999956
11
203.5045679999999777
21
-99.0707729999999884
0
LINE
8
BLACK
6
CONTINUOUS
10
203.5045679999999777
20
-99.0707729999999884
11
203.6336959999999863
21
-99.248502000000002
0
LINE
8
BLACK
6
CONTINUOUS
10
203.6336959999999863
20
-99.248502000000002
11
203.7334309999999959
21
-99.4442430000000002
0
LINE
8
BLACK
6
CONTINUOUS
10
203.7334309999999959
20
-99.4442430000000002
11
203.8013179999999807
21
-99.653176000000002
0
LINE
8
BLACK
6
CONTINUOUS
10
203.8013179999999807
20
-99.653176000000002
11
203.8356839999999863
21
-99.8701569999999919
0
LINE
8
BLACK
6
CONTINUOUS
10
203.8356839999999863
20
-99.8701569999999919
11
203.8356839999999863
21
-100.0898430000000019
0
LINE
8
BLACK
6
CONTINUOUS
10
203.8356839999999863
20
-100.0898430000000019
11
203.8013179999999807
21
-100.3068239999999918
0
LINE
8
BLACK
6
CONTINUOUS
10
203.8013179999999807
20
-100.3068239999999918
11
203.7334309999999959
21
-100.5157569999999936
0
LINE
8
BLACK
6
CONTINUOUS
10
203.7334309999999959
20
-100.5157569999999936
11
203.6336959999999863
21
-100.7114979999999917
0
LINE
8
BLACK
6
CONTINUOUS
10
203.6336959999999863
20
-100.7114979999999917
11
203.5045679999999777
21
-100.8892269999999911
0
LINE
8
BLACK
6
CONTINUOUS
10
203.5045679999999777
20
-100.8892269999999911
11
203.3492269999999849
21
-101.0445679999999982
0
LINE
8
BLACK
6
CONTINUOUS
10
203.3492269999999849
20
-101.0445679999999982
11
203.1714979999999855
21
-101.1736959999999925
0
LINE
8
BLACK
6
CONTINUOUS
10
203.1714979999999855
20
-101.1736959999999925
11
202.9757569999999873
21
-101.2734310000000022
0
LINE
8
BLACK
6
CONTINUOUS
10
202.9757569999999873
20
-101.2734310000000022
11
202.7668239999999855
21
-101.3413180000000011
0
LINE
8
BLACK
6
CONTINUOUS
10
202.7668239999999855
20
-101.3413180000000011
11
202.5498429999999814
21
-101.3756839999999926
0
LINE
8
BLACK
6
CONTINUOUS
10
202.5498429999999814
20
-101.3756839999999926
11
202.3301569999999856
21
-101.3756839999999926
0
LINE
8
BLACK
6
CONTINUOUS
10
202.3301569999999856
20
-101.3756839999999926
11
202.1131759999999815
21
-101.3413180000000011
0
LINE
8
BLACK
6
CONTINUOUS
10
202.1131759999999815
20
-101.3413180000000011
11
201.9042429999999797
21
-101.2734310000000022
0
LINE
8
BLACK
6
CONTINUOUS
10
201.9042429999999797
20
-101.2734310000000022
11
201.7085019999999815
21
-101.1736959999999925
0
LINE
8
BLACK
6
CONTINUOUS
10
201.7085019999999815
20
-101.1736959999999925
11
201.5307729999999822
21
-101.0445679999999982
0
LINE
8
BLACK
6
CONTINUOUS
10
201.5307729999999822
20
-101.0445679999999982
11
201.3754319999999893
21
-100.8892269999999911
0
LINE
8
BLACK
6
CONTINUOUS
10
201.3754319999999893
20
-100.8892269999999911
11
201.2463039999999808
21
-100.7114979999999917
0
LINE
8
BLACK
6
CONTINUOUS
10
201.2463039999999808
20
-100.7114979999999917
11
201.1465689999999995
21
-100.5157569999999936
0
LINE
8
BLACK
6
CONTINUOUS
10
201.1465689999999995
20
-100.5157569999999936
11
201.0786819999999864
21
-100.3068239999999918
0
LINE
8
BLACK
6
CONTINUOUS
10
201.0786819999999864
20
-100.3068239999999918
11
201.0443159999999807
21
-100.0898430000000019
0
LINE
8
BLACK
6
CONTINUOUS
10
201.0443159999999807
20
-100.0898430000000019
11
201.0443159999999807
21
-99.8737529999999936
0
LINE
8
BLACK
6
CONTINUOUS
10
201.0443159999999807
20
-99.8737529999999936
11
201.0443159999999807
21
-99.8701569999999919
0
LINE
8
BLACK
6
CONTINUOUS
10
201.0443159999999807
20
-99.8701569999999919
11
201.0786819999999864
21
-99.653176000000002
0
LINE
8
BLACK
6
CONTINUOUS
10
201.0786819999999864
20
-99.653176000000002
11
201.1465689999999995
21
-99.4442430000000002
0
LINE
8
BLACK
6
CONTINUOUS
10
201.1465689999999995
20
-99.4442430000000002
11
201.2463039999999808
21
-99.248502000000002
0
LINE
8
BLACK
6
CONTINUOUS
10
201.2463039999999808
20
-99.248502000000002
11
201.3754319999999893
21
-99.0707729999999884
0
LINE
8
BLACK
6
CONTINUOUS
10
201.3754319999999893
20
-99.0707729999999884
11
201.5307729999999822
21
-98.9154319999999956
0
LINE
8
BLACK
6
CONTINUOUS
10
201.5307729999999822
20
-98.9154319999999956
11
201.7085019999999815
21
-98.7863040000000012
0
LINE
8
BLACK
6
CONTINUOUS
10
201.7085019999999815
20
-98.7863040000000012
11
201.9042429999999797
21
-98.6865689999999915
0
LINE
8
BLACK
6
CONTINUOUS
10
201.9042429999999797
20
-98.6865689999999915
11
202.1131759999999815
21
-98.6186819999999926
0
LINE
8
BLACK
6
CONTINUOUS
10
202.1131759999999815
20
-98.6186819999999926
11
202.3301569999999856
21
-98.5843160000000012
0
LINE
8
BLACK
6
CONTINUOUS
10
202.3301569999999856
20
-98.5843160000000012
11
202.5498429999999814
21
-98.5843160000000012
0
LINE
8
BLACK
6
CONTINUOUS
10
202.5498429999999814
20
-98.5843160000000012
11
202.7668239999999855
21
-98.6186819999999926
0
LINE
8
BLACK
6
CONTINUOUS
10
201.0900000000000034
20
-100.0862470000000002
11
201.1232420000000047
21
-100.296126000000001
0
LINE
8
BLACK
6
CONTINUOUS
10
201.1232420000000047
20
-100.296126000000001
11
201.1889060000000029
21
-100.4982199999999892
0
LINE
8
BLACK
6
CONTINUOUS
10
201.1889060000000029
20
-100.4982199999999892
11
201.2853769999999827
21
-100.6875539999999916
0
LINE
8
BLACK
6
CONTINUOUS
10
201.2853769999999827
20
-100.6875539999999916
11
201.4102779999999768
21
-100.8594659999999976
0
LINE
8
BLACK
6
CONTINUOUS
10
201.4102779999999768
20
-100.8594659999999976
11
201.5605339999999899
21
-101.0097219999999965
0
LINE
8
BLACK
6
CONTINUOUS
10
201.5605339999999899
20
-101.0097219999999965
11
201.7324459999999817
21
-101.1346229999999906
0
LINE
8
BLACK
6
CONTINUOUS
10
201.7324459999999817
20
-101.1346229999999906
11
201.9217799999999841
21
-101.2310939999999988
0
LINE
8
BLACK
6
CONTINUOUS
10
201.9217799999999841
20
-101.2310939999999988
11
202.1238740000000007
21
-101.296757999999997
0
LINE
8
BLACK
6
CONTINUOUS
10
202.1238740000000007
20
-101.296757999999997
11
202.3337530000000015
21
-101.3299999999999983
0
LINE
8
BLACK
6
CONTINUOUS
10
202.3337530000000015
20
-101.3299999999999983
11
202.5462469999999939
21
-101.3299999999999983
0
LINE
8
BLACK
6
CONTINUOUS
10
202.5462469999999939
20
-101.3299999999999983
11
202.7561259999999947
21
-101.296757999999997
0
LINE
8
BLACK
6
CONTINUOUS
10
202.7561259999999947
20
-101.296757999999997
11
202.958219999999983
21
-101.2310939999999988
0
LINE
8
BLACK
6
CONTINUOUS
10
202.958219999999983
20
-101.2310939999999988
11
203.1475539999999853
21
-101.1346229999999906
0
LINE
8
BLACK
6
CONTINUOUS
10
203.1475539999999853
20
-101.1346229999999906
11
203.3194659999999772
21
-101.0097219999999965
0
LINE
8
BLACK
6
CONTINUOUS
10
203.3194659999999772
20
-101.0097219999999965
11
203.4697219999999902
21
-100.8594659999999976
0
LINE
8
BLACK
6
CONTINUOUS
10
203.4697219999999902
20
-100.8594659999999976
11
203.5946229999999844
21
-100.6875539999999916
0
LINE
8
BLACK
6
CONTINUOUS
10
203.5946229999999844
20
-100.6875539999999916
11
203.6910939999999925
21
-100.4982199999999892
0
LINE
8
BLACK
6
CONTINUOUS
10
203.6910939999999925
20
-100.4982199999999892
11
203.7567579999999907
21
-100.296126000000001
0
LINE
8
BLACK
6
CONTINUOUS
10
203.7567579999999907
20
-100.296126000000001
11
203.789999999999992
21
-100.0862470000000002
0
LINE
8
BLACK
6
CONTINUOUS
10
203.789999999999992
20
-100.0862470000000002
11
203.789999999999992
21
-99.8737529999999936
0
LINE
8
BLACK
6
CONTINUOUS
10
203.789999999999992
20
-99.8737529999999936
11
203.7567579999999907
21
-99.6638739999999927
0
LINE
8
BLACK
6
CONTINUOUS
10
203.7567579999999907
20
-99.6638739999999927
11
203.6910939999999925
21
-99.4617799999999903
0
LINE
8
BLACK
6
CONTINUOUS
10
203.6910939999999925
20
-99.4617799999999903
11
203.5946229999999844
21
-99.2724460000000022
0
LINE
8
BLACK
6
CONTINUOUS
10
203.5946229999999844
20
-99.2724460000000022
11
203.4697219999999902
21
-99.1005339999999961
0
LINE
8
BLACK
6
CONTINUOUS
10
203.4697219999999902
20
-99.1005339999999961
11
203.3194659999999772
21
-98.9502779999999973
0
LINE
8
BLACK
6
CONTINUOUS
10
203.3194659999999772
20
-98.9502779999999973
11
203.1475539999999853
21
-98.8253769999999889
0
LINE
8
BLACK
6
CONTINUOUS
10
203.1475539999999853
20
-98.8253769999999889
11
202.958219999999983
21
-98.7289059999999949
0
LINE
8
BLACK
6
CONTINUOUS
10
202.958219999999983
20
-98.7289059999999949
11
202.7561259999999947
21
-98.6632419999999968
0
LINE
8
BLACK
6
CONTINUOUS
10
202.7561259999999947
20
-98.6632419999999968
11
202.5462469999999939
21
-98.6299999999999955
0
LINE
8
BLACK
6
CONTINUOUS
10
202.5462469999999939
20
-98.6299999999999955
11
202.3337530000000015
21
-98.6299999999999955
0
LINE
8
BLACK
6
CONTINUOUS
10
202.3337530000000015
20
-98.6299999999999955
11
202.1238740000000007
21
-98.6632419999999968
0
LINE
8
BLACK
6
CONTINUOUS
10
202.1238740000000007
20
-98.6632419999999968
11
201.9217799999999841
21
-98.7289059999999949
0
LINE
8
BLACK
6
CONTINUOUS
10
201.9217799999999841
20
-98.7289059999999949
11
201.7324459999999817
21
-98.8253769999999889
0
LINE
8
BLACK
6
CONTINUOUS
10
201.7324459999999817
20
-98.8253769999999889
11
201.5605339999999899
21
-98.9502779999999973
0
LINE
8
BLACK
6
CONTINUOUS
10
201.5605339999999899
20
-98.9502779999999973
11
201.4102779999999768
21
-99.1005339999999961
0
LINE
8
BLACK
6
CONTINUOUS
10
201.4102779999999768
20
-99.1005339999999961
11
201.2853769999999827
21
-99.2724460000000022
0
LINE
8
BLACK
6
CONTINUOUS
10
201.2853769999999827
20
-99.2724460000000022
11
201.1889060000000029
21
-99.4617799999999903
0
LINE
8
BLACK
6
CONTINUOUS
10
201.1889060000000029
20
-99.4617799999999903
11
201.1232420000000047
21
-99.6638739999999927
0
LINE
8
BLACK
6
CONTINUOUS
10
201.1232420000000047
20
-99.6638739999999927
11
201.0900000000000034
21
-99.8737529999999936
0
LINE
8
BLACK
6
CONTINUOUS
10
201.0900000000000034
20
-99.8737529999999936
11
201.0900000000000034
21
-100.0862470000000002
0
LINE
8
BLACK
6
CONTINUOUS
10
221.2118239999999787
20
-95.4686820000000012
11
221.4207569999999805
21
-95.5365690000000001
0
LINE
8
BLACK
6
CONTINUOUS
10
221.4207569999999805
20
-95.5365690000000001
11
221.6164979999999787
21
-95.6363039999999955
0
LINE
8
BLACK
6
CONTINUOUS
10
221.6164979999999787
20
-95.6363039999999955
11
221.794226999999978
21
-95.7654319999999899
0
LINE
8
BLACK
6
CONTINUOUS
10
221.794226999999978
20
-95.7654319999999899
11
221.9495679999999993
21
-95.920772999999997
0
LINE
8
BLACK
6
CONTINUOUS
10
221.9495679999999993
20
-95.920772999999997
11
222.0786959999999794
21
-96.0985019999999963
0
LINE
8
BLACK
6
CONTINUOUS
10
222.0786959999999794
20
-96.0985019999999963
11
222.1784309999999891
21
-96.2942429999999945
0
LINE
8
BLACK
6
CONTINUOUS
10
222.1784309999999891
20
-96.2942429999999945
11
222.2463180000000023
21
-96.5031759999999963
0
LINE
8
BLACK
6
CONTINUOUS
10
222.2463180000000023
20
-96.5031759999999963
11
222.2806839999999795
21
-96.7201570000000004
0
LINE
8
BLACK
6
CONTINUOUS
10
222.2806839999999795
20
-96.7201570000000004
11
222.2806839999999795
21
-96.9398429999999962
0
LINE
8
BLACK
6
CONTINUOUS
10
222.2806839999999795
20
-96.9398429999999962
11
222.2463180000000023
21
-97.1568240000000003
0
LINE
8
BLACK
6
CONTINUOUS
10
222.2463180000000023
20
-97.1568240000000003
11
222.1784309999999891
21
-97.3657570000000021
0
LINE
8
BLACK
6
CONTINUOUS
10
222.1784309999999891
20
-97.3657570000000021
11
222.0786959999999794
21
-97.5614980000000003
0
LINE
8
BLACK
6
CONTINUOUS
10
222.0786959999999794
20
-97.5614980000000003
11
221.9495679999999993
21
-97.7392269999999996
0
LINE
8
BLACK
6
CONTINUOUS
10
221.9495679999999993
20
-97.7392269999999996
11
221.794226999999978
21
-97.8945679999999925
0
LINE
8
BLACK
6
CONTINUOUS
10
221.794226999999978
20
-97.8945679999999925
11
221.6164979999999787
21
-98.023696000000001
0
LINE
8
BLACK
6
CONTINUOUS
10
221.6164979999999787
20
-98.023696000000001
11
221.4207569999999805
21
-98.1234309999999965
0
LINE
8
BLACK
6
CONTINUOUS
10
221.4207569999999805
20
-98.1234309999999965
11
221.2118239999999787
21
-98.1913179999999954
0
LINE
8
BLACK
6
CONTINUOUS
10
221.2118239999999787
20
-98.1913179999999954
11
220.994843000000003
21
-98.2256840000000011
0
LINE
8
BLACK
6
CONTINUOUS
10
220.994843000000003
20
-98.2256840000000011
11
220.7751569999999788
21
-98.2256840000000011
0
LINE
8
BLACK
6
CONTINUOUS
10
220.7751569999999788
20
-98.2256840000000011
11
220.5581760000000031
21
-98.1913179999999954
0
LINE
8
BLACK
6
CONTINUOUS
10
220.5581760000000031
20
-98.1913179999999954
11
220.3492430000000013
21
-98.1234309999999965
0
LINE
8
BLACK
6
CONTINUOUS
10
220.3492430000000013
20
-98.1234309999999965
11
220.1535020000000031
21
-98.023696000000001
0
LINE
8
BLACK
6
CONTINUOUS
10
220.1535020000000031
20
-98.023696000000001
11
219.9757730000000038
21
-97.8945679999999925
0
LINE
8
BLACK
6
CONTINUOUS
10
219.9757730000000038
20
-97.8945679999999925
11
219.8204319999999825
21
-97.7392269999999996
0
LINE
8
BLACK
6
CONTINUOUS
10
219.8204319999999825
20
-97.7392269999999996
11
219.6913040000000024
21
-97.5614980000000003
0
LINE
8
BLACK
6
CONTINUOUS
10
219.6913040000000024
20
-97.5614980000000003
11
219.5915689999999927
21
-97.3657570000000021
0
LINE
8
BLACK
6
CONTINUOUS
10
219.5915689999999927
20
-97.3657570000000021
11
219.5236819999999796
21
-97.1568240000000003
0
LINE
8
BLACK
6
CONTINUOUS
10
219.5236819999999796
20
-97.1568240000000003
11
219.4893160000000023
21
-96.9398429999999962
0
LINE
8
BLACK
6
CONTINUOUS
10
219.4893160000000023
20
-96.9398429999999962
11
219.4893160000000023
21
-96.7237530000000021
0
LINE
8
BLACK
6
CONTINUOUS
10
219.4893160000000023
20
-96.7237530000000021
11
219.4893160000000023
21
-96.7201570000000004
0
LINE
8
BLACK
6
CONTINUOUS
10
219.4893160000000023
20
-96.7201570000000004
11
219.5236819999999796
21
-96.5031759999999963
0
LINE
8
BLACK
6
CONTINUOUS
10
219.5236819999999796
20
-96.5031759999999963
11
219.5915689999999927
21
-96.2942429999999945
0
LINE
8
BLACK
6
CONTINUOUS
10
219.5915689999999927
20
-96.2942429999999945
11
219.6913040000000024
21
-96.0985019999999963
0
LINE
8
BLACK
6
CONTINUOUS
10
219.6913040000000024
20
-96.0985019999999963
11
219.8204319999999825
21
-95.920772999999997
0
LINE
8
BLACK
6
CONTINUOUS
10
219.8204319999999825
20
-95.920772999999997
11
219.9757730000000038
21
-95.7654319999999899
0
LINE
8
BLACK
6
CONTINUOUS
10
219.9757730000000038
20
-95.7654319999999899
11
220.1535020000000031
21
-95.6363039999999955
0
LINE
8
BLACK
6
CONTINUOUS
10
220.1535020000000031
20
-95.6363039999999955
11
220.3492430000000013
21
-95.5365690000000001
0
LINE
8
BLACK
6
CONTINUOUS
10
220.3492430000000013
20
-95.5365690000000001
11
220.5581760000000031
21
-95.4686820000000012
0
LINE
8
BLACK
6
CONTINUOUS
10
220.5581760000000031
20
-95.4686820000000012
11
220.7751569999999788
21
-95.4343159999999955
0
LINE
8
BLACK
6
CONTINUOUS
10
220.7751569999999788
20
-95.4343159999999955
11
220.994843000000003
21
-95.4343159999999955
0
LINE
8
BLACK
6
CONTINUOUS
10
220.994843000000003
20
-95.4343159999999955
11
221.2118239999999787
21
-95.4686820000000012
0
LINE
8
BLACK
6
CONTINUOUS
10
219.5349999999999966
20
-96.9362469999999945
11
219.5682419999999979
21
-97.1461259999999953
0
LINE
8
BLACK
6
CONTINUOUS
10
219.5682419999999979
20
-97.1461259999999953
11
219.6339059999999961
21
-97.3482199999999978
0
LINE
8
BLACK
6
CONTINUOUS
10
219.6339059999999961
20
-97.3482199999999978
11
219.7303769999999759
21
-97.5375540000000001
0
LINE
8
BLACK
6
CONTINUOUS
10
219.7303769999999759
20
-97.5375540000000001
11
219.8552779999999984
21
-97.7094659999999919
0
LINE
8
BLACK
6
CONTINUOUS
10
219.8552779999999984
20
-97.7094659999999919
11
220.0055339999999831
21
-97.8597219999999908
0
LINE
8
BLACK
6
CONTINUOUS
10
220.0055339999999831
20
-97.8597219999999908
11
220.1774460000000033
21
-97.9846229999999991
0
LINE
8
BLACK
6
CONTINUOUS
10
220.1774460000000033
20
-97.9846229999999991
11
220.3667799999999772
21
-98.0810939999999931
0
LINE
8
BLACK
6
CONTINUOUS
10
220.3667799999999772
20
-98.0810939999999931
11
220.5688739999999939
21
-98.1467579999999913
0
LINE
8
BLACK
6
CONTINUOUS
10
220.5688739999999939
20
-98.1467579999999913
11
220.7787529999999947
21
-98.1799999999999926
0
LINE
8
BLACK
6
CONTINUOUS
10
220.7787529999999947
20
-98.1799999999999926
11
220.9912469999999871
21
-98.1799999999999926
0
LINE
8
BLACK
6
CONTINUOUS
10
220.9912469999999871
20
-98.1799999999999926
11
221.2011259999999879
21
-98.1467579999999913
0
LINE
8
BLACK
6
CONTINUOUS
10
221.2011259999999879
20
-98.1467579999999913
11
221.4032199999999762
21
-98.0810939999999931
0
LINE
8
BLACK
6
CONTINUOUS
10
221.4032199999999762
20
-98.0810939999999931
11
221.5925539999999785
21
-97.9846229999999991
0
LINE
8
BLACK
6
CONTINUOUS
10
221.5925539999999785
20
-97.9846229999999991
11
221.7644659999999988
21
-97.8597219999999908
0
LINE
8
BLACK
6
CONTINUOUS
10
221.7644659999999988
20
-97.8597219999999908
11
221.9147219999999834
21
-97.7094659999999919
0
LINE
8
BLACK
6
CONTINUOUS
10
221.9147219999999834
20
-97.7094659999999919
11
222.0396229999999775
21
-97.5375540000000001
0
LINE
8
BLACK
6
CONTINUOUS
10
222.0396229999999775
20
-97.5375540000000001
11
222.1360939999999857
21
-97.3482199999999978
0
LINE
8
BLACK
6
CONTINUOUS
10
222.1360939999999857
20
-97.3482199999999978
11
222.2017579999999839
21
-97.1461259999999953
0
LINE
8
BLACK
6
CONTINUOUS
10
222.2017579999999839
20
-97.1461259999999953
11
222.2349999999999852
21
-96.9362469999999945
0
LINE
8
BLACK
6
CONTINUOUS
10
222.2349999999999852
20
-96.9362469999999945
11
222.2349999999999852
21
-96.7237530000000021
0
LINE
8
BLACK
6
CONTINUOUS
10
222.2349999999999852
20
-96.7237530000000021
11
222.2017579999999839
21
-96.5138740000000013
0
LINE
8
BLACK
6
CONTINUOUS
10
222.2017579999999839
20
-96.5138740000000013
11
222.1360939999999857
21
-96.3117799999999988
0
LINE
8
BLACK
6
CONTINUOUS
10
222.1360939999999857
20
-96.3117799999999988
11
222.0396229999999775
21
-96.1224459999999965
0
LINE
8
BLACK
6
CONTINUOUS
10
222.0396229999999775
20
-96.1224459999999965
11
221.9147219999999834
21
-95.9505339999999904
0
LINE
8
BLACK
6
CONTINUOUS
10
221.9147219999999834
20
-95.9505339999999904
11
221.7644659999999988
21
-95.8002779999999916
0
LINE
8
BLACK
6
CONTINUOUS
10
221.7644659999999988
20
-95.8002779999999916
11
221.5925539999999785
21
-95.6753769999999975
0
LINE
8
BLACK
6
CONTINUOUS
10
221.5925539999999785
20
-95.6753769999999975
11
221.4032199999999762
21
-95.5789059999999893
0
LINE
8
BLACK
6
CONTINUOUS
10
221.4032199999999762
20
-95.5789059999999893
11
221.2011259999999879
21
-95.5132419999999911
0
LINE
8
BLACK
6
CONTINUOUS
10
221.2011259999999879
20
-95.5132419999999911
11
220.9912469999999871
21
-95.4799999999999898
0
LINE
8
BLACK
6
CONTINUOUS
10
220.9912469999999871
20
-95.4799999999999898
11
220.7787529999999947
21
-95.4799999999999898
0
LINE
8
BLACK
6
CONTINUOUS
10
220.7787529999999947
20
-95.4799999999999898
11
220.5688739999999939
21
-95.5132419999999911
0
LINE
8
BLACK
6
CONTINUOUS
10
220.5688739999999939
20
-95.5132419999999911
11
220.3667799999999772
21
-95.5789059999999893
0
LINE
8
BLACK
6
CONTINUOUS
10
220.3667799999999772
20
-95.5789059999999893
11
220.1774460000000033
21
-95.6753769999999975
0
LINE
8
BLACK
6
CONTINUOUS
10
220.1774460000000033
20
-95.6753769999999975
11
220.0055339999999831
21
-95.8002779999999916
0
LINE
8
BLACK
6
CONTINUOUS
10
220.0055339999999831
20
-95.8002779999999916
11
219.8552779999999984
21
-95.9505339999999904
0
LINE
8
BLACK
6
CONTINUOUS
10
219.8552779999999984
20
-95.9505339999999904
11
219.7303769999999759
21
-96.1224459999999965
0
LINE
8
BLACK
6
CONTINUOUS
10
219.7303769999999759
20
-96.1224459999999965
11
219.6339059999999961
21
-96.3117799999999988
0
LINE
8
BLACK
6
CONTINUOUS
10
219.6339059999999961
20
-96.3117799999999988
11
219.5682419999999979
21
-96.5138740000000013
0
LINE
8
BLACK
6
CONTINUOUS
10
219.5682419999999979
20
-96.5138740000000013
11
219.5349999999999966
21
-96.7237530000000021
0
LINE
8
BLACK
6
CONTINUOUS
10
219.5349999999999966
20
-96.7237530000000021
11
219.5349999999999966
21
-96.9362469999999945
0
LINE
8
BLACK
6
CONTINUOUS
10
183.2518239999999992
20
-89.2986819999999994
11
183.460757000000001
21
-89.3665689999999984
0
LINE
8
BLACK
6
CONTINUOUS
10
183.460757000000001
20
-89.3665689999999984
11
183.6564979999999991
21
-89.4663039999999938
0
LINE
8
BLACK
6
CONTINUOUS
10
183.6564979999999991
20
-89.4663039999999938
11
183.8342269999999985
21
-89.5954320000000024
0
LINE
8
BLACK
6
CONTINUOUS
10
183.8342269999999985
20
-89.5954320000000024
11
183.9895679999999913
21
-89.7507729999999952
0
LINE
8
BLACK
6
CONTINUOUS
10
183.9895679999999913
20
-89.7507729999999952
11
184.1186959999999999
21
-89.9285019999999946
0
LINE
8
BLACK
6
CONTINUOUS
10
184.1186959999999999
20
-89.9285019999999946
11
184.2184309999999812
21
-90.1242429999999928
0
LINE
8
BLACK
6
CONTINUOUS
10
184.2184309999999812
20
-90.1242429999999928
11
184.2863179999999943
21
-90.3331759999999946
0
LINE
8
BLACK
6
CONTINUOUS
10
184.2863179999999943
20
-90.3331759999999946
11
184.320684
21
-90.5501569999999987
0
LINE
8
BLACK
6
CONTINUOUS
10
184.320684
20
-90.5501569999999987
11
184.320684
21
-90.7698429999999945
0
LINE
8
BLACK
6
CONTINUOUS
10
184.320684
20
-90.7698429999999945
11
184.2863179999999943
21
-90.9868239999999986
0
LINE
8
BLACK
6
CONTINUOUS
10
184.2863179999999943
20
-90.9868239999999986
11
184.2184309999999812
21
-91.1957570000000004
0
LINE
8
BLACK
6
CONTINUOUS
10
184.2184309999999812
20
-91.1957570000000004
11
184.1186959999999999
21
-91.3914979999999986
0
LINE
8
BLACK
6
CONTINUOUS
10
184.1186959999999999
20
-91.3914979999999986
11
183.9895679999999913
21
-91.5692269999999979
0
LINE
8
BLACK
6
CONTINUOUS
10
183.9895679999999913
20
-91.5692269999999979
11
183.8342269999999985
21
-91.7245679999999908
0
LINE
8
BLACK
6
CONTINUOUS
10
183.8342269999999985
20
-91.7245679999999908
11
183.6564979999999991
21
-91.8536959999999993
0
LINE
8
BLACK
6
CONTINUOUS
10
183.6564979999999991
20
-91.8536959999999993
11
183.460757000000001
21
-91.9534309999999948
0
LINE
8
BLACK
6
CONTINUOUS
10
183.460757000000001
20
-91.9534309999999948
11
183.2518239999999992
21
-92.0213179999999937
0
LINE
8
BLACK
6
CONTINUOUS
10
183.2518239999999992
20
-92.0213179999999937
11
183.0348429999999951
21
-92.0556839999999994
0
LINE
8
BLACK
6
CONTINUOUS
10
183.0348429999999951
20
-92.0556839999999994
11
182.8151569999999992
21
-92.0556839999999994
0
LINE
8
BLACK
6
CONTINUOUS
10
182.8151569999999992
20
-92.0556839999999994
11
182.5981759999999952
21
-92.0213179999999937
0
LINE
8
BLACK
6
CONTINUOUS
10
182.5981759999999952
20
-92.0213179999999937
11
182.3892429999999933
21
-91.9534309999999948
0
LINE
8
BLACK
6
CONTINUOUS
10
182.3892429999999933
20
-91.9534309999999948
11
182.1935019999999952
21
-91.8536959999999993
0
LINE
8
BLACK
6
CONTINUOUS
10
182.1935019999999952
20
-91.8536959999999993
11
182.0157729999999958
21
-91.7245679999999908
0
LINE
8
BLACK
6
CONTINUOUS
10
182.0157729999999958
20
-91.7245679999999908
11
181.860432000000003
21
-91.5692269999999979
0
LINE
8
BLACK
6
CONTINUOUS
10
181.860432000000003
20
-91.5692269999999979
11
181.7313039999999944
21
-91.3914979999999986
0
LINE
8
BLACK
6
CONTINUOUS
10
181.7313039999999944
20
-91.3914979999999986
11
181.6315689999999847
21
-91.1957570000000004
0
LINE
8
BLACK
6
CONTINUOUS
10
181.6315689999999847
20
-91.1957570000000004
11
181.563682
21
-90.9868239999999986
0
LINE
8
BLACK
6
CONTINUOUS
10
181.563682
20
-90.9868239999999986
11
181.5293159999999943
21
-90.7698429999999945
0
LINE
8
BLACK
6
CONTINUOUS
10
181.5293159999999943
20
-90.7698429999999945
11
181.5293159999999943
21
-90.5537530000000004
0
LINE
8
BLACK
6
CONTINUOUS
10
181.5293159999999943
20
-90.5537530000000004
11
181.5293159999999943
21
-90.5501569999999987
0
LINE
8
BLACK
6
CONTINUOUS
10
181.5293159999999943
20
-90.5501569999999987
11
181.563682
21
-90.3331759999999946
0
LINE
8
BLACK
6
CONTINUOUS
10
181.563682
20
-90.3331759999999946
11
181.6315689999999847
21
-90.1242429999999928
0
LINE
8
BLACK
6
CONTINUOUS
10
181.6315689999999847
20
-90.1242429999999928
11
181.7313039999999944
21
-89.9285019999999946
0
LINE
8
BLACK
6
CONTINUOUS
10
181.7313039999999944
20
-89.9285019999999946
11
181.860432000000003
21
-89.7507729999999952
0
LINE
8
BLACK
6
CONTINUOUS
10
181.860432000000003
20
-89.7507729999999952
11
182.0157729999999958
21
-89.5954320000000024
0
LINE
8
BLACK
6
CONTINUOUS
10
182.0157729999999958
20
-89.5954320000000024
11
182.1935019999999952
21
-89.4663039999999938
0
LINE
8
BLACK
6
CONTINUOUS
10
182.1935019999999952
20
-89.4663039999999938
11
182.3892429999999933
21
-89.3665689999999984
0
LINE
8
BLACK
6
CONTINUOUS
10
182.3892429999999933
20
-89.3665689999999984
11
182.5981759999999952
21
-89.2986819999999994
0
LINE
8
BLACK
6
CONTINUOUS
10
182.5981759999999952
20
-89.2986819999999994
11
182.8151569999999992
21
-89.2643159999999938
0
LINE
8
BLACK
6
CONTINUOUS
10
182.8151569999999992
20
-89.2643159999999938
11
183.0348429999999951
21
-89.2643159999999938
0
LINE
8
BLACK
6
CONTINUOUS
10
183.0348429999999951
20
-89.2643159999999938
11
183.2518239999999992
21
-89.2986819999999994
0
LINE
8
BLACK
6
CONTINUOUS
10
181.5749999999999886
20
-90.7662469999999928
11
181.60824199999999
21
-90.9761259999999936
0
LINE
8
BLACK
6
CONTINUOUS
10
181.60824199999999
20
-90.9761259999999936
11
181.6739059999999881
21
-91.178219999999996
0
LINE
8
BLACK
6
CONTINUOUS
10
181.6739059999999881
20
-91.178219999999996
11
181.7703769999999963
21
-91.3675539999999984
0
LINE
8
BLACK
6
CONTINUOUS
10
181.7703769999999963
20
-91.3675539999999984
11
181.8952779999999905
21
-91.5394659999999902
0
LINE
8
BLACK
6
CONTINUOUS
10
181.8952779999999905
20
-91.5394659999999902
11
182.0455340000000035
21
-91.6897219999999891
0
LINE
8
BLACK
6
CONTINUOUS
10
182.0455340000000035
20
-91.6897219999999891
11
182.2174459999999954
21
-91.8146229999999974
0
LINE
8
BLACK
6
CONTINUOUS
10
182.2174459999999954
20
-91.8146229999999974
11
182.4067799999999977
21
-91.9110939999999914
0
LINE
8
BLACK
6
CONTINUOUS
10
182.4067799999999977
20
-91.9110939999999914
11
182.6088739999999859
21
-91.9767579999999896
0
LINE
8
BLACK
6
CONTINUOUS
10
182.6088739999999859
20
-91.9767579999999896
11
182.8187529999999867
21
-92.0099999999999909
0
LINE
8
BLACK
6
CONTINUOUS
10
182.8187529999999867
20
-92.0099999999999909
11
183.0312469999999792
21
-92.0099999999999909
0
LINE
8
BLACK
6
CONTINUOUS
10
183.0312469999999792
20
-92.0099999999999909
11
183.24112599999998
21
-91.9767579999999896
0
LINE
8
BLACK
6
CONTINUOUS
10
183.24112599999998
20
-91.9767579999999896
11
183.4432199999999966
21
-91.9110939999999914
0
LINE
8
BLACK
6
CONTINUOUS
10
183.4432199999999966
20
-91.9110939999999914
11
183.632553999999999
21
-91.8146229999999974
0
LINE
8
BLACK
6
CONTINUOUS
10
183.632553999999999
20
-91.8146229999999974
11
183.8044659999999908
21
-91.6897219999999891
0
LINE
8
BLACK
6
CONTINUOUS
10
183.8044659999999908
20
-91.6897219999999891
11
183.9547220000000038
21
-91.5394659999999902
0
LINE
8
BLACK
6
CONTINUOUS
10
183.9547220000000038
20
-91.5394659999999902
11
184.079622999999998
21
-91.3675539999999984
0
LINE
8
BLACK
6
CONTINUOUS
10
184.079622999999998
20
-91.3675539999999984
11
184.1760939999999778
21
-91.178219999999996
0
LINE
8
BLACK
6
CONTINUOUS
10
184.1760939999999778
20
-91.178219999999996
11
184.2417580000000044
21
-90.9761259999999936
0
LINE
8
BLACK
6
CONTINUOUS
10
184.2417580000000044
20
-90.9761259999999936
11
184.2750000000000057
21
-90.7662469999999928
0
LINE
8
BLACK
6
CONTINUOUS
10
184.2750000000000057
20
-90.7662469999999928
11
184.2750000000000057
21
-90.5537530000000004
0
LINE
8
BLACK
6
CONTINUOUS
10
184.2750000000000057
20
-90.5537530000000004
11
184.2417580000000044
21
-90.3438739999999996
0
LINE
8
BLACK
6
CONTINUOUS
10
184.2417580000000044
20
-90.3438739999999996
11
184.1760939999999778
21
-90.1417799999999971
0
LINE
8
BLACK
6
CONTINUOUS
10
184.1760939999999778
20
-90.1417799999999971
11
184.079622999999998
21
-89.9524459999999948
0
LINE
8
BLACK
6
CONTINUOUS
10
184.079622999999998
20
-89.9524459999999948
11
183.9547220000000038
21
-89.7805340000000029
0
LINE
8
BLACK
6
CONTINUOUS
10
183.9547220000000038
20
-89.7805340000000029
11
183.8044659999999908
21
-89.6302779999999899
0
LINE
8
BLACK
6
CONTINUOUS
10
183.8044659999999908
20
-89.6302779999999899
11
183.632553999999999
21
-89.5053769999999957
0
LINE
8
BLACK
6
CONTINUOUS
10
183.632553999999999
20
-89.5053769999999957
11
183.4432199999999966
21
-89.4089060000000018
0
LINE
8
BLACK
6
CONTINUOUS
10
183.4432199999999966
20
-89.4089060000000018
11
183.24112599999998
21
-89.3432419999999894
0
LINE
8
BLACK
6
CONTINUOUS
10
183.24112599999998
20
-89.3432419999999894
11
183.0312469999999792
21
-89.3100000000000023
0
LINE
8
BLACK
6
CONTINUOUS
10
183.0312469999999792
20
-89.3100000000000023
11
182.8187529999999867
21
-89.3100000000000023
0
LINE
8
BLACK
6
CONTINUOUS
10
182.8187529999999867
20
-89.3100000000000023
11
182.6088739999999859
21
-89.3432419999999894
0
LINE
8
BLACK
6
CONTINUOUS
10
182.6088739999999859
20
-89.3432419999999894
11
182.4067799999999977
21
-89.4089060000000018
0
LINE
8
BLACK
6
CONTINUOUS
10
182.4067799999999977
20
-89.4089060000000018
11
182.2174459999999954
21
-89.5053769999999957
0
LINE
8
BLACK
6
CONTINUOUS
10
182.2174459999999954
20
-89.5053769999999957
11
182.0455340000000035
21
-89.6302779999999899
0
LINE
8
BLACK
6
CONTINUOUS
10
182.0455340000000035
20
-89.6302779999999899
11
181.8952779999999905
21
-89.7805340000000029
0
LINE
8
BLACK
6
CONTINUOUS
10
181.8952779999999905
20
-89.7805340000000029
11
181.7703769999999963
21
-89.9524459999999948
0
LINE
8
BLACK
6
CONTINUOUS
10
181.7703769999999963
20
-89.9524459999999948
11
181.6739059999999881
21
-90.1417799999999971
0
LINE
8
BLACK
6
CONTINUOUS
10
181.6739059999999881
20
-90.1417799999999971
11
181.60824199999999
21
-90.3438739999999996
0
LINE
8
BLACK
6
CONTINUOUS
10
181.60824199999999
20
-90.3438739999999996
11
181.5749999999999886
21
-90.5537530000000004
0
LINE
8
BLACK
6
CONTINUOUS
10
181.5749999999999886
20
-90.5537530000000004
11
181.5749999999999886
21
-90.7662469999999928
0
LINE
8
BLACK
6
CONTINUOUS
10
219.0229349999999897
20
-68.9621070000000032
11
219.0229669999999942
21
-68.9621130000000022
0
LINE
8
BLACK
6
CONTINUOUS
10
219.0229669999999942
20
-68.9621130000000022
11
219.2008829999999762
21
-68.9776779999999974
0
LINE
8
BLACK
6
CONTINUOUS
10
219.2008829999999762
20
-68.9776779999999974
11
219.3734649999999817
21
-69.0239200000000039
0
LINE
8
BLACK
6
CONTINUOUS
10
219.3734649999999817
20
-69.0239200000000039
11
219.5353939999999966
21
-69.0994290000000007
0
LINE
8
BLACK
6
CONTINUOUS
10
219.5353939999999966
20
-69.0994290000000007
11
219.6817519999999888
21
-69.2019090000000006
0
LINE
8
BLACK
6
CONTINUOUS
10
219.6817519999999888
20
-69.2019090000000006
11
219.8080909999999903
21
-69.3282480000000021
0
LINE
8
BLACK
6
CONTINUOUS
10
219.8080909999999903
20
-69.3282480000000021
11
219.910570999999976
21
-69.4746059999999943
0
LINE
8
BLACK
6
CONTINUOUS
10
219.910570999999976
20
-69.4746059999999943
11
219.986079999999987
21
-69.636534999999995
0
LINE
8
BLACK
6
CONTINUOUS
10
219.986079999999987
20
-69.636534999999995
11
220.0323219999999935
21
-69.8091170000000005
0
LINE
8
BLACK
6
CONTINUOUS
10
220.0323219999999935
20
-69.8091170000000005
11
220.0478889999999978
21
-69.9870619999999946
0
LINE
8
BLACK
6
CONTINUOUS
10
220.0478889999999978
20
-69.9870619999999946
11
220.0478929999999878
21
-69.9870820000000009
0
LINE
8
BLACK
6
CONTINUOUS
10
220.0478929999999878
20
-69.9870820000000009
11
220.052108000000004
21
-75.9628749999999968
0
LINE
8
BLACK
6
CONTINUOUS
10
220.052108000000004
20
-75.9628749999999968
11
220.0521049999999832
21
-75.9628879999999924
0
LINE
8
BLACK
6
CONTINUOUS
10
220.0521049999999832
20
-75.9628879999999924
11
220.0521069999999781
21
-75.962892999999994
0
LINE
8
BLACK
6
CONTINUOUS
10
220.0521069999999781
20
-75.962892999999994
11
220.0521069999999781
21
-76.0481949999999927
0
LINE
8
BLACK
6
CONTINUOUS
10
220.0521069999999781
20
-76.0481949999999927
11
220.0817309999999907
21
-76.2162059999999997
0
LINE
8
BLACK
6
CONTINUOUS
10
220.0817309999999907
20
-76.2162059999999997
11
220.1400799999999833
21
-76.3765209999999968
0
LINE
8
BLACK
6
CONTINUOUS
10
220.1400799999999833
20
-76.3765209999999968
11
220.2253809999999987
21
-76.5242679999999922
0
LINE
8
BLACK
6
CONTINUOUS
10
220.2253809999999987
20
-76.5242679999999922
11
220.3350429999999847
21
-76.654956999999996
0
LINE
8
BLACK
6
CONTINUOUS
10
220.3350429999999847
20
-76.654956999999996
11
220.4657320000000027
21
-76.7646189999999962
0
LINE
8
BLACK
6
CONTINUOUS
10
220.4657320000000027
20
-76.7646189999999962
11
220.6134789999999839
21
-76.8499199999999973
0
LINE
8
BLACK
6
CONTINUOUS
10
220.6134789999999839
20
-76.8499199999999973
11
220.773793999999981
21
-76.90826899999999
0
LINE
8
BLACK
6
CONTINUOUS
10
220.773793999999981
20
-76.90826899999999
11
220.941804999999988
21
-76.9378930000000025
0
LINE
8
BLACK
6
CONTINUOUS
10
220.941804999999988
20
-76.9378930000000025
11
221.0094469999999944
21
-76.9378930000000025
0
LINE
8
BLACK
6
CONTINUOUS
10
221.0094469999999944
20
-76.9378930000000025
11
221.0104419999999834
21
-76.9368989999999968
0
LINE
8
BLACK
6
CONTINUOUS
10
221.0104419999999834
20
-76.9368989999999968
11
221.0200089999999875
21
-76.9350000000000023
0
LINE
8
BLACK
6
CONTINUOUS
10
221.0200089999999875
20
-76.9350000000000023
11
239.9929019999999866
21
-76.9421069999999929
0
LINE
8
BLACK
6
CONTINUOUS
10
239.9929019999999866
20
-76.9421069999999929
11
239.9929089999999974
21
-76.9421079999999904
0
LINE
8
BLACK
6
CONTINUOUS
10
239.9929089999999974
20
-76.9421079999999904
11
240.170882999999975
21
-76.9576780000000014
0
LINE
8
BLACK
6
CONTINUOUS
10
240.170882999999975
20
-76.9576780000000014
11
240.3434649999999806
21
-77.0039199999999937
0
LINE
8
BLACK
6
CONTINUOUS
10
240.3434649999999806
20
-77.0039199999999937
11
240.5053939999999955
21
-77.0794289999999904
0
LINE
8
BLACK
6
CONTINUOUS
10
240.5053939999999955
20
-77.0794289999999904
11
240.6517519999999877
21
-77.1819089999999903
0
LINE
8
BLACK
6
CONTINUOUS
10
240.6517519999999877
20
-77.1819089999999903
11
240.7780909999999892
21
-77.3082479999999919
0
LINE
8
BLACK
6
CONTINUOUS
10
240.7780909999999892
20
-77.3082479999999919
11
240.8805709999999749
21
-77.4546059999999983
0
LINE
8
BLACK
6
CONTINUOUS
10
240.8805709999999749
20
-77.4546059999999983
11
240.9560799999999858
21
-77.6165349999999989
0
LINE
8
BLACK
6
CONTINUOUS
10
240.9560799999999858
20
-77.6165349999999989
11
241.0023219999999924
21
-77.7891169999999903
0
LINE
8
BLACK
6
CONTINUOUS
10
241.0023219999999924
20
-77.7891169999999903
11
241.0178929999999866
21
-77.9671069999999986
0
LINE
8
BLACK
6
CONTINUOUS
10
241.0178929999999866
20
-77.9671069999999986
11
241.017881999999986
21
-77.9671400000000006
0
LINE
8
BLACK
6
CONTINUOUS
10
241.017881999999986
20
-77.9671400000000006
11
241.0178919999999891
21
-77.9671919999999972
0
LINE
8
BLACK
6
CONTINUOUS
10
241.0178919999999891
20
-77.9671919999999972
11
240.9250299999999925
21
-105.15122199999999
0
LINE
8
BLACK
6
CONTINUOUS
10
240.9250299999999925
20
-105.15122199999999
11
245.6419249999999863
21
-111.0078419999999966
0
LINE
8
BLACK
6
CONTINUOUS
10
245.6419249999999863
20
-111.0078419999999966
11
256.0798970000000168
21
-110.9649999999999892
0
LINE
8
BLACK
6
CONTINUOUS
10
256.0798970000000168
20
-110.9649999999999892
11
256.0799609999999689
21
-110.9650120000000015
0
LINE
8
BLACK
6
CONTINUOUS
10
256.0799609999999689
20
-110.9650120000000015
11
256.0799999999999841
21
-110.9649999999999892
0
LINE
8
BLACK
6
CONTINUOUS
10
256.0799999999999841
20
-110.9649999999999892
11
256.2579890000000091
21
-110.9805719999999951
0
LINE
8
BLACK
6
CONTINUOUS
10
256.2579890000000091
20
-110.9805719999999951
11
256.4305709999999863
21
-111.0268149999999991
0
LINE
8
BLACK
6
CONTINUOUS
10
256.4305709999999863
20
-111.0268149999999991
11
256.5924999999999727
21
-111.1023239999999959
0
LINE
8
BLACK
6
CONTINUOUS
10
256.5924999999999727
20
-111.1023239999999959
11
256.7388569999999959
21
-111.2048039999999958
0
LINE
8
BLACK
6
CONTINUOUS
10
256.7388569999999959
20
-111.2048039999999958
11
256.865195999999969
21
-111.3311429999999973
0
LINE
8
BLACK
6
CONTINUOUS
10
256.865195999999969
20
-111.3311429999999973
11
256.9676759999999831
21
-111.477499999999992
0
LINE
8
BLACK
6
CONTINUOUS
10
256.9676759999999831
20
-111.477499999999992
11
257.043184999999994
21
-111.6394289999999927
0
LINE
8
BLACK
6
CONTINUOUS
10
257.043184999999994
20
-111.6394289999999927
11
257.0894279999999981
21
-111.8120109999999983
0
LINE
8
BLACK
6
CONTINUOUS
10
257.0894279999999981
20
-111.8120109999999983
11
257.1049999999999613
21
-111.9899999999999949
0
LINE
8
BLACK
6
CONTINUOUS
10
257.1049999999999613
20
-111.9899999999999949
11
257.1041329999999903
21
-111.9926649999999881
0
LINE
8
BLACK
6
CONTINUOUS
10
257.1041329999999903
20
-111.9926649999999881
11
257.0849999999999795
21
-134.1300219999999968
0
LINE
8
BLACK
6
CONTINUOUS
10
257.0849999999999795
20
-134.1300219999999968
11
257.0849919999999997
21
-134.1300579999999911
0
LINE
8
BLACK
6
CONTINUOUS
10
257.0849919999999997
20
-134.1300579999999911
11
257.0849999999999795
21
-134.1300959999999804
0
LINE
8
BLACK
6
CONTINUOUS
10
257.0849999999999795
20
-134.1300959999999804
11
257.077891999999963
21
-135.9828909999999951
0
LINE
8
BLACK
6
CONTINUOUS
10
257.077891999999963
20
-135.9828909999999951
11
257.0778929999999605
21
-135.98289299999999
0
LINE
8
BLACK
6
CONTINUOUS
10
257.0778929999999605
20
-135.98289299999999
11
257.077891999999963
21
-135.9829000000000008
0
LINE
8
BLACK
6
CONTINUOUS
10
257.077891999999963
20
-135.9829000000000008
11
257.077891999999963
21
-135.9829890000000034
0
LINE
8
BLACK
6
CONTINUOUS
10
257.077891999999963
20
-135.9829890000000034
11
257.0778779999999983
21
-135.983052999999984
0
LINE
8
BLACK
6
CONTINUOUS
10
257.0778779999999983
20
-135.983052999999984
11
257.0623219999999947
21
-136.1608829999999841
0
LINE
8
BLACK
6
CONTINUOUS
10
257.0623219999999947
20
-136.1608829999999841
11
257.0160799999999881
21
-136.3334649999999897
0
LINE
8
BLACK
6
CONTINUOUS
10
257.0160799999999881
20
-136.3334649999999897
11
256.9405709999999772
21
-136.4953940000000046
0
LINE
8
BLACK
6
CONTINUOUS
10
256.9405709999999772
20
-136.4953940000000046
11
256.8380909999999631
21
-136.6417519999999968
0
LINE
8
BLACK
6
CONTINUOUS
10
256.8380909999999631
20
-136.6417519999999968
11
256.7117519999999899
21
-136.7680909999999983
0
LINE
8
BLACK
6
CONTINUOUS
10
256.7117519999999899
20
-136.7680909999999983
11
256.5653939999999693
21
-136.870570999999984
0
LINE
8
BLACK
6
CONTINUOUS
10
256.5653939999999693
20
-136.870570999999984
11
256.4034649999999829
21
-136.9460799999999949
0
LINE
8
BLACK
6
CONTINUOUS
10
256.4034649999999829
20
-136.9460799999999949
11
256.2308830000000057
21
-136.9923220000000015
0
LINE
8
BLACK
6
CONTINUOUS
10
256.2308830000000057
20
-136.9923220000000015
11
256.0529089999999997
21
-137.0078910000000008
0
LINE
8
BLACK
6
CONTINUOUS
10
256.0529089999999997
20
-137.0078910000000008
11
256.0529070000000047
21
-137.0078919999999982
0
LINE
8
BLACK
6
CONTINUOUS
10
256.0529070000000047
20
-137.0078919999999982
11
256.0529040000000123
21
-137.0078919999999982
0
LINE
8
BLACK
6
CONTINUOUS
10
256.0529040000000123
20
-137.0078919999999982
11
256.0528929999999832
21
-137.0078929999999957
0
LINE
8
BLACK
6
CONTINUOUS
10
256.0528929999999832
20
-137.0078929999999957
11
256.0528889999999933
21
-137.0078919999999982
0
LINE
8
BLACK
6
CONTINUOUS
10
256.0528889999999933
20
-137.0078919999999982
11
237.9971209999999928
21
-137.0178929999999866
0
LINE
8
BLACK
6
CONTINUOUS
10
237.9971209999999928
20
-137.0178929999999866
11
237.9971119999999871
21
-137.0178909999999917
0
LINE
8
BLACK
6
CONTINUOUS
10
237.9971119999999871
20
-137.0178909999999917
11
237.9971069999999997
21
-137.0178929999999866
0
LINE
8
BLACK
6
CONTINUOUS
10
237.9971069999999997
20
-137.0178929999999866
11
237.8191169999999772
21
-137.0023219999999924
0
LINE
8
BLACK
6
CONTINUOUS
10
237.8191169999999772
20
-137.0023219999999924
11
237.6465350000000001
21
-136.9560799999999858
0
LINE
8
BLACK
6
CONTINUOUS
10
237.6465350000000001
20
-136.9560799999999858
11
237.4846059999999852
21
-136.8805710000000033
0
LINE
8
BLACK
6
CONTINUOUS
10
237.4846059999999852
20
-136.8805710000000033
11
237.338247999999993
21
-136.7780909999999892
0
LINE
8
BLACK
6
CONTINUOUS
10
237.338247999999993
20
-136.7780909999999892
11
237.2119089999999915
21
-136.6517519999999877
0
LINE
8
BLACK
6
CONTINUOUS
10
237.2119089999999915
20
-136.6517519999999877
11
237.1094289999999773
21
-136.5053939999999955
0
LINE
8
BLACK
6
CONTINUOUS
10
237.1094289999999773
20
-136.5053939999999955
11
237.0339199999999948
21
-136.3434649999999806
0
LINE
8
BLACK
6
CONTINUOUS
10
237.0339199999999948
20
-136.3434649999999806
11
236.9876779999999883
21
-136.1708830000000034
0
LINE
8
BLACK
6
CONTINUOUS
10
236.9876779999999883
20
-136.1708830000000034
11
236.972110999999984
21
-135.9929489999999817
0
LINE
8
BLACK
6
CONTINUOUS
10
236.972110999999984
20
-135.9929489999999817
11
236.9721079999999915
21
-135.9929300000000012
0
LINE
8
BLACK
6
CONTINUOUS
10
236.9721079999999915
20
-135.9929300000000012
11
236.9721069999999941
21
-135.9929029999999841
0
LINE
8
BLACK
6
CONTINUOUS
10
236.9721069999999941
20
-135.9929029999999841
11
236.9721069999999941
21
-135.9928929999999809
0
LINE
8
BLACK
6
CONTINUOUS
10
236.9721069999999941
20
-135.9928929999999809
11
236.9721069999999941
21
-135.9928899999999885
0
LINE
8
BLACK
6
CONTINUOUS
10
236.9721069999999941
20
-135.9928899999999885
11
236.9449999999999932
21
-118.0000379999999893
0
LINE
8
BLACK
6
CONTINUOUS
10
236.9449999999999932
20
-118.0000379999999893
11
236.9450039999999831
21
-118.0000139999999931
0
LINE
8
BLACK
6
CONTINUOUS
10
236.9450039999999831
20
-118.0000139999999931
11
236.9449999999999932
21
-118.
0
LINE
8
BLACK
6
CONTINUOUS
10
236.9449999999999932
20
-118.
11
236.9605719999999849
21
-117.8220109999999892
0
LINE
8
BLACK
6
CONTINUOUS
10
236.9605719999999849
20
-117.8220109999999892
11
237.0068149999999889
21
-117.6494289999999978
0
LINE
8
BLACK
6
CONTINUOUS
10
237.0068149999999889
20
-117.6494289999999978
11
237.0823239999999998
21
-117.4874999999999972
0
LINE
8
BLACK
6
CONTINUOUS
10
237.0823239999999998
20
-117.4874999999999972
11
237.1848039999999855
21
-117.3411429999999882
0
LINE
8
BLACK
6
CONTINUOUS
10
237.1848039999999855
20
-117.3411429999999882
11
237.3111429999999871
21
-117.2148040000000009
0
LINE
8
BLACK
6
CONTINUOUS
10
237.3111429999999871
20
-117.2148040000000009
11
237.4574999999999818
21
-117.112324000000001
0
LINE
8
BLACK
6
CONTINUOUS
10
237.4574999999999818
20
-117.112324000000001
11
237.6194289999999967
21
-117.0368149999999901
0
LINE
8
BLACK
6
CONTINUOUS
10
237.6194289999999967
20
-117.0368149999999901
11
237.7920110000000022
21
-116.9905720000000002
0
LINE
8
BLACK
6
CONTINUOUS
10
237.7920110000000022
20
-116.9905720000000002
11
237.9699999999999989
21
-116.9749999999999943
0
LINE
8
BLACK
6
CONTINUOUS
10
237.9699999999999989
20
-116.9749999999999943
11
237.9700320000000033
21
-116.9750099999999975
0
LINE
8
BLACK
6
CONTINUOUS
10
237.9700320000000033
20
-116.9750099999999975
11
237.9700869999999782
21
-116.9749999999999943
0
LINE
8
BLACK
6
CONTINUOUS
10
237.9700869999999782
20
-116.9749999999999943
11
240.7799529999999777
21
-116.9847899999999896
0
LINE
8
BLACK
6
CONTINUOUS
10
240.7799529999999777
20
-116.9847899999999896
11
229.2993429999999933
21
-105.0150050000000022
0
LINE
8
BLACK
6
CONTINUOUS
10
229.2993429999999933
20
-105.0150050000000022
11
187.0300119999999993
21
-105.0349999999999966
0
LINE
8
BLACK
6
CONTINUOUS
10
187.0300119999999993
20
-105.0349999999999966
11
187.0296170000000018
21
-105.0349209999999971
0
LINE
8
BLACK
6
CONTINUOUS
10
187.0296170000000018
20
-105.0349209999999971
11
186.852452999999997
21
-105.0195049999999952
0
LINE
8
BLACK
6
CONTINUOUS
10
186.852452999999997
20
-105.0195049999999952
11
186.6797990000000027
21
-104.9733179999999919
0
LINE
8
BLACK
6
CONTINUOUS
10
186.6797990000000027
20
-104.9733179999999919
11
186.5177919999999858
21
-104.8978439999999921
0
LINE
8
BLACK
6
CONTINUOUS
10
186.5177919999999858
20
-104.8978439999999921
11
186.3713579999999865
21
-104.7953749999999928
0
LINE
8
BLACK
6
CONTINUOUS
10
186.3713579999999865
20
-104.7953749999999928
11
186.2449499999999887
21
-104.6690289999999948
0
LINE
8
BLACK
6
CONTINUOUS
10
186.2449499999999887
20
-104.6690289999999948
11
186.1424089999999865
21
-104.5226449999999971
0
LINE
8
BLACK
6
CONTINUOUS
10
186.1424089999999865
20
-104.5226449999999971
11
186.066853999999978
21
-104.360675999999998
0
LINE
8
BLACK
6
CONTINUOUS
10
186.066853999999978
20
-104.360675999999998
11
186.0205829999999878
21
-104.1880449999999882
0
LINE
8
BLACK
6
CONTINUOUS
10
186.0205829999999878
20
-104.1880449999999882
11
186.0050009999999929
21
-104.0099999999999909
0
LINE
8
BLACK
6
CONTINUOUS
10
186.0050009999999929
20
-104.0099999999999909
11
186.0050090000000012
21
-104.0099739999999997
0
LINE
8
BLACK
6
CONTINUOUS
10
186.0050090000000012
20
-104.0099739999999997
11
186.0049999999999955
21
-104.0099280000000022
0
LINE
8
BLACK
6
CONTINUOUS
10
186.0049999999999955
20
-104.0099280000000022
11
186.02789199999998
21
-96.0170349999999928
0
LINE
8
BLACK
6
CONTINUOUS
10
186.02789199999998
20
-96.0170349999999928
11
186.0278929999999775
21
-96.0170299999999912
0
LINE
8
BLACK
6
CONTINUOUS
10
186.0278929999999775
20
-96.0170299999999912
11
186.0278929999999775
21
-95.9318049999999971
0
LINE
8
BLACK
6
CONTINUOUS
10
186.0278929999999775
20
-95.9318049999999971
11
185.9982689999999934
21
-95.7637939999999901
0
LINE
8
BLACK
6
CONTINUOUS
10
185.9982689999999934
20
-95.7637939999999901
11
185.9399200000000008
21
-95.603478999999993
0
LINE
8
BLACK
6
CONTINUOUS
10
185.9399200000000008
20
-95.603478999999993
11
185.8546189999999854
21
-95.4557319999999976
0
LINE
8
BLACK
6
CONTINUOUS
10
185.8546189999999854
20
-95.4557319999999976
11
185.7449569999999994
21
-95.3250429999999938
0
LINE
8
BLACK
6
CONTINUOUS
10
185.7449569999999994
20
-95.3250429999999938
11
185.6142679999999814
21
-95.2153809999999936
0
LINE
8
BLACK
6
CONTINUOUS
10
185.6142679999999814
20
-95.2153809999999936
11
185.4665210000000002
21
-95.1300799999999924
0
LINE
8
BLACK
6
CONTINUOUS
10
185.4665210000000002
20
-95.1300799999999924
11
185.3062060000000031
21
-95.0717309999999998
0
LINE
8
BLACK
6
CONTINUOUS
10
185.3062060000000031
20
-95.0717309999999998
11
185.1381949999999961
21
-95.0421070000000014
0
LINE
8
BLACK
6
CONTINUOUS
10
185.1381949999999961
20
-95.0421070000000014
11
185.0528929999999832
21
-95.0421070000000014
0
LINE
8
BLACK
6
CONTINUOUS
10
185.0528929999999832
20
-95.0421070000000014
11
185.0528899999999908
21
-95.0421059999999898
0
LINE
8
BLACK
6
CONTINUOUS
10
185.0528899999999908
20
-95.0421059999999898
11
185.0528860000000009
21
-95.0421070000000014
0
LINE
8
BLACK
6
CONTINUOUS
10
185.0528860000000009
20
-95.0421070000000014
11
159.9970859999999959
21
-95.0278929999999917
0
LINE
8
BLACK
6
CONTINUOUS
10
159.9970859999999959
20
-95.0278929999999917
11
159.997068999999982
21
-95.0278890000000018
0
LINE
8
BLACK
6
CONTINUOUS
10
159.997068999999982
20
-95.0278890000000018
11
159.8191170000000056
21
-95.0123219999999975
0
LINE
8
BLACK
6
CONTINUOUS
10
159.8191170000000056
20
-95.0123219999999975
11
159.6465350000000001
21
-94.9660799999999909
0
LINE
8
BLACK
6
CONTINUOUS
10
159.6465350000000001
20
-94.9660799999999909
11
159.4846059999999852
21
-94.8905709999999942
0
LINE
8
BLACK
6
CONTINUOUS
10
159.4846059999999852
20
-94.8905709999999942
11
159.338247999999993
21
-94.7880909999999943
0
LINE
8
BLACK
6
CONTINUOUS
10
159.338247999999993
20
-94.7880909999999943
11
159.2119089999999915
21
-94.6617519999999928
0
LINE
8
BLACK
6
CONTINUOUS
10
159.2119089999999915
20
-94.6617519999999928
11
159.1094290000000058
21
-94.5153940000000006
0
LINE
8
BLACK
6
CONTINUOUS
10
159.1094290000000058
20
-94.5153940000000006
11
159.0339199999999948
21
-94.3534649999999999
0
LINE
8
BLACK
6
CONTINUOUS
10
159.0339199999999948
20
-94.3534649999999999
11
158.9876779999999883
21
-94.1808829999999944
0
LINE
8
BLACK
6
CONTINUOUS
10
158.9876779999999883
20
-94.1808829999999944
11
158.9721069999999941
21
-94.0028930000000003
0
LINE
8
BLACK
6
CONTINUOUS
10
158.9721069999999941
20
-94.0028930000000003
11
158.9721079999999915
21
-94.0028889999999961
0
LINE
8
BLACK
6
CONTINUOUS
10
158.9721079999999915
20
-94.0028889999999961
11
158.9721079999999915
21
-94.0028879999999987
0
LINE
8
BLACK
6
CONTINUOUS
10
158.9721079999999915
20
-94.0028879999999987
11
158.9749999999999943
21
-77.9799959999999999
0
LINE
8
BLACK
6
CONTINUOUS
10
158.9749999999999943
20
-77.9799959999999999
11
158.9749999999999943
21
-77.9799919999999958
0
LINE
8
BLACK
6
CONTINUOUS
10
158.9749999999999943
20
-77.9799919999999958
11
158.990571999999986
21
-77.8020109999999931
0
LINE
8
BLACK
6
CONTINUOUS
10
158.990571999999986
20
-77.8020109999999931
11
159.0368149999999901
21
-77.6294290000000018
0
LINE
8
BLACK
6
CONTINUOUS
10
159.0368149999999901
20
-77.6294290000000018
11
159.112324000000001
21
-77.4675000000000011
0
LINE
8
BLACK
6
CONTINUOUS
10
159.112324000000001
20
-77.4675000000000011
11
159.2148039999999867
21
-77.3211429999999922
0
LINE
8
BLACK
6
CONTINUOUS
10
159.2148039999999867
20
-77.3211429999999922
11
159.3411429999999882
21
-77.1948039999999907
0
LINE
8
BLACK
6
CONTINUOUS
10
159.3411429999999882
20
-77.1948039999999907
11
159.4874999999999829
21
-77.0923239999999907
0
LINE
8
BLACK
6
CONTINUOUS
10
159.4874999999999829
20
-77.0923239999999907
11
159.6494289999999978
21
-77.016814999999994
0
LINE
8
BLACK
6
CONTINUOUS
10
159.6494289999999978
20
-77.016814999999994
11
159.8220110000000034
21
-76.97057199999999
0
LINE
8
BLACK
6
CONTINUOUS
10
159.8220110000000034
20
-76.97057199999999
11
160.
21
-76.9549999999999983
0
LINE
8
BLACK
6
CONTINUOUS
10
160.
20
-76.9549999999999983
11
160.0000229999999988
21
-76.9550069999999948
0
LINE
8
BLACK
6
CONTINUOUS
10
160.0000229999999988
20
-76.9550069999999948
11
160.000062999999983
21
-76.9549999999999983
0
LINE
8
BLACK
6
CONTINUOUS
10
160.000062999999983
20
-76.9549999999999983
11
181.0529619999999795
21
-77.0078929999999957
0
LINE
8
BLACK
6
CONTINUOUS
10
181.0529619999999795
20
-77.0078929999999957
11
181.1381949999999961
21
-77.0078929999999957
0
LINE
8
BLACK
6
CONTINUOUS
10
181.1381949999999961
20
-77.0078929999999957
11
181.3062060000000031
21
-76.9782689999999974
0
LINE
8
BLACK
6
CONTINUOUS
10
181.3062060000000031
20
-76.9782689999999974
11
181.4665210000000002
21
-76.9199199999999905
0
LINE
8
BLACK
6
CONTINUOUS
10
181.4665210000000002
20
-76.9199199999999905
11
181.6142679999999814
21
-76.8346190000000036
0
LINE
8
BLACK
6
CONTINUOUS
10
181.6142679999999814
20
-76.8346190000000036
11
181.7449569999999994
21
-76.7249570000000034
0
LINE
8
BLACK
6
CONTINUOUS
10
181.7449569999999994
20
-76.7249570000000034
11
181.8546189999999854
21
-76.5942679999999996
0
LINE
8
BLACK
6
CONTINUOUS
10
181.8546189999999854
20
-76.5942679999999996
11
181.9399200000000008
21
-76.44652099999999
0
LINE
8
BLACK
6
CONTINUOUS
10
181.9399200000000008
20
-76.44652099999999
11
181.9982689999999934
21
-76.2862059999999929
0
LINE
8
BLACK
6
CONTINUOUS
10
181.9982689999999934
20
-76.2862059999999929
11
182.0278930000000059
21
-76.1181950000000001
0
LINE
8
BLACK
6
CONTINUOUS
10
182.0278930000000059
20
-76.1181950000000001
11
182.0278930000000059
21
-76.0328930000000014
0
LINE
8
BLACK
6
CONTINUOUS
10
182.0278930000000059
20
-76.0328930000000014
11
182.0221070000000054
21
-69.9271310000000028
0
LINE
8
BLACK
6
CONTINUOUS
10
182.0221070000000054
20
-69.9271310000000028
11
182.0221090000000004
21
-69.9271159999999981
0
LINE
8
BLACK
6
CONTINUOUS
10
182.0221090000000004
20
-69.9271159999999981
11
182.0221070000000054
21
-69.9271069999999924
0
LINE
8
BLACK
6
CONTINUOUS
10
182.0221070000000054
20
-69.9271069999999924
11
182.0376779999999997
21
-69.7491169999999983
0
LINE
8
BLACK
6
CONTINUOUS
10
182.0376779999999997
20
-69.7491169999999983
11
182.0839199999999778
21
-69.5765349999999927
0
LINE
8
BLACK
6
CONTINUOUS
10
182.0839199999999778
20
-69.5765349999999927
11
182.1594289999999887
21
-69.414605999999992
0
LINE
8
BLACK
6
CONTINUOUS
10
182.1594289999999887
20
-69.414605999999992
11
182.2619090000000028
21
-69.2682479999999998
0
LINE
8
BLACK
6
CONTINUOUS
10
182.2619090000000028
20
-69.2682479999999998
11
182.3882480000000044
21
-69.1419089999999983
0
LINE
8
BLACK
6
CONTINUOUS
10
182.3882480000000044
20
-69.1419089999999983
11
182.5346059999999966
21
-69.0394289999999984
0
LINE
8
BLACK
6
CONTINUOUS
10
182.5346059999999966
20
-69.0394289999999984
11
182.696534999999983
21
-68.9639200000000017
0
LINE
8
BLACK
6
CONTINUOUS
10
182.696534999999983
20
-68.9639200000000017
11
182.8691169999999886
21
-68.9176779999999951
0
LINE
8
BLACK
6
CONTINUOUS
10
182.8691169999999886
20
-68.9176779999999951
11
183.0471069999999827
21
-68.9021070000000009
0
LINE
8
BLACK
6
CONTINUOUS
10
183.0471069999999827
20
-68.9021070000000009
11
183.0471199999999783
21
-68.9021109999999908
0
LINE
8
BLACK
6
CONTINUOUS
10
183.0471199999999783
20
-68.9021109999999908
11
183.0471419999999796
21
-68.9021070000000009
0
LINE
8
BLACK
6
CONTINUOUS
10
183.0471419999999796
20
-68.9021070000000009
11
219.0229349999999897
21
-68.9621070000000032
0
LINE
8
BLACK
6
CONTINUOUS
10
182.9618049999999982
20
-68.952106999999998
11
182.7937939999999912
21
-68.9817309999999964
0
LINE
8
BLACK
6
CONTINUOUS
10
182.7937939999999912
20
-68.9817309999999964
11
182.6334789999999941
21
-69.0400800000000032
0
LINE
8
BLACK
6
CONTINUOUS
10
182.6334789999999941
20
-69.0400800000000032
11
182.4857319999999845
21
-69.1253809999999902
0
LINE
8
BLACK
6
CONTINUOUS
10
182.4857319999999845
20
-69.1253809999999902
11
182.3550429999999949
21
-69.2350429999999903
0
LINE
8
BLACK
6
CONTINUOUS
10
182.3550429999999949
20
-69.2350429999999903
11
182.2453809999999805
21
-69.3657319999999942
0
LINE
8
BLACK
6
CONTINUOUS
10
182.2453809999999805
20
-69.3657319999999942
11
182.1600799999999936
21
-69.5134790000000038
0
LINE
8
BLACK
6
CONTINUOUS
10
182.1600799999999936
20
-69.5134790000000038
11
182.1017310000000009
21
-69.6737940000000009
0
LINE
8
BLACK
6
CONTINUOUS
10
182.1017310000000009
20
-69.6737940000000009
11
182.0721069999999884
21
-69.8418049999999937
0
LINE
8
BLACK
6
CONTINUOUS
10
182.0721069999999884
20
-69.8418049999999937
11
182.0721069999999884
21
-69.9270829999999961
0
LINE
8
BLACK
6
CONTINUOUS
10
182.0721069999999884
20
-69.9270829999999961
11
182.0778929999999889
21
-76.0328700000000026
0
LINE
8
BLACK
6
CONTINUOUS
10
182.0778929999999889
20
-76.0328700000000026
11
182.0778899999999965
21
-76.0328839999999957
0
LINE
8
BLACK
6
CONTINUOUS
10
182.0778899999999965
20
-76.0328839999999957
11
182.0778929999999889
21
-76.0328930000000014
0
LINE
8
BLACK
6
CONTINUOUS
10
182.0778929999999889
20
-76.0328930000000014
11
182.0623219999999947
21
-76.2108829999999955
0
LINE
8
BLACK
6
CONTINUOUS
10
182.0623219999999947
20
-76.2108829999999955
11
182.0160799999999881
21
-76.3834650000000011
0
LINE
8
BLACK
6
CONTINUOUS
10
182.0160799999999881
20
-76.3834650000000011
11
181.9405710000000056
21
-76.5453940000000017
0
LINE
8
BLACK
6
CONTINUOUS
10
181.9405710000000056
20
-76.5453940000000017
11
181.8380909999999915
21
-76.6917519999999939
0
LINE
8
BLACK
6
CONTINUOUS
10
181.8380909999999915
20
-76.6917519999999939
11
181.7117519999999899
21
-76.8180909999999955
0
LINE
8
BLACK
6
CONTINUOUS
10
181.7117519999999899
20
-76.8180909999999955
11
181.5653939999999977
21
-76.9205709999999954
0
LINE
8
BLACK
6
CONTINUOUS
10
181.5653939999999977
20
-76.9205709999999954
11
181.4034649999999829
21
-76.9960799999999921
0
LINE
8
BLACK
6
CONTINUOUS
10
181.4034649999999829
20
-76.9960799999999921
11
181.2308830000000057
21
-77.0423219999999986
0
LINE
8
BLACK
6
CONTINUOUS
10
181.2308830000000057
20
-77.0423219999999986
11
181.0528929999999832
21
-77.0578929999999929
0
LINE
8
BLACK
6
CONTINUOUS
10
181.0528929999999832
20
-77.0578929999999929
11
181.0528709999999819
21
-77.0578859999999963
0
LINE
8
BLACK
6
CONTINUOUS
10
181.0528709999999819
20
-77.0578859999999963
11
181.0528369999999825
21
-77.0578929999999929
0
LINE
8
BLACK
6
CONTINUOUS
10
181.0528369999999825
20
-77.0578929999999929
11
159.9999369999999885
21
-77.0049999999999955
0
LINE
8
BLACK
6
CONTINUOUS
10
159.9999369999999885
20
-77.0049999999999955
11
159.9146989999999846
21
-77.0049999999999955
0
LINE
8
BLACK
6
CONTINUOUS
10
159.9146989999999846
20
-77.0049999999999955
11
159.746688000000006
21
-77.0346249999999912
0
LINE
8
BLACK
6
CONTINUOUS
10
159.746688000000006
20
-77.0346249999999912
11
159.5863729999999805
21
-77.0929749999999956
0
LINE
8
BLACK
6
CONTINUOUS
10
159.5863729999999805
20
-77.0929749999999956
11
159.4386269999999968
21
-77.1782759999999968
0
LINE
8
BLACK
6
CONTINUOUS
10
159.4386269999999968
20
-77.1782759999999968
11
159.3079379999999787
21
-77.2879379999999969
0
LINE
8
BLACK
6
CONTINUOUS
10
159.3079379999999787
20
-77.2879379999999969
11
159.1982759999999928
21
-77.4186270000000007
0
LINE
8
BLACK
6
CONTINUOUS
10
159.1982759999999928
20
-77.4186270000000007
11
159.1129750000000058
21
-77.5663729999999987
0
LINE
8
BLACK
6
CONTINUOUS
10
159.1129750000000058
20
-77.5663729999999987
11
159.0546249999999873
21
-77.7266879999999958
0
LINE
8
BLACK
6
CONTINUOUS
10
159.0546249999999873
20
-77.7266879999999958
11
159.0250000000000057
21
-77.8946990000000028
0
LINE
8
BLACK
6
CONTINUOUS
10
159.0250000000000057
20
-77.8946990000000028
11
159.0250000000000057
21
-77.9799999999999898
0
LINE
8
BLACK
6
CONTINUOUS
10
159.0250000000000057
20
-77.9799999999999898
11
159.0249989999999798
21
-77.9800010000000015
0
LINE
8
BLACK
6
CONTINUOUS
10
159.0249989999999798
20
-77.9800010000000015
11
159.0250000000000057
21
-77.9800049999999914
0
LINE
8
BLACK
6
CONTINUOUS
10
159.0250000000000057
20
-77.9800049999999914
11
159.0221080000000029
21
-94.0028980000000018
0
LINE
8
BLACK
6
CONTINUOUS
10
159.0221080000000029
20
-94.0028980000000018
11
159.0221070000000054
21
-94.0029029999999892
0
LINE
8
BLACK
6
CONTINUOUS
10
159.0221070000000054
20
-94.0029029999999892
11
159.0221070000000054
21
-94.0881949999999989
0
LINE
8
BLACK
6
CONTINUOUS
10
159.0221070000000054
20
-94.0881949999999989
11
159.0517309999999895
21
-94.2562059999999917
0
LINE
8
BLACK
6
CONTINUOUS
10
159.0517309999999895
20
-94.2562059999999917
11
159.1100799999999822
21
-94.4165209999999888
0
LINE
8
BLACK
6
CONTINUOUS
10
159.1100799999999822
20
-94.4165209999999888
11
159.1953809999999976
21
-94.5642679999999984
0
LINE
8
BLACK
6
CONTINUOUS
10
159.1953809999999976
20
-94.5642679999999984
11
159.3050429999999835
21
-94.6949570000000023
0
LINE
8
BLACK
6
CONTINUOUS
10
159.3050429999999835
20
-94.6949570000000023
11
159.4357320000000016
21
-94.8046190000000024
0
LINE
8
BLACK
6
CONTINUOUS
10
159.4357320000000016
20
-94.8046190000000024
11
159.5834789999999828
21
-94.8899199999999894
0
LINE
8
BLACK
6
CONTINUOUS
10
159.5834789999999828
20
-94.8899199999999894
11
159.7437939999999799
21
-94.9482689999999963
0
LINE
8
BLACK
6
CONTINUOUS
10
159.7437939999999799
20
-94.9482689999999963
11
159.9118049999999869
21
-94.9778929999999946
0
LINE
8
BLACK
6
CONTINUOUS
10
159.9118049999999869
20
-94.9778929999999946
11
159.9971069999999997
21
-94.9778929999999946
0
LINE
8
BLACK
6
CONTINUOUS
10
159.9971069999999997
20
-94.9778929999999946
11
159.9971089999999947
21
-94.9778929999999946
0
LINE
8
BLACK
6
CONTINUOUS
10
159.9971089999999947
20
-94.9778929999999946
11
159.9971139999999821
21
-94.9778929999999946
0
LINE
8
BLACK
6
CONTINUOUS
10
159.9971139999999821
20
-94.9778929999999946
11
185.052913999999987
21
-94.9921069999999901
0
LINE
8
BLACK
6
CONTINUOUS
10
185.052913999999987
20
-94.9921069999999901
11
185.0529300000000035
21
-94.9921099999999967
0
LINE
8
BLACK
6
CONTINUOUS
10
185.0529300000000035
20
-94.9921099999999967
11
185.2308830000000057
21
-95.0076779999999985
0
LINE
8
BLACK
6
CONTINUOUS
10
185.2308830000000057
20
-95.0076779999999985
11
185.4034649999999829
21
-95.0539199999999909
0
LINE
8
BLACK
6
CONTINUOUS
10
185.4034649999999829
20
-95.0539199999999909
11
185.5653939999999977
21
-95.1294290000000018
0
LINE
8
BLACK
6
CONTINUOUS
10
185.5653939999999977
20
-95.1294290000000018
11
185.7117519999999899
21
-95.2319090000000017
0
LINE
8
BLACK
6
CONTINUOUS
10
185.7117519999999899
20
-95.2319090000000017
11
185.8380909999999915
21
-95.358247999999989
0
LINE
8
BLACK
6
CONTINUOUS
10
185.8380909999999915
20
-95.358247999999989
11
185.9405710000000056
21
-95.5046059999999954
0
LINE
8
BLACK
6
CONTINUOUS
10
185.9405710000000056
20
-95.5046059999999954
11
186.0160799999999881
21
-95.6665349999999961
0
LINE
8
BLACK
6
CONTINUOUS
10
186.0160799999999881
20
-95.6665349999999961
11
186.0623219999999947
21
-95.8391170000000017
0
LINE
8
BLACK
6
CONTINUOUS
10
186.0623219999999947
20
-95.8391170000000017
11
186.0778929999999889
21
-96.0171069999999958
0
LINE
8
BLACK
6
CONTINUOUS
10
186.0778929999999889
20
-96.0171069999999958
11
186.0778829999999857
21
-96.0171349999999961
0
LINE
8
BLACK
6
CONTINUOUS
10
186.0778829999999857
20
-96.0171349999999961
11
186.0778919999999914
21
-96.0171780000000012
0
LINE
8
BLACK
6
CONTINUOUS
10
186.0778919999999914
20
-96.0171780000000012
11
186.0549999999999784
21
-104.0099969999999985
0
LINE
8
BLACK
6
CONTINUOUS
10
186.0549999999999784
20
-104.0099969999999985
11
186.0550010000000043
21
-104.0099999999999909
0
LINE
8
BLACK
6
CONTINUOUS
10
186.0550010000000043
20
-104.0099999999999909
11
186.0550039999999967
21
-104.095327999999995
0
LINE
8
BLACK
6
CONTINUOUS
10
186.0550039999999967
20
-104.095327999999995
11
186.0846469999999897
21
-104.2633900000000011
0
LINE
8
BLACK
6
CONTINUOUS
10
186.0846469999999897
20
-104.2633900000000011
11
186.1430320000000052
21
-104.4237479999999891
0
LINE
8
BLACK
6
CONTINUOUS
10
186.1430320000000052
20
-104.4237479999999891
11
186.2283850000000029
21
-104.5715259999999915
0
LINE
8
BLACK
6
CONTINUOUS
10
186.2283850000000029
20
-104.5715259999999915
11
186.3381090000000029
21
-104.7022319999999951
0
LINE
8
BLACK
6
CONTINUOUS
10
186.3381090000000029
20
-104.7022319999999951
11
186.4688689999999838
21
-104.8118920000000003
0
LINE
8
BLACK
6
CONTINUOUS
10
186.4688689999999838
20
-104.8118920000000003
11
186.6166900000000055
21
-104.8971710000000002
0
LINE
8
BLACK
6
CONTINUOUS
10
186.6166900000000055
20
-104.8971710000000002
11
186.7770759999999939
21
-104.9554779999999994
0
LINE
8
BLACK
6
CONTINUOUS
10
186.7770759999999939
20
-104.9554779999999994
11
186.9451530000000048
21
-104.9850379999999888
0
LINE
8
BLACK
6
CONTINUOUS
10
186.9451530000000048
20
-104.9850379999999888
11
187.0304809999999804
21
-104.984999000000002
0
LINE
8
BLACK
6
CONTINUOUS
10
187.0304809999999804
20
-104.984999000000002
11
187.0304830000000038
21
-104.984999000000002
0
LINE
8
BLACK
6
CONTINUOUS
10
187.0304830000000038
20
-104.984999000000002
11
229.3099879999999757
21
-104.9649999999999892
0
LINE
8
BLACK
6
CONTINUOUS
10
229.3099879999999757
20
-104.9649999999999892
11
229.3195559999999773
21
-104.9668980000000005
0
LINE
8
BLACK
6
CONTINUOUS
10
229.3195559999999773
20
-104.9668980000000005
11
229.3197600000000023
21
-104.967101999999997
0
LINE
8
BLACK
6
CONTINUOUS
10
229.3197600000000023
20
-104.967101999999997
11
229.3200469999999882
21
-104.9671079999999961
0
LINE
8
BLACK
6
CONTINUOUS
10
229.3200469999999882
20
-104.9671079999999961
11
229.3280419999999822
21
-104.9726950000000016
0
LINE
8
BLACK
6
CONTINUOUS
10
229.3280419999999822
20
-104.9726950000000016
11
240.8568159999999807
21
-116.9926949999999977
0
LINE
8
BLACK
6
CONTINUOUS
10
240.8568159999999807
20
-116.9926949999999977
11
240.8594269999999824
21
-116.9967849999999885
0
LINE
8
BLACK
6
CONTINUOUS
10
240.8594269999999824
20
-116.9967849999999885
11
240.863129999999984
21
-117.0005139999999955
0
LINE
8
BLACK
6
CONTINUOUS
10
240.863129999999984
20
-117.0005139999999955
11
240.8630629999999826
21
-117.019646999999992
0
LINE
8
BLACK
6
CONTINUOUS
10
240.8630629999999826
20
-117.019646999999992
11
240.8494859999999846
21
-117.0331299999999999
0
LINE
8
BLACK
6
CONTINUOUS
10
240.8494859999999846
20
-117.0331299999999999
11
240.8399119999999982
21
-117.0349999999999966
0
LINE
8
BLACK
6
CONTINUOUS
10
240.8399119999999982
20
-117.0349999999999966
11
237.9699129999999911
21
-117.0249999999999915
0
LINE
8
BLACK
6
CONTINUOUS
10
237.9699129999999911
20
-117.0249999999999915
11
237.8846989999999835
21
-117.0249999999999915
0
LINE
8
BLACK
6
CONTINUOUS
10
237.8846989999999835
20
-117.0249999999999915
11
237.7166879999999765
21
-117.0546250000000015
0
LINE
8
BLACK
6
CONTINUOUS
10
237.7166879999999765
20
-117.0546250000000015
11
237.5563729999999794
21
-117.1129749999999916
0
LINE
8
BLACK
6
CONTINUOUS
10
237.5563729999999794
20
-117.1129749999999916
11
237.4086269999999956
21
-117.1982759999999928
0
LINE
8
BLACK
6
CONTINUOUS
10
237.4086269999999956
20
-117.1982759999999928
11
237.2779379999999776
21
-117.3079379999999929
0
LINE
8
BLACK
6
CONTINUOUS
10
237.2779379999999776
20
-117.3079379999999929
11
237.1682759999999917
21
-117.4386269999999968
0
LINE
8
BLACK
6
CONTINUOUS
10
237.1682759999999917
20
-117.4386269999999968
11
237.0829749999999763
21
-117.5863729999999947
0
LINE
8
BLACK
6
CONTINUOUS
10
237.0829749999999763
20
-117.5863729999999947
11
237.0246249999999861
21
-117.7466879999999918
0
LINE
8
BLACK
6
CONTINUOUS
10
237.0246249999999861
20
-117.7466879999999918
11
236.9949999999999761
21
-117.9146989999999988
0
LINE
8
BLACK
6
CONTINUOUS
10
236.9949999999999761
20
-117.9146989999999988
11
236.9949999999999761
21
-117.9999619999999965
0
LINE
8
BLACK
6
CONTINUOUS
10
236.9949999999999761
20
-117.9999619999999965
11
237.0221080000000029
21
-135.9928549999999916
0
LINE
8
BLACK
6
CONTINUOUS
10
237.0221080000000029
20
-135.9928549999999916
11
237.0221019999999896
21
-135.9928799999999853
0
LINE
8
BLACK
6
CONTINUOUS
10
237.0221019999999896
20
-135.9928799999999853
11
237.022106999999977
21
-135.9928929999999809
0
LINE
8
BLACK
6
CONTINUOUS
10
237.022106999999977
20
-135.9928929999999809
11
237.022106999999977
21
-136.0781949999999938
0
LINE
8
BLACK
6
CONTINUOUS
10
237.022106999999977
20
-136.0781949999999938
11
237.0517309999999895
21
-136.2462060000000008
0
LINE
8
BLACK
6
CONTINUOUS
10
237.0517309999999895
20
-136.2462060000000008
11
237.1100799999999822
21
-136.4065209999999979
0
LINE
8
BLACK
6
CONTINUOUS
10
237.1100799999999822
20
-136.4065209999999979
11
237.1953809999999976
21
-136.5542680000000075
0
LINE
8
BLACK
6
CONTINUOUS
10
237.1953809999999976
20
-136.5542680000000075
11
237.3050429999999835
21
-136.6849569999999972
0
LINE
8
BLACK
6
CONTINUOUS
10
237.3050429999999835
20
-136.6849569999999972
11
237.4357320000000016
21
-136.7946189999999831
0
LINE
8
BLACK
6
CONTINUOUS
10
237.4357320000000016
20
-136.7946189999999831
11
237.5834789999999828
21
-136.8799199999999985
0
LINE
8
BLACK
6
CONTINUOUS
10
237.5834789999999828
20
-136.8799199999999985
11
237.7437939999999799
21
-136.9382689999999911
0
LINE
8
BLACK
6
CONTINUOUS
10
237.7437939999999799
20
-136.9382689999999911
11
237.9118049999999869
21
-136.9678930000000037
0
LINE
8
BLACK
6
CONTINUOUS
10
237.9118049999999869
20
-136.9678930000000037
11
237.9970929999999782
21
-136.9678930000000037
0
LINE
8
BLACK
6
CONTINUOUS
10
237.9970929999999782
20
-136.9678930000000037
11
256.0528789999999617
21
-136.9578919999999869
0
LINE
8
BLACK
6
CONTINUOUS
10
256.0528789999999617
20
-136.9578919999999869
11
256.0528889999999933
21
-136.9578939999999818
0
LINE
8
BLACK
6
CONTINUOUS
10
256.0528889999999933
20
-136.9578939999999818
11
256.0528929999999832
21
-136.9578929999999843
0
LINE
8
BLACK
6
CONTINUOUS
10
256.0528929999999832
20
-136.9578929999999843
11
256.1381949999999961
21
-136.9578929999999843
0
LINE
8
BLACK
6
CONTINUOUS
10
256.1381949999999961
20
-136.9578929999999843
11
256.3062059999999747
21
-136.9282690000000002
0
LINE
8
BLACK
6
CONTINUOUS
10
256.3062059999999747
20
-136.9282690000000002
11
256.4665210000000002
21
-136.8699200000000076
0
LINE
8
BLACK
6
CONTINUOUS
10
256.4665210000000002
20
-136.8699200000000076
11
256.6142679999999814
21
-136.7846189999999922
0
LINE
8
BLACK
6
CONTINUOUS
10
256.6142679999999814
20
-136.7846189999999922
11
256.7449569999999994
21
-136.6749570000000062
0
LINE
8
BLACK
6
CONTINUOUS
10
256.7449569999999994
20
-136.6749570000000062
11
256.8546190000000138
21
-136.5442679999999882
0
LINE
8
BLACK
6
CONTINUOUS
10
256.8546190000000138
20
-136.5442679999999882
11
256.9399199999999723
21
-136.396521000000007
0
LINE
8
BLACK
6
CONTINUOUS
10
256.9399199999999723
20
-136.396521000000007
11
256.9982689999999934
21
-136.2362059999999815
0
LINE
8
BLACK
6
CONTINUOUS
10
256.9982689999999934
20
-136.2362059999999815
11
257.0278930000000059
21
-136.0681950000000029
0
LINE
8
BLACK
6
CONTINUOUS
10
257.0278930000000059
20
-136.0681950000000029
11
257.0278930000000059
21
-135.98289299999999
0
LINE
8
BLACK
6
CONTINUOUS
10
257.0278930000000059
20
-135.98289299999999
11
257.0279039999999782
21
-135.9828579999999931
0
LINE
8
BLACK
6
CONTINUOUS
10
257.0279039999999782
20
-135.9828579999999931
11
257.0278920000000085
21
-135.982797000000005
0
LINE
8
BLACK
6
CONTINUOUS
10
257.0278920000000085
20
-135.982797000000005
11
257.0349999999999682
21
-134.129903999999982
0
LINE
8
BLACK
6
CONTINUOUS
10
257.0349999999999682
20
-134.129903999999982
11
257.0349999999999682
21
-134.1299029999999846
0
LINE
8
BLACK
6
CONTINUOUS
10
257.0349999999999682
20
-134.1299029999999846
11
257.0541359999999713
21
-111.9899789999999911
0
LINE
8
BLACK
6
CONTINUOUS
10
257.0541359999999713
20
-111.9899789999999911
11
257.0550000000000068
21
-111.9856539999999967
0
LINE
8
BLACK
6
CONTINUOUS
10
257.0550000000000068
20
-111.9856539999999967
11
257.0550000000000068
21
-111.9046989999999937
0
LINE
8
BLACK
6
CONTINUOUS
10
257.0550000000000068
20
-111.9046989999999937
11
257.0253749999999968
21
-111.7366880000000009
0
LINE
8
BLACK
6
CONTINUOUS
10
257.0253749999999968
20
-111.7366880000000009
11
256.9670249999999783
21
-111.5763729999999896
0
LINE
8
BLACK
6
CONTINUOUS
10
256.9670249999999783
20
-111.5763729999999896
11
256.8817239999999629
21
-111.4286269999999917
0
LINE
8
BLACK
6
CONTINUOUS
10
256.8817239999999629
20
-111.4286269999999917
11
256.7720620000000054
21
-111.297938000000002
0
LINE
8
BLACK
6
CONTINUOUS
10
256.7720620000000054
20
-111.297938000000002
11
256.6413729999999873
21
-111.1882760000000019
0
LINE
8
BLACK
6
CONTINUOUS
10
256.6413729999999873
20
-111.1882760000000019
11
256.4936270000000036
21
-111.1029750000000007
0
LINE
8
BLACK
6
CONTINUOUS
10
256.4936270000000036
20
-111.1029750000000007
11
256.3333119999999781
21
-111.0446249999999964
0
LINE
8
BLACK
6
CONTINUOUS
10
256.3333119999999781
20
-111.0446249999999964
11
256.1653009999999995
21
-111.0150000000000006
0
LINE
8
BLACK
6
CONTINUOUS
10
256.1653009999999995
20
-111.0150000000000006
11
256.0801030000000083
21
-111.0150000000000006
0
LINE
8
BLACK
6
CONTINUOUS
10
256.0801030000000083
20
-111.0150000000000006
11
245.6301029999999912
21
-111.0578919999999954
0
LINE
8
BLACK
6
CONTINUOUS
10
245.6301029999999912
20
-111.0578919999999954
11
245.6205279999999789
21
-111.0560279999999977
0
LINE
8
BLACK
6
CONTINUOUS
10
245.6205279999999789
20
-111.0560279999999977
11
245.6194789999999841
21
-111.0549879999999945
0
LINE
8
BLACK
6
CONTINUOUS
10
245.6194789999999841
20
-111.0549879999999945
11
245.6180119999999931
21
-111.0548299999999955
0
LINE
8
BLACK
6
CONTINUOUS
10
245.6180119999999931
20
-111.0548299999999955
11
245.6105289999999854
21
-111.0485729999999904
0
LINE
8
BLACK
6
CONTINUOUS
10
245.6105289999999854
20
-111.0485729999999904
11
240.8805299999999932
21
-105.1756809999999973
0
LINE
8
BLACK
6
CONTINUOUS
10
240.8805299999999932
20
-105.1756809999999973
11
240.8777609999999925
21
-105.170384999999996
0
LINE
8
BLACK
6
CONTINUOUS
10
240.8777609999999925
20
-105.170384999999996
11
240.8768699999999967
21
-105.1694880000000012
0
LINE
8
BLACK
6
CONTINUOUS
10
240.8768699999999967
20
-105.1694880000000012
11
240.8766179999999792
21
-105.1681979999999896
0
LINE
8
BLACK
6
CONTINUOUS
10
240.8766179999999792
20
-105.1681979999999896
11
240.876010999999977
21
-105.1670369999999934
0
LINE
8
BLACK
6
CONTINUOUS
10
240.876010999999977
20
-105.1670369999999934
11
240.8761459999999772
21
-105.165781999999993
0
LINE
8
BLACK
6
CONTINUOUS
10
240.8761459999999772
20
-105.165781999999993
11
240.875
21
-105.159914999999998
0
LINE
8
BLACK
6
CONTINUOUS
10
240.875
20
-105.159914999999998
11
240.9678919999999778
21
-77.9670210000000026
0
LINE
8
BLACK
6
CONTINUOUS
10
240.9678919999999778
20
-77.9670210000000026
11
240.9678929999999752
21
-77.967016000000001
0
LINE
8
BLACK
6
CONTINUOUS
10
240.9678929999999752
20
-77.967016000000001
11
240.9678929999999752
21
-77.8818049999999999
0
LINE
8
BLACK
6
CONTINUOUS
10
240.9678929999999752
20
-77.8818049999999999
11
240.9382689999999911
21
-77.7137939999999929
0
LINE
8
BLACK
6
CONTINUOUS
10
240.9382689999999911
20
-77.7137939999999929
11
240.8799199999999985
21
-77.5534789999999958
0
LINE
8
BLACK
6
CONTINUOUS
10
240.8799199999999985
20
-77.5534789999999958
11
240.7946189999999831
21
-77.4057320000000004
0
LINE
8
BLACK
6
CONTINUOUS
10
240.7946189999999831
20
-77.4057320000000004
11
240.6849569999999972
21
-77.2750429999999966
0
LINE
8
BLACK
6
CONTINUOUS
10
240.6849569999999972
20
-77.2750429999999966
11
240.5542679999999791
21
-77.1653809999999964
0
LINE
8
BLACK
6
CONTINUOUS
10
240.5542679999999791
20
-77.1653809999999964
11
240.4065209999999979
21
-77.0800799999999953
0
LINE
8
BLACK
6
CONTINUOUS
10
240.4065209999999979
20
-77.0800799999999953
11
240.2462060000000008
21
-77.0217310000000026
0
LINE
8
BLACK
6
CONTINUOUS
10
240.2462060000000008
20
-77.0217310000000026
11
240.0781949999999938
21
-76.9921069999999901
0
LINE
8
BLACK
6
CONTINUOUS
10
240.0781949999999938
20
-76.9921069999999901
11
239.9928929999999809
21
-76.9921069999999901
0
LINE
8
BLACK
6
CONTINUOUS
10
239.9928929999999809
20
-76.9921069999999901
11
239.992888999999991
21
-76.9921049999999951
0
LINE
8
BLACK
6
CONTINUOUS
10
239.992888999999991
20
-76.9921049999999951
11
239.9928829999999778
21
-76.9921069999999901
0
LINE
8
BLACK
6
CONTINUOUS
10
239.9928829999999778
20
-76.9921069999999901
11
221.0359909999999957
21
-76.985005000000001
0
LINE
8
BLACK
6
CONTINUOUS
10
221.0359909999999957
20
-76.985005000000001
11
221.0271070000000009
21
-76.9878929999999997
0
LINE
8
BLACK
6
CONTINUOUS
10
221.0271070000000009
20
-76.9878929999999997
11
220.8491169999999784
21
-76.9723219999999912
0
LINE
8
BLACK
6
CONTINUOUS
10
220.8491169999999784
20
-76.9723219999999912
11
220.6765350000000012
21
-76.9260799999999989
0
LINE
8
BLACK
6
CONTINUOUS
10
220.6765350000000012
20
-76.9260799999999989
11
220.5146059999999864
21
-76.8505710000000022
0
LINE
8
BLACK
6
CONTINUOUS
10
220.5146059999999864
20
-76.8505710000000022
11
220.3682479999999941
21
-76.7480910000000023
0
LINE
8
BLACK
6
CONTINUOUS
10
220.3682479999999941
20
-76.7480910000000023
11
220.2419089999999926
21
-76.6217520000000007
0
LINE
8
BLACK
6
CONTINUOUS
10
220.2419089999999926
20
-76.6217520000000007
11
220.1394289999999785
21
-76.4753939999999943
0
LINE
8
BLACK
6
CONTINUOUS
10
220.1394289999999785
20
-76.4753939999999943
11
220.063919999999996
21
-76.3134649999999937
0
LINE
8
BLACK
6
CONTINUOUS
10
220.063919999999996
20
-76.3134649999999937
11
220.0176779999999894
21
-76.1408830000000023
0
LINE
8
BLACK
6
CONTINUOUS
10
220.0176779999999894
20
-76.1408830000000023
11
220.0021069999999952
21
-75.962892999999994
0
LINE
8
BLACK
6
CONTINUOUS
10
220.0021069999999952
20
-75.962892999999994
11
220.0021069999999952
21
-75.9628889999999899
0
LINE
8
BLACK
6
CONTINUOUS
10
220.0021069999999952
20
-75.9628889999999899
11
219.9978929999999764
21
-69.9871179999999953
0
LINE
8
BLACK
6
CONTINUOUS
10
219.9978929999999764
20
-69.9871179999999953
11
219.9978940000000023
21
-69.9871109999999987
0
LINE
8
BLACK
6
CONTINUOUS
10
219.9978940000000023
20
-69.9871109999999987
11
219.9978929999999764
21
-69.9871069999999946
0
LINE
8
BLACK
6
CONTINUOUS
10
219.9978929999999764
20
-69.9871069999999946
11
219.9978929999999764
21
-69.901804999999996
0
LINE
8
BLACK
6
CONTINUOUS
10
219.9978929999999764
20
-69.901804999999996
11
219.9682689999999923
21
-69.7337940000000032
0
LINE
8
BLACK
6
CONTINUOUS
10
219.9682689999999923
20
-69.7337940000000032
11
219.9099199999999996
21
-69.5734789999999919
0
LINE
8
BLACK
6
CONTINUOUS
10
219.9099199999999996
20
-69.5734789999999919
11
219.8246189999999842
21
-69.4257319999999964
0
LINE
8
BLACK
6
CONTINUOUS
10
219.8246189999999842
20
-69.4257319999999964
11
219.7149569999999983
21
-69.2950429999999926
0
LINE
8
BLACK
6
CONTINUOUS
10
219.7149569999999983
20
-69.2950429999999926
11
219.5842679999999802
21
-69.1853809999999925
0
LINE
8
BLACK
6
CONTINUOUS
10
219.5842679999999802
20
-69.1853809999999925
11
219.436520999999999
21
-69.1000799999999913
0
LINE
8
BLACK
6
CONTINUOUS
10
219.436520999999999
20
-69.1000799999999913
11
219.2762060000000019
21
-69.0417309999999986
0
LINE
8
BLACK
6
CONTINUOUS
10
219.2762060000000019
20
-69.0417309999999986
11
219.1081949999999949
21
-69.0121070000000003
0
LINE
8
BLACK
6
CONTINUOUS
10
219.1081949999999949
20
-69.0121070000000003
11
219.0228929999999821
21
-69.0121070000000003
0
LINE
8
BLACK
6
CONTINUOUS
10
219.0228929999999821
20
-69.0121070000000003
11
219.022876999999994
21
-69.0121010000000012
0
LINE
8
BLACK
6
CONTINUOUS
10
219.022876999999994
20
-69.0121010000000012
11
219.0228510000000028
21
-69.0121070000000003
0
LINE
8
BLACK
6
CONTINUOUS
10
219.0228510000000028
20
-69.0121070000000003
11
183.0470579999999927
21
-68.952106999999998
0
LINE
8
BLACK
6
CONTINUOUS
10
183.0470579999999927
20
-68.952106999999998
11
182.9618049999999982
21
-68.952106999999998
  0
ENDSEC
  0
EOF
